<svg width="88" height="86" viewBox="0 0 88 86" fill="none" xmlns="http://www.w3.org/2000/svg">
<rect x="0.5" y="0.5" width="87" height="85" rx="9.5" fill="#008E00" fill-opacity="0.05" stroke="#008E00"/>
<g clip-path="url(#clip0_1067_4017)">
<path d="M45.468 44.5477C45.9687 44.5477 46.3797 44.9662 46.3797 45.476C46.3797 45.9858 45.9692 46.4034 45.468 46.4034H18.687C17.7621 46.4034 16.966 46.0116 16.401 45.3977C15.8359 44.7828 15.502 43.9213 15.502 42.993V17.41C15.502 16.4826 15.8744 15.6202 16.4911 15.0062C17.1074 14.3789 17.942 14 18.8542 14H61.6133C62.5381 14 63.3732 14.3789 63.9895 15.0062C64.0022 15.0191 64.0153 15.0454 64.0407 15.0583C64.6184 15.6723 64.9655 16.5084 64.9655 17.41V42.993C64.9655 43.9337 64.5414 44.7828 63.8993 45.3977C63.2446 46.0116 62.3582 46.4034 61.4461 46.4034H60.7007C60.2 46.4034 59.7886 45.9858 59.7886 45.476C59.7886 44.9662 60.1996 44.5477 60.7007 44.5477H61.4461C61.8956 44.5477 62.3451 44.3652 62.6659 44.0517C62.9614 43.7637 63.1539 43.3981 63.1539 42.993V17.41C63.1539 16.9919 62.9999 16.626 62.7434 16.3388C62.7307 16.3259 62.7171 16.3125 62.7044 16.2996C62.4221 16.0254 62.0365 15.8424 61.6129 15.8424H18.8542C18.43 15.8424 18.0449 16.0254 17.7626 16.2996C17.4925 16.5868 17.3126 16.979 17.3126 17.41V42.993C17.3126 43.4502 17.4667 43.8554 17.7236 44.1425C17.9547 44.391 18.2891 44.5477 18.687 44.5477H45.468Z" fill="#008E00"/>
<path d="M63.3097 30.2407C63.027 29.8092 63.1425 29.2478 63.5662 28.9602C63.9772 28.6859 64.5422 28.8035 64.8123 29.2216L70.5538 37.9757C70.8878 38.485 71.1316 38.9948 71.3241 39.5433C71.504 40.0789 71.6196 40.6542 71.6712 41.2548L72.4932 50.7672C72.5059 50.8976 72.4805 51.0147 72.4547 51.1193L69.2819 65.4535C69.179 65.8712 68.8066 66.1721 68.3956 66.1721H51.5697C51.3386 66.1721 51.1202 66.0804 50.9534 65.9237C48.6543 63.9772 47.3312 61.625 46.946 58.7243C46.5735 55.9416 47.0874 52.6754 48.4359 48.7681L48.7952 38.4984C48.8727 36.055 50.1183 34.5002 51.6984 33.8208C52.3146 33.5594 52.9952 33.4419 53.6763 33.4677C54.3569 33.494 55.0248 33.6636 55.6415 33.977C57.2084 34.7874 58.3897 36.5122 58.3 39.1515L58.1205 50.9368C58.1205 51.4461 57.7095 51.8513 57.2084 51.8513C56.7077 51.8388 56.3094 51.4198 56.3221 50.9239L56.4888 39.1382C56.4503 37.701 56.2065 36.3421 54.8191 35.6235C54.4334 35.4276 54.0225 35.323 53.6115 35.2972C53.2009 35.2843 52.7768 35.3626 52.3917 35.5193C51.4156 35.9374 50.6449 36.9436 50.6063 38.5634L50.2466 48.9252C50.2466 49.0299 50.2339 49.1474 50.1954 49.2521C48.9112 52.9368 48.4105 55.9679 48.744 58.4897C49.0526 60.8027 50.093 62.71 51.9041 64.3298H67.6774L70.6698 50.7943L69.8732 41.4124C69.8347 40.9418 69.745 40.5237 69.6168 40.1448C69.4885 39.7526 69.2955 39.3737 69.0517 38.9948L63.3097 30.2407Z" fill="#008E00"/>
<path d="M64.067 24.8578C64.5677 24.8578 64.966 25.263 64.966 25.7723C64.966 26.2817 64.5677 26.7002 64.067 26.7002H36.991C36.4902 26.7002 36.0919 26.2821 36.0919 25.7723C36.0919 25.2625 36.4902 24.8578 36.991 24.8578H64.067ZM20.0876 24.8187C20.5883 24.8187 20.9997 25.2367 20.9997 25.7465C20.9997 26.2563 20.5887 26.661 20.0876 26.661H16.4141C15.9134 26.661 15.502 26.2563 15.502 25.7465C15.502 25.2367 15.9129 24.8187 16.4141 24.8187H20.0876Z" fill="#008E00"/>
<path d="M29.4518 45.476C29.4518 45.9854 29.0408 46.4034 28.5396 46.4034C28.0389 46.4034 27.6406 45.9858 27.6406 45.476V30.9072C27.6406 30.3979 28.0385 29.9793 28.5396 29.9793C29.0408 29.9793 29.4518 30.3974 29.4518 30.9072V45.476ZM29.4518 17.9982C29.4518 18.5075 29.0408 18.926 28.5396 18.926C28.0389 18.926 27.6406 18.508 27.6406 17.9982V14.9274C27.6406 14.4181 28.0385 14 28.5396 14C29.0408 14 29.4518 14.4181 29.4518 14.9274V17.9982Z" fill="#008E00"/>
<path d="M33.87 30.8943C33.9982 31.3778 33.7159 31.8872 33.2279 32.0181C32.7526 32.149 32.2519 31.8613 32.1232 31.3778C31.8405 30.3324 31.5196 29.3525 30.9546 28.5426C30.4407 27.824 29.6958 27.1971 28.5394 26.7136C27.3835 27.1971 26.6513 27.824 26.1374 28.5426C25.5597 29.3525 25.2384 30.3324 24.9688 31.3778C24.8274 31.8613 24.3394 32.1485 23.8514 32.0181C23.3761 31.8876 23.0938 31.3778 23.222 30.8943C23.5433 29.6793 23.9284 28.5163 24.6734 27.4709C24.9176 27.1178 25.213 26.7786 25.547 26.4647C23.4789 25.6152 22.246 24.2434 21.7195 22.9629C21.4884 22.4011 21.3986 21.8392 21.4113 21.3298C21.4372 20.7546 21.6039 20.2453 21.8993 19.8272C22.4259 19.0694 23.338 18.6647 24.5325 18.8735C25.5855 19.0565 26.7414 19.6967 27.7048 21.0819C28.0002 21.4999 28.2825 22.0093 28.5394 22.5974C28.7964 22.0093 29.0791 21.4999 29.3872 21.0819C30.3506 19.6967 31.4938 19.0565 32.5469 18.8735C33.7545 18.6647 34.6535 19.0694 35.1927 19.8272C35.4881 20.2453 35.6553 20.7551 35.6807 21.3298C35.6934 21.8392 35.591 22.4011 35.3726 22.9629C34.846 24.2434 33.6131 25.6152 31.545 26.4647C31.879 26.7781 32.1617 27.1178 32.4186 27.4709C33.1509 28.5163 33.536 29.6793 33.87 30.8943V30.8943ZM27.4991 25.1713C27.1651 23.8387 26.7283 22.8459 26.2276 22.1402C25.5855 21.2123 24.866 20.7942 24.2366 20.6901C23.7997 20.6117 23.5043 20.703 23.3629 20.8993C23.2732 21.0298 23.2216 21.1999 23.2216 21.3958C23.2089 21.6571 23.2601 21.9443 23.3888 22.2582C23.8514 23.3815 25.1482 24.6094 27.4991 25.1713V25.1713ZM30.8513 22.1402C30.3633 22.8459 29.9138 23.8387 29.5925 25.1713C31.9433 24.6094 33.2402 23.3815 33.6897 22.2577C33.8179 21.9443 33.8822 21.6566 33.8695 21.3953C33.8569 21.1994 33.8179 21.0293 33.7282 20.8989C33.5868 20.703 33.2914 20.6112 32.8419 20.6896C32.2129 20.7942 31.5065 21.2123 30.8513 22.1402Z" fill="#008E00"/>
<path d="M18.7387 54.4777H22.733C22.2449 53.9421 21.911 53.3678 21.7184 52.7925C21.3845 51.7868 21.4615 50.6501 22.1425 49.8135C22.7334 49.0949 23.6582 48.716 24.84 48.9248C25.8292 49.0949 26.9207 49.6955 27.8197 51.0027C28.0767 51.3816 28.3209 51.813 28.5388 52.2965C28.7699 51.813 29.0015 51.3821 29.258 51.0027C30.1701 49.6955 31.249 49.0949 32.2382 48.9248C33.4326 48.716 34.3574 49.0949 34.9356 49.8135C35.6293 50.6496 35.6932 51.7868 35.3724 52.7925C35.1798 53.3678 34.8459 53.9421 34.3447 54.4777H38.339C39.4052 54.4777 40.2916 55.3664 40.2916 56.451V59.7831C40.2916 60.5934 39.8035 61.3116 39.084 61.6126V71.2157C39.084 72.1961 38.2878 73.0055 37.3372 73.0055H30.4143H26.6765H19.7532C18.7899 73.0055 18.0064 72.1961 18.0064 71.2157V61.6126C17.2873 61.312 16.7988 60.5801 16.7988 59.7831V56.451C16.7993 55.3664 17.6725 54.4777 18.7387 54.4777V54.4777ZM29.6821 54.4777H30.915C32.5078 53.9684 33.3687 53.0534 33.651 52.2182C33.7792 51.8255 33.8178 51.3161 33.5481 50.9769C33.3687 50.7681 33.0343 50.6501 32.5463 50.7284C31.9812 50.8331 31.326 51.212 30.7483 52.061C30.3373 52.6487 29.9775 53.4328 29.6821 54.4777V54.4777ZM26.1758 54.4777H27.3961C27.1133 53.4323 26.7408 52.6482 26.3425 52.0605C25.7517 51.2115 25.1096 50.8326 24.5314 50.728C24.0561 50.6496 23.7221 50.7676 23.5295 50.9764C23.2595 51.3157 23.3111 51.8255 23.4267 52.2177C23.7094 53.0539 24.5699 53.9684 26.1758 54.4777V54.4777ZM32.3664 56.3205V59.9135H38.1723H38.339C38.4161 59.9135 38.4677 59.8615 38.4677 59.7831V56.451C38.4677 56.3851 38.4165 56.3205 38.339 56.3205H32.3664ZM24.7113 59.9135V56.3205H18.7387C18.6743 56.3205 18.61 56.3726 18.61 56.451V59.7831C18.61 59.8615 18.6743 59.9135 18.7387 59.9135H18.9054H24.7113ZM26.5224 56.3205V59.9135H30.5557V56.3205H26.5224ZM29.8361 71.1636V61.7693H27.2415V71.1636H29.8361ZM25.4304 71.1636V61.7693H19.8175V71.1636H25.4304ZM31.6473 61.7693V71.1636H37.2733V61.7693H31.6473Z" fill="#008E00"/>
<path d="M50.2858 64.3293H69.2952C70.2844 64.3293 71.1064 65.153 71.1064 66.1721V71.1632C71.1064 71.6591 70.9011 72.1302 70.5672 72.457C70.2459 72.7963 69.7837 73.0051 69.2952 73.0051H50.2858C49.2966 73.0051 48.4746 72.1689 48.4746 71.1632V66.1721C48.4746 65.1535 49.2966 64.3293 50.2858 64.3293ZM69.2952 66.1726H50.2858V71.1636H69.2952V66.1726Z" fill="#008E00"/>
</g>
<defs>
<clipPath id="clip0_1067_4017">
<rect width="58" height="59" fill="white" transform="translate(15 14)"/>
</clipPath>
</defs>
</svg>
