<svg width="88" height="86" viewBox="0 0 88 86" fill="none" xmlns="http://www.w3.org/2000/svg">
<rect x="0.5" y="0.5" width="87" height="85" rx="9.5" fill="#003DDB" fill-opacity="0.05" stroke="#0039CA"/>
<g clip-path="url(#clip0_1067_4016)">
<path d="M58.2004 14H22.8004C21.2361 14.0016 19.7363 14.6237 18.6302 15.7298C17.5241 16.8359 16.902 18.3357 16.9004 19.9V22.85C16.9004 23.3716 17.1076 23.8718 17.4764 24.2406C17.8452 24.6095 18.3455 24.8167 18.8671 24.8167H26.7337V70.3716C26.7334 70.7282 26.8301 71.0782 27.0135 71.3842C27.1968 71.6901 27.4599 71.9404 27.7746 72.1083C28.0893 72.2762 28.4437 72.3554 28.7999 72.3373C29.1561 72.3193 29.5007 72.2047 29.7968 72.0058L33.6171 69.46L38.4285 72.6607C38.7538 72.8815 39.1377 72.9996 39.5308 73C39.9177 73.0008 40.2954 72.8824 40.6125 72.6607L45.421 69.4551L50.2236 72.6568C50.5464 72.8768 50.9279 72.9945 51.3185 72.9945C51.7092 72.9945 52.0907 72.8768 52.4135 72.6568L57.2171 69.46L61.0521 72.0167C61.3488 72.2121 61.6928 72.3234 62.0477 72.339C62.4026 72.3545 62.7551 72.2736 63.0678 72.1049C63.3804 71.9362 63.6415 71.6859 63.8233 71.3807C64.0051 71.0755 64.1009 70.7268 64.1004 70.3716V19.9C64.0988 18.3357 63.4767 16.8359 62.3706 15.7298C61.2645 14.6237 59.7647 14.0016 58.2004 14V14ZM18.8671 22.85V19.9C18.8671 18.8568 19.2815 17.8564 20.0191 17.1187C20.7567 16.3811 21.7572 15.9667 22.8004 15.9667C23.8436 15.9667 24.844 16.3811 25.5817 17.1187C26.3193 17.8564 26.7337 18.8568 26.7337 19.9V22.85H18.8671ZM58.2918 67.8159C57.969 67.6037 57.5909 67.4913 57.2046 67.4927C56.8183 67.4941 56.4409 67.6092 56.1197 67.8237L51.322 71.0333L46.5036 67.8208C46.1808 67.6087 45.8033 67.4949 45.4171 67.4933C45.0321 67.4941 44.6558 67.6084 44.3354 67.8218L39.5171 71.0274L34.6879 67.8159C34.3642 67.6068 33.9867 67.4961 33.6013 67.4974C33.2159 67.4986 32.8391 67.6116 32.5167 67.8228L28.7004 70.3716V19.9C28.7015 18.4478 28.1648 17.0466 27.1939 15.9667H58.2004C59.2436 15.9667 60.244 16.3811 60.9817 17.1187C61.7193 17.8564 62.1337 18.8568 62.1337 19.9L62.1387 70.3804L58.2918 67.8159Z" fill="#0039CA"/>
<path d="M35.5837 51.3667C36.1053 51.3667 36.6055 51.5739 36.9744 51.9427C37.3432 52.3115 37.5504 52.8117 37.5504 53.3333C37.5504 53.5941 37.654 53.8442 37.8384 54.0286C38.0228 54.2131 38.2729 54.3167 38.5337 54.3167C38.7945 54.3167 39.0446 54.2131 39.229 54.0286C39.4135 53.8442 39.5171 53.5941 39.5171 53.3333C39.5138 52.4638 39.2225 51.62 38.6888 50.9336C38.1551 50.2472 37.4089 49.757 36.5671 49.5396V49.4C36.5671 49.1392 36.4635 48.8891 36.279 48.7047C36.0946 48.5203 35.8445 48.4167 35.5837 48.4167C35.3229 48.4167 35.0728 48.5203 34.8884 48.7047C34.704 48.8891 34.6004 49.1392 34.6004 49.4V49.5396C33.6745 49.7779 32.8673 50.346 32.3305 51.1372C31.7937 51.9284 31.5641 52.8883 31.6848 53.8367C31.8055 54.7852 32.2682 55.657 32.9861 56.2885C33.7039 56.92 34.6276 57.2678 35.5837 57.2667C35.9727 57.2667 36.3529 57.382 36.6763 57.5981C36.9998 57.8142 37.2518 58.1214 37.4007 58.4807C37.5495 58.8401 37.5885 59.2355 37.5126 59.617C37.4367 59.9985 37.2494 60.3489 36.9744 60.624C36.6993 60.899 36.3489 61.0863 35.9674 61.1622C35.5859 61.2381 35.1905 61.1991 34.8311 61.0503C34.4718 60.9014 34.1646 60.6494 33.9485 60.3259C33.7324 60.0025 33.6171 59.6223 33.6171 59.2333C33.6171 58.9725 33.5135 58.7224 33.329 58.538C33.1446 58.3536 32.8945 58.25 32.6337 58.25C32.3729 58.25 32.1228 58.3536 31.9384 58.538C31.754 58.7224 31.6504 58.9725 31.6504 59.2333C31.6536 60.1028 31.9449 60.9467 32.4787 61.6331C33.0124 62.3195 33.7585 62.8097 34.6004 63.027V63.1667C34.6004 63.4275 34.704 63.6776 34.8884 63.862C35.0728 64.0464 35.3229 64.15 35.5837 64.15C35.8445 64.15 36.0946 64.0464 36.279 63.862C36.4635 63.6776 36.5671 63.4275 36.5671 63.1667V63.027C37.493 62.7887 38.3001 62.2206 38.8369 61.4295C39.3738 60.6383 39.6034 59.6784 39.4827 58.7299C39.362 57.7814 38.8993 56.9096 38.1814 56.2781C37.4635 55.6466 36.5398 55.2988 35.5837 55.3C35.0621 55.3 34.5619 55.0928 34.1931 54.724C33.8243 54.3551 33.6171 53.8549 33.6171 53.3333C33.6171 52.8117 33.8243 52.3115 34.1931 51.9427C34.5619 51.5739 35.0621 51.3667 35.5837 51.3667V51.3667Z" fill="#0039CA"/>
<path d="M58.201 50.3833H42.4677C42.2069 50.3833 41.9568 50.4869 41.7724 50.6713C41.588 50.8558 41.4844 51.1059 41.4844 51.3667C41.4844 51.6275 41.588 51.8776 41.7724 52.062C41.9568 52.2464 42.2069 52.35 42.4677 52.35H58.201C58.4618 52.35 58.712 52.2464 58.8964 52.062C59.0808 51.8776 59.1844 51.6275 59.1844 51.3667C59.1844 51.1059 59.0808 50.8558 58.8964 50.6713C58.712 50.4869 58.4618 50.3833 58.201 50.3833Z" fill="#0039CA"/>
<path d="M58.2004 44.4833H32.6337C32.3729 44.4833 32.1228 44.5869 31.9384 44.7713C31.754 44.9558 31.6504 45.2059 31.6504 45.4667C31.6504 45.7275 31.754 45.9776 31.9384 46.162C32.1228 46.3464 32.3729 46.45 32.6337 46.45H58.2004C58.4612 46.45 58.7113 46.3464 58.8957 46.162C59.0801 45.9776 59.1837 45.7275 59.1837 45.4667C59.1837 45.2059 59.0801 44.9558 58.8957 44.7713C58.7113 44.5869 58.4612 44.4833 58.2004 44.4833Z" fill="#0039CA"/>
<path d="M58.2004 38.5833H32.6337C32.3729 38.5833 32.1228 38.6869 31.9384 38.8714C31.754 39.0558 31.6504 39.3059 31.6504 39.5667C31.6504 39.8275 31.754 40.0776 31.9384 40.262C32.1228 40.4464 32.3729 40.55 32.6337 40.55H58.2004C58.4612 40.55 58.7113 40.4464 58.8957 40.262C59.0801 40.0776 59.1837 39.8275 59.1837 39.5667C59.1837 39.3059 59.0801 39.0558 58.8957 38.8714C58.7113 38.6869 58.4612 38.5833 58.2004 38.5833Z" fill="#0039CA"/>
<path d="M58.201 62.1833H42.4677C42.2069 62.1833 41.9568 62.2869 41.7724 62.4714C41.588 62.6558 41.4844 62.9059 41.4844 63.1667C41.4844 63.4275 41.588 63.6776 41.7724 63.862C41.9568 64.0464 42.2069 64.15 42.4677 64.15H58.201C58.4618 64.15 58.712 64.0464 58.8964 63.862C59.0808 63.6776 59.1844 63.4275 59.1844 63.1667C59.1844 62.9059 59.0808 62.6558 58.8964 62.4714C58.712 62.2869 58.4618 62.1833 58.201 62.1833Z" fill="#0039CA"/>
<path d="M58.201 56.2833H42.4677C42.2069 56.2833 41.9568 56.3869 41.7724 56.5713C41.588 56.7557 41.4844 57.0059 41.4844 57.2667C41.4844 57.5275 41.588 57.7776 41.7724 57.962C41.9568 58.1464 42.2069 58.25 42.4677 58.25H58.201C58.4618 58.25 58.712 58.1464 58.8964 57.962C59.0808 57.7776 59.1844 57.5275 59.1844 57.2667C59.1844 57.0059 59.0808 56.7557 58.8964 56.5713C58.712 56.3869 58.4618 56.2833 58.201 56.2833Z" fill="#0039CA"/>
<path d="M49.774 29.7333H51.076L49.4368 34.4465C49.3017 34.8092 49.303 35.2086 49.4405 35.5704C49.578 35.9322 49.8422 36.2317 50.1841 36.4131C50.4272 36.5481 50.7005 36.6195 50.9786 36.6206C51.2217 36.6198 51.4613 36.5631 51.6791 36.4551C51.8968 36.347 52.0868 36.1903 52.2343 35.9972L58.7932 27.8021C59.0055 27.5286 59.1368 27.201 59.1722 26.8566C59.2076 26.5121 59.1457 26.1647 58.9935 25.8537C58.8413 25.5427 58.6049 25.2807 58.3112 25.0974C58.0174 24.914 57.6782 24.8168 57.3319 24.8167H56.5669L58.4579 21.7467C58.6329 21.4667 58.7297 21.145 58.7384 20.8149C58.7471 20.4849 58.6673 20.1585 58.5072 19.8697C58.3472 19.5809 58.1127 19.3402 57.8283 19.1727C57.5438 19.0051 57.2196 18.9167 56.8894 18.9167H52.5952C52.2157 18.914 51.8447 19.0293 51.5336 19.2467C51.2225 19.4641 50.9867 19.7728 50.8587 20.1301L48.0208 27.2986C47.9281 27.5765 47.9028 27.8725 47.9469 28.1622C47.991 28.4518 48.1033 28.7268 48.2745 28.9646C48.4457 29.2023 48.6709 29.396 48.9316 29.5296C49.1923 29.6633 49.4811 29.7331 49.774 29.7333V29.7333ZM52.6719 20.8833H56.679L53.9719 25.2847C53.8803 25.4335 53.8301 25.6041 53.8263 25.7787C53.8225 25.9534 53.8654 26.1259 53.9504 26.2786C54.0354 26.4312 54.1596 26.5584 54.3101 26.6471C54.4606 26.7358 54.632 26.7829 54.8067 26.7833H57.0891L51.9521 33.2025L53.3868 29.0725C53.4382 28.9244 53.4535 28.7662 53.4313 28.6109C53.4092 28.4557 53.3502 28.3081 53.2593 28.1803C53.1685 28.0525 53.0484 27.9483 52.9091 27.8763C52.7698 27.8044 52.6153 27.7668 52.4585 27.7667H49.9471L52.6719 20.8833Z" fill="#0039CA"/>
<path d="M38.2501 36.6167C38.3376 36.6167 38.4261 36.6167 38.5136 36.6167C40.3952 36.6351 42.2111 35.9255 43.5817 34.6362C44.1559 34.0972 44.6147 33.4472 44.9303 32.7256C45.2458 32.0041 45.4116 31.2259 45.4176 30.4384C45.4176 25.3644 40.0693 20.9001 37.7692 19.2284C37.5405 19.062 37.2718 18.9592 36.9905 18.9304C36.7091 18.9015 36.4251 18.9477 36.1674 19.0642C35.9229 19.1693 35.7111 19.3383 35.5542 19.5533C35.3973 19.7683 35.3011 20.0215 35.2755 20.2865C35.0368 22.068 34.3951 23.7716 33.3993 25.268C32.7185 26.3398 32.1909 27.5016 31.8319 28.7195C31.6123 29.6131 31.5961 30.5447 31.7847 31.4454C31.9733 32.346 32.3617 33.1929 32.9214 33.9233C33.5511 34.7428 34.3569 35.4102 35.2792 35.8764C36.2016 36.3426 37.2169 36.5956 38.2501 36.6167ZM33.7405 29.1955C34.0588 28.1545 34.5181 27.162 35.1054 26.2455C36.0946 24.7098 36.7842 23.0009 37.1379 21.2088C39.1351 22.7517 43.4509 26.5434 43.4509 30.4384C43.444 30.9621 43.3309 31.4789 43.1185 31.9575C42.906 32.4362 42.5986 32.8668 42.2149 33.2232C41.6918 33.707 41.0779 34.0821 40.4088 34.3271C39.7398 34.572 39.0287 34.6817 38.317 34.65C37.5768 34.6375 36.8488 34.4592 36.1867 34.1282C35.5245 33.7973 34.945 33.322 34.4908 32.7374C34.108 32.2402 33.8417 31.6633 33.7119 31.0494C33.582 30.4355 33.5918 29.8002 33.7405 29.1905V29.1955Z" fill="#0039CA"/>
</g>
<defs>
<clipPath id="clip0_1067_4016">
<rect width="59" height="59" fill="white" transform="translate(11 14)"/>
</clipPath>
</defs>
</svg>
