<svg width="88" height="86" viewBox="0 0 88 86" fill="none" xmlns="http://www.w3.org/2000/svg">
<rect x="0.5" y="0.5" width="87" height="85" rx="9.5" fill="#C31162" fill-opacity="0.05" stroke="#C31162"/>
<path d="M21.375 32.4375C21.3751 31.4227 21.7101 30.4363 22.328 29.6313C22.9459 28.8263 23.8121 28.2476 24.7924 27.9851C25.7726 27.7225 26.8121 27.7908 27.7496 28.1792C28.6872 28.5677 29.4703 29.2546 29.9776 30.1335L31.5736 29.2103C31.1067 28.4017 30.4698 27.704 29.7071 27.1654C28.9443 26.6269 28.0737 26.2602 27.1555 26.0908C26.2372 25.9215 25.2932 25.9533 24.3884 26.1843C23.4837 26.4153 22.6399 26.8398 21.9152 27.4286C21.1905 28.0175 20.6022 28.7565 20.191 29.5948C19.7797 30.4331 19.5552 31.3507 19.5331 32.2841C19.5109 33.2176 19.6916 34.1448 20.0626 35.0016C20.4336 35.8585 20.9862 36.6247 21.6821 37.2472L22.9116 35.8734C22.4286 35.4407 22.042 34.9112 21.7773 34.3192C21.5125 33.7272 21.3754 33.086 21.375 32.4375Z" fill="#C31162"/>
<path d="M25.9844 24.1406C27.7804 24.1352 29.5289 24.7178 30.9626 25.7995L32.0702 24.3255C30.0252 22.7914 27.4763 22.0862 24.9336 22.3512C22.391 22.6161 20.0422 23.8316 18.3574 25.7544C16.6727 27.6772 15.7763 30.1653 15.8477 32.7207C15.9191 35.2762 16.9531 37.7104 18.7426 39.536L20.0592 38.2453C18.9155 37.0784 18.1417 35.5999 17.835 33.995C17.5283 32.3902 17.7022 30.7305 18.335 29.2241C18.9678 27.7177 20.0313 26.4317 21.3921 25.5274C22.7529 24.623 24.3505 24.1406 25.9844 24.1406V24.1406Z" fill="#C31162"/>
<path d="M68.3901 62.8594H68.188L64.818 49.3793C65.1563 49.0895 65.4851 48.7861 65.8043 48.4691C69.314 44.9781 71.2469 40.5515 71.247 36.0047C71.247 31.7359 69.4965 27.6358 66.3174 24.4525C66.2215 24.2393 66.0898 24.0442 65.928 23.8756C65.6395 23.5759 65.1072 23.2188 64.2103 23.2188C61.5795 23.2188 57.1351 26.302 53.0849 29.995L48.0907 27.2709C48.1025 27.1509 48.1089 27.0293 48.1089 26.9063C48.1089 26.1769 47.8926 25.464 47.4874 24.8576C47.0822 24.2512 46.5063 23.7785 45.8325 23.4994C45.1587 23.2203 44.4173 23.1473 43.702 23.2896C42.9867 23.4319 42.3296 23.7831 41.8139 24.2988C41.2982 24.8145 40.947 25.4716 40.8047 26.1869C40.6624 26.9022 40.7355 27.6436 41.0146 28.3174C41.2937 28.9912 41.7663 29.5671 42.3727 29.9723C42.9791 30.3775 43.6921 30.5938 44.4214 30.5938C44.5444 30.5938 44.666 30.5874 44.786 30.5756L47.5676 35.6752C45.667 37.8808 44.0458 40.0671 42.8514 42.0477C42.2814 41.2097 41.6484 40.4163 40.9579 39.6744C42.391 37.7902 43.4526 36.0397 44.0015 34.6121L42.2806 33.9504C41.3565 36.3537 38.6303 39.9989 35.1658 43.4632C32.6679 45.9611 30.0698 48.0869 27.8502 49.4489C25.3494 50.9835 24.3129 50.934 24.178 50.8433C24.0809 50.7025 24.0316 49.6657 25.5663 47.1649C26.5427 45.5737 27.913 43.7877 29.5303 41.9838L30.7246 43.9743L32.3057 43.0257L30.8373 40.5784C31.0722 40.3347 31.3104 40.0917 31.5519 39.8492C32.4321 38.9689 33.3288 38.132 34.2255 37.3514L36.572 38.7593L37.5207 37.1782L28.6934 31.8818C28.593 31.3926 28.362 30.9396 28.025 30.5711C27.6879 30.2025 27.2573 29.9321 26.779 29.7886C26.3006 29.645 25.7923 29.6337 25.308 29.7558C24.8237 29.8779 24.3815 30.1288 24.0283 30.482C23.6752 30.8351 23.4242 31.2773 23.3021 31.7616C23.1801 32.2459 23.1914 32.7542 23.3349 33.2326C23.4785 33.711 23.7489 34.1415 24.1174 34.4786C24.486 34.8157 24.9389 35.0467 25.4282 35.147L28.5391 40.3319C26.6111 42.4372 24.9897 44.5401 23.875 46.398C22.1955 49.1969 21.8579 51.13 22.8715 52.1437C23.0945 52.3655 23.3701 52.5273 23.6724 52.6139C26.4827 55.0764 30.097 56.4254 33.8334 56.4063C33.8925 56.4063 33.9518 56.4059 34.0109 56.4052C35.1876 56.3928 36.3592 56.2486 37.5038 55.9751L35.4385 62.8594H33.3589C32.6256 62.8602 31.9227 63.1519 31.4042 63.6703C30.8857 64.1888 30.5941 64.8918 30.5932 65.625V71.1563H50.8745V65.625C50.8737 64.8918 50.582 64.1888 50.0635 63.6703C49.5451 63.1519 48.8421 62.8602 48.1089 62.8594H46.1342L44.4886 52.1633C44.6692 51.9895 44.845 51.812 45.0161 51.6308C47.558 52.9561 50.3833 53.6457 53.25 53.6406C53.3201 53.6406 53.3906 53.6403 53.4609 53.6394C55.5027 53.618 57.5256 53.2462 59.4416 52.54L55.7561 62.8594H55.4839C54.7506 62.8602 54.0477 63.1519 53.5292 63.6703C53.0107 64.1888 52.7191 64.8918 52.7182 65.625V71.1563H71.1557V65.625C71.1549 64.8918 70.8633 64.1888 70.3448 63.6703C69.8263 63.1519 69.1234 62.8602 68.3901 62.8594ZM25.9839 33.3594C25.8015 33.3594 25.6233 33.3053 25.4717 33.204C25.3201 33.1027 25.2019 32.9587 25.1322 32.7903C25.0624 32.6218 25.0441 32.4365 25.0797 32.2577C25.1153 32.0788 25.2031 31.9146 25.332 31.7856C25.4609 31.6567 25.6252 31.5689 25.804 31.5333C25.9828 31.4978 26.1682 31.516 26.3367 31.5858C26.5051 31.6556 26.6491 31.7737 26.7504 31.9253C26.8517 32.0769 26.9057 32.2552 26.9057 32.4375C26.9055 32.6819 26.8082 32.9162 26.6354 33.0891C26.4626 33.2619 26.2283 33.3591 25.9839 33.3594ZM27.3832 34.8215C27.7895 34.582 28.1283 34.2431 28.3679 33.8368L32.5664 36.3559C31.7877 37.0496 31.0116 37.7819 30.2481 38.5455C30.116 38.6775 29.9858 38.8101 29.8558 38.9426L27.3832 34.8215ZM69.4033 36.0046C69.4032 39.2251 68.3034 42.3881 66.2668 45.1285C66.0156 43.7334 65.6163 42.3691 65.0759 41.0586C66.7735 38.7861 68.1629 36.2989 69.2078 33.6617C69.3381 34.4359 69.4035 35.2196 69.4033 36.0046ZM66.2855 27.1838C67.1206 28.233 67.8081 29.3915 68.3291 30.6271L68.0719 31.3986C67.152 34.1591 65.8393 36.7727 64.1743 39.1589C63.4317 37.7849 62.5304 36.5027 61.4889 35.3388C62.6701 33.8504 63.7472 32.2823 64.7124 30.6456C65.4758 29.3244 66.0002 28.1705 66.2855 27.1838V27.1838ZM63.7389 42.729C64.1522 43.9177 64.4396 45.1465 64.5964 46.3952L64.671 46.9922C64.6155 47.0489 64.5605 47.1058 64.5041 47.162C64.158 47.5062 63.7988 47.8323 63.4265 48.1403L61.4563 48.3373C60.2927 48.4548 59.1173 48.3358 58.0009 47.9876C60.1189 46.4729 62.0457 44.7072 63.7389 42.729V42.729ZM56.0467 47.095C54.8487 46.3551 53.8505 45.3328 53.1393 44.1175C54.5503 42.8898 55.9372 41.5649 57.2101 40.2431C58.3113 39.0996 59.3507 37.9403 60.3114 36.7914C61.362 38.0057 62.2469 39.3541 62.9428 40.8011C60.9821 43.2418 58.6559 45.3648 56.0467 47.095ZM44.4214 28.75C44.0567 28.75 43.7002 28.6419 43.397 28.4393C43.0938 28.2367 42.8575 27.9487 42.718 27.6118C42.5784 27.2749 42.5419 26.9042 42.613 26.5466C42.6842 26.1889 42.8598 25.8604 43.1176 25.6025C43.3755 25.3447 43.704 25.1691 44.0617 25.0979C44.4193 25.0268 44.79 25.0633 45.1269 25.2028C45.4638 25.3424 45.7518 25.5787 45.9544 25.8819C46.157 26.1851 46.2651 26.5416 46.2651 26.9063C46.2646 27.3951 46.0701 27.8637 45.7245 28.2094C45.3788 28.555 44.9102 28.7494 44.4214 28.75ZM46.5325 29.9269C46.8862 29.6789 47.194 29.3711 47.4421 29.0174L51.6708 31.324C51.1225 31.855 50.5869 32.3922 50.0701 32.9288C49.6608 33.3539 49.2602 33.7808 48.8684 34.2094L46.5325 29.9269ZM36.4696 44.767C37.6836 43.553 38.8021 42.3277 39.7943 41.1347C40.5614 41.9842 41.2462 42.9045 41.8393 43.8835C41.4541 44.6377 41.1474 45.4296 40.9241 46.2465C39.4314 47.756 37.7773 49.0969 35.9916 50.2451C34.9927 49.5044 34.171 48.5509 33.5859 47.4535C34.5456 46.623 35.5145 45.7221 36.4696 44.767ZM42.2439 49.8349C42.6141 50.127 42.9941 50.4034 43.3839 50.6638C43.3064 50.7409 43.2296 50.8185 43.1502 50.894C42.7893 51.2372 42.4092 51.5595 42.0117 51.8596C40.5754 52.0301 39.1193 51.8254 37.7856 51.2655C38.9031 50.4969 39.9688 49.6554 40.9755 48.7465C41.0701 48.9492 41.1974 49.1349 41.3522 49.2963C41.5989 49.5486 41.9058 49.734 42.2439 49.8349V49.8349ZM26.2886 52.3055C27.0976 51.9863 27.8768 51.5963 28.6172 51.1401C29.8451 50.3893 31.0226 49.5589 32.1421 48.6543C32.7083 49.6362 33.4354 50.516 34.2931 51.2569C32.5326 52.2274 30.6758 53.0121 28.7529 53.5983C27.8884 53.2549 27.0625 52.8216 26.2886 52.3055V52.3055ZM33.9905 54.5616C33.9381 54.5623 33.8861 54.5625 33.8336 54.5625C33.1917 54.5626 32.5504 54.5185 31.9145 54.4306C33.309 53.8631 34.6601 53.1944 35.9572 52.43C36.9033 52.9685 37.9292 53.3525 38.9964 53.5676C37.4045 54.2087 35.7066 54.5458 33.9905 54.5616V54.5616ZM39.6313 55.3004C40.7666 54.8466 41.8425 54.2565 42.8353 53.5429L44.2687 62.8594H37.3636L39.6313 55.3004ZM48.1089 64.7031C48.3533 64.7034 48.5876 64.8006 48.7604 64.9734C48.9332 65.1463 49.0305 65.3806 49.0307 65.625V69.3125H32.437V65.625C32.4373 65.3806 32.5345 65.1463 32.7073 64.9734C32.8801 64.8006 33.1145 64.7034 33.3589 64.7031H48.1089ZM43.07 48.1094C43.0608 48.1094 43.0522 48.1089 43.0432 48.1088C42.8881 47.9793 42.7347 47.8474 42.5839 47.7116C42.5336 47.157 42.7714 45.8595 44.1643 43.4487C45.2354 41.5948 46.7325 39.5217 48.5128 37.4079L50.0652 40.254L51.6838 39.371L49.8033 35.9235C50.3177 35.3503 50.8494 34.7784 51.3982 34.2077C52.0634 33.5169 52.7194 32.8639 53.366 32.2487L56.8862 34.1687L57.7691 32.55L54.7954 30.928C59.0801 27.0983 62.6635 25.0625 64.2103 25.0625C64.3988 25.0625 64.5443 25.0968 64.5999 25.1544C64.7872 25.3491 64.9169 26.6062 63.1159 29.7232C61.5057 32.5103 58.9365 35.7921 55.882 38.9642C50.1619 44.9042 45.0116 48.1094 43.07 48.1094ZM45.0429 49.5326C46.9637 48.8182 49.3289 47.2542 51.7116 45.3189C52.3994 46.4183 53.2857 47.38 54.3254 48.1551C52.304 49.3094 50.1562 50.2269 47.9247 50.8895C46.9208 50.5355 45.9553 50.0809 45.0429 49.5326V49.5326ZM53.4396 51.7958C53.3763 51.7965 53.3134 51.7969 53.2504 51.7969C52.5882 51.7968 51.9266 51.756 51.2693 51.6749C52.953 50.9995 54.5765 50.1827 56.1223 49.2333C57.3997 49.833 58.7852 50.168 60.1955 50.218C58.0868 51.2339 55.7801 51.7726 53.4396 51.7958ZM61.7791 51.4769C62.2727 51.2074 62.7536 50.9141 63.222 50.597L66.2876 62.8594H57.7139L61.7791 51.4769ZM69.312 69.3125H54.562V65.625C54.5623 65.3806 54.6595 65.1463 54.8323 64.9734C55.0051 64.8006 55.2395 64.7034 55.4839 64.7031H68.3901C68.6345 64.7034 68.8689 64.8006 69.0417 64.9734C69.2145 65.1463 69.3117 65.3806 69.312 65.625V69.3125Z" fill="#C31162"/>
<path d="M44.4219 21.375C45.3136 21.3757 46.1921 21.5916 46.9825 22.0044C47.773 22.4172 48.4521 23.0147 48.9622 23.7462L50.4744 22.6913C49.858 21.8063 49.0549 21.0672 48.1219 20.5262C47.1889 19.9852 46.1485 19.6555 45.0742 19.5601C43.9999 19.4648 42.9178 19.6062 41.9041 19.9745C40.8903 20.3427 39.9697 20.9288 39.2071 21.6915C38.4445 22.4541 37.8584 23.3747 37.4901 24.3884C37.1219 25.4022 36.9804 26.4843 37.0757 27.5586C37.1711 28.6329 37.5009 29.6732 38.0419 30.6063C38.5829 31.5393 39.3219 32.3423 40.2069 32.9588L41.2618 31.4465C40.2953 30.7737 39.5687 29.8099 39.1879 28.6955C38.807 27.5811 38.7918 26.3743 39.1443 25.2506C39.4969 24.127 40.1989 23.1451 41.1481 22.4481C42.0973 21.751 43.2442 21.3751 44.4219 21.375V21.375Z" fill="#C31162"/>
<path d="M38.0591 35.9569L39.1208 34.4494C38.0092 33.668 37.0841 32.6505 36.4116 31.4698C35.7392 30.2891 35.336 28.9744 35.231 27.6197C35.1259 26.265 35.3216 24.9039 35.8041 23.6337C36.2865 22.3634 37.0437 21.2155 38.0216 20.2721C38.9994 19.3287 40.1737 18.6131 41.4604 18.1765C42.7471 17.7399 44.1144 17.593 45.4644 17.7465C46.8145 17.9 48.1139 18.35 49.2698 19.0644C50.4256 19.7787 51.4093 20.7396 52.1503 21.8785L53.6948 20.8715C52.8053 19.5051 51.6249 18.3522 50.2379 17.4952C48.851 16.6382 47.2917 16.0984 45.6718 15.9143C44.0518 15.7303 42.4112 15.9065 40.8673 16.4305C39.3234 16.9544 37.9144 17.8131 36.7411 18.9451C35.5678 20.0771 34.6592 21.4545 34.0803 22.9786C33.5014 24.5028 33.2665 26.136 33.3924 27.7615C33.5184 29.387 34.002 30.9646 34.8088 32.3814C35.6155 33.7981 36.7255 35.0191 38.0591 35.9569Z" fill="#C31162"/>
</svg>
