<svg width="1588" height="137" viewBox="0 0 1588 137" fill="none" xmlns="http://www.w3.org/2000/svg">
<path d="M0.915039 81.1703L0.915039 137L1587.17 137V37.251C1546.87 47.1762 1453.21 70.1533 1401.04 82.6591C1335.84 98.2914 1254.04 107.224 1133.11 118.39C1012.19 129.556 804.715 81.1703 791.674 78.9371C778.633 76.7039 668.377 40.9729 457.35 32.7846C288.528 26.2339 82.7177 62.3123 0.915039 81.1703Z" fill="white"/>
<path opacity="0.6" d="M2 65.1703L2 121L1587 121V21.251C1546.72 31.1762 1453.14 54.1533 1401.02 66.6591C1335.86 82.2914 1254.13 91.2242 1133.3 102.39C1012.47 113.556 805.161 65.1703 792.131 62.9371C779.1 60.7039 668.932 24.9729 458.073 16.7846C289.385 10.2339 83.7377 46.3123 2 65.1703Z" fill="white"/>
<path opacity="0.15" d="M1587 49.1703V105L2 105V5.25095C42.2765 15.1762 135.86 38.1533 187.983 50.6591C253.136 66.2914 334.874 75.2242 455.703 86.3901C576.533 97.556 783.839 49.1703 796.869 46.9371C809.9 44.7039 920.068 8.97294 1130.93 0.784584C1299.62 -5.76611 1505.26 30.3123 1587 49.1703Z" fill="white"/>
<path opacity="0.2" d="M1587 79.1703V135L2 135V35.251C42.2765 45.1762 135.86 68.1533 187.983 80.6591C253.136 96.2914 334.874 105.224 455.703 116.39C576.533 127.556 783.839 79.1703 796.869 76.9371C809.9 74.7039 920.068 38.9729 1130.93 30.7846C1299.62 24.2339 1505.26 60.3123 1587 79.1703Z" fill="white"/>
</svg>
