<svg width="1232" height="244" viewBox="0 0 1232 244" fill="none" xmlns="http://www.w3.org/2000/svg">
<rect width="1232" height="244" rx="16" fill="white"/>
<g opacity="0.6">
<g opacity="0.3">
<path fill-rule="evenodd" clip-rule="evenodd" d="M143.398 110.804C144.881 110.035 150 107.016 150 102C150 98.134 146.866 95 143 95C139.134 95 136 98.134 136 102C136 107.016 141.119 110.035 142.602 110.804C142.855 110.935 143.145 110.935 143.398 110.804ZM143 105C144.657 105 146 103.657 146 102C146 100.343 144.657 99 143 99C141.343 99 140 100.343 140 102C140 103.657 141.343 105 143 105Z" fill="#121212"/>
</g>
<path d="M168.53 109V96.22H170.15V107.56H177.278V109H168.53ZM182.753 109.18C182.045 109.18 181.403 109.054 180.827 108.802C180.251 108.538 179.753 108.184 179.333 107.74C178.913 107.284 178.589 106.762 178.361 106.174C178.133 105.586 178.019 104.968 178.019 104.32C178.019 103.66 178.133 103.036 178.361 102.448C178.589 101.86 178.913 101.344 179.333 100.9C179.753 100.444 180.251 100.09 180.827 99.838C181.415 99.574 182.057 99.442 182.753 99.442C183.461 99.442 184.103 99.574 184.679 99.838C185.255 100.09 185.753 100.444 186.173 100.9C186.605 101.344 186.935 101.86 187.163 102.448C187.391 103.036 187.505 103.66 187.505 104.32C187.505 104.968 187.391 105.586 187.163 106.174C186.935 106.762 186.611 107.284 186.191 107.74C185.771 108.184 185.267 108.538 184.679 108.802C184.103 109.054 183.461 109.18 182.753 109.18ZM179.639 104.338C179.639 104.986 179.777 105.574 180.053 106.102C180.341 106.63 180.719 107.05 181.187 107.362C181.655 107.662 182.177 107.812 182.753 107.812C183.329 107.812 183.851 107.656 184.319 107.344C184.799 107.032 185.177 106.612 185.453 106.084C185.741 105.544 185.885 104.95 185.885 104.302C185.885 103.654 185.741 103.066 185.453 102.538C185.177 102.01 184.799 101.59 184.319 101.278C183.851 100.966 183.329 100.81 182.753 100.81C182.177 100.81 181.655 100.972 181.187 101.296C180.719 101.608 180.341 102.028 180.053 102.556C179.777 103.084 179.639 103.678 179.639 104.338ZM193.582 109.18C192.874 109.18 192.226 109.054 191.638 108.802C191.062 108.538 190.558 108.178 190.126 107.722C189.706 107.266 189.376 106.744 189.136 106.156C188.908 105.568 188.794 104.944 188.794 104.284C188.794 103.396 188.992 102.586 189.388 101.854C189.784 101.122 190.342 100.54 191.062 100.108C191.782 99.664 192.616 99.442 193.564 99.442C194.488 99.442 195.292 99.652 195.976 100.072C196.672 100.48 197.188 101.032 197.524 101.728L195.976 102.214C195.736 101.77 195.4 101.428 194.968 101.188C194.536 100.936 194.056 100.81 193.528 100.81C192.952 100.81 192.424 100.96 191.944 101.26C191.476 101.56 191.104 101.974 190.828 102.502C190.552 103.018 190.414 103.612 190.414 104.284C190.414 104.944 190.552 105.544 190.828 106.084C191.116 106.612 191.494 107.032 191.962 107.344C192.442 107.656 192.97 107.812 193.546 107.812C193.918 107.812 194.272 107.746 194.608 107.614C194.956 107.482 195.256 107.308 195.508 107.092C195.772 106.864 195.952 106.618 196.048 106.354L197.596 106.822C197.404 107.278 197.11 107.686 196.714 108.046C196.33 108.394 195.868 108.67 195.328 108.874C194.8 109.078 194.218 109.18 193.582 109.18ZM198.653 106.282C198.653 105.682 198.821 105.166 199.157 104.734C199.505 104.29 199.979 103.948 200.579 103.708C201.179 103.468 201.875 103.348 202.667 103.348C203.087 103.348 203.531 103.384 203.999 103.456C204.467 103.516 204.881 103.612 205.241 103.744V103.06C205.241 102.34 205.025 101.776 204.593 101.368C204.161 100.948 203.549 100.738 202.757 100.738C202.241 100.738 201.743 100.834 201.263 101.026C200.795 101.206 200.297 101.47 199.769 101.818L199.193 100.702C199.805 100.282 200.417 99.97 201.029 99.766C201.641 99.55 202.277 99.442 202.937 99.442C204.137 99.442 205.085 99.778 205.781 100.45C206.477 101.11 206.825 102.034 206.825 103.222V107.2C206.825 107.392 206.861 107.536 206.933 107.632C207.017 107.716 207.149 107.764 207.329 107.776V109C207.173 109.024 207.035 109.042 206.915 109.054C206.807 109.066 206.717 109.072 206.645 109.072C206.273 109.072 205.991 108.97 205.799 108.766C205.619 108.562 205.517 108.346 205.493 108.118L205.457 107.524C205.049 108.052 204.515 108.46 203.855 108.748C203.195 109.036 202.541 109.18 201.893 109.18C201.269 109.18 200.711 109.054 200.219 108.802C199.727 108.538 199.343 108.19 199.067 107.758C198.791 107.314 198.653 106.822 198.653 106.282ZM204.773 106.948C204.917 106.78 205.031 106.612 205.115 106.444C205.199 106.264 205.241 106.114 205.241 105.994V104.824C204.869 104.68 204.479 104.572 204.071 104.5C203.663 104.416 203.261 104.374 202.865 104.374C202.061 104.374 201.407 104.536 200.903 104.86C200.411 105.172 200.165 105.604 200.165 106.156C200.165 106.456 200.243 106.75 200.399 107.038C200.567 107.314 200.807 107.542 201.119 107.722C201.443 107.902 201.839 107.992 202.307 107.992C202.799 107.992 203.267 107.896 203.711 107.704C204.155 107.5 204.509 107.248 204.773 106.948ZM214.148 108.532C214.016 108.592 213.836 108.67 213.608 108.766C213.38 108.862 213.116 108.946 212.816 109.018C212.516 109.09 212.198 109.126 211.862 109.126C211.478 109.126 211.124 109.06 210.8 108.928C210.476 108.784 210.218 108.568 210.026 108.28C209.834 107.98 209.738 107.608 209.738 107.164V100.846H208.46V99.604H209.738V96.472H211.322V99.604H213.428V100.846H211.322V106.678C211.346 107.014 211.46 107.266 211.664 107.434C211.868 107.59 212.108 107.668 212.384 107.668C212.696 107.668 212.984 107.614 213.248 107.506C213.512 107.398 213.686 107.32 213.77 107.272L214.148 108.532ZM215.616 109V99.604H217.2V109H215.616ZM215.616 97.84V95.86H217.2V97.84H215.616ZM223.868 109.18C223.16 109.18 222.518 109.054 221.942 108.802C221.366 108.538 220.868 108.184 220.448 107.74C220.028 107.284 219.704 106.762 219.476 106.174C219.248 105.586 219.134 104.968 219.134 104.32C219.134 103.66 219.248 103.036 219.476 102.448C219.704 101.86 220.028 101.344 220.448 100.9C220.868 100.444 221.366 100.09 221.942 99.838C222.53 99.574 223.172 99.442 223.868 99.442C224.576 99.442 225.218 99.574 225.794 99.838C226.37 100.09 226.868 100.444 227.288 100.9C227.72 101.344 228.05 101.86 228.278 102.448C228.506 103.036 228.62 103.66 228.62 104.32C228.62 104.968 228.506 105.586 228.278 106.174C228.05 106.762 227.726 107.284 227.306 107.74C226.886 108.184 226.382 108.538 225.794 108.802C225.218 109.054 224.576 109.18 223.868 109.18ZM220.754 104.338C220.754 104.986 220.892 105.574 221.168 106.102C221.456 106.63 221.834 107.05 222.302 107.362C222.77 107.662 223.292 107.812 223.868 107.812C224.444 107.812 224.966 107.656 225.434 107.344C225.914 107.032 226.292 106.612 226.568 106.084C226.856 105.544 227 104.95 227 104.302C227 103.654 226.856 103.066 226.568 102.538C226.292 102.01 225.914 101.59 225.434 101.278C224.966 100.966 224.444 100.81 223.868 100.81C223.292 100.81 222.77 100.972 222.302 101.296C221.834 101.608 221.456 102.028 221.168 102.556C220.892 103.084 220.754 103.678 220.754 104.338ZM238.694 109H237.11V103.744C237.11 102.748 236.954 102.022 236.642 101.566C236.342 101.098 235.88 100.864 235.256 100.864C234.824 100.864 234.392 100.972 233.96 101.188C233.54 101.404 233.162 101.698 232.826 102.07C232.502 102.43 232.268 102.85 232.124 103.33V109H230.54V99.604H231.98V101.62C232.232 101.176 232.556 100.792 232.952 100.468C233.348 100.144 233.798 99.892 234.302 99.712C234.806 99.532 235.334 99.442 235.886 99.442C236.426 99.442 236.876 99.544 237.236 99.748C237.608 99.94 237.896 100.216 238.1 100.576C238.316 100.924 238.466 101.338 238.55 101.818C238.646 102.298 238.694 102.82 238.694 103.384V109Z" fill="black"/>
</g>
<path opacity="0.3" d="M119.32 145.76V147H109.78V132.8H119.14V134.04H111.18V139.16H118.12V140.34H111.18V145.76H119.32ZM130.35 147H128.99V141.18C128.99 139.953 128.81 139.06 128.45 138.5C128.09 137.927 127.523 137.64 126.75 137.64C126.217 137.64 125.69 137.773 125.17 138.04C124.65 138.293 124.19 138.647 123.79 139.1C123.403 139.54 123.123 140.047 122.95 140.62V147H121.59V136.58H122.83V138.94C123.11 138.433 123.477 137.993 123.93 137.62C124.383 137.233 124.897 136.933 125.47 136.72C126.043 136.507 126.637 136.4 127.25 136.4C127.823 136.4 128.31 136.507 128.71 136.72C129.11 136.933 129.43 137.24 129.67 137.64C129.91 138.027 130.083 138.5 130.19 139.06C130.297 139.607 130.35 140.22 130.35 140.9V147ZM138.152 146.5C138.046 146.54 137.879 146.613 137.652 146.72C137.426 146.827 137.152 146.92 136.832 147C136.512 147.08 136.166 147.12 135.792 147.12C135.406 147.12 135.039 147.047 134.692 146.9C134.359 146.753 134.092 146.533 133.892 146.24C133.692 145.933 133.592 145.56 133.592 145.12V137.66H132.152V136.58H133.592V133.06H134.952V136.58H137.352V137.66H134.952V144.74C134.979 145.113 135.112 145.393 135.352 145.58C135.606 145.767 135.892 145.86 136.212 145.86C136.586 145.86 136.926 145.8 137.232 145.68C137.539 145.547 137.726 145.453 137.792 145.4L138.152 146.5ZM144.176 147.2C143.429 147.2 142.736 147.06 142.096 146.78C141.456 146.487 140.902 146.093 140.436 145.6C139.969 145.093 139.602 144.513 139.336 143.86C139.082 143.207 138.956 142.507 138.956 141.76C138.956 140.787 139.176 139.893 139.616 139.08C140.069 138.267 140.689 137.62 141.476 137.14C142.262 136.647 143.156 136.4 144.156 136.4C145.182 136.4 146.076 136.647 146.836 137.14C147.609 137.633 148.216 138.287 148.656 139.1C149.096 139.9 149.316 140.78 149.316 141.74C149.316 141.847 149.316 141.953 149.316 142.06C149.316 142.153 149.309 142.227 149.296 142.28H140.376C140.442 143.027 140.649 143.693 140.996 144.28C141.356 144.853 141.816 145.313 142.376 145.66C142.949 145.993 143.569 146.16 144.236 146.16C144.916 146.16 145.556 145.987 146.156 145.64C146.769 145.293 147.196 144.84 147.436 144.28L148.616 144.6C148.402 145.093 148.076 145.54 147.636 145.94C147.196 146.34 146.676 146.653 146.076 146.88C145.489 147.093 144.856 147.2 144.176 147.2ZM140.336 141.3H148.036C147.982 140.54 147.776 139.873 147.416 139.3C147.069 138.727 146.609 138.28 146.036 137.96C145.476 137.627 144.856 137.46 144.176 137.46C143.496 137.46 142.876 137.627 142.316 137.96C141.756 138.28 141.296 138.733 140.936 139.32C140.589 139.893 140.389 140.553 140.336 141.3ZM156.614 137.78C155.707 137.807 154.907 138.06 154.214 138.54C153.534 139.02 153.054 139.68 152.774 140.52V147H151.414V136.58H152.694V139.08C153.054 138.347 153.527 137.753 154.114 137.3C154.714 136.847 155.347 136.593 156.014 136.54C156.147 136.527 156.261 136.52 156.354 136.52C156.461 136.52 156.547 136.527 156.614 136.54V137.78ZM162.215 144C162.215 143.347 162.401 142.787 162.775 142.32C163.148 141.84 163.661 141.473 164.315 141.22C164.981 140.953 165.748 140.82 166.615 140.82C167.121 140.82 167.648 140.86 168.195 140.94C168.741 141.02 169.228 141.14 169.655 141.3V140.42C169.655 139.54 169.395 138.84 168.875 138.32C168.355 137.8 167.635 137.54 166.715 137.54C166.155 137.54 165.601 137.647 165.055 137.86C164.521 138.06 163.961 138.36 163.375 138.76L162.855 137.8C163.535 137.333 164.201 136.987 164.855 136.76C165.508 136.52 166.175 136.4 166.855 136.4C168.135 136.4 169.148 136.767 169.895 137.5C170.641 138.233 171.015 139.247 171.015 140.54V145.36C171.015 145.547 171.055 145.687 171.135 145.78C171.215 145.86 171.341 145.907 171.515 145.92V147C171.368 147.013 171.241 147.027 171.135 147.04C171.028 147.053 170.948 147.053 170.895 147.04C170.561 147.027 170.308 146.92 170.135 146.72C169.961 146.52 169.868 146.307 169.855 146.08L169.835 145.32C169.368 145.92 168.761 146.387 168.015 146.72C167.268 147.04 166.508 147.2 165.735 147.2C165.068 147.2 164.461 147.06 163.915 146.78C163.381 146.487 162.961 146.1 162.655 145.62C162.361 145.127 162.215 144.587 162.215 144ZM169.195 144.8C169.341 144.613 169.455 144.433 169.535 144.26C169.615 144.087 169.655 143.933 169.655 143.8V142.28C169.201 142.107 168.728 141.973 168.235 141.88C167.755 141.787 167.268 141.74 166.775 141.74C165.801 141.74 165.015 141.933 164.415 142.32C163.815 142.707 163.515 143.233 163.515 143.9C163.515 144.287 163.615 144.653 163.815 145C164.015 145.333 164.308 145.613 164.695 145.84C165.081 146.053 165.535 146.16 166.055 146.16C166.708 146.16 167.315 146.033 167.875 145.78C168.448 145.527 168.888 145.2 169.195 144.8ZM183.571 147.2C182.811 147.2 182.111 147.06 181.471 146.78C180.844 146.487 180.291 146.087 179.811 145.58C179.344 145.073 178.977 144.493 178.711 143.84C178.457 143.187 178.331 142.493 178.331 141.76C178.331 140.773 178.551 139.873 178.991 139.06C179.431 138.247 180.044 137.6 180.831 137.12C181.617 136.64 182.524 136.4 183.551 136.4C184.524 136.4 185.384 136.627 186.131 137.08C186.877 137.52 187.431 138.12 187.791 138.88L186.471 139.3C186.177 138.767 185.764 138.353 185.231 138.06C184.711 137.753 184.131 137.6 183.491 137.6C182.797 137.6 182.164 137.78 181.591 138.14C181.017 138.5 180.557 138.993 180.211 139.62C179.877 140.247 179.711 140.96 179.711 141.76C179.711 142.547 179.884 143.26 180.231 143.9C180.577 144.54 181.037 145.053 181.611 145.44C182.184 145.813 182.817 146 183.511 146C183.964 146 184.397 145.92 184.811 145.76C185.237 145.6 185.604 145.387 185.911 145.12C186.231 144.84 186.444 144.54 186.551 144.22L187.891 144.62C187.704 145.113 187.391 145.56 186.951 145.96C186.524 146.347 186.017 146.653 185.431 146.88C184.857 147.093 184.237 147.2 183.571 147.2ZM190.027 147V136.58H191.387V147H190.027ZM190.027 134.4V132.4H191.387V134.4H190.027ZM199.383 146.5C199.276 146.54 199.109 146.613 198.883 146.72C198.656 146.827 198.383 146.92 198.063 147C197.743 147.08 197.396 147.12 197.023 147.12C196.636 147.12 196.269 147.047 195.923 146.9C195.589 146.753 195.323 146.533 195.123 146.24C194.923 145.933 194.823 145.56 194.823 145.12V137.66H193.383V136.58H194.823V133.06H196.183V136.58H198.583V137.66H196.183V144.74C196.209 145.113 196.343 145.393 196.583 145.58C196.836 145.767 197.123 145.86 197.443 145.86C197.816 145.86 198.156 145.8 198.463 145.68C198.769 145.547 198.956 145.453 199.023 145.4L199.383 146.5ZM201.682 150.2C201.869 150.213 202.049 150.22 202.222 150.22C202.395 150.233 202.522 150.227 202.602 150.2C202.762 150.173 202.915 150.08 203.062 149.92C203.209 149.76 203.382 149.453 203.582 149C203.782 148.547 204.062 147.88 204.422 147L199.882 136.58H201.322L205.142 145.6L208.662 136.58H210.022L204.622 150.02C204.529 150.273 204.389 150.507 204.202 150.72C204.015 150.947 203.782 151.12 203.502 151.24C203.235 151.373 202.902 151.447 202.502 151.46C202.382 151.473 202.255 151.473 202.122 151.46C202.002 151.46 201.855 151.447 201.682 151.42V150.2ZM220.913 147.2C220.166 147.2 219.473 147.06 218.833 146.78C218.206 146.487 217.659 146.093 217.193 145.6C216.739 145.093 216.386 144.52 216.133 143.88C215.879 143.227 215.753 142.54 215.753 141.82C215.753 141.073 215.879 140.38 216.133 139.74C216.386 139.087 216.746 138.513 217.213 138.02C217.679 137.513 218.226 137.12 218.853 136.84C219.493 136.547 220.186 136.4 220.933 136.4C221.679 136.4 222.366 136.547 222.993 136.84C223.619 137.12 224.166 137.513 224.633 138.02C225.099 138.513 225.459 139.087 225.713 139.74C225.966 140.38 226.093 141.073 226.093 141.82C226.093 142.54 225.966 143.227 225.713 143.88C225.459 144.52 225.099 145.093 224.633 145.6C224.179 146.093 223.633 146.487 222.993 146.78C222.366 147.06 221.673 147.2 220.913 147.2ZM217.133 141.84C217.133 142.613 217.299 143.32 217.633 143.96C217.979 144.587 218.439 145.087 219.013 145.46C219.586 145.82 220.219 146 220.913 146C221.606 146 222.239 145.813 222.813 145.44C223.386 145.067 223.846 144.56 224.193 143.92C224.539 143.267 224.713 142.56 224.713 141.8C224.713 141.027 224.539 140.32 224.193 139.68C223.846 139.04 223.386 138.533 222.813 138.16C222.239 137.787 221.606 137.6 220.913 137.6C220.219 137.6 219.586 137.793 219.013 138.18C218.453 138.567 217.999 139.08 217.653 139.72C217.306 140.347 217.133 141.053 217.133 141.84ZM233.567 137.78C232.661 137.807 231.861 138.06 231.167 138.54C230.487 139.02 230.007 139.68 229.727 140.52V147H228.367V136.58H229.647V139.08C230.007 138.347 230.481 137.753 231.067 137.3C231.667 136.847 232.301 136.593 232.967 136.54C233.101 136.527 233.214 136.52 233.307 136.52C233.414 136.52 233.501 136.527 233.567 136.54V137.78ZM248.768 147H247.408V141.18C247.408 140.007 247.201 139.127 246.788 138.54C246.374 137.94 245.781 137.64 245.008 137.64C244.501 137.64 243.994 137.773 243.488 138.04C242.994 138.293 242.554 138.647 242.168 139.1C241.794 139.54 241.528 140.047 241.368 140.62V147H240.008V132.4H241.368V138.94C241.781 138.167 242.354 137.553 243.088 137.1C243.834 136.633 244.628 136.4 245.468 136.4C246.068 136.4 246.574 136.507 246.988 136.72C247.414 136.933 247.754 137.247 248.008 137.66C248.274 138.06 248.468 138.533 248.588 139.08C248.708 139.613 248.768 140.22 248.768 140.9V147ZM256.108 147.2C255.361 147.2 254.668 147.06 254.028 146.78C253.401 146.487 252.855 146.093 252.388 145.6C251.935 145.093 251.581 144.52 251.328 143.88C251.075 143.227 250.948 142.54 250.948 141.82C250.948 141.073 251.075 140.38 251.328 139.74C251.581 139.087 251.941 138.513 252.408 138.02C252.875 137.513 253.421 137.12 254.048 136.84C254.688 136.547 255.381 136.4 256.128 136.4C256.875 136.4 257.561 136.547 258.188 136.84C258.815 137.12 259.361 137.513 259.828 138.02C260.295 138.513 260.655 139.087 260.908 139.74C261.161 140.38 261.288 141.073 261.288 141.82C261.288 142.54 261.161 143.227 260.908 143.88C260.655 144.52 260.295 145.093 259.828 145.6C259.375 146.093 258.828 146.487 258.188 146.78C257.561 147.06 256.868 147.2 256.108 147.2ZM252.328 141.84C252.328 142.613 252.495 143.32 252.828 143.96C253.175 144.587 253.635 145.087 254.208 145.46C254.781 145.82 255.415 146 256.108 146C256.801 146 257.435 145.813 258.008 145.44C258.581 145.067 259.041 144.56 259.388 143.92C259.735 143.267 259.908 142.56 259.908 141.8C259.908 141.027 259.735 140.32 259.388 139.68C259.041 139.04 258.581 138.533 258.008 138.16C257.435 137.787 256.801 137.6 256.108 137.6C255.415 137.6 254.781 137.793 254.208 138.18C253.648 138.567 253.195 139.08 252.848 139.72C252.501 140.347 252.328 141.053 252.328 141.84ZM268.406 146.5C268.3 146.54 268.133 146.613 267.906 146.72C267.68 146.827 267.406 146.92 267.086 147C266.766 147.08 266.42 147.12 266.046 147.12C265.66 147.12 265.293 147.047 264.946 146.9C264.613 146.753 264.346 146.533 264.146 146.24C263.946 145.933 263.846 145.56 263.846 145.12V137.66H262.406V136.58H263.846V133.06H265.206V136.58H267.606V137.66H265.206V144.74C265.233 145.113 265.366 145.393 265.606 145.58C265.86 145.767 266.146 145.86 266.466 145.86C266.84 145.86 267.18 145.8 267.486 145.68C267.793 145.547 267.98 145.453 268.046 145.4L268.406 146.5ZM274.43 147.2C273.683 147.2 272.99 147.06 272.35 146.78C271.71 146.487 271.156 146.093 270.69 145.6C270.223 145.093 269.856 144.513 269.59 143.86C269.336 143.207 269.21 142.507 269.21 141.76C269.21 140.787 269.43 139.893 269.87 139.08C270.323 138.267 270.943 137.62 271.73 137.14C272.516 136.647 273.41 136.4 274.41 136.4C275.436 136.4 276.33 136.647 277.09 137.14C277.863 137.633 278.47 138.287 278.91 139.1C279.35 139.9 279.57 140.78 279.57 141.74C279.57 141.847 279.57 141.953 279.57 142.06C279.57 142.153 279.563 142.227 279.55 142.28H270.63C270.696 143.027 270.903 143.693 271.25 144.28C271.61 144.853 272.07 145.313 272.63 145.66C273.203 145.993 273.823 146.16 274.49 146.16C275.17 146.16 275.81 145.987 276.41 145.64C277.023 145.293 277.45 144.84 277.69 144.28L278.87 144.6C278.656 145.093 278.33 145.54 277.89 145.94C277.45 146.34 276.93 146.653 276.33 146.88C275.743 147.093 275.11 147.2 274.43 147.2ZM270.59 141.3H278.29C278.236 140.54 278.03 139.873 277.67 139.3C277.323 138.727 276.863 138.28 276.29 137.96C275.73 137.627 275.11 137.46 274.43 137.46C273.75 137.46 273.13 137.627 272.57 137.96C272.01 138.28 271.55 138.733 271.19 139.32C270.843 139.893 270.643 140.553 270.59 141.3ZM281.728 132.4H283.088V144.64C283.088 145.16 283.181 145.5 283.368 145.66C283.555 145.82 283.781 145.9 284.048 145.9C284.288 145.9 284.528 145.873 284.768 145.82C285.008 145.767 285.215 145.713 285.388 145.66L285.628 146.76C285.375 146.867 285.061 146.953 284.688 147.02C284.328 147.087 284.015 147.12 283.748 147.12C283.135 147.12 282.641 146.94 282.268 146.58C281.908 146.22 281.728 145.727 281.728 145.1V132.4ZM300.369 147H299.009V141.18C299.009 139.953 298.829 139.06 298.469 138.5C298.109 137.927 297.543 137.64 296.769 137.64C296.236 137.64 295.709 137.773 295.189 138.04C294.669 138.293 294.209 138.647 293.809 139.1C293.423 139.54 293.143 140.047 292.969 140.62V147H291.609V136.58H292.849V138.94C293.129 138.433 293.496 137.993 293.949 137.62C294.403 137.233 294.916 136.933 295.489 136.72C296.063 136.507 296.656 136.4 297.269 136.4C297.843 136.4 298.329 136.507 298.729 136.72C299.129 136.933 299.449 137.24 299.689 137.64C299.929 138.027 300.103 138.5 300.209 139.06C300.316 139.607 300.369 140.22 300.369 140.9V147ZM302.43 144C302.43 143.347 302.616 142.787 302.99 142.32C303.363 141.84 303.876 141.473 304.53 141.22C305.196 140.953 305.963 140.82 306.83 140.82C307.336 140.82 307.863 140.86 308.41 140.94C308.956 141.02 309.443 141.14 309.87 141.3V140.42C309.87 139.54 309.61 138.84 309.09 138.32C308.57 137.8 307.85 137.54 306.93 137.54C306.37 137.54 305.816 137.647 305.27 137.86C304.736 138.06 304.176 138.36 303.59 138.76L303.07 137.8C303.75 137.333 304.416 136.987 305.07 136.76C305.723 136.52 306.39 136.4 307.07 136.4C308.35 136.4 309.363 136.767 310.11 137.5C310.856 138.233 311.23 139.247 311.23 140.54V145.36C311.23 145.547 311.27 145.687 311.35 145.78C311.43 145.86 311.556 145.907 311.73 145.92V147C311.583 147.013 311.456 147.027 311.35 147.04C311.243 147.053 311.163 147.053 311.11 147.04C310.776 147.027 310.523 146.92 310.35 146.72C310.176 146.52 310.083 146.307 310.07 146.08L310.05 145.32C309.583 145.92 308.976 146.387 308.23 146.72C307.483 147.04 306.723 147.2 305.95 147.2C305.283 147.2 304.676 147.06 304.13 146.78C303.596 146.487 303.176 146.1 302.87 145.62C302.576 145.127 302.43 144.587 302.43 144ZM309.41 144.8C309.556 144.613 309.67 144.433 309.75 144.26C309.83 144.087 309.87 143.933 309.87 143.8V142.28C309.416 142.107 308.943 141.973 308.45 141.88C307.97 141.787 307.483 141.74 306.99 141.74C306.016 141.74 305.23 141.933 304.63 142.32C304.03 142.707 303.73 143.233 303.73 143.9C303.73 144.287 303.83 144.653 304.03 145C304.23 145.333 304.523 145.613 304.91 145.84C305.296 146.053 305.75 146.16 306.27 146.16C306.923 146.16 307.53 146.033 308.09 145.78C308.663 145.527 309.103 145.2 309.41 144.8ZM329.668 147H328.308V141.18C328.308 139.967 328.115 139.073 327.728 138.5C327.341 137.927 326.768 137.64 326.008 137.64C325.221 137.64 324.515 137.92 323.888 138.48C323.275 139.04 322.841 139.76 322.588 140.64V147H321.228V141.18C321.228 139.953 321.041 139.06 320.668 138.5C320.295 137.927 319.721 137.64 318.948 137.64C318.175 137.64 317.475 137.913 316.848 138.46C316.221 139.007 315.781 139.727 315.528 140.62V147H314.168V136.58H315.408V138.94C315.848 138.127 316.408 137.5 317.088 137.06C317.781 136.62 318.548 136.4 319.388 136.4C320.255 136.4 320.955 136.647 321.488 137.14C322.021 137.633 322.348 138.28 322.468 139.08C322.948 138.2 323.521 137.533 324.188 137.08C324.868 136.627 325.635 136.4 326.488 136.4C327.075 136.4 327.568 136.507 327.968 136.72C328.381 136.933 328.708 137.24 328.948 137.64C329.201 138.027 329.381 138.5 329.488 139.06C329.608 139.607 329.668 140.22 329.668 140.9V147ZM337.047 147.2C336.3 147.2 335.607 147.06 334.967 146.78C334.327 146.487 333.774 146.093 333.307 145.6C332.84 145.093 332.474 144.513 332.207 143.86C331.954 143.207 331.827 142.507 331.827 141.76C331.827 140.787 332.047 139.893 332.487 139.08C332.94 138.267 333.56 137.62 334.347 137.14C335.134 136.647 336.027 136.4 337.027 136.4C338.054 136.4 338.947 136.647 339.707 137.14C340.48 137.633 341.087 138.287 341.527 139.1C341.967 139.9 342.187 140.78 342.187 141.74C342.187 141.847 342.187 141.953 342.187 142.06C342.187 142.153 342.18 142.227 342.167 142.28H333.247C333.314 143.027 333.52 143.693 333.867 144.28C334.227 144.853 334.687 145.313 335.247 145.66C335.82 145.993 336.44 146.16 337.107 146.16C337.787 146.16 338.427 145.987 339.027 145.64C339.64 145.293 340.067 144.84 340.307 144.28L341.487 144.6C341.274 145.093 340.947 145.54 340.507 145.94C340.067 146.34 339.547 146.653 338.947 146.88C338.36 147.093 337.727 147.2 337.047 147.2ZM333.207 141.3H340.907C340.854 140.54 340.647 139.873 340.287 139.3C339.94 138.727 339.48 138.28 338.907 137.96C338.347 137.627 337.727 137.46 337.047 137.46C336.367 137.46 335.747 137.627 335.187 137.96C334.627 138.28 334.167 138.733 333.807 139.32C333.46 139.893 333.26 140.553 333.207 141.3Z" fill="#121212"/>
<g opacity="0.6">
<g opacity="0.3">
<path d="M444.652 109.405C445.204 109.29 445.534 108.712 445.259 108.218C444.653 107.131 443.699 106.175 442.479 105.447C440.907 104.508 438.981 104 437 104C435.019 104 433.093 104.508 431.521 105.447C430.301 106.175 429.347 107.131 428.741 108.218C428.466 108.712 428.796 109.29 429.348 109.405V109.405C434.395 110.457 439.605 110.457 444.652 109.405V109.405Z" fill="#121212"/>
<circle cx="437" cy="97" r="5" fill="#121212"/>
</g>
<path d="M462.53 107V94.22H468.002C468.566 94.22 469.082 94.34 469.55 94.58C470.018 94.808 470.426 95.12 470.774 95.516C471.122 95.9 471.392 96.338 471.584 96.83C471.776 97.31 471.872 97.802 471.872 98.306C471.872 98.894 471.758 99.452 471.53 99.98C471.314 100.508 471.002 100.958 470.594 101.33C470.198 101.702 469.73 101.96 469.19 102.104L472.286 107H470.45L467.534 102.41H464.15V107H462.53ZM464.15 100.97H468.02C468.464 100.97 468.848 100.85 469.172 100.61C469.508 100.358 469.766 100.028 469.946 99.62C470.138 99.212 470.234 98.774 470.234 98.306C470.234 97.826 470.126 97.388 469.91 96.992C469.694 96.584 469.412 96.26 469.064 96.02C468.716 95.78 468.332 95.66 467.912 95.66H464.15V100.97ZM477.913 107.18C477.205 107.18 476.563 107.054 475.987 106.802C475.411 106.538 474.913 106.184 474.493 105.74C474.073 105.284 473.749 104.762 473.521 104.174C473.293 103.586 473.179 102.968 473.179 102.32C473.179 101.66 473.293 101.036 473.521 100.448C473.749 99.86 474.073 99.344 474.493 98.9C474.913 98.444 475.411 98.09 475.987 97.838C476.575 97.574 477.217 97.442 477.913 97.442C478.621 97.442 479.263 97.574 479.839 97.838C480.415 98.09 480.913 98.444 481.333 98.9C481.765 99.344 482.095 99.86 482.323 100.448C482.551 101.036 482.665 101.66 482.665 102.32C482.665 102.968 482.551 103.586 482.323 104.174C482.095 104.762 481.771 105.284 481.351 105.74C480.931 106.184 480.427 106.538 479.839 106.802C479.263 107.054 478.621 107.18 477.913 107.18ZM474.799 102.338C474.799 102.986 474.937 103.574 475.213 104.102C475.501 104.63 475.879 105.05 476.347 105.362C476.815 105.662 477.337 105.812 477.913 105.812C478.489 105.812 479.011 105.656 479.479 105.344C479.959 105.032 480.337 104.612 480.613 104.084C480.901 103.544 481.045 102.95 481.045 102.302C481.045 101.654 480.901 101.066 480.613 100.538C480.337 100.01 479.959 99.59 479.479 99.278C479.011 98.966 478.489 98.81 477.913 98.81C477.337 98.81 476.815 98.972 476.347 99.296C475.879 99.608 475.501 100.028 475.213 100.556C474.937 101.084 474.799 101.678 474.799 102.338ZM488.689 107.18C487.981 107.18 487.339 107.054 486.763 106.802C486.187 106.538 485.689 106.184 485.269 105.74C484.849 105.284 484.525 104.762 484.297 104.174C484.069 103.586 483.955 102.968 483.955 102.32C483.955 101.66 484.069 101.036 484.297 100.448C484.525 99.86 484.849 99.344 485.269 98.9C485.689 98.444 486.187 98.09 486.763 97.838C487.351 97.574 487.993 97.442 488.689 97.442C489.397 97.442 490.039 97.574 490.615 97.838C491.191 98.09 491.689 98.444 492.109 98.9C492.541 99.344 492.871 99.86 493.099 100.448C493.327 101.036 493.441 101.66 493.441 102.32C493.441 102.968 493.327 103.586 493.099 104.174C492.871 104.762 492.547 105.284 492.127 105.74C491.707 106.184 491.203 106.538 490.615 106.802C490.039 107.054 489.397 107.18 488.689 107.18ZM485.575 102.338C485.575 102.986 485.713 103.574 485.989 104.102C486.277 104.63 486.655 105.05 487.123 105.362C487.591 105.662 488.113 105.812 488.689 105.812C489.265 105.812 489.787 105.656 490.255 105.344C490.735 105.032 491.113 104.612 491.389 104.084C491.677 103.544 491.821 102.95 491.821 102.302C491.821 101.654 491.677 101.066 491.389 100.538C491.113 100.01 490.735 99.59 490.255 99.278C489.787 98.966 489.265 98.81 488.689 98.81C488.113 98.81 487.591 98.972 487.123 99.296C486.655 99.608 486.277 100.028 485.989 100.556C485.713 101.084 485.575 101.678 485.575 102.338ZM509.526 107H507.942V101.744C507.942 100.76 507.78 100.034 507.456 99.566C507.144 99.098 506.676 98.864 506.052 98.864C505.416 98.864 504.84 99.098 504.324 99.566C503.808 100.022 503.442 100.616 503.226 101.348V107H501.642V101.744C501.642 100.748 501.486 100.022 501.174 99.566C500.862 99.098 500.394 98.864 499.77 98.864C499.146 98.864 498.57 99.092 498.042 99.548C497.526 99.992 497.16 100.586 496.944 101.33V107H495.36V97.604H496.8V99.62C497.184 98.924 497.682 98.39 498.294 98.018C498.906 97.634 499.596 97.442 500.364 97.442C501.144 97.442 501.768 97.658 502.236 98.09C502.704 98.51 502.992 99.056 503.1 99.728C503.52 98.984 504.03 98.42 504.63 98.036C505.23 97.64 505.914 97.442 506.682 97.442C507.222 97.442 507.672 97.544 508.032 97.748C508.404 97.94 508.698 98.216 508.914 98.576C509.13 98.924 509.286 99.338 509.382 99.818C509.478 100.298 509.526 100.82 509.526 101.384V107ZM515.211 107.18C514.431 107.18 513.699 107.054 513.015 106.802C512.331 106.538 511.743 106.148 511.251 105.632L511.863 104.516C512.403 105.02 512.943 105.38 513.483 105.596C514.023 105.812 514.575 105.92 515.139 105.92C515.787 105.92 516.315 105.8 516.723 105.56C517.131 105.308 517.335 104.942 517.335 104.462C517.335 104.114 517.227 103.856 517.011 103.688C516.807 103.52 516.513 103.382 516.129 103.274C515.745 103.154 515.289 103.022 514.761 102.878C514.113 102.686 513.567 102.482 513.123 102.266C512.679 102.05 512.343 101.78 512.115 101.456C511.887 101.132 511.773 100.724 511.773 100.232C511.773 99.632 511.929 99.128 512.241 98.72C512.553 98.3 512.979 97.982 513.519 97.766C514.071 97.55 514.695 97.442 515.391 97.442C516.087 97.442 516.717 97.55 517.281 97.766C517.845 97.982 518.331 98.3 518.739 98.72L518.019 99.818C517.647 99.434 517.239 99.152 516.795 98.972C516.351 98.78 515.853 98.684 515.301 98.684C514.977 98.684 514.659 98.726 514.347 98.81C514.035 98.882 513.777 99.02 513.573 99.224C513.369 99.416 513.267 99.692 513.267 100.052C513.267 100.352 513.345 100.592 513.501 100.772C513.669 100.94 513.909 101.084 514.221 101.204C514.545 101.324 514.935 101.456 515.391 101.6C516.099 101.804 516.711 102.008 517.227 102.212C517.755 102.416 518.163 102.68 518.451 103.004C518.739 103.328 518.883 103.778 518.883 104.354C518.883 105.242 518.547 105.938 517.875 106.442C517.203 106.934 516.315 107.18 515.211 107.18ZM534.133 107L527.869 100.394C527.353 99.842 526.939 99.374 526.627 98.99C526.327 98.594 526.111 98.24 525.979 97.928C525.847 97.604 525.781 97.274 525.781 96.938C525.781 96.386 525.925 95.894 526.213 95.462C526.501 95.03 526.891 94.688 527.383 94.436C527.887 94.184 528.451 94.058 529.075 94.058C529.651 94.058 530.173 94.166 530.641 94.382C531.109 94.586 531.481 94.886 531.757 95.282C532.045 95.666 532.189 96.128 532.189 96.668C532.189 97.22 532.039 97.712 531.739 98.144C531.439 98.564 531.043 98.96 530.551 99.332C530.071 99.692 529.537 100.058 528.949 100.43C528.469 100.742 528.031 101.06 527.635 101.384C527.251 101.708 526.945 102.056 526.717 102.428C526.501 102.788 526.393 103.19 526.393 103.634C526.393 104.114 526.525 104.528 526.789 104.876C527.053 105.212 527.395 105.47 527.815 105.65C528.247 105.83 528.697 105.92 529.165 105.92C529.777 105.92 530.347 105.782 530.875 105.506C531.403 105.218 531.865 104.822 532.261 104.318C532.669 103.814 532.981 103.232 533.197 102.572C533.425 101.9 533.539 101.18 533.539 100.412H534.853C534.853 101.396 534.697 102.302 534.385 103.13C534.085 103.946 533.665 104.66 533.125 105.272C532.597 105.872 531.979 106.34 531.271 106.676C530.563 107.012 529.807 107.18 529.003 107.18C528.223 107.18 527.515 107.024 526.879 106.712C526.255 106.4 525.763 105.98 525.403 105.452C525.043 104.912 524.863 104.3 524.863 103.616C524.863 102.956 525.013 102.38 525.313 101.888C525.625 101.384 526.021 100.94 526.501 100.556C526.993 100.16 527.497 99.8 528.013 99.476C528.541 99.14 529.009 98.834 529.417 98.558C529.825 98.27 530.143 97.976 530.371 97.676C530.611 97.376 530.731 97.052 530.731 96.704C530.731 96.284 530.575 95.942 530.263 95.678C529.951 95.402 529.555 95.264 529.075 95.264C528.715 95.264 528.397 95.342 528.121 95.498C527.845 95.642 527.629 95.84 527.473 96.092C527.317 96.332 527.239 96.602 527.239 96.902C527.239 97.094 527.287 97.292 527.383 97.496C527.479 97.7 527.659 97.958 527.923 98.27C528.199 98.582 528.583 99.002 529.075 99.53L536.221 107H534.133ZM547.517 107.09C546.677 107.09 545.891 106.91 545.159 106.55C544.439 106.178 543.809 105.686 543.269 105.074C542.729 104.45 542.309 103.754 542.009 102.986C541.709 102.206 541.559 101.402 541.559 100.574C541.559 99.71 541.709 98.894 542.009 98.126C542.309 97.346 542.723 96.656 543.251 96.056C543.791 95.456 544.421 94.988 545.141 94.652C545.873 94.304 546.665 94.13 547.517 94.13C548.753 94.13 549.773 94.388 550.577 94.904C551.381 95.42 551.987 96.092 552.395 96.92L551.153 97.784C550.781 97.04 550.271 96.488 549.623 96.128C548.975 95.768 548.261 95.588 547.481 95.588C546.833 95.588 546.245 95.726 545.717 96.002C545.189 96.278 544.733 96.656 544.349 97.136C543.977 97.604 543.689 98.138 543.485 98.738C543.293 99.338 543.197 99.962 543.197 100.61C543.197 101.294 543.305 101.942 543.521 102.554C543.749 103.154 544.067 103.688 544.475 104.156C544.883 104.612 545.357 104.972 545.897 105.236C546.437 105.5 547.019 105.632 547.643 105.632C548.375 105.632 549.071 105.446 549.731 105.074C550.391 104.702 551.015 104.132 551.603 103.364V105.038C550.451 106.406 549.089 107.09 547.517 107.09ZM551.405 101.852H548.651V100.628H552.773V107H551.405V101.852ZM554.895 103.238V97.604H556.479V102.932C556.479 103.892 556.647 104.612 556.983 105.092C557.319 105.572 557.817 105.812 558.477 105.812C558.909 105.812 559.323 105.722 559.719 105.542C560.127 105.35 560.493 105.08 560.817 104.732C561.141 104.384 561.393 103.97 561.573 103.49V97.604H563.157V105.2C563.157 105.392 563.193 105.536 563.265 105.632C563.349 105.716 563.481 105.764 563.661 105.776V107C563.481 107.024 563.337 107.036 563.229 107.036C563.133 107.048 563.037 107.054 562.941 107.054C562.641 107.054 562.383 106.964 562.167 106.784C561.951 106.592 561.837 106.358 561.825 106.082L561.789 104.984C561.381 105.68 560.829 106.22 560.133 106.604C559.449 106.988 558.699 107.18 557.883 107.18C556.899 107.18 556.155 106.85 555.651 106.19C555.147 105.518 554.895 104.534 554.895 103.238ZM569.954 107.18C569.246 107.18 568.598 107.054 568.01 106.802C567.434 106.538 566.93 106.184 566.498 105.74C566.078 105.284 565.748 104.762 565.508 104.174C565.28 103.586 565.166 102.962 565.166 102.302C565.166 101.414 565.37 100.604 565.778 99.872C566.186 99.14 566.75 98.552 567.47 98.108C568.202 97.664 569.036 97.442 569.972 97.442C570.92 97.442 571.742 97.67 572.438 98.126C573.146 98.57 573.692 99.158 574.076 99.89C574.472 100.61 574.67 101.39 574.67 102.23C574.67 102.35 574.664 102.47 574.652 102.59C574.652 102.698 574.646 102.782 574.634 102.842H566.84C566.888 103.454 567.056 104 567.344 104.48C567.644 104.948 568.028 105.32 568.496 105.596C568.964 105.86 569.468 105.992 570.008 105.992C570.584 105.992 571.124 105.848 571.628 105.56C572.144 105.272 572.498 104.894 572.69 104.426L574.058 104.804C573.854 105.26 573.548 105.668 573.14 106.028C572.744 106.388 572.27 106.67 571.718 106.874C571.178 107.078 570.59 107.18 569.954 107.18ZM566.786 101.744H573.194C573.146 101.132 572.972 100.592 572.672 100.124C572.372 99.656 571.988 99.29 571.52 99.026C571.052 98.762 570.536 98.63 569.972 98.63C569.42 98.63 568.91 98.762 568.442 99.026C567.974 99.29 567.59 99.656 567.29 100.124C567.002 100.592 566.834 101.132 566.786 101.744ZM579.652 107.18C578.872 107.18 578.14 107.054 577.456 106.802C576.772 106.538 576.184 106.148 575.692 105.632L576.304 104.516C576.844 105.02 577.384 105.38 577.924 105.596C578.464 105.812 579.016 105.92 579.58 105.92C580.228 105.92 580.756 105.8 581.164 105.56C581.572 105.308 581.776 104.942 581.776 104.462C581.776 104.114 581.668 103.856 581.452 103.688C581.248 103.52 580.954 103.382 580.57 103.274C580.186 103.154 579.73 103.022 579.202 102.878C578.554 102.686 578.008 102.482 577.564 102.266C577.12 102.05 576.784 101.78 576.556 101.456C576.328 101.132 576.214 100.724 576.214 100.232C576.214 99.632 576.37 99.128 576.682 98.72C576.994 98.3 577.42 97.982 577.96 97.766C578.512 97.55 579.136 97.442 579.832 97.442C580.528 97.442 581.158 97.55 581.722 97.766C582.286 97.982 582.772 98.3 583.18 98.72L582.46 99.818C582.088 99.434 581.68 99.152 581.236 98.972C580.792 98.78 580.294 98.684 579.742 98.684C579.418 98.684 579.1 98.726 578.788 98.81C578.476 98.882 578.218 99.02 578.014 99.224C577.81 99.416 577.708 99.692 577.708 100.052C577.708 100.352 577.786 100.592 577.942 100.772C578.11 100.94 578.35 101.084 578.662 101.204C578.986 101.324 579.376 101.456 579.832 101.6C580.54 101.804 581.152 102.008 581.668 102.212C582.196 102.416 582.604 102.68 582.892 103.004C583.18 103.328 583.324 103.778 583.324 104.354C583.324 105.242 582.988 105.938 582.316 106.442C581.644 106.934 580.756 107.18 579.652 107.18ZM590.079 106.532C589.947 106.592 589.767 106.67 589.539 106.766C589.311 106.862 589.047 106.946 588.747 107.018C588.447 107.09 588.129 107.126 587.793 107.126C587.409 107.126 587.055 107.06 586.731 106.928C586.407 106.784 586.149 106.568 585.957 106.28C585.765 105.98 585.669 105.608 585.669 105.164V98.846H584.391V97.604H585.669V94.472H587.253V97.604H589.359V98.846H587.253V104.678C587.277 105.014 587.391 105.266 587.595 105.434C587.799 105.59 588.039 105.668 588.315 105.668C588.627 105.668 588.915 105.614 589.179 105.506C589.443 105.398 589.617 105.32 589.701 105.272L590.079 106.532ZM594.77 107.18C593.99 107.18 593.258 107.054 592.574 106.802C591.89 106.538 591.302 106.148 590.81 105.632L591.422 104.516C591.962 105.02 592.502 105.38 593.042 105.596C593.582 105.812 594.134 105.92 594.698 105.92C595.346 105.92 595.874 105.8 596.282 105.56C596.69 105.308 596.894 104.942 596.894 104.462C596.894 104.114 596.786 103.856 596.57 103.688C596.366 103.52 596.072 103.382 595.688 103.274C595.304 103.154 594.848 103.022 594.32 102.878C593.672 102.686 593.126 102.482 592.682 102.266C592.238 102.05 591.902 101.78 591.674 101.456C591.446 101.132 591.332 100.724 591.332 100.232C591.332 99.632 591.488 99.128 591.8 98.72C592.112 98.3 592.538 97.982 593.078 97.766C593.63 97.55 594.254 97.442 594.95 97.442C595.646 97.442 596.276 97.55 596.84 97.766C597.404 97.982 597.89 98.3 598.298 98.72L597.578 99.818C597.206 99.434 596.798 99.152 596.354 98.972C595.91 98.78 595.412 98.684 594.86 98.684C594.536 98.684 594.218 98.726 593.906 98.81C593.594 98.882 593.336 99.02 593.132 99.224C592.928 99.416 592.826 99.692 592.826 100.052C592.826 100.352 592.904 100.592 593.06 100.772C593.228 100.94 593.468 101.084 593.78 101.204C594.104 101.324 594.494 101.456 594.95 101.6C595.658 101.804 596.27 102.008 596.786 102.212C597.314 102.416 597.722 102.68 598.01 103.004C598.298 103.328 598.442 103.778 598.442 104.354C598.442 105.242 598.106 105.938 597.434 106.442C596.762 106.934 595.874 107.18 594.77 107.18Z" fill="black"/>
</g>
<path opacity="0.3" d="M431.88 146C431.88 145.547 431.92 145.093 432 144.64C432.08 144.173 432.233 143.713 432.46 143.26C432.687 142.807 433.02 142.373 433.46 141.96C433.9 141.533 434.48 141.133 435.2 140.76C435.587 140.56 435.987 140.367 436.4 140.18C436.813 139.98 437.2 139.767 437.56 139.54C437.933 139.3 438.227 139.033 438.44 138.74C438.667 138.433 438.78 138.073 438.78 137.66C438.78 137.327 438.68 137 438.48 136.68C438.293 136.36 438 136.1 437.6 135.9C437.213 135.7 436.727 135.6 436.14 135.6C435.713 135.6 435.327 135.66 434.98 135.78C434.633 135.9 434.327 136.053 434.06 136.24C433.793 136.413 433.567 136.593 433.38 136.78C433.193 136.953 433.04 137.1 432.92 137.22L432.06 136.28C432.127 136.2 432.273 136.06 432.5 135.86C432.74 135.647 433.04 135.427 433.4 135.2C433.773 134.973 434.207 134.78 434.7 134.62C435.207 134.46 435.76 134.38 436.36 134.38C437.173 134.38 437.867 134.527 438.44 134.82C439.027 135.1 439.473 135.48 439.78 135.96C440.087 136.44 440.24 136.96 440.24 137.52C440.24 138.067 440.12 138.54 439.88 138.94C439.653 139.327 439.353 139.667 438.98 139.96C438.62 140.24 438.24 140.487 437.84 140.7C437.453 140.9 437.1 141.073 436.78 141.22C436.153 141.513 435.627 141.807 435.2 142.1C434.773 142.393 434.433 142.693 434.18 143C433.927 143.293 433.727 143.587 433.58 143.88C433.447 144.16 433.353 144.453 433.3 144.76H440.46V146H431.88ZM452.082 131.8H453.262L459.162 146H457.682L455.842 141.56H449.462L447.642 146H446.142L452.082 131.8ZM455.522 140.46L452.662 133.44L449.762 140.46H455.522ZM459.925 140.82C459.925 139.833 460.125 138.933 460.525 138.12C460.938 137.293 461.505 136.633 462.225 136.14C462.945 135.647 463.765 135.4 464.685 135.4C465.552 135.4 466.325 135.633 467.005 136.1C467.698 136.553 468.238 137.107 468.625 137.76V131.4H469.985V144.36C469.985 144.547 470.025 144.687 470.105 144.78C470.185 144.86 470.305 144.907 470.465 144.92V146C470.198 146.04 469.992 146.053 469.845 146.04C469.565 146.027 469.318 145.913 469.105 145.7C468.892 145.487 468.785 145.253 468.785 145V143.98C468.372 144.66 467.812 145.2 467.105 145.6C466.398 146 465.665 146.2 464.905 146.2C464.185 146.2 463.518 146.053 462.905 145.76C462.305 145.467 461.778 145.067 461.325 144.56C460.885 144.053 460.538 143.48 460.285 142.84C460.045 142.187 459.925 141.513 459.925 140.82ZM468.625 142.42V139.2C468.452 138.72 468.172 138.287 467.785 137.9C467.398 137.5 466.958 137.187 466.465 136.96C465.985 136.72 465.505 136.6 465.025 136.6C464.465 136.6 463.958 136.72 463.505 136.96C463.052 137.187 462.658 137.5 462.325 137.9C462.005 138.3 461.758 138.753 461.585 139.26C461.412 139.767 461.325 140.287 461.325 140.82C461.325 141.38 461.418 141.913 461.605 142.42C461.805 142.927 462.085 143.38 462.445 143.78C462.805 144.167 463.218 144.467 463.685 144.68C464.152 144.893 464.658 145 465.205 145C465.552 145 465.912 144.933 466.285 144.8C466.658 144.667 467.012 144.487 467.345 144.26C467.692 144.02 467.978 143.74 468.205 143.42C468.432 143.1 468.572 142.767 468.625 142.42ZM472.966 141.7V135.58H474.326V141.46C474.326 142.647 474.526 143.533 474.926 144.12C475.34 144.707 475.946 145 476.746 145C477.28 145 477.793 144.887 478.286 144.66C478.793 144.42 479.24 144.087 479.626 143.66C480.013 143.22 480.306 142.713 480.506 142.14V135.58H481.866V144.36C481.866 144.547 481.906 144.687 481.986 144.78C482.066 144.86 482.186 144.907 482.346 144.92V146C482.186 146.013 482.06 146.02 481.966 146.02C481.873 146.033 481.786 146.04 481.706 146.04C481.44 146.013 481.206 145.907 481.006 145.72C480.82 145.533 480.72 145.307 480.706 145.04L480.666 143.64C480.213 144.44 479.593 145.067 478.806 145.52C478.033 145.973 477.193 146.2 476.286 146.2C475.193 146.2 474.366 145.82 473.806 145.06C473.246 144.3 472.966 143.18 472.966 141.7ZM485.001 131.4H486.361V143.64C486.361 144.16 486.455 144.5 486.641 144.66C486.828 144.82 487.055 144.9 487.321 144.9C487.561 144.9 487.801 144.873 488.041 144.82C488.281 144.767 488.488 144.713 488.661 144.66L488.901 145.76C488.648 145.867 488.335 145.953 487.961 146.02C487.601 146.087 487.288 146.12 487.021 146.12C486.408 146.12 485.915 145.94 485.541 145.58C485.181 145.22 485.001 144.727 485.001 144.1V131.4ZM495.391 145.5C495.284 145.54 495.117 145.613 494.891 145.72C494.664 145.827 494.391 145.92 494.071 146C493.751 146.08 493.404 146.12 493.031 146.12C492.644 146.12 492.277 146.047 491.931 145.9C491.597 145.753 491.331 145.533 491.131 145.24C490.931 144.933 490.831 144.56 490.831 144.12V136.66H489.391V135.58H490.831V132.06H492.191V135.58H494.591V136.66H492.191V143.74C492.217 144.113 492.351 144.393 492.591 144.58C492.844 144.767 493.131 144.86 493.451 144.86C493.824 144.86 494.164 144.8 494.471 144.68C494.777 144.547 494.964 144.453 495.031 144.4L495.391 145.5ZM497.31 147.62L497.65 145.94H497.19V144.04H498.51V145.94L498.01 147.62H497.31ZM513.3 144.76V146H506.52V144.76H509.36V136.2C509.253 136.36 509.073 136.533 508.82 136.72C508.566 136.907 508.273 137.08 507.94 137.24C507.62 137.4 507.3 137.533 506.98 137.64C506.66 137.747 506.366 137.8 506.1 137.8V136.48C506.406 136.48 506.74 136.393 507.1 136.22C507.46 136.047 507.806 135.847 508.14 135.62C508.473 135.393 508.753 135.18 508.98 134.98C509.206 134.78 509.333 134.647 509.36 134.58H510.76V144.76H513.3ZM519.672 138.8C519.672 137.933 519.819 137.087 520.112 136.26C520.419 135.42 520.859 134.66 521.432 133.98C522.005 133.287 522.712 132.74 523.552 132.34C524.392 131.927 525.345 131.72 526.412 131.72C527.679 131.72 528.759 132.013 529.652 132.6C530.559 133.173 531.225 133.913 531.652 134.82L530.552 135.5C530.245 134.873 529.859 134.38 529.392 134.02C528.925 133.647 528.425 133.38 527.892 133.22C527.372 133.06 526.852 132.98 526.332 132.98C525.479 132.98 524.725 133.153 524.072 133.5C523.419 133.833 522.865 134.287 522.412 134.86C521.972 135.42 521.639 136.053 521.412 136.76C521.185 137.453 521.072 138.16 521.072 138.88C521.072 139.667 521.205 140.42 521.472 141.14C521.739 141.86 522.112 142.5 522.592 143.06C523.072 143.607 523.632 144.047 524.272 144.38C524.925 144.7 525.632 144.86 526.392 144.86C526.925 144.86 527.472 144.767 528.032 144.58C528.592 144.393 529.112 144.107 529.592 143.72C530.085 143.333 530.479 142.833 530.772 142.22L531.932 142.82C531.639 143.527 531.185 144.127 530.572 144.62C529.959 145.113 529.272 145.487 528.512 145.74C527.765 145.993 527.032 146.12 526.312 146.12C525.339 146.12 524.445 145.913 523.632 145.5C522.819 145.073 522.112 144.513 521.512 143.82C520.925 143.113 520.472 142.327 520.152 141.46C519.832 140.58 519.672 139.693 519.672 138.8ZM542.803 146H541.443V140.18C541.443 139.007 541.236 138.127 540.823 137.54C540.41 136.94 539.816 136.64 539.043 136.64C538.536 136.64 538.03 136.773 537.523 137.04C537.03 137.293 536.59 137.647 536.203 138.1C535.83 138.54 535.563 139.047 535.403 139.62V146H534.043V131.4H535.403V137.94C535.816 137.167 536.39 136.553 537.123 136.1C537.87 135.633 538.663 135.4 539.503 135.4C540.103 135.4 540.61 135.507 541.023 135.72C541.45 135.933 541.79 136.247 542.043 136.66C542.31 137.06 542.503 137.533 542.623 138.08C542.743 138.613 542.803 139.22 542.803 139.9V146ZM545.703 146V135.58H547.063V146H545.703ZM545.703 133.4V131.4H547.063V133.4H545.703ZM550.119 131.4H551.479V143.64C551.479 144.16 551.572 144.5 551.759 144.66C551.945 144.82 552.172 144.9 552.439 144.9C552.679 144.9 552.919 144.873 553.159 144.82C553.399 144.767 553.605 144.713 553.779 144.66L554.019 145.76C553.765 145.867 553.452 145.953 553.079 146.02C552.719 146.087 552.405 146.12 552.139 146.12C551.525 146.12 551.032 145.94 550.659 145.58C550.299 145.22 550.119 144.727 550.119 144.1V131.4ZM554.808 140.82C554.808 139.833 555.008 138.933 555.408 138.12C555.821 137.293 556.388 136.633 557.108 136.14C557.828 135.647 558.648 135.4 559.568 135.4C560.434 135.4 561.208 135.633 561.888 136.1C562.581 136.553 563.121 137.107 563.508 137.76V131.4H564.868V144.36C564.868 144.547 564.908 144.687 564.988 144.78C565.068 144.86 565.188 144.907 565.348 144.92V146C565.081 146.04 564.874 146.053 564.728 146.04C564.448 146.027 564.201 145.913 563.988 145.7C563.774 145.487 563.668 145.253 563.668 145V143.98C563.254 144.66 562.694 145.2 561.988 145.6C561.281 146 560.548 146.2 559.788 146.2C559.068 146.2 558.401 146.053 557.788 145.76C557.188 145.467 556.661 145.067 556.208 144.56C555.768 144.053 555.421 143.48 555.168 142.84C554.928 142.187 554.808 141.513 554.808 140.82ZM563.508 142.42V139.2C563.334 138.72 563.054 138.287 562.668 137.9C562.281 137.5 561.841 137.187 561.348 136.96C560.868 136.72 560.388 136.6 559.908 136.6C559.348 136.6 558.841 136.72 558.388 136.96C557.934 137.187 557.541 137.5 557.208 137.9C556.888 138.3 556.641 138.753 556.468 139.26C556.294 139.767 556.208 140.287 556.208 140.82C556.208 141.38 556.301 141.913 556.488 142.42C556.688 142.927 556.968 143.38 557.328 143.78C557.688 144.167 558.101 144.467 558.568 144.68C559.034 144.893 559.541 145 560.088 145C560.434 145 560.794 144.933 561.168 144.8C561.541 144.667 561.894 144.487 562.228 144.26C562.574 144.02 562.861 143.74 563.088 143.42C563.314 143.1 563.454 142.767 563.508 142.42Z" fill="#121212"/>
<rect width="15" height="15" transform="translate(614 93)" fill="white"/>
<path d="M620.986 105.231C621.043 105.314 621.12 105.382 621.209 105.429C621.299 105.476 621.399 105.501 621.5 105.501C621.601 105.501 621.7 105.476 621.79 105.429C621.879 105.382 621.956 105.314 622.013 105.231L627.638 97.1056C627.704 97.0119 627.742 96.9021 627.749 96.7883C627.756 96.6744 627.732 96.5607 627.679 96.4596C627.626 96.3585 627.546 96.2739 627.448 96.2149C627.351 96.1559 627.239 96.1248 627.125 96.125H615.875C615.761 96.1255 615.649 96.157 615.552 96.2161C615.455 96.2752 615.375 96.3598 615.322 96.4606C615.27 96.5615 615.245 96.6748 615.252 96.7885C615.259 96.9021 615.296 97.0118 615.361 97.1056L620.986 105.231Z" fill="#FA7436"/>
<g opacity="0.6">
<g opacity="0.3">
<path d="M714.5 103H718.5" stroke="#121212" stroke-width="2" stroke-linecap="round" stroke-linejoin="round"/>
<path fill-rule="evenodd" clip-rule="evenodd" d="M721.793 99.7071L721.086 99L722.5 97.5858L723.207 98.2929L727.207 102.293L727.914 103L727.207 103.707L723.207 107.707L722.5 108.414L721.086 107L721.793 106.293L724.086 104L721 104L721 109C721 110.105 721.895 111 723 111L727 111C728.105 111 729 110.105 729 109L729 97C729 95.8954 728.105 95 727 95L723 95C721.895 95 721 95.8954 721 97L721 102L724.086 102L721.793 99.7071Z" fill="#121212"/>
</g>
<path d="M751.02 107.434C751.716 107.434 752.358 107.266 752.946 106.93C753.546 106.594 754.05 106.15 754.458 105.598L755.772 106.858C755.196 107.542 754.494 108.1 753.666 108.532C752.85 108.964 751.968 109.18 751.02 109.18C750.156 109.18 749.34 109.006 748.572 108.658C747.804 108.31 747.138 107.842 746.574 107.254C746.01 106.654 745.56 105.958 745.224 105.166C744.9 104.362 744.738 103.516 744.738 102.628C744.738 101.728 744.9 100.882 745.224 100.09C745.56 99.298 746.01 98.608 746.574 98.02C747.138 97.42 747.804 96.946 748.572 96.598C749.34 96.25 750.156 96.076 751.02 96.076C751.824 96.076 752.58 96.238 753.288 96.562C754.008 96.874 754.65 97.288 755.214 97.804L754.098 99.226C753.702 98.806 753.24 98.464 752.712 98.2C752.184 97.924 751.62 97.786 751.02 97.786C750.408 97.786 749.832 97.918 749.292 98.182C748.764 98.434 748.302 98.782 747.906 99.226C747.51 99.67 747.192 100.186 746.952 100.774C746.724 101.35 746.61 101.968 746.61 102.628C746.61 103.288 746.724 103.912 746.952 104.5C747.192 105.076 747.51 105.586 747.906 106.03C748.302 106.462 748.764 106.804 749.292 107.056C749.832 107.308 750.408 107.434 751.02 107.434ZM759.094 109H757.348V95.86H759.094V101.17C759.418 100.81 759.754 100.558 760.102 100.414C760.462 100.258 760.876 100.18 761.344 100.18C761.944 100.18 762.478 100.3 762.946 100.54C763.426 100.768 763.834 101.086 764.17 101.494C764.506 101.902 764.758 102.382 764.926 102.934C765.106 103.486 765.196 104.074 765.196 104.698V109H763.432V104.698C763.432 104.29 763.372 103.906 763.252 103.546C763.144 103.186 762.988 102.874 762.784 102.61C762.592 102.346 762.364 102.142 762.1 101.998C761.848 101.842 761.572 101.764 761.272 101.764C761.02 101.764 760.768 101.818 760.516 101.926C760.264 102.022 760.03 102.184 759.814 102.412C759.61 102.64 759.436 102.94 759.292 103.312C759.16 103.684 759.094 104.134 759.094 104.662V109ZM771.19 109.216C770.566 109.216 769.978 109.102 769.426 108.874C768.886 108.634 768.412 108.31 768.004 107.902C767.596 107.494 767.272 107.014 767.032 106.462C766.804 105.91 766.69 105.322 766.69 104.698C766.69 104.074 766.798 103.486 767.014 102.934C767.242 102.382 767.542 101.902 767.914 101.494C768.298 101.086 768.742 100.768 769.246 100.54C769.75 100.3 770.29 100.18 770.866 100.18C771.454 100.18 771.994 100.282 772.486 100.486C772.99 100.69 773.422 101.008 773.782 101.44C774.154 101.872 774.442 102.424 774.646 103.096C774.85 103.756 774.952 104.548 774.952 105.472H768.544C768.628 105.784 768.76 106.078 768.94 106.354C769.12 106.618 769.33 106.852 769.57 107.056C769.822 107.248 770.098 107.398 770.398 107.506C770.71 107.614 771.034 107.668 771.37 107.668C771.826 107.668 772.246 107.584 772.63 107.416C773.026 107.248 773.362 107.026 773.638 106.75L774.718 107.83C774.298 108.25 773.782 108.586 773.17 108.838C772.57 109.09 771.91 109.216 771.19 109.216ZM770.866 101.764C770.59 101.764 770.326 101.818 770.074 101.926C769.834 102.034 769.606 102.184 769.39 102.376C769.186 102.568 769.006 102.796 768.85 103.06C768.706 103.324 768.598 103.612 768.526 103.924H773.08C773.056 103.636 772.99 103.36 772.882 103.096C772.774 102.832 772.624 102.604 772.432 102.412C772.24 102.208 772.012 102.052 771.748 101.944C771.496 101.824 771.202 101.764 770.866 101.764ZM780.609 109.216C780.009 109.216 779.445 109.102 778.917 108.874C778.401 108.634 777.945 108.31 777.549 107.902C777.165 107.494 776.859 107.014 776.631 106.462C776.403 105.91 776.289 105.322 776.289 104.698C776.289 104.074 776.403 103.486 776.631 102.934C776.859 102.382 777.165 101.902 777.549 101.494C777.945 101.086 778.401 100.768 778.917 100.54C779.445 100.3 780.009 100.18 780.609 100.18C781.305 100.18 781.947 100.336 782.535 100.648C783.123 100.96 783.615 101.386 784.011 101.926L782.787 102.88C782.547 102.532 782.241 102.262 781.869 102.07C781.509 101.866 781.119 101.764 780.699 101.764C780.339 101.764 779.997 101.842 779.673 101.998C779.349 102.142 779.067 102.346 778.827 102.61C778.587 102.874 778.395 103.186 778.251 103.546C778.119 103.906 778.053 104.29 778.053 104.698C778.053 105.106 778.119 105.49 778.251 105.85C778.395 106.21 778.587 106.528 778.827 106.804C779.067 107.068 779.349 107.278 779.673 107.434C779.997 107.59 780.339 107.668 780.699 107.668C781.167 107.668 781.593 107.542 781.977 107.29C782.361 107.038 782.673 106.702 782.913 106.282L784.101 107.326C783.717 107.902 783.219 108.364 782.607 108.712C781.995 109.048 781.329 109.216 780.609 109.216ZM787.625 109H785.879V95.86H787.625V103.924L791.009 100.378H793.169L789.857 103.852L793.421 109H791.441L788.723 105.04L787.625 106.192V109ZM794.609 103.114H799.901V104.302H794.609V103.114ZM803.533 109H801.787V100.378H803.515L803.533 109ZM802.651 98.506C802.339 98.506 802.075 98.398 801.859 98.182C801.643 97.954 801.535 97.684 801.535 97.372C801.535 97.06 801.643 96.796 801.859 96.58C802.075 96.364 802.339 96.256 802.651 96.256C802.963 96.256 803.227 96.364 803.443 96.58C803.659 96.796 803.767 97.06 803.767 97.372C803.767 97.684 803.659 97.954 803.443 98.182C803.227 98.398 802.963 98.506 802.651 98.506ZM807.204 109H805.458V100.378H806.844L807.204 101.134C807.492 100.858 807.84 100.63 808.248 100.45C808.656 100.27 809.1 100.18 809.58 100.18C809.892 100.18 810.246 100.228 810.642 100.324C811.038 100.42 811.404 100.6 811.74 100.864C812.088 101.128 812.376 101.494 812.604 101.962C812.844 102.43 812.964 103.036 812.964 103.78V109H811.308V103.762C811.308 103.39 811.248 103.078 811.128 102.826C811.02 102.562 810.87 102.352 810.678 102.196C810.498 102.04 810.288 101.932 810.048 101.872C809.82 101.8 809.58 101.764 809.328 101.764C809.136 101.764 808.914 101.8 808.662 101.872C808.422 101.944 808.194 102.064 807.978 102.232C807.762 102.388 807.576 102.592 807.42 102.844C807.276 103.084 807.204 103.384 807.204 103.744V109Z" fill="black"/>
</g>
<path opacity="0.3" d="M732.08 136.46C731.88 136.233 731.647 136.033 731.38 135.86C731.113 135.673 730.813 135.513 730.48 135.38C730.147 135.247 729.787 135.14 729.4 135.06C729.027 134.98 728.627 134.94 728.2 134.94C726.96 134.94 726.047 135.18 725.46 135.66C724.887 136.127 724.6 136.767 724.6 137.58C724.6 138.14 724.733 138.58 725 138.9C725.28 139.22 725.713 139.48 726.3 139.68C726.887 139.88 727.633 140.087 728.54 140.3C729.553 140.513 730.427 140.767 731.16 141.06C731.893 141.353 732.46 141.753 732.86 142.26C733.26 142.753 733.46 143.427 733.46 144.28C733.46 144.933 733.333 145.5 733.08 145.98C732.827 146.46 732.473 146.86 732.02 147.18C731.567 147.5 731.027 147.74 730.4 147.9C729.773 148.047 729.087 148.12 728.34 148.12C727.607 148.12 726.9 148.047 726.22 147.9C725.553 147.74 724.92 147.513 724.32 147.22C723.72 146.913 723.16 146.527 722.64 146.06L723.34 144.92C723.593 145.187 723.893 145.44 724.24 145.68C724.6 145.907 724.993 146.113 725.42 146.3C725.86 146.487 726.327 146.633 726.82 146.74C727.327 146.833 727.847 146.88 728.38 146.88C729.513 146.88 730.393 146.673 731.02 146.26C731.66 145.847 731.98 145.233 731.98 144.42C731.98 143.833 731.82 143.367 731.5 143.02C731.18 142.66 730.7 142.367 730.06 142.14C729.42 141.913 728.633 141.693 727.7 141.48C726.713 141.253 725.88 141 725.2 140.72C724.52 140.44 724.007 140.073 723.66 139.62C723.327 139.153 723.16 138.54 723.16 137.78C723.16 136.9 723.373 136.16 723.8 135.56C724.24 134.947 724.84 134.487 725.6 134.18C726.36 133.86 727.233 133.7 728.22 133.7C728.847 133.7 729.427 133.767 729.96 133.9C730.507 134.02 731.007 134.2 731.46 134.44C731.927 134.68 732.36 134.98 732.76 135.34L732.08 136.46ZM740.148 148.2C739.402 148.2 738.708 148.06 738.068 147.78C737.428 147.487 736.875 147.093 736.408 146.6C735.942 146.093 735.575 145.513 735.308 144.86C735.055 144.207 734.928 143.507 734.928 142.76C734.928 141.787 735.148 140.893 735.588 140.08C736.042 139.267 736.662 138.62 737.448 138.14C738.235 137.647 739.128 137.4 740.128 137.4C741.155 137.4 742.048 137.647 742.808 138.14C743.582 138.633 744.188 139.287 744.628 140.1C745.068 140.9 745.288 141.78 745.288 142.74C745.288 142.847 745.288 142.953 745.288 143.06C745.288 143.153 745.282 143.227 745.268 143.28H736.348C736.415 144.027 736.622 144.693 736.968 145.28C737.328 145.853 737.788 146.313 738.348 146.66C738.922 146.993 739.542 147.16 740.208 147.16C740.888 147.16 741.528 146.987 742.128 146.64C742.742 146.293 743.168 145.84 743.408 145.28L744.588 145.6C744.375 146.093 744.048 146.54 743.608 146.94C743.168 147.34 742.648 147.653 742.048 147.88C741.462 148.093 740.828 148.2 740.148 148.2ZM736.308 142.3H744.008C743.955 141.54 743.748 140.873 743.388 140.3C743.042 139.727 742.582 139.28 742.008 138.96C741.448 138.627 740.828 138.46 740.148 138.46C739.468 138.46 738.848 138.627 738.288 138.96C737.728 139.28 737.268 139.733 736.908 140.32C736.562 140.893 736.362 141.553 736.308 142.3ZM747.447 133.4H748.807V145.64C748.807 146.16 748.9 146.5 749.087 146.66C749.273 146.82 749.5 146.9 749.767 146.9C750.007 146.9 750.247 146.873 750.487 146.82C750.727 146.767 750.933 146.713 751.107 146.66L751.347 147.76C751.093 147.867 750.78 147.953 750.407 148.02C750.047 148.087 749.733 148.12 749.467 148.12C748.853 148.12 748.36 147.94 747.987 147.58C747.627 147.22 747.447 146.727 747.447 146.1V133.4ZM757.336 148.2C756.589 148.2 755.896 148.06 755.256 147.78C754.616 147.487 754.063 147.093 753.596 146.6C753.129 146.093 752.763 145.513 752.496 144.86C752.243 144.207 752.116 143.507 752.116 142.76C752.116 141.787 752.336 140.893 752.776 140.08C753.229 139.267 753.849 138.62 754.636 138.14C755.423 137.647 756.316 137.4 757.316 137.4C758.343 137.4 759.236 137.647 759.996 138.14C760.769 138.633 761.376 139.287 761.816 140.1C762.256 140.9 762.476 141.78 762.476 142.74C762.476 142.847 762.476 142.953 762.476 143.06C762.476 143.153 762.469 143.227 762.456 143.28H753.536C753.603 144.027 753.809 144.693 754.156 145.28C754.516 145.853 754.976 146.313 755.536 146.66C756.109 146.993 756.729 147.16 757.396 147.16C758.076 147.16 758.716 146.987 759.316 146.64C759.929 146.293 760.356 145.84 760.596 145.28L761.776 145.6C761.563 146.093 761.236 146.54 760.796 146.94C760.356 147.34 759.836 147.653 759.236 147.88C758.649 148.093 758.016 148.2 757.336 148.2ZM753.496 142.3H761.196C761.143 141.54 760.936 140.873 760.576 140.3C760.229 139.727 759.769 139.28 759.196 138.96C758.636 138.627 758.016 138.46 757.336 138.46C756.656 138.46 756.036 138.627 755.476 138.96C754.916 139.28 754.456 139.733 754.096 140.32C753.749 140.893 753.549 141.553 753.496 142.3ZM769.094 148.2C768.334 148.2 767.634 148.06 766.994 147.78C766.368 147.487 765.814 147.087 765.334 146.58C764.868 146.073 764.501 145.493 764.234 144.84C763.981 144.187 763.854 143.493 763.854 142.76C763.854 141.773 764.074 140.873 764.514 140.06C764.954 139.247 765.568 138.6 766.354 138.12C767.141 137.64 768.048 137.4 769.074 137.4C770.048 137.4 770.908 137.627 771.654 138.08C772.401 138.52 772.954 139.12 773.314 139.88L771.994 140.3C771.701 139.767 771.288 139.353 770.754 139.06C770.234 138.753 769.654 138.6 769.014 138.6C768.321 138.6 767.688 138.78 767.114 139.14C766.541 139.5 766.081 139.993 765.734 140.62C765.401 141.247 765.234 141.96 765.234 142.76C765.234 143.547 765.408 144.26 765.754 144.9C766.101 145.54 766.561 146.053 767.134 146.44C767.708 146.813 768.341 147 769.034 147C769.488 147 769.921 146.92 770.334 146.76C770.761 146.6 771.128 146.387 771.434 146.12C771.754 145.84 771.968 145.54 772.074 145.22L773.414 145.62C773.228 146.113 772.914 146.56 772.474 146.96C772.048 147.347 771.541 147.653 770.954 147.88C770.381 148.093 769.761 148.2 769.094 148.2ZM780.551 147.5C780.444 147.54 780.277 147.613 780.051 147.72C779.824 147.827 779.551 147.92 779.231 148C778.911 148.08 778.564 148.12 778.191 148.12C777.804 148.12 777.437 148.047 777.091 147.9C776.757 147.753 776.491 147.533 776.291 147.24C776.091 146.933 775.991 146.56 775.991 146.12V138.66H774.551V137.58H775.991V134.06H777.351V137.58H779.751V138.66H777.351V145.74C777.377 146.113 777.511 146.393 777.751 146.58C778.004 146.767 778.291 146.86 778.611 146.86C778.984 146.86 779.324 146.8 779.631 146.68C779.937 146.547 780.124 146.453 780.191 146.4L780.551 147.5ZM786.648 142.82C786.648 141.833 786.848 140.933 787.248 140.12C787.661 139.293 788.228 138.633 788.948 138.14C789.668 137.647 790.488 137.4 791.408 137.4C792.274 137.4 793.048 137.633 793.728 138.1C794.421 138.553 794.961 139.107 795.348 139.76V133.4H796.708V146.36C796.708 146.547 796.748 146.687 796.828 146.78C796.908 146.86 797.028 146.907 797.188 146.92V148C796.921 148.04 796.714 148.053 796.568 148.04C796.288 148.027 796.041 147.913 795.828 147.7C795.614 147.487 795.508 147.253 795.508 147V145.98C795.094 146.66 794.534 147.2 793.828 147.6C793.121 148 792.388 148.2 791.628 148.2C790.908 148.2 790.241 148.053 789.628 147.76C789.028 147.467 788.501 147.067 788.048 146.56C787.608 146.053 787.261 145.48 787.008 144.84C786.768 144.187 786.648 143.513 786.648 142.82ZM795.348 144.42V141.2C795.174 140.72 794.894 140.287 794.508 139.9C794.121 139.5 793.681 139.187 793.188 138.96C792.708 138.72 792.228 138.6 791.748 138.6C791.188 138.6 790.681 138.72 790.228 138.96C789.774 139.187 789.381 139.5 789.048 139.9C788.728 140.3 788.481 140.753 788.308 141.26C788.134 141.767 788.048 142.287 788.048 142.82C788.048 143.38 788.141 143.913 788.328 144.42C788.528 144.927 788.808 145.38 789.168 145.78C789.528 146.167 789.941 146.467 790.408 146.68C790.874 146.893 791.381 147 791.928 147C792.274 147 792.634 146.933 793.008 146.8C793.381 146.667 793.734 146.487 794.068 146.26C794.414 146.02 794.701 145.74 794.928 145.42C795.154 145.1 795.294 144.767 795.348 144.42ZM798.949 145C798.949 144.347 799.136 143.787 799.509 143.32C799.882 142.84 800.396 142.473 801.049 142.22C801.716 141.953 802.482 141.82 803.349 141.82C803.856 141.82 804.382 141.86 804.929 141.94C805.476 142.02 805.962 142.14 806.389 142.3V141.42C806.389 140.54 806.129 139.84 805.609 139.32C805.089 138.8 804.369 138.54 803.449 138.54C802.889 138.54 802.336 138.647 801.789 138.86C801.256 139.06 800.696 139.36 800.109 139.76L799.589 138.8C800.269 138.333 800.936 137.987 801.589 137.76C802.242 137.52 802.909 137.4 803.589 137.4C804.869 137.4 805.882 137.767 806.629 138.5C807.376 139.233 807.749 140.247 807.749 141.54V146.36C807.749 146.547 807.789 146.687 807.869 146.78C807.949 146.86 808.076 146.907 808.249 146.92V148C808.102 148.013 807.976 148.027 807.869 148.04C807.762 148.053 807.682 148.053 807.629 148.04C807.296 148.027 807.042 147.92 806.869 147.72C806.696 147.52 806.602 147.307 806.589 147.08L806.569 146.32C806.102 146.92 805.496 147.387 804.749 147.72C804.002 148.04 803.242 148.2 802.469 148.2C801.802 148.2 801.196 148.06 800.649 147.78C800.116 147.487 799.696 147.1 799.389 146.62C799.096 146.127 798.949 145.587 798.949 145ZM805.929 145.8C806.076 145.613 806.189 145.433 806.269 145.26C806.349 145.087 806.389 144.933 806.389 144.8V143.28C805.936 143.107 805.462 142.973 804.969 142.88C804.489 142.787 804.002 142.74 803.509 142.74C802.536 142.74 801.749 142.933 801.149 143.32C800.549 143.707 800.249 144.233 800.249 144.9C800.249 145.287 800.349 145.653 800.549 146C800.749 146.333 801.042 146.613 801.429 146.84C801.816 147.053 802.269 147.16 802.789 147.16C803.442 147.16 804.049 147.033 804.609 146.78C805.182 146.527 805.622 146.2 805.929 145.8ZM815.609 147.5C815.503 147.54 815.336 147.613 815.109 147.72C814.883 147.827 814.609 147.92 814.289 148C813.969 148.08 813.623 148.12 813.249 148.12C812.863 148.12 812.496 148.047 812.149 147.9C811.816 147.753 811.549 147.533 811.349 147.24C811.149 146.933 811.049 146.56 811.049 146.12V138.66H809.609V137.58H811.049V134.06H812.409V137.58H814.809V138.66H812.409V145.74C812.436 146.113 812.569 146.393 812.809 146.58C813.063 146.767 813.349 146.86 813.669 146.86C814.043 146.86 814.383 146.8 814.689 146.68C814.996 146.547 815.183 146.453 815.249 146.4L815.609 147.5ZM821.633 148.2C820.886 148.2 820.193 148.06 819.553 147.78C818.913 147.487 818.359 147.093 817.893 146.6C817.426 146.093 817.059 145.513 816.793 144.86C816.539 144.207 816.413 143.507 816.413 142.76C816.413 141.787 816.633 140.893 817.073 140.08C817.526 139.267 818.146 138.62 818.933 138.14C819.719 137.647 820.613 137.4 821.613 137.4C822.639 137.4 823.533 137.647 824.293 138.14C825.066 138.633 825.673 139.287 826.113 140.1C826.553 140.9 826.773 141.78 826.773 142.74C826.773 142.847 826.773 142.953 826.773 143.06C826.773 143.153 826.766 143.227 826.753 143.28H817.833C817.899 144.027 818.106 144.693 818.453 145.28C818.813 145.853 819.273 146.313 819.833 146.66C820.406 146.993 821.026 147.16 821.693 147.16C822.373 147.16 823.013 146.987 823.613 146.64C824.226 146.293 824.653 145.84 824.893 145.28L826.073 145.6C825.859 146.093 825.533 146.54 825.093 146.94C824.653 147.34 824.133 147.653 823.533 147.88C822.946 148.093 822.313 148.2 821.633 148.2ZM817.793 142.3H825.493C825.439 141.54 825.233 140.873 824.873 140.3C824.526 139.727 824.066 139.28 823.493 138.96C822.933 138.627 822.313 138.46 821.633 138.46C820.953 138.46 820.333 138.627 819.773 138.96C819.213 139.28 818.753 139.733 818.393 140.32C818.046 140.893 817.846 141.553 817.793 142.3Z" fill="#121212"/>
<rect width="15" height="15" transform="translate(828 95)" fill="white"/>
<path d="M834.986 107.231C835.043 107.314 835.12 107.382 835.209 107.429C835.299 107.476 835.399 107.501 835.5 107.501C835.601 107.501 835.7 107.476 835.79 107.429C835.879 107.382 835.956 107.314 836.013 107.231L841.638 99.1056C841.704 99.0119 841.742 98.9021 841.749 98.7883C841.756 98.6744 841.732 98.5607 841.679 98.4596C841.626 98.3585 841.546 98.2739 841.448 98.2149C841.351 98.1559 841.239 98.1248 841.125 98.125H829.875C829.761 98.1255 829.649 98.157 829.552 98.2161C829.455 98.2752 829.375 98.3598 829.322 98.4606C829.27 98.5615 829.245 98.6748 829.252 98.7885C829.259 98.9021 829.296 99.0118 829.361 99.1056L834.986 107.231Z" fill="#FA7436"/>
<g opacity="0.6">
<g opacity="0.3">
<path d="M949 98L954 103M954 103L949 108M954 103L947.5 103" stroke="#121212" stroke-width="2"/>
<path fill-rule="evenodd" clip-rule="evenodd" d="M946 102L942.5 102C941.948 102 941.5 102.448 941.5 103C941.5 103.552 941.948 104 942.5 104L946 104L946 109C946 110.105 945.105 111 944 111L940 111C938.895 111 938 110.105 938 109L938 97C938 95.8954 938.895 95 940 95L944 95C945.105 95 946 95.8954 946 97L946 102Z" fill="#121212"/>
</g>
<path d="M978.02 107.434C978.716 107.434 979.358 107.266 979.946 106.93C980.546 106.594 981.05 106.15 981.458 105.598L982.772 106.858C982.196 107.542 981.494 108.1 980.666 108.532C979.85 108.964 978.968 109.18 978.02 109.18C977.156 109.18 976.34 109.006 975.572 108.658C974.804 108.31 974.138 107.842 973.574 107.254C973.01 106.654 972.56 105.958 972.224 105.166C971.9 104.362 971.738 103.516 971.738 102.628C971.738 101.728 971.9 100.882 972.224 100.09C972.56 99.298 973.01 98.608 973.574 98.02C974.138 97.42 974.804 96.946 975.572 96.598C976.34 96.25 977.156 96.076 978.02 96.076C978.824 96.076 979.58 96.238 980.288 96.562C981.008 96.874 981.65 97.288 982.214 97.804L981.098 99.226C980.702 98.806 980.24 98.464 979.712 98.2C979.184 97.924 978.62 97.786 978.02 97.786C977.408 97.786 976.832 97.918 976.292 98.182C975.764 98.434 975.302 98.782 974.906 99.226C974.51 99.67 974.192 100.186 973.952 100.774C973.724 101.35 973.61 101.968 973.61 102.628C973.61 103.288 973.724 103.912 973.952 104.5C974.192 105.076 974.51 105.586 974.906 106.03C975.302 106.462 975.764 106.804 976.292 107.056C976.832 107.308 977.408 107.434 978.02 107.434ZM986.094 109H984.348V95.86H986.094V101.17C986.418 100.81 986.754 100.558 987.102 100.414C987.462 100.258 987.876 100.18 988.344 100.18C988.944 100.18 989.478 100.3 989.946 100.54C990.426 100.768 990.834 101.086 991.17 101.494C991.506 101.902 991.758 102.382 991.926 102.934C992.106 103.486 992.196 104.074 992.196 104.698V109H990.432V104.698C990.432 104.29 990.372 103.906 990.252 103.546C990.144 103.186 989.988 102.874 989.784 102.61C989.592 102.346 989.364 102.142 989.1 101.998C988.848 101.842 988.572 101.764 988.272 101.764C988.02 101.764 987.768 101.818 987.516 101.926C987.264 102.022 987.03 102.184 986.814 102.412C986.61 102.64 986.436 102.94 986.292 103.312C986.16 103.684 986.094 104.134 986.094 104.662V109ZM998.19 109.216C997.566 109.216 996.978 109.102 996.426 108.874C995.886 108.634 995.412 108.31 995.004 107.902C994.596 107.494 994.272 107.014 994.032 106.462C993.804 105.91 993.69 105.322 993.69 104.698C993.69 104.074 993.798 103.486 994.014 102.934C994.242 102.382 994.542 101.902 994.914 101.494C995.298 101.086 995.742 100.768 996.246 100.54C996.75 100.3 997.29 100.18 997.866 100.18C998.454 100.18 998.994 100.282 999.486 100.486C999.99 100.69 1000.42 101.008 1000.78 101.44C1001.15 101.872 1001.44 102.424 1001.65 103.096C1001.85 103.756 1001.95 104.548 1001.95 105.472H995.544C995.628 105.784 995.76 106.078 995.94 106.354C996.12 106.618 996.33 106.852 996.57 107.056C996.822 107.248 997.098 107.398 997.398 107.506C997.71 107.614 998.034 107.668 998.37 107.668C998.826 107.668 999.246 107.584 999.63 107.416C1000.03 107.248 1000.36 107.026 1000.64 106.75L1001.72 107.83C1001.3 108.25 1000.78 108.586 1000.17 108.838C999.57 109.09 998.91 109.216 998.19 109.216ZM997.866 101.764C997.59 101.764 997.326 101.818 997.074 101.926C996.834 102.034 996.606 102.184 996.39 102.376C996.186 102.568 996.006 102.796 995.85 103.06C995.706 103.324 995.598 103.612 995.526 103.924H1000.08C1000.06 103.636 999.99 103.36 999.882 103.096C999.774 102.832 999.624 102.604 999.432 102.412C999.24 102.208 999.012 102.052 998.748 101.944C998.496 101.824 998.202 101.764 997.866 101.764ZM1007.61 109.216C1007.01 109.216 1006.44 109.102 1005.92 108.874C1005.4 108.634 1004.94 108.31 1004.55 107.902C1004.16 107.494 1003.86 107.014 1003.63 106.462C1003.4 105.91 1003.29 105.322 1003.29 104.698C1003.29 104.074 1003.4 103.486 1003.63 102.934C1003.86 102.382 1004.16 101.902 1004.55 101.494C1004.94 101.086 1005.4 100.768 1005.92 100.54C1006.44 100.3 1007.01 100.18 1007.61 100.18C1008.3 100.18 1008.95 100.336 1009.53 100.648C1010.12 100.96 1010.61 101.386 1011.01 101.926L1009.79 102.88C1009.55 102.532 1009.24 102.262 1008.87 102.07C1008.51 101.866 1008.12 101.764 1007.7 101.764C1007.34 101.764 1007 101.842 1006.67 101.998C1006.35 102.142 1006.07 102.346 1005.83 102.61C1005.59 102.874 1005.39 103.186 1005.25 103.546C1005.12 103.906 1005.05 104.29 1005.05 104.698C1005.05 105.106 1005.12 105.49 1005.25 105.85C1005.39 106.21 1005.59 106.528 1005.83 106.804C1006.07 107.068 1006.35 107.278 1006.67 107.434C1007 107.59 1007.34 107.668 1007.7 107.668C1008.17 107.668 1008.59 107.542 1008.98 107.29C1009.36 107.038 1009.67 106.702 1009.91 106.282L1011.1 107.326C1010.72 107.902 1010.22 108.364 1009.61 108.712C1008.99 109.048 1008.33 109.216 1007.61 109.216ZM1014.63 109H1012.88V95.86H1014.63V103.924L1018.01 100.378H1020.17L1016.86 103.852L1020.42 109H1018.44L1015.72 105.04L1014.63 106.192V109ZM1021.61 103.114H1026.9V104.302H1021.61V103.114ZM1032.5 109.216C1031.9 109.216 1031.33 109.102 1030.8 108.874C1030.29 108.634 1029.83 108.31 1029.44 107.902C1029.05 107.494 1028.75 107.014 1028.52 106.462C1028.29 105.91 1028.18 105.322 1028.18 104.698C1028.18 104.074 1028.29 103.486 1028.52 102.934C1028.75 102.382 1029.05 101.902 1029.44 101.494C1029.83 101.086 1030.29 100.768 1030.8 100.54C1031.33 100.3 1031.9 100.18 1032.5 100.18C1033.08 100.18 1033.64 100.3 1034.17 100.54C1034.7 100.768 1035.15 101.086 1035.54 101.494C1035.93 101.902 1036.25 102.382 1036.47 102.934C1036.7 103.486 1036.82 104.074 1036.82 104.698C1036.82 105.322 1036.7 105.91 1036.47 106.462C1036.25 107.014 1035.93 107.494 1035.54 107.902C1035.15 108.31 1034.7 108.634 1034.17 108.874C1033.64 109.102 1033.08 109.216 1032.5 109.216ZM1032.5 101.746C1032.15 101.746 1031.82 101.824 1031.51 101.98C1031.19 102.136 1030.92 102.346 1030.68 102.61C1030.45 102.874 1030.27 103.186 1030.14 103.546C1030.01 103.906 1029.94 104.29 1029.94 104.698C1029.94 105.106 1030.01 105.49 1030.14 105.85C1030.27 106.21 1030.45 106.528 1030.68 106.804C1030.92 107.068 1031.19 107.278 1031.51 107.434C1031.82 107.59 1032.15 107.668 1032.5 107.668C1032.84 107.668 1033.17 107.59 1033.49 107.434C1033.8 107.278 1034.07 107.068 1034.3 106.804C1034.52 106.528 1034.7 106.21 1034.84 105.85C1034.97 105.49 1035.03 105.106 1035.03 104.698C1035.03 104.29 1034.97 103.906 1034.84 103.546C1034.7 103.186 1034.52 102.874 1034.3 102.61C1034.07 102.346 1033.8 102.136 1033.49 101.98C1033.17 101.824 1032.84 101.746 1032.5 101.746ZM1044.06 108.226C1043.76 108.502 1043.4 108.73 1042.99 108.91C1042.6 109.09 1042.15 109.18 1041.66 109.18C1041.35 109.18 1041 109.132 1040.6 109.036C1040.2 108.952 1039.83 108.778 1039.48 108.514C1039.15 108.25 1038.86 107.89 1038.62 107.434C1038.39 106.966 1038.28 106.36 1038.28 105.616V100.378H1039.93V105.616C1039.93 105.988 1039.99 106.306 1040.1 106.57C1040.22 106.822 1040.37 107.026 1040.55 107.182C1040.74 107.338 1040.95 107.452 1041.19 107.524C1041.43 107.596 1041.68 107.632 1041.93 107.632C1042.12 107.632 1042.34 107.596 1042.58 107.524C1042.83 107.452 1043.07 107.338 1043.28 107.182C1043.5 107.014 1043.68 106.804 1043.82 106.552C1043.98 106.3 1044.06 105.994 1044.06 105.634V100.378H1045.8V109H1044.42L1044.06 108.226ZM1052.54 108.982C1052.05 109.15 1051.56 109.252 1051.08 109.288C1050.6 109.324 1050.17 109.252 1049.78 109.072C1049.4 108.904 1049.09 108.604 1048.85 108.172C1048.61 107.728 1048.49 107.11 1048.49 106.318V101.944H1047.23V100.738L1048.49 100.378V98.074H1050.23V100.378H1052.57V101.944H1050.23V106.588C1050.23 106.876 1050.26 107.104 1050.32 107.272C1050.4 107.44 1050.51 107.566 1050.67 107.65C1050.82 107.734 1051.03 107.776 1051.28 107.776C1051.53 107.776 1051.84 107.752 1052.2 107.704L1052.54 108.982Z" fill="black"/>
</g>
<path opacity="0.3" d="M949.08 136.46C948.88 136.233 948.647 136.033 948.38 135.86C948.113 135.673 947.813 135.513 947.48 135.38C947.147 135.247 946.787 135.14 946.4 135.06C946.027 134.98 945.627 134.94 945.2 134.94C943.96 134.94 943.047 135.18 942.46 135.66C941.887 136.127 941.6 136.767 941.6 137.58C941.6 138.14 941.733 138.58 942 138.9C942.28 139.22 942.713 139.48 943.3 139.68C943.887 139.88 944.633 140.087 945.54 140.3C946.553 140.513 947.427 140.767 948.16 141.06C948.893 141.353 949.46 141.753 949.86 142.26C950.26 142.753 950.46 143.427 950.46 144.28C950.46 144.933 950.333 145.5 950.08 145.98C949.827 146.46 949.473 146.86 949.02 147.18C948.567 147.5 948.027 147.74 947.4 147.9C946.773 148.047 946.087 148.12 945.34 148.12C944.607 148.12 943.9 148.047 943.22 147.9C942.553 147.74 941.92 147.513 941.32 147.22C940.72 146.913 940.16 146.527 939.64 146.06L940.34 144.92C940.593 145.187 940.893 145.44 941.24 145.68C941.6 145.907 941.993 146.113 942.42 146.3C942.86 146.487 943.327 146.633 943.82 146.74C944.327 146.833 944.847 146.88 945.38 146.88C946.513 146.88 947.393 146.673 948.02 146.26C948.66 145.847 948.98 145.233 948.98 144.42C948.98 143.833 948.82 143.367 948.5 143.02C948.18 142.66 947.7 142.367 947.06 142.14C946.42 141.913 945.633 141.693 944.7 141.48C943.713 141.253 942.88 141 942.2 140.72C941.52 140.44 941.007 140.073 940.66 139.62C940.327 139.153 940.16 138.54 940.16 137.78C940.16 136.9 940.373 136.16 940.8 135.56C941.24 134.947 941.84 134.487 942.6 134.18C943.36 133.86 944.233 133.7 945.22 133.7C945.847 133.7 946.427 133.767 946.96 133.9C947.507 134.02 948.007 134.2 948.46 134.44C948.927 134.68 949.36 134.98 949.76 135.34L949.08 136.46ZM957.148 148.2C956.402 148.2 955.708 148.06 955.068 147.78C954.428 147.487 953.875 147.093 953.408 146.6C952.942 146.093 952.575 145.513 952.308 144.86C952.055 144.207 951.928 143.507 951.928 142.76C951.928 141.787 952.148 140.893 952.588 140.08C953.042 139.267 953.662 138.62 954.448 138.14C955.235 137.647 956.128 137.4 957.128 137.4C958.155 137.4 959.048 137.647 959.808 138.14C960.582 138.633 961.188 139.287 961.628 140.1C962.068 140.9 962.288 141.78 962.288 142.74C962.288 142.847 962.288 142.953 962.288 143.06C962.288 143.153 962.282 143.227 962.268 143.28H953.348C953.415 144.027 953.622 144.693 953.968 145.28C954.328 145.853 954.788 146.313 955.348 146.66C955.922 146.993 956.542 147.16 957.208 147.16C957.888 147.16 958.528 146.987 959.128 146.64C959.742 146.293 960.168 145.84 960.408 145.28L961.588 145.6C961.375 146.093 961.048 146.54 960.608 146.94C960.168 147.34 959.648 147.653 959.048 147.88C958.462 148.093 957.828 148.2 957.148 148.2ZM953.308 142.3H961.008C960.955 141.54 960.748 140.873 960.388 140.3C960.042 139.727 959.582 139.28 959.008 138.96C958.448 138.627 957.828 138.46 957.148 138.46C956.468 138.46 955.848 138.627 955.288 138.96C954.728 139.28 954.268 139.733 953.908 140.32C953.562 140.893 953.362 141.553 953.308 142.3ZM964.447 133.4H965.807V145.64C965.807 146.16 965.9 146.5 966.087 146.66C966.273 146.82 966.5 146.9 966.767 146.9C967.007 146.9 967.247 146.873 967.487 146.82C967.727 146.767 967.933 146.713 968.107 146.66L968.347 147.76C968.093 147.867 967.78 147.953 967.407 148.02C967.047 148.087 966.733 148.12 966.467 148.12C965.853 148.12 965.36 147.94 964.987 147.58C964.627 147.22 964.447 146.727 964.447 146.1V133.4ZM974.336 148.2C973.589 148.2 972.896 148.06 972.256 147.78C971.616 147.487 971.063 147.093 970.596 146.6C970.129 146.093 969.763 145.513 969.496 144.86C969.243 144.207 969.116 143.507 969.116 142.76C969.116 141.787 969.336 140.893 969.776 140.08C970.229 139.267 970.849 138.62 971.636 138.14C972.423 137.647 973.316 137.4 974.316 137.4C975.343 137.4 976.236 137.647 976.996 138.14C977.769 138.633 978.376 139.287 978.816 140.1C979.256 140.9 979.476 141.78 979.476 142.74C979.476 142.847 979.476 142.953 979.476 143.06C979.476 143.153 979.469 143.227 979.456 143.28H970.536C970.603 144.027 970.809 144.693 971.156 145.28C971.516 145.853 971.976 146.313 972.536 146.66C973.109 146.993 973.729 147.16 974.396 147.16C975.076 147.16 975.716 146.987 976.316 146.64C976.929 146.293 977.356 145.84 977.596 145.28L978.776 145.6C978.563 146.093 978.236 146.54 977.796 146.94C977.356 147.34 976.836 147.653 976.236 147.88C975.649 148.093 975.016 148.2 974.336 148.2ZM970.496 142.3H978.196C978.143 141.54 977.936 140.873 977.576 140.3C977.229 139.727 976.769 139.28 976.196 138.96C975.636 138.627 975.016 138.46 974.336 138.46C973.656 138.46 973.036 138.627 972.476 138.96C971.916 139.28 971.456 139.733 971.096 140.32C970.749 140.893 970.549 141.553 970.496 142.3ZM986.094 148.2C985.334 148.2 984.634 148.06 983.994 147.78C983.368 147.487 982.814 147.087 982.334 146.58C981.868 146.073 981.501 145.493 981.234 144.84C980.981 144.187 980.854 143.493 980.854 142.76C980.854 141.773 981.074 140.873 981.514 140.06C981.954 139.247 982.568 138.6 983.354 138.12C984.141 137.64 985.048 137.4 986.074 137.4C987.048 137.4 987.908 137.627 988.654 138.08C989.401 138.52 989.954 139.12 990.314 139.88L988.994 140.3C988.701 139.767 988.288 139.353 987.754 139.06C987.234 138.753 986.654 138.6 986.014 138.6C985.321 138.6 984.688 138.78 984.114 139.14C983.541 139.5 983.081 139.993 982.734 140.62C982.401 141.247 982.234 141.96 982.234 142.76C982.234 143.547 982.408 144.26 982.754 144.9C983.101 145.54 983.561 146.053 984.134 146.44C984.708 146.813 985.341 147 986.034 147C986.488 147 986.921 146.92 987.334 146.76C987.761 146.6 988.128 146.387 988.434 146.12C988.754 145.84 988.968 145.54 989.074 145.22L990.414 145.62C990.228 146.113 989.914 146.56 989.474 146.96C989.048 147.347 988.541 147.653 987.954 147.88C987.381 148.093 986.761 148.2 986.094 148.2ZM997.551 147.5C997.444 147.54 997.277 147.613 997.051 147.72C996.824 147.827 996.551 147.92 996.231 148C995.911 148.08 995.564 148.12 995.191 148.12C994.804 148.12 994.437 148.047 994.091 147.9C993.757 147.753 993.491 147.533 993.291 147.24C993.091 146.933 992.991 146.56 992.991 146.12V138.66H991.551V137.58H992.991V134.06H994.351V137.58H996.751V138.66H994.351V145.74C994.377 146.113 994.511 146.393 994.751 146.58C995.004 146.767 995.291 146.86 995.611 146.86C995.984 146.86 996.324 146.8 996.631 146.68C996.937 146.547 997.124 146.453 997.191 146.4L997.551 147.5ZM1003.65 142.82C1003.65 141.833 1003.85 140.933 1004.25 140.12C1004.66 139.293 1005.23 138.633 1005.95 138.14C1006.67 137.647 1007.49 137.4 1008.41 137.4C1009.27 137.4 1010.05 137.633 1010.73 138.1C1011.42 138.553 1011.96 139.107 1012.35 139.76V133.4H1013.71V146.36C1013.71 146.547 1013.75 146.687 1013.83 146.78C1013.91 146.86 1014.03 146.907 1014.19 146.92V148C1013.92 148.04 1013.71 148.053 1013.57 148.04C1013.29 148.027 1013.04 147.913 1012.83 147.7C1012.61 147.487 1012.51 147.253 1012.51 147V145.98C1012.09 146.66 1011.53 147.2 1010.83 147.6C1010.12 148 1009.39 148.2 1008.63 148.2C1007.91 148.2 1007.24 148.053 1006.63 147.76C1006.03 147.467 1005.5 147.067 1005.05 146.56C1004.61 146.053 1004.26 145.48 1004.01 144.84C1003.77 144.187 1003.65 143.513 1003.65 142.82ZM1012.35 144.42V141.2C1012.17 140.72 1011.89 140.287 1011.51 139.9C1011.12 139.5 1010.68 139.187 1010.19 138.96C1009.71 138.72 1009.23 138.6 1008.75 138.6C1008.19 138.6 1007.68 138.72 1007.23 138.96C1006.77 139.187 1006.38 139.5 1006.05 139.9C1005.73 140.3 1005.48 140.753 1005.31 141.26C1005.13 141.767 1005.05 142.287 1005.05 142.82C1005.05 143.38 1005.14 143.913 1005.33 144.42C1005.53 144.927 1005.81 145.38 1006.17 145.78C1006.53 146.167 1006.94 146.467 1007.41 146.68C1007.87 146.893 1008.38 147 1008.93 147C1009.27 147 1009.63 146.933 1010.01 146.8C1010.38 146.667 1010.73 146.487 1011.07 146.26C1011.41 146.02 1011.7 145.74 1011.93 145.42C1012.15 145.1 1012.29 144.767 1012.35 144.42ZM1015.95 145C1015.95 144.347 1016.14 143.787 1016.51 143.32C1016.88 142.84 1017.4 142.473 1018.05 142.22C1018.72 141.953 1019.48 141.82 1020.35 141.82C1020.86 141.82 1021.38 141.86 1021.93 141.94C1022.48 142.02 1022.96 142.14 1023.39 142.3V141.42C1023.39 140.54 1023.13 139.84 1022.61 139.32C1022.09 138.8 1021.37 138.54 1020.45 138.54C1019.89 138.54 1019.34 138.647 1018.79 138.86C1018.26 139.06 1017.7 139.36 1017.11 139.76L1016.59 138.8C1017.27 138.333 1017.94 137.987 1018.59 137.76C1019.24 137.52 1019.91 137.4 1020.59 137.4C1021.87 137.4 1022.88 137.767 1023.63 138.5C1024.38 139.233 1024.75 140.247 1024.75 141.54V146.36C1024.75 146.547 1024.79 146.687 1024.87 146.78C1024.95 146.86 1025.08 146.907 1025.25 146.92V148C1025.1 148.013 1024.98 148.027 1024.87 148.04C1024.76 148.053 1024.68 148.053 1024.63 148.04C1024.3 148.027 1024.04 147.92 1023.87 147.72C1023.7 147.52 1023.6 147.307 1023.59 147.08L1023.57 146.32C1023.1 146.92 1022.5 147.387 1021.75 147.72C1021 148.04 1020.24 148.2 1019.47 148.2C1018.8 148.2 1018.2 148.06 1017.65 147.78C1017.12 147.487 1016.7 147.1 1016.39 146.62C1016.1 146.127 1015.95 145.587 1015.95 145ZM1022.93 145.8C1023.08 145.613 1023.19 145.433 1023.27 145.26C1023.35 145.087 1023.39 144.933 1023.39 144.8V143.28C1022.94 143.107 1022.46 142.973 1021.97 142.88C1021.49 142.787 1021 142.74 1020.51 142.74C1019.54 142.74 1018.75 142.933 1018.15 143.32C1017.55 143.707 1017.25 144.233 1017.25 144.9C1017.25 145.287 1017.35 145.653 1017.55 146C1017.75 146.333 1018.04 146.613 1018.43 146.84C1018.82 147.053 1019.27 147.16 1019.79 147.16C1020.44 147.16 1021.05 147.033 1021.61 146.78C1022.18 146.527 1022.62 146.2 1022.93 145.8ZM1032.61 147.5C1032.5 147.54 1032.34 147.613 1032.11 147.72C1031.88 147.827 1031.61 147.92 1031.29 148C1030.97 148.08 1030.62 148.12 1030.25 148.12C1029.86 148.12 1029.5 148.047 1029.15 147.9C1028.82 147.753 1028.55 147.533 1028.35 147.24C1028.15 146.933 1028.05 146.56 1028.05 146.12V138.66H1026.61V137.58H1028.05V134.06H1029.41V137.58H1031.81V138.66H1029.41V145.74C1029.44 146.113 1029.57 146.393 1029.81 146.58C1030.06 146.767 1030.35 146.86 1030.67 146.86C1031.04 146.86 1031.38 146.8 1031.69 146.68C1032 146.547 1032.18 146.453 1032.25 146.4L1032.61 147.5ZM1038.63 148.2C1037.89 148.2 1037.19 148.06 1036.55 147.78C1035.91 147.487 1035.36 147.093 1034.89 146.6C1034.43 146.093 1034.06 145.513 1033.79 144.86C1033.54 144.207 1033.41 143.507 1033.41 142.76C1033.41 141.787 1033.63 140.893 1034.07 140.08C1034.53 139.267 1035.15 138.62 1035.93 138.14C1036.72 137.647 1037.61 137.4 1038.61 137.4C1039.64 137.4 1040.53 137.647 1041.29 138.14C1042.07 138.633 1042.67 139.287 1043.11 140.1C1043.55 140.9 1043.77 141.78 1043.77 142.74C1043.77 142.847 1043.77 142.953 1043.77 143.06C1043.77 143.153 1043.77 143.227 1043.75 143.28H1034.83C1034.9 144.027 1035.11 144.693 1035.45 145.28C1035.81 145.853 1036.27 146.313 1036.83 146.66C1037.41 146.993 1038.03 147.16 1038.69 147.16C1039.37 147.16 1040.01 146.987 1040.61 146.64C1041.23 146.293 1041.65 145.84 1041.89 145.28L1043.07 145.6C1042.86 146.093 1042.53 146.54 1042.09 146.94C1041.65 147.34 1041.13 147.653 1040.53 147.88C1039.95 148.093 1039.31 148.2 1038.63 148.2ZM1034.79 142.3H1042.49C1042.44 141.54 1042.23 140.873 1041.87 140.3C1041.53 139.727 1041.07 139.28 1040.49 138.96C1039.93 138.627 1039.31 138.46 1038.63 138.46C1037.95 138.46 1037.33 138.627 1036.77 138.96C1036.21 139.28 1035.75 139.733 1035.39 140.32C1035.05 140.893 1034.85 141.553 1034.79 142.3Z" fill="#121212"/>
<rect width="15" height="15" transform="translate(1066 95)" fill="white"/>
<path d="M1072.99 107.231C1073.04 107.314 1073.12 107.382 1073.21 107.429C1073.3 107.476 1073.4 107.501 1073.5 107.501C1073.6 107.501 1073.7 107.476 1073.79 107.429C1073.88 107.382 1073.96 107.314 1074.01 107.231L1079.64 99.1056C1079.7 99.0119 1079.74 98.9021 1079.75 98.7883C1079.76 98.6744 1079.73 98.5607 1079.68 98.4596C1079.63 98.3585 1079.55 98.2739 1079.45 98.2149C1079.35 98.1559 1079.24 98.1248 1079.12 98.125H1067.87C1067.76 98.1255 1067.65 98.157 1067.55 98.2161C1067.45 98.2752 1067.38 98.3598 1067.32 98.4606C1067.27 98.5615 1067.25 98.6748 1067.25 98.7885C1067.26 98.9021 1067.3 99.0118 1067.36 99.1056L1072.99 107.231Z" fill="#FA7436"/>
</svg>
