<svg width="308" height="71" viewBox="0 0 308 71" fill="none" xmlns="http://www.w3.org/2000/svg">
<path d="M0.92 24.5V2.1H8.344C9.89067 2.1 11.336 2.39333 12.68 2.98C14.0347 3.556 15.224 4.36133 16.248 5.396C17.2827 6.42 18.088 7.60933 18.664 8.964C19.2507 10.308 19.544 11.7533 19.544 13.3C19.544 14.8467 19.2507 16.2973 18.664 17.652C18.088 18.996 17.2827 20.1853 16.248 21.22C15.224 22.244 14.0347 23.0493 12.68 23.636C11.336 24.212 9.89067 24.5 8.344 24.5H0.92ZM4.824 20.596H8.344C9.336 20.596 10.2693 20.4093 11.144 20.036C12.0293 19.652 12.808 19.1293 13.48 18.468C14.152 17.796 14.68 17.0227 15.064 16.148C15.448 15.2627 15.64 14.3133 15.64 13.3C15.64 12.2867 15.448 11.3427 15.064 10.468C14.68 9.59333 14.152 8.82 13.48 8.148C12.808 7.476 12.0347 6.95333 11.16 6.58C10.2853 6.196 9.34667 6.004 8.344 6.004H4.824V20.596ZM28.96 24.916C27.488 24.916 26.144 24.5373 24.928 23.78C23.7227 23.0227 22.7573 22.0093 22.032 20.74C21.3173 19.46 20.96 18.0467 20.96 16.5C20.96 15.3267 21.168 14.2333 21.584 13.22C22 12.196 22.5707 11.3 23.296 10.532C24.032 9.75333 24.8853 9.14533 25.856 8.708C26.8267 8.27067 27.8613 8.052 28.96 8.052C30.432 8.052 31.7707 8.43067 32.976 9.188C34.192 9.94533 35.1573 10.964 35.872 12.244C36.5973 13.524 36.96 14.9427 36.96 16.5C36.96 17.6627 36.752 18.7507 36.336 19.764C35.92 20.7773 35.344 21.6733 34.608 22.452C33.8827 23.22 33.0347 23.8227 32.064 24.26C31.104 24.6973 30.0693 24.916 28.96 24.916ZM28.96 21.012C29.7387 21.012 30.4373 20.804 31.056 20.388C31.6747 19.972 32.16 19.4227 32.512 18.74C32.8747 18.0573 33.056 17.3107 33.056 16.5C33.056 15.668 32.8693 14.9107 32.496 14.228C32.1333 13.5347 31.6373 12.9853 31.008 12.58C30.3893 12.164 29.7067 11.956 28.96 11.956C28.192 11.956 27.4987 12.164 26.88 12.58C26.2613 12.996 25.7707 13.5507 25.408 14.244C25.0453 14.9373 24.864 15.6893 24.864 16.5C24.864 17.3427 25.0507 18.1053 25.424 18.788C25.7973 19.4707 26.2933 20.0147 26.912 20.42C27.5413 20.8147 28.224 21.012 28.96 21.012ZM46.9573 24.5H43.0853L37.7413 8.5H41.5653L45.0373 18.852L48.4933 8.5H52.3493L55.8053 18.852L59.2773 8.5H63.1013L57.7573 24.5H53.8853L50.4133 14.1L46.9573 24.5ZM80.1385 14.388V24.5H76.2345V15.412C76.2345 14.7827 76.0798 14.212 75.7705 13.7C75.4612 13.1773 75.0452 12.7667 74.5225 12.468C74.0105 12.1587 73.4398 12.004 72.8105 12.004C72.1812 12.004 71.6052 12.1587 71.0825 12.468C70.5705 12.7667 70.1598 13.1773 69.8505 13.7C69.5518 14.212 69.4025 14.7827 69.4025 15.412V24.5H65.4985L65.4825 8.5H69.3865L69.4025 9.924C69.9465 9.348 70.5972 8.89467 71.3545 8.564C72.1118 8.22267 72.9278 8.052 73.8025 8.052C74.9652 8.052 76.0265 8.34 76.9865 8.916C77.9465 9.48133 78.7092 10.244 79.2745 11.204C79.8505 12.1533 80.1385 13.2147 80.1385 14.388ZM83.42 24.5V0.499998H87.324V24.5H83.42ZM97.96 24.916C96.488 24.916 95.144 24.5373 93.928 23.78C92.7227 23.0227 91.7573 22.0093 91.032 20.74C90.3173 19.46 89.96 18.0467 89.96 16.5C89.96 15.3267 90.168 14.2333 90.584 13.22C91 12.196 91.5707 11.3 92.296 10.532C93.032 9.75333 93.8853 9.14533 94.856 8.708C95.8267 8.27067 96.8613 8.052 97.96 8.052C99.432 8.052 100.771 8.43067 101.976 9.188C103.192 9.94533 104.157 10.964 104.872 12.244C105.597 13.524 105.96 14.9427 105.96 16.5C105.96 17.6627 105.752 18.7507 105.336 19.764C104.92 20.7773 104.344 21.6733 103.608 22.452C102.883 23.22 102.035 23.8227 101.064 24.26C100.104 24.6973 99.0693 24.916 97.96 24.916ZM97.96 21.012C98.7387 21.012 99.4373 20.804 100.056 20.388C100.675 19.972 101.16 19.4227 101.512 18.74C101.875 18.0573 102.056 17.3107 102.056 16.5C102.056 15.668 101.869 14.9107 101.496 14.228C101.133 13.5347 100.637 12.9853 100.008 12.58C99.3893 12.164 98.7067 11.956 97.96 11.956C97.192 11.956 96.4987 12.164 95.88 12.58C95.2613 12.996 94.7707 13.5507 94.408 14.244C94.0453 14.9373 93.864 15.6893 93.864 16.5C93.864 17.3427 94.0507 18.1053 94.424 18.788C94.7973 19.4707 95.2933 20.0147 95.912 20.42C96.5413 20.8147 97.224 21.012 97.96 21.012ZM120.578 8.5H124.482V24.5H120.578L120.402 22.516C119.964 23.2307 119.383 23.812 118.658 24.26C117.943 24.6973 117.095 24.916 116.114 24.916C114.93 24.916 113.82 24.692 112.786 24.244C111.751 23.796 110.839 23.1773 110.05 22.388C109.271 21.5987 108.658 20.6867 108.21 19.652C107.772 18.6173 107.554 17.508 107.554 16.324C107.554 15.1827 107.762 14.1107 108.178 13.108C108.604 12.1053 109.196 11.2253 109.954 10.468C110.711 9.71067 111.586 9.11867 112.578 8.692C113.57 8.26533 114.636 8.052 115.778 8.052C116.834 8.052 117.778 8.28667 118.61 8.756C119.452 9.22533 120.167 9.82267 120.754 10.548L120.578 8.5ZM116.018 21.156C116.85 21.156 117.586 20.948 118.226 20.532C118.866 20.116 119.367 19.556 119.73 18.852C120.092 18.1373 120.274 17.3533 120.274 16.5C120.274 15.636 120.092 14.852 119.73 14.148C119.367 13.4333 118.86 12.868 118.21 12.452C117.57 12.036 116.839 11.828 116.018 11.828C115.196 11.828 114.444 12.0413 113.762 12.468C113.09 12.884 112.551 13.444 112.146 14.148C111.751 14.852 111.554 15.636 111.554 16.5C111.554 17.364 111.756 18.148 112.162 18.852C112.567 19.556 113.106 20.116 113.778 20.532C114.46 20.948 115.207 21.156 116.018 21.156ZM139.454 0.499998H143.358V24.5H139.454V22.5C138.942 23.2147 138.296 23.796 137.518 24.244C136.739 24.692 135.838 24.916 134.814 24.916C133.651 24.916 132.563 24.6973 131.55 24.26C130.536 23.8227 129.64 23.22 128.862 22.452C128.094 21.6733 127.491 20.7773 127.054 19.764C126.616 18.7507 126.398 17.6627 126.398 16.5C126.398 15.3373 126.616 14.2493 127.054 13.236C127.491 12.2227 128.094 11.332 128.862 10.564C129.64 9.78533 130.536 9.17733 131.55 8.74C132.563 8.30267 133.651 8.084 134.814 8.084C135.838 8.084 136.739 8.308 137.518 8.756C138.296 9.19333 138.942 9.77467 139.454 10.5V0.499998ZM134.862 21.156C135.694 21.156 136.43 20.948 137.07 20.532C137.71 20.116 138.211 19.556 138.574 18.852C138.936 18.1373 139.118 17.3533 139.118 16.5C139.118 15.636 138.936 14.852 138.574 14.148C138.211 13.4333 137.704 12.868 137.054 12.452C136.414 12.036 135.683 11.828 134.862 11.828C134.04 11.828 133.288 12.0413 132.606 12.468C131.934 12.884 131.395 13.444 130.99 14.148C130.595 14.852 130.398 15.636 130.398 16.5C130.398 17.364 130.6 18.148 131.006 18.852C131.411 19.556 131.95 20.116 132.622 20.532C133.304 20.948 134.051 21.156 134.862 21.156ZM163.465 12.404H160.361V24.5H156.457V12.404H154.089V8.5H156.457V3.476H160.361V8.5H163.465V12.404ZM181.014 14.388V24.5H177.11V15.412C177.11 14.7827 176.955 14.212 176.646 13.7C176.336 13.1773 175.92 12.7667 175.398 12.468C174.886 12.1587 174.315 12.004 173.686 12.004C173.056 12.004 172.48 12.1587 171.958 12.468C171.446 12.7667 171.035 13.1773 170.726 13.7C170.427 14.212 170.278 14.7827 170.278 15.412V24.5H166.374L166.358 0.499998H170.262L170.278 9.924C170.822 9.348 171.472 8.89467 172.23 8.564C172.987 8.22267 173.803 8.052 174.678 8.052C175.84 8.052 176.902 8.34 177.862 8.916C178.822 9.48133 179.584 10.244 180.15 11.204C180.726 12.1533 181.014 13.2147 181.014 14.388ZM190.929 24.916C189.457 24.916 188.113 24.5373 186.897 23.78C185.691 23.0227 184.726 22.004 184.001 20.724C183.286 19.444 182.929 18.0307 182.929 16.484C182.929 15.3213 183.137 14.2333 183.553 13.22C183.969 12.196 184.539 11.3 185.265 10.532C186.001 9.75333 186.854 9.14533 187.825 8.708C188.795 8.27067 189.83 8.052 190.929 8.052C192.177 8.052 193.318 8.31867 194.353 8.852C195.398 9.37467 196.283 10.0947 197.009 11.012C197.734 11.9293 198.262 12.9747 198.593 14.148C198.923 15.3213 198.998 16.548 198.817 17.828H187.121C187.27 18.4253 187.515 18.964 187.857 19.444C188.198 19.9133 188.63 20.292 189.153 20.58C189.675 20.8573 190.267 21.0013 190.929 21.012C191.611 21.0227 192.23 20.8627 192.785 20.532C193.35 20.1907 193.819 19.732 194.193 19.156L198.177 20.084C197.526 21.5027 196.555 22.6653 195.265 23.572C193.974 24.468 192.529 24.916 190.929 24.916ZM186.993 14.9H194.865C194.747 14.26 194.497 13.684 194.113 13.172C193.739 12.6493 193.275 12.2333 192.721 11.924C192.166 11.6147 191.569 11.46 190.929 11.46C190.289 11.46 189.697 11.6147 189.153 11.924C188.609 12.2227 188.145 12.6333 187.761 13.156C187.387 13.668 187.131 14.2493 186.993 14.9ZM164.658 40.1H169.154L177.298 62.5H173.154L171.714 58.532H162.114L160.674 62.5H156.53L164.658 40.1ZM163.538 54.628H170.274L166.898 45.396L163.538 54.628ZM183.293 70.5H179.389V46.5H183.293V48.532C183.815 47.8067 184.455 47.22 185.213 46.772C185.981 46.3133 186.877 46.084 187.901 46.084C189.074 46.084 190.167 46.3027 191.181 46.74C192.194 47.1773 193.085 47.7853 193.853 48.564C194.631 49.332 195.234 50.2227 195.661 51.236C196.098 52.2493 196.317 53.3373 196.317 54.5C196.317 55.6627 196.098 56.756 195.661 57.78C195.234 58.804 194.631 59.7053 193.853 60.484C193.085 61.252 192.194 61.8547 191.181 62.292C190.167 62.7293 189.074 62.948 187.901 62.948C186.877 62.948 185.981 62.724 185.213 62.276C184.455 61.8173 183.815 61.2253 183.293 60.5V70.5ZM187.853 49.844C187.042 49.844 186.317 50.0573 185.677 50.484C185.037 50.9 184.535 51.46 184.173 52.164C183.81 52.868 183.629 53.6467 183.629 54.5C183.629 55.3533 183.81 56.1373 184.173 56.852C184.535 57.556 185.037 58.1213 185.677 58.548C186.317 58.964 187.042 59.172 187.853 59.172C188.674 59.172 189.426 58.964 190.109 58.548C190.791 58.132 191.335 57.572 191.741 56.868C192.146 56.1533 192.349 55.364 192.349 54.5C192.349 53.6467 192.146 52.868 191.741 52.164C191.335 51.46 190.791 50.9 190.109 50.484C189.437 50.0573 188.685 49.844 187.853 49.844ZM202.73 70.5H198.826V46.5H202.73V48.532C203.253 47.8067 203.893 47.22 204.65 46.772C205.418 46.3133 206.314 46.084 207.338 46.084C208.512 46.084 209.605 46.3027 210.618 46.74C211.632 47.1773 212.522 47.7853 213.29 48.564C214.069 49.332 214.672 50.2227 215.098 51.236C215.536 52.2493 215.754 53.3373 215.754 54.5C215.754 55.6627 215.536 56.756 215.098 57.78C214.672 58.804 214.069 59.7053 213.29 60.484C212.522 61.252 211.632 61.8547 210.618 62.292C209.605 62.7293 208.512 62.948 207.338 62.948C206.314 62.948 205.418 62.724 204.65 62.276C203.893 61.8173 203.253 61.2253 202.73 60.5V70.5ZM207.29 49.844C206.48 49.844 205.754 50.0573 205.114 50.484C204.474 50.9 203.973 51.46 203.61 52.164C203.248 52.868 203.066 53.6467 203.066 54.5C203.066 55.3533 203.248 56.1373 203.61 56.852C203.973 57.556 204.474 58.1213 205.114 58.548C205.754 58.964 206.48 59.172 207.29 59.172C208.112 59.172 208.864 58.964 209.546 58.548C210.229 58.132 210.773 57.572 211.178 56.868C211.584 56.1533 211.786 55.364 211.786 54.5C211.786 53.6467 211.584 52.868 211.178 52.164C210.773 51.46 210.229 50.9 209.546 50.484C208.874 50.0573 208.122 49.844 207.29 49.844ZM234.902 50.404H231.798V62.5H227.894V50.404H225.526V46.5H227.894V41.476H231.798V46.5H234.902V50.404ZM244.46 62.916C242.988 62.916 241.644 62.5373 240.428 61.78C239.223 61.0227 238.257 60.0093 237.532 58.74C236.817 57.46 236.46 56.0467 236.46 54.5C236.46 53.3267 236.668 52.2333 237.084 51.22C237.5 50.196 238.071 49.3 238.796 48.532C239.532 47.7533 240.385 47.1453 241.356 46.708C242.327 46.2707 243.361 46.052 244.46 46.052C245.932 46.052 247.271 46.4307 248.476 47.188C249.692 47.9453 250.657 48.964 251.372 50.244C252.097 51.524 252.46 52.9427 252.46 54.5C252.46 55.6627 252.252 56.7507 251.836 57.764C251.42 58.7773 250.844 59.6733 250.108 60.452C249.383 61.22 248.535 61.8227 247.564 62.26C246.604 62.6973 245.569 62.916 244.46 62.916ZM244.46 59.012C245.239 59.012 245.937 58.804 246.556 58.388C247.175 57.972 247.66 57.4227 248.012 56.74C248.375 56.0573 248.556 55.3107 248.556 54.5C248.556 53.668 248.369 52.9107 247.996 52.228C247.633 51.5347 247.137 50.9853 246.508 50.58C245.889 50.164 245.207 49.956 244.46 49.956C243.692 49.956 242.999 50.164 242.38 50.58C241.761 50.996 241.271 51.5507 240.908 52.244C240.545 52.9373 240.364 53.6893 240.364 54.5C240.364 55.3427 240.551 56.1053 240.924 56.788C241.297 57.4707 241.793 58.0147 242.412 58.42C243.041 58.8147 243.724 59.012 244.46 59.012ZM267.11 38.5H271.014V62.5H267.11V60.5C266.598 61.2147 265.952 61.796 265.174 62.244C264.395 62.692 263.494 62.916 262.47 62.916C261.307 62.916 260.219 62.6973 259.206 62.26C258.192 61.8227 257.296 61.22 256.518 60.452C255.75 59.6733 255.147 58.7773 254.71 57.764C254.272 56.7507 254.054 55.6627 254.054 54.5C254.054 53.3373 254.272 52.2493 254.71 51.236C255.147 50.2227 255.75 49.332 256.518 48.564C257.296 47.7853 258.192 47.1773 259.206 46.74C260.219 46.3027 261.307 46.084 262.47 46.084C263.494 46.084 264.395 46.308 265.174 46.756C265.952 47.1933 266.598 47.7747 267.11 48.5V38.5ZM262.518 59.156C263.35 59.156 264.086 58.948 264.726 58.532C265.366 58.116 265.867 57.556 266.23 56.852C266.592 56.1373 266.774 55.3533 266.774 54.5C266.774 53.636 266.592 52.852 266.23 52.148C265.867 51.4333 265.36 50.868 264.71 50.452C264.07 50.036 263.339 49.828 262.518 49.828C261.696 49.828 260.944 50.0413 260.262 50.468C259.59 50.884 259.051 51.444 258.646 52.148C258.251 52.852 258.054 53.636 258.054 54.5C258.054 55.364 258.256 56.148 258.662 56.852C259.067 57.556 259.606 58.116 260.278 58.532C260.96 58.948 261.707 59.156 262.518 59.156ZM286.672 46.5H290.576V62.5H286.672L286.496 60.516C286.058 61.2307 285.477 61.812 284.752 62.26C284.037 62.6973 283.189 62.916 282.208 62.916C281.024 62.916 279.914 62.692 278.88 62.244C277.845 61.796 276.933 61.1773 276.144 60.388C275.365 59.5987 274.752 58.6867 274.304 57.652C273.866 56.6173 273.648 55.508 273.648 54.324C273.648 53.1827 273.856 52.1107 274.272 51.108C274.698 50.1053 275.29 49.2253 276.048 48.468C276.805 47.7107 277.68 47.1187 278.672 46.692C279.664 46.2653 280.73 46.052 281.872 46.052C282.928 46.052 283.872 46.2867 284.704 46.756C285.546 47.2253 286.261 47.8227 286.848 48.548L286.672 46.5ZM282.112 59.156C282.944 59.156 283.68 58.948 284.32 58.532C284.96 58.116 285.461 57.556 285.824 56.852C286.186 56.1373 286.368 55.3533 286.368 54.5C286.368 53.636 286.186 52.852 285.824 52.148C285.461 51.4333 284.954 50.868 284.304 50.452C283.664 50.036 282.933 49.828 282.112 49.828C281.29 49.828 280.538 50.0413 279.856 50.468C279.184 50.884 278.645 51.444 278.24 52.148C277.845 52.852 277.648 53.636 277.648 54.5C277.648 55.364 277.85 56.148 278.256 56.852C278.661 57.556 279.2 58.116 279.872 58.532C280.554 58.948 281.301 59.156 282.112 59.156ZM303.865 46.5H308.009L299.257 70.5H295.113L298.009 62.5L292.249 46.5H296.521L299.961 57.156L303.865 46.5Z" fill="white"/>
<path d="M0.92 62.5V40.1H9.08C10.264 40.1 11.3307 40.3453 12.28 40.836C13.24 41.316 13.9973 42.0093 14.552 42.916C15.1173 43.812 15.4 44.8733 15.4 46.1C15.4 46.644 15.32 47.1933 15.16 47.748C15 48.3027 14.7547 48.804 14.424 49.252C14.0933 49.6893 13.6667 50.0147 13.144 50.228C13.8373 50.3987 14.4027 50.708 14.84 51.156C15.2773 51.604 15.6187 52.132 15.864 52.74C16.1093 53.3373 16.2747 53.9507 16.36 54.58C16.456 55.1987 16.504 55.7747 16.504 56.308C16.504 57.492 16.2107 58.548 15.624 59.476C15.0373 60.404 14.248 61.14 13.256 61.684C12.2747 62.228 11.1867 62.5 9.992 62.5H0.92ZM4.824 59.156H9.592C10.232 59.156 10.808 59.0013 11.32 58.692C11.832 58.3827 12.2427 57.956 12.552 57.412C12.8613 56.868 13.016 56.2493 13.016 55.556C13.016 54.9587 12.8613 54.3933 12.552 53.86C12.2427 53.3267 11.832 52.8947 11.32 52.564C10.808 52.2333 10.232 52.068 9.592 52.068H4.824V59.156ZM4.824 48.772H8.632C9.42133 48.772 10.0933 48.5267 10.648 48.036C11.2133 47.5453 11.496 46.8947 11.496 46.084C11.496 45.22 11.2133 44.5693 10.648 44.132C10.0933 43.684 9.42133 43.46 8.632 43.46H4.824V48.772ZM25.8975 62.916C24.4255 62.916 23.0815 62.5373 21.8655 61.78C20.6602 61.0227 19.6948 60.0093 18.9695 58.74C18.2548 57.46 17.8975 56.0467 17.8975 54.5C17.8975 53.3267 18.1055 52.2333 18.5215 51.22C18.9375 50.196 19.5082 49.3 20.2335 48.532C20.9695 47.7533 21.8228 47.1453 22.7935 46.708C23.7642 46.2707 24.7988 46.052 25.8975 46.052C27.3695 46.052 28.7082 46.4307 29.9135 47.188C31.1295 47.9453 32.0948 48.964 32.8095 50.244C33.5348 51.524 33.8975 52.9427 33.8975 54.5C33.8975 55.6627 33.6895 56.7507 33.2735 57.764C32.8575 58.7773 32.2815 59.6733 31.5455 60.452C30.8202 61.22 29.9722 61.8227 29.0015 62.26C28.0415 62.6973 27.0068 62.916 25.8975 62.916ZM25.8975 59.012C26.6762 59.012 27.3748 58.804 27.9935 58.388C28.6122 57.972 29.0975 57.4227 29.4495 56.74C29.8122 56.0573 29.9935 55.3107 29.9935 54.5C29.9935 53.668 29.8068 52.9107 29.4335 52.228C29.0708 51.5347 28.5748 50.9853 27.9455 50.58C27.3268 50.164 26.6442 49.956 25.8975 49.956C25.1295 49.956 24.4362 50.164 23.8175 50.58C23.1988 50.996 22.7082 51.5507 22.3455 52.244C21.9828 52.9373 21.8015 53.6893 21.8015 54.5C21.8015 55.3427 21.9882 56.1053 22.3615 56.788C22.7348 57.4707 23.2308 58.0147 23.8495 58.42C24.4788 58.8147 25.1615 59.012 25.8975 59.012ZM36.4048 62.5L36.3888 46.5H40.2928L40.3088 47.924C40.8528 47.348 41.5034 46.8947 42.2608 46.564C43.0181 46.2227 43.8341 46.052 44.7088 46.052C45.2954 46.052 45.8821 46.1373 46.4688 46.308L44.9328 50.244C44.5274 50.084 44.1221 50.004 43.7168 50.004C43.0874 50.004 42.5114 50.1587 41.9888 50.468C41.4768 50.7667 41.0661 51.1773 40.7568 51.7C40.4581 52.212 40.3088 52.7827 40.3088 53.412V62.5H36.4048ZM59.6098 38.5H63.5138V62.5H59.6098V60.5C59.0978 61.2147 58.4524 61.796 57.6738 62.244C56.8951 62.692 55.9938 62.916 54.9698 62.916C53.8071 62.916 52.7191 62.6973 51.7058 62.26C50.6924 61.8227 49.7964 61.22 49.0178 60.452C48.2498 59.6733 47.6471 58.7773 47.2098 57.764C46.7724 56.7507 46.5538 55.6627 46.5538 54.5C46.5538 53.3373 46.7724 52.2493 47.2098 51.236C47.6471 50.2227 48.2498 49.332 49.0178 48.564C49.7964 47.7853 50.6924 47.1773 51.7058 46.74C52.7191 46.3027 53.8071 46.084 54.9698 46.084C55.9938 46.084 56.8951 46.308 57.6738 46.756C58.4524 47.1933 59.0978 47.7747 59.6098 48.5V38.5ZM55.0178 59.156C55.8498 59.156 56.5858 58.948 57.2258 58.532C57.8658 58.116 58.3671 57.556 58.7298 56.852C59.0924 56.1373 59.2738 55.3533 59.2738 54.5C59.2738 53.636 59.0924 52.852 58.7298 52.148C58.3671 51.4333 57.8604 50.868 57.2098 50.452C56.5698 50.036 55.8391 49.828 55.0178 49.828C54.1964 49.828 53.4444 50.0413 52.7618 50.468C52.0898 50.884 51.5511 51.444 51.1458 52.148C50.7511 52.852 50.5538 53.636 50.5538 54.5C50.5538 55.364 50.7564 56.148 51.1618 56.852C51.5671 57.556 52.1058 58.116 52.7778 58.532C53.4604 58.948 54.2071 59.156 55.0178 59.156ZM74.1475 62.916C72.6755 62.916 71.3315 62.5373 70.1155 61.78C68.9102 61.0227 67.9448 60.004 67.2195 58.724C66.5048 57.444 66.1475 56.0307 66.1475 54.484C66.1475 53.3213 66.3555 52.2333 66.7715 51.22C67.1875 50.196 67.7582 49.3 68.4835 48.532C69.2195 47.7533 70.0728 47.1453 71.0435 46.708C72.0142 46.2707 73.0488 46.052 74.1475 46.052C75.3955 46.052 76.5368 46.3187 77.5715 46.852C78.6168 47.3747 79.5022 48.0947 80.2275 49.012C80.9528 49.9293 81.4808 50.9747 81.8115 52.148C82.1422 53.3213 82.2168 54.548 82.0355 55.828H70.3395C70.4888 56.4253 70.7342 56.964 71.0755 57.444C71.4168 57.9133 71.8488 58.292 72.3715 58.58C72.8942 58.8573 73.4862 59.0013 74.1475 59.012C74.8302 59.0227 75.4488 58.8627 76.0035 58.532C76.5688 58.1907 77.0382 57.732 77.4115 57.156L81.3955 58.084C80.7448 59.5027 79.7742 60.6653 78.4835 61.572C77.1928 62.468 75.7475 62.916 74.1475 62.916ZM70.2115 52.9H78.0835C77.9662 52.26 77.7155 51.684 77.3315 51.172C76.9582 50.6493 76.4942 50.2333 75.9395 49.924C75.3848 49.6147 74.7875 49.46 74.1475 49.46C73.5075 49.46 72.9155 49.6147 72.3715 49.924C71.8275 50.2227 71.3635 50.6333 70.9795 51.156C70.6062 51.668 70.3502 52.2493 70.2115 52.9ZM84.6548 62.5L84.6388 46.5H88.5428L88.5588 47.924C89.1028 47.348 89.7534 46.8947 90.5108 46.564C91.2681 46.2227 92.0841 46.052 92.9588 46.052C93.5454 46.052 94.1321 46.1373 94.7188 46.308L93.1828 50.244C92.7774 50.084 92.3721 50.004 91.9668 50.004C91.3374 50.004 90.7614 50.1587 90.2388 50.468C89.7268 50.7667 89.3161 51.1773 89.0068 51.7C88.7081 52.212 88.5588 52.7827 88.5588 53.412V62.5H84.6548ZM96.5138 62.5V38.5H100.418V62.5H96.5138ZM111.054 62.916C109.582 62.916 108.238 62.5373 107.022 61.78C105.816 61.0227 104.851 60.004 104.126 58.724C103.411 57.444 103.054 56.0307 103.054 54.484C103.054 53.3213 103.262 52.2333 103.678 51.22C104.094 50.196 104.664 49.3 105.39 48.532C106.126 47.7533 106.979 47.1453 107.95 46.708C108.92 46.2707 109.955 46.052 111.054 46.052C112.302 46.052 113.443 46.3187 114.478 46.852C115.523 47.3747 116.408 48.0947 117.134 49.012C117.859 49.9293 118.387 50.9747 118.718 52.148C119.048 53.3213 119.123 54.548 118.942 55.828H107.246C107.395 56.4253 107.64 56.964 107.982 57.444C108.323 57.9133 108.755 58.292 109.278 58.58C109.8 58.8573 110.392 59.0013 111.054 59.012C111.736 59.0227 112.355 58.8627 112.91 58.532C113.475 58.1907 113.944 57.732 114.318 57.156L118.302 58.084C117.651 59.5027 116.68 60.6653 115.39 61.572C114.099 62.468 112.654 62.916 111.054 62.916ZM107.118 52.9H114.99C114.872 52.26 114.622 51.684 114.238 51.172C113.864 50.6493 113.4 50.2333 112.846 49.924C112.291 49.6147 111.694 49.46 111.054 49.46C110.414 49.46 109.822 49.6147 109.278 49.924C108.734 50.2227 108.27 50.6333 107.886 51.156C107.512 51.668 107.256 52.2493 107.118 52.9ZM126.39 62.788C125.558 62.7347 124.753 62.5693 123.974 62.292C123.206 62.004 122.523 61.6147 121.926 61.124C121.329 60.6333 120.87 60.0467 120.55 59.364L123.846 57.956C123.974 58.1693 124.182 58.3987 124.47 58.644C124.758 58.8787 125.099 59.076 125.494 59.236C125.899 59.396 126.342 59.476 126.822 59.476C127.227 59.476 127.611 59.4227 127.974 59.316C128.347 59.1987 128.646 59.0227 128.87 58.788C129.105 58.5533 129.222 58.2493 129.222 57.876C129.222 57.4813 129.083 57.1773 128.806 56.964C128.539 56.74 128.198 56.5747 127.782 56.468C127.377 56.3507 126.982 56.244 126.598 56.148C125.585 55.9453 124.641 55.6307 123.766 55.204C122.902 54.7773 122.203 54.228 121.67 53.556C121.147 52.8733 120.886 52.052 120.886 51.092C120.886 50.036 121.163 49.124 121.718 48.356C122.283 47.588 123.014 46.996 123.91 46.58C124.817 46.164 125.793 45.956 126.838 45.956C128.107 45.956 129.27 46.2227 130.326 46.756C131.393 47.2787 132.235 48.02 132.854 48.98L129.766 50.804C129.617 50.548 129.409 50.3133 129.142 50.1C128.875 49.876 128.571 49.6947 128.23 49.556C127.889 49.4067 127.531 49.3213 127.158 49.3C126.678 49.2787 126.241 49.3213 125.846 49.428C125.451 49.5347 125.131 49.716 124.886 49.972C124.651 50.228 124.534 50.5693 124.534 50.996C124.534 51.4013 124.694 51.7053 125.014 51.908C125.334 52.1 125.718 52.2493 126.166 52.356C126.625 52.4627 127.062 52.58 127.478 52.708C128.417 53.0173 129.297 53.396 130.118 53.844C130.95 54.292 131.617 54.8413 132.118 55.492C132.619 56.1427 132.859 56.9213 132.838 57.828C132.838 58.8627 132.529 59.7693 131.91 60.548C131.291 61.316 130.491 61.9027 129.51 62.308C128.539 62.7133 127.499 62.8733 126.39 62.788ZM140.296 62.788C139.464 62.7347 138.659 62.5693 137.88 62.292C137.112 62.004 136.43 61.6147 135.832 61.124C135.235 60.6333 134.776 60.0467 134.456 59.364L137.752 57.956C137.88 58.1693 138.088 58.3987 138.376 58.644C138.664 58.8787 139.006 59.076 139.4 59.236C139.806 59.396 140.248 59.476 140.728 59.476C141.134 59.476 141.518 59.4227 141.88 59.316C142.254 59.1987 142.552 59.0227 142.776 58.788C143.011 58.5533 143.128 58.2493 143.128 57.876C143.128 57.4813 142.99 57.1773 142.712 56.964C142.446 56.74 142.104 56.5747 141.688 56.468C141.283 56.3507 140.888 56.244 140.504 56.148C139.491 55.9453 138.547 55.6307 137.672 55.204C136.808 54.7773 136.11 54.228 135.576 53.556C135.054 52.8733 134.792 52.052 134.792 51.092C134.792 50.036 135.07 49.124 135.624 48.356C136.19 47.588 136.92 46.996 137.816 46.58C138.723 46.164 139.699 45.956 140.744 45.956C142.014 45.956 143.176 46.2227 144.232 46.756C145.299 47.2787 146.142 48.02 146.76 48.98L143.672 50.804C143.523 50.548 143.315 50.3133 143.048 50.1C142.782 49.876 142.478 49.6947 142.136 49.556C141.795 49.4067 141.438 49.3213 141.064 49.3C140.584 49.2787 140.147 49.3213 139.752 49.428C139.358 49.5347 139.038 49.716 138.792 49.972C138.558 50.228 138.44 50.5693 138.44 50.996C138.44 51.4013 138.6 51.7053 138.92 51.908C139.24 52.1 139.624 52.2493 140.072 52.356C140.531 52.4627 140.968 52.58 141.384 52.708C142.323 53.0173 143.203 53.396 144.024 53.844C144.856 54.292 145.523 54.8413 146.024 55.492C146.526 56.1427 146.766 56.9213 146.744 57.828C146.744 58.8627 146.435 59.7693 145.816 60.548C145.198 61.316 144.398 61.9027 143.416 62.308C142.446 62.7133 141.406 62.8733 140.296 62.788Z" fill="#FFB60A"/>
</svg>
