<svg width="405" height="154" viewBox="0 0 405 154" fill="none" xmlns="http://www.w3.org/2000/svg">
<circle opacity="0.1" cx="212.5" cy="3.5" r="3.5" fill="#213D39"/>
<circle opacity="0.1" cx="212.5" cy="24.5" r="3.5" fill="#213D39"/>
<circle opacity="0.1" cx="212.5" cy="45.5" r="3.5" fill="#213D39"/>
<circle opacity="0.1" cx="212.5" cy="66.5" r="3.5" fill="#213D39"/>
<circle opacity="0.1" cx="212.5" cy="87.5" r="3.5" fill="#213D39"/>
<circle opacity="0.1" cx="212.5" cy="108.5" r="3.5" fill="#213D39"/>
<circle opacity="0.1" cx="212.5" cy="129.5" r="3.5" fill="#213D39"/>
<circle opacity="0.1" cx="212.5" cy="150.5" r="3.5" fill="#213D39"/>
<circle opacity="0.1" cx="233.5" cy="3.5" r="3.5" fill="#213D39"/>
<circle opacity="0.1" cx="233.5" cy="24.5" r="3.5" fill="#213D39"/>
<circle opacity="0.1" cx="233.5" cy="45.5" r="3.5" fill="#213D39"/>
<circle opacity="0.1" cx="233.5" cy="66.5" r="3.5" fill="#213D39"/>
<circle opacity="0.1" cx="233.5" cy="87.5" r="3.5" fill="#213D39"/>
<circle opacity="0.1" cx="233.5" cy="108.5" r="3.5" fill="#213D39"/>
<circle opacity="0.1" cx="233.5" cy="129.5" r="3.5" fill="#213D39"/>
<circle opacity="0.1" cx="233.5" cy="150.5" r="3.5" fill="#213D39"/>
<circle opacity="0.1" cx="254.5" cy="3.5" r="3.5" fill="#213D39"/>
<circle opacity="0.1" cx="254.5" cy="24.5" r="3.5" fill="#213D39"/>
<circle opacity="0.1" cx="254.5" cy="45.5" r="3.5" fill="#213D39"/>
<circle opacity="0.1" cx="254.5" cy="66.5" r="3.5" fill="#213D39"/>
<circle opacity="0.1" cx="254.5" cy="87.5" r="3.5" fill="#213D39"/>
<circle opacity="0.1" cx="254.5" cy="108.5" r="3.5" fill="#213D39"/>
<circle opacity="0.1" cx="254.5" cy="129.5" r="3.5" fill="#213D39"/>
<circle opacity="0.1" cx="254.5" cy="150.5" r="3.5" fill="#213D39"/>
<circle opacity="0.1" cx="275.5" cy="3.5" r="3.5" fill="#213D39"/>
<circle opacity="0.1" cx="275.5" cy="24.5" r="3.5" fill="#213D39"/>
<circle opacity="0.1" cx="275.5" cy="45.5" r="3.5" fill="#213D39"/>
<circle opacity="0.1" cx="275.5" cy="66.5" r="3.5" fill="#213D39"/>
<circle opacity="0.1" cx="275.5" cy="87.5" r="3.5" fill="#213D39"/>
<circle opacity="0.1" cx="275.5" cy="108.5" r="3.5" fill="#213D39"/>
<circle opacity="0.1" cx="275.5" cy="129.5" r="3.5" fill="#213D39"/>
<circle opacity="0.1" cx="275.5" cy="150.5" r="3.5" fill="#213D39"/>
<circle opacity="0.1" cx="296.5" cy="3.5" r="3.5" fill="#213D39"/>
<circle opacity="0.1" cx="296.5" cy="24.5" r="3.5" fill="#213D39"/>
<circle opacity="0.1" cx="296.5" cy="45.5" r="3.5" fill="#213D39"/>
<circle opacity="0.1" cx="296.5" cy="66.5" r="3.5" fill="#213D39"/>
<circle opacity="0.1" cx="296.5" cy="87.5" r="3.5" fill="#213D39"/>
<circle opacity="0.1" cx="296.5" cy="108.5" r="3.5" fill="#213D39"/>
<circle opacity="0.1" cx="296.5" cy="129.5" r="3.5" fill="#213D39"/>
<circle opacity="0.1" cx="296.5" cy="150.5" r="3.5" fill="#213D39"/>
<circle opacity="0.1" cx="317.5" cy="3.5" r="3.5" fill="#213D39"/>
<circle opacity="0.1" cx="317.5" cy="24.5" r="3.5" fill="#213D39"/>
<circle opacity="0.1" cx="317.5" cy="45.5" r="3.5" fill="#213D39"/>
<circle opacity="0.1" cx="317.5" cy="66.5" r="3.5" fill="#213D39"/>
<circle opacity="0.1" cx="317.5" cy="87.5" r="3.5" fill="#213D39"/>
<circle opacity="0.1" cx="317.5" cy="108.5" r="3.5" fill="#213D39"/>
<circle opacity="0.1" cx="317.5" cy="129.5" r="3.5" fill="#213D39"/>
<circle opacity="0.1" cx="317.5" cy="150.5" r="3.5" fill="#213D39"/>
<circle opacity="0.1" cx="338.5" cy="3.5" r="3.5" fill="#213D39"/>
<circle opacity="0.1" cx="338.5" cy="24.5" r="3.5" fill="#213D39"/>
<circle opacity="0.1" cx="338.5" cy="45.5" r="3.5" fill="#213D39"/>
<circle opacity="0.1" cx="338.5" cy="66.5" r="3.5" fill="#213D39"/>
<circle opacity="0.1" cx="338.5" cy="87.5" r="3.5" fill="#213D39"/>
<circle opacity="0.1" cx="338.5" cy="108.5" r="3.5" fill="#213D39"/>
<circle opacity="0.1" cx="338.5" cy="129.5" r="3.5" fill="#213D39"/>
<circle opacity="0.1" cx="338.5" cy="150.5" r="3.5" fill="#213D39"/>
<circle opacity="0.1" cx="359.5" cy="3.5" r="3.5" fill="#213D39"/>
<circle opacity="0.1" cx="359.5" cy="24.5" r="3.5" fill="#213D39"/>
<circle opacity="0.1" cx="359.5" cy="45.5" r="3.5" fill="#213D39"/>
<circle opacity="0.1" cx="359.5" cy="66.5" r="3.5" fill="#213D39"/>
<circle opacity="0.1" cx="359.5" cy="87.5" r="3.5" fill="#213D39"/>
<circle opacity="0.1" cx="359.5" cy="108.5" r="3.5" fill="#213D39"/>
<circle opacity="0.1" cx="359.5" cy="129.5" r="3.5" fill="#213D39"/>
<circle opacity="0.1" cx="359.5" cy="150.5" r="3.5" fill="#213D39"/>
<circle opacity="0.1" cx="380.5" cy="3.5" r="3.5" fill="#213D39"/>
<circle opacity="0.1" cx="380.5" cy="24.5" r="3.5" fill="#213D39"/>
<circle opacity="0.1" cx="380.5" cy="45.5" r="3.5" fill="#213D39"/>
<circle opacity="0.1" cx="380.5" cy="66.5" r="3.5" fill="#213D39"/>
<circle opacity="0.1" cx="380.5" cy="87.5" r="3.5" fill="#213D39"/>
<circle opacity="0.1" cx="380.5" cy="108.5" r="3.5" fill="#213D39"/>
<circle opacity="0.1" cx="380.5" cy="129.5" r="3.5" fill="#213D39"/>
<circle opacity="0.1" cx="380.5" cy="150.5" r="3.5" fill="#213D39"/>
<circle opacity="0.1" cx="401.5" cy="3.5" r="3.5" fill="#213D39"/>
<circle opacity="0.1" cx="401.5" cy="24.5" r="3.5" fill="#213D39"/>
<circle opacity="0.1" cx="401.5" cy="45.5" r="3.5" fill="#213D39"/>
<circle opacity="0.1" cx="401.5" cy="66.5" r="3.5" fill="#213D39"/>
<circle opacity="0.1" cx="401.5" cy="87.5" r="3.5" fill="#213D39"/>
<circle opacity="0.1" cx="401.5" cy="108.5" r="3.5" fill="#213D39"/>
<circle opacity="0.1" cx="401.5" cy="129.5" r="3.5" fill="#213D39"/>
<circle opacity="0.1" cx="401.5" cy="150.5" r="3.5" fill="#213D39"/>
<circle opacity="0.1" cx="3.5" cy="3.5" r="3.5" fill="#213D39"/>
<circle opacity="0.1" cx="3.5" cy="24.5" r="3.5" fill="#213D39"/>
<circle opacity="0.1" cx="3.5" cy="45.5" r="3.5" fill="#213D39"/>
<circle opacity="0.1" cx="3.5" cy="66.5" r="3.5" fill="#213D39"/>
<circle opacity="0.1" cx="3.5" cy="87.5" r="3.5" fill="#213D39"/>
<circle opacity="0.1" cx="3.5" cy="108.5" r="3.5" fill="#213D39"/>
<circle opacity="0.1" cx="3.5" cy="129.5" r="3.5" fill="#213D39"/>
<circle opacity="0.1" cx="3.5" cy="150.5" r="3.5" fill="#213D39"/>
<circle opacity="0.1" cx="24.5" cy="3.5" r="3.5" fill="#213D39"/>
<circle opacity="0.1" cx="24.5" cy="24.5" r="3.5" fill="#213D39"/>
<circle opacity="0.1" cx="24.5" cy="45.5" r="3.5" fill="#213D39"/>
<circle opacity="0.1" cx="24.5" cy="66.5" r="3.5" fill="#213D39"/>
<circle opacity="0.1" cx="24.5" cy="87.5" r="3.5" fill="#213D39"/>
<circle opacity="0.1" cx="24.5" cy="108.5" r="3.5" fill="#213D39"/>
<circle opacity="0.1" cx="24.5" cy="129.5" r="3.5" fill="#213D39"/>
<circle opacity="0.1" cx="24.5" cy="150.5" r="3.5" fill="#213D39"/>
<circle opacity="0.1" cx="45.5" cy="3.5" r="3.5" fill="#213D39"/>
<circle opacity="0.1" cx="45.5" cy="24.5" r="3.5" fill="#213D39"/>
<circle opacity="0.1" cx="45.5" cy="45.5" r="3.5" fill="#213D39"/>
<circle opacity="0.1" cx="45.5" cy="66.5" r="3.5" fill="#213D39"/>
<circle opacity="0.1" cx="45.5" cy="87.5" r="3.5" fill="#213D39"/>
<circle opacity="0.1" cx="45.5" cy="108.5" r="3.5" fill="#213D39"/>
<circle opacity="0.1" cx="45.5" cy="129.5" r="3.5" fill="#213D39"/>
<circle opacity="0.1" cx="45.5" cy="150.5" r="3.5" fill="#213D39"/>
<circle opacity="0.1" cx="66.5" cy="3.5" r="3.5" fill="#213D39"/>
<circle opacity="0.1" cx="66.5" cy="24.5" r="3.5" fill="#213D39"/>
<circle opacity="0.1" cx="66.5" cy="45.5" r="3.5" fill="#213D39"/>
<circle opacity="0.1" cx="66.5" cy="66.5" r="3.5" fill="#213D39"/>
<circle opacity="0.1" cx="66.5" cy="87.5" r="3.5" fill="#213D39"/>
<circle opacity="0.1" cx="66.5" cy="108.5" r="3.5" fill="#213D39"/>
<circle opacity="0.1" cx="66.5" cy="129.5" r="3.5" fill="#213D39"/>
<circle opacity="0.1" cx="66.5" cy="150.5" r="3.5" fill="#213D39"/>
<circle opacity="0.1" cx="87.5" cy="3.5" r="3.5" fill="#213D39"/>
<circle opacity="0.1" cx="87.5" cy="24.5" r="3.5" fill="#213D39"/>
<circle opacity="0.1" cx="87.5" cy="45.5" r="3.5" fill="#213D39"/>
<circle opacity="0.1" cx="87.5" cy="66.5" r="3.5" fill="#213D39"/>
<circle opacity="0.1" cx="87.5" cy="87.5" r="3.5" fill="#213D39"/>
<circle opacity="0.1" cx="87.5" cy="108.5" r="3.5" fill="#213D39"/>
<circle opacity="0.1" cx="87.5" cy="129.5" r="3.5" fill="#213D39"/>
<circle opacity="0.1" cx="87.5" cy="150.5" r="3.5" fill="#213D39"/>
<circle opacity="0.1" cx="108.5" cy="3.5" r="3.5" fill="#213D39"/>
<circle opacity="0.1" cx="108.5" cy="24.5" r="3.5" fill="#213D39"/>
<circle opacity="0.1" cx="108.5" cy="45.5" r="3.5" fill="#213D39"/>
<circle opacity="0.1" cx="108.5" cy="66.5" r="3.5" fill="#213D39"/>
<circle opacity="0.1" cx="108.5" cy="87.5" r="3.5" fill="#213D39"/>
<circle opacity="0.1" cx="108.5" cy="108.5" r="3.5" fill="#213D39"/>
<circle opacity="0.1" cx="108.5" cy="129.5" r="3.5" fill="#213D39"/>
<circle opacity="0.1" cx="108.5" cy="150.5" r="3.5" fill="#213D39"/>
<circle opacity="0.1" cx="129.5" cy="3.5" r="3.5" fill="#213D39"/>
<circle opacity="0.1" cx="129.5" cy="24.5" r="3.5" fill="#213D39"/>
<circle opacity="0.1" cx="129.5" cy="45.5" r="3.5" fill="#213D39"/>
<circle opacity="0.1" cx="129.5" cy="66.5" r="3.5" fill="#213D39"/>
<circle opacity="0.1" cx="129.5" cy="87.5" r="3.5" fill="#213D39"/>
<circle opacity="0.1" cx="129.5" cy="108.5" r="3.5" fill="#213D39"/>
<circle opacity="0.1" cx="129.5" cy="129.5" r="3.5" fill="#213D39"/>
<circle opacity="0.1" cx="129.5" cy="150.5" r="3.5" fill="#213D39"/>
<circle opacity="0.1" cx="150.5" cy="3.5" r="3.5" fill="#213D39"/>
<circle opacity="0.1" cx="150.5" cy="24.5" r="3.5" fill="#213D39"/>
<circle opacity="0.1" cx="150.5" cy="45.5" r="3.5" fill="#213D39"/>
<circle opacity="0.1" cx="150.5" cy="66.5" r="3.5" fill="#213D39"/>
<circle opacity="0.1" cx="150.5" cy="87.5" r="3.5" fill="#213D39"/>
<circle opacity="0.1" cx="150.5" cy="108.5" r="3.5" fill="#213D39"/>
<circle opacity="0.1" cx="150.5" cy="129.5" r="3.5" fill="#213D39"/>
<circle opacity="0.1" cx="150.5" cy="150.5" r="3.5" fill="#213D39"/>
<circle opacity="0.1" cx="171.5" cy="3.5" r="3.5" fill="#213D39"/>
<circle opacity="0.1" cx="171.5" cy="24.5" r="3.5" fill="#213D39"/>
<circle opacity="0.1" cx="171.5" cy="45.5" r="3.5" fill="#213D39"/>
<circle opacity="0.1" cx="171.5" cy="66.5" r="3.5" fill="#213D39"/>
<circle opacity="0.1" cx="171.5" cy="87.5" r="3.5" fill="#213D39"/>
<circle opacity="0.1" cx="171.5" cy="108.5" r="3.5" fill="#213D39"/>
<circle opacity="0.1" cx="171.5" cy="129.5" r="3.5" fill="#213D39"/>
<circle opacity="0.1" cx="171.5" cy="150.5" r="3.5" fill="#213D39"/>
<circle opacity="0.1" cx="192.5" cy="3.5" r="3.5" fill="#213D39"/>
<circle opacity="0.1" cx="192.5" cy="24.5" r="3.5" fill="#213D39"/>
<circle opacity="0.1" cx="192.5" cy="45.5" r="3.5" fill="#213D39"/>
<circle opacity="0.1" cx="192.5" cy="66.5" r="3.5" fill="#213D39"/>
<circle opacity="0.1" cx="192.5" cy="87.5" r="3.5" fill="#213D39"/>
<circle opacity="0.1" cx="192.5" cy="108.5" r="3.5" fill="#213D39"/>
<circle opacity="0.1" cx="192.5" cy="129.5" r="3.5" fill="#213D39"/>
<circle opacity="0.1" cx="192.5" cy="150.5" r="3.5" fill="#213D39"/>
</svg>
