<svg width="803" height="454" viewBox="0 0 803 454" fill="none" xmlns="http://www.w3.org/2000/svg">
<path fill-rule="evenodd" clip-rule="evenodd" d="M518.547 292.213C514.991 293.746 515.85 293.733 510.443 289.622C505.749 285.89 508.498 286.259 502.673 287.267C497.391 288.268 489.39 288.24 485.362 289.04C485.545 292.29 492.611 305.364 493.742 310.069C492.624 310.197 491.728 310.308 490.526 310.404C488.643 310.581 489.023 310.722 487.574 308.869C484.356 304.92 474.016 292.271 471.827 290.142C467.788 290.392 456.801 291.789 453.696 290.407C452.233 289.75 449.935 288.459 451.133 286.702C454.111 282.428 463.327 282.909 469.57 282.49C472.085 282.327 471.489 282.216 472.854 279.977C474.393 277.592 485.004 260.023 486.199 259.367C486.678 259.211 490.048 259.045 490.728 258.965C490.364 260.81 489.826 262.8 489.235 264.672L486.18 275.727C485.532 277.466 485.062 279.593 484.725 281.337C487.63 280.997 490.456 280.839 493.457 280.535C508.315 279.048 504.516 282.359 510.012 276.499C513.141 273.272 514.005 270.957 517.443 272.897C513.894 280.375 514.157 285.957 518.547 292.213ZM439.818 177.705C442.799 180.031 442.003 179.845 448.349 177.15C453.907 174.829 451.169 174.463 456.508 177.013C461.234 179.21 468.983 181.334 472.68 183.16C471.66 186.183 461.125 196.972 458.685 201.224C459.719 201.61 460.554 201.921 461.683 202.343C463.468 203.009 463.015 203.063 465.009 201.715C469.236 198.674 482.648 189.071 485.403 187.685C489.283 189.021 499.42 193.027 502.768 192.63C504.365 192.347 507 191.573 506.362 189.576C504.635 184.76 495.647 182.829 489.767 180.858C487.423 179.983 488.03 180.098 487.237 177.611C486.434 174.897 481.174 155.242 480.233 154.346C479.805 154.075 476.58 152.983 476.02 152.774C475.751 154.655 475.761 156.627 475.767 158.61L475.645 170.09C475.723 171.878 475.624 174.143 475.523 175.864C472.846 174.753 470.085 173.834 467.276 172.786C453.413 167.612 456.214 171.839 452.455 164.729C450.414 160.786 450.233 158.403 446.344 159.379C447.607 167.439 445.811 172.798 439.818 177.705ZM441.989 167.311C443.466 167.639 443.114 170.033 441.399 169.728L439.041 169.182C437.527 168.951 437.821 166.424 439.525 166.725L441.989 167.311ZM185.444 247.321C184.118 248.584 182.493 246.653 183.651 245.55L184.677 244.509C185.966 243.344 187.595 245.264 186.339 246.343L185.444 247.321ZM191.845 241.031C190.556 242.197 188.891 240.374 190.184 239.198L192.009 237.465C193.203 236.264 194.832 238.185 193.675 239.288L191.845 241.031ZM199.226 234.117C198.068 235.22 196.275 233.449 197.564 232.283L199.474 230.582C200.632 229.479 202.33 231.214 201.099 232.513L199.226 234.117ZM206.818 227.504C205.434 228.634 203.973 226.554 205.193 225.573L207.198 223.907C208.582 222.777 209.948 224.822 208.732 225.792L206.818 227.504ZM214.564 221.06C213.216 222.092 211.719 220.11 213.066 219.077L215.035 217.509C216.288 216.441 217.88 218.46 216.533 219.492L214.564 221.06ZM222.548 214.816C221.332 215.786 219.703 213.866 221.051 212.833L223.114 211.301C224.33 210.331 225.959 212.251 224.48 213.346L222.548 214.816ZM230.617 208.926C229.211 209.825 227.976 207.718 229.287 206.783L231.314 205.348C232.72 204.449 234.05 206.592 232.644 207.491L230.617 208.926ZM238.923 203.236C237.517 204.135 236.283 202.027 237.678 201.125L239.801 199.725C241.207 198.826 242.405 201.031 241.035 201.833L238.923 203.236ZM247.058 198.039C246.035 198.202 245.299 197.048 245.74 196.123C245.86 195.512 246.613 194.913 247.314 195.064L248.425 194.377C249.795 193.575 251.124 195.718 249.633 196.586L249.334 196.808L249.667 197.044C250.951 198.179 249.184 200.045 247.995 198.945L247.058 198.039ZM256.147 192.863C254.583 193.605 253.612 191.373 255.07 190.592L257.218 189.413C258.804 188.581 259.754 190.904 258.332 191.587L256.147 192.863ZM265.047 188.162C263.582 188.928 262.417 186.636 263.97 185.891L266.213 184.747C267.678 183.982 268.749 186.238 267.29 187.019L265.047 188.162ZM274.028 183.826C272.416 184.437 271.602 182.041 273.082 181.492L275.289 180.446C276.937 179.736 277.751 182.133 276.329 182.815L274.028 183.826ZM283.22 179.791C281.693 180.434 280.758 178.105 282.275 177.457L284.672 176.482C286.188 175.835 287.097 178.267 285.486 178.878L283.22 179.791ZM292.45 176.204C291.055 176.785 290.12 174.455 291.727 173.854L294.088 172.977C295.795 172.4 296.345 174.921 294.807 175.337L292.45 176.204ZM301.988 172.954C300.318 173.432 299.73 171.009 301.269 170.593L303.593 169.814C305.263 169.335 305.85 171.758 304.312 172.174L301.988 172.954ZM311.478 170.12C310.035 170.571 309.221 168.175 310.887 167.707C311.72 167.474 312.557 167.229 313.354 167.093C314.797 166.641 315.611 169.037 313.945 169.505C313.123 169.743 312.322 169.89 311.478 170.12ZM321.144 167.685C319.51 168.066 319.172 165.525 320.684 165.211L323.115 164.694C324.748 164.313 325.182 166.89 323.575 167.168L321.144 167.685ZM330.844 165.709C329.342 166.028 328.786 163.518 330.515 163.172L333.004 162.789C334.506 162.471 335.061 164.98 333.333 165.326L330.844 165.709ZM340.723 164.122C338.936 164.334 338.823 161.766 340.384 161.581L342.873 161.198C344.529 161.048 344.736 163.651 343.175 163.836L340.723 164.122ZM350.551 162.961C348.99 163.147 348.651 160.606 350.344 160.358C351.203 160.345 351.999 160.209 352.859 160.195C354.419 160.01 354.663 162.515 353.007 162.665C352.211 162.801 351.352 162.815 350.551 162.961ZM360.453 162.15C358.739 162.167 358.817 159.67 360.341 159.583L362.856 159.42C364.57 159.403 364.46 161.987 362.873 161.952L360.453 162.15ZM370.319 161.759C368.7 161.811 368.683 159.279 370.302 159.227L372.875 159.197C374.4 159.11 374.512 161.677 372.798 161.694L370.319 161.759ZM380.251 161.739C378.668 161.693 378.651 159.161 380.329 159.243C381.188 159.229 382.043 159.226 382.866 159.31C384.39 159.223 384.407 161.755 382.693 161.772C381.838 161.774 381.11 161.726 380.251 161.739ZM390.136 162.135C388.4 161.92 388.795 159.443 390.345 159.576L392.846 159.742C394.487 159.921 394.187 162.434 392.542 162.265L390.136 162.135ZM400.011 162.849C398.365 162.681 398.669 160.157 400.315 160.325L402.779 160.589C404.325 160.733 404.12 163.281 402.475 163.112L400.011 162.849ZM409.824 163.985C408.277 163.842 408.387 161.258 410.164 161.364L412.687 161.761C414.391 162.062 413.775 164.581 412.288 164.249L409.824 163.985ZM419.574 165.322C417.965 165.055 418.459 162.603 420.068 162.869L422.459 163.328C424.163 163.63 423.669 166.082 422.06 165.816L419.574 165.322ZM429.362 167.105C427.753 166.839 428.153 164.351 429.856 164.652L432.247 165.111C433.856 165.378 433.421 167.963 431.717 167.662L429.362 167.105ZM82.5795 144.01C79.0135 145.539 79.8832 145.529 74.5085 141.332C69.7781 137.698 72.5637 137.97 66.7017 139.075C61.4568 139.978 53.4188 140.048 49.3912 140.848C49.5632 144.094 56.6401 157.171 57.771 161.877C56.6529 162.005 55.7937 162.018 54.591 162.114C52.6722 162.388 53.0523 162.53 51.6067 160.666C48.389 156.717 38.0956 143.974 35.8598 141.939C31.8206 142.189 20.8337 143.586 17.7284 142.204C16.2655 141.547 14.0049 140.158 15.2019 138.401C18.1803 134.127 27.3961 134.608 33.6393 134.189C36.1542 134.026 35.5216 134.013 36.8865 131.774C38.4519 129.288 49.0368 111.82 50.2319 111.164C50.6264 110.977 54.1175 110.745 54.7607 110.762C54.3969 112.607 53.9057 114.503 53.3048 116.371L50.2134 127.524C49.601 129.165 49.0953 131.39 48.794 133.036C51.667 132.783 54.5255 132.538 57.4895 132.332C72.3476 130.844 68.4543 134.121 74.0445 128.296C77.1736 125.069 77.9424 122.719 81.4759 124.693C77.9273 132.172 78.1857 137.765 82.5795 144.01ZM83.4265 133.456C81.8437 133.41 81.5761 135.836 83.3124 136.051L85.7544 136.083C87.2097 136.18 87.6048 133.703 85.8685 133.489L83.4265 133.456ZM308.109 276.398C308.926 277.916 310.957 276.47 310.195 275.096L309.543 273.974C308.631 272.42 306.6 273.866 307.358 275.251L308.109 276.398ZM303.626 268.683C304.479 270.104 306.569 268.791 305.811 267.406L304.518 265.166C303.664 263.745 301.538 265.156 302.395 266.565L303.626 268.683ZM298.477 260.175C299.235 261.56 301.42 260.283 300.599 258.776L299.269 256.633C298.379 255.311 296.195 256.588 297.143 258.043L298.477 260.175ZM293.068 251.781C294.017 253.237 296.032 251.575 295.095 250.346L293.634 248.266C292.686 246.81 290.666 248.483 291.607 249.701L293.068 251.781ZM287.36 243.609C288.345 244.967 290.324 243.403 289.424 242.077L287.926 240.094C286.942 238.736 284.91 240.182 285.895 241.54L287.36 243.609ZM281.495 235.602C282.421 236.826 284.449 235.391 283.369 233.998L281.871 232.015C280.945 230.791 278.918 232.225 279.902 233.583L281.495 235.602ZM275.239 227.77C276.451 229.101 278.181 227.333 277.244 226.104L275.615 224.184C274.499 222.888 272.673 224.621 273.705 225.885L275.239 227.77ZM268.874 220.232C270.027 221.43 271.757 219.661 270.699 218.499L269.074 216.568C267.921 215.37 266.096 217.103 267.249 218.301L268.874 220.232ZM262.114 212.881C263.267 214.079 265.092 212.346 263.965 211.046L262.267 209.311C261.209 208.148 259.325 209.748 260.442 211.043L262.114 212.881ZM255.259 205.816C256.543 206.952 258.12 205.015 256.931 203.915L255.138 202.143C253.949 201.043 252.277 202.945 253.466 204.045L255.259 205.816ZM240.608 192.437C242.024 193.51 243.352 191.369 242.185 190.5L240.224 188.889C238.808 187.816 237.479 189.957 238.647 190.826L240.608 192.437ZM232.88 186.26C234.106 187.262 235.625 185.192 234.399 184.19L232.401 182.677C231.048 181.726 229.529 183.796 230.883 184.747L232.88 186.26ZM224.912 180.439C226.079 181.308 227.747 179.417 226.335 178.333L224.301 176.918C222.754 175.907 221.583 178.206 222.878 179.024L224.912 180.439ZM216.753 174.869C218.143 175.722 219.377 173.545 218.082 172.727L215.916 171.375C214.526 170.522 213.198 172.663 214.577 173.512L216.753 174.869ZM208.311 169.737C209.606 170.555 211.029 168.449 209.581 167.463C208.868 167.085 208.096 166.574 207.379 166.208C206.084 165.39 204.66 167.496 206.109 168.482C206.826 168.849 207.634 169.262 208.311 169.737ZM199.675 164.868C201.196 165.658 202.286 163.317 200.823 162.659L198.684 161.527C197.163 160.736 196.072 163.077 197.535 163.735L199.675 164.868ZM190.849 160.472C192.312 161.13 193.461 158.921 191.94 158.131L189.668 157.06C188.337 156.341 187.067 158.615 188.673 159.437L190.849 160.472ZM181.925 156.374C183.483 157.067 184.288 154.619 182.884 154.095L180.576 153.122C179.018 152.429 178.118 154.842 179.617 155.401L181.925 156.374ZM172.717 152.715C174.216 153.274 175.211 150.897 173.617 150.302C172.867 150.022 172.022 149.707 171.273 149.427C169.868 148.903 168.778 151.245 170.372 151.84C171.228 152.159 171.967 152.435 172.717 152.715ZM163.373 149.451C165.135 149.885 165.714 147.464 164.178 147.003L161.892 146.261C160.262 145.764 159.551 148.247 161.087 148.709L163.373 149.451ZM154.019 146.504C155.554 146.966 156.265 144.483 154.729 144.021L152.312 143.342C150.776 142.88 150.066 145.363 151.601 145.825L154.019 146.504ZM144.508 143.945C145.949 144.372 146.754 141.924 145.087 141.524C144.3 141.342 143.419 141.125 142.633 140.943C141.192 140.517 140.387 142.965 142.054 143.364C142.84 143.546 143.627 143.728 144.508 143.945ZM134.866 141.771C136.57 142.072 136.87 139.56 135.36 139.318L132.896 138.733C131.25 138.564 130.851 141.053 132.365 141.283L134.866 141.771ZM125.067 139.983C126.676 140.25 127.203 137.71 125.598 137.433L123.075 137.036C121.561 136.806 121.067 139.258 122.676 139.524L125.067 139.983ZM115.385 138.463C116.863 138.791 117.389 136.251 115.69 135.939L113.226 135.676C111.485 135.472 111.375 138.055 112.921 138.199L115.385 138.463ZM105.536 137.424C107.214 137.505 107.423 134.946 105.745 134.865L103.281 134.601C101.64 134.422 101.431 136.981 103.072 137.16L105.536 137.424ZM95.6028 136.577C97.2441 136.756 97.5848 134.135 95.812 134.018L93.4065 133.888C91.8602 133.744 91.461 136.232 93.1973 136.447L95.6028 136.577ZM519.383 281.655C517.8 281.609 517.533 284.035 519.269 284.25L521.711 284.282C523.166 284.38 523.656 281.938 521.789 281.786L519.383 281.655ZM744.029 424.695C744.882 426.115 747.009 424.705 746.119 423.382L745.503 422.162C744.592 420.609 742.524 422.152 743.319 423.439L744.029 424.695ZM739.546 416.98C740.41 418.404 742.526 416.99 741.763 415.616L740.423 413.47C739.57 412.049 737.469 413.358 738.333 414.782L739.546 416.98ZM734.433 408.374C735.191 409.759 737.376 408.482 736.523 407.062L735.193 404.919C734.34 403.499 732.155 404.776 733.071 406.318L734.433 408.374ZM728.988 400.078C729.973 401.436 731.952 399.872 731.052 398.545L729.686 396.5C728.606 395.107 726.623 396.682 727.622 398.033L728.988 400.078ZM723.328 391.812C724.312 393.17 726.281 391.602 725.391 390.28L723.894 388.297C722.909 386.939 720.925 388.514 721.83 389.83L723.328 391.812ZM717.452 383.801C718.352 385.127 720.383 383.681 719.431 382.237L717.838 380.218C717.007 379.029 714.885 380.428 715.928 381.92L717.452 383.801ZM711.291 376.005C712.407 377.3 714.138 375.532 713.175 374.405L711.582 372.387C710.429 371.189 708.604 372.922 709.672 374.088L711.291 376.005ZM704.841 368.435C705.994 369.633 707.783 367.998 706.656 366.698L704.994 364.865C703.878 363.569 702.111 365.435 703.169 366.598L704.841 368.435ZM698.081 361.084C699.234 362.282 701.059 360.549 699.907 359.351L698.245 357.518C697.187 356.355 695.277 358.057 696.419 359.25L698.081 361.084ZM691.216 354.015C692.5 355.151 694.077 353.214 692.888 352.114L691.19 350.378C689.905 349.243 688.197 351.242 689.422 352.244L691.216 354.015ZM683.93 347.235C685.119 348.335 686.876 346.465 685.638 345.236L683.772 343.661C682.583 342.561 680.911 344.462 682.1 345.562L683.93 347.235ZM676.538 340.738C677.954 341.811 679.315 339.583 678.152 338.703L676.191 337.092C674.775 336.019 673.446 338.16 674.577 339.127L676.538 340.738ZM668.847 334.463C670.168 335.501 671.588 333.406 670.329 332.491L668.332 330.978C667.011 329.94 665.492 332.01 666.85 332.95L668.847 334.463ZM660.879 328.642C662.046 329.511 663.718 327.609 662.302 326.536L660.268 325.121C658.721 324.11 657.539 326.405 658.845 327.227L660.879 328.642ZM652.677 323.155C654.067 324.008 655.337 321.733 654.042 320.916L651.877 319.563C650.487 318.71 649.243 320.883 650.643 321.739L652.677 323.155ZM644.278 317.94C645.573 318.758 647.007 316.656 645.511 315.764C644.835 315.288 644.122 314.911 643.346 314.411C642.109 313.726 640.591 315.797 642.076 316.685C642.888 317.087 643.565 317.563 644.278 317.94ZM635.631 313.067C637.153 313.857 638.206 311.614 636.78 310.858L634.64 309.726C633.119 308.935 632.029 311.277 633.492 311.934L635.631 313.067ZM626.816 308.675C628.243 309.43 629.418 307.12 627.907 306.334L625.636 305.263C624.268 304.641 623.024 306.814 624.64 307.64L626.816 308.675ZM617.845 304.671C619.439 305.266 620.245 302.818 618.84 302.294L616.533 301.321C614.938 300.726 614.074 303.041 615.537 303.698L617.845 304.671ZM608.684 300.918C610.183 301.477 611.142 299.198 609.584 298.505C608.834 298.226 607.99 297.91 607.24 297.631C605.835 297.106 604.745 299.448 606.34 300.043C607.184 300.358 607.934 300.638 608.684 300.918ZM599.34 297.654C601.066 298.186 601.681 295.667 600.145 295.206L597.86 294.464C596.229 293.967 595.518 296.45 597.054 296.912L599.34 297.654ZM589.975 294.703C591.511 295.165 592.316 292.717 590.649 292.318L588.232 291.639C586.696 291.177 586.022 293.562 587.558 294.024L589.975 294.703ZM580.438 292.246C581.916 292.575 582.721 290.127 581.054 289.727C580.267 289.545 579.386 289.328 578.6 289.146C577.159 288.72 576.354 291.168 578.021 291.567C578.808 291.749 579.594 291.931 580.438 292.246ZM570.822 289.97C572.526 290.271 572.816 287.755 571.316 287.517L568.83 287.023C567.222 286.757 566.822 289.245 568.336 289.475L570.822 289.97ZM561.024 288.182C562.632 288.449 563.123 286.007 561.518 285.73L559.042 285.239C557.528 285.009 557.002 287.548 558.607 287.825L561.024 288.182ZM551.316 286.763C552.83 286.994 553.357 284.455 551.62 284.24L549.193 283.879C547.42 283.762 547.338 286.269 548.888 286.402L551.316 286.763ZM541.492 285.623C543.17 285.704 543.343 283.243 541.797 283.099L539.238 282.801C537.56 282.719 537.387 285.18 539.028 285.359L541.492 285.623ZM531.658 284.8C533.205 284.944 533.509 282.421 531.868 282.241L529.367 282.076C527.821 281.932 527.385 284.518 529.158 284.635L531.658 284.8Z" fill="#CCCCCC"/>
</svg>
