<svg width="733" height="316" viewBox="0 0 733 316" fill="none" xmlns="http://www.w3.org/2000/svg">
<path fill-rule="evenodd" clip-rule="evenodd" d="M504.546 182.213C500.991 183.746 501.85 183.733 496.443 179.622C491.749 175.89 494.498 176.259 488.672 177.267C483.391 178.268 475.389 178.24 471.362 179.04C471.544 182.29 478.611 195.364 479.742 200.069C478.624 200.197 477.728 200.308 476.525 200.404C474.643 200.581 475.023 200.722 473.573 198.869C470.356 194.92 460.015 182.271 457.826 180.142C453.787 180.392 442.8 181.789 439.695 180.407C438.232 179.75 435.935 178.459 437.132 176.702C440.11 172.428 449.326 172.909 455.569 172.49C458.084 172.327 457.488 172.216 458.853 169.977C460.393 167.592 471.003 150.023 472.198 149.367C472.678 149.211 476.048 149.045 476.727 148.965C476.364 150.81 475.825 152.8 475.235 154.672L472.18 165.727C471.531 167.466 471.062 169.593 470.724 171.337C473.63 170.997 476.456 170.839 479.456 170.535C494.314 169.048 490.516 172.359 496.011 166.499C499.14 163.272 500.004 160.957 503.443 162.897C499.894 170.375 500.156 175.957 504.546 182.213ZM425.817 67.7048C428.799 70.0307 428.002 69.8448 434.349 67.1498C439.907 64.8289 437.168 64.4631 442.508 67.013C447.234 69.2099 454.982 71.3339 458.679 73.1595C457.659 76.1834 447.125 86.9723 444.684 91.224C445.719 91.6101 446.553 91.9214 447.683 92.3431C449.467 93.009 449.014 93.0628 451.009 91.7149C455.235 88.6743 468.647 79.0708 471.402 77.6847C475.282 79.0213 485.42 83.0274 488.768 82.6303C490.365 82.3473 493 81.5727 492.361 79.5764C490.634 74.7597 481.647 72.8294 475.766 70.8577C473.422 69.9829 474.029 70.0978 473.237 67.6109C472.433 64.8968 467.173 45.2423 466.233 44.3465C465.804 44.0753 462.579 42.983 462.019 42.7742C461.751 44.6547 461.761 46.6269 461.766 48.6099L461.644 60.0904C461.723 61.8778 461.623 64.1434 461.523 65.8638C458.845 64.7533 456.085 63.8344 453.276 62.7862C439.412 57.6123 442.213 61.8394 438.455 54.7295C436.414 50.786 436.233 48.4032 432.344 49.3786C433.606 57.4389 431.811 62.798 425.817 67.7048ZM427.988 57.3107C429.466 57.6392 429.113 60.0333 427.399 59.7278L425.04 59.1819C423.527 58.9512 423.82 56.4237 425.524 56.7253L427.988 57.3107ZM171.444 137.321C170.118 138.584 168.493 136.653 169.65 135.55L170.676 134.509C171.966 133.344 173.595 135.264 172.338 136.343L171.444 137.321ZM177.845 131.031C176.556 132.197 174.89 130.374 176.183 129.198L178.009 127.465C179.203 126.264 180.832 128.185 179.674 129.288L177.845 131.031ZM185.225 124.117C184.068 125.22 182.275 123.449 183.564 122.283L185.474 120.582C186.631 119.479 188.329 121.214 187.099 122.513L185.225 124.117ZM192.818 117.504C191.433 118.634 189.972 116.554 191.193 115.573L193.198 113.907C194.582 112.777 195.948 114.822 194.732 115.792L192.818 117.504ZM200.564 111.06C199.216 112.092 197.718 110.11 199.066 109.077L201.035 107.509C202.287 106.441 203.88 108.46 202.532 109.492L200.564 111.06ZM208.548 104.816C207.332 105.786 205.702 103.866 207.05 102.833L209.114 101.301C210.33 100.331 211.959 102.251 210.48 103.346L208.548 104.816ZM216.616 98.9258C215.21 99.8248 213.976 97.7175 215.287 96.7831L217.314 95.3482C218.72 94.4493 220.05 96.592 218.643 97.491L216.616 98.9258ZM224.923 93.2358C223.517 94.1348 222.282 92.0275 223.678 91.1245L225.8 89.7252C227.206 88.8262 228.404 91.0313 227.035 91.8325L224.923 93.2358ZM233.058 88.0387C232.035 88.2016 231.298 87.0478 231.74 86.1231C231.86 85.5116 232.612 84.9135 233.314 85.0639L234.424 84.3766C235.794 83.5754 237.124 85.7182 235.633 86.5856L235.333 86.8081L235.667 87.0438C236.951 88.1793 235.184 90.0454 233.994 88.9454L233.058 88.0387ZM242.147 82.8634C240.583 83.6046 239.611 81.3726 241.07 80.5921L243.218 79.4129C244.804 78.5809 245.753 80.9038 244.331 81.5865L242.147 82.8634ZM251.047 78.1624C249.582 78.9281 248.416 76.6361 249.97 75.891L252.213 74.7473C253.678 73.9816 254.748 76.2382 253.29 77.0187L251.047 78.1624ZM260.027 73.8257C258.415 74.4375 257.601 72.0414 259.082 71.492L261.288 70.4461C262.937 69.7365 263.751 72.1326 262.329 72.8153L260.027 73.8257ZM269.22 69.791C267.693 70.4343 266.758 68.1045 268.274 67.4572L270.671 66.4823C272.188 65.835 273.097 68.2666 271.485 68.8784L269.22 69.791ZM278.45 66.2036C277.054 66.7846 276.119 64.4548 277.727 63.8539L280.087 62.9767C281.794 62.4004 282.345 64.9211 280.806 65.3373L278.45 66.2036ZM287.987 62.9537C286.317 63.4322 285.73 61.0093 287.268 60.5931L289.592 59.8137C291.262 59.3352 291.85 61.7581 290.311 62.1743L287.987 62.9537ZM297.478 60.1196C296.034 60.5712 295.22 58.1751 296.886 57.7075C297.719 57.4737 298.556 57.229 299.353 57.0929C300.797 56.6413 301.611 59.0373 299.945 59.505C299.122 59.7428 298.321 59.8897 297.478 60.1196ZM307.144 57.6852C305.51 58.066 305.171 55.5253 306.684 55.2108L309.114 54.6941C310.748 54.3134 311.182 56.8895 309.574 57.1685L307.144 57.6852ZM316.843 55.7091C315.341 56.0275 314.786 53.5176 316.515 53.1724L319.004 52.7889C320.506 52.4705 321.061 54.9804 319.332 55.3256L316.843 55.7091ZM326.722 54.1219C324.935 54.3339 324.823 51.7664 326.383 51.5813L328.872 51.1978C330.528 51.0481 330.736 53.6511 329.175 53.8363L326.722 54.1219ZM336.551 52.9614C334.99 53.1466 334.651 50.6059 336.343 50.3584C337.202 50.3448 337.999 50.2088 338.858 50.1951C340.419 50.01 340.663 52.5152 339.007 52.6649C338.21 52.8009 337.351 52.8145 336.551 52.9614ZM346.453 52.1504C344.739 52.1668 344.816 49.6702 346.34 49.5829L348.855 49.4196C350.57 49.4032 350.46 51.9868 348.873 51.9517L346.453 52.1504ZM356.319 51.7592C354.699 51.811 354.682 49.279 356.301 49.2271L358.875 49.1971C360.399 49.1098 360.512 51.6773 358.797 51.6937L356.319 51.7592ZM366.251 51.7392C364.668 51.6933 364.65 49.1612 366.328 49.2426C367.187 49.229 368.043 49.2262 368.865 49.3104C370.389 49.2231 370.407 51.7552 368.693 51.7715C367.837 51.7743 367.11 51.7256 366.251 51.7392ZM376.136 52.1351C374.399 51.9204 374.794 49.4432 376.345 49.5761L378.845 49.7417C380.486 49.9209 380.186 52.4335 378.541 52.2652L376.136 52.1351ZM386.01 52.8489C384.365 52.6805 384.669 50.1571 386.314 50.3254L388.778 50.5888C390.325 50.7325 390.119 53.2806 388.474 53.1123L386.01 52.8489ZM395.823 53.9855C394.277 53.8417 394.387 51.2582 396.164 51.3642L398.686 51.7608C400.39 52.0624 399.775 54.5813 398.287 54.2489L395.823 53.9855ZM405.574 55.3216C403.965 55.0554 404.459 52.6028 406.068 52.869L408.459 53.328C410.163 53.6296 409.669 56.0822 408.06 55.816L405.574 55.3216ZM415.362 57.105C413.753 56.8389 414.152 54.3508 415.856 54.6524L418.247 55.1114C419.856 55.3776 419.42 57.9634 417.716 57.6618L415.362 57.105ZM68.579 34.0101C65.013 35.5392 65.8828 35.5295 60.508 31.3323C55.7776 27.6975 58.5632 27.9695 52.7012 29.075C47.4563 29.9775 39.4183 30.0481 35.3907 30.8478C35.5627 34.0937 42.6396 47.1714 43.7706 51.8771C42.6524 52.0045 41.7932 52.0181 40.5905 52.114C38.6717 52.3884 39.0518 52.5302 37.6062 50.6661C34.3885 46.7168 24.0951 33.9739 21.8593 31.9386C17.8201 32.1892 6.83318 33.5858 3.72793 32.2041C2.26505 31.5467 0.00436532 30.1583 1.20139 28.4014C4.1798 24.1274 13.3956 24.6078 19.6388 24.1893C22.1537 24.026 21.5211 24.0128 22.886 21.7737C24.4514 19.2876 35.0363 1.81977 36.2314 1.16392C36.626 0.976908 40.117 0.744584 40.7602 0.761773C40.3964 2.60687 39.9052 4.50344 39.3043 6.37147L36.2129 17.5238C35.6005 19.1647 35.0948 21.3902 34.7935 23.0357C37.6665 22.7832 40.525 22.5377 43.489 22.3315C58.3471 20.8445 54.4538 24.1208 60.044 18.296C63.1732 15.0687 63.9419 12.7186 67.4754 14.6935C63.9268 22.1716 64.1852 27.7649 68.579 34.0101ZM69.426 23.4563C67.8433 23.4103 67.5756 25.836 69.3119 26.0507L71.7539 26.083C73.2092 26.1804 73.6044 23.7033 71.868 23.4886L69.426 23.4563ZM294.108 166.398C294.925 167.916 296.957 166.47 296.194 165.096L295.542 163.974C294.63 162.42 292.599 163.866 293.358 165.251L294.108 166.398ZM289.625 158.683C290.479 160.104 292.569 158.791 291.81 157.406L290.517 155.166C289.664 153.745 287.538 155.156 288.395 156.565L289.625 158.683ZM284.476 150.175C285.234 151.56 287.419 150.283 286.598 148.776L285.269 146.633C284.379 145.311 282.194 146.588 283.142 148.043L284.476 150.175ZM279.068 141.781C280.016 143.237 282.032 141.575 281.095 140.346L279.634 138.266C278.685 136.81 276.666 138.483 277.607 139.701L279.068 141.781ZM273.36 133.609C274.345 134.967 276.324 133.403 275.424 132.077L273.926 130.094C272.941 128.736 270.91 130.182 271.895 131.54L273.36 133.609ZM267.495 125.602C268.421 126.826 270.448 125.391 269.368 123.998L267.871 122.015C266.944 120.791 264.917 122.225 265.902 123.583L267.495 125.602ZM261.239 117.77C262.45 119.101 264.181 117.333 263.244 116.104L261.615 114.184C260.498 112.888 258.673 114.621 259.705 115.885L261.239 117.77ZM254.873 110.232C256.026 111.43 257.757 109.661 256.699 108.499L255.074 106.568C253.921 105.37 252.095 107.103 253.248 108.301L254.873 110.232ZM248.113 102.881C249.266 104.079 251.092 102.346 249.965 101.046L248.267 99.3106C247.209 98.1482 245.325 99.7478 246.441 101.043L248.113 102.881ZM241.259 95.8161C242.543 96.9516 244.12 95.0145 242.931 93.9145L241.137 92.1435C239.948 91.0434 238.276 92.945 239.465 94.0451L241.259 95.8161ZM226.607 82.4373C228.023 83.5104 229.352 81.3692 228.184 80.5002L226.223 78.8893C224.807 77.8161 223.479 79.9574 224.646 80.8264L226.607 82.4373ZM218.88 76.2602C220.106 77.2625 221.624 75.1921 220.398 74.1899L218.401 72.6768C217.047 71.7261 215.529 73.7964 216.882 74.7472L218.88 76.2602ZM210.911 70.439C212.079 71.3079 213.747 69.4172 212.335 68.3332L210.301 66.9179C208.753 65.9071 207.582 68.2062 208.877 69.0237L210.911 70.439ZM202.753 64.8687C204.143 65.7217 205.376 63.545 204.081 62.7275L201.916 61.3745C200.526 60.5216 199.197 62.6628 200.577 63.5118L202.753 64.8687ZM194.31 59.7372C195.605 60.5547 197.029 58.4489 195.58 57.4627C194.867 57.0851 194.095 56.5743 193.378 56.2075C192.083 55.39 190.66 57.4958 192.108 58.4821C192.826 58.8488 193.634 59.2618 194.31 59.7372ZM185.674 54.8676C187.195 55.6582 188.286 53.3167 186.823 52.6593L184.683 51.5266C183.162 50.736 182.072 53.0775 183.535 53.7348L185.674 54.8676ZM176.849 50.4721C178.312 51.1295 179.46 48.9213 177.939 48.1306L175.668 47.0602C174.337 46.3405 173.067 48.6151 174.673 49.4372L176.849 50.4721ZM167.924 46.3741C169.482 47.0669 170.288 44.619 168.883 44.0949L166.576 43.1223C165.018 42.4294 164.117 44.8419 165.617 45.4015L167.924 46.3741ZM158.716 42.7147C160.215 43.2743 161.211 40.8973 159.616 40.3023C158.867 40.0225 158.022 39.7072 157.272 39.4275C155.868 38.9034 154.778 41.2449 156.372 41.8399C157.227 42.1591 157.966 42.4349 158.716 42.7147ZM149.372 39.4505C151.135 39.8854 151.713 37.4644 150.178 37.0026L147.892 36.2611C146.261 35.7639 145.551 38.2472 147.087 38.709L149.372 39.4505ZM140.018 36.5043C141.554 36.9661 142.264 34.4827 140.728 34.0209L138.311 33.3417C136.775 32.88 136.065 35.3634 137.601 35.8251L140.018 36.5043ZM130.507 33.9454C131.948 34.3717 132.753 31.9238 131.086 31.5243C130.3 31.3424 129.419 31.1249 128.632 30.9429C127.192 30.5167 126.386 32.9646 128.054 33.364C128.84 33.546 129.626 33.7279 130.507 33.9454ZM120.865 31.7707C122.569 32.0724 122.869 29.5597 121.359 29.3182L118.895 28.7328C117.25 28.5645 116.851 31.0525 118.365 31.2832L120.865 31.7707ZM111.067 29.9834C112.675 30.2495 113.202 27.71 111.597 27.433L109.075 27.0363C107.561 26.8056 107.067 29.2582 108.676 29.5244L111.067 29.9834ZM101.385 28.4625C102.862 28.791 103.389 26.2515 101.689 25.939L99.2251 25.6756C97.4847 25.4718 97.3746 28.0554 98.9209 28.1991L101.385 28.4625ZM91.5354 27.4237C93.2132 27.5052 93.4224 24.9462 91.7445 24.8648L89.2805 24.6014C87.6392 24.4222 87.4301 26.9811 89.0714 27.1603L91.5354 27.4237ZM81.6023 26.5766C83.2436 26.7559 83.5843 24.1346 81.8115 24.0177L79.406 23.8876C77.8597 23.7438 77.4605 26.2318 79.1969 26.4465L81.6023 26.5766ZM505.383 171.655C503.8 171.609 503.532 174.035 505.268 174.25L507.71 174.282C509.166 174.38 509.656 171.938 507.788 171.786L505.383 171.655ZM730.029 314.695C730.882 316.115 733.008 314.705 732.118 313.382L731.503 312.162C730.591 310.609 728.523 312.152 729.318 313.439L730.029 314.695ZM725.545 306.98C726.409 308.404 728.525 306.99 727.763 305.616L726.423 303.47C725.569 302.049 723.469 303.358 724.333 304.782L725.545 306.98ZM720.433 298.374C721.191 299.759 723.376 298.482 722.522 297.062L721.193 294.919C720.339 293.499 718.155 294.776 719.071 296.318L720.433 298.374ZM714.988 290.078C715.973 291.436 717.952 289.872 717.052 288.545L715.685 286.5C714.606 285.107 712.622 286.682 713.622 288.033L714.988 290.078ZM709.327 281.812C710.312 283.17 712.281 281.602 711.391 280.28L709.893 278.297C708.908 276.939 706.925 278.514 707.829 279.83L709.327 281.812ZM703.451 273.801C704.352 275.127 706.383 273.681 705.43 272.237L703.838 270.218C703.006 269.029 700.884 270.428 701.928 271.92L703.451 273.801ZM697.29 266.005C698.407 267.3 700.137 265.532 699.174 264.405L697.582 262.387C696.429 261.189 694.603 262.922 695.672 264.088L697.29 266.005ZM690.84 258.435C691.993 259.633 693.782 257.998 692.655 256.698L690.994 254.865C689.877 253.569 688.11 255.435 689.168 256.598L690.84 258.435ZM684.08 251.084C685.233 252.282 687.059 250.549 685.906 249.351L684.245 247.518C683.187 246.355 681.277 248.057 682.419 249.25L684.08 251.084ZM677.215 244.015C678.499 245.151 680.077 243.214 678.887 242.114L677.189 240.378C675.905 239.243 674.196 241.242 675.422 242.244L677.215 244.015ZM669.929 237.235C671.119 238.335 672.875 236.465 671.638 235.236L669.772 233.661C668.582 232.561 666.91 234.462 668.1 235.562L669.929 237.235ZM662.538 230.738C663.954 231.811 665.315 229.583 664.151 228.703L662.19 227.092C660.774 226.019 659.446 228.16 660.577 229.127L662.538 230.738ZM654.847 224.463C656.168 225.501 657.587 223.406 656.329 222.491L654.331 220.978C653.01 219.94 651.492 222.01 652.849 222.95L654.847 224.463ZM646.878 218.642C648.046 219.511 649.718 217.609 648.302 216.536L646.268 215.121C644.72 214.11 643.539 216.405 644.844 217.227L646.878 218.642ZM638.677 213.155C640.067 214.008 641.337 211.733 640.042 210.916L637.876 209.563C636.486 208.71 635.242 210.883 636.643 211.739L638.677 213.155ZM630.278 207.94C631.572 208.758 633.006 206.656 631.511 205.764C630.834 205.288 630.121 204.911 629.345 204.411C628.109 203.726 626.59 205.797 628.075 206.685C628.888 207.087 629.564 207.563 630.278 207.94ZM621.631 203.067C623.152 203.857 624.206 201.614 622.78 200.858L620.64 199.726C619.119 198.935 618.028 201.277 619.491 201.934L621.631 203.067ZM612.816 198.675C614.242 199.43 615.417 197.12 613.906 196.334L611.635 195.263C610.267 194.641 609.023 196.814 610.64 197.64L612.816 198.675ZM603.844 194.671C605.439 195.266 606.244 192.818 604.84 192.294L602.532 191.321C600.938 190.726 600.074 193.041 601.537 193.698L603.844 194.671ZM594.683 190.918C596.183 191.477 597.141 189.198 595.583 188.505C594.834 188.226 593.989 187.91 593.239 187.631C591.835 187.106 590.745 189.448 592.339 190.043C593.184 190.358 593.933 190.638 594.683 190.918ZM585.339 187.654C587.065 188.186 587.681 185.667 586.145 185.206L583.859 184.464C582.228 183.967 581.518 186.45 583.054 186.912L585.339 187.654ZM575.975 184.703C577.511 185.165 578.316 182.717 576.648 182.318L574.231 181.639C572.695 181.177 572.022 183.562 573.558 184.024L575.975 184.703ZM566.438 182.246C567.915 182.575 568.721 180.127 567.053 179.727C566.267 179.545 565.386 179.328 564.6 179.146C563.159 178.72 562.353 181.168 564.021 181.567C564.807 181.749 565.593 181.931 566.438 182.246ZM556.822 179.97C558.526 180.271 558.815 177.755 557.316 177.517L554.83 177.023C553.221 176.757 552.822 179.245 554.336 179.475L556.822 179.97ZM547.023 178.182C548.632 178.449 549.122 176.007 547.517 175.73L545.042 175.239C543.528 175.009 543.001 177.548 544.606 177.825L547.023 178.182ZM537.315 176.763C538.829 176.994 539.356 174.455 537.62 174.24L535.192 173.879C533.419 173.762 533.338 176.269 534.888 176.402L537.315 176.763ZM527.492 175.623C529.17 175.704 529.342 173.243 527.796 173.099L525.237 172.801C523.559 172.719 523.387 175.18 525.028 175.359L527.492 175.623ZM517.658 174.8C519.204 174.944 519.508 172.421 517.867 172.241L515.367 172.076C513.82 171.932 513.385 174.518 515.157 174.635L517.658 174.8Z" fill="white"/>
</svg>
