<svg width="192" height="176" viewBox="0 0 192 176" fill="none" xmlns="http://www.w3.org/2000/svg">
<path d="M111.003 99.9266C109.446 100.275 107.929 100.92 106.547 101.822C102.946 104.116 100.852 107.391 101.869 109.138C102.887 110.884 106.63 110.44 110.231 108.147C111.632 107.276 112.876 106.164 113.887 104.877C114.357 104.256 114.441 103.481 114.102 102.902L112.78 100.633C112.444 100.052 111.747 99.7748 111.003 99.9266Z" fill="#D5D6DB"/>
<path d="M101.961 68.975C100.831 69.2275 99.7314 69.6957 98.7291 70.3501C96.1188 72.0125 94.5993 74.3876 95.3364 75.653C96.0736 76.9184 98.7893 76.5961 101.399 74.9338C102.415 74.3023 103.317 73.4951 104.05 72.5622C104.39 72.1118 104.451 71.5505 104.206 71.1304L103.248 69.4875C103.005 69.0662 102.5 68.8651 101.961 68.975Z" fill="#D5D6DB"/>
<path d="M87.268 70.2623C87.0166 70.2341 86.7485 70.3009 86.516 70.4493L80.3846 74.3547C79.8718 74.6804 79.6667 75.3081 79.927 75.7569C79.9865 75.8598 80.068 75.9477 80.1669 76.0154L95.2842 86.4457L115.729 73.4232L87.268 70.2623Z" fill="#029BC5"/>
<path d="M151.911 68.8145L96.2661 103.838L63.3427 116.928L46.5513 120.257L44.7031 117.115L137.456 59.8597C140.22 58.1461 143.299 57.0952 146.383 56.8136C147.733 56.6975 149.067 56.7433 150.352 56.9493C151.492 57.123 152.574 57.4573 153.564 57.9423C154.67 58.4918 156.774 58.5564 157.456 59.6502C157.458 59.6484 159.067 64.6692 151.911 68.8145Z" fill="#E1E6E9"/>
<path d="M96.9979 99.1851L72.9324 137.57C72.6319 138.109 72.8106 138.713 73.3311 138.919C73.6505 139.045 74.0415 138.996 74.3698 138.787L80.4969 134.902C81.6754 134.154 82.7187 133.204 83.5626 132.111L130.238 77.2205L96.9979 99.1851Z" fill="#029BC5"/>
<path d="M36.2522 97.9067C35.8506 97.7692 35.3728 97.8401 34.9694 98.0968L29.9052 101.32C29.2152 101.759 28.9404 102.604 29.2913 103.207C29.3581 103.321 29.4449 103.422 29.549 103.505L43.7431 114.883L58.6612 105.57L36.2522 97.9067Z" fill="#029BC5"/>
<path d="M48.4968 116.926L40.8608 127.626C40.7488 127.779 40.7752 127.972 40.9197 128.057C41.0238 128.117 41.166 128.107 41.2816 128.029L46.0148 125.031C46.0515 125.008 46.0848 124.978 46.1124 124.945L57.2705 111.374L48.4968 116.926Z" fill="#029BC5"/>
<path d="M149.441 57.4032C148.118 57.1897 146.744 57.1434 145.353 57.2648C144 59.1579 143.135 61.2849 142.845 63.4338C142.824 63.8654 143.172 64.1764 143.622 64.1283C143.762 64.1132 143.902 64.064 144.027 63.9852L152.749 58.4338C151.729 57.9301 150.615 57.5831 149.441 57.4032Z" fill="#029BC5"/>
<path d="M130.432 67.6157L136.125 64.0224L141.432 73.0488L135.738 76.6421L130.432 67.6157Z" fill="#D5D6DB"/>
<path d="M126.849 71.1858C126.163 71.6201 125.889 72.4557 126.238 73.0519L126.802 74.0178C127.174 74.5988 128.021 74.7016 128.696 74.2471C129.337 73.8143 129.596 73.027 129.286 72.4454L128.721 71.4795C128.373 70.8838 127.535 70.7522 126.849 71.1858Z" fill="#3A556A"/>
<path d="M121.731 74.3664C121.045 74.8008 120.771 75.6363 121.119 76.2325L121.684 77.1984C122.056 77.7795 122.903 77.8822 123.577 77.4277C124.219 76.9949 124.477 76.2077 124.168 75.626L123.603 74.6601C123.255 74.0646 122.417 73.933 121.731 74.3664Z" fill="#3A556A"/>
<path d="M116.609 77.5464C115.924 77.9813 115.651 78.8159 115.999 79.4116L116.564 80.3774C116.935 80.9585 117.783 81.0612 118.457 80.6067C119.099 80.1739 119.357 79.3867 119.048 78.8051L118.483 77.8392C118.135 77.243 117.296 77.112 116.609 77.5464Z" fill="#3A556A"/>
<path d="M111.491 80.7247C110.806 81.1596 110.533 81.9942 110.881 82.5899L111.446 83.5558C111.817 84.1368 112.665 84.2395 113.339 83.7851C113.981 83.3523 114.239 82.565 113.93 81.9834L113.365 81.0175C113.016 80.4214 112.177 80.2904 111.491 80.7247Z" fill="#3A556A"/>
<path d="M106.372 83.9034C105.686 84.3385 105.413 85.1734 105.761 85.7694L106.326 86.7357C106.675 87.3314 107.513 87.4624 108.199 87.0282C108.885 86.5941 109.159 85.7593 108.81 85.1636L108.245 84.1972C107.898 83.601 107.06 83.4691 106.373 83.9025C106.373 83.9029 106.372 83.9031 106.372 83.9034Z" fill="#3A556A"/>
<path d="M101.255 87.0833C100.569 87.5184 100.296 88.3533 100.644 88.9492L101.209 89.9155C101.558 90.5112 102.396 90.6422 103.082 90.2081C103.768 89.774 104.041 88.9391 103.693 88.3434L103.128 87.3771C102.781 86.7808 101.942 86.649 101.256 87.0824C101.256 87.0827 101.255 87.0831 101.255 87.0833Z" fill="#3A556A"/>
<path d="M96.1345 90.2624C95.4488 90.6974 95.1755 91.5323 95.524 92.1283L96.089 93.0946C96.4382 93.6897 97.2771 93.8194 97.9622 93.3847C98.6463 92.9507 98.9193 92.1176 98.5726 91.5226L98.0076 90.5563C97.6594 89.9602 96.821 89.8286 96.1345 90.2624Z" fill="#3A556A"/>
<path d="M91.0154 93.4406C90.3296 93.8757 90.0564 94.7106 90.4049 95.3066L90.9699 96.2729C91.3191 96.8681 92.1579 96.9977 92.8431 96.563C93.5271 96.129 93.8002 95.2959 93.4535 94.7009L92.8885 93.7346C92.5403 93.1385 91.7019 93.0068 91.0154 93.4406Z" fill="#3A556A"/>
<path d="M85.8962 96.6197C85.2105 97.0548 84.9373 97.8897 85.2857 98.4856L85.8508 99.4519C86.2 100.047 87.0388 100.177 87.724 99.742C88.408 99.3081 88.6811 98.475 88.3343 97.88L87.7693 96.9137C87.4208 96.3178 86.5824 96.1861 85.8962 96.6197Z" fill="#3A556A"/>
<path d="M80.7751 99.7995C80.0892 100.234 79.8156 101.069 80.1639 101.664L80.1646 101.665L80.7297 102.632C81.0789 103.227 81.9177 103.357 82.6029 102.922C83.2869 102.488 83.56 101.655 83.2133 101.06L82.6482 100.094C82.3 99.4974 81.4616 99.3657 80.7751 99.7995Z" fill="#3A556A"/>
<path d="M75.658 102.977C74.9721 103.411 74.6984 104.246 75.0467 104.842L75.0475 104.843L75.6125 105.81C75.9617 106.405 76.8005 106.534 77.4857 106.1C78.1698 105.666 78.4428 104.833 78.0961 104.238L77.5311 103.271C77.1826 102.675 76.3442 102.544 75.658 102.977Z" fill="#3A556A"/>
</svg>
