<svg width="322" height="471" viewBox="0 0 322 471" fill="none" xmlns="http://www.w3.org/2000/svg">
<g filter="url(#filter0_d_607_1235)">
<rect x="20" y="16" width="282" height="88" rx="20" fill="white"/>
</g>
<rect x="42" y="22.8965" width="74" height="74" rx="10" fill="white"/>
<rect x="42.5" y="23.3965" width="73" height="73" rx="9.5" stroke="#003DDB" stroke-opacity="0.05"/>
<path d="M136.944 59.256C136.944 58.5413 136.768 57.896 136.416 57.32C136.075 56.7333 135.605 56.2693 135.008 55.928C134.421 55.5867 133.765 55.416 133.04 55.416C132.56 55.416 132.107 55.5013 131.68 55.672C131.264 55.8427 130.901 56.0827 130.592 56.392C130.283 56.7013 130.048 57.064 129.888 57.48C129.888 56.4347 130.016 55.544 130.272 54.808C130.539 54.072 130.907 53.5067 131.376 53.112C131.845 52.7173 132.395 52.52 133.024 52.52C133.621 52.52 134.16 52.6853 134.64 53.016C135.131 53.336 135.488 53.768 135.712 54.312L136.416 53.672C136.107 53.0213 135.653 52.5093 135.056 52.136C134.459 51.752 133.781 51.56 133.024 51.56C132.192 51.56 131.461 51.8107 130.832 52.312C130.203 52.8133 129.712 53.5707 129.36 54.584C129.008 55.5867 128.832 56.8613 128.832 58.408C128.832 59.3893 129.008 60.2373 129.36 60.952C129.712 61.6667 130.192 62.216 130.8 62.6C131.419 62.9733 132.123 63.16 132.912 63.16C133.669 63.16 134.352 62.984 134.96 62.632C135.568 62.28 136.048 61.8107 136.4 61.224C136.763 60.6267 136.944 59.9707 136.944 59.256ZM132.944 62.2C132.4 62.2 131.904 62.0667 131.456 61.8C131.008 61.5333 130.645 61.176 130.368 60.728C130.101 60.28 129.968 59.7893 129.968 59.256C129.968 58.712 130.101 58.2213 130.368 57.784C130.635 57.336 130.992 56.9787 131.44 56.712C131.899 56.4453 132.4 56.312 132.944 56.312C133.477 56.312 133.968 56.4453 134.416 56.712C134.864 56.9787 135.221 57.336 135.488 57.784C135.765 58.232 135.904 58.7227 135.904 59.256C135.904 59.7893 135.765 60.28 135.488 60.728C135.221 61.176 134.864 61.5333 134.416 61.8C133.968 62.0667 133.477 62.2 132.944 62.2ZM150.775 62.008V63H143.143V51.64H150.631V52.632H144.263V56.728H149.815V57.672H144.263V62.008H150.775ZM154.836 63L151.46 54.664H152.596L155.444 61.912L158.308 54.664H159.38L156.004 63H154.836ZM164.158 63.16C163.561 63.16 163.006 63.048 162.494 62.824C161.993 62.5893 161.556 62.2747 161.182 61.88C160.82 61.4747 160.537 61.016 160.334 60.504C160.132 59.9813 160.03 59.432 160.03 58.856C160.03 58.2587 160.132 57.704 160.334 57.192C160.537 56.6693 160.825 56.2107 161.198 55.816C161.572 55.4107 162.009 55.096 162.51 54.872C163.022 54.6373 163.577 54.52 164.174 54.52C164.772 54.52 165.321 54.6373 165.822 54.872C166.324 55.096 166.761 55.4107 167.134 55.816C167.508 56.2107 167.796 56.6693 167.998 57.192C168.201 57.704 168.302 58.2587 168.302 58.856C168.302 59.432 168.201 59.9813 167.998 60.504C167.796 61.016 167.508 61.4747 167.134 61.88C166.772 62.2747 166.334 62.5893 165.822 62.824C165.321 63.048 164.766 63.16 164.158 63.16ZM161.134 58.872C161.134 59.4907 161.268 60.056 161.534 60.568C161.812 61.0693 162.18 61.4693 162.638 61.768C163.097 62.056 163.604 62.2 164.158 62.2C164.713 62.2 165.22 62.0507 165.678 61.752C166.137 61.4533 166.505 61.048 166.782 60.536C167.06 60.0133 167.198 59.448 167.198 58.84C167.198 58.2213 167.06 57.656 166.782 57.144C166.505 56.632 166.137 56.2267 165.678 55.928C165.22 55.6293 164.713 55.48 164.158 55.48C163.604 55.48 163.097 55.6347 162.638 55.944C162.19 56.2533 161.828 56.664 161.55 57.176C161.273 57.6773 161.134 58.2427 161.134 58.872ZM170.17 51.32H171.258V61.112C171.258 61.528 171.333 61.8 171.482 61.928C171.631 62.056 171.813 62.12 172.026 62.12C172.218 62.12 172.41 62.0987 172.602 62.056C172.794 62.0133 172.959 61.9707 173.098 61.928L173.29 62.808C173.087 62.8933 172.837 62.9627 172.538 63.016C172.25 63.0693 171.999 63.096 171.786 63.096C171.295 63.096 170.901 62.952 170.602 62.664C170.314 62.376 170.17 61.9813 170.17 61.48V51.32ZM176.68 63L173.304 54.664H174.44L177.288 61.912L180.152 54.664H181.224L177.848 63H176.68ZM182.731 63V54.664H183.819V63H182.731ZM182.731 52.92V51.32H183.819V52.92H182.731ZM193.224 63H192.136V58.344C192.136 57.3627 191.992 56.648 191.704 56.2C191.416 55.7413 190.962 55.512 190.344 55.512C189.917 55.512 189.496 55.6187 189.08 55.832C188.664 56.0347 188.296 56.3173 187.976 56.68C187.666 57.032 187.442 57.4373 187.304 57.896V63H186.216V54.664H187.208V56.552C187.432 56.1467 187.725 55.7947 188.088 55.496C188.45 55.1867 188.861 54.9467 189.32 54.776C189.778 54.6053 190.253 54.52 190.744 54.52C191.202 54.52 191.592 54.6053 191.912 54.776C192.232 54.9467 192.488 55.192 192.68 55.512C192.872 55.8213 193.01 56.2 193.096 56.648C193.181 57.0853 193.224 57.576 193.224 58.12V63ZM198.888 63.112C198.322 63.112 197.8 62.9947 197.32 62.76C196.84 62.5253 196.424 62.2107 196.072 61.816C195.73 61.4107 195.464 60.952 195.272 60.44C195.08 59.928 194.984 59.4 194.984 58.856C194.984 58.2693 195.074 57.72 195.256 57.208C195.448 56.6853 195.714 56.2213 196.056 55.816C196.408 55.4107 196.818 55.096 197.288 54.872C197.757 54.6373 198.28 54.52 198.856 54.52C199.57 54.52 200.189 54.7013 200.712 55.064C201.245 55.4267 201.693 55.8747 202.056 56.408V54.664H203.032V63.032C203.032 63.8 202.845 64.4453 202.472 64.968C202.109 65.5013 201.613 65.9013 200.984 66.168C200.365 66.4347 199.688 66.568 198.952 66.568C198.002 66.568 197.234 66.3973 196.648 66.056C196.061 65.7147 195.581 65.256 195.208 64.68L195.88 64.152C196.21 64.6747 196.648 65.064 197.192 65.32C197.746 65.576 198.333 65.704 198.952 65.704C199.496 65.704 199.992 65.6027 200.44 65.4C200.898 65.208 201.261 64.9147 201.528 64.52C201.805 64.1253 201.944 63.6293 201.944 63.032V61.384C201.624 61.9067 201.186 62.328 200.632 62.648C200.077 62.9573 199.496 63.112 198.888 63.112ZM199.192 62.2C199.522 62.2 199.837 62.1413 200.136 62.024C200.445 61.9067 200.728 61.752 200.984 61.56C201.24 61.3573 201.453 61.1333 201.624 60.888C201.794 60.6427 201.901 60.392 201.944 60.136V57.56C201.784 57.1547 201.554 56.7973 201.256 56.488C200.957 56.168 200.616 55.9227 200.232 55.752C199.858 55.5707 199.469 55.48 199.064 55.48C198.594 55.48 198.173 55.5813 197.8 55.784C197.437 55.976 197.128 56.2373 196.872 56.568C196.626 56.888 196.434 57.2507 196.296 57.656C196.157 58.0613 196.088 58.4667 196.088 58.872C196.088 59.32 196.168 59.7467 196.328 60.152C196.488 60.5467 196.706 60.904 196.984 61.224C197.272 61.5333 197.602 61.7733 197.976 61.944C198.36 62.1147 198.765 62.2 199.192 62.2ZM214.361 63.08C213.465 63.08 212.707 62.92 212.089 62.6C211.47 62.28 210.979 61.8533 210.617 61.32C210.254 60.776 209.987 60.1627 209.817 59.48C209.657 58.7973 209.577 58.0933 209.577 57.368V51.64H210.681V57.368C210.681 57.9547 210.739 58.5307 210.857 59.096C210.985 59.6613 211.187 60.168 211.465 60.616C211.742 61.064 212.115 61.4213 212.585 61.688C213.054 61.944 213.641 62.072 214.345 62.072C215.07 62.072 215.667 61.9387 216.137 61.672C216.617 61.3947 216.99 61.032 217.257 60.584C217.534 60.136 217.731 59.6347 217.849 59.08C217.966 58.5147 218.025 57.944 218.025 57.368V51.64H219.145V57.368C219.145 58.1253 219.059 58.8507 218.889 59.544C218.718 60.2373 218.441 60.8453 218.057 61.368C217.683 61.8907 217.193 62.3067 216.585 62.616C215.977 62.9253 215.235 63.08 214.361 63.08ZM225.528 62.6C225.443 62.632 225.309 62.6907 225.128 62.776C224.947 62.8613 224.728 62.936 224.472 63C224.216 63.064 223.939 63.096 223.64 63.096C223.331 63.096 223.037 63.0373 222.76 62.92C222.493 62.8027 222.28 62.6267 222.12 62.392C221.96 62.1467 221.88 61.848 221.88 61.496V55.528H220.728V54.664H221.88V51.848H222.968V54.664H224.888V55.528H222.968V61.192C222.989 61.4907 223.096 61.7147 223.288 61.864C223.491 62.0133 223.72 62.088 223.976 62.088C224.275 62.088 224.547 62.04 224.792 61.944C225.037 61.8373 225.187 61.7627 225.24 61.72L225.528 62.6ZM226.888 63V54.664H227.976V63H226.888ZM226.888 52.92V51.32H227.976V52.92H226.888ZM230.42 51.32H231.508V61.112C231.508 61.528 231.583 61.8 231.732 61.928C231.881 62.056 232.063 62.12 232.276 62.12C232.468 62.12 232.66 62.0987 232.852 62.056C233.044 62.0133 233.209 61.9707 233.348 61.928L233.54 62.808C233.337 62.8933 233.087 62.9627 232.788 63.016C232.5 63.0693 232.249 63.096 232.036 63.096C231.545 63.096 231.151 62.952 230.852 62.664C230.564 62.376 230.42 61.9813 230.42 61.48V51.32ZM234.731 63V54.664H235.819V63H234.731ZM234.731 52.92V51.32H235.819V52.92H234.731ZM242.216 62.6C242.13 62.632 241.997 62.6907 241.816 62.776C241.634 62.8613 241.416 62.936 241.16 63C240.904 63.064 240.626 63.096 240.328 63.096C240.018 63.096 239.725 63.0373 239.448 62.92C239.181 62.8027 238.968 62.6267 238.808 62.392C238.648 62.1467 238.568 61.848 238.568 61.496V55.528H237.416V54.664H238.568V51.848H239.656V54.664H241.576V55.528H239.656V61.192C239.677 61.4907 239.784 61.7147 239.976 61.864C240.178 62.0133 240.408 62.088 240.664 62.088C240.962 62.088 241.234 62.04 241.48 61.944C241.725 61.8373 241.874 61.7627 241.928 61.72L242.216 62.6ZM243.575 63V54.664H244.663V63H243.575ZM243.575 52.92V51.32H244.663V52.92H243.575ZM250.659 63.16C250.062 63.16 249.507 63.048 248.995 62.824C248.483 62.5893 248.041 62.2747 247.667 61.88C247.294 61.4747 247.001 61.0107 246.787 60.488C246.585 59.9653 246.483 59.4053 246.483 58.808C246.483 58.0293 246.659 57.3147 247.011 56.664C247.374 56.0133 247.87 55.496 248.499 55.112C249.129 54.7173 249.843 54.52 250.643 54.52C251.465 54.52 252.179 54.7173 252.787 55.112C253.406 55.5067 253.891 56.0293 254.243 56.68C254.595 57.32 254.771 58.024 254.771 58.792C254.771 58.8773 254.771 58.9627 254.771 59.048C254.771 59.1227 254.766 59.1813 254.755 59.224H247.619C247.673 59.8213 247.838 60.3547 248.115 60.824C248.403 61.2827 248.771 61.6507 249.219 61.928C249.678 62.1947 250.174 62.328 250.707 62.328C251.251 62.328 251.763 62.1893 252.243 61.912C252.734 61.6347 253.075 61.272 253.267 60.824L254.211 61.08C254.041 61.4747 253.779 61.832 253.427 62.152C253.075 62.472 252.659 62.7227 252.179 62.904C251.71 63.0747 251.203 63.16 250.659 63.16ZM247.587 58.44H253.747C253.705 57.832 253.539 57.2987 253.251 56.84C252.974 56.3813 252.606 56.024 252.147 55.768C251.699 55.5013 251.203 55.368 250.659 55.368C250.115 55.368 249.619 55.5013 249.171 55.768C248.723 56.024 248.355 56.3867 248.067 56.856C247.79 57.3147 247.63 57.8427 247.587 58.44ZM259.186 63.16C258.503 63.16 257.869 63.048 257.282 62.824C256.695 62.6 256.189 62.2587 255.762 61.8L256.21 61.032C256.679 61.4693 257.149 61.7893 257.618 61.992C258.098 62.184 258.605 62.28 259.138 62.28C259.789 62.28 260.317 62.152 260.722 61.896C261.127 61.6293 261.33 61.2507 261.33 60.76C261.33 60.4293 261.229 60.1787 261.026 60.008C260.834 59.8267 260.551 59.6827 260.178 59.576C259.815 59.4587 259.378 59.336 258.866 59.208C258.29 59.048 257.805 58.8827 257.41 58.712C257.026 58.5307 256.733 58.3067 256.53 58.04C256.338 57.7627 256.242 57.4053 256.242 56.968C256.242 56.424 256.375 55.976 256.642 55.624C256.919 55.2613 257.293 54.9893 257.762 54.808C258.242 54.616 258.775 54.52 259.362 54.52C260.002 54.52 260.567 54.6213 261.058 54.824C261.549 55.0267 261.949 55.3093 262.258 55.672L261.73 56.408C261.431 56.0667 261.074 55.816 260.658 55.656C260.253 55.4853 259.799 55.4 259.298 55.4C258.957 55.4 258.631 55.448 258.322 55.544C258.013 55.6293 257.757 55.7787 257.554 55.992C257.362 56.1947 257.266 56.4773 257.266 56.84C257.266 57.1387 257.341 57.3733 257.49 57.544C257.639 57.704 257.863 57.8427 258.162 57.96C258.461 58.0667 258.829 58.184 259.266 58.312C259.895 58.4827 260.445 58.6587 260.914 58.84C261.383 59.0107 261.746 59.2347 262.002 59.512C262.258 59.7893 262.386 60.1787 262.386 60.68C262.386 61.4587 262.093 62.0667 261.506 62.504C260.919 62.9413 260.146 63.16 259.186 63.16Z" fill="black"/>
<g filter="url(#filter1_d_607_1235)">
<rect x="20" y="131" width="282" height="88" rx="20" fill="white"/>
</g>
<g filter="url(#filter2_d_607_1235)">
<rect x="20" y="247" width="282" height="88" rx="20" fill="white"/>
</g>
<g filter="url(#filter3_d_607_1235)">
<rect x="20" y="359" width="282" height="88" rx="20" fill="white"/>
</g>
<rect x="42" y="253.896" width="74" height="74" rx="10" fill="white"/>
<rect x="42.5" y="254.396" width="73" height="73" rx="9.5" stroke="#003DDB" stroke-opacity="0.05"/>
<g clip-path="url(#clip0_607_1235)">
<path d="M100.862 287.136H99.3809L97.1736 288.297C96.9252 288.16 96.6668 288.044 96.3881 287.974L93.6115 287.279V286.963C94.8399 286.106 95.5894 284.69 95.5894 283.181V282.029C95.5894 279.469 93.5832 277.326 91.1175 277.252C90.9923 277.248 90.8691 277.253 90.7452 277.259L91.4651 275.574L87.9751 272.085L85.9177 273.424C85.1361 272.983 84.3094 272.641 83.4508 272.4L82.9426 270H77.9199L77.4117 272.401C76.5531 272.641 75.7258 272.984 74.9448 273.424L72.8874 272.085L69.4003 275.572L70.108 277.259C70.0809 277.258 70.0552 277.253 70.0282 277.252C68.766 277.216 67.5773 277.676 66.6743 278.553C65.77 279.429 65.2725 280.604 65.2725 281.863V283.181C65.2725 284.69 66.0213 286.106 67.2497 286.963V287.279L65.4386 287.732L62.1558 285.817H60V299.474L66.4838 301.635H67.7466L67.9042 301.083L69.8917 302.276C69.9242 303.356 70.7909 304.226 71.8705 304.264C71.9085 305.339 72.7725 306.203 73.8477 306.241C73.8857 307.316 74.7497 308.18 75.8249 308.218C75.8642 309.318 76.7652 310.203 77.8745 310.203C78.2864 310.203 78.6903 310.074 79.0298 309.846L79.6135 310.361C79.9794 310.683 80.4506 310.862 80.9397 310.862H81.0617C82.1584 310.862 83.0508 309.975 83.0646 308.882C84.1494 308.868 85.028 307.99 85.0418 306.905C86.1272 306.891 87.0064 306.011 87.019 304.926C88.1144 304.9 88.9987 304.005 88.9987 302.904C88.9987 302.837 88.9955 302.772 88.9888 302.706L100.862 296.77V287.136ZM94.2712 282.029V283.181C94.2712 284.351 93.6392 285.444 92.6216 286.033L92.2921 286.224L92.2947 288.309L95.5874 289.132L88.3397 292.946V291.171C88.3397 290.285 87.9818 289.474 87.3958 288.874L89.6578 288.309V286.222L89.3289 286.032C88.312 285.444 87.6806 284.351 87.6806 283.181V281.863C87.6806 280.964 88.0359 280.124 88.6818 279.498C89.327 278.872 90.183 278.535 91.0779 278.57C92.8385 278.623 94.2712 280.175 94.2712 282.029ZM81.4247 292.428L78.4412 291.475C77.0816 291.039 75.6099 290.974 74.2181 291.282L73.8403 291.366V291.171C73.8403 290.262 74.4566 289.473 75.3377 289.252L79.1128 288.309V286.222L78.7839 286.032C77.767 285.444 77.1356 284.351 77.1356 283.181V281.863C77.1356 280.964 77.4909 280.124 78.1368 279.498C78.782 278.872 79.6435 278.535 80.5329 278.57C82.2936 278.623 83.7262 280.175 83.7262 282.029V283.181C83.7262 284.351 83.0942 285.444 82.0767 286.033L81.7471 286.224L81.7497 288.309L85.5242 289.252C86.4053 289.473 87.0216 290.262 87.0216 291.171V293.641L86.8587 293.726H86.4548L82.403 292.568C82.0837 292.478 81.7548 292.441 81.4247 292.428ZM73.988 279.864C75.2257 277.466 77.7168 275.932 80.4309 275.932C83.1193 275.932 85.5998 277.445 86.8468 279.811C86.533 280.44 86.3625 281.137 86.3625 281.863V283.181C86.3625 284.69 87.1113 286.106 88.3397 286.963V287.279L85.7034 287.939L83.0665 287.279V286.963C84.2949 286.106 85.0444 284.69 85.0444 283.181V282.029C85.0444 279.469 83.0382 277.326 80.5725 277.252C79.311 277.215 78.1216 277.675 77.2186 278.552C76.315 279.429 75.8175 280.604 75.8175 281.863V283.181C75.8175 284.69 76.5663 286.106 77.7947 286.963V287.279L75.1584 287.939L72.5215 287.279V286.963C73.7499 286.106 74.4994 284.69 74.4994 283.181V282.029C74.4994 281.254 74.3127 280.517 73.988 279.864ZM70.9569 275.878L73.0625 273.773L74.9158 274.979L75.2704 274.761C76.1589 274.217 77.1192 273.818 78.1242 273.578L78.5297 273.48L78.9883 271.318H81.8742L82.3315 273.48L82.737 273.577C83.742 273.817 84.7023 274.216 85.5908 274.761L85.9454 274.978L87.7987 273.772L89.9017 275.876L89.1542 277.626C88.6454 277.845 88.1736 278.153 87.763 278.551C87.736 278.577 87.7128 278.605 87.6864 278.632C86.1337 276.164 83.3887 274.613 80.4309 274.613C77.452 274.613 74.6992 276.179 73.1504 278.672C72.7359 278.238 72.2429 277.887 71.6964 277.641L70.9569 275.878ZM68.5678 288.309V286.222L68.2389 286.032C67.222 285.444 66.5906 284.351 66.5906 283.181V281.863C66.5906 280.964 66.9459 280.124 67.5918 279.498C68.237 278.872 69.0949 278.535 69.9879 278.57C71.7486 278.623 73.1812 280.175 73.1812 282.029V283.181C73.1812 284.351 72.5492 285.444 71.5317 286.033L71.2021 286.224L71.2047 288.309L73.466 288.874C72.88 289.474 72.5222 290.285 72.5222 291.171V291.659L70.4665 292.116L70.5199 291.93L70.545 290.712L67.0691 288.684L68.5678 288.309ZM61.3181 287.136H61.7986L66.5385 289.9L64.1468 299.467L61.3181 298.523V287.136ZM66.6975 300.317L65.4003 299.885L67.7237 290.592L69.2269 291.468V291.657L66.7528 300.317H66.6975ZM71.2041 302.214C71.2041 302.02 71.2826 301.829 71.4203 301.692L72.5788 300.533C72.7166 300.395 72.9071 300.317 73.1014 300.317C73.5088 300.317 73.8403 300.648 73.8403 301.056C73.8403 301.25 73.7618 301.441 73.6241 301.578L72.4655 302.737C72.3278 302.875 72.1373 302.953 71.9429 302.953C71.5355 302.953 71.2041 302.622 71.2041 302.214ZM73.1812 304.191C73.1812 303.997 73.2598 303.807 73.3975 303.669L74.556 302.51C74.6937 302.373 74.8843 302.294 75.0786 302.294C75.486 302.294 75.8175 302.626 75.8175 303.033C75.8175 303.227 75.739 303.418 75.6012 303.556L74.4427 304.714C74.305 304.852 74.1145 304.93 73.9201 304.93C73.5127 304.93 73.1812 304.599 73.1812 304.191ZM75.1584 306.169C75.1584 305.974 75.237 305.784 75.3747 305.646L76.5332 304.487C76.6709 304.35 76.8614 304.271 77.0558 304.271C77.4632 304.271 77.7947 304.603 77.7947 305.01C77.7947 305.204 77.7162 305.395 77.5784 305.533L76.4199 306.691C76.2822 306.829 76.0917 306.907 75.8973 306.907C75.4899 306.907 75.1584 306.576 75.1584 306.169ZM77.8745 308.885C77.4671 308.885 77.1356 308.553 77.1356 308.146C77.1356 307.951 77.2141 307.761 77.3519 307.623L78.5104 306.465C78.6481 306.327 78.8386 306.248 79.033 306.248C79.4404 306.248 79.7719 306.58 79.7719 306.987C79.7719 307.182 79.6933 307.372 79.5556 307.51L78.3971 308.668C78.2594 308.806 78.0689 308.885 77.8745 308.885ZM81.0617 309.544H80.9397C80.7717 309.544 80.6108 309.483 80.4856 309.372L79.9926 308.937L80.4876 308.442C80.6642 308.265 80.8013 308.055 80.9027 307.829L81.5019 308.328C81.6586 308.459 81.7491 308.651 81.7491 308.856C81.7491 309.235 81.4408 309.544 81.0617 309.544ZM86.972 303.612H86.8581C86.6927 303.612 86.5311 303.554 86.4046 303.447L82.8306 300.469L81.9862 301.482L85.4569 304.374C85.613 304.505 85.7034 304.697 85.7034 304.902C85.7034 305.281 85.3951 305.589 85.016 305.589H84.8722C84.7123 305.589 84.5559 305.533 84.4326 305.43L80.8528 302.447L80.0084 303.46L83.4791 306.352C83.6358 306.482 83.7262 306.674 83.7262 306.879C83.7262 307.258 83.4179 307.567 83.0389 307.567C82.7859 307.567 82.5394 307.477 82.3454 307.316L80.8744 306.089C80.5503 305.427 79.8845 304.965 79.1048 304.938C79.0668 303.863 78.2027 302.998 77.1276 302.961C77.0896 301.885 76.2255 301.021 75.1504 300.983C75.1118 299.883 74.2107 298.999 73.1014 298.999C72.5598 298.999 72.0298 299.218 71.6469 299.601L70.4884 300.76C70.4192 300.829 70.3619 300.907 70.3036 300.985L68.2791 299.77L70.0539 293.559L74.5032 292.57C75.6704 292.309 76.901 292.365 78.0393 292.73L79.0101 293.04L75.7187 294.686C74.9666 295.063 74.4994 295.819 74.4994 296.66V296.791C74.4994 298.008 75.4899 298.999 76.7073 298.999C77.1073 298.999 77.5009 298.89 77.843 298.684L80.2971 297.212C80.7901 296.917 81.4517 296.981 81.8775 297.364L87.446 302.376C87.595 302.511 87.6806 302.703 87.6806 302.904C87.6806 303.295 87.363 303.612 86.972 303.612ZM99.5437 295.955L88.4404 301.507C88.4044 301.469 88.3667 301.433 88.3271 301.397L82.7595 296.386C82.2717 295.945 81.6409 295.703 80.9838 295.703C80.5033 295.703 80.0316 295.834 79.6184 296.082L77.1633 297.554C77.0256 297.637 76.8682 297.681 76.7073 297.681C76.2162 297.681 75.8175 297.282 75.8175 296.791V296.66C75.8175 296.321 76.0061 296.017 76.3092 295.865L79.9855 294.027C80.6147 293.712 81.3616 293.641 82.0396 293.836L86.1813 295.019L87.1844 295.044L99.5437 288.539V295.955Z" fill="black"/>
</g>
<rect x="42" y="365.896" width="74" height="74" rx="10" fill="white"/>
<rect x="42.5" y="366.396" width="73" height="73" rx="9.5" stroke="#003DDB" stroke-opacity="0.05"/>
<path d="M128.704 294C128.704 293.637 128.736 293.275 128.8 292.912C128.864 292.539 128.987 292.171 129.168 291.808C129.349 291.445 129.616 291.099 129.968 290.768C130.32 290.427 130.784 290.107 131.36 289.808C131.669 289.648 131.989 289.493 132.32 289.344C132.651 289.184 132.96 289.013 133.248 288.832C133.547 288.64 133.781 288.427 133.952 288.192C134.133 287.947 134.224 287.659 134.224 287.328C134.224 287.061 134.144 286.8 133.984 286.544C133.835 286.288 133.6 286.08 133.28 285.92C132.971 285.76 132.581 285.68 132.112 285.68C131.771 285.68 131.461 285.728 131.184 285.824C130.907 285.92 130.661 286.043 130.448 286.192C130.235 286.331 130.053 286.475 129.904 286.624C129.755 286.763 129.632 286.88 129.536 286.976L128.848 286.224C128.901 286.16 129.019 286.048 129.2 285.888C129.392 285.717 129.632 285.541 129.92 285.36C130.219 285.179 130.565 285.024 130.96 284.896C131.365 284.768 131.808 284.704 132.288 284.704C132.939 284.704 133.493 284.821 133.952 285.056C134.421 285.28 134.779 285.584 135.024 285.968C135.269 286.352 135.392 286.768 135.392 287.216C135.392 287.653 135.296 288.032 135.104 288.352C134.923 288.661 134.683 288.933 134.384 289.168C134.096 289.392 133.792 289.589 133.472 289.76C133.163 289.92 132.88 290.059 132.624 290.176C132.123 290.411 131.701 290.645 131.36 290.88C131.019 291.115 130.747 291.355 130.544 291.6C130.341 291.835 130.181 292.069 130.064 292.304C129.957 292.528 129.883 292.763 129.84 293.008H135.568V294H128.704ZM148.486 284.768C148.326 284.587 148.139 284.427 147.926 284.288C147.713 284.139 147.473 284.011 147.206 283.904C146.939 283.797 146.651 283.712 146.342 283.648C146.043 283.584 145.723 283.552 145.382 283.552C144.39 283.552 143.659 283.744 143.19 284.128C142.731 284.501 142.502 285.013 142.502 285.664C142.502 286.112 142.609 286.464 142.822 286.72C143.046 286.976 143.393 287.184 143.862 287.344C144.331 287.504 144.929 287.669 145.654 287.84C146.465 288.011 147.163 288.213 147.75 288.448C148.337 288.683 148.79 289.003 149.11 289.408C149.43 289.803 149.59 290.341 149.59 291.024C149.59 291.547 149.489 292 149.286 292.384C149.083 292.768 148.801 293.088 148.438 293.344C148.075 293.6 147.643 293.792 147.142 293.92C146.641 294.037 146.091 294.096 145.494 294.096C144.907 294.096 144.342 294.037 143.798 293.92C143.265 293.792 142.758 293.611 142.278 293.376C141.798 293.131 141.35 292.821 140.934 292.448L141.494 291.536C141.697 291.749 141.937 291.952 142.214 292.144C142.502 292.325 142.817 292.491 143.158 292.64C143.51 292.789 143.883 292.907 144.278 292.992C144.683 293.067 145.099 293.104 145.526 293.104C146.433 293.104 147.137 292.939 147.638 292.608C148.15 292.277 148.406 291.787 148.406 291.136C148.406 290.667 148.278 290.293 148.022 290.016C147.766 289.728 147.382 289.493 146.87 289.312C146.358 289.131 145.729 288.955 144.982 288.784C144.193 288.603 143.526 288.4 142.982 288.176C142.438 287.952 142.027 287.659 141.75 287.296C141.483 286.923 141.35 286.432 141.35 285.824C141.35 285.12 141.521 284.528 141.862 284.048C142.214 283.557 142.694 283.189 143.302 282.944C143.91 282.688 144.609 282.56 145.398 282.56C145.899 282.56 146.363 282.613 146.79 282.72C147.227 282.816 147.627 282.96 147.99 283.152C148.363 283.344 148.71 283.584 149.03 283.872L148.486 284.768ZM154.941 294.16C154.343 294.16 153.789 294.048 153.277 293.824C152.765 293.589 152.322 293.275 151.949 292.88C151.575 292.475 151.282 292.011 151.069 291.488C150.866 290.965 150.765 290.405 150.765 289.808C150.765 289.029 150.941 288.315 151.293 287.664C151.655 287.013 152.151 286.496 152.781 286.112C153.41 285.717 154.125 285.52 154.925 285.52C155.746 285.52 156.461 285.717 157.069 286.112C157.687 286.507 158.173 287.029 158.525 287.68C158.877 288.32 159.053 289.024 159.053 289.792C159.053 289.877 159.053 289.963 159.053 290.048C159.053 290.123 159.047 290.181 159.037 290.224H151.901C151.954 290.821 152.119 291.355 152.397 291.824C152.685 292.283 153.053 292.651 153.501 292.928C153.959 293.195 154.455 293.328 154.989 293.328C155.533 293.328 156.045 293.189 156.525 292.912C157.015 292.635 157.357 292.272 157.549 291.824L158.493 292.08C158.322 292.475 158.061 292.832 157.709 293.152C157.357 293.472 156.941 293.723 156.461 293.904C155.991 294.075 155.485 294.16 154.941 294.16ZM151.869 289.44H158.029C157.986 288.832 157.821 288.299 157.533 287.84C157.255 287.381 156.887 287.024 156.429 286.768C155.981 286.501 155.485 286.368 154.941 286.368C154.397 286.368 153.901 286.501 153.453 286.768C153.005 287.024 152.637 287.387 152.349 287.856C152.071 288.315 151.911 288.843 151.869 289.44ZM164.347 294.16C163.739 294.16 163.179 294.048 162.667 293.824C162.166 293.589 161.723 293.269 161.339 292.864C160.966 292.459 160.673 291.995 160.459 291.472C160.257 290.949 160.155 290.395 160.155 289.808C160.155 289.019 160.331 288.299 160.683 287.648C161.035 286.997 161.526 286.48 162.155 286.096C162.785 285.712 163.51 285.52 164.331 285.52C165.11 285.52 165.798 285.701 166.395 286.064C166.993 286.416 167.435 286.896 167.723 287.504L166.667 287.84C166.433 287.413 166.102 287.083 165.675 286.848C165.259 286.603 164.795 286.48 164.283 286.48C163.729 286.48 163.222 286.624 162.763 286.912C162.305 287.2 161.937 287.595 161.659 288.096C161.393 288.597 161.259 289.168 161.259 289.808C161.259 290.437 161.398 291.008 161.675 291.52C161.953 292.032 162.321 292.443 162.779 292.752C163.238 293.051 163.745 293.2 164.299 293.2C164.662 293.2 165.009 293.136 165.339 293.008C165.681 292.88 165.974 292.709 166.219 292.496C166.475 292.272 166.646 292.032 166.731 291.776L167.803 292.096C167.654 292.491 167.403 292.848 167.051 293.168C166.71 293.477 166.305 293.723 165.835 293.904C165.377 294.075 164.881 294.16 164.347 294.16ZM169.433 290.56V285.664H170.521V290.368C170.521 291.317 170.681 292.027 171.001 292.496C171.331 292.965 171.817 293.2 172.457 293.2C172.883 293.2 173.294 293.109 173.689 292.928C174.094 292.736 174.451 292.469 174.761 292.128C175.07 291.776 175.305 291.371 175.465 290.912V285.664H176.553V292.688C176.553 292.837 176.585 292.949 176.649 293.024C176.713 293.088 176.809 293.125 176.937 293.136V294C176.809 294.011 176.707 294.016 176.633 294.016C176.558 294.027 176.489 294.032 176.425 294.032C176.211 294.011 176.025 293.925 175.865 293.776C175.715 293.627 175.635 293.445 175.625 293.232L175.593 292.112C175.23 292.752 174.734 293.253 174.105 293.616C173.486 293.979 172.814 294.16 172.089 294.16C171.214 294.16 170.553 293.856 170.105 293.248C169.657 292.64 169.433 291.744 169.433 290.56ZM183.173 286.624C182.447 286.645 181.807 286.848 181.253 287.232C180.709 287.616 180.325 288.144 180.101 288.816V294H179.013V285.664H180.037V287.664C180.325 287.077 180.703 286.603 181.173 286.24C181.653 285.877 182.159 285.675 182.693 285.632C182.799 285.621 182.89 285.616 182.965 285.616C183.05 285.616 183.119 285.621 183.173 285.632V286.624ZM184.622 294V285.664H185.71V294H184.622ZM184.622 283.92V282.32H185.71V283.92H184.622ZM192.106 293.6C192.021 293.632 191.888 293.691 191.706 293.776C191.525 293.861 191.306 293.936 191.05 294C190.794 294.064 190.517 294.096 190.218 294.096C189.909 294.096 189.616 294.037 189.338 293.92C189.072 293.803 188.858 293.627 188.698 293.392C188.538 293.147 188.458 292.848 188.458 292.496V286.528H187.306V285.664H188.458V282.848H189.546V285.664H191.466V286.528H189.546V292.192C189.568 292.491 189.674 292.715 189.866 292.864C190.069 293.013 190.298 293.088 190.554 293.088C190.853 293.088 191.125 293.04 191.37 292.944C191.616 292.837 191.765 292.763 191.818 292.72L192.106 293.6ZM193.946 296.56C194.095 296.571 194.239 296.576 194.378 296.576C194.516 296.587 194.618 296.581 194.682 296.56C194.81 296.539 194.932 296.464 195.05 296.336C195.167 296.208 195.306 295.963 195.466 295.6C195.626 295.237 195.85 294.704 196.138 294L192.506 285.664H193.658L196.714 292.88L199.53 285.664H200.618L196.298 296.416C196.223 296.619 196.111 296.805 195.962 296.976C195.812 297.157 195.626 297.296 195.402 297.392C195.188 297.499 194.922 297.557 194.602 297.568C194.506 297.579 194.404 297.579 194.298 297.568C194.202 297.568 194.084 297.557 193.946 297.536V296.56ZM209.022 282.64H209.966L214.686 294H213.502L212.03 290.448H206.926L205.47 294H204.27L209.022 282.64ZM211.774 289.568L209.486 283.952L207.166 289.568H211.774ZM215.839 290.56V285.664H216.927V290.368C216.927 291.317 217.087 292.027 217.407 292.496C217.737 292.965 218.223 293.2 218.863 293.2C219.289 293.2 219.7 293.109 220.095 292.928C220.5 292.736 220.857 292.469 221.167 292.128C221.476 291.776 221.711 291.371 221.871 290.912V285.664H222.959V292.688C222.959 292.837 222.991 292.949 223.055 293.024C223.119 293.088 223.215 293.125 223.343 293.136V294C223.215 294.011 223.113 294.016 223.039 294.016C222.964 294.027 222.895 294.032 222.831 294.032C222.617 294.011 222.431 293.925 222.271 293.776C222.121 293.627 222.041 293.445 222.031 293.232L221.999 292.112C221.636 292.752 221.14 293.253 220.511 293.616C219.892 293.979 219.22 294.16 218.495 294.16C217.62 294.16 216.959 293.856 216.511 293.248C216.063 292.64 215.839 291.744 215.839 290.56ZM224.859 289.856C224.859 289.067 225.019 288.347 225.339 287.696C225.669 287.035 226.123 286.507 226.699 286.112C227.275 285.717 227.931 285.52 228.667 285.52C229.36 285.52 229.979 285.707 230.523 286.08C231.077 286.443 231.509 286.885 231.819 287.408V282.32H232.907V292.688C232.907 292.837 232.939 292.949 233.003 293.024C233.067 293.088 233.163 293.125 233.291 293.136V294C233.077 294.032 232.912 294.043 232.795 294.032C232.571 294.021 232.373 293.931 232.203 293.76C232.032 293.589 231.947 293.403 231.947 293.2V292.384C231.616 292.928 231.168 293.36 230.603 293.68C230.037 294 229.451 294.16 228.843 294.16C228.267 294.16 227.733 294.043 227.243 293.808C226.763 293.573 226.341 293.253 225.979 292.848C225.627 292.443 225.349 291.984 225.147 291.472C224.955 290.949 224.859 290.411 224.859 289.856ZM231.819 291.136V288.56C231.68 288.176 231.456 287.829 231.147 287.52C230.837 287.2 230.485 286.949 230.091 286.768C229.707 286.576 229.323 286.48 228.939 286.48C228.491 286.48 228.085 286.576 227.723 286.768C227.36 286.949 227.045 287.2 226.779 287.52C226.523 287.84 226.325 288.203 226.187 288.608C226.048 289.013 225.979 289.429 225.979 289.856C225.979 290.304 226.053 290.731 226.203 291.136C226.363 291.541 226.587 291.904 226.875 292.224C227.163 292.533 227.493 292.773 227.867 292.944C228.24 293.115 228.645 293.2 229.083 293.2C229.36 293.2 229.648 293.147 229.947 293.04C230.245 292.933 230.528 292.789 230.795 292.608C231.072 292.416 231.301 292.192 231.483 291.936C231.664 291.68 231.776 291.413 231.819 291.136ZM235.372 294V285.664H236.46V294H235.372ZM235.372 283.92V282.32H236.46V283.92H235.372ZM242.856 293.6C242.771 293.632 242.638 293.691 242.456 293.776C242.275 293.861 242.056 293.936 241.8 294C241.544 294.064 241.267 294.096 240.968 294.096C240.659 294.096 240.366 294.037 240.088 293.92C239.822 293.803 239.608 293.627 239.448 293.392C239.288 293.147 239.208 292.848 239.208 292.496V286.528H238.056V285.664H239.208V282.848H240.296V285.664H242.216V286.528H240.296V292.192C240.318 292.491 240.424 292.715 240.616 292.864C240.819 293.013 241.048 293.088 241.304 293.088C241.603 293.088 241.875 293.04 242.12 292.944C242.366 292.837 242.515 292.763 242.568 292.72L242.856 293.6ZM247.627 294.16C247.03 294.16 246.475 294.048 245.963 293.824C245.462 293.589 245.024 293.275 244.651 292.88C244.288 292.475 244.006 292.016 243.803 291.504C243.6 290.981 243.499 290.432 243.499 289.856C243.499 289.259 243.6 288.704 243.803 288.192C244.006 287.669 244.294 287.211 244.667 286.816C245.04 286.411 245.478 286.096 245.979 285.872C246.491 285.637 247.046 285.52 247.643 285.52C248.24 285.52 248.79 285.637 249.291 285.872C249.792 286.096 250.23 286.411 250.603 286.816C250.976 287.211 251.264 287.669 251.467 288.192C251.67 288.704 251.771 289.259 251.771 289.856C251.771 290.432 251.67 290.981 251.467 291.504C251.264 292.016 250.976 292.475 250.603 292.88C250.24 293.275 249.803 293.589 249.291 293.824C248.79 294.048 248.235 294.16 247.627 294.16ZM244.603 289.872C244.603 290.491 244.736 291.056 245.003 291.568C245.28 292.069 245.648 292.469 246.107 292.768C246.566 293.056 247.072 293.2 247.627 293.2C248.182 293.2 248.688 293.051 249.147 292.752C249.606 292.453 249.974 292.048 250.251 291.536C250.528 291.013 250.667 290.448 250.667 289.84C250.667 289.221 250.528 288.656 250.251 288.144C249.974 287.632 249.606 287.227 249.147 286.928C248.688 286.629 248.182 286.48 247.627 286.48C247.072 286.48 246.566 286.635 246.107 286.944C245.659 287.253 245.296 287.664 245.019 288.176C244.742 288.677 244.603 289.243 244.603 289.872ZM257.751 286.624C257.025 286.645 256.385 286.848 255.831 287.232C255.287 287.616 254.903 288.144 254.679 288.816V294H253.591V285.664H254.615V287.664C254.903 287.077 255.281 286.603 255.751 286.24C256.231 285.877 256.737 285.675 257.271 285.632C257.377 285.621 257.468 285.616 257.543 285.616C257.628 285.616 257.697 285.621 257.751 285.632V286.624ZM261.936 294.16C261.253 294.16 260.619 294.048 260.032 293.824C259.445 293.6 258.939 293.259 258.512 292.8L258.96 292.032C259.429 292.469 259.899 292.789 260.368 292.992C260.848 293.184 261.355 293.28 261.888 293.28C262.539 293.28 263.067 293.152 263.472 292.896C263.877 292.629 264.08 292.251 264.08 291.76C264.08 291.429 263.979 291.179 263.776 291.008C263.584 290.827 263.301 290.683 262.928 290.576C262.565 290.459 262.128 290.336 261.616 290.208C261.04 290.048 260.555 289.883 260.16 289.712C259.776 289.531 259.483 289.307 259.28 289.04C259.088 288.763 258.992 288.405 258.992 287.968C258.992 287.424 259.125 286.976 259.392 286.624C259.669 286.261 260.043 285.989 260.512 285.808C260.992 285.616 261.525 285.52 262.112 285.52C262.752 285.52 263.317 285.621 263.808 285.824C264.299 286.027 264.699 286.309 265.008 286.672L264.48 287.408C264.181 287.067 263.824 286.816 263.408 286.656C263.003 286.485 262.549 286.4 262.048 286.4C261.707 286.4 261.381 286.448 261.072 286.544C260.763 286.629 260.507 286.779 260.304 286.992C260.112 287.195 260.016 287.477 260.016 287.84C260.016 288.139 260.091 288.373 260.24 288.544C260.389 288.704 260.613 288.843 260.912 288.96C261.211 289.067 261.579 289.184 262.016 289.312C262.645 289.483 263.195 289.659 263.664 289.84C264.133 290.011 264.496 290.235 264.752 290.512C265.008 290.789 265.136 291.179 265.136 291.68C265.136 292.459 264.843 293.067 264.256 293.504C263.669 293.941 262.896 294.16 261.936 294.16Z" fill="black"/>
<g clip-path="url(#clip1_607_1235)">
<path d="M62.9134 384.808H62.2115C61.8239 384.808 61.5096 385.122 61.5096 385.51C61.5096 385.897 61.8239 386.211 62.2115 386.211H62.9134C63.3011 386.211 63.6153 385.897 63.6153 385.51C63.6153 385.122 63.3011 384.808 62.9134 384.808Z" fill="black"/>
<path d="M66.4231 384.808H65.7212C65.3335 384.808 65.0193 385.122 65.0193 385.51C65.0193 385.897 65.3336 386.211 65.7212 386.211H66.4231C66.8108 386.211 67.125 385.897 67.125 385.51C67.125 385.122 66.8108 384.808 66.4231 384.808Z" fill="black"/>
<path d="M69.9327 384.808H69.2308C68.8432 384.808 68.5289 385.122 68.5289 385.51C68.5289 385.897 68.8432 386.211 69.2308 386.211H69.9327C70.3204 386.211 70.6346 385.897 70.6346 385.51C70.6346 385.122 70.3203 384.808 69.9327 384.808Z" fill="black"/>
<path d="M91.6924 384.808H72.7405C72.3528 384.808 72.0386 385.122 72.0386 385.51C72.0386 385.897 72.3528 386.211 72.7405 386.211H91.6924C92.0801 386.211 92.3943 385.897 92.3943 385.51C92.3943 385.122 92.0801 384.808 91.6924 384.808Z" fill="black"/>
<path d="M98.7116 407.269H98.0097V403.76C98.0091 401.794 97.2556 399.904 95.9039 398.477V385.51C95.9016 383.572 94.3317 382.002 92.3943 382H61.5096C59.5723 382.002 58.0023 383.572 58 385.51V413.587C58.0023 415.524 59.5723 417.094 61.5096 417.096H80.4616V419.202C80.4647 421.914 82.6627 424.112 85.3751 424.115H95.202C97.9144 424.112 100.112 421.914 100.115 419.202V408.673C100.115 407.898 99.4869 407.269 98.7116 407.269ZM96.6058 403.76V407.269H83.9712V403.76C83.9712 400.271 86.7996 397.442 90.2885 397.442C93.7774 397.442 96.6058 400.271 96.6058 403.76ZM59.4039 385.51C59.4039 384.347 60.3467 383.404 61.5096 383.404H92.3944C93.5573 383.404 94.5001 384.347 94.5001 385.51V387.615H59.4039V385.51ZM80.4616 408.673V415.692H61.5096C60.3467 415.692 59.4039 414.75 59.4039 413.587V389.019H94.5001V397.296C92.1287 395.745 89.0977 395.619 86.606 396.969C84.1144 398.319 82.5637 400.926 82.5674 403.76V407.269H81.8655C81.0901 407.269 80.4616 407.898 80.4616 408.673ZM98.7116 410.077H96.6058C96.2181 410.077 95.9039 410.391 95.9039 410.779C95.9039 411.167 96.2181 411.481 96.6058 411.481H98.7116V412.885H96.6058C96.2181 412.885 95.9039 413.199 95.9039 413.587C95.9039 413.974 96.2181 414.288 96.6058 414.288H98.7116V415.692H96.6058C96.2181 415.692 95.9039 416.007 95.9039 416.394C95.9039 416.782 96.2181 417.096 96.6058 417.096H98.7116V418.5H96.6058C96.2181 418.5 95.9039 418.814 95.9039 419.202C95.9039 419.59 96.2181 419.904 96.6058 419.904H98.6414C98.3056 421.537 96.8691 422.709 95.202 422.712H85.3751C83.708 422.709 82.2714 421.537 81.9357 419.904H83.9713C84.3589 419.904 84.6732 419.59 84.6732 419.202C84.6732 418.814 84.3589 418.5 83.9713 418.5H81.8655V417.096H83.9713C84.3589 417.096 84.6732 416.782 84.6732 416.394C84.6732 416.007 84.3589 415.692 83.9713 415.692H81.8655V414.288H83.9713C84.3589 414.288 84.6732 413.974 84.6732 413.587C84.6732 413.199 84.3589 412.885 83.9713 412.885H81.8655V411.481H83.9713C84.3589 411.481 84.6732 411.167 84.6732 410.779C84.6732 410.391 84.3589 410.077 83.9713 410.077H81.8655V408.673H98.7117V410.077H98.7116Z" fill="black"/>
<path d="M89.5866 416.265V417.798C89.5866 418.186 89.9009 418.5 90.2885 418.5C90.6762 418.5 90.9904 418.186 90.9904 417.798V416.265C91.9566 415.925 92.5365 414.937 92.3629 413.928C92.1894 412.918 91.3129 412.181 90.2885 412.183C89.2641 412.181 88.3876 412.918 88.214 413.928C88.0405 414.937 88.6203 415.925 89.5866 416.265ZM90.2885 413.587C90.6762 413.587 90.9904 413.901 90.9904 414.289C90.9904 414.676 90.6761 414.99 90.2885 414.99C89.9008 414.99 89.5866 414.676 89.5866 414.289C89.5866 413.901 89.9009 413.587 90.2885 413.587Z" fill="black"/>
<path d="M69.9327 396.039C69.5451 396.039 69.2308 396.353 69.2308 396.74V398.846H63.6154V393.231H66.4231C66.8108 393.231 67.125 392.917 67.125 392.529C67.125 392.141 66.8108 391.827 66.4231 391.827H63.6154C62.8401 391.827 62.2115 392.456 62.2115 393.231V398.846C62.2115 399.622 62.8401 400.25 63.6154 400.25H69.2308C70.0062 400.25 70.6347 399.622 70.6347 398.846V396.74C70.6346 396.353 70.3203 396.039 69.9327 396.039Z" fill="black"/>
<path d="M65.5155 394.84C65.2401 394.574 64.8022 394.578 64.5315 394.849C64.2607 395.12 64.257 395.557 64.523 395.833L65.9269 397.237C66.0585 397.368 66.237 397.442 66.4231 397.442H66.4547C66.6516 397.433 66.8358 397.342 66.9622 397.191L70.4719 392.979C70.6326 392.787 70.6784 392.523 70.592 392.288C70.5055 392.052 70.3 391.881 70.0529 391.838C69.8057 391.795 69.5544 391.887 69.3936 392.08L66.3754 395.701L65.5155 394.84Z" fill="black"/>
<path d="M69.9327 407.971C69.5451 407.971 69.2308 408.285 69.2308 408.673V410.779H63.6154V405.164H66.4231C66.8108 405.164 67.125 404.849 67.125 404.462C67.125 404.074 66.8108 403.76 66.4231 403.76H63.6154C62.8401 403.76 62.2115 404.388 62.2115 405.164V410.779C62.2115 411.554 62.8401 412.183 63.6154 412.183H69.2308C70.0062 412.183 70.6347 411.554 70.6347 410.779V408.673C70.6346 408.286 70.3203 407.971 69.9327 407.971Z" fill="black"/>
<path d="M65.5155 406.773C65.2401 406.507 64.8022 406.511 64.5315 406.782C64.2607 407.052 64.257 407.49 64.523 407.766L65.9269 409.169C66.0585 409.301 66.237 409.375 66.4231 409.375H66.4547C66.6516 409.366 66.8358 409.275 66.9622 409.124L70.4719 404.912C70.6326 404.72 70.6784 404.456 70.592 404.22C70.5055 403.985 70.3 403.813 70.0529 403.771C69.8057 403.728 69.5544 403.82 69.3936 404.012L66.3754 407.634L65.5155 406.773Z" fill="black"/>
<path d="M73.4423 393.933H79.0577C79.4454 393.933 79.7596 393.618 79.7596 393.231C79.7596 392.843 79.4454 392.529 79.0577 392.529H73.4423C73.0546 392.529 72.7404 392.843 72.7404 393.231C72.7404 393.618 73.0547 393.933 73.4423 393.933Z" fill="black"/>
<path d="M83.2692 396.74C83.2692 396.353 82.955 396.039 82.5673 396.039H73.4423C73.0546 396.039 72.7404 396.353 72.7404 396.74C72.7404 397.128 73.0546 397.442 73.4423 397.442H82.5672C82.955 397.442 83.2692 397.128 83.2692 396.74Z" fill="black"/>
<path d="M79.0577 404.462H73.4423C73.0546 404.462 72.7404 404.776 72.7404 405.164C72.7404 405.551 73.0546 405.865 73.4423 405.865H79.0577C79.4454 405.865 79.7596 405.551 79.7596 405.164C79.7596 404.776 79.4454 404.462 79.0577 404.462Z" fill="black"/>
<path d="M78.3558 407.971H73.4424C73.0547 407.971 72.7405 408.285 72.7405 408.673C72.7405 409.061 73.0547 409.375 73.4424 409.375H78.3558C78.7435 409.375 79.0577 409.061 79.0577 408.673C79.0577 408.285 78.7435 407.971 78.3558 407.971Z" fill="black"/>
</g>
<path d="M128.704 395C128.704 394.637 128.736 394.275 128.8 393.912C128.864 393.539 128.987 393.171 129.168 392.808C129.349 392.445 129.616 392.099 129.968 391.768C130.32 391.427 130.784 391.107 131.36 390.808C131.669 390.648 131.989 390.493 132.32 390.344C132.651 390.184 132.96 390.013 133.248 389.832C133.547 389.64 133.781 389.427 133.952 389.192C134.133 388.947 134.224 388.659 134.224 388.328C134.224 388.061 134.144 387.8 133.984 387.544C133.835 387.288 133.6 387.08 133.28 386.92C132.971 386.76 132.581 386.68 132.112 386.68C131.771 386.68 131.461 386.728 131.184 386.824C130.907 386.92 130.661 387.043 130.448 387.192C130.235 387.331 130.053 387.475 129.904 387.624C129.755 387.763 129.632 387.88 129.536 387.976L128.848 387.224C128.901 387.16 129.019 387.048 129.2 386.888C129.392 386.717 129.632 386.541 129.92 386.36C130.219 386.179 130.565 386.024 130.96 385.896C131.365 385.768 131.808 385.704 132.288 385.704C132.939 385.704 133.493 385.821 133.952 386.056C134.421 386.28 134.779 386.584 135.024 386.968C135.269 387.352 135.392 387.768 135.392 388.216C135.392 388.653 135.296 389.032 135.104 389.352C134.923 389.661 134.683 389.933 134.384 390.168C134.096 390.392 133.792 390.589 133.472 390.76C133.163 390.92 132.88 391.059 132.624 391.176C132.123 391.411 131.701 391.645 131.36 391.88C131.019 392.115 130.747 392.355 130.544 392.6C130.341 392.835 130.181 393.069 130.064 393.304C129.957 393.528 129.883 393.763 129.84 394.008H135.568V395H128.704ZM141.846 395V383.64H145.702C146.907 383.64 147.91 383.896 148.71 384.408C149.521 384.909 150.129 385.592 150.534 386.456C150.939 387.309 151.142 388.259 151.142 389.304C151.142 390.456 150.918 391.459 150.47 392.312C150.033 393.165 149.403 393.827 148.582 394.296C147.771 394.765 146.811 395 145.702 395H141.846ZM150.022 389.304C150.022 388.397 149.851 387.592 149.51 386.888C149.179 386.184 148.694 385.635 148.054 385.24C147.414 384.835 146.63 384.632 145.702 384.632H142.966V394.008H145.702C146.641 394.008 147.43 393.8 148.07 393.384C148.71 392.968 149.195 392.408 149.526 391.704C149.857 390.989 150.022 390.189 150.022 389.304ZM156.659 395.16C156.062 395.16 155.507 395.048 154.995 394.824C154.483 394.589 154.041 394.275 153.667 393.88C153.294 393.475 153.001 393.011 152.787 392.488C152.585 391.965 152.483 391.405 152.483 390.808C152.483 390.029 152.659 389.315 153.011 388.664C153.374 388.013 153.87 387.496 154.499 387.112C155.129 386.717 155.843 386.52 156.643 386.52C157.465 386.52 158.179 386.717 158.787 387.112C159.406 387.507 159.891 388.029 160.243 388.68C160.595 389.32 160.771 390.024 160.771 390.792C160.771 390.877 160.771 390.963 160.771 391.048C160.771 391.123 160.766 391.181 160.755 391.224H153.619C153.673 391.821 153.838 392.355 154.115 392.824C154.403 393.283 154.771 393.651 155.219 393.928C155.678 394.195 156.174 394.328 156.707 394.328C157.251 394.328 157.763 394.189 158.243 393.912C158.734 393.635 159.075 393.272 159.267 392.824L160.211 393.08C160.041 393.475 159.779 393.832 159.427 394.152C159.075 394.472 158.659 394.723 158.179 394.904C157.71 395.075 157.203 395.16 156.659 395.16ZM153.587 390.44H159.747C159.705 389.832 159.539 389.299 159.251 388.84C158.974 388.381 158.606 388.024 158.147 387.768C157.699 387.501 157.203 387.368 156.659 387.368C156.115 387.368 155.619 387.501 155.171 387.768C154.723 388.024 154.355 388.387 154.067 388.856C153.79 389.315 153.63 389.843 153.587 390.44ZM164.711 395L161.335 386.664H162.471L165.319 393.912L168.183 386.664H169.255L165.879 395H164.711ZM174.081 395.16C173.484 395.16 172.929 395.048 172.417 394.824C171.905 394.589 171.463 394.275 171.089 393.88C170.716 393.475 170.423 393.011 170.209 392.488C170.007 391.965 169.905 391.405 169.905 390.808C169.905 390.029 170.081 389.315 170.433 388.664C170.796 388.013 171.292 387.496 171.921 387.112C172.551 386.717 173.265 386.52 174.065 386.52C174.887 386.52 175.601 386.717 176.209 387.112C176.828 387.507 177.313 388.029 177.665 388.68C178.017 389.32 178.193 390.024 178.193 390.792C178.193 390.877 178.193 390.963 178.193 391.048C178.193 391.123 178.188 391.181 178.177 391.224H171.041C171.095 391.821 171.26 392.355 171.537 392.824C171.825 393.283 172.193 393.651 172.641 393.928C173.1 394.195 173.596 394.328 174.129 394.328C174.673 394.328 175.185 394.189 175.665 393.912C176.156 393.635 176.497 393.272 176.689 392.824L177.633 393.08C177.463 393.475 177.201 393.832 176.849 394.152C176.497 394.472 176.081 394.723 175.601 394.904C175.132 395.075 174.625 395.16 174.081 395.16ZM171.009 390.44H177.169C177.127 389.832 176.961 389.299 176.673 388.84C176.396 388.381 176.028 388.024 175.569 387.768C175.121 387.501 174.625 387.368 174.081 387.368C173.537 387.368 173.041 387.501 172.593 387.768C172.145 388.024 171.777 388.387 171.489 388.856C171.212 389.315 171.052 389.843 171.009 390.44ZM179.92 383.32H181.008V393.112C181.008 393.528 181.083 393.8 181.232 393.928C181.381 394.056 181.563 394.12 181.776 394.12C181.968 394.12 182.16 394.099 182.352 394.056C182.544 394.013 182.709 393.971 182.848 393.928L183.04 394.808C182.837 394.893 182.587 394.963 182.288 395.016C182 395.069 181.749 395.096 181.536 395.096C181.045 395.096 180.651 394.952 180.352 394.664C180.064 394.376 179.92 393.981 179.92 393.48V383.32ZM187.783 395.16C187.186 395.16 186.631 395.048 186.119 394.824C185.618 394.589 185.181 394.275 184.807 393.88C184.445 393.475 184.162 393.016 183.959 392.504C183.757 391.981 183.655 391.432 183.655 390.856C183.655 390.259 183.757 389.704 183.959 389.192C184.162 388.669 184.45 388.211 184.823 387.816C185.197 387.411 185.634 387.096 186.135 386.872C186.647 386.637 187.202 386.52 187.799 386.52C188.397 386.52 188.946 386.637 189.447 386.872C189.949 387.096 190.386 387.411 190.759 387.816C191.133 388.211 191.421 388.669 191.623 389.192C191.826 389.704 191.927 390.259 191.927 390.856C191.927 391.432 191.826 391.981 191.623 392.504C191.421 393.016 191.133 393.475 190.759 393.88C190.397 394.275 189.959 394.589 189.447 394.824C188.946 395.048 188.391 395.16 187.783 395.16ZM184.759 390.872C184.759 391.491 184.893 392.056 185.159 392.568C185.437 393.069 185.805 393.469 186.263 393.768C186.722 394.056 187.229 394.2 187.783 394.2C188.338 394.2 188.845 394.051 189.303 393.752C189.762 393.453 190.13 393.048 190.407 392.536C190.685 392.013 190.823 391.448 190.823 390.84C190.823 390.221 190.685 389.656 190.407 389.144C190.13 388.632 189.762 388.227 189.303 387.928C188.845 387.629 188.338 387.48 187.783 387.48C187.229 387.48 186.722 387.635 186.263 387.944C185.815 388.253 185.453 388.664 185.175 389.176C184.898 389.677 184.759 390.243 184.759 390.872ZM198.003 395.16C197.31 395.16 196.686 394.979 196.131 394.616C195.587 394.253 195.155 393.805 194.835 393.272V398.408H193.747V386.664H194.723V388.28C195.054 387.757 195.496 387.336 196.051 387.016C196.606 386.685 197.198 386.52 197.827 386.52C198.403 386.52 198.931 386.643 199.411 386.888C199.891 387.123 200.307 387.443 200.659 387.848C201.011 388.253 201.283 388.717 201.475 389.24C201.678 389.752 201.779 390.285 201.779 390.84C201.779 391.619 201.619 392.339 201.299 393C200.99 393.651 200.552 394.173 199.987 394.568C199.422 394.963 198.76 395.16 198.003 395.16ZM197.699 394.2C198.158 394.2 198.568 394.109 198.931 393.928C199.294 393.736 199.603 393.48 199.859 393.16C200.126 392.84 200.328 392.483 200.467 392.088C200.606 391.683 200.675 391.267 200.675 390.84C200.675 390.392 200.595 389.965 200.435 389.56C200.286 389.155 200.067 388.797 199.779 388.488C199.491 388.179 199.16 387.933 198.787 387.752C198.414 387.571 198.008 387.48 197.571 387.48C197.294 387.48 197.006 387.533 196.707 387.64C196.408 387.747 196.12 387.901 195.843 388.104C195.576 388.296 195.352 388.515 195.171 388.76C194.99 389.005 194.878 389.267 194.835 389.544V392.104C195.006 392.499 195.235 392.856 195.523 393.176C195.811 393.485 196.142 393.736 196.515 393.928C196.899 394.109 197.294 394.2 197.699 394.2ZM216.022 395H214.934V390.344C214.934 389.373 214.779 388.659 214.47 388.2C214.161 387.741 213.702 387.512 213.094 387.512C212.465 387.512 211.899 387.736 211.398 388.184C210.907 388.632 210.561 389.208 210.358 389.912V395H209.27V390.344C209.27 389.363 209.121 388.648 208.822 388.2C208.523 387.741 208.065 387.512 207.446 387.512C206.827 387.512 206.267 387.731 205.766 388.168C205.265 388.605 204.913 389.181 204.71 389.896V395H203.622V386.664H204.614V388.552C204.966 387.901 205.414 387.4 205.958 387.048C206.513 386.696 207.126 386.52 207.798 386.52C208.491 386.52 209.051 386.717 209.478 387.112C209.905 387.507 210.166 388.024 210.262 388.664C210.646 387.96 211.105 387.427 211.638 387.064C212.182 386.701 212.795 386.52 213.478 386.52C213.947 386.52 214.342 386.605 214.662 386.776C214.993 386.947 215.254 387.192 215.446 387.512C215.649 387.821 215.793 388.2 215.878 388.648C215.974 389.085 216.022 389.576 216.022 390.12V395ZM221.925 395.16C221.328 395.16 220.773 395.048 220.261 394.824C219.749 394.589 219.306 394.275 218.933 393.88C218.56 393.475 218.266 393.011 218.053 392.488C217.85 391.965 217.749 391.405 217.749 390.808C217.749 390.029 217.925 389.315 218.277 388.664C218.64 388.013 219.136 387.496 219.765 387.112C220.394 386.717 221.109 386.52 221.909 386.52C222.73 386.52 223.445 386.717 224.053 387.112C224.672 387.507 225.157 388.029 225.509 388.68C225.861 389.32 226.037 390.024 226.037 390.792C226.037 390.877 226.037 390.963 226.037 391.048C226.037 391.123 226.032 391.181 226.021 391.224H218.885C218.938 391.821 219.104 392.355 219.381 392.824C219.669 393.283 220.037 393.651 220.485 393.928C220.944 394.195 221.44 394.328 221.973 394.328C222.517 394.328 223.029 394.189 223.509 393.912C224 393.635 224.341 393.272 224.533 392.824L225.477 393.08C225.306 393.475 225.045 393.832 224.693 394.152C224.341 394.472 223.925 394.723 223.445 394.904C222.976 395.075 222.469 395.16 221.925 395.16ZM218.853 390.44H225.013C224.97 389.832 224.805 389.299 224.517 388.84C224.24 388.381 223.872 388.024 223.413 387.768C222.965 387.501 222.469 387.368 221.925 387.368C221.381 387.368 220.885 387.501 220.437 387.768C219.989 388.024 219.621 388.387 219.333 388.856C219.056 389.315 218.896 389.843 218.853 390.44ZM234.724 395H233.636V390.344C233.636 389.363 233.492 388.648 233.204 388.2C232.916 387.741 232.462 387.512 231.844 387.512C231.417 387.512 230.996 387.619 230.58 387.832C230.164 388.035 229.796 388.317 229.476 388.68C229.166 389.032 228.942 389.437 228.804 389.896V395H227.716V386.664H228.708V388.552C228.932 388.147 229.225 387.795 229.588 387.496C229.95 387.187 230.361 386.947 230.82 386.776C231.278 386.605 231.753 386.52 232.244 386.52C232.702 386.52 233.092 386.605 233.412 386.776C233.732 386.947 233.988 387.192 234.18 387.512C234.372 387.821 234.51 388.2 234.596 388.648C234.681 389.085 234.724 389.576 234.724 390.12V395ZM240.966 394.6C240.88 394.632 240.747 394.691 240.566 394.776C240.384 394.861 240.166 394.936 239.91 395C239.654 395.064 239.376 395.096 239.078 395.096C238.768 395.096 238.475 395.037 238.198 394.92C237.931 394.803 237.718 394.627 237.558 394.392C237.398 394.147 237.318 393.848 237.318 393.496V387.528H236.166V386.664H237.318V383.848H238.406V386.664H240.326V387.528H238.406V393.192C238.427 393.491 238.534 393.715 238.726 393.864C238.928 394.013 239.158 394.088 239.414 394.088C239.712 394.088 239.984 394.04 240.23 393.944C240.475 393.837 240.624 393.763 240.678 393.72L240.966 394.6ZM129.424 414V402.64H134.128C134.619 402.64 135.067 402.741 135.472 402.944C135.888 403.147 136.245 403.424 136.544 403.776C136.843 404.117 137.077 404.501 137.248 404.928C137.419 405.344 137.504 405.771 137.504 406.208C137.504 406.827 137.365 407.413 137.088 407.968C136.821 408.512 136.443 408.955 135.952 409.296C135.461 409.637 134.885 409.808 134.224 409.808H130.544V414H129.424ZM130.544 408.816H134.176C134.624 408.816 135.013 408.693 135.344 408.448C135.675 408.203 135.931 407.883 136.112 407.488C136.293 407.093 136.384 406.667 136.384 406.208C136.384 405.739 136.277 405.307 136.064 404.912C135.851 404.517 135.568 404.208 135.216 403.984C134.875 403.749 134.496 403.632 134.08 403.632H130.544V408.816ZM138.387 411.6C138.387 411.077 138.537 410.629 138.835 410.256C139.134 409.872 139.545 409.579 140.067 409.376C140.601 409.163 141.214 409.056 141.907 409.056C142.313 409.056 142.734 409.088 143.171 409.152C143.609 409.216 143.998 409.312 144.339 409.44V408.736C144.339 408.032 144.131 407.472 143.715 407.056C143.299 406.64 142.723 406.432 141.987 406.432C141.539 406.432 141.097 406.517 140.659 406.688C140.233 406.848 139.785 407.088 139.315 407.408L138.899 406.64C139.443 406.267 139.977 405.989 140.499 405.808C141.022 405.616 141.555 405.52 142.099 405.52C143.123 405.52 143.934 405.813 144.531 406.4C145.129 406.987 145.427 407.797 145.427 408.832V412.688C145.427 412.837 145.459 412.949 145.523 413.024C145.587 413.088 145.689 413.125 145.827 413.136V414C145.71 414.011 145.609 414.021 145.523 414.032C145.438 414.043 145.374 414.043 145.331 414.032C145.065 414.021 144.862 413.936 144.723 413.776C144.585 413.616 144.51 413.445 144.499 413.264L144.483 412.656C144.11 413.136 143.625 413.509 143.027 413.776C142.43 414.032 141.822 414.16 141.203 414.16C140.67 414.16 140.185 414.048 139.747 413.824C139.321 413.589 138.985 413.28 138.739 412.896C138.505 412.501 138.387 412.069 138.387 411.6ZM143.971 412.24C144.089 412.091 144.179 411.947 144.243 411.808C144.307 411.669 144.339 411.547 144.339 411.44V410.224C143.977 410.085 143.598 409.979 143.203 409.904C142.819 409.829 142.43 409.792 142.035 409.792C141.257 409.792 140.627 409.947 140.147 410.256C139.667 410.565 139.427 410.987 139.427 411.52C139.427 411.829 139.507 412.123 139.667 412.4C139.827 412.667 140.062 412.891 140.371 413.072C140.681 413.243 141.043 413.328 141.459 413.328C141.982 413.328 142.467 413.227 142.915 413.024C143.374 412.821 143.726 412.56 143.971 412.24ZM151.938 406.624C151.213 406.645 150.573 406.848 150.018 407.232C149.474 407.616 149.09 408.144 148.866 408.816V414H147.778V405.664H148.802V407.664C149.09 407.077 149.469 406.603 149.938 406.24C150.418 405.877 150.925 405.675 151.458 405.632C151.565 405.621 151.655 405.616 151.73 405.616C151.815 405.616 151.885 405.621 151.938 405.632V406.624ZM157.388 413.6C157.302 413.632 157.169 413.691 156.988 413.776C156.806 413.861 156.588 413.936 156.332 414C156.076 414.064 155.798 414.096 155.5 414.096C155.19 414.096 154.897 414.037 154.62 413.92C154.353 413.803 154.14 413.627 153.98 413.392C153.82 413.147 153.74 412.848 153.74 412.496V406.528H152.588V405.664H153.74V402.848H154.828V405.664H156.748V406.528H154.828V412.192C154.849 412.491 154.956 412.715 155.148 412.864C155.35 413.013 155.58 413.088 155.836 413.088C156.134 413.088 156.406 413.04 156.652 412.944C156.897 412.837 157.046 412.763 157.1 412.72L157.388 413.6ZM165.755 414H164.667V409.344C164.667 408.363 164.523 407.648 164.235 407.2C163.947 406.741 163.494 406.512 162.875 406.512C162.448 406.512 162.027 406.619 161.611 406.832C161.195 407.035 160.827 407.317 160.507 407.68C160.198 408.032 159.974 408.437 159.835 408.896V414H158.747V405.664H159.739V407.552C159.963 407.147 160.256 406.795 160.619 406.496C160.982 406.187 161.392 405.947 161.851 405.776C162.31 405.605 162.784 405.52 163.275 405.52C163.734 405.52 164.123 405.605 164.443 405.776C164.763 405.947 165.019 406.192 165.211 406.512C165.403 406.821 165.542 407.2 165.627 407.648C165.712 408.085 165.755 408.576 165.755 409.12V414ZM171.675 414.16C171.078 414.16 170.523 414.048 170.011 413.824C169.499 413.589 169.056 413.275 168.683 412.88C168.31 412.475 168.016 412.011 167.803 411.488C167.6 410.965 167.499 410.405 167.499 409.808C167.499 409.029 167.675 408.315 168.027 407.664C168.39 407.013 168.886 406.496 169.515 406.112C170.144 405.717 170.859 405.52 171.659 405.52C172.48 405.52 173.195 405.717 173.803 406.112C174.422 406.507 174.907 407.029 175.259 407.68C175.611 408.32 175.787 409.024 175.787 409.792C175.787 409.877 175.787 409.963 175.787 410.048C175.787 410.123 175.782 410.181 175.771 410.224H168.635C168.688 410.821 168.854 411.355 169.131 411.824C169.419 412.283 169.787 412.651 170.235 412.928C170.694 413.195 171.19 413.328 171.723 413.328C172.267 413.328 172.779 413.189 173.259 412.912C173.75 412.635 174.091 412.272 174.283 411.824L175.227 412.08C175.056 412.475 174.795 412.832 174.443 413.152C174.091 413.472 173.675 413.723 173.195 413.904C172.726 414.075 172.219 414.16 171.675 414.16ZM168.603 409.44H174.763C174.72 408.832 174.555 408.299 174.267 407.84C173.99 407.381 173.622 407.024 173.163 406.768C172.715 406.501 172.219 406.368 171.675 406.368C171.131 406.368 170.635 406.501 170.187 406.768C169.739 407.024 169.371 407.387 169.083 407.856C168.806 408.315 168.646 408.843 168.603 409.44ZM181.626 406.624C180.9 406.645 180.26 406.848 179.706 407.232C179.162 407.616 178.778 408.144 178.554 408.816V414H177.466V405.664H178.49V407.664C178.778 407.077 179.156 406.603 179.626 406.24C180.106 405.877 180.612 405.675 181.146 405.632C181.252 405.621 181.343 405.616 181.418 405.616C181.503 405.616 181.572 405.621 181.626 405.632V406.624ZM185.811 414.16C185.128 414.16 184.494 414.048 183.907 413.824C183.32 413.6 182.814 413.259 182.387 412.8L182.835 412.032C183.304 412.469 183.774 412.789 184.243 412.992C184.723 413.184 185.23 413.28 185.763 413.28C186.414 413.28 186.942 413.152 187.347 412.896C187.752 412.629 187.955 412.251 187.955 411.76C187.955 411.429 187.854 411.179 187.651 411.008C187.459 410.827 187.176 410.683 186.803 410.576C186.44 410.459 186.003 410.336 185.491 410.208C184.915 410.048 184.43 409.883 184.035 409.712C183.651 409.531 183.358 409.307 183.155 409.04C182.963 408.763 182.867 408.405 182.867 407.968C182.867 407.424 183 406.976 183.267 406.624C183.544 406.261 183.918 405.989 184.387 405.808C184.867 405.616 185.4 405.52 185.987 405.52C186.627 405.52 187.192 405.621 187.683 405.824C188.174 406.027 188.574 406.309 188.883 406.672L188.355 407.408C188.056 407.067 187.699 406.816 187.283 406.656C186.878 406.485 186.424 406.4 185.923 406.4C185.582 406.4 185.256 406.448 184.947 406.544C184.638 406.629 184.382 406.779 184.179 406.992C183.987 407.195 183.891 407.477 183.891 407.84C183.891 408.139 183.966 408.373 184.115 408.544C184.264 408.704 184.488 408.843 184.787 408.96C185.086 409.067 185.454 409.184 185.891 409.312C186.52 409.483 187.07 409.659 187.539 409.84C188.008 410.011 188.371 410.235 188.627 410.512C188.883 410.789 189.011 411.179 189.011 411.68C189.011 412.459 188.718 413.067 188.131 413.504C187.544 413.941 186.771 414.16 185.811 414.16Z" fill="black"/>
<rect x="42" y="137.896" width="74" height="74" rx="10" fill="white"/>
<rect x="42.5" y="138.396" width="73" height="73" rx="9.5" stroke="#003DDB" stroke-opacity="0.05"/>
<path d="M133.488 173.12C133.968 173.195 134.379 173.366 134.72 173.632C135.061 173.899 135.328 174.235 135.52 174.64C135.712 175.046 135.808 175.504 135.808 176.016C135.808 176.656 135.653 177.222 135.344 177.712C135.035 178.203 134.603 178.582 134.048 178.848C133.493 179.115 132.848 179.248 132.112 179.248C131.301 179.248 130.592 179.083 129.984 178.752C129.376 178.432 128.917 177.984 128.608 177.408L129.36 176.72C129.595 177.179 129.941 177.547 130.4 177.824C130.859 178.112 131.429 178.256 132.112 178.256C132.901 178.256 133.525 178.059 133.984 177.664C134.453 177.28 134.688 176.726 134.688 176C134.688 175.275 134.443 174.699 133.952 174.272C133.472 173.835 132.784 173.616 131.888 173.616H131.488V172.688H131.92C132.741 172.688 133.371 172.496 133.808 172.112C134.245 171.728 134.464 171.238 134.464 170.64C134.464 170.203 134.363 169.84 134.16 169.552C133.957 169.264 133.68 169.046 133.328 168.896C132.987 168.747 132.592 168.672 132.144 168.672C131.536 168.672 130.997 168.811 130.528 169.088C130.069 169.355 129.723 169.728 129.488 170.208L128.784 169.536C128.965 169.163 129.227 168.838 129.568 168.56C129.909 168.283 130.309 168.07 130.768 167.92C131.227 167.76 131.717 167.68 132.24 167.68C132.901 167.68 133.483 167.803 133.984 168.048C134.485 168.283 134.88 168.614 135.168 169.04C135.456 169.467 135.6 169.968 135.6 170.544C135.6 170.971 135.515 171.366 135.344 171.728C135.173 172.091 134.928 172.395 134.608 172.64C134.299 172.886 133.925 173.046 133.488 173.12ZM141.551 165.536L145.263 171.648L149.007 165.536H150.223L145.823 172.672V176.896H144.703V172.64L140.319 165.536H141.551ZM153.816 177.056C153.218 177.056 152.664 176.944 152.152 176.72C151.64 176.486 151.197 176.171 150.824 175.776C150.45 175.371 150.157 174.907 149.944 174.384C149.741 173.862 149.64 173.302 149.64 172.704C149.64 171.926 149.816 171.211 150.168 170.56C150.53 169.91 151.026 169.392 151.656 169.008C152.285 168.614 153 168.416 153.8 168.416C154.621 168.416 155.336 168.614 155.944 169.008C156.562 169.403 157.048 169.926 157.4 170.576C157.752 171.216 157.928 171.92 157.928 172.688C157.928 172.774 157.928 172.859 157.928 172.944C157.928 173.019 157.922 173.078 157.912 173.12H150.776C150.829 173.718 150.994 174.251 151.272 174.72C151.56 175.179 151.928 175.547 152.376 175.824C152.834 176.091 153.33 176.224 153.864 176.224C154.408 176.224 154.92 176.086 155.4 175.808C155.89 175.531 156.232 175.168 156.424 174.72L157.368 174.976C157.197 175.371 156.936 175.728 156.584 176.048C156.232 176.368 155.816 176.619 155.336 176.8C154.866 176.971 154.36 177.056 153.816 177.056ZM150.744 172.336H156.904C156.861 171.728 156.696 171.195 156.408 170.736C156.13 170.278 155.762 169.92 155.304 169.664C154.856 169.398 154.36 169.264 153.816 169.264C153.272 169.264 152.776 169.398 152.328 169.664C151.88 169.92 151.512 170.283 151.224 170.752C150.946 171.211 150.786 171.739 150.744 172.336ZM158.934 174.496C158.934 173.974 159.084 173.526 159.382 173.152C159.681 172.768 160.092 172.475 160.614 172.272C161.148 172.059 161.761 171.952 162.454 171.952C162.86 171.952 163.281 171.984 163.718 172.048C164.156 172.112 164.545 172.208 164.886 172.336V171.632C164.886 170.928 164.678 170.368 164.262 169.952C163.846 169.536 163.27 169.328 162.534 169.328C162.086 169.328 161.644 169.414 161.206 169.584C160.78 169.744 160.332 169.984 159.862 170.304L159.446 169.536C159.99 169.163 160.524 168.886 161.046 168.704C161.569 168.512 162.102 168.416 162.646 168.416C163.67 168.416 164.481 168.71 165.078 169.296C165.676 169.883 165.974 170.694 165.974 171.728V175.584C165.974 175.734 166.006 175.846 166.07 175.92C166.134 175.984 166.236 176.022 166.374 176.032V176.896C166.257 176.907 166.156 176.918 166.07 176.928C165.985 176.939 165.921 176.939 165.878 176.928C165.612 176.918 165.409 176.832 165.27 176.672C165.132 176.512 165.057 176.342 165.046 176.16L165.03 175.552C164.657 176.032 164.172 176.406 163.574 176.672C162.977 176.928 162.369 177.056 161.75 177.056C161.217 177.056 160.732 176.944 160.294 176.72C159.868 176.486 159.532 176.176 159.286 175.792C159.052 175.398 158.934 174.966 158.934 174.496ZM164.518 175.136C164.636 174.987 164.726 174.843 164.79 174.704C164.854 174.566 164.886 174.443 164.886 174.336V173.12C164.524 172.982 164.145 172.875 163.75 172.8C163.366 172.726 162.977 172.688 162.582 172.688C161.804 172.688 161.174 172.843 160.694 173.152C160.214 173.462 159.974 173.883 159.974 174.416C159.974 174.726 160.054 175.019 160.214 175.296C160.374 175.563 160.609 175.787 160.918 175.968C161.228 176.139 161.59 176.224 162.006 176.224C162.529 176.224 163.014 176.123 163.462 175.92C163.921 175.718 164.273 175.456 164.518 175.136ZM172.485 169.52C171.76 169.542 171.12 169.744 170.565 170.128C170.021 170.512 169.637 171.04 169.413 171.712V176.896H168.325V168.56H169.349V170.56C169.637 169.974 170.016 169.499 170.485 169.136C170.965 168.774 171.472 168.571 172.005 168.528C172.112 168.518 172.202 168.512 172.277 168.512C172.362 168.512 172.432 168.518 172.485 168.528V169.52ZM176.67 177.056C175.988 177.056 175.353 176.944 174.766 176.72C174.18 176.496 173.673 176.155 173.246 175.696L173.694 174.928C174.164 175.366 174.633 175.686 175.102 175.888C175.582 176.08 176.089 176.176 176.622 176.176C177.273 176.176 177.801 176.048 178.206 175.792C178.612 175.526 178.814 175.147 178.814 174.656C178.814 174.326 178.713 174.075 178.51 173.904C178.318 173.723 178.036 173.579 177.662 173.472C177.3 173.355 176.862 173.232 176.35 173.104C175.774 172.944 175.289 172.779 174.894 172.608C174.51 172.427 174.217 172.203 174.014 171.936C173.822 171.659 173.726 171.302 173.726 170.864C173.726 170.32 173.86 169.872 174.126 169.52C174.404 169.158 174.777 168.886 175.246 168.704C175.726 168.512 176.26 168.416 176.846 168.416C177.486 168.416 178.052 168.518 178.542 168.72C179.033 168.923 179.433 169.206 179.742 169.568L179.214 170.304C178.916 169.963 178.558 169.712 178.142 169.552C177.737 169.382 177.284 169.296 176.782 169.296C176.441 169.296 176.116 169.344 175.806 169.44C175.497 169.526 175.241 169.675 175.038 169.888C174.846 170.091 174.75 170.374 174.75 170.736C174.75 171.035 174.825 171.27 174.974 171.44C175.124 171.6 175.348 171.739 175.646 171.856C175.945 171.963 176.313 172.08 176.75 172.208C177.38 172.379 177.929 172.555 178.398 172.736C178.868 172.907 179.23 173.131 179.486 173.408C179.742 173.686 179.87 174.075 179.87 174.576C179.87 175.355 179.577 175.963 178.99 176.4C178.404 176.838 177.63 177.056 176.67 177.056ZM185.747 176.896V168.56H186.835V176.896H185.747ZM185.747 166.816V165.216H186.835V166.816H185.747ZM196.239 176.896H195.151V172.24C195.151 171.259 195.007 170.544 194.719 170.096C194.431 169.638 193.978 169.408 193.359 169.408C192.933 169.408 192.511 169.515 192.095 169.728C191.679 169.931 191.311 170.214 190.991 170.576C190.682 170.928 190.458 171.334 190.319 171.792V176.896H189.231V168.56H190.223V170.448C190.447 170.043 190.741 169.691 191.103 169.392C191.466 169.083 191.877 168.843 192.335 168.672C192.794 168.502 193.269 168.416 193.759 168.416C194.218 168.416 194.607 168.502 194.927 168.672C195.247 168.843 195.503 169.088 195.695 169.408C195.887 169.718 196.026 170.096 196.111 170.544C196.197 170.982 196.239 171.472 196.239 172.016V176.896ZM211.406 173.968C211.406 174.534 211.262 175.04 210.974 175.488C210.686 175.926 210.296 176.272 209.806 176.528C209.326 176.774 208.798 176.896 208.222 176.896H202.862V165.536H208.334C208.867 165.536 209.326 165.68 209.71 165.968C210.104 166.246 210.403 166.608 210.606 167.056C210.819 167.494 210.926 167.952 210.926 168.432C210.926 168.998 210.782 169.52 210.494 170C210.206 170.48 209.806 170.838 209.294 171.072C209.944 171.264 210.456 171.622 210.83 172.144C211.214 172.667 211.406 173.275 211.406 173.968ZM210.286 173.776C210.286 173.392 210.2 173.04 210.03 172.72C209.859 172.39 209.624 172.123 209.326 171.92C209.038 171.718 208.707 171.616 208.334 171.616H203.982V175.92H208.222C208.606 175.92 208.952 175.819 209.262 175.616C209.571 175.414 209.816 175.152 209.998 174.832C210.19 174.502 210.286 174.15 210.286 173.776ZM203.982 166.512V170.704H207.886C208.259 170.704 208.59 170.608 208.878 170.416C209.166 170.214 209.395 169.952 209.566 169.632C209.736 169.312 209.822 168.971 209.822 168.608C209.822 168.224 209.742 167.878 209.582 167.568C209.422 167.248 209.203 166.992 208.926 166.8C208.648 166.608 208.334 166.512 207.982 166.512H203.982ZM213.214 173.456V168.56H214.302V173.264C214.302 174.214 214.462 174.923 214.782 175.392C215.112 175.862 215.598 176.096 216.238 176.096C216.664 176.096 217.075 176.006 217.47 175.824C217.875 175.632 218.232 175.366 218.542 175.024C218.851 174.672 219.086 174.267 219.246 173.808V168.56H220.334V175.584C220.334 175.734 220.366 175.846 220.43 175.92C220.494 175.984 220.59 176.022 220.718 176.032V176.896C220.59 176.907 220.488 176.912 220.414 176.912C220.339 176.923 220.27 176.928 220.206 176.928C219.992 176.907 219.806 176.822 219.646 176.672C219.496 176.523 219.416 176.342 219.406 176.128L219.374 175.008C219.011 175.648 218.515 176.15 217.886 176.512C217.267 176.875 216.595 177.056 215.87 177.056C214.995 177.056 214.334 176.752 213.886 176.144C213.438 175.536 213.214 174.64 213.214 173.456ZM225.53 177.056C224.847 177.056 224.212 176.944 223.626 176.72C223.039 176.496 222.532 176.155 222.106 175.696L222.554 174.928C223.023 175.366 223.492 175.686 223.962 175.888C224.442 176.08 224.948 176.176 225.482 176.176C226.132 176.176 226.66 176.048 227.066 175.792C227.471 175.526 227.674 175.147 227.674 174.656C227.674 174.326 227.572 174.075 227.37 173.904C227.178 173.723 226.895 173.579 226.522 173.472C226.159 173.355 225.722 173.232 225.21 173.104C224.634 172.944 224.148 172.779 223.754 172.608C223.37 172.427 223.076 172.203 222.874 171.936C222.682 171.659 222.586 171.302 222.586 170.864C222.586 170.32 222.719 169.872 222.986 169.52C223.263 169.158 223.636 168.886 224.106 168.704C224.586 168.512 225.119 168.416 225.706 168.416C226.346 168.416 226.911 168.518 227.402 168.72C227.892 168.923 228.292 169.206 228.602 169.568L228.074 170.304C227.775 169.963 227.418 169.712 227.002 169.552C226.596 169.382 226.143 169.296 225.642 169.296C225.3 169.296 224.975 169.344 224.666 169.44C224.356 169.526 224.1 169.675 223.898 169.888C223.706 170.091 223.61 170.374 223.61 170.736C223.61 171.035 223.684 171.27 223.834 171.44C223.983 171.6 224.207 171.739 224.506 171.856C224.804 171.963 225.172 172.08 225.61 172.208C226.239 172.379 226.788 172.555 227.258 172.736C227.727 172.907 228.09 173.131 228.346 173.408C228.602 173.686 228.73 174.075 228.73 174.576C228.73 175.355 228.436 175.963 227.85 176.4C227.263 176.838 226.49 177.056 225.53 177.056ZM230.528 176.896V168.56H231.616V176.896H230.528ZM230.528 166.816V165.216H231.616V166.816H230.528ZM241.021 176.896H239.933V172.24C239.933 171.259 239.789 170.544 239.501 170.096C239.213 169.638 238.759 169.408 238.141 169.408C237.714 169.408 237.293 169.515 236.877 169.728C236.461 169.931 236.093 170.214 235.773 170.576C235.463 170.928 235.239 171.334 235.101 171.792V176.896H234.013V168.56H235.005V170.448C235.229 170.043 235.522 169.691 235.885 169.392C236.247 169.083 236.658 168.843 237.117 168.672C237.575 168.502 238.05 168.416 238.541 168.416C238.999 168.416 239.389 168.502 239.709 168.672C240.029 168.843 240.285 169.088 240.477 169.408C240.669 169.718 240.807 170.096 240.892 170.544C240.978 170.982 241.021 171.472 241.021 172.016V176.896ZM246.941 177.056C246.343 177.056 245.789 176.944 245.277 176.72C244.765 176.486 244.322 176.171 243.949 175.776C243.575 175.371 243.282 174.907 243.069 174.384C242.866 173.862 242.765 173.302 242.765 172.704C242.765 171.926 242.941 171.211 243.293 170.56C243.655 169.91 244.151 169.392 244.781 169.008C245.41 168.614 246.125 168.416 246.925 168.416C247.746 168.416 248.461 168.614 249.069 169.008C249.687 169.403 250.173 169.926 250.525 170.576C250.877 171.216 251.053 171.92 251.053 172.688C251.053 172.774 251.053 172.859 251.053 172.944C251.053 173.019 251.047 173.078 251.037 173.12H243.901C243.954 173.718 244.119 174.251 244.397 174.72C244.685 175.179 245.053 175.547 245.501 175.824C245.959 176.091 246.455 176.224 246.989 176.224C247.533 176.224 248.045 176.086 248.525 175.808C249.015 175.531 249.357 175.168 249.549 174.72L250.493 174.976C250.322 175.371 250.061 175.728 249.709 176.048C249.357 176.368 248.941 176.619 248.461 176.8C247.991 176.971 247.485 177.056 246.941 177.056ZM243.869 172.336H250.029C249.986 171.728 249.821 171.195 249.533 170.736C249.255 170.278 248.887 169.92 248.429 169.664C247.981 169.398 247.485 169.264 246.941 169.264C246.397 169.264 245.901 169.398 245.453 169.664C245.005 169.92 244.637 170.283 244.349 170.752C244.071 171.211 243.911 171.739 243.869 172.336ZM255.467 177.056C254.785 177.056 254.15 176.944 253.563 176.72C252.977 176.496 252.47 176.155 252.043 175.696L252.491 174.928C252.961 175.366 253.43 175.686 253.899 175.888C254.379 176.08 254.886 176.176 255.419 176.176C256.07 176.176 256.598 176.048 257.003 175.792C257.409 175.526 257.611 175.147 257.611 174.656C257.611 174.326 257.51 174.075 257.307 173.904C257.115 173.723 256.833 173.579 256.459 173.472C256.097 173.355 255.659 173.232 255.147 173.104C254.571 172.944 254.086 172.779 253.691 172.608C253.307 172.427 253.014 172.203 252.811 171.936C252.619 171.659 252.523 171.302 252.523 170.864C252.523 170.32 252.657 169.872 252.923 169.52C253.201 169.158 253.574 168.886 254.043 168.704C254.523 168.512 255.057 168.416 255.643 168.416C256.283 168.416 256.849 168.518 257.339 168.72C257.83 168.923 258.23 169.206 258.539 169.568L258.011 170.304C257.713 169.963 257.355 169.712 256.939 169.552C256.534 169.382 256.081 169.296 255.579 169.296C255.238 169.296 254.913 169.344 254.603 169.44C254.294 169.526 254.038 169.675 253.835 169.888C253.643 170.091 253.547 170.374 253.547 170.736C253.547 171.035 253.622 171.27 253.771 171.44C253.921 171.6 254.145 171.739 254.443 171.856C254.742 171.963 255.11 172.08 255.547 172.208C256.177 172.379 256.726 172.555 257.195 172.736C257.665 172.907 258.027 173.131 258.283 173.408C258.539 173.686 258.667 174.075 258.667 174.576C258.667 175.355 258.374 175.963 257.787 176.4C257.201 176.838 256.427 177.056 255.467 177.056ZM263.202 177.056C262.519 177.056 261.884 176.944 261.298 176.72C260.711 176.496 260.204 176.155 259.778 175.696L260.226 174.928C260.695 175.366 261.164 175.686 261.634 175.888C262.114 176.08 262.62 176.176 263.154 176.176C263.804 176.176 264.332 176.048 264.738 175.792C265.143 175.526 265.346 175.147 265.346 174.656C265.346 174.326 265.244 174.075 265.042 173.904C264.85 173.723 264.567 173.579 264.194 173.472C263.831 173.355 263.394 173.232 262.882 173.104C262.306 172.944 261.82 172.779 261.426 172.608C261.042 172.427 260.748 172.203 260.546 171.936C260.354 171.659 260.258 171.302 260.258 170.864C260.258 170.32 260.391 169.872 260.658 169.52C260.935 169.158 261.308 168.886 261.778 168.704C262.258 168.512 262.791 168.416 263.378 168.416C264.018 168.416 264.583 168.518 265.074 168.72C265.564 168.923 265.964 169.206 266.274 169.568L265.746 170.304C265.447 169.963 265.09 169.712 264.674 169.552C264.268 169.382 263.815 169.296 263.314 169.296C262.972 169.296 262.647 169.344 262.338 169.44C262.028 169.526 261.772 169.675 261.57 169.888C261.378 170.091 261.282 170.374 261.282 170.736C261.282 171.035 261.356 171.27 261.506 171.44C261.655 171.6 261.879 171.739 262.178 171.856C262.476 171.963 262.844 172.08 263.282 172.208C263.911 172.379 264.46 172.555 264.93 172.736C265.399 172.907 265.762 173.131 266.018 173.408C266.274 173.686 266.402 174.075 266.402 174.576C266.402 175.355 266.108 175.963 265.522 176.4C264.935 176.838 264.162 177.056 263.202 177.056Z" fill="black"/>
<path d="M103.988 168.959L102.956 163.215C102.953 163.196 102.949 163.178 102.944 163.16C102.941 163.151 102.939 163.141 102.936 163.132C102.929 163.107 102.92 163.083 102.911 163.059C102.907 163.05 102.903 163.041 102.899 163.032C102.887 163.005 102.873 162.979 102.858 162.954C102.854 162.947 102.849 162.94 102.845 162.933C102.83 162.91 102.814 162.888 102.796 162.866C102.794 162.863 102.792 162.859 102.789 162.856L97.0139 155.939V149.774C97.0139 149.346 96.6676 149 96.2402 149H62.7596C62.3322 149 61.9859 149.346 61.9859 149.774V155.939L56.2157 162.851C56.2152 162.851 56.2148 162.852 56.2143 162.852L56.2115 162.856C56.2105 162.857 56.21 162.858 56.209 162.859C56.1882 162.885 56.1693 162.911 56.1517 162.939C56.1492 162.943 56.1465 162.947 56.1441 162.951C56.1274 162.978 56.1126 163.007 56.0993 163.036C56.0968 163.042 56.0944 163.048 56.0919 163.054C56.0796 163.083 56.0684 163.114 56.0598 163.145C56.0597 163.145 56.0594 163.146 56.0593 163.147C56.0531 163.169 56.0479 163.192 56.0437 163.215L55.0122 168.96C55.004 169.005 55 169.05 55 169.096C55 171.446 56.5467 173.441 58.6754 174.118V197.226C58.6754 197.654 59.0217 198 59.449 198H64.0798C64.5072 198 64.8535 197.654 64.8535 197.226C64.8535 196.799 64.5072 196.453 64.0798 196.453H60.2228V174.364C60.2383 174.364 60.2536 174.365 60.2691 174.365H60.7686C62.6688 174.365 64.3372 173.354 65.2643 171.842C66.1913 173.354 67.8594 174.365 69.7596 174.365H70.2591C72.1593 174.365 73.8278 173.354 74.7548 171.842C75.6819 173.354 77.35 174.365 79.2501 174.365H79.7496C81.6498 174.365 83.3179 173.354 84.2452 171.842C85.1722 173.354 86.8405 174.365 88.7405 174.365H89.2402C91.1405 174.365 92.8087 173.354 93.7358 171.842C94.6629 173.354 96.3312 174.365 98.2314 174.365H98.7309C98.7465 174.365 98.7617 174.364 98.7772 174.364V196.453H95.9996V182.843V178.717C95.9996 178.289 95.6533 177.943 95.2259 177.943H84.2452C83.8178 177.943 83.4716 178.289 83.4716 178.717V182.843V196.453H66.5549C66.1275 196.453 65.7812 196.799 65.7812 197.226C65.7812 197.654 66.1275 198 66.5549 198H84.2452H95.2257H99.5507C99.9781 198 100.324 197.654 100.324 197.226V174.118C102.453 173.441 104 171.446 104 169.096C104 169.05 103.996 169.005 103.988 168.959ZM94.452 196.453H85.0189V183.617H94.452V196.453ZM94.452 182.069H85.0189V179.49H94.452V182.069ZM63.5334 150.547H95.4666V155.295H63.5334V150.547ZM83.0358 162.578H75.9642L76.8352 156.842H82.1648L83.0358 162.578ZM64.4967 169C64.4926 169.032 64.4905 169.064 64.4905 169.096C64.4905 171.148 62.8208 172.818 60.7686 172.818H60.2691C58.2389 172.818 56.5831 171.184 56.548 169.162L57.4525 164.125H65.1094L64.4967 169ZM58.4591 162.578L63.2477 156.842H68.3253L65.5046 162.578H58.4591ZM73.9821 169.054C73.9814 169.068 73.981 169.082 73.981 169.096C73.981 171.148 72.3113 172.818 70.2591 172.818H69.7596C67.7229 172.818 66.063 171.173 66.0382 169.142L66.3355 166.777L66.6688 164.125H74.2477L73.9821 169.054ZM74.3991 162.578H67.229L70.0498 156.842H75.2701L74.3991 162.578ZM79.7497 172.818H79.2502C77.2047 172.818 75.5392 171.159 75.5286 169.116L75.5923 167.932L75.7974 164.125H83.2028L83.4297 168.338L83.4716 169.116C83.4609 171.159 81.7952 172.818 79.7497 172.818ZM83.7299 156.842H88.9502L91.771 162.578H84.6009L83.7299 156.842ZM89.2402 172.818H88.7405C86.6884 172.818 85.019 171.148 85.019 169.096C85.019 169.082 85.0186 169.068 85.0179 169.055L84.7523 164.125H92.3312L92.9618 169.143C92.9369 171.173 91.277 172.818 89.2402 172.818ZM93.4954 162.578L90.6747 156.842H95.7525L100.541 162.578H93.4954ZM98.7307 172.818H98.2312C96.1789 172.818 94.5095 171.148 94.5095 169.096C94.5095 169.064 94.5074 169.032 94.5034 169L93.8907 164.125H101.548L102.452 169.162C102.417 171.184 100.761 172.818 98.7307 172.818Z" fill="black"/>
<path d="M80.0902 177.943H64.072C63.6446 177.943 63.2983 178.289 63.2983 178.717V188.487C63.2983 188.915 63.6446 189.261 64.072 189.261H80.09C80.5174 189.261 80.8638 188.915 80.8638 188.487V178.717C80.8639 178.289 80.5175 177.943 80.0902 177.943ZM64.8457 187.714V179.49H79.3164V187.714H64.8457Z" fill="black"/>
<path d="M93.1168 152.147H66.0895C65.662 152.147 65.3158 152.494 65.3158 152.921C65.3158 153.348 65.662 153.695 66.0895 153.695H93.1168C93.5442 153.695 93.8905 153.348 93.8905 152.921C93.8905 152.494 93.5442 152.147 93.1168 152.147Z" fill="black"/>
<path d="M63.2236 55.546C63.2638 55.546 63.3039 55.5428 63.3435 55.5365L74.5086 53.7675C74.6338 53.7477 74.752 53.6971 74.8528 53.6203C74.9536 53.5436 75.0337 53.443 75.0861 53.3276L79.7551 43.0325C79.8122 42.9066 79.8341 42.7676 79.8186 42.6302C79.803 42.4929 79.7506 42.3623 79.6668 42.2523C79.583 42.1423 79.471 42.0571 79.3427 42.0057C79.2144 41.9542 79.0746 41.9385 78.938 41.9601L67.773 43.7291C67.6478 43.749 67.5295 43.7995 67.4288 43.8763C67.328 43.9531 67.2478 44.0537 67.1955 44.1691L62.5265 54.4641C62.4736 54.5807 62.4508 54.7088 62.4602 54.8365C62.4696 54.9641 62.5108 55.0875 62.5802 55.1951C62.6495 55.3027 62.7448 55.3912 62.8572 55.4525C62.9696 55.5138 63.0956 55.546 63.2236 55.546ZM68.8153 51.4826L71.6278 52.6736L66.1032 53.5489L68.8153 51.4826ZM69.2902 49.1958L68.75 45.1247L76.1783 43.9477L69.2902 49.1958ZM67.8874 50.2646L65.1753 52.331L67.4856 47.2369L67.8874 50.2646ZM73.9999 52.0152L70.2182 50.4138L77.1063 45.1657L73.9999 52.0152Z" fill="black"/>
<path d="M63.7399 39.7524C64.5615 39.1257 65.426 38.5573 66.3271 38.0514L65.579 36.7153C64.6153 37.2563 63.6906 37.8641 62.8119 38.5344C60.834 40.0413 59.1093 41.8484 57.8241 43.7603L59.0949 44.6145C60.2876 42.8402 61.8939 41.1589 63.7399 39.7524Z" fill="black"/>
<path d="M103.345 61.555C102.888 58.1935 101.209 54.6435 98.6176 51.5588C95.2669 47.5698 90.9359 44.9994 86.9716 44.6298C86.7488 44.0921 86.4575 43.5854 86.1049 43.1224L83.3209 39.4683C81.6687 37.2998 78.8268 36.2757 75.3185 36.5843C71.9391 36.8816 68.3132 38.3899 65.1088 40.8313C61.9044 43.2727 59.4878 46.3682 58.3042 49.5475C57.0754 52.848 57.3086 55.8598 58.9608 58.0283L60.5612 60.1288C60.2426 60.5651 59.978 61.0382 59.7731 61.5379L58.0337 65.7896C57.0015 68.3129 57.5586 71.282 59.6025 74.15C61.5713 76.9127 64.709 79.2743 68.4376 80.7996C71.1584 81.9126 73.9665 82.4876 76.584 82.4875C77.5278 82.4902 78.4701 82.4104 79.4 82.2489C82.868 81.6358 85.3464 79.9085 86.3786 77.3853L88.0132 73.3896C88.3041 73.5026 88.5956 73.6058 88.8876 73.6992C90.0428 74.0815 91.2502 74.2831 92.467 74.2968C94.3538 74.2968 96.0195 73.7388 97.3276 72.64L100.845 69.6854C102.933 67.932 103.821 65.0446 103.345 61.555ZM81.5327 66.9096L83.8769 64.9406C84.9075 66.0964 86.0533 67.1442 87.2965 68.0675L84.9863 70.0081C83.7246 69.1055 82.5663 68.0664 81.5327 66.9096ZM80.5483 65.7367C80.229 65.3288 79.9256 64.9118 79.6382 64.4858C79.6049 64.4281 79.5698 64.3711 79.5326 64.3152L79.5259 64.3196C78.9599 63.4673 78.4584 62.5739 78.0254 61.6469C78.682 61.2416 79.3258 60.7991 79.9568 60.3194C80.1213 60.194 80.2836 60.0668 80.4436 59.9378C81.1292 61.2935 81.9495 62.5767 82.8921 63.768L80.5483 65.7367ZM78.4032 66.5965C78.2494 66.9723 77.9527 67.2717 77.5782 67.4288C77.2037 67.5858 76.7822 67.5877 76.4064 67.434L76.4062 67.4339L72.8631 65.9845L73.8103 63.6691C74.8006 63.3224 75.7633 62.9017 76.6904 62.4104C77.1669 63.4187 77.7201 64.389 78.3453 65.3126C78.4475 65.5096 78.5056 65.7265 78.5156 65.9482C78.5255 66.1699 78.4872 66.3911 78.4032 66.5965V66.5965ZM76.6587 69.6762C76.7758 69.9555 76.8075 70.2633 76.7497 70.5606C76.6919 70.8578 76.5473 71.1313 76.3341 71.3464C76.1209 71.5615 75.8487 71.7085 75.5519 71.7689C75.2552 71.8293 74.9471 71.8003 74.6668 71.6857L71.1237 70.2362L72.2833 67.4017L75.8264 68.8512C76.0128 68.9268 76.1823 69.0387 76.3252 69.1803C76.4681 69.3219 76.5814 69.4905 76.6587 69.6762H76.6587ZM65.7625 60.9664C65.8444 60.9664 65.927 60.9651 66.0097 60.9635L67.5961 63.0456C65.5777 62.8604 63.9691 62.0752 62.9628 60.7544L62.83 60.5802C63.7849 60.8442 64.7718 60.9742 65.7625 60.9664ZM69.6129 63.0411C69.5827 63.0438 69.553 63.0456 69.523 63.0481L67.8188 60.8114C68.9207 60.6464 70.0043 60.3765 71.0548 60.0052L72.8594 62.3739C71.805 62.7145 70.7163 62.9382 69.6129 63.0411ZM76.5565 57.1197L78.4118 59.5549C77.1497 60.4568 75.7918 61.2167 74.3629 61.8206L72.5344 59.4207C73.9498 58.7924 75.2975 58.0214 76.5565 57.1197L76.5565 57.1197ZM79.6298 58.6269L77.7744 56.1917C78.978 55.2172 80.079 54.1225 81.0605 52.9246L82.889 55.3245C81.9274 56.5419 80.8344 57.6494 79.6298 58.6269L79.6298 58.6269ZM83.8215 54.0219L82.0168 51.6532C82.6535 50.739 83.2014 49.7659 83.653 48.7473L85.3571 50.984C85.3467 51.0123 85.337 51.0405 85.3265 51.0689C84.9344 52.1053 84.4297 53.0956 83.8215 54.0219L83.8215 54.0219ZM85.8662 49.1257L84.28 47.0438C84.5941 46.0173 84.7539 44.9498 84.7543 43.8763L84.8869 44.0504C85.8932 45.3711 86.2233 47.1305 85.8662 49.1257L85.8662 49.1257ZM59.7392 50.0818C60.8232 47.1702 63.0597 44.3176 66.0368 42.0493C69.0139 39.7811 72.3579 38.3819 75.4527 38.1096C75.8166 38.0776 76.171 38.0616 76.516 38.0617C78.9823 38.0617 80.9427 38.8737 82.1029 40.3963C83.4252 42.1319 83.5813 44.6245 82.5425 47.4149C81.4585 50.3264 79.2219 53.1791 76.2449 55.4474C73.2677 57.7156 69.9238 59.1148 66.8289 59.3871C63.8632 59.648 61.5022 58.8363 60.1796 57.1015L60.1787 57.1003L60.1787 57.1004C58.8564 55.3648 58.7003 52.8722 59.7392 50.0818V50.0818ZM61.7448 61.6824C63.2041 63.5978 65.5913 64.6204 68.5465 64.6204C68.9369 64.6204 69.3371 64.6024 69.7471 64.5664C70.4831 64.5001 71.2134 64.3823 71.9329 64.214L69.7065 69.6564L68.2893 69.0766L67.7094 70.4939L69.1267 71.0737L68.5469 72.4909L69.9642 73.0707L70.5439 71.6535L71.9612 72.2332L71.3814 73.6504L72.7986 74.2303L73.3784 72.813L74.0871 73.1029C74.6477 73.3322 75.2637 73.3902 75.8572 73.2694C76.4508 73.1486 76.9952 72.8546 77.4216 72.4244C77.848 71.9942 78.1373 71.4473 78.2528 70.8527C78.3684 70.2581 78.3051 69.6426 78.0708 69.0841C78.0455 69.0237 78.0178 68.9648 77.989 68.9066C78.3888 68.7685 78.7556 68.5489 79.066 68.2616C79.3765 67.9743 79.6238 67.6256 79.7925 67.2377C79.8144 67.264 79.8356 67.2906 79.8577 67.3168C81.8363 69.6723 84.1741 71.55 86.6079 72.7656C85.7265 74.6709 83.701 75.9893 80.8728 76.4894C77.8134 77.0303 74.2208 76.5477 70.7567 75.1306C67.2926 73.7134 64.3919 71.5396 62.5888 69.0096C60.8608 66.5848 60.3641 64.1372 61.1903 62.1177C61.2901 61.8759 61.4081 61.642 61.5435 61.4182L61.7448 61.6824ZM69.4729 76.2467L68.3137 79.0802C66.8966 78.4492 65.5534 77.6636 64.3087 76.7378L65.4511 73.9453C66.71 74.8471 68.0576 75.6183 69.4729 76.2467L69.4729 76.2467ZM70.8907 76.8252C72.3405 77.3693 73.8419 77.7642 75.3718 78.0037L74.2294 80.7963C72.6927 80.5842 71.1841 80.2032 69.731 79.66L70.8907 76.8252ZM59.451 66.3695L59.5338 66.167C59.813 67.2035 60.2446 68.1928 60.8145 69.1025L59.8235 71.5249C58.9605 69.691 58.8223 67.9063 59.451 66.3695ZM60.8495 73.2613C60.8319 73.2366 60.8152 73.2119 60.7979 73.1872L61.8626 70.5848C62.5632 71.4511 63.345 72.2484 64.1974 72.9659L63.0699 75.722C62.2419 74.9855 61.4973 74.1603 60.8495 73.2613ZM75.825 80.9401L76.9527 78.1834C77.4142 78.2175 77.8718 78.2358 78.3234 78.2358C78.9795 78.2363 79.6352 78.1982 80.2869 78.1216L79.2221 80.7244C79.1924 80.7299 79.1632 80.7358 79.1334 80.7411C78.0412 80.9283 76.9318 80.9951 75.825 80.9401ZM81.0822 80.2217L82.0732 77.7992C83.1173 77.5498 84.1185 77.1467 85.0442 76.603L84.9614 76.8055C84.3326 78.3423 82.9832 79.5185 81.0822 80.2217ZM86.3319 70.8775L88.612 68.9623C89.5555 69.5549 90.5535 70.0558 91.5923 70.4584L89.4393 72.2669C89.4105 72.2579 89.3819 72.2496 89.353 72.2404C88.2991 71.8981 87.286 71.4411 86.3319 70.8775ZM96.3427 71.4676C95.0713 72.5355 93.3296 72.949 91.3197 72.6871L93.3238 71.0037C94.194 71.2227 95.0872 71.3363 95.9845 71.3422C96.1624 71.3422 96.3377 71.3356 96.5116 71.3257L96.3427 71.4676ZM99.8602 68.513C98.1894 69.9163 95.7071 70.1907 92.8705 69.2858C89.9107 68.3415 86.9549 66.2432 84.5476 63.3773C83.3955 62.0155 82.4198 60.5138 81.6436 58.9078C84.0091 56.7351 85.7958 54.1971 86.7615 51.6032C87.4786 49.677 87.6969 47.8496 87.4267 46.2303C90.8024 46.7624 94.5659 49.116 97.4451 52.5437C99.8524 55.4095 101.409 58.6832 101.828 61.7616C102.23 64.7119 101.531 67.1096 99.8602 68.513H99.8602Z" fill="black"/>
<path d="M96.0689 55.871C95.4218 55.815 94.7737 55.9659 94.218 56.3021C93.6623 56.6382 93.2277 57.1422 92.9769 57.7413L91.701 57.3687L91.5542 56.048C92.2809 55.8842 92.9229 55.4612 93.3602 54.8582C93.7976 54.2552 94.0002 53.5135 93.9302 52.7719C93.8602 52.0304 93.5224 51.3397 92.98 50.8292C92.4376 50.3186 91.7277 50.0232 90.9832 49.9982C90.2388 49.9733 89.5107 50.2204 88.9353 50.6934C88.3599 51.1664 87.9765 51.8328 87.8569 52.5681C87.7374 53.3033 87.8898 54.0569 88.2857 54.6878C88.6815 55.3188 89.2938 55.7839 90.0078 55.9961L90.1902 57.6378L89.8439 57.9286C89.2374 57.4964 88.4942 57.3001 87.7534 57.3766C87.0126 57.4531 86.3251 57.7972 85.8198 58.3443C85.3145 58.8914 85.0261 59.604 85.0085 60.3485C84.991 61.093 85.2456 61.8184 85.7246 62.3887C86.2036 62.9589 86.8742 63.3349 87.6105 63.4462C88.3469 63.5575 89.0986 63.3964 89.7247 62.9931C90.3508 62.5898 90.8084 61.9721 91.0117 61.2556C91.2149 60.5391 91.1499 59.7731 90.8288 59.1012L91.1751 58.8103L92.7606 59.2733C92.8419 59.9743 93.1627 60.6258 93.6688 61.1177C94.1748 61.6095 94.8352 61.9117 95.5382 61.973C95.6288 61.9808 95.719 61.9848 95.8088 61.9848C96.5279 61.9854 97.224 61.7311 97.7733 61.2669V61.267C98.2371 60.8774 98.575 60.359 98.7442 59.7774C98.9134 59.1958 98.9063 58.5771 98.7238 57.9995C98.5414 57.422 98.1918 56.9115 97.7192 56.5326C97.2466 56.1537 96.6723 55.9235 96.0689 55.871V55.871ZM89.7067 54.0443C89.4788 53.7731 89.352 53.4312 89.348 53.0769C89.3439 52.7227 89.4628 52.378 89.6845 52.1015C89.9061 51.8251 90.2167 51.6341 90.5633 51.561C90.91 51.4879 91.2713 51.5373 91.5856 51.7007C91.8999 51.8642 92.1479 52.1315 92.2872 52.4573C92.4265 52.783 92.4485 53.147 92.3496 53.4872C92.2506 53.8273 92.0368 54.1227 91.7444 54.3229C91.4521 54.523 91.0995 54.6157 90.7465 54.585C90.5461 54.5681 90.3509 54.5116 90.1724 54.4188C89.994 54.326 89.8356 54.1987 89.7067 54.0443ZM89.5906 60.5553C89.5648 60.8513 89.4535 61.1333 89.2702 61.3671C89.087 61.6008 88.8396 61.7763 88.5584 61.8719C88.2772 61.9676 87.9742 61.9794 87.6864 61.9059C87.3986 61.8324 87.1384 61.6768 86.9375 61.458C86.7366 61.2392 86.6036 60.9667 86.5549 60.6737C86.5061 60.3807 86.5437 60.0798 86.6629 59.8077C86.7822 59.5357 86.978 59.3042 87.2265 59.1415C87.475 58.9787 87.7655 58.8918 88.0625 58.8913C88.1074 58.8913 88.1526 58.8932 88.1978 58.8972C88.3981 58.9146 88.5931 58.9713 88.7715 59.0641C88.9499 59.1568 89.1083 59.2838 89.2376 59.4378C89.367 59.5918 89.4647 59.7697 89.5253 59.9615C89.5858 60.1532 89.608 60.355 89.5906 60.5553ZM97.329 59.0547C97.3122 59.2551 97.2557 59.4502 97.1629 59.6287C97.0701 59.8072 96.9428 59.9655 96.7884 60.0944V60.0945C96.6 60.2527 96.3762 60.3632 96.136 60.4166C95.8958 60.47 95.6462 60.4647 95.4085 60.4012C95.1707 60.3377 94.9518 60.2178 94.7702 60.0518C94.5887 59.8857 94.4498 59.6783 94.3654 59.4472C94.2809 59.216 94.2535 58.9679 94.2853 58.7239C94.3171 58.4799 94.4072 58.2472 94.5481 58.0454C94.6889 57.8436 94.8763 57.6787 95.0944 57.5648C95.3125 57.4508 95.5549 57.391 95.8009 57.3906C95.8458 57.3906 95.8909 57.3926 95.9362 57.3965C96.1365 57.4139 96.3315 57.4706 96.5099 57.5634C96.6883 57.6561 96.8467 57.7831 96.976 57.9371C97.1054 58.0911 97.2031 58.269 97.2637 58.4608C97.3243 58.6525 97.3465 58.8543 97.329 59.0547V59.0547Z" fill="black"/>
<path d="M99.742 49.8934C99.9835 50.1809 100.22 50.4775 100.446 50.7749L101.666 49.8499C101.425 49.5322 101.172 49.2154 100.915 48.9085C98.4765 46.006 95.453 43.8017 92.401 42.7015L91.8817 44.142C94.6836 45.152 97.4751 47.1945 99.742 49.8934Z" fill="black"/>
<path d="M90.6131 42.1867C90.0724 42.07 89.5239 41.9924 88.972 41.9548L88.8716 43.4828C89.3496 43.5155 89.8246 43.5828 90.2929 43.6841L90.6131 42.1867Z" fill="black"/>
<path d="M90.5457 76.3494L90.443 76.351L90.4632 77.8821L90.5731 77.8804C91.0638 77.8718 91.5589 77.848 92.0446 77.8096L91.9241 76.2831C91.4694 76.3191 91.0058 76.3414 90.5457 76.3494Z" fill="black"/>
<path d="M93.4032 76.1155L93.628 77.6302C96.3094 77.2323 98.7911 76.3731 100.805 75.1454L100.008 73.838C98.1674 74.9599 95.8837 75.7474 93.4032 76.1155Z" fill="black"/>
<defs>
<filter id="filter0_d_607_1235" x="0" y="0" width="322" height="128" filterUnits="userSpaceOnUse" color-interpolation-filters="sRGB">
<feFlood flood-opacity="0" result="BackgroundImageFix"/>
<feColorMatrix in="SourceAlpha" type="matrix" values="0 0 0 0 0 0 0 0 0 0 0 0 0 0 0 0 0 0 127 0" result="hardAlpha"/>
<feOffset dy="4"/>
<feGaussianBlur stdDeviation="10"/>
<feComposite in2="hardAlpha" operator="out"/>
<feColorMatrix type="matrix" values="0 0 0 0 0 0 0 0 0 0 0 0 0 0 0 0 0 0 0.15 0"/>
<feBlend mode="normal" in2="BackgroundImageFix" result="effect1_dropShadow_607_1235"/>
<feBlend mode="normal" in="SourceGraphic" in2="effect1_dropShadow_607_1235" result="shape"/>
</filter>
<filter id="filter1_d_607_1235" x="0" y="115" width="322" height="128" filterUnits="userSpaceOnUse" color-interpolation-filters="sRGB">
<feFlood flood-opacity="0" result="BackgroundImageFix"/>
<feColorMatrix in="SourceAlpha" type="matrix" values="0 0 0 0 0 0 0 0 0 0 0 0 0 0 0 0 0 0 127 0" result="hardAlpha"/>
<feOffset dy="4"/>
<feGaussianBlur stdDeviation="10"/>
<feComposite in2="hardAlpha" operator="out"/>
<feColorMatrix type="matrix" values="0 0 0 0 0 0 0 0 0 0 0 0 0 0 0 0 0 0 0.15 0"/>
<feBlend mode="normal" in2="BackgroundImageFix" result="effect1_dropShadow_607_1235"/>
<feBlend mode="normal" in="SourceGraphic" in2="effect1_dropShadow_607_1235" result="shape"/>
</filter>
<filter id="filter2_d_607_1235" x="0" y="231" width="322" height="128" filterUnits="userSpaceOnUse" color-interpolation-filters="sRGB">
<feFlood flood-opacity="0" result="BackgroundImageFix"/>
<feColorMatrix in="SourceAlpha" type="matrix" values="0 0 0 0 0 0 0 0 0 0 0 0 0 0 0 0 0 0 127 0" result="hardAlpha"/>
<feOffset dy="4"/>
<feGaussianBlur stdDeviation="10"/>
<feComposite in2="hardAlpha" operator="out"/>
<feColorMatrix type="matrix" values="0 0 0 0 0 0 0 0 0 0 0 0 0 0 0 0 0 0 0.15 0"/>
<feBlend mode="normal" in2="BackgroundImageFix" result="effect1_dropShadow_607_1235"/>
<feBlend mode="normal" in="SourceGraphic" in2="effect1_dropShadow_607_1235" result="shape"/>
</filter>
<filter id="filter3_d_607_1235" x="0" y="343" width="322" height="128" filterUnits="userSpaceOnUse" color-interpolation-filters="sRGB">
<feFlood flood-opacity="0" result="BackgroundImageFix"/>
<feColorMatrix in="SourceAlpha" type="matrix" values="0 0 0 0 0 0 0 0 0 0 0 0 0 0 0 0 0 0 127 0" result="hardAlpha"/>
<feOffset dy="4"/>
<feGaussianBlur stdDeviation="10"/>
<feComposite in2="hardAlpha" operator="out"/>
<feColorMatrix type="matrix" values="0 0 0 0 0 0 0 0 0 0 0 0 0 0 0 0 0 0 0.15 0"/>
<feBlend mode="normal" in2="BackgroundImageFix" result="effect1_dropShadow_607_1235"/>
<feBlend mode="normal" in="SourceGraphic" in2="effect1_dropShadow_607_1235" result="shape"/>
</filter>
<clipPath id="clip0_607_1235">
<rect width="40.8619" height="40.8619" fill="white" transform="translate(60 270)"/>
</clipPath>
<clipPath id="clip1_607_1235">
<rect width="42.1155" height="42.1155" fill="white" transform="translate(58 382)"/>
</clipPath>
</defs>
</svg>
