<svg width="293" height="94" viewBox="0 0 293 94" fill="none" xmlns="http://www.w3.org/2000/svg">
<g clip-path="url(#clip0_114_250)">
<path fill-rule="evenodd" clip-rule="evenodd" d="M23.3459 4.04335e-06H269.667C270.547 4.04335e-06 271.441 -0.000301457 272.322 0.00439854C272.93 0.00813913 273.552 0.0180021 274.166 0.0277373C274.304 0.0299284 274.442 0.0321131 274.579 0.03422C276.22 0.0517223 277.857 0.190596 279.476 0.449606C281.101 0.714969 282.676 1.21159 284.148 1.92306C287.093 3.37466 289.49 5.67571 291.001 8.50259C291.74 9.91114 292.251 11.4193 292.517 12.9754C292.79 14.5306 292.942 16.1032 292.971 17.6801C292.981 18.4007 292.981 19.1236 292.981 19.8442C293 20.6956 293 21.5493 293 22.4099V71.5923C293 72.4599 293 73.309 292.981 74.1627C292.981 74.8924 292.981 75.5993 292.971 76.3292C292.942 77.906 292.79 79.4785 292.517 81.0336C292.252 82.5906 291.74 84.0997 291.001 85.5087C290.25 86.9111 289.274 88.1913 288.108 89.3023C286.951 90.4229 285.614 91.3581 284.148 92.0723C282.676 92.7857 281.101 93.2852 279.476 93.5547C277.857 93.8116 276.22 93.9505 274.579 93.9702C273.833 93.9861 273.068 93.9953 272.322 93.9953C271.441 94 270.547 94 269.667 94H23.3459C22.448 94 21.5609 94 20.6654 93.9953C19.9158 93.9953 19.1721 93.9861 18.4153 93.9702C16.7713 93.9494 15.1312 93.8105 13.5087 93.5547C11.8887 93.2871 10.3197 92.7874 8.85439 92.0723C7.38732 91.3586 6.04918 90.4233 4.89109 89.3023C3.72229 88.1957 2.74804 86.9145 2.0062 85.5087C1.26125 84.1007 0.745173 82.5915 0.47587 81.0336C0.20326 79.4787 0.0565628 77.9058 0.0370951 76.3292C0.0215713 75.8305 0.0155333 75.3426 0.00944753 74.8508C0.00662549 74.6227 0.00379318 74.3939 0 74.1627V19.8442C0.00383813 19.6132 0.00669249 19.382 0.00954785 19.1507C0.0156 18.6604 0.0216566 18.1697 0.0370951 17.6802C0.0565569 16.1034 0.203254 14.5305 0.47587 12.9755C0.745919 11.4185 1.26197 9.91021 2.0062 8.50268C2.74837 7.09234 3.72249 5.806 4.89109 4.69312C6.05359 3.5771 7.39086 2.64251 8.85439 1.92327C10.3197 1.21006 11.8889 0.713306 13.5087 0.449818C15.1309 0.191943 16.7712 0.0531183 18.4153 0.034549C18.5724 0.0321633 18.729 0.0296845 18.8852 0.0272119C19.4812 0.0177744 20.0714 0.0084283 20.6654 0.00470404C21.5609 4.04345e-06 22.448 4.04335e-06 23.3459 4.04335e-06ZM18.2486 91.9257C18.99 91.9416 19.7192 91.9508 20.4665 91.9508L269.887 91.9555L272.545 91.9508C273.276 91.9508 274.028 91.9416 274.746 91.9257C276.283 91.9078 277.815 91.7796 279.331 91.5423C280.755 91.3109 282.134 90.8752 283.422 90.25C284.694 89.6307 285.853 88.8192 286.855 87.8466C287.859 86.8932 288.699 85.794 289.346 84.5895C289.995 83.3539 290.441 82.03 290.67 80.6642C290.921 79.2238 291.061 77.7677 291.089 76.3076C291.099 75.5869 291.099 74.8867 291.099 74.1223C291.118 73.2823 291.118 72.449 291.118 71.5951V22.4024C291.118 21.5566 291.118 20.7176 291.099 19.8362C291.099 19.1246 291.099 18.4096 291.092 17.7439C291.063 16.2573 290.92 14.7748 290.666 13.308C290.434 11.9601 289.992 10.6534 289.353 9.43228C288.046 6.99034 285.975 5.0014 283.429 3.74425C282.138 3.12249 280.756 2.68849 279.331 2.45654C277.824 2.21951 276.3 2.09176 274.773 2.07437L272.533 2.04452H20.4678L18.2546 2.07322C16.7133 2.09152 15.1756 2.22042 13.6544 2.45884C12.2435 2.68792 10.8765 3.11891 9.59925 3.73737C8.32863 4.36117 7.16799 5.17213 6.15966 6.14067C5.15019 7.1001 4.30937 8.20972 3.66978 9.42654C3.0204 10.6561 2.57089 11.9736 2.3368 13.3333C2.08523 14.7881 1.9495 16.2591 1.9308 17.7336C1.91645 18.211 1.89477 19.8362 1.89477 19.8362V74.1339C1.89477 74.1339 1.91513 75.7844 1.93068 76.2801C1.95021 77.7569 2.08673 79.2302 2.33906 80.6873C2.57272 82.0433 3.02188 83.3569 3.6709 84.5825C4.31285 85.8002 5.15837 86.9089 6.17396 87.865C7.17505 88.8324 8.33199 89.6392 9.60045 90.2545C10.8806 90.8749 12.2502 91.3089 13.664 91.5423C15.1802 91.7783 16.7126 91.9065 18.2486 91.9257Z" fill="#A6A6A6"/>
<path d="M20.4666 91.9508C19.7193 91.9508 18.99 91.9416 18.2486 91.9256C16.7126 91.9065 15.1802 91.7783 13.664 91.5423C12.2502 91.3089 10.8807 90.8749 9.60046 90.2544C8.332 89.6391 7.17506 88.8323 6.17397 87.8649C5.15838 86.9089 4.31286 85.8001 3.67091 84.5825C3.02189 83.3569 2.57272 82.0432 2.33907 80.6872C2.08674 79.2302 1.95022 77.7569 1.93068 76.2801C1.91513 75.7843 1.89478 74.1338 1.89478 74.1338V19.8362C1.89478 19.8362 1.91646 18.211 1.93081 17.7336C1.94951 16.259 2.08524 14.788 2.33681 13.3333C2.5709 11.9736 3.02041 10.6561 3.66978 9.42652C4.30937 8.2097 5.1502 7.10007 6.15967 6.14065C7.168 5.17211 8.32864 4.36115 9.59926 3.73734C10.8765 3.11889 12.2435 2.6879 13.6544 2.45882C15.1756 2.2204 16.7133 2.0915 18.2546 2.07319L20.4678 2.04449H272.533L274.773 2.07435C276.3 2.09174 277.824 2.21949 279.331 2.45651C280.756 2.68847 282.138 3.12247 283.429 3.74423C285.975 5.00138 288.046 6.99031 289.353 9.43225C289.992 10.6534 290.434 11.9601 290.666 13.308C290.92 14.7747 291.063 16.2573 291.092 17.7439C291.099 18.4096 291.099 19.1246 291.099 19.8362C291.118 20.7176 291.118 21.5566 291.118 22.4024V71.5951C291.118 72.449 291.118 73.2823 291.099 74.1223C291.099 74.8867 291.099 75.5869 291.089 76.3076C291.061 77.7676 290.921 79.2237 290.67 80.6642C290.441 82.03 289.995 83.3539 289.346 84.5895C288.699 85.794 287.859 86.8932 286.855 87.8466C285.853 88.8192 284.694 89.6307 283.422 90.25C282.134 90.8752 280.755 91.3108 279.331 91.5423C277.815 91.7796 276.283 91.9077 274.746 91.9256C274.028 91.9416 273.276 91.9508 272.545 91.9508L269.887 91.9555L20.4666 91.9508Z" fill="white"/>
<path d="M71.1823 47.7066C71.2056 45.7451 71.6868 43.8219 72.5811 42.1159C73.4753 40.41 74.7536 38.9766 76.2969 37.9492C75.3165 36.4331 74.023 35.1854 72.5194 34.3052C71.0157 33.425 69.3431 32.9366 67.6346 32.8787C63.99 32.4645 60.4568 35.24 58.5996 35.24C56.7064 35.24 53.847 32.9198 50.7678 32.9884C48.7761 33.0581 46.835 33.6852 45.1337 34.8086C43.4324 35.9321 42.0289 37.5135 41.0599 39.3989C36.8624 47.2677 39.9934 58.8322 44.0142 65.1927C46.0259 68.3073 48.377 71.7863 51.4534 71.6629C54.4639 71.5277 55.5882 69.5844 59.2221 69.5844C62.8222 69.5844 63.8771 71.6629 67.0159 71.5845C70.2462 71.5277 72.2815 68.4561 74.2226 65.312C75.668 63.0928 76.7803 60.64 77.5181 58.0446C75.6414 57.1852 74.0398 55.7465 72.9132 53.9081C71.7865 52.0698 71.1845 49.9129 71.1823 47.7066V47.7066Z" fill="black"/>
<path d="M65.2538 28.6956C67.0151 26.4062 67.8828 23.4636 67.6727 20.4926C64.9818 20.7986 62.4961 22.1911 60.711 24.3927C59.8382 25.4682 59.1698 26.7194 58.7438 28.0748C58.3179 29.4303 58.1429 30.8633 58.2288 32.292C59.5747 32.307 60.9062 31.9911 62.1231 31.3681C63.3399 30.7452 64.4104 29.8314 65.2538 28.6956Z" fill="black"/>
<path d="M109.236 63.7782H98.963L96.4959 71.6658H92.1445L101.875 42.4835H106.396L116.127 71.6658H111.701L109.236 63.7782ZM100.027 60.1384H108.17L104.156 47.3373H104.044L100.027 60.1384Z" fill="black"/>
<path d="M137.142 61.0289C137.142 67.6405 133.873 71.8884 128.941 71.8884C127.692 71.9592 126.449 71.6476 125.356 70.9893C124.262 70.3309 123.362 69.3525 122.759 68.166H122.665V78.7043H118.632V50.3896H122.536V53.9284H122.61C123.242 52.7476 124.157 51.7742 125.259 51.1119C126.361 50.4496 127.608 50.123 128.867 50.167C133.854 50.167 137.142 54.4355 137.142 61.0289ZM132.996 61.0289C132.996 56.7213 130.94 53.8894 127.803 53.8894C124.721 53.8894 122.648 56.781 122.648 61.0289C122.648 65.3158 124.721 68.1867 127.803 68.1867C130.94 68.1867 132.996 65.3755 132.996 61.0289Z" fill="black"/>
<path d="M158.769 61.0289C158.769 67.6405 155.501 71.8884 150.569 71.8884C149.319 71.9592 148.077 71.6476 146.983 70.9893C145.89 70.3309 144.99 69.3525 144.386 68.166H144.293V78.7043H140.259V50.3896H144.163V53.9284H144.238C144.869 52.7476 145.784 51.7742 146.886 51.1119C147.988 50.4496 149.235 50.123 150.494 50.167C155.482 50.167 158.769 54.4355 158.769 61.0289ZM154.623 61.0289C154.623 56.7213 152.567 53.8894 149.43 53.8894C146.349 53.8894 144.276 56.781 144.276 61.0289C144.276 65.3158 146.349 68.1867 149.43 68.1867C152.567 68.1867 154.623 65.3755 154.623 61.0289Z" fill="black"/>
<path d="M173.063 63.5349C173.362 66.4288 175.958 68.3289 179.506 68.3289C182.906 68.3289 185.352 66.4287 185.352 63.8194C185.352 61.5543 183.877 60.198 180.384 59.2686L176.891 58.3575C171.942 57.0631 169.644 54.5571 169.644 50.4905C169.644 45.4554 173.697 41.9969 179.451 41.9969C185.146 41.9969 189.05 45.4554 189.182 50.4905H185.11C184.866 47.5782 182.643 45.8203 179.394 45.8203C176.145 45.8203 173.921 47.5989 173.921 50.1875C173.921 52.2507 175.341 53.4647 178.815 54.394L181.785 55.1835C187.314 56.5995 189.612 59.0046 189.612 63.2731C189.612 68.7327 185.595 72.1521 179.207 72.1521C173.23 72.1521 169.195 68.813 168.934 63.5347L173.063 63.5349Z" fill="black"/>
<path d="M198.317 45.3545V50.3896H202.053V53.848H198.317V65.5774C198.317 67.3996 199.065 68.2487 200.708 68.2487C201.151 68.2403 201.594 68.2066 202.034 68.1476V71.5854C201.296 71.7348 200.545 71.8025 199.794 71.7874C195.816 71.7874 194.264 70.1695 194.264 66.0432V53.848H191.407V50.3896H194.264V45.3545H198.317Z" fill="black"/>
<path d="M204.218 61.0289C204.218 54.3346 207.859 50.128 213.537 50.128C219.234 50.128 222.859 54.3345 222.859 61.0289C222.859 67.7415 219.253 71.9297 213.537 71.9297C207.823 71.9297 204.218 67.7415 204.218 61.0289ZM218.749 61.0289C218.749 56.4367 216.805 53.7264 213.537 53.7264C210.269 53.7264 208.327 56.4574 208.327 61.0289C208.327 65.6394 210.269 68.329 213.537 68.329C216.805 68.329 218.749 65.6394 218.749 61.0289Z" fill="black"/>
<path d="M226.184 50.3896H230.031V54.0109H230.124C230.384 52.8799 230.996 51.8804 231.857 51.1804C232.718 50.4803 233.775 50.1225 234.851 50.167C235.316 50.1652 235.779 50.2199 236.233 50.3299V54.4149C235.646 54.2207 235.034 54.1316 234.42 54.151C233.834 54.1252 233.25 54.2371 232.708 54.4789C232.166 54.7206 231.678 55.0866 231.279 55.5517C230.88 56.0167 230.578 56.5698 230.395 57.173C230.212 57.7762 230.151 58.4151 230.217 59.046V71.6658H226.184L226.184 50.3896Z" fill="black"/>
<path d="M254.829 65.4167C254.286 69.2791 250.813 71.9297 246.368 71.9297C240.652 71.9297 237.104 67.7828 237.104 61.1298C237.104 54.4562 240.671 50.128 246.198 50.128C251.635 50.128 255.054 54.1716 255.054 60.6226V62.1189H241.175V62.3828C241.111 63.1659 241.202 63.9547 241.441 64.6969C241.68 65.4391 242.062 66.1178 242.562 66.6878C243.062 67.2577 243.668 67.706 244.341 68.0029C245.013 68.2997 245.736 68.4382 246.461 68.4093C247.414 68.506 248.371 68.267 249.189 67.7278C250.006 67.1886 250.641 66.3781 250.999 65.4167L254.829 65.4167ZM241.194 59.0667H251.018C251.054 58.3626 250.956 57.6581 250.729 56.9972C250.501 56.3364 250.151 55.7335 249.698 55.2265C249.245 54.7194 248.701 54.3191 248.099 54.0507C247.497 53.7823 246.85 53.6516 246.198 53.6667C245.542 53.6625 244.891 53.7991 244.283 54.0688C243.675 54.3384 243.122 54.7357 242.657 55.2378C242.192 55.7398 241.823 56.3366 241.572 56.9938C241.321 57.651 241.193 58.3555 241.194 59.0667Z" fill="black"/>
<path d="M99.5215 20.5179C100.367 20.4522 101.216 20.5905 102.006 20.9228C102.796 21.2552 103.508 21.7733 104.091 22.4399C104.674 23.1064 105.113 23.9047 105.377 24.7772C105.64 25.6496 105.722 26.5746 105.615 27.4852C105.615 31.9649 103.379 34.5399 99.5215 34.5399H94.8438V20.5179H99.5215ZM96.8551 32.5569H99.2968C99.9011 32.596 100.506 32.4888 101.067 32.2429C101.628 31.9971 102.131 31.6188 102.541 31.1358C102.95 30.6527 103.254 30.0769 103.432 29.4504C103.609 28.8238 103.656 28.1622 103.568 27.5138C103.649 26.868 103.598 26.2105 103.418 25.5885C103.238 24.9666 102.932 24.3955 102.524 23.9163C102.116 23.437 101.615 23.0615 101.057 22.8165C100.499 22.5716 99.898 22.4633 99.2968 22.4994H96.8551V32.5569Z" fill="black"/>
<path d="M107.887 29.2442C107.826 28.5488 107.899 27.8472 108.103 27.1843C108.307 26.5214 108.636 25.912 109.07 25.395C109.504 24.8781 110.033 24.465 110.623 24.1824C111.213 23.8997 111.851 23.7537 112.496 23.7537C113.141 23.7537 113.779 23.8997 114.369 24.1824C114.959 24.465 115.488 24.8781 115.922 25.395C116.356 25.912 116.686 26.5214 116.889 27.1843C117.093 27.8472 117.166 28.5488 117.105 29.2442C117.167 29.9403 117.095 30.6429 116.892 31.3069C116.689 31.9708 116.359 32.5814 115.925 33.0994C115.491 33.6173 114.962 34.0312 114.371 34.3145C113.781 34.5978 113.142 34.7441 112.496 34.7441C111.85 34.7441 111.211 34.5978 110.621 34.3145C110.03 34.0312 109.501 33.6173 109.067 33.0994C108.633 32.5814 108.303 31.9708 108.1 31.3069C107.897 30.6429 107.825 29.9403 107.887 29.2442ZM115.121 29.2442C115.121 26.9504 114.169 25.6091 112.499 25.6091C110.823 25.6091 109.88 26.9505 109.88 29.2442C109.88 31.5564 110.823 32.8874 112.499 32.8874C114.169 32.8874 115.121 31.5472 115.121 29.2442Z" fill="black"/>
<path d="M129.358 34.5397H127.357L125.337 26.7462H125.184L123.173 34.5397H121.191L118.497 23.9578H120.454L122.204 32.0324H122.349L124.358 23.9578H126.208L128.217 32.0324H128.37L130.112 23.9578H132.041L129.358 34.5397Z" fill="black"/>
<path d="M134.307 23.9578H136.163V25.6389H136.308C136.552 25.0351 136.964 24.529 137.487 24.191C138.01 23.8531 138.617 23.7002 139.224 23.7536C139.7 23.7149 140.177 23.7925 140.621 23.9807C141.065 24.169 141.464 24.4629 141.789 24.8409C142.114 25.2189 142.356 25.6712 142.498 26.1643C142.639 26.6574 142.677 27.1786 142.607 27.6894V34.5396H140.678V28.2138C140.678 26.5133 139.996 25.6676 138.569 25.6676C138.246 25.6513 137.924 25.7108 137.624 25.842C137.325 25.9732 137.055 26.173 136.833 26.4277C136.611 26.6824 136.443 26.986 136.34 27.3176C136.237 27.6493 136.201 28.0012 136.235 28.3492V34.5397H134.307L134.307 23.9578Z" fill="black"/>
<path d="M145.68 19.827H147.609V34.5397H145.68V19.827Z" fill="black"/>
<path d="M150.29 29.2442C150.229 28.5488 150.302 27.8471 150.506 27.1842C150.709 26.5213 151.039 25.9118 151.473 25.3949C151.907 24.8779 152.436 24.4648 153.026 24.1822C153.616 23.8995 154.254 23.7535 154.899 23.7535C155.545 23.7535 156.183 23.8995 156.773 24.1822C157.363 24.4648 157.892 24.8779 158.326 25.3949C158.76 25.9118 159.089 26.5213 159.293 27.1842C159.497 27.8471 159.57 28.5488 159.509 29.2442C159.571 29.9404 159.499 30.643 159.295 31.3069C159.092 31.9708 158.763 32.5814 158.329 33.0994C157.895 33.6173 157.365 34.0312 156.775 34.3145C156.184 34.5977 155.545 34.744 154.899 34.744C154.253 34.744 153.614 34.5977 153.024 34.3145C152.433 34.0312 151.904 33.6173 151.47 33.0994C151.036 32.5814 150.706 31.9708 150.503 31.3069C150.3 30.643 150.227 29.9404 150.29 29.2442ZM157.524 29.2442C157.524 26.9504 156.572 25.6091 154.902 25.6091C153.225 25.6091 152.282 26.9505 152.282 29.2442C152.282 31.5564 153.225 32.8874 154.902 32.8874C156.572 32.8874 157.524 31.5472 157.524 29.2442Z" fill="black"/>
<path d="M161.539 31.5472C161.539 29.6424 162.849 28.5443 165.174 28.3882L167.821 28.223V27.3096C167.821 26.192 167.139 25.5609 165.821 25.5609C164.744 25.5609 163.998 25.9889 163.784 26.737H161.916C162.114 24.9194 163.693 23.7536 165.91 23.7536C168.36 23.7536 169.742 25.0743 169.742 27.3096V34.5398H167.885V33.0526H167.732C167.423 33.5861 166.988 34.0209 166.472 34.3128C165.956 34.6047 165.378 34.7432 164.797 34.7141C164.387 34.7603 163.972 34.7129 163.58 34.575C163.187 34.437 162.826 34.2116 162.519 33.9132C162.212 33.6148 161.966 33.2501 161.798 32.8426C161.629 32.4351 161.541 31.9938 161.539 31.5472ZM167.821 30.643V29.7583L165.435 29.9235C164.089 30.021 163.479 30.5167 163.479 31.4496C163.479 32.402 164.242 32.9562 165.291 32.9562C165.598 32.9899 165.909 32.9563 166.204 32.8574C166.499 32.7585 166.773 32.5963 167.009 32.3805C167.245 32.1646 167.439 31.8996 167.578 31.6011C167.718 31.3026 167.801 30.9768 167.821 30.643Z" fill="black"/>
<path d="M172.277 29.2442C172.277 25.9005 173.864 23.7823 176.333 23.7823C176.944 23.7518 177.55 23.9102 178.081 24.239C178.612 24.5677 179.045 25.0533 179.33 25.6388H179.474V19.827H181.403V34.5397H179.555V32.8678H179.402C179.095 33.4494 178.647 33.9289 178.106 34.2544C177.565 34.5798 176.952 34.7388 176.333 34.7141C173.847 34.7142 172.277 32.5959 172.277 29.2442ZM174.269 29.2442C174.269 31.4887 175.246 32.8392 176.88 32.8392C178.506 32.8392 179.511 31.4692 179.511 29.2534C179.511 27.048 178.495 25.6584 176.88 25.6584C175.257 25.6584 174.269 27.0181 174.269 29.2442Z" fill="black"/>
<path d="M189.383 29.2442C189.322 28.5488 189.395 27.8472 189.599 27.1843C189.802 26.5214 190.132 25.912 190.566 25.395C191 24.8781 191.529 24.465 192.119 24.1824C192.709 23.8997 193.347 23.7537 193.992 23.7537C194.637 23.7537 195.275 23.8997 195.865 24.1824C196.455 24.465 196.984 24.8781 197.418 25.395C197.852 25.912 198.181 26.5214 198.385 27.1843C198.589 27.8472 198.662 28.5488 198.601 29.2442C198.663 29.9403 198.591 30.6429 198.388 31.3069C198.185 31.9708 197.855 32.5814 197.421 33.0994C196.987 33.6173 196.458 34.0312 195.867 34.3145C195.277 34.5978 194.638 34.7441 193.992 34.7441C193.346 34.7441 192.707 34.5978 192.117 34.3145C191.526 34.0312 190.997 33.6173 190.563 33.0994C190.129 32.5814 189.799 31.9708 189.596 31.3069C189.393 30.6429 189.32 29.9403 189.383 29.2442ZM196.617 29.2442C196.617 26.9504 195.665 25.6091 193.995 25.6091C192.319 25.6091 191.375 26.9505 191.375 29.2442C191.375 31.5564 192.319 32.8874 193.995 32.8874C195.665 32.8874 196.617 31.5472 196.617 29.2442Z" fill="black"/>
<path d="M201.189 23.9578H203.045V25.6389H203.19C203.434 25.0351 203.846 24.529 204.369 24.191C204.892 23.8531 205.499 23.7002 206.106 23.7536C206.582 23.7149 207.059 23.7925 207.503 23.9807C207.947 24.169 208.346 24.4629 208.671 24.8409C208.996 25.2189 209.238 25.6712 209.38 26.1643C209.521 26.6574 209.558 27.1786 209.489 27.6894V34.5396H207.56V28.2138C207.56 26.5133 206.877 25.6676 205.451 25.6676C205.128 25.6513 204.806 25.7108 204.506 25.842C204.207 25.9732 203.937 26.173 203.715 26.4277C203.493 26.6824 203.325 26.986 203.222 27.3176C203.119 27.6493 203.083 28.0012 203.117 28.3492V34.5397H201.189V23.9578Z" fill="black"/>
<path d="M220.387 21.3233V24.006H222.505V25.7651H220.387V31.2064C220.387 32.3148 220.809 32.8002 221.769 32.8002C222.015 32.7993 222.26 32.7832 222.505 32.752V34.4915C222.158 34.5586 221.807 34.5943 221.455 34.5982C219.31 34.5982 218.456 33.7812 218.456 31.7411V25.765H216.905V24.0059H218.456V21.3233H220.387Z" fill="black"/>
<path d="M225.139 19.827H227.051V25.6584H227.203C227.46 25.049 227.884 24.54 228.417 24.2008C228.95 23.8615 229.567 23.7086 230.183 23.7628C230.656 23.7349 231.129 23.8204 231.568 24.0132C232.007 24.206 232.402 24.5013 232.723 24.8781C233.045 25.2549 233.285 25.7039 233.428 26.193C233.571 26.6821 233.612 27.1993 233.549 27.7077V34.5397H231.619V28.2229C231.619 26.5327 230.891 25.6767 229.529 25.6767C229.197 25.6473 228.864 25.6966 228.552 25.8213C228.24 25.946 227.957 26.143 227.722 26.3985C227.488 26.654 227.308 26.9619 227.195 27.3006C227.082 27.6394 227.038 28.0007 227.068 28.3595V34.5397H225.139L225.139 19.827Z" fill="black"/>
<path d="M244.795 31.6826C244.533 32.6497 243.966 33.4862 243.191 34.0459C242.417 34.6055 241.486 34.8526 240.561 34.744C239.917 34.7624 239.277 34.6288 238.685 34.3526C238.094 34.0765 237.565 33.6642 237.136 33.1445C236.706 32.6249 236.386 32.0102 236.198 31.3432C236.01 30.6763 235.958 29.9729 236.046 29.2821C235.96 28.5891 236.013 27.8843 236.201 27.2153C236.388 26.5463 236.707 25.9288 237.134 25.4046C237.561 24.8803 238.088 24.4616 238.677 24.1768C239.267 23.892 239.906 23.7476 240.552 23.7536C243.271 23.7536 244.912 25.7652 244.912 29.0881V29.8168H238.011V29.9338C237.981 30.3222 238.026 30.713 238.143 31.0814C238.261 31.4498 238.448 31.7875 238.693 32.0729C238.938 32.3583 239.235 32.5852 239.566 32.7388C239.897 32.8925 240.254 32.9697 240.614 32.9653C241.075 33.0253 241.542 32.9354 241.956 32.7069C242.37 32.4785 242.712 32.1219 242.939 31.6825L244.795 31.6826ZM238.011 28.2723H242.947C242.971 27.9172 242.927 27.5604 242.816 27.225C242.706 26.8896 242.531 26.583 242.305 26.3249C242.078 26.0667 241.804 25.8627 241.501 25.726C241.197 25.5893 240.87 25.5229 240.541 25.531C240.208 25.5265 239.877 25.5943 239.568 25.7305C239.259 25.8666 238.978 26.0684 238.742 26.3239C238.506 26.5794 238.32 26.8834 238.195 27.218C238.069 27.5526 238.006 27.9111 238.011 28.2723Z" fill="black"/>
</g>
<defs>
<clipPath id="clip0_114_250">
<rect width="293" height="94" fill="white"/>
</clipPath>
</defs>
</svg>
