<svg width="137" height="40" viewBox="0 0 137 40" fill="none" xmlns="http://www.w3.org/2000/svg">
<path fill-rule="evenodd" clip-rule="evenodd" d="M10.916 1.72057e-06H126.09C126.502 1.72057e-06 126.92 -0.000128279 127.331 0.00187172C127.616 0.00346346 127.907 0.00766047 128.194 0.0118031C128.258 0.0127355 128.323 0.0136652 128.387 0.0145617C129.154 0.0220095 129.919 0.0811045 130.676 0.191322C131.436 0.304242 132.173 0.515569 132.861 0.818322C134.238 1.43603 135.359 2.4152 136.065 3.61812C136.411 4.2175 136.65 4.85928 136.774 5.52144C136.902 6.18324 136.973 6.85242 136.987 7.52344C136.991 7.83008 136.991 8.1377 136.991 8.44434C137 8.80664 137 9.16992 137 9.53613V30.4648C137 30.834 137 31.1953 136.991 31.5586C136.991 31.8691 136.991 32.1699 136.987 32.4805C136.973 33.1515 136.902 33.8206 136.774 34.4824C136.65 35.1449 136.411 35.7871 136.065 36.3867C135.714 36.9835 135.258 37.5282 134.713 38.001C134.172 38.4778 133.546 38.8758 132.861 39.1797C132.173 39.4833 131.436 39.6958 130.676 39.8105C129.919 39.9198 129.154 39.9789 128.387 39.9873C128.038 39.9941 127.68 39.998 127.331 39.998C126.92 40 126.502 40 126.09 40H10.916C10.4962 40 10.0814 40 9.66266 39.998C9.31216 39.998 8.96445 39.9941 8.61058 39.9873C7.84186 39.9785 7.07499 39.9194 6.31637 39.8105C5.55887 39.6966 4.82525 39.484 4.14011 39.1797C3.45414 38.876 2.82846 38.478 2.28696 38.001C1.74046 37.5301 1.28492 36.9849 0.938051 36.3867C0.589733 35.7875 0.348426 35.1453 0.222506 34.4824C0.0950397 33.8207 0.0264475 33.1514 0.0173448 32.4805C0.0100863 32.2683 0.00726302 32.0607 0.00441744 31.8514C0.00309793 31.7544 0.0017736 31.657 0 31.5586V8.44434C0.00179462 8.34604 0.00312925 8.24765 0.00446436 8.14922C0.00729419 7.94059 0.0101261 7.7318 0.0173448 7.52348C0.0264447 6.85252 0.0950369 6.18319 0.222506 5.52148C0.348774 4.85894 0.590067 4.21711 0.938051 3.61816C1.28508 3.01802 1.74055 2.47064 2.28696 1.99707C2.83052 1.52217 3.45579 1.12447 4.14011 0.818412C4.82526 0.514917 5.55895 0.303534 6.31637 0.191412C7.07486 0.081678 7.84181 0.0226035 8.61058 0.0147017C8.68404 0.0136865 8.75724 0.0126317 8.83026 0.0115795C9.10894 0.00756356 9.38492 0.00358651 9.66266 0.00200172C10.0814 1.72062e-06 10.4962 1.72057e-06 10.916 1.72057e-06ZM8.5326 39.1173C8.87928 39.1241 9.22026 39.128 9.56968 39.128L126.193 39.13L127.436 39.128C127.777 39.128 128.129 39.1241 128.465 39.1173C129.183 39.1097 129.9 39.0551 130.609 38.9542C131.274 38.8557 131.919 38.6703 132.522 38.4043C133.116 38.1407 133.658 37.7954 134.127 37.3815C134.596 36.9758 134.989 36.5081 135.291 35.9956C135.595 35.4698 135.804 34.9064 135.911 34.3252C136.028 33.7122 136.093 33.0926 136.107 32.4713C136.111 32.1646 136.111 31.8667 136.111 31.5414C136.12 31.1839 136.12 30.8294 136.12 30.466V9.53295C136.12 9.17301 136.12 8.81601 136.111 8.44093C136.111 8.13813 136.111 7.83386 136.108 7.55061C136.094 6.91801 136.027 6.28713 135.908 5.663C135.8 5.0894 135.593 4.53335 135.295 4.01374C134.684 2.97461 133.715 2.12826 132.525 1.5933C131.921 1.32872 131.275 1.14404 130.609 1.04533C129.904 0.944474 129.192 0.890111 128.477 0.882711L127.43 0.870008H9.57025L8.53542 0.882221C7.81475 0.890008 7.09577 0.94486 6.38449 1.04631C5.72478 1.1438 5.0856 1.3272 4.48839 1.59037C3.89427 1.85582 3.35159 2.20091 2.88011 2.61305C2.40811 3.02132 2.01496 3.4935 1.7159 4.01129C1.41227 4.53452 1.20209 5.09514 1.09264 5.67374C0.975005 6.2928 0.911543 6.91875 0.902797 7.5462C0.896088 7.74938 0.88595 8.44093 0.88595 8.44093V31.5463C0.88595 31.5463 0.895469 32.2487 0.90274 32.4596C0.911874 33.0881 0.975707 33.715 1.09369 34.335C1.20294 34.912 1.41296 35.471 1.71643 35.9925C2.01659 36.5107 2.41194 36.9825 2.8868 37.3893C3.35489 37.801 3.89585 38.1443 4.48895 38.4062C5.08754 38.6702 5.72792 38.8549 6.38898 38.9542C7.09792 39.0546 7.81442 39.1091 8.5326 39.1173Z" fill="#A6A6A6"/>
<path d="M9.56972 39.1281C9.2203 39.1281 8.87932 39.1242 8.53264 39.1174C7.81446 39.1093 7.09796 39.0547 6.38902 38.9543C5.72796 38.855 5.08758 38.6703 4.48898 38.4063C3.89588 38.1444 3.35493 37.8011 2.88684 37.3895C2.41197 36.9826 2.01663 36.5108 1.71647 35.9927C1.413 35.4711 1.20298 34.9121 1.09373 34.3351C0.975744 33.7151 0.91191 33.0882 0.902776 32.4597C0.895505 32.2488 0.885986 31.5464 0.885986 31.5464V8.44104C0.885986 8.44104 0.896125 7.74949 0.902834 7.54631C0.911579 6.91886 0.975042 6.2929 1.09267 5.67385C1.20213 5.09525 1.41231 4.53463 1.71594 4.0114C2.015 3.49361 2.40815 3.02143 2.88015 2.61316C3.35162 2.20102 3.89431 1.85593 4.48842 1.59048C5.08564 1.32731 5.72481 1.14391 6.38453 1.04642C7.0958 0.944969 7.81479 0.890117 8.53546 0.88233L9.57028 0.870117H127.43L128.477 0.88282C129.192 0.890221 129.904 0.944583 130.609 1.04544C131.275 1.14415 131.921 1.32883 132.525 1.59341C133.715 2.12837 134.684 2.97472 135.295 4.01384C135.593 4.53346 135.8 5.08951 135.908 5.66311C136.028 6.28724 136.094 6.91812 136.108 7.55071C136.111 7.83397 136.111 8.13824 136.111 8.44104C136.12 8.81612 136.12 9.17312 136.12 9.53306V30.4661C136.12 30.8295 136.12 31.1841 136.111 31.5415C136.111 31.8668 136.111 32.1648 136.107 32.4714C136.093 33.0927 136.028 33.7124 135.911 34.3253C135.804 34.9065 135.595 35.4699 135.291 35.9957C134.989 36.5082 134.596 36.9759 134.127 37.3817C133.658 37.7955 133.116 38.1409 132.522 38.4044C131.919 38.6704 131.274 38.8558 130.609 38.9543C129.9 39.0553 129.183 39.1098 128.465 39.1174C128.129 39.1242 127.777 39.1281 127.436 39.1281L126.193 39.1301L9.56972 39.1281Z" fill="black"/>
<path d="M33.2833 20.3006C33.2942 19.4659 33.5192 18.6475 33.9373 17.9216C34.3554 17.1956 34.9531 16.5857 35.6747 16.1485C35.2163 15.5034 34.6115 14.9724 33.9084 14.5979C33.2053 14.2233 32.4233 14.0155 31.6244 13.9908C29.9203 13.8146 28.2683 14.9957 27.3999 14.9957C26.5147 14.9957 25.1777 14.0083 23.7379 14.0375C22.8066 14.0672 21.899 14.334 21.1036 14.8121C20.3081 15.2901 19.6518 15.9631 19.1987 16.7654C17.2361 20.1138 18.7 25.0349 20.5801 27.7415C21.5207 29.0668 22.62 30.5473 24.0585 30.4948C25.4661 30.4372 25.9918 29.6103 27.6909 29.6103C29.3743 29.6103 29.8675 30.4948 31.3351 30.4614C32.8456 30.4372 33.7972 29.1302 34.7048 27.7923C35.3807 26.8479 35.9007 25.8042 36.2457 24.6997C35.3682 24.334 34.6194 23.7218 34.0926 22.9395C33.5657 22.1572 33.2843 21.2394 33.2833 20.3006V20.3006Z" fill="white"/>
<path d="M30.5112 12.2108C31.3348 11.2366 31.7405 9.98445 31.6422 8.72021C30.384 8.85044 29.2218 9.44299 28.3871 10.3798C27.979 10.8375 27.6665 11.3699 27.4673 11.9467C27.2682 12.5235 27.1863 13.1333 27.2265 13.7412C27.8558 13.7476 28.4784 13.6132 29.0474 13.3481C29.6163 13.083 30.1169 12.6942 30.5112 12.2108Z" fill="white"/>
<path d="M51.0764 27.1397H46.2729L45.1193 30.4962H43.0847L47.6345 18.0782H49.7484L54.2982 30.4962H52.2289L51.0764 27.1397ZM46.7704 25.5909H50.5779L48.7009 20.1436H48.6484L46.7704 25.5909Z" fill="white"/>
<path d="M64.1243 25.9698C64.1243 28.7833 62.5961 30.5909 60.29 30.5909C59.7058 30.621 59.1248 30.4884 58.6136 30.2082C58.1023 29.9281 57.6814 29.5118 57.3992 29.0069H57.3555V33.4913H55.4696V21.4424H57.2951V22.9483H57.3298C57.625 22.4458 58.053 22.0316 58.5682 21.7498C59.0833 21.4679 59.6664 21.329 60.2553 21.3477C62.5872 21.3477 64.1243 23.1641 64.1243 25.9698ZM62.1858 25.9698C62.1858 24.1368 61.2245 22.9317 59.7578 22.9317C58.3168 22.9317 57.3476 24.1622 57.3476 25.9698C57.3476 27.794 58.3168 29.0157 59.7578 29.0157C61.2245 29.0157 62.1858 27.8194 62.1858 25.9698Z" fill="white"/>
<path d="M74.2368 25.9698C74.2368 28.7833 72.7086 30.5909 70.4025 30.5909C69.8183 30.621 69.2373 30.4884 68.726 30.2082C68.2148 29.9281 67.7939 29.5118 67.5116 29.0069H67.468V33.4913H65.5821V21.4424H67.4075V22.9483H67.4422C67.7375 22.4458 68.1655 22.0316 68.6806 21.7498C69.1958 21.468 69.7788 21.329 70.3677 21.3477C72.6997 21.3477 74.2368 23.1641 74.2368 25.9698ZM72.2983 25.9698C72.2983 24.1368 71.337 22.9317 69.8703 22.9317C68.4293 22.9317 67.4601 24.1622 67.4601 25.9698C67.4601 27.794 68.4293 29.0157 69.8703 29.0157C71.337 29.0157 72.2983 27.8194 72.2983 25.9698Z" fill="white"/>
<path d="M80.9203 27.0362C81.06 28.2676 82.274 29.0762 83.933 29.0762C85.5226 29.0762 86.6663 28.2676 86.6663 27.1572C86.6663 26.1934 85.9765 25.6162 84.3433 25.2207L82.7101 24.833C80.396 24.2822 79.3217 23.2158 79.3217 21.4854C79.3217 19.3428 81.2166 17.8711 83.9072 17.8711C86.5701 17.8711 88.3956 19.3428 88.457 21.4854H86.5533C86.4393 20.2461 85.3997 19.4981 83.8804 19.4981C82.3612 19.4981 81.3216 20.2549 81.3216 21.3565C81.3216 22.2344 81.9856 22.751 83.6099 23.1465L84.9983 23.4824C87.5839 24.0849 88.6582 25.1084 88.6582 26.9248C88.6582 29.248 86.7802 30.7031 83.7932 30.7031C80.9985 30.7031 79.1116 29.2822 78.9897 27.0361L80.9203 27.0362Z" fill="white"/>
<path d="M92.7284 19.2999V21.4424H94.4756V22.9141H92.7284V27.9053C92.7284 28.6807 93.0782 29.042 93.8463 29.042C94.0537 29.0385 94.2608 29.0241 94.4666 28.999V30.4619C94.1213 30.5255 93.7704 30.5543 93.4191 30.5479C91.559 30.5479 90.8335 29.8594 90.8335 28.1035V22.9141H89.4976V21.4424H90.8335V19.2999H92.7284Z" fill="white"/>
<path d="M95.4875 25.9698C95.4875 23.1212 97.19 21.3311 99.845 21.3311C102.509 21.3311 104.204 23.1211 104.204 25.9698C104.204 28.8262 102.518 30.6085 99.845 30.6085C97.1731 30.6085 95.4875 28.8262 95.4875 25.9698ZM102.282 25.9698C102.282 24.0157 101.373 22.8624 99.845 22.8624C98.3168 22.8624 97.4091 24.0245 97.4091 25.9698C97.4091 27.9317 98.3168 29.0762 99.845 29.0762C101.373 29.0762 102.282 27.9317 102.282 25.9698Z" fill="white"/>
<path d="M105.758 21.4424H107.557V22.9834H107.601C107.723 22.5021 108.009 22.0768 108.411 21.7789C108.814 21.481 109.308 21.3288 109.811 21.3477C110.028 21.3469 110.245 21.3702 110.457 21.417V23.1553C110.183 23.0727 109.896 23.0348 109.61 23.043C109.336 23.0321 109.062 23.0797 108.809 23.1825C108.555 23.2854 108.327 23.4412 108.141 23.6391C107.954 23.837 107.813 24.0723 107.727 24.329C107.642 24.5857 107.613 24.8576 107.644 25.126V30.4961H105.758L105.758 21.4424Z" fill="white"/>
<path d="M119.152 27.837C118.899 29.4805 117.274 30.6084 115.196 30.6084C112.523 30.6084 110.864 28.8438 110.864 26.0127C110.864 23.1729 112.532 21.3311 115.117 21.3311C117.659 21.3311 119.257 23.0518 119.257 25.7969V26.4336H112.768V26.5459C112.738 26.8791 112.78 27.2148 112.892 27.5307C113.004 27.8465 113.183 28.1353 113.417 28.3778C113.65 28.6204 113.934 28.8111 114.248 28.9374C114.562 29.0637 114.9 29.1227 115.24 29.1104C115.685 29.1515 116.133 29.0498 116.515 28.8204C116.897 28.591 117.194 28.246 117.361 27.837L119.152 27.837ZM112.777 25.1348H117.37C117.387 24.8352 117.341 24.5354 117.235 24.2542C117.129 23.973 116.965 23.7165 116.753 23.5007C116.541 23.2849 116.287 23.1146 116.005 23.0004C115.724 22.8862 115.421 22.8305 115.117 22.837C114.81 22.8352 114.505 22.8933 114.221 23.008C113.937 23.1228 113.678 23.2919 113.461 23.5055C113.243 23.7191 113.071 23.9731 112.954 24.2527C112.836 24.5324 112.776 24.8322 112.777 25.1348Z" fill="white"/>
<path d="M46.534 8.73101C46.9294 8.70305 47.3261 8.76191 47.6956 8.90334C48.0652 9.04478 48.3982 9.26526 48.6708 9.54888C48.9433 9.83251 49.1486 10.1722 49.2718 10.5435C49.395 10.9147 49.4331 11.3083 49.3832 11.6959C49.3832 13.6021 48.3377 14.6979 46.534 14.6979H44.3468V8.73101H46.534ZM45.2873 13.854H46.4289C46.7115 13.8707 46.9942 13.825 47.2566 13.7204C47.519 13.6158 47.7544 13.4548 47.9456 13.2493C48.1369 13.0437 48.2793 12.7987 48.3624 12.5321C48.4454 12.2655 48.4671 11.9839 48.4259 11.708C48.4641 11.4332 48.4402 11.1534 48.3559 10.8887C48.2715 10.6241 48.1288 10.3811 47.938 10.1771C47.7471 9.97321 47.5129 9.81341 47.252 9.70917C46.9911 9.60493 46.71 9.55885 46.4289 9.57422H45.2873V13.854Z" fill="white"/>
<path d="M50.4456 12.4444C50.4169 12.1484 50.4512 11.8499 50.5465 11.5678C50.6417 11.2857 50.7957 11.0264 50.9986 10.8064C51.2015 10.5864 51.4488 10.4107 51.7247 10.2904C52.0006 10.1701 52.2989 10.108 52.6006 10.108C52.9023 10.108 53.2006 10.1701 53.4765 10.2904C53.7524 10.4107 53.9997 10.5864 54.2026 10.8064C54.4055 11.0264 54.5595 11.2857 54.6547 11.5678C54.75 11.8499 54.7843 12.1484 54.7556 12.4444C54.7849 12.7406 54.7509 13.0396 54.6559 13.3221C54.561 13.6046 54.407 13.8644 54.2041 14.0848C54.0011 14.3053 53.7536 14.4814 53.4775 14.6019C53.2013 14.7225 52.9026 14.7847 52.6006 14.7847C52.2986 14.7847 51.9999 14.7225 51.7237 14.6019C51.4476 14.4814 51.2 14.3053 50.9971 14.0848C50.7941 13.8644 50.6402 13.6046 50.5452 13.3221C50.4503 13.0396 50.4163 12.7406 50.4456 12.4444ZM53.828 12.4444C53.828 11.4683 53.383 10.8975 52.6021 10.8975C51.8182 10.8975 51.3772 11.4683 51.3772 12.4444C51.3772 13.4283 51.8182 13.9947 52.6021 13.9947C53.383 13.9946 53.828 13.4243 53.828 12.4444Z" fill="white"/>
<path d="M60.4847 14.6978H59.5492L58.6048 11.3814H58.5334L57.5929 14.6978H56.6663L55.4067 10.1948H56.3214L57.14 13.6308H57.2074L58.1469 10.1948H59.0121L59.9516 13.6308H60.0229L60.8375 10.1948H61.7394L60.4847 14.6978Z" fill="white"/>
<path d="M62.7988 10.1948H63.6669V10.9102H63.7343C63.8486 10.6532 64.0415 10.4379 64.2859 10.2941C64.5303 10.1503 64.8142 10.0852 65.098 10.1079C65.3203 10.0914 65.5436 10.1245 65.7512 10.2046C65.9588 10.2847 66.1455 10.4098 66.2974 10.5706C66.4493 10.7315 66.5625 10.9239 66.6287 11.1337C66.6949 11.3436 66.7123 11.5654 66.6797 11.7827V14.6977H65.7778V12.0059C65.7778 11.2822 65.4587 10.9224 64.7917 10.9224C64.6408 10.9154 64.4901 10.9408 64.35 10.9966C64.2099 11.0524 64.0837 11.1374 63.9801 11.2458C63.8764 11.3542 63.7978 11.4834 63.7496 11.6245C63.7013 11.7657 63.6846 11.9154 63.7006 12.0635V14.6978H62.7988L62.7988 10.1948Z" fill="white"/>
<path d="M68.1167 8.43701H69.0185V14.6978H68.1167V8.43701Z" fill="white"/>
<path d="M70.2721 12.4444C70.2434 12.1484 70.2778 11.8498 70.3731 11.5677C70.4683 11.2857 70.6223 11.0263 70.8253 10.8063C71.0282 10.5863 71.2755 10.4106 71.5514 10.2903C71.8273 10.17 72.1257 10.1079 72.4274 10.1079C72.7291 10.1079 73.0274 10.17 73.3033 10.2903C73.5792 10.4106 73.8266 10.5863 74.0295 10.8063C74.2324 11.0263 74.3864 11.2857 74.4817 11.5677C74.577 11.8498 74.6113 12.1484 74.5826 12.4444C74.6119 12.7406 74.5779 13.0396 74.4829 13.3221C74.3879 13.6046 74.2339 13.8644 74.031 14.0848C73.828 14.3052 73.5805 14.4814 73.3043 14.6019C73.0281 14.7224 72.7294 14.7847 72.4274 14.7847C72.1253 14.7847 71.8266 14.7224 71.5505 14.6019C71.2743 14.4814 71.0268 14.3052 70.8238 14.0848C70.6208 13.8644 70.4669 13.6046 70.3719 13.3221C70.2769 13.0396 70.2429 12.7406 70.2721 12.4444ZM73.6545 12.4444C73.6545 11.4683 73.2095 10.8975 72.4286 10.8975C71.6447 10.8975 71.2037 11.4683 71.2037 12.4444C71.2037 13.4283 71.6447 13.9947 72.4286 13.9947C73.2096 13.9946 73.6545 13.4243 73.6545 12.4444Z" fill="white"/>
<path d="M75.532 13.4243C75.532 12.6138 76.1445 12.1465 77.2317 12.0801L78.4695 12.0098V11.6211C78.4695 11.1455 78.1503 10.877 77.5339 10.877C77.0305 10.877 76.6816 11.0591 76.5815 11.3775H75.7084C75.8006 10.604 76.5389 10.1079 77.5755 10.1079C78.7212 10.1079 79.3673 10.6699 79.3673 11.6211V14.6978H78.4992V14.065H78.4278C78.283 14.292 78.0796 14.477 77.8385 14.6012C77.5973 14.7254 77.3271 14.7843 77.0553 14.772C76.8634 14.7916 76.6695 14.7715 76.4861 14.7128C76.3027 14.6541 76.1337 14.5581 75.9902 14.4312C75.8467 14.3042 75.7318 14.149 75.6529 13.9756C75.574 13.8022 75.5328 13.6144 75.532 13.4243ZM78.4695 13.0396V12.6631L77.3536 12.7334C76.7242 12.7749 76.4388 12.9859 76.4388 13.3828C76.4388 13.7881 76.7956 14.0239 77.2862 14.0239C77.4299 14.0383 77.5751 14.024 77.7132 13.9819C77.8512 13.9398 77.9792 13.8708 78.0896 13.7789C78.2 13.6871 78.2905 13.5743 78.3558 13.4473C78.421 13.3203 78.4597 13.1816 78.4695 13.0396Z" fill="white"/>
<path d="M80.5526 12.4444C80.5526 11.0215 81.2949 10.1201 82.4494 10.1201C82.735 10.1072 83.0184 10.1746 83.2666 10.3145C83.5147 10.4544 83.7173 10.661 83.8507 10.9101H83.9181V8.43701H84.82V14.6978H83.9558V13.9863H83.8844C83.7407 14.2338 83.5311 14.4378 83.2781 14.5763C83.0252 14.7148 82.7386 14.7825 82.4494 14.772C81.287 14.772 80.5526 13.8706 80.5526 12.4444ZM81.4842 12.4444C81.4842 13.3994 81.9411 13.9741 82.7051 13.9741C83.4652 13.9741 83.935 13.3911 83.935 12.4483C83.935 11.5098 83.4603 10.9185 82.7051 10.9185C81.946 10.9185 81.4842 11.4971 81.4842 12.4444Z" fill="white"/>
<path d="M88.5512 12.4444C88.5225 12.1484 88.5568 11.8499 88.6521 11.5678C88.7473 11.2857 88.9013 11.0264 89.1042 10.8064C89.3071 10.5864 89.5544 10.4107 89.8303 10.2904C90.1062 10.1701 90.4045 10.108 90.7062 10.108C91.0079 10.108 91.3062 10.1701 91.5821 10.2904C91.858 10.4107 92.1053 10.5864 92.3082 10.8064C92.5111 11.0264 92.6651 11.2857 92.7603 11.5678C92.8556 11.8499 92.8899 12.1484 92.8612 12.4444C92.8905 12.7406 92.8565 13.0396 92.7615 13.3221C92.6666 13.6046 92.5126 13.8644 92.3097 14.0848C92.1067 14.3053 91.8592 14.4814 91.5831 14.6019C91.3069 14.7225 91.0082 14.7847 90.7062 14.7847C90.4042 14.7847 90.1055 14.7225 89.8293 14.6019C89.5532 14.4814 89.3057 14.3053 89.1027 14.0848C88.8997 13.8644 88.7458 13.6046 88.6508 13.3221C88.5559 13.0396 88.5219 12.7406 88.5512 12.4444ZM91.9336 12.4444C91.9336 11.4683 91.4886 10.8975 90.7077 10.8975C89.9238 10.8975 89.4828 11.4683 89.4828 12.4444C89.4828 13.4283 89.9238 13.9947 90.7077 13.9947C91.4886 13.9946 91.9336 13.4243 91.9336 12.4444Z" fill="white"/>
<path d="M94.0712 10.1948H94.9394V10.9102H95.0068C95.1211 10.6532 95.3139 10.4379 95.5584 10.2941C95.8028 10.1503 96.0867 10.0852 96.3704 10.1079C96.5928 10.0914 96.816 10.1245 97.0237 10.2046C97.2313 10.2847 97.418 10.4098 97.5699 10.5706C97.7218 10.7315 97.835 10.9239 97.9012 11.1337C97.9673 11.3436 97.9847 11.5654 97.9521 11.7827V14.6977H97.0503V12.0059C97.0503 11.2822 96.7312 10.9224 96.0642 10.9224C95.9132 10.9154 95.7625 10.9408 95.6224 10.9966C95.4823 11.0524 95.3561 11.1374 95.2525 11.2458C95.1489 11.3542 95.0702 11.4834 95.022 11.6245C94.9738 11.7657 94.9571 11.9154 94.9731 12.0635V14.6978H94.0712V10.1948Z" fill="white"/>
<path d="M103.048 9.07374V10.2153H104.038V10.9639H103.048V13.2793C103.048 13.751 103.245 13.9575 103.694 13.9575C103.809 13.9572 103.924 13.9503 104.038 13.937V14.6773C103.876 14.7058 103.712 14.721 103.547 14.7227C102.545 14.7227 102.145 14.375 102.145 13.5068V10.9638H101.42V10.2153H102.145V9.07374H103.048Z" fill="white"/>
<path d="M105.27 8.43701H106.164V10.9185H106.235C106.355 10.6591 106.553 10.4425 106.802 10.2982C107.052 10.1539 107.34 10.0888 107.628 10.1118C107.85 10.1 108.071 10.1364 108.276 10.2184C108.481 10.3004 108.666 10.4261 108.816 10.5864C108.966 10.7468 109.079 10.9378 109.146 11.146C109.212 11.3541 109.232 11.5742 109.202 11.7905V14.6978H108.3V12.0098C108.3 11.2905 107.96 10.9263 107.322 10.9263C107.167 10.9137 107.011 10.9347 106.866 10.9878C106.72 11.0408 106.587 11.1247 106.478 11.2334C106.368 11.3421 106.284 11.4732 106.231 11.6173C106.178 11.7614 106.158 11.9152 106.172 12.0679V14.6977H105.27L105.27 8.43701Z" fill="white"/>
<path d="M114.461 13.4819C114.338 13.8935 114.073 14.2495 113.711 14.4876C113.349 14.7258 112.913 14.8309 112.481 14.7847C112.18 14.7925 111.88 14.7357 111.604 14.6182C111.327 14.5006 111.08 14.3252 110.879 14.1041C110.678 13.8829 110.529 13.6214 110.441 13.3376C110.353 13.0537 110.329 12.7544 110.37 12.4605C110.33 12.1656 110.354 11.8656 110.442 11.581C110.53 11.2963 110.679 11.0335 110.878 10.8105C111.078 10.5874 111.324 10.4092 111.6 10.288C111.876 10.1668 112.175 10.1054 112.477 10.1079C113.748 10.1079 114.515 10.9639 114.515 12.3779V12.688H111.288V12.7378C111.274 12.9031 111.295 13.0694 111.35 13.2261C111.405 13.3829 111.493 13.5266 111.607 13.6481C111.722 13.7695 111.861 13.866 112.016 13.9314C112.17 13.9968 112.337 14.0297 112.505 14.0278C112.721 14.0533 112.94 14.0151 113.133 13.9178C113.327 13.8206 113.487 13.6689 113.593 13.4819L114.461 13.4819ZM111.288 12.0308H113.596C113.608 11.8796 113.587 11.7278 113.535 11.5851C113.484 11.4424 113.402 11.3119 113.296 11.2021C113.19 11.0922 113.062 11.0054 112.92 10.9472C112.778 10.8891 112.625 10.8608 112.472 10.8643C112.316 10.8623 112.161 10.8912 112.016 10.9491C111.872 11.0071 111.741 11.0929 111.63 11.2017C111.52 11.3104 111.433 11.4397 111.374 11.5821C111.316 11.7245 111.286 11.8771 111.288 12.0308Z" fill="white"/>
</svg>
