<svg width="45" height="45" viewBox="0 0 45 45" fill="none" xmlns="http://www.w3.org/2000/svg">
<path d="M31.5875 4.25139C31.1566 5.574 30.459 6.80004 29.6185 7.81978V7.82154C28.7707 8.84707 27.6381 9.75375 26.3778 10.3549C25.2213 10.9064 23.9533 11.2036 22.6917 11.1052L22.3057 11.0751L22.2547 10.6906C22.0909 9.45088 22.2802 8.19569 22.6788 7.03443C23.1426 5.68268 23.8941 4.44943 24.7003 3.51502L24.7002 3.51485C25.5345 2.53742 26.6534 1.68693 27.8516 1.07083C29.0539 0.452634 30.3453 0.066192 31.5204 0.0182599L31.9646 0L32.0134 0.44403C32.1558 1.74188 31.9827 3.03869 31.5875 4.25139Z" fill="white" fill-opacity="0.6"/>
<path d="M39.7557 15.9122C39.33 16.1756 35.2134 18.723 35.2644 23.8572C35.3183 30.0469 40.5666 32.1926 40.8563 32.3112H40.8582L40.8707 32.3162L41.2824 32.4867L41.1414 32.9081C41.1331 32.9332 41.1424 32.9067 41.1302 32.9459C40.9965 33.375 40.0886 36.2832 38.0379 39.2799C37.1074 40.6392 36.1593 41.9966 35.0398 43.0434C33.8808 44.1274 32.5572 44.859 30.9218 44.8894C29.3805 44.9184 28.3714 44.4817 27.3225 44.028C26.3225 43.5952 25.2822 43.145 23.6544 43.145C21.9445 43.145 20.8514 43.6107 19.7988 44.0593C18.8077 44.4814 17.8492 44.8897 16.4683 44.9449H16.4665C14.872 45.0042 13.4893 44.2269 12.2606 43.0755C11.0851 41.9741 10.055 40.532 9.11642 39.1744C6.99775 36.1152 5.15526 31.664 4.58587 27.1378C4.11761 23.4147 4.50897 19.6329 6.30897 16.5094C7.31379 14.7619 8.71804 13.3355 10.36 12.3405C11.9946 11.3499 13.8645 10.786 15.8109 10.757V10.7568C17.5151 10.7259 19.1219 11.3636 20.5279 11.9216C21.5229 12.3164 22.4094 12.6683 23.0741 12.6683C23.6611 12.6683 24.5267 12.327 25.5355 11.9293C27.2397 11.2574 29.3243 10.4355 31.5285 10.6548C32.4544 10.695 34.3826 10.9169 36.3536 11.985C37.6092 12.6655 38.883 13.6872 39.9297 15.2192L40.2057 15.6234L39.7935 15.8898C39.7714 15.904 39.7928 15.8892 39.7557 15.9122Z" fill="white" fill-opacity="0.6"/>
</svg>
