<svg width="34" height="34" viewBox="0 0 34 34" fill="none" xmlns="http://www.w3.org/2000/svg">
<g clip-path="url(#clip0_523_1300)">
<path d="M0.996175 27.957H5.97663V30.9453C5.97663 31.4954 6.42262 31.9413 6.97273 31.9413H33.0039C33.554 31.9413 34 31.4954 34 30.9453V5.04687C34 4.49676 33.554 4.05078 33.0039 4.05078H28.0235V3.05469C28.0235 2.50458 27.5775 2.05859 27.0274 2.05859C26.4773 2.05859 26.0313 2.50458 26.0313 3.05469V4.05078H20.9844V3.05469C20.9844 2.50458 20.5384 2.05859 19.9883 2.05859C19.4382 2.05859 18.9922 2.50458 18.9922 3.05469V4.05078H14.0118V3.05469C14.0118 2.50458 13.5658 2.05859 13.0157 2.05859C12.4656 2.05859 12.0196 2.50458 12.0196 3.05469V4.05078H6.97273C6.42262 4.05078 5.97663 4.49676 5.97663 5.04687V11.0234C5.97663 18.3646 2.9256 24.0122 0.358477 26.1957C0.0362744 26.4642 -0.0831902 26.9056 0.0595166 27.3C0.202356 27.6943 0.576754 27.957 0.996175 27.957ZM32.0078 29.9492H7.96882V27.957H27.0274C27.2604 27.957 27.486 27.8753 27.6651 27.7261C28.8625 26.7287 30.7173 24.3542 32.0078 21.3129V29.9492ZM7.96882 6.04296H12.0196V7.03905C12.0196 7.58916 12.4656 8.03514 13.0157 8.03514C13.5658 8.03514 14.0118 7.58916 14.0118 7.03905V6.04296H18.9922V7.03905C18.9922 7.58916 19.4382 8.03514 19.9883 8.03514C20.5384 8.03514 20.9844 7.58916 20.9844 7.03905V6.04296H26.0313V7.03905C26.0313 7.58916 26.4773 8.03514 27.0274 8.03514C27.5775 8.03514 28.0235 7.58916 28.0235 7.03905V6.04296H32.0078V10.0273H7.96882V6.04296ZM7.95175 12.0188H31.9902C31.7657 18.3377 29.3405 23.3094 26.6368 25.9648H3.26189C6.3254 22.0614 7.7874 16.9789 7.95175 12.0188Z" fill="black"/>
</g>
<defs>
<clipPath id="clip0_523_1300">
<rect width="34" height="34" fill="white"/>
</clipPath>
</defs>
</svg>
