<svg width="100" height="100" viewBox="0 0 100 100" fill="none" xmlns="http://www.w3.org/2000/svg">
<path d="M91.2109 14.8438H8.78906C3.95273 14.8438 0 18.7791 0 23.6328V76.3672C0 81.2227 3.95527 85.1562 8.78906 85.1562H91.2109C96.0473 85.1562 100 81.2209 100 76.3672V23.6328C100 18.7779 96.0453 14.8438 91.2109 14.8438ZM89.8613 20.7031C87.0197 23.5541 53.6416 57.041 52.2703 58.4168C51.125 59.5656 48.8756 59.5664 47.7297 58.4168L10.1387 20.7031H89.8613ZM5.85938 75.29V24.71L31.0674 50L5.85938 75.29ZM10.1387 79.2969L35.2039 54.15L43.5799 62.5533C47.0123 65.9969 52.9891 65.9955 56.4203 62.5533L64.7963 54.1502L89.8613 79.2969H10.1387ZM94.1406 75.29L68.9326 50L94.1406 24.71V75.29Z" fill="#1E3F92"/>
</svg>
