<svg width="100" height="100" viewBox="0 0 100 100" fill="none" xmlns="http://www.w3.org/2000/svg">
<g clip-path="url(#clip0_21_35)">
<path d="M1.95312 31.2539C3.03184 31.2539 3.90625 30.3795 3.90625 29.3008C3.90625 19.5639 9.60254 10.5594 18.418 6.36078C19.3918 5.89691 19.8055 4.73148 19.3416 3.75765C18.8775 2.78363 17.7121 2.37035 16.7385 2.83422C11.8074 5.18265 7.63184 8.8557 4.66309 13.4565C1.6125 18.184 0 23.6629 0 29.3008C0 30.3795 0.874414 31.2539 1.95312 31.2539V31.2539Z" fill="#1E3F92"/>
<path d="M40.1757 6.36076C48.9911 10.5594 54.6874 19.5639 54.6874 29.3008C54.6874 30.3795 55.5618 31.2539 56.6406 31.2539C57.7193 31.2539 58.5937 30.3795 58.5937 29.3008C58.5937 23.6629 56.9812 18.184 53.9306 13.4563C50.9618 8.85568 46.7863 5.18244 41.8554 2.834C40.882 2.37013 39.7161 2.78361 39.2523 3.75744C38.7884 4.73127 39.2019 5.89709 40.1757 6.36076V6.36076Z" fill="#1E3F92"/>
<path d="M56.6406 58.5978C57.7193 58.5978 58.5938 57.7234 58.5938 56.6447C58.5938 55.5659 57.7193 54.6915 56.6406 54.6915C53.4098 54.6915 50.7812 52.063 50.7812 48.8322V29.3009C50.7812 19.4849 44.1641 11.1855 35.1562 8.62883V5.8634C35.1562 2.63254 32.5277 0.00402832 29.2969 0.00402832C26.066 0.00402832 23.4375 2.63254 23.4375 5.8634V8.62883C14.4297 11.1855 7.8125 19.4849 7.8125 29.3009V48.8322C7.8125 52.063 5.18398 54.6915 1.95312 54.6915C0.874414 54.6915 0 55.5659 0 56.6447C0 57.7234 0.874414 58.5978 1.95312 58.5978H23.4375V60.5509C23.4375 63.7818 26.066 66.4103 29.2969 66.4103C32.5277 66.4103 35.1562 63.7818 35.1562 60.5509V58.5978H56.6406ZM27.3438 5.8634C27.3438 4.78645 28.2199 3.91028 29.2969 3.91028C30.3738 3.91028 31.25 4.78645 31.25 5.8634V7.90637C30.6064 7.84817 29.9553 7.81672 29.2969 7.81672C28.6385 7.81672 27.9873 7.84817 27.3438 7.90637V5.8634ZM29.2969 11.7228C38.9895 11.7228 46.875 19.6083 46.875 29.3009V46.879H11.7188V29.3009C11.7188 19.6083 19.6043 11.7228 29.2969 11.7228ZM11.5217 50.7853H47.0723C47.3662 52.2275 47.9783 53.5556 48.8328 54.6915H9.76113C10.6156 53.5556 11.2275 52.2277 11.5217 50.7853Z" fill="#1E3F92"/>
<path d="M99.9999 67.1822C99.9999 63.9564 97.3714 61.3322 94.1405 61.3322C93.378 61.3322 92.6497 61.4802 91.9809 61.7464C91.3032 59.2599 89.0265 57.4259 86.328 57.4259C85.5655 57.4259 84.8372 57.574 84.1684 57.8402C83.4907 55.3536 81.214 53.5197 78.5155 53.5197C77.8308 53.5197 77.1737 53.6388 76.5624 53.8556V43.754C76.5624 40.5232 73.9339 37.8947 70.703 37.8947C67.4722 37.8947 64.8436 40.5232 64.8436 43.754V68.5533L64.8175 68.5142C63.3784 66.3556 61.0698 64.9997 58.4837 64.7945C55.8962 64.5888 53.4038 65.5636 51.6421 67.4679C51.0483 68.1099 50.9536 69.0681 51.41 69.814L64.0268 90.4238C67.6645 96.3657 74.0044 99.9968 80.6755 99.9964C91.9618 99.9935 100 90.1261 100 79.1798C100 79.1771 99.9999 71.8126 99.9999 67.1822ZM96.0952 79.1798C96.0954 85.4665 92.738 91.4491 87.5438 94.4212C85.7438 95.4511 83.5768 96.0105 81.1032 96.0837C75.6306 96.2452 70.3649 93.2952 67.3583 88.3841L55.6356 69.2349C56.3987 68.8115 57.2757 68.6167 58.1743 68.6884C59.5597 68.7984 60.7962 69.5247 61.5673 70.681L65.1716 76.0874C65.6489 76.8036 66.5392 77.1228 67.3626 76.8734C68.1862 76.624 68.7497 75.8648 68.7497 75.004V43.754C68.7497 42.6771 69.6259 41.8009 70.7028 41.8009C71.7798 41.8009 72.6559 42.6771 72.6559 43.754V71.0978C72.6559 72.1765 73.5304 73.0509 74.6091 73.0509C75.6878 73.0509 76.5622 72.1765 76.5622 71.0978V59.379C76.5622 58.3021 77.4384 57.4259 78.5153 57.4259C79.5923 57.4259 80.4684 58.3021 80.4684 59.379V71.0978C80.4684 72.1765 81.3429 73.0509 82.4216 73.0509C83.5003 73.0509 84.3747 72.1765 84.3747 71.0978V63.2853C84.3747 62.2083 85.2509 61.3322 86.3278 61.3322C87.4048 61.3322 88.2809 62.2083 88.2809 63.2853V71.0978C88.2809 72.1765 89.1554 73.0509 90.2341 73.0509C91.3128 73.0509 92.1872 72.1765 92.1872 71.0978V67.1915C92.1872 66.1146 93.0634 65.2384 94.1403 65.2384C95.2173 65.2384 96.0934 66.1105 96.0934 67.1822C96.0934 67.1822 96.0936 79.1636 96.0936 79.1745C96.0938 79.1763 96.0952 79.1781 96.0952 79.1798Z" fill="#1E3F92"/>
</g>
<defs>
<clipPath id="clip0_21_35">
<rect width="100" height="100" fill="white"/>
</clipPath>
</defs>
</svg>
