<svg width="100" height="100" viewBox="0 0 100 100" fill="none" xmlns="http://www.w3.org/2000/svg">
<g clip-path="url(#clip0_21_41)">
<path d="M64.1336 51.7779C65.2292 51.4614 67.7949 50.7183 68.9875 47.2106L71.4447 39.9848L72.433 40.3205C72.8855 40.4745 73.3814 40.2302 73.5355 39.7778L74.8537 35.901C75.0078 35.4486 74.7635 34.9529 74.3106 34.799L42.4567 23.9679C42.0044 23.814 41.5081 24.0585 41.3543 24.5107L40.036 28.3873C39.8824 28.8395 40.1268 29.3355 40.5789 29.4895L41.5672 29.8256L39.066 37.1831C37.8849 40.6564 38.6662 41.8292 40.1482 43.6043L46.5942 51.3232L45.8756 53.4362C43.4092 53.9714 36.9639 55.3758 36.0962 55.6264C35.0008 55.9434 32.4345 56.6856 31.2417 60.1937L29.1264 66.4154L28.1378 66.0795C27.6858 65.9256 27.1893 66.1697 27.0352 66.6221L25.7176 70.4987C25.5635 70.9511 25.808 71.4469 26.2604 71.6011L58.1146 82.4325C58.5664 82.5861 59.0628 82.3419 59.2168 81.8892L60.5343 78.0133C60.6885 77.5608 60.4443 77.0647 59.9914 76.9106L59.0035 76.5745L61.163 70.2213C62.3441 66.7484 61.5634 65.5749 60.081 63.8007L53.6355 56.0816L54.3534 53.9686C56.82 53.4335 63.2653 52.0294 64.1336 51.7779ZM50.6717 57.412L57.6811 65.8049C58.2188 66.4489 58.5036 66.8005 58.5808 67.1224C58.6737 67.5089 58.5495 68.1935 58.2023 69.214L56.0424 75.5677L32.0875 67.4224L34.2024 61.201C34.8702 59.2373 36.081 58.8868 36.9647 58.631C37.6559 58.4312 43.5851 57.1313 47.4019 56.3056C47.9382 56.1897 48.375 55.8002 48.5517 55.2804L49.8378 51.4982C50.0131 50.9817 49.9072 50.4114 49.5577 49.9928L42.5695 41.6249L42.5483 41.5992C42.0104 40.9552 41.7256 40.6036 41.6485 40.2815C41.5559 39.895 41.6794 39.211 42.0269 38.1899L44.5283 30.8325L68.4838 38.9777L66.0264 46.2037C65.359 48.1679 64.1486 48.518 63.2647 48.7737C62.5739 48.9737 56.6445 50.2741 52.8282 51.0991C52.2917 51.2153 51.8544 51.6043 51.6775 52.1245L50.3918 55.9063C50.2161 56.423 50.3226 56.9929 50.6717 57.412Z" fill="#1E3F92"/>
<path d="M69.5965 87.2352C68.8973 87.6314 68.1763 88.0108 67.4549 88.3625C67.3381 88.4196 67.2255 88.482 67.1165 88.5493C67.0008 88.5895 66.8857 88.6362 66.7714 88.6894C63.6397 90.1495 60.3742 91.1776 57.0103 91.7738C56.9673 91.78 56.9242 91.7825 56.8808 91.7903C56.0877 91.9306 55.2806 92.0473 54.4823 92.1388C54.4737 92.1402 54.4648 92.1423 54.4562 92.1433C52.9902 92.305 51.5078 92.3876 50.01 92.3876C32.7389 92.3876 18.0098 81.3056 12.5524 65.8801C12.4703 65.6447 12.3875 65.41 12.3094 65.1742C11.0012 61.2404 10.2907 57.0362 10.2907 52.6686C10.2907 48.2921 11.0043 44.0786 12.3181 40.1376C12.3467 40.0515 12.3743 39.966 12.4033 39.8798C12.4818 39.6503 12.5629 39.4217 12.6457 39.1937C12.6842 39.0866 12.7232 38.9802 12.7627 38.8739C17.2976 26.6678 27.6708 17.2777 40.471 14.1104C40.479 14.1086 40.4872 14.108 40.4953 14.1061C40.6845 14.0592 40.8752 14.0134 41.0661 13.9694C41.0876 13.9646 41.1081 13.9568 41.1287 13.9517C43.9212 13.3116 46.8248 12.9674 49.8044 12.9522L49.8388 17.0359C49.8493 18.3037 50.6499 18.6699 51.6166 17.8504L60.2428 10.5385C61.2094 9.71903 61.1991 8.39047 60.2175 7.58727L51.4701 0.421144C50.4894 -0.381843 49.6957 -0.00228333 49.7064 1.26532L49.7408 5.34101C37.1987 5.41041 25.4179 10.3247 16.5414 19.2008C15.667 20.0753 14.8325 20.9786 14.0361 21.9072C14.0313 21.9125 14.0264 21.9169 14.0214 21.9226C13.992 21.9568 13.9642 21.9924 13.9352 22.0266C6.94842 30.2252 3.00949 40.4434 2.70036 51.2837C2.69274 51.3679 2.68368 51.4515 2.68162 51.5376C2.67318 51.8992 2.66885 52.2668 2.66885 52.6303C2.66885 53.2263 2.681 53.8304 2.70345 54.4262C2.70592 54.496 2.71499 54.5642 2.72178 54.6328C3.12214 64.5096 6.53735 73.8476 12.5292 81.5821C12.5495 81.6087 12.5658 81.6371 12.5864 81.6637C13.1717 82.4191 13.7906 83.1675 14.4235 83.8875C14.4642 83.9339 14.5089 83.974 14.5509 84.0181C15.1916 84.7406 15.8531 85.4482 16.5416 86.1365C23.5691 93.1642 32.4176 97.708 42.0226 99.3311C42.0518 99.3364 42.0812 99.3422 42.1105 99.3475C42.1323 99.3508 42.1539 99.3523 42.1754 99.3556C44.7404 99.7802 47.3584 100 50.01 100C56.9877 100 63.7089 98.5153 69.9876 95.5886C70.1229 95.5256 70.2514 95.4533 70.3752 95.3769C70.5159 95.3285 70.6541 95.271 70.7904 95.2045C71.6519 94.784 72.5123 94.3321 73.3466 93.8599C75.1758 92.824 75.8196 90.5017 74.7839 88.6725C73.7478 86.8431 71.4253 86.2001 69.5965 87.2352Z" fill="#1E3F92"/>
<path d="M82.9915 30.5158C83.7261 31.6091 84.9288 32.1992 86.1536 32.1992C86.8835 32.1992 87.622 31.9897 88.2732 31.5519C90.0178 30.3794 90.4816 28.0149 89.3091 26.2702C88.7739 25.4742 88.2083 24.6848 87.6253 23.9242C86.3484 22.2544 83.9599 21.9368 82.2903 23.2137C80.6209 24.491 80.3029 26.88 81.5806 28.5492C82.0689 29.1878 82.5436 29.8495 82.9915 30.5158Z" fill="#1E3F92"/>
<path d="M87.8251 40.5114C88.0697 41.2756 88.2944 42.0593 88.4938 42.8408C88.9326 44.5625 90.4807 45.7078 92.1794 45.7078C92.4901 45.7078 92.8069 45.6693 93.122 45.589C95.159 45.07 96.3895 42.9976 95.8703 40.9609C95.6335 40.0315 95.3658 39.0992 95.0742 38.1897C94.4337 36.1879 92.291 35.0842 90.2894 35.7256C88.2872 36.3669 87.1839 38.5096 87.8251 40.5114Z" fill="#1E3F92"/>
<path d="M85.4007 78.2886C83.8099 76.9139 81.4071 77.0884 80.0322 78.6783C79.5058 79.2871 78.9547 79.887 78.3933 80.4612C76.9241 81.9648 76.9521 84.3744 78.4559 85.8438C79.1963 86.5673 80.1564 86.9277 81.1153 86.9277C82.1045 86.9277 83.0928 86.5442 83.8381 85.7814C84.5066 85.097 85.164 84.3826 85.7903 83.6575C87.1646 82.0669 86.9904 79.6633 85.4007 78.2886Z" fill="#1E3F92"/>
<path d="M93.6387 50.1966C91.5341 50.1334 89.783 51.7863 89.7208 53.8872C89.6971 54.6918 89.6475 55.5057 89.5737 56.3061C89.3816 58.3991 90.9229 60.252 93.0161 60.4441C93.1343 60.4551 93.2517 60.4602 93.3685 60.4602C95.3126 60.4602 96.9732 58.9768 97.154 57.002C97.2417 56.0466 97.3011 55.0755 97.3295 54.1148C97.3915 52.0143 95.74 50.2595 93.6387 50.1966Z" fill="#1E3F92"/>
<path d="M91.946 64.9559C89.9877 64.1891 87.7801 65.1548 87.0138 67.1125C86.7208 67.8611 86.4005 68.6118 86.0617 69.3425C85.1782 71.2496 86.008 73.5117 87.9152 74.3954C88.4336 74.6356 88.9773 74.749 89.513 74.749C90.9501 74.749 92.325 73.9314 92.9688 72.5421C93.3716 71.6722 93.7534 70.7794 94.1021 69.8877C94.8686 67.9305 93.9031 65.7224 91.946 64.9559Z" fill="#1E3F92"/>
<path d="M78.9842 19.9641C80.2353 18.2745 79.8801 15.8911 78.1905 14.6401C77.4213 14.0703 76.6236 13.5169 75.82 12.9942C74.0577 11.8485 71.7003 12.3477 70.5546 14.11C69.4091 15.8721 69.9081 18.2294 71.67 19.3755C72.3453 19.8141 73.0146 20.2794 73.6611 20.758C74.342 21.262 75.1359 21.5054 75.9232 21.5054C77.088 21.5054 78.2381 20.9722 78.9842 19.9641Z" fill="#1E3F92"/>
</g>
<defs>
<clipPath id="clip0_21_41">
<rect width="100" height="100" fill="white"/>
</clipPath>
</defs>
</svg>
