<svg width="140" height="44" viewBox="0 0 140 44" fill="none" xmlns="http://www.w3.org/2000/svg">
<rect x="1" y="1" width="138" height="42" rx="5" fill="#A56BB6" stroke="#D0D0D0" stroke-width="2"/>
<path d="M31.2962 17.3426C28.0978 15.5537 22.9642 12.6811 15.0016 8.22268C14.4648 7.86814 13.8471 7.82168 13.3135 8.00231L26.975 21.6638L31.2962 17.3426Z" fill="#32BBFF"/>
<path d="M13.3128 8.00232C13.2128 8.0362 13.1155 8.07707 13.0224 8.12643C12.433 8.44521 12 9.05862 12 9.83443V33.4932C12 34.2691 12.433 34.8825 13.0224 35.2012C13.1153 35.2505 13.2126 35.2915 13.3125 35.3256L26.9743 21.6638L13.3128 8.00232Z" fill="#32BBFF"/>
<path d="M26.9748 21.6638L13.313 35.3256C13.8468 35.5076 14.4645 35.4647 15.0015 35.105C22.7234 30.7809 27.7991 27.9424 31.0346 26.1382C31.1246 26.0876 31.2129 26.0381 31.3001 25.9892L26.9748 21.6638Z" fill="#32BBFF"/>
<path d="M12 21.6638V33.4932C12 34.269 12.433 34.8824 13.0224 35.2012C13.1153 35.2505 13.2126 35.2915 13.3125 35.3256L26.9743 21.6638H12Z" fill="#2C9FD9"/>
<path d="M15.0011 8.22271C14.3636 7.80176 13.6118 7.81375 13.0225 8.12651L26.7671 21.8712L31.2956 17.3427C28.0972 15.5537 22.9636 12.6811 15.0011 8.22271Z" fill="#29CC5E"/>
<path d="M26.7672 21.4565L13.0225 35.2011C13.6118 35.5138 14.3636 35.5319 15.0011 35.1049C22.723 30.7809 27.7987 27.9423 31.0342 26.1382C31.1242 26.0876 31.2125 26.0381 31.2997 25.9891L26.7672 21.4565Z" fill="#D93F21"/>
<path d="M36.9998 21.6638C36.9998 21.0083 36.669 20.3467 36.0135 19.9799C36.0135 19.9799 34.7875 19.2958 31.0295 17.1938L26.5596 21.6638L31.0339 26.1381C34.7506 24.0513 36.0134 23.3476 36.0134 23.3476C36.669 22.9808 36.9998 22.3193 36.9998 21.6638Z" fill="#FFD500"/>
<path d="M36.0135 23.3477C36.669 22.9809 36.9998 22.3193 36.9998 21.6638H26.5596L31.0339 26.1382C34.7506 24.0514 36.0135 23.3477 36.0135 23.3477Z" fill="#FFAA00"/>
<path d="M46.24 14.208C46.4827 14.208 46.6933 14.1867 46.872 14.144C47.0533 14.0987 47.2253 14.0373 47.388 13.96V12.908H46.664C46.5947 12.908 46.54 12.8893 46.5 12.852C46.46 12.812 46.44 12.764 46.44 12.708V12.1H48.364V14.44C48.2173 14.5467 48.064 14.64 47.904 14.72C47.7467 14.7973 47.5773 14.8613 47.396 14.912C47.2173 14.9627 47.0253 15 46.82 15.024C46.6147 15.0507 46.3933 15.064 46.156 15.064C45.7347 15.064 45.3467 14.9907 44.992 14.844C44.6373 14.6973 44.3307 14.4933 44.072 14.232C43.8133 13.9707 43.6107 13.6587 43.464 13.296C43.32 12.9333 43.248 12.5373 43.248 12.108C43.248 11.6733 43.3187 11.2747 43.46 10.912C43.6013 10.5493 43.8013 10.2373 44.06 9.976C44.3213 9.71467 44.6373 9.512 45.008 9.368C45.3787 9.224 45.7947 9.152 46.256 9.152C46.728 9.152 47.136 9.22267 47.48 9.364C47.8267 9.50267 48.12 9.684 48.36 9.908L48.048 10.396C47.9867 10.4947 47.9053 10.544 47.804 10.544C47.74 10.544 47.6747 10.5227 47.608 10.48C47.5227 10.4293 47.4347 10.3787 47.344 10.328C47.256 10.2773 47.1573 10.2333 47.048 10.196C46.9413 10.1587 46.82 10.128 46.684 10.104C46.5507 10.08 46.396 10.068 46.22 10.068C45.9347 10.068 45.676 10.116 45.444 10.212C45.2147 10.308 45.0187 10.4453 44.856 10.624C44.6933 10.8027 44.568 11.0173 44.48 11.268C44.392 11.5187 44.348 11.7987 44.348 12.108C44.348 12.4413 44.3947 12.7387 44.488 13C44.5813 13.2587 44.712 13.4773 44.88 13.656C45.048 13.8347 45.248 13.972 45.48 14.068C45.712 14.1613 45.9653 14.208 46.24 14.208ZM53.0133 9.216V10.072H50.4493V11.676H52.4693V12.504H50.4493V14.14H53.0133V15H49.3653V9.216H53.0133ZM58.0194 9.216V10.1H56.2794V15H55.2034V10.1H53.4554V9.216H58.0194ZM61.4601 15H60.3801V9.216H61.4601V15ZM63.3277 9.216C63.3757 9.216 63.4157 9.21867 63.4477 9.224C63.4797 9.22667 63.5077 9.23467 63.5317 9.248C63.5584 9.25867 63.5837 9.276 63.6077 9.3C63.6317 9.32133 63.6584 9.35067 63.6877 9.388L66.7237 13.256C66.713 13.1627 66.705 13.072 66.6997 12.984C66.697 12.8933 66.6957 12.8093 66.6957 12.732V9.216H67.6437V15H67.0877C67.0024 15 66.9317 14.9867 66.8757 14.96C66.8197 14.9333 66.765 14.8853 66.7117 14.816L63.6877 10.964C63.6957 11.0493 63.701 11.1347 63.7037 11.22C63.709 11.3027 63.7117 11.3787 63.7117 11.448V15H62.7637V9.216H63.3277ZM75.9054 12.108C75.9054 12.532 75.8348 12.9253 75.6934 13.288C75.5521 13.648 75.3534 13.96 75.0974 14.224C74.8414 14.488 74.5334 14.6947 74.1734 14.844C73.8134 14.9907 73.4148 15.064 72.9774 15.064C72.5401 15.064 72.1401 14.9907 71.7774 14.844C71.4174 14.6947 71.1081 14.488 70.8494 14.224C70.5934 13.96 70.3948 13.648 70.2534 13.288C70.1121 12.9253 70.0414 12.532 70.0414 12.108C70.0414 11.684 70.1121 11.292 70.2534 10.932C70.3948 10.5693 70.5934 10.256 70.8494 9.992C71.1081 9.728 71.4174 9.52267 71.7774 9.376C72.1401 9.22667 72.5401 9.152 72.9774 9.152C73.4148 9.152 73.8134 9.22667 74.1734 9.376C74.5334 9.52533 74.8414 9.732 75.0974 9.996C75.3534 10.2573 75.5521 10.5693 75.6934 10.932C75.8348 11.292 75.9054 11.684 75.9054 12.108ZM74.8014 12.108C74.8014 11.7907 74.7588 11.5067 74.6734 11.256C74.5908 11.0027 74.4708 10.788 74.3134 10.612C74.1561 10.436 73.9641 10.3013 73.7374 10.208C73.5134 10.1147 73.2601 10.068 72.9774 10.068C72.6948 10.068 72.4401 10.1147 72.2134 10.208C71.9868 10.3013 71.7934 10.436 71.6334 10.612C71.4761 10.788 71.3548 11.0027 71.2694 11.256C71.1841 11.5067 71.1414 11.7907 71.1414 12.108C71.1414 12.4253 71.1841 12.7107 71.2694 12.964C71.3548 13.2147 71.4761 13.428 71.6334 13.604C71.7934 13.7773 71.9868 13.9107 72.2134 14.004C72.4401 14.0973 72.6948 14.144 72.9774 14.144C73.2601 14.144 73.5134 14.0973 73.7374 14.004C73.9641 13.9107 74.1561 13.7773 74.3134 13.604C74.4708 13.428 74.5908 13.2147 74.6734 12.964C74.7588 12.7107 74.8014 12.4253 74.8014 12.108ZM77.3199 9.216C77.3679 9.216 77.4079 9.21867 77.4399 9.224C77.4719 9.22667 77.4999 9.23467 77.5239 9.248C77.5505 9.25867 77.5759 9.276 77.5999 9.3C77.6239 9.32133 77.6505 9.35067 77.6799 9.388L80.7159 13.256C80.7052 13.1627 80.6972 13.072 80.6919 12.984C80.6892 12.8933 80.6879 12.8093 80.6879 12.732V9.216H81.6359V15H81.0799C80.9945 15 80.9239 14.9867 80.8679 14.96C80.8119 14.9333 80.7572 14.8853 80.7039 14.816L77.6799 10.964C77.6879 11.0493 77.6932 11.1347 77.6959 11.22C77.7012 11.3027 77.7039 11.3787 77.7039 11.448V15H76.7559V9.216H77.3199Z" fill="white"/>
<path d="M49.48 31.416C49.9653 31.416 50.3867 31.3733 50.744 31.288C51.1067 31.1973 51.4507 31.0747 51.776 30.92V28.816H50.328C50.1893 28.816 50.08 28.7787 50 28.704C49.92 28.624 49.88 28.528 49.88 28.416V27.2H53.728V31.88C53.4347 32.0933 53.128 32.28 52.808 32.44C52.4933 32.5947 52.1547 32.7227 51.792 32.824C51.4347 32.9253 51.0507 33 50.64 33.048C50.2293 33.1013 49.7867 33.128 49.312 33.128C48.4693 33.128 47.6933 32.9813 46.984 32.688C46.2747 32.3947 45.6613 31.9867 45.144 31.464C44.6267 30.9413 44.2213 30.3173 43.928 29.592C43.64 28.8667 43.496 28.0747 43.496 27.216C43.496 26.3467 43.6373 25.5493 43.92 24.824C44.2027 24.0987 44.6027 23.4747 45.12 22.952C45.6427 22.4293 46.2747 22.024 47.016 21.736C47.7573 21.448 48.5893 21.304 49.512 21.304C50.456 21.304 51.272 21.4453 51.96 21.728C52.6533 22.0053 53.24 22.368 53.72 22.816L53.096 23.792C52.9733 23.9893 52.8107 24.088 52.608 24.088C52.48 24.088 52.3493 24.0453 52.216 23.96C52.0453 23.8587 51.8693 23.7573 51.688 23.656C51.512 23.5547 51.3147 23.4667 51.096 23.392C50.8827 23.3173 50.64 23.256 50.368 23.208C50.1013 23.16 49.792 23.136 49.44 23.136C48.8693 23.136 48.352 23.232 47.888 23.424C47.4293 23.616 47.0373 23.8907 46.712 24.248C46.3867 24.6053 46.136 25.0347 45.96 25.536C45.784 26.0373 45.696 26.5973 45.696 27.216C45.696 27.8827 45.7893 28.4773 45.976 29C46.1627 29.5173 46.424 29.9547 46.76 30.312C47.096 30.6693 47.496 30.944 47.96 31.136C48.424 31.3227 48.9307 31.416 49.48 31.416ZM59.6225 24.664C60.2358 24.664 60.7905 24.7627 61.2865 24.96C61.7878 25.1573 62.2145 25.4373 62.5665 25.8C62.9185 26.1627 63.1905 26.6053 63.3825 27.128C63.5745 27.6507 63.6705 28.2347 63.6705 28.88C63.6705 29.5307 63.5745 30.1173 63.3825 30.64C63.1905 31.1627 62.9185 31.608 62.5665 31.976C62.2145 32.344 61.7878 32.6267 61.2865 32.824C60.7905 33.0213 60.2358 33.12 59.6225 33.12C59.0092 33.12 58.4518 33.0213 57.9505 32.824C57.4492 32.6267 57.0198 32.344 56.6625 31.976C56.3105 31.608 56.0358 31.1627 55.8385 30.64C55.6465 30.1173 55.5505 29.5307 55.5505 28.88C55.5505 28.2347 55.6465 27.6507 55.8385 27.128C56.0358 26.6053 56.3105 26.1627 56.6625 25.8C57.0198 25.4373 57.4492 25.1573 57.9505 24.96C58.4518 24.7627 59.0092 24.664 59.6225 24.664ZM59.6225 31.6C60.3052 31.6 60.8092 31.3707 61.1345 30.912C61.4652 30.4533 61.6305 29.7813 61.6305 28.896C61.6305 28.0107 61.4652 27.336 61.1345 26.872C60.8092 26.408 60.3052 26.176 59.6225 26.176C58.9292 26.176 58.4172 26.4107 58.0865 26.88C57.7558 27.344 57.5905 28.016 57.5905 28.896C57.5905 29.776 57.7558 30.448 58.0865 30.912C58.4172 31.3707 58.9292 31.6 59.6225 31.6ZM69.2163 24.664C69.8296 24.664 70.3843 24.7627 70.8803 24.96C71.3816 25.1573 71.8083 25.4373 72.1603 25.8C72.5123 26.1627 72.7843 26.6053 72.9763 27.128C73.1683 27.6507 73.2643 28.2347 73.2643 28.88C73.2643 29.5307 73.1683 30.1173 72.9763 30.64C72.7843 31.1627 72.5123 31.608 72.1603 31.976C71.8083 32.344 71.3816 32.6267 70.8803 32.824C70.3843 33.0213 69.8296 33.12 69.2163 33.12C68.6029 33.12 68.0456 33.0213 67.5443 32.824C67.0429 32.6267 66.6136 32.344 66.2563 31.976C65.9043 31.608 65.6296 31.1627 65.4323 30.64C65.2403 30.1173 65.1443 29.5307 65.1443 28.88C65.1443 28.2347 65.2403 27.6507 65.4323 27.128C65.6296 26.6053 65.9043 26.1627 66.2563 25.8C66.6136 25.4373 67.0429 25.1573 67.5443 24.96C68.0456 24.7627 68.6029 24.664 69.2163 24.664ZM69.2163 31.6C69.8989 31.6 70.4029 31.3707 70.7283 30.912C71.0589 30.4533 71.2243 29.7813 71.2243 28.896C71.2243 28.0107 71.0589 27.336 70.7283 26.872C70.4029 26.408 69.8989 26.176 69.2163 26.176C68.5229 26.176 68.0109 26.4107 67.6803 26.88C67.3496 27.344 67.1843 28.016 67.1843 28.896C67.1843 29.776 67.3496 30.448 67.6803 30.912C68.0109 31.3707 68.5229 31.6 69.2163 31.6ZM78.146 24.648C78.498 24.648 78.8287 24.6853 79.138 24.76C79.4473 24.8293 79.73 24.9333 79.986 25.072H82.346V25.808C82.346 25.9307 82.314 26.0267 82.25 26.096C82.186 26.1653 82.0767 26.2133 81.922 26.24L81.186 26.376C81.2393 26.5147 81.2793 26.6613 81.306 26.816C81.338 26.9707 81.354 27.1333 81.354 27.304C81.354 27.7093 81.2713 28.0773 81.106 28.408C80.946 28.7333 80.722 29.0107 80.434 29.24C80.1513 29.4693 79.8127 29.648 79.418 29.776C79.0287 29.8987 78.6047 29.96 78.146 29.96C77.8367 29.96 77.5353 29.9307 77.242 29.872C76.986 30.0267 76.858 30.2 76.858 30.392C76.858 30.5573 76.9327 30.68 77.082 30.76C77.2367 30.8347 77.4367 30.888 77.682 30.92C77.9327 30.952 78.2153 30.9733 78.53 30.984C78.8447 30.9893 79.1673 31.0053 79.498 31.032C79.8287 31.0587 80.1513 31.1067 80.466 31.176C80.7807 31.24 81.0607 31.344 81.306 31.488C81.5567 31.632 81.7567 31.8293 81.906 32.08C82.0607 32.3253 82.138 32.6427 82.138 33.032C82.138 33.3947 82.0473 33.7467 81.866 34.088C81.69 34.4293 81.4313 34.7333 81.09 35C80.754 35.2667 80.3407 35.48 79.85 35.64C79.3593 35.8053 78.7993 35.888 78.17 35.888C77.546 35.888 77.0047 35.8267 76.546 35.704C76.0873 35.5867 75.706 35.4267 75.402 35.224C75.1033 35.0267 74.8793 34.7973 74.73 34.536C74.5807 34.2747 74.506 34.0027 74.506 33.72C74.506 33.336 74.6233 33.0133 74.858 32.752C75.0927 32.4907 75.418 32.2827 75.834 32.128C75.6313 32.016 75.4687 31.8667 75.346 31.68C75.2233 31.4933 75.162 31.2507 75.162 30.952C75.162 30.8293 75.1833 30.704 75.226 30.576C75.2687 30.4427 75.3327 30.312 75.418 30.184C75.5087 30.056 75.6207 29.936 75.754 29.824C75.8873 29.7067 76.0447 29.6027 76.226 29.512C75.81 29.288 75.482 28.9893 75.242 28.616C75.0073 28.2427 74.89 27.8053 74.89 27.304C74.89 26.8987 74.97 26.5333 75.13 26.208C75.2953 25.8773 75.522 25.5973 75.81 25.368C76.1033 25.1333 76.4473 24.9547 76.842 24.832C77.242 24.7093 77.6767 24.648 78.146 24.648ZM80.314 33.368C80.314 33.208 80.266 33.0773 80.17 32.976C80.074 32.8747 79.9433 32.7973 79.778 32.744C79.6127 32.6853 79.418 32.6427 79.194 32.616C78.9753 32.5893 78.7407 32.5707 78.49 32.56C78.2447 32.544 77.9887 32.5307 77.722 32.52C77.4607 32.504 77.2073 32.48 76.962 32.448C76.738 32.5707 76.5567 32.7173 76.418 32.888C76.2847 33.0533 76.218 33.2453 76.218 33.464C76.218 33.608 76.2527 33.7413 76.322 33.864C76.3967 33.992 76.5113 34.1013 76.666 34.192C76.826 34.2827 77.0313 34.352 77.282 34.4C77.5327 34.4533 77.8393 34.48 78.202 34.48C78.57 34.48 78.8873 34.4507 79.154 34.392C79.4207 34.3387 79.6393 34.2613 79.81 34.16C79.986 34.064 80.114 33.9467 80.194 33.808C80.274 33.6747 80.314 33.528 80.314 33.368ZM78.146 28.696C78.3913 28.696 78.6047 28.664 78.786 28.6C78.9673 28.5307 79.1167 28.4373 79.234 28.32C79.3567 28.2027 79.4473 28.0613 79.506 27.896C79.57 27.7307 79.602 27.5493 79.602 27.352C79.602 26.9467 79.4793 26.6267 79.234 26.392C78.994 26.152 78.6313 26.032 78.146 26.032C77.6607 26.032 77.2953 26.152 77.05 26.392C76.81 26.6267 76.69 26.9467 76.69 27.352C76.69 27.544 76.7193 27.7227 76.778 27.888C76.842 28.0533 76.9327 28.1973 77.05 28.32C77.1727 28.4373 77.3247 28.5307 77.506 28.6C77.6927 28.664 77.906 28.696 78.146 28.696ZM86.1913 21.112V33H84.2153V21.112H86.1913ZM92.323 24.664C92.8403 24.664 93.315 24.7467 93.747 24.912C94.1843 25.0773 94.5603 25.32 94.875 25.64C95.1897 25.9547 95.435 26.344 95.611 26.808C95.787 27.2667 95.875 27.792 95.875 28.384C95.875 28.5333 95.867 28.6587 95.851 28.76C95.8403 28.856 95.8163 28.9333 95.779 28.992C95.747 29.0453 95.7017 29.0853 95.643 29.112C95.5843 29.1333 95.5097 29.144 95.419 29.144H90.347C90.4057 29.9867 90.6323 30.6053 91.027 31C91.4217 31.3947 91.9443 31.592 92.595 31.592C92.915 31.592 93.1897 31.5547 93.419 31.48C93.6537 31.4053 93.8563 31.3227 94.027 31.232C94.203 31.1413 94.355 31.0587 94.483 30.984C94.6163 30.9093 94.7443 30.872 94.867 30.872C94.947 30.872 95.0163 30.888 95.075 30.92C95.1337 30.952 95.1843 30.9973 95.227 31.056L95.803 31.776C95.5843 32.032 95.339 32.248 95.067 32.424C94.795 32.5947 94.5097 32.7333 94.211 32.84C93.9177 32.9413 93.6163 33.0133 93.307 33.056C93.003 33.0987 92.707 33.12 92.419 33.12C91.8483 33.12 91.3177 33.0267 90.827 32.84C90.3363 32.648 89.9097 32.368 89.547 32C89.1843 31.6267 88.899 31.168 88.691 30.624C88.483 30.0747 88.379 29.44 88.379 28.72C88.379 28.16 88.4697 27.6347 88.651 27.144C88.8323 26.648 89.091 26.2187 89.427 25.856C89.7683 25.488 90.1817 25.1973 90.667 24.984C91.1577 24.7707 91.7097 24.664 92.323 24.664ZM92.363 26.08C91.787 26.08 91.3363 26.2427 91.011 26.568C90.6857 26.8933 90.4777 27.3547 90.387 27.952H94.099C94.099 27.696 94.0643 27.456 93.995 27.232C93.9257 27.0027 93.819 26.8027 93.675 26.632C93.531 26.4613 93.3497 26.328 93.131 26.232C92.9123 26.1307 92.6563 26.08 92.363 26.08ZM103.908 28.928V33H101.756V21.432H105.524C106.297 21.432 106.966 21.5227 107.532 21.704C108.097 21.8853 108.564 22.1387 108.932 22.464C109.3 22.7893 109.572 23.1787 109.748 23.632C109.924 24.0853 110.012 24.5813 110.012 25.12C110.012 25.68 109.918 26.1947 109.732 26.664C109.545 27.128 109.265 27.528 108.892 27.864C108.518 28.2 108.052 28.4613 107.492 28.648C106.932 28.8347 106.276 28.928 105.524 28.928H103.908ZM103.908 27.248H105.524C105.918 27.248 106.262 27.2 106.556 27.104C106.849 27.0027 107.092 26.8613 107.284 26.68C107.476 26.4933 107.62 26.2693 107.716 26.008C107.812 25.7413 107.86 25.4453 107.86 25.12C107.86 24.8107 107.812 24.5307 107.716 24.28C107.62 24.0293 107.476 23.816 107.284 23.64C107.092 23.464 106.849 23.3307 106.556 23.24C106.262 23.144 105.918 23.096 105.524 23.096H103.908V27.248ZM114.176 21.112V33H112.2V21.112H114.176ZM123.347 33H122.459C122.273 33 122.126 32.9733 122.019 32.92C121.913 32.8613 121.833 32.7467 121.779 32.576L121.603 31.992C121.395 32.1787 121.19 32.344 120.987 32.488C120.79 32.6267 120.585 32.744 120.371 32.84C120.158 32.936 119.931 33.008 119.691 33.056C119.451 33.104 119.185 33.128 118.891 33.128C118.545 33.128 118.225 33.0827 117.931 32.992C117.638 32.896 117.385 32.7547 117.171 32.568C116.963 32.3813 116.801 32.1493 116.683 31.872C116.566 31.5947 116.507 31.272 116.507 30.904C116.507 30.5947 116.587 30.2907 116.747 29.992C116.913 29.688 117.185 29.416 117.563 29.176C117.942 28.9307 118.446 28.728 119.075 28.568C119.705 28.408 120.486 28.3173 121.419 28.296V27.816C121.419 27.2667 121.302 26.8613 121.067 26.6C120.838 26.3333 120.502 26.2 120.059 26.2C119.739 26.2 119.473 26.2373 119.259 26.312C119.046 26.3867 118.859 26.472 118.699 26.568C118.545 26.6587 118.401 26.7413 118.267 26.816C118.134 26.8907 117.987 26.928 117.827 26.928C117.694 26.928 117.579 26.8933 117.483 26.824C117.387 26.7547 117.31 26.6693 117.251 26.568L116.891 25.936C117.835 25.072 118.974 24.64 120.307 24.64C120.787 24.64 121.214 24.72 121.587 24.88C121.966 25.0347 122.286 25.2533 122.547 25.536C122.809 25.8133 123.006 26.1467 123.139 26.536C123.278 26.9253 123.347 27.352 123.347 27.816V33ZM119.507 31.768C119.71 31.768 119.897 31.7493 120.067 31.712C120.238 31.6747 120.398 31.6187 120.547 31.544C120.702 31.4693 120.849 31.3787 120.987 31.272C121.131 31.16 121.275 31.0293 121.419 30.88V29.496C120.843 29.5227 120.361 29.5733 119.971 29.648C119.587 29.7173 119.278 29.808 119.043 29.92C118.809 30.032 118.641 30.1627 118.539 30.312C118.443 30.4613 118.395 30.624 118.395 30.8C118.395 31.1467 118.497 31.3947 118.699 31.544C118.907 31.6933 119.177 31.768 119.507 31.768ZM128.421 35.256C128.362 35.3947 128.285 35.4987 128.189 35.568C128.098 35.6427 127.957 35.68 127.765 35.68H126.293L127.829 32.392L124.509 24.792H126.237C126.397 24.792 126.52 24.8293 126.605 24.904C126.69 24.9787 126.754 25.064 126.797 25.16L128.549 29.416C128.608 29.5547 128.658 29.6987 128.701 29.848C128.744 29.9973 128.781 30.1467 128.813 30.296C128.856 30.1413 128.901 29.992 128.949 29.848C129.002 29.704 129.058 29.5573 129.117 29.408L130.765 25.16C130.808 25.0533 130.877 24.9653 130.973 24.896C131.074 24.8267 131.186 24.792 131.309 24.792H132.893L128.421 35.256Z" fill="white"/>
</svg>
