<svg width="140" height="44" viewBox="0 0 140 44" fill="none" xmlns="http://www.w3.org/2000/svg">
<rect x="1" y="1" width="138" height="42" rx="5" fill="#A56BB6" stroke="#D0D0D0" stroke-width="2"/>
<path d="M31.5444 9.45312C31.6075 9.45312 31.6706 9.45312 31.7373 9.45312C31.8921 11.1832 31.162 12.4759 30.2746 13.412C29.404 14.3416 28.2117 15.2433 26.2833 15.1065C26.1547 13.4012 26.886 12.2044 27.7722 11.2704C28.594 10.4 30.1007 9.62548 31.5444 9.45312Z" fill="white"/>
<path d="M37.3821 27.4601C37.3821 27.4773 37.3821 27.4924 37.3821 27.5086C36.8402 28.993 36.0672 30.2652 35.1238 31.4459C34.2627 32.5177 33.2074 33.9602 31.323 33.9602C29.6948 33.9602 28.6133 33.0133 26.9446 32.9874C25.1794 32.9616 24.2086 33.7792 22.5947 33.9849C22.4101 33.9849 22.2255 33.9849 22.0444 33.9849C20.8593 33.8298 19.9029 32.981 19.2061 32.2161C17.1514 29.9561 15.5637 27.0368 15.2683 23.3009C15.2683 22.9346 15.2683 22.5695 15.2683 22.2032C15.3934 19.5295 16.8298 17.3556 18.7392 16.3021C19.7468 15.7419 21.1321 15.2647 22.6745 15.478C23.3356 15.5706 24.0109 15.7753 24.6029 15.9778C25.1639 16.1728 25.8655 16.5186 26.5301 16.5003C26.9803 16.4884 27.4282 16.2762 27.882 16.1265C29.2112 15.6924 30.5143 15.1947 32.2318 15.4284C34.296 15.7107 35.7611 16.5402 36.6663 17.8199C34.9201 18.825 33.5397 20.3396 33.7755 22.926C33.9851 25.2755 35.4954 26.65 37.3821 27.4601Z" fill="white"/>
<path d="M53.1133 12.108C53.1133 12.532 53.0426 12.9213 52.9013 13.276C52.7599 13.6307 52.5613 13.936 52.3053 14.192C52.0493 14.448 51.7413 14.6467 51.3813 14.788C51.0213 14.9293 50.6213 15 50.1813 15H47.9773V9.216H50.1813C50.6213 9.216 51.0213 9.288 51.3813 9.432C51.7413 9.57333 52.0493 9.772 52.3053 10.028C52.5613 10.2813 52.7599 10.5853 52.9013 10.94C53.0426 11.2947 53.1133 11.684 53.1133 12.108ZM52.0093 12.108C52.0093 11.7907 51.9666 11.5067 51.8813 11.256C51.7986 11.0027 51.6773 10.7893 51.5173 10.616C51.3599 10.44 51.1679 10.3053 50.9413 10.212C50.7173 10.1187 50.4639 10.072 50.1813 10.072H49.0573V14.144H50.1813C50.4639 14.144 50.7173 14.0973 50.9413 14.004C51.1679 13.9107 51.3599 13.7773 51.5173 13.604C51.6773 13.428 51.7986 13.2147 51.8813 12.964C51.9666 12.7107 52.0093 12.4253 52.0093 12.108ZM55.6685 10.832C55.9725 10.832 56.2485 10.8813 56.4965 10.98C56.7472 11.0787 56.9605 11.2187 57.1365 11.4C57.3152 11.5813 57.4525 11.8027 57.5485 12.064C57.6445 12.3253 57.6925 12.6173 57.6925 12.94C57.6925 13.2653 57.6445 13.5587 57.5485 13.82C57.4525 14.0813 57.3152 14.304 57.1365 14.488C56.9605 14.672 56.7472 14.8133 56.4965 14.912C56.2485 15.0107 55.9725 15.06 55.6685 15.06C55.3618 15.06 55.0832 15.0107 54.8325 14.912C54.5818 14.8133 54.3672 14.672 54.1885 14.488C54.0125 14.304 53.8752 14.0813 53.7765 13.82C53.6805 13.5587 53.6325 13.2653 53.6325 12.94C53.6325 12.6173 53.6805 12.3253 53.7765 12.064C53.8752 11.8027 54.0125 11.5813 54.1885 11.4C54.3672 11.2187 54.5818 11.0787 54.8325 10.98C55.0832 10.8813 55.3618 10.832 55.6685 10.832ZM55.6685 14.3C56.0098 14.3 56.2618 14.1853 56.4245 13.956C56.5898 13.7267 56.6725 13.3907 56.6725 12.948C56.6725 12.5053 56.5898 12.168 56.4245 11.936C56.2618 11.704 56.0098 11.588 55.6685 11.588C55.3218 11.588 55.0645 11.7053 54.8965 11.94C54.7312 12.172 54.6485 12.508 54.6485 12.948C54.6485 13.388 54.7312 13.724 54.8965 13.956C55.0645 14.1853 55.3218 14.3 55.6685 14.3ZM64.2359 10.896L62.9319 15H62.1399C62.0493 15 61.9866 14.9413 61.9519 14.824L61.2159 12.452C61.1919 12.372 61.1693 12.2933 61.1479 12.216C61.1293 12.136 61.1133 12.056 61.0999 11.976C61.0839 12.056 61.0653 12.1373 61.0439 12.22C61.0253 12.3 61.0039 12.38 60.9799 12.46L60.2319 14.824C60.1999 14.9413 60.1293 15 60.0199 15H59.2599L57.9599 10.896H58.7479C58.8199 10.896 58.8813 10.9133 58.9319 10.948C58.9826 10.9827 59.0159 11.0267 59.0319 11.08L59.6199 13.272C59.6493 13.392 59.6746 13.5093 59.6959 13.624C59.7199 13.7387 59.7399 13.8533 59.7559 13.968C59.7853 13.8533 59.8159 13.7387 59.8479 13.624C59.8826 13.5093 59.9186 13.392 59.9559 13.272L60.6359 11.072C60.6519 11.0187 60.6826 10.9747 60.7279 10.94C60.7759 10.9053 60.8333 10.888 60.8999 10.888H61.3359C61.4053 10.888 61.4639 10.9053 61.5119 10.94C61.5626 10.9747 61.5959 11.0187 61.6119 11.072L62.2719 13.272C62.3066 13.392 62.3386 13.5107 62.3679 13.628C62.3999 13.7427 62.4306 13.8573 62.4599 13.972C62.4946 13.7453 62.5439 13.512 62.6079 13.272L63.2119 11.08C63.2306 11.0267 63.2639 10.9827 63.3119 10.948C63.3599 10.9133 63.4173 10.896 63.4839 10.896H64.2359ZM65.7218 11.4C65.8045 11.3173 65.8911 11.2413 65.9818 11.172C66.0751 11.1 66.1725 11.04 66.2738 10.992C66.3778 10.9413 66.4885 10.9027 66.6058 10.876C66.7231 10.8467 66.8511 10.832 66.9898 10.832C67.2138 10.832 67.4125 10.8707 67.5858 10.948C67.7591 11.0227 67.9031 11.1293 68.0178 11.268C68.1351 11.404 68.2231 11.568 68.2818 11.76C68.3431 11.9493 68.3738 12.1587 68.3738 12.388V15H67.3858V12.388C67.3858 12.1373 67.3285 11.944 67.2138 11.808C67.0991 11.6693 66.9245 11.6 66.6898 11.6C66.5191 11.6 66.3591 11.6387 66.2098 11.716C66.0605 11.7933 65.9191 11.8987 65.7858 12.032V15H64.7978V10.896H65.4018C65.5298 10.896 65.6138 10.956 65.6538 11.076L65.7218 11.4ZM70.3134 9.056V15H69.3254V9.056H70.3134ZM73.1138 10.832C73.4178 10.832 73.6938 10.8813 73.9418 10.98C74.1925 11.0787 74.4058 11.2187 74.5818 11.4C74.7605 11.5813 74.8978 11.8027 74.9938 12.064C75.0898 12.3253 75.1378 12.6173 75.1378 12.94C75.1378 13.2653 75.0898 13.5587 74.9938 13.82C74.8978 14.0813 74.7605 14.304 74.5818 14.488C74.4058 14.672 74.1925 14.8133 73.9418 14.912C73.6938 15.0107 73.4178 15.06 73.1138 15.06C72.8071 15.06 72.5285 15.0107 72.2778 14.912C72.0271 14.8133 71.8125 14.672 71.6338 14.488C71.4578 14.304 71.3205 14.0813 71.2218 13.82C71.1258 13.5587 71.0778 13.2653 71.0778 12.94C71.0778 12.6173 71.1258 12.3253 71.2218 12.064C71.3205 11.8027 71.4578 11.5813 71.6338 11.4C71.8125 11.2187 72.0271 11.0787 72.2778 10.98C72.5285 10.8813 72.8071 10.832 73.1138 10.832ZM73.1138 14.3C73.4551 14.3 73.7071 14.1853 73.8698 13.956C74.0351 13.7267 74.1178 13.3907 74.1178 12.948C74.1178 12.5053 74.0351 12.168 73.8698 11.936C73.7071 11.704 73.4551 11.588 73.1138 11.588C72.7671 11.588 72.5098 11.7053 72.3418 11.94C72.1765 12.172 72.0938 12.508 72.0938 12.948C72.0938 13.388 72.1765 13.724 72.3418 13.956C72.5098 14.1853 72.7671 14.3 73.1138 14.3ZM78.4676 11.944C78.3556 11.808 78.2329 11.712 78.0996 11.656C77.9689 11.6 77.8276 11.572 77.6756 11.572C77.5262 11.572 77.3916 11.6 77.2716 11.656C77.1516 11.712 77.0489 11.7973 76.9636 11.912C76.8782 12.024 76.8129 12.168 76.7676 12.344C76.7222 12.5173 76.6996 12.7227 76.6996 12.96C76.6996 13.2 76.7182 13.404 76.7556 13.572C76.7956 13.7373 76.8516 13.8733 76.9236 13.98C76.9956 14.084 77.0836 14.16 77.1876 14.208C77.2916 14.2533 77.4076 14.276 77.5356 14.276C77.7409 14.276 77.9156 14.2333 78.0596 14.148C78.2036 14.0627 78.3396 13.9413 78.4676 13.784V11.944ZM79.4556 9.056V15H78.8516C78.7209 15 78.6382 14.94 78.6036 14.82L78.5196 14.424C78.3542 14.6133 78.1636 14.7667 77.9476 14.884C77.7342 15.0013 77.4849 15.06 77.1996 15.06C76.9756 15.06 76.7702 15.0133 76.5836 14.92C76.3969 14.8267 76.2356 14.692 76.0996 14.516C75.9662 14.3373 75.8622 14.1173 75.7876 13.856C75.7156 13.5947 75.6796 13.296 75.6796 12.96C75.6796 12.656 75.7209 12.3733 75.8036 12.112C75.8862 11.8507 76.0049 11.624 76.1596 11.432C76.3142 11.24 76.4996 11.0907 76.7156 10.984C76.9316 10.8747 77.1742 10.82 77.4436 10.82C77.6729 10.82 77.8689 10.856 78.0316 10.928C78.1942 11 78.3396 11.0973 78.4676 11.22V9.056H79.4556ZM84.1919 10.832C84.4959 10.832 84.7719 10.8813 85.0199 10.98C85.2706 11.0787 85.4839 11.2187 85.6599 11.4C85.8386 11.5813 85.9759 11.8027 86.0719 12.064C86.1679 12.3253 86.2159 12.6173 86.2159 12.94C86.2159 13.2653 86.1679 13.5587 86.0719 13.82C85.9759 14.0813 85.8386 14.304 85.6599 14.488C85.4839 14.672 85.2706 14.8133 85.0199 14.912C84.7719 15.0107 84.4959 15.06 84.1919 15.06C83.8853 15.06 83.6066 15.0107 83.3559 14.912C83.1053 14.8133 82.8906 14.672 82.7119 14.488C82.5359 14.304 82.3986 14.0813 82.2999 13.82C82.2039 13.5587 82.1559 13.2653 82.1559 12.94C82.1559 12.6173 82.2039 12.3253 82.2999 12.064C82.3986 11.8027 82.5359 11.5813 82.7119 11.4C82.8906 11.2187 83.1053 11.0787 83.3559 10.98C83.6066 10.8813 83.8853 10.832 84.1919 10.832ZM84.1919 14.3C84.5333 14.3 84.7853 14.1853 84.9479 13.956C85.1133 13.7267 85.1959 13.3907 85.1959 12.948C85.1959 12.5053 85.1133 12.168 84.9479 11.936C84.7853 11.704 84.5333 11.588 84.1919 11.588C83.8453 11.588 83.5879 11.7053 83.4199 11.94C83.2546 12.172 83.1719 12.508 83.1719 12.948C83.1719 13.388 83.2546 13.724 83.4199 13.956C83.5879 14.1853 83.8453 14.3 84.1919 14.3ZM87.8937 11.4C87.9764 11.3173 88.063 11.2413 88.1537 11.172C88.247 11.1 88.3444 11.04 88.4457 10.992C88.5497 10.9413 88.6604 10.9027 88.7777 10.876C88.895 10.8467 89.023 10.832 89.1617 10.832C89.3857 10.832 89.5844 10.8707 89.7577 10.948C89.931 11.0227 90.075 11.1293 90.1897 11.268C90.307 11.404 90.395 11.568 90.4537 11.76C90.515 11.9493 90.5457 12.1587 90.5457 12.388V15H89.5577V12.388C89.5577 12.1373 89.5004 11.944 89.3857 11.808C89.271 11.6693 89.0964 11.6 88.8617 11.6C88.691 11.6 88.531 11.6387 88.3817 11.716C88.2324 11.7933 88.091 11.8987 87.9577 12.032V15H86.9697V10.896H87.5737C87.7017 10.896 87.7857 10.956 87.8257 11.076L87.8937 11.4ZM94.7986 15.064C94.4413 15.064 94.1666 14.964 93.9746 14.764C93.7853 14.5613 93.6906 14.2827 93.6906 13.928V11.636H93.2706C93.2173 11.636 93.172 11.6187 93.1346 11.584C93.0973 11.5493 93.0786 11.4973 93.0786 11.428V11.036L93.7386 10.928L93.9466 9.808C93.96 9.75467 93.9853 9.71333 94.0226 9.684C94.06 9.65467 94.108 9.64 94.1666 9.64H94.6786V10.932H95.7746V11.636H94.6786V13.86C94.6786 13.988 94.7093 14.088 94.7706 14.16C94.8346 14.232 94.9213 14.268 95.0306 14.268C95.092 14.268 95.1426 14.2613 95.1826 14.248C95.2253 14.232 95.2613 14.216 95.2906 14.2C95.3226 14.184 95.3506 14.1693 95.3746 14.156C95.3986 14.14 95.4226 14.132 95.4466 14.132C95.476 14.132 95.5 14.14 95.5186 14.156C95.5373 14.1693 95.5573 14.1907 95.5786 14.22L95.8746 14.7C95.7306 14.82 95.5653 14.9107 95.3786 14.972C95.192 15.0333 94.9986 15.064 94.7986 15.064ZM97.3952 11.336C97.5552 11.1867 97.7312 11.0653 97.9232 10.972C98.1152 10.8787 98.3405 10.832 98.5992 10.832C98.8232 10.832 99.0219 10.8707 99.1952 10.948C99.3685 11.0227 99.5125 11.1293 99.6272 11.268C99.7445 11.404 99.8325 11.568 99.8912 11.76C99.9525 11.9493 99.9832 12.1587 99.9832 12.388V15H98.9952V12.388C98.9952 12.1373 98.9379 11.944 98.8232 11.808C98.7085 11.6693 98.5339 11.6 98.2992 11.6C98.1285 11.6 97.9685 11.6387 97.8192 11.716C97.6699 11.7933 97.5285 11.8987 97.3952 12.032V15H96.4072V9.056H97.3952V11.336ZM103.567 12.476C103.567 12.348 103.548 12.228 103.511 12.116C103.476 12.0013 103.423 11.9013 103.351 11.816C103.279 11.7307 103.187 11.664 103.075 11.616C102.965 11.5653 102.837 11.54 102.691 11.54C102.405 11.54 102.18 11.6213 102.015 11.784C101.852 11.9467 101.748 12.1773 101.703 12.476H103.567ZM101.683 13.072C101.699 13.2827 101.736 13.4653 101.795 13.62C101.853 13.772 101.931 13.8987 102.027 14C102.123 14.0987 102.236 14.1733 102.367 14.224C102.5 14.272 102.647 14.296 102.807 14.296C102.967 14.296 103.104 14.2773 103.219 14.24C103.336 14.2027 103.437 14.1613 103.523 14.116C103.611 14.0707 103.687 14.0293 103.751 13.992C103.817 13.9547 103.881 13.936 103.943 13.936C104.025 13.936 104.087 13.9667 104.127 14.028L104.411 14.388C104.301 14.516 104.179 14.624 104.043 14.712C103.907 14.7973 103.764 14.8667 103.615 14.92C103.468 14.9707 103.317 15.0067 103.163 15.028C103.011 15.0493 102.863 15.06 102.719 15.06C102.433 15.06 102.168 15.0133 101.923 14.92C101.677 14.824 101.464 14.684 101.283 14.5C101.101 14.3133 100.959 14.084 100.855 13.812C100.751 13.5373 100.699 13.22 100.699 12.86C100.699 12.58 100.744 12.3173 100.835 12.072C100.925 11.824 101.055 11.6093 101.223 11.428C101.393 11.244 101.6 11.0987 101.843 10.992C102.088 10.8853 102.364 10.832 102.671 10.832C102.929 10.832 103.168 10.8733 103.387 10.956C103.605 11.0387 103.793 11.16 103.951 11.32C104.108 11.4773 104.231 11.672 104.319 11.904C104.409 12.1333 104.455 12.396 104.455 12.692C104.455 12.8413 104.439 12.9427 104.407 12.996C104.375 13.0467 104.313 13.072 104.223 13.072H101.683Z" fill="white"/>
<path d="M54.7333 28.632L53.3253 24.784C53.2559 24.6133 53.1839 24.4107 53.1093 24.176C53.0346 23.9413 52.9599 23.688 52.8853 23.416C52.8159 23.688 52.7439 23.944 52.6693 24.184C52.5946 24.4187 52.5226 24.624 52.4533 24.8L51.0533 28.632H54.7333ZM58.5333 33H56.8693C56.6826 33 56.5306 32.9547 56.4133 32.864C56.2959 32.768 56.2079 32.6507 56.1493 32.512L55.2853 30.152H50.4933L49.6293 32.512C49.5866 32.6347 49.5039 32.7467 49.3813 32.848C49.2586 32.9493 49.1066 33 48.9253 33H47.2453L51.7973 21.432H53.9893L58.5333 33ZM61.879 30.872C62.103 31.144 62.3457 31.336 62.607 31.448C62.8737 31.56 63.1617 31.616 63.471 31.616C63.7697 31.616 64.039 31.56 64.279 31.448C64.519 31.336 64.7217 31.1653 64.887 30.936C65.0577 30.7067 65.1883 30.4187 65.279 30.072C65.3697 29.72 65.415 29.3067 65.415 28.832C65.415 28.352 65.375 27.9467 65.295 27.616C65.2203 27.28 65.111 27.008 64.967 26.8C64.823 26.592 64.647 26.44 64.439 26.344C64.2363 26.248 64.0043 26.2 63.743 26.2C63.3323 26.2 62.983 26.288 62.695 26.464C62.407 26.6347 62.135 26.8773 61.879 27.192V30.872ZM61.775 25.912C62.111 25.5333 62.4923 25.2267 62.919 24.992C63.3457 24.7573 63.847 24.64 64.423 24.64C64.871 24.64 65.279 24.7333 65.647 24.92C66.0203 25.1067 66.3403 25.3787 66.607 25.736C66.879 26.088 67.087 26.5253 67.231 27.048C67.3803 27.5653 67.455 28.16 67.455 28.832C67.455 29.4453 67.3723 30.0133 67.207 30.536C67.0417 31.0587 66.8043 31.512 66.495 31.896C66.191 32.28 65.8203 32.5813 65.383 32.8C64.951 33.0133 64.4657 33.12 63.927 33.12C63.4683 33.12 63.0763 33.0507 62.751 32.912C62.4257 32.768 62.135 32.5707 61.879 32.32V35.68H59.903V24.792H61.111C61.367 24.792 61.535 24.912 61.615 25.152L61.775 25.912ZM71.4728 30.872C71.6968 31.144 71.9394 31.336 72.2008 31.448C72.4674 31.56 72.7554 31.616 73.0648 31.616C73.3634 31.616 73.6328 31.56 73.8728 31.448C74.1128 31.336 74.3154 31.1653 74.4808 30.936C74.6514 30.7067 74.7821 30.4187 74.8728 30.072C74.9634 29.72 75.0088 29.3067 75.0088 28.832C75.0088 28.352 74.9688 27.9467 74.8888 27.616C74.8141 27.28 74.7048 27.008 74.5608 26.8C74.4168 26.592 74.2408 26.44 74.0328 26.344C73.8301 26.248 73.5981 26.2 73.3368 26.2C72.9261 26.2 72.5768 26.288 72.2888 26.464C72.0008 26.6347 71.7288 26.8773 71.4728 27.192V30.872ZM71.3688 25.912C71.7048 25.5333 72.0861 25.2267 72.5128 24.992C72.9394 24.7573 73.4408 24.64 74.0168 24.64C74.4648 24.64 74.8728 24.7333 75.2408 24.92C75.6141 25.1067 75.9341 25.3787 76.2008 25.736C76.4728 26.088 76.6808 26.5253 76.8248 27.048C76.9741 27.5653 77.0488 28.16 77.0488 28.832C77.0488 29.4453 76.9661 30.0133 76.8008 30.536C76.6354 31.0587 76.3981 31.512 76.0888 31.896C75.7848 32.28 75.4141 32.5813 74.9768 32.8C74.5448 33.0133 74.0594 33.12 73.5208 33.12C73.0621 33.12 72.6701 33.0507 72.3448 32.912C72.0194 32.768 71.7288 32.5707 71.4728 32.32V35.68H69.4968V24.792H70.7048C70.9608 24.792 71.1288 24.912 71.2088 25.152L71.3688 25.912ZM89.9531 23.536C89.8891 23.648 89.8198 23.7307 89.7451 23.784C89.6758 23.832 89.5878 23.856 89.4811 23.856C89.3691 23.856 89.2465 23.816 89.1131 23.736C88.9851 23.6507 88.8305 23.5573 88.6491 23.456C88.4678 23.3547 88.2545 23.264 88.0091 23.184C87.7691 23.0987 87.4838 23.056 87.1531 23.056C86.8545 23.056 86.5931 23.0933 86.3691 23.168C86.1451 23.2373 85.9558 23.336 85.8011 23.464C85.6518 23.592 85.5398 23.7467 85.4651 23.928C85.3905 24.104 85.3531 24.2987 85.3531 24.512C85.3531 24.784 85.4278 25.0107 85.5771 25.192C85.7318 25.3733 85.9345 25.528 86.1851 25.656C86.4358 25.784 86.7211 25.8987 87.0411 26C87.3611 26.1013 87.6891 26.2107 88.0251 26.328C88.3611 26.44 88.6891 26.5733 89.0091 26.728C89.3291 26.8773 89.6145 27.0693 89.8651 27.304C90.1158 27.5333 90.3158 27.816 90.4651 28.152C90.6198 28.488 90.6971 28.896 90.6971 29.376C90.6971 29.8987 90.6065 30.3893 90.4251 30.848C90.2491 31.3013 89.9878 31.6987 89.6411 32.04C89.2998 32.376 88.8811 32.6427 88.3851 32.84C87.8891 33.032 87.3211 33.128 86.6811 33.128C86.3131 33.128 85.9505 33.0907 85.5931 33.016C85.2358 32.9467 84.8918 32.8453 84.5611 32.712C84.2358 32.5787 83.9291 32.4187 83.6411 32.232C83.3531 32.0453 83.0971 31.8373 82.8731 31.608L83.5051 30.576C83.5585 30.5013 83.6278 30.44 83.7131 30.392C83.7985 30.3387 83.8891 30.312 83.9851 30.312C84.1185 30.312 84.2625 30.368 84.4171 30.48C84.5718 30.5867 84.7558 30.7067 84.9691 30.84C85.1825 30.9733 85.4305 31.096 85.7131 31.208C86.0011 31.3147 86.3451 31.368 86.7451 31.368C87.3585 31.368 87.8331 31.224 88.1691 30.936C88.5051 30.6427 88.6731 30.224 88.6731 29.68C88.6731 29.376 88.5958 29.128 88.4411 28.936C88.2918 28.744 88.0918 28.584 87.8411 28.456C87.5905 28.3227 87.3051 28.2107 86.9851 28.12C86.6651 28.0293 86.3398 27.9307 86.0091 27.824C85.6785 27.7173 85.3531 27.5893 85.0331 27.44C84.7131 27.2907 84.4278 27.096 84.1771 26.856C83.9265 26.616 83.7238 26.3173 83.5691 25.96C83.4198 25.5973 83.3451 25.152 83.3451 24.624C83.3451 24.2027 83.4278 23.792 83.5931 23.392C83.7638 22.992 84.0091 22.6373 84.3291 22.328C84.6491 22.0187 85.0438 21.7707 85.5131 21.584C85.9825 21.3973 86.5211 21.304 87.1291 21.304C87.8118 21.304 88.4411 21.4107 89.0171 21.624C89.5931 21.8373 90.0838 22.136 90.4891 22.52L89.9531 23.536ZM95.139 33.128C94.4243 33.128 93.875 32.928 93.491 32.528C93.1123 32.1227 92.923 31.5653 92.923 30.856V26.272H92.083C91.9763 26.272 91.8857 26.2373 91.811 26.168C91.7363 26.0987 91.699 25.9947 91.699 25.856V25.072L93.019 24.856L93.435 22.616C93.4617 22.5093 93.5123 22.4267 93.587 22.368C93.6617 22.3093 93.7577 22.28 93.875 22.28H94.899V24.864H97.091V26.272H94.899V30.72C94.899 30.976 94.9603 31.176 95.083 31.32C95.211 31.464 95.3843 31.536 95.603 31.536C95.7257 31.536 95.827 31.5227 95.907 31.496C95.9923 31.464 96.0643 31.432 96.123 31.4C96.187 31.368 96.243 31.3387 96.291 31.312C96.339 31.28 96.387 31.264 96.435 31.264C96.4937 31.264 96.5417 31.28 96.579 31.312C96.6163 31.3387 96.6563 31.3813 96.699 31.44L97.291 32.4C97.003 32.64 96.6723 32.8213 96.299 32.944C95.9257 33.0667 95.539 33.128 95.139 33.128ZM102.426 24.664C103.034 24.664 103.586 24.7627 104.082 24.96C104.583 25.1573 105.01 25.4373 105.362 25.8C105.719 26.1627 105.994 26.6053 106.186 27.128C106.378 27.6507 106.474 28.2347 106.474 28.88C106.474 29.5307 106.378 30.1173 106.186 30.64C105.994 31.1627 105.719 31.608 105.362 31.976C105.01 32.344 104.583 32.6267 104.082 32.824C103.586 33.0213 103.034 33.12 102.426 33.12C101.812 33.12 101.255 33.0213 100.754 32.824C100.252 32.6267 99.823 32.344 99.4656 31.976C99.1136 31.608 98.839 31.1627 98.6416 30.64C98.4496 30.1173 98.3536 29.5307 98.3536 28.88C98.3536 28.2347 98.4496 27.6507 98.6416 27.128C98.839 26.6053 99.1136 26.1627 99.4656 25.8C99.823 25.4373 100.252 25.1573 100.754 24.96C101.255 24.7627 101.812 24.664 102.426 24.664ZM102.426 31.6C103.108 31.6 103.612 31.3707 103.938 30.912C104.268 30.4533 104.434 29.7813 104.434 28.896C104.434 28.0107 104.268 27.336 103.938 26.872C103.612 26.408 103.108 26.176 102.426 26.176C101.732 26.176 101.218 26.4107 100.882 26.88C100.551 27.344 100.386 28.016 100.386 28.896C100.386 29.776 100.551 30.448 100.882 30.912C101.218 31.3707 101.732 31.6 102.426 31.6ZM110.345 26.216C110.601 25.7253 110.905 25.3413 111.257 25.064C111.609 24.7813 112.025 24.64 112.505 24.64C112.884 24.64 113.188 24.7227 113.417 24.888L113.289 26.368C113.262 26.464 113.222 26.5333 113.169 26.576C113.121 26.6133 113.054 26.632 112.969 26.632C112.889 26.632 112.769 26.6187 112.609 26.592C112.454 26.5653 112.302 26.552 112.153 26.552C111.934 26.552 111.74 26.584 111.569 26.648C111.398 26.712 111.244 26.8053 111.105 26.928C110.972 27.0453 110.852 27.1893 110.745 27.36C110.644 27.5307 110.548 27.7253 110.457 27.944V33H108.481V24.792H109.641C109.844 24.792 109.985 24.8293 110.065 24.904C110.145 24.9733 110.198 25.1013 110.225 25.288L110.345 26.216ZM120.004 27.952C120.004 27.696 119.966 27.456 119.892 27.232C119.822 27.0027 119.716 26.8027 119.572 26.632C119.428 26.4613 119.244 26.328 119.02 26.232C118.801 26.1307 118.545 26.08 118.252 26.08C117.681 26.08 117.23 26.2427 116.9 26.568C116.574 26.8933 116.366 27.3547 116.276 27.952H120.004ZM116.236 29.144C116.268 29.5653 116.342 29.9307 116.46 30.24C116.577 30.544 116.732 30.7973 116.924 31C117.116 31.1973 117.342 31.3467 117.604 31.448C117.87 31.544 118.164 31.592 118.484 31.592C118.804 31.592 119.078 31.5547 119.308 31.48C119.542 31.4053 119.745 31.3227 119.916 31.232C120.092 31.1413 120.244 31.0587 120.372 30.984C120.505 30.9093 120.633 30.872 120.756 30.872C120.921 30.872 121.044 30.9333 121.124 31.056L121.692 31.776C121.473 32.032 121.228 32.248 120.956 32.424C120.684 32.5947 120.398 32.7333 120.1 32.84C119.806 32.9413 119.505 33.0133 119.196 33.056C118.892 33.0987 118.596 33.12 118.308 33.12C117.737 33.12 117.206 33.0267 116.716 32.84C116.225 32.648 115.798 32.368 115.436 32C115.073 31.6267 114.788 31.168 114.58 30.624C114.372 30.0747 114.268 29.44 114.268 28.72C114.268 28.16 114.358 27.6347 114.54 27.144C114.721 26.648 114.98 26.2187 115.316 25.856C115.657 25.488 116.07 25.1973 116.556 24.984C117.046 24.7707 117.598 24.664 118.212 24.664C118.729 24.664 119.206 24.7467 119.644 24.912C120.081 25.0773 120.457 25.32 120.772 25.64C121.086 25.9547 121.332 26.344 121.508 26.808C121.689 27.2667 121.78 27.792 121.78 28.384C121.78 28.6827 121.748 28.8853 121.684 28.992C121.62 29.0933 121.497 29.144 121.316 29.144H116.236Z" fill="white"/>
</svg>
