<svg width="140" height="44" viewBox="0 0 140 44" fill="none" xmlns="http://www.w3.org/2000/svg">
<rect x="1" y="1" width="138" height="42" rx="5" fill="#121212" stroke="#D0D0D0" stroke-width="2"/>
<path d="M30.9224 17.2614C27.7858 15.507 22.7516 12.69 14.9431 8.31786C14.4166 7.97018 13.8109 7.92462 13.2876 8.10175L26.6848 21.4989L30.9224 17.2614Z" fill="#32BBFF"/>
<path d="M13.2874 8.10181C13.1893 8.13503 13.0939 8.17511 13.0026 8.22352C12.4247 8.53613 12 9.13767 12 9.89847V33.0995C12 33.8603 12.4246 34.4619 13.0026 34.7744C13.0937 34.8228 13.1891 34.863 13.2871 34.8965L26.6846 21.499L13.2874 8.10181Z" fill="#32BBFF"/>
<path d="M26.6846 21.499L13.2871 34.8964C13.8106 35.0749 14.4163 35.0328 14.9429 34.68C22.5155 30.4397 27.493 27.656 30.6658 25.8868C30.7541 25.8372 30.8407 25.7886 30.9262 25.7406L26.6846 21.499Z" fill="#32BBFF"/>
<path d="M12 21.499V33.0995C12 33.8603 12.4246 34.4618 13.0026 34.7744C13.0937 34.8227 13.1891 34.863 13.2871 34.8964L26.6846 21.499H12Z" fill="#2C9FD9"/>
<path d="M14.9428 8.31788C14.3176 7.90507 13.5804 7.91683 13.0024 8.22354L26.4811 21.7023L30.922 17.2614C27.7855 15.5071 22.7513 12.69 14.9428 8.31788Z" fill="#29CC5E"/>
<path d="M26.4812 21.2957L13.0024 34.7744C13.5804 35.081 14.3176 35.0988 14.9428 34.68C22.5153 30.4397 27.4928 27.656 30.6656 25.8868C30.754 25.8372 30.8405 25.7886 30.926 25.7406L26.4812 21.2957Z" fill="#D93F21"/>
<path d="M36.5161 21.4989C36.5161 20.8561 36.1917 20.2074 35.5488 19.8476C35.5488 19.8476 34.3465 19.1768 30.6613 17.1155L26.2778 21.4989L30.6655 25.8867C34.3103 23.8402 35.5488 23.1502 35.5488 23.1502C36.1917 22.7905 36.5161 22.1418 36.5161 21.4989Z" fill="#FFD500"/>
<path d="M35.5488 23.1503C36.1917 22.7905 36.5161 22.1418 36.5161 21.499H26.2778L30.6655 25.8867C34.3104 23.8403 35.5488 23.1503 35.5488 23.1503Z" fill="#FFAA00"/>
<path d="M48.412 12.1V14.44C48.1187 14.656 47.8053 14.8147 47.472 14.916C47.1413 15.0147 46.7867 15.064 46.408 15.064C45.936 15.064 45.508 14.9907 45.124 14.844C44.7427 14.6973 44.416 14.4933 44.144 14.232C43.8747 13.9707 43.6667 13.6587 43.52 13.296C43.3733 12.9333 43.3 12.5373 43.3 12.108C43.3 11.6733 43.3707 11.2747 43.512 10.912C43.6533 10.5493 43.8533 10.2373 44.112 9.976C44.3733 9.71467 44.6893 9.512 45.06 9.368C45.4307 9.224 45.8467 9.152 46.308 9.152C46.5427 9.152 46.7613 9.17067 46.964 9.208C47.1693 9.24533 47.3587 9.29733 47.532 9.364C47.708 9.428 47.868 9.50667 48.012 9.6C48.156 9.69333 48.288 9.796 48.408 9.908L48.1 10.396C48.052 10.4733 47.9893 10.5213 47.912 10.54C47.8347 10.556 47.7507 10.536 47.66 10.48C47.572 10.4293 47.484 10.3787 47.396 10.328C47.308 10.2773 47.2093 10.2333 47.1 10.196C46.9933 10.1587 46.872 10.128 46.736 10.104C46.6027 10.08 46.448 10.068 46.272 10.068C45.9867 10.068 45.728 10.116 45.496 10.212C45.2667 10.308 45.0707 10.4453 44.908 10.624C44.7453 10.8027 44.62 11.0173 44.532 11.268C44.444 11.5187 44.4 11.7987 44.4 12.108C44.4 12.4387 44.4467 12.7347 44.54 12.996C44.636 13.2547 44.7693 13.4747 44.94 13.656C45.1133 13.8347 45.3213 13.972 45.564 14.068C45.8067 14.1613 46.0773 14.208 46.376 14.208C46.5893 14.208 46.78 14.1853 46.948 14.14C47.116 14.0947 47.28 14.0333 47.44 13.956V12.908H46.712C46.6427 12.908 46.588 12.8893 46.548 12.852C46.5107 12.812 46.492 12.764 46.492 12.708V12.1H48.412ZM50.5287 10.072V11.676H52.5527V12.504H50.5287V14.14H53.0967V15H49.4487V9.216H53.0967V10.072H50.5287ZM58.0903 10.1H56.3463V15H55.2703V10.1H53.5263V9.216H58.0903V10.1ZM61.6303 15H60.5503V9.216H61.6303V15ZM67.8013 9.216V15H67.2493C67.1639 15 67.0919 14.9867 67.0333 14.96C66.9773 14.9307 66.9226 14.8827 66.8693 14.816L63.8493 10.96C63.8653 11.136 63.8733 11.2987 63.8733 11.448V15H62.9253V9.216H63.4893C63.5346 9.216 63.5733 9.21867 63.6053 9.224C63.6399 9.22667 63.6693 9.23467 63.6933 9.248C63.7199 9.25867 63.7453 9.276 63.7693 9.3C63.7933 9.32133 63.8199 9.35067 63.8493 9.388L66.8813 13.26C66.8733 13.1667 66.8666 13.0747 66.8613 12.984C66.8559 12.8933 66.8533 12.8093 66.8533 12.732V9.216H67.8013ZM76.5506 12.108C76.5506 12.532 76.48 12.9253 76.3386 13.288C76.2 13.648 76.0026 13.96 75.7466 14.224C75.4906 14.488 75.1826 14.6947 74.8226 14.844C74.4626 14.9907 74.0626 15.064 73.6226 15.064C73.1853 15.064 72.7866 14.9907 72.4266 14.844C72.0666 14.6947 71.7573 14.488 71.4986 14.224C71.2426 13.96 71.044 13.648 70.9026 13.288C70.7613 12.9253 70.6906 12.532 70.6906 12.108C70.6906 11.684 70.7613 11.292 70.9026 10.932C71.044 10.5693 71.2426 10.256 71.4986 9.992C71.7573 9.728 72.0666 9.52267 72.4266 9.376C72.7866 9.22667 73.1853 9.152 73.6226 9.152C73.916 9.152 74.192 9.18667 74.4506 9.256C74.7093 9.32267 74.9466 9.41867 75.1626 9.544C75.3786 9.66667 75.572 9.81733 75.7426 9.996C75.916 10.172 76.0626 10.3693 76.1826 10.588C76.3026 10.8067 76.3933 11.044 76.4546 11.3C76.5186 11.556 76.5506 11.8253 76.5506 12.108ZM75.4506 12.108C75.4506 11.7907 75.408 11.5067 75.3226 11.256C75.2373 11.0027 75.116 10.788 74.9586 10.612C74.8013 10.436 74.6093 10.3013 74.3826 10.208C74.1586 10.1147 73.9053 10.068 73.6226 10.068C73.34 10.068 73.0853 10.1147 72.8586 10.208C72.6346 10.3013 72.4426 10.436 72.2826 10.612C72.1253 10.788 72.004 11.0027 71.9186 11.256C71.8333 11.5067 71.7906 11.7907 71.7906 12.108C71.7906 12.4253 71.8333 12.7107 71.9186 12.964C72.004 13.2147 72.1253 13.428 72.2826 13.604C72.4426 13.7773 72.6346 13.9107 72.8586 14.004C73.0853 14.0973 73.34 14.144 73.6226 14.144C73.9053 14.144 74.1586 14.0973 74.3826 14.004C74.6093 13.9107 74.8013 13.7773 74.9586 13.604C75.116 13.428 75.2373 13.2147 75.3226 12.964C75.408 12.7107 75.4506 12.4253 75.4506 12.108ZM82.3716 9.216V15H81.8196C81.7342 15 81.6622 14.9867 81.6036 14.96C81.5476 14.9307 81.4929 14.8827 81.4396 14.816L78.4196 10.96C78.4356 11.136 78.4436 11.2987 78.4436 11.448V15H77.4956V9.216H78.0596C78.1049 9.216 78.1436 9.21867 78.1756 9.224C78.2102 9.22667 78.2396 9.23467 78.2636 9.248C78.2902 9.25867 78.3156 9.276 78.3396 9.3C78.3636 9.32133 78.3902 9.35067 78.4196 9.388L81.4516 13.26C81.4436 13.1667 81.4369 13.0747 81.4316 12.984C81.4262 12.8933 81.4236 12.8093 81.4236 12.732V9.216H82.3716Z" fill="white"/>
<path d="M53.824 27.2V31.88C53.2373 32.312 52.6107 32.6293 51.944 32.832C51.2827 33.0293 50.5733 33.128 49.816 33.128C48.872 33.128 48.016 32.9813 47.248 32.688C46.4853 32.3947 45.832 31.9867 45.288 31.464C44.7493 30.9413 44.3333 30.3173 44.04 29.592C43.7467 28.8667 43.6 28.0747 43.6 27.216C43.6 26.3467 43.7413 25.5493 44.024 24.824C44.3067 24.0987 44.7067 23.4747 45.224 22.952C45.7467 22.4293 46.3787 22.024 47.12 21.736C47.8613 21.448 48.6933 21.304 49.616 21.304C50.0853 21.304 50.5227 21.3413 50.928 21.416C51.3387 21.4907 51.7173 21.5947 52.064 21.728C52.416 21.856 52.736 22.0133 53.024 22.2C53.312 22.3867 53.576 22.592 53.816 22.816L53.2 23.792C53.104 23.9467 52.9787 24.0427 52.824 24.08C52.6693 24.112 52.5013 24.072 52.32 23.96C52.144 23.8587 51.968 23.7573 51.792 23.656C51.616 23.5547 51.4187 23.4667 51.2 23.392C50.9867 23.3173 50.744 23.256 50.472 23.208C50.2053 23.16 49.896 23.136 49.544 23.136C48.9733 23.136 48.456 23.232 47.992 23.424C47.5333 23.616 47.1413 23.8907 46.816 24.248C46.4907 24.6053 46.24 25.0347 46.064 25.536C45.888 26.0373 45.8 26.5973 45.8 27.216C45.8 27.8773 45.8933 28.4693 46.08 28.992C46.272 29.5093 46.5387 29.9493 46.88 30.312C47.2267 30.6693 47.6427 30.944 48.128 31.136C48.6133 31.3227 49.1547 31.416 49.752 31.416C50.1787 31.416 50.56 31.3707 50.896 31.28C51.232 31.1893 51.56 31.0667 51.88 30.912V28.816H50.424C50.2853 28.816 50.176 28.7787 50.096 28.704C50.0213 28.624 49.984 28.528 49.984 28.416V27.2H53.824ZM59.6236 24.664C60.2316 24.664 60.7836 24.7627 61.2796 24.96C61.781 25.1573 62.2076 25.4373 62.5596 25.8C62.917 26.1627 63.1916 26.6053 63.3836 27.128C63.5756 27.6507 63.6716 28.2347 63.6716 28.88C63.6716 29.5307 63.5756 30.1173 63.3836 30.64C63.1916 31.1627 62.917 31.608 62.5596 31.976C62.2076 32.344 61.781 32.6267 61.2796 32.824C60.7836 33.0213 60.2316 33.12 59.6236 33.12C59.0103 33.12 58.453 33.0213 57.9516 32.824C57.4503 32.6267 57.021 32.344 56.6636 31.976C56.3116 31.608 56.037 31.1627 55.8396 30.64C55.6476 30.1173 55.5516 29.5307 55.5516 28.88C55.5516 28.2347 55.6476 27.6507 55.8396 27.128C56.037 26.6053 56.3116 26.1627 56.6636 25.8C57.021 25.4373 57.4503 25.1573 57.9516 24.96C58.453 24.7627 59.0103 24.664 59.6236 24.664ZM59.6236 31.6C60.3063 31.6 60.8103 31.3707 61.1356 30.912C61.4663 30.4533 61.6316 29.7813 61.6316 28.896C61.6316 28.0107 61.4663 27.336 61.1356 26.872C60.8103 26.408 60.3063 26.176 59.6236 26.176C58.9303 26.176 58.4156 26.4107 58.0796 26.88C57.749 27.344 57.5836 28.016 57.5836 28.896C57.5836 29.776 57.749 30.448 58.0796 30.912C58.4156 31.3707 58.9303 31.6 59.6236 31.6ZM69.3111 24.664C69.9191 24.664 70.4711 24.7627 70.9671 24.96C71.4685 25.1573 71.8951 25.4373 72.2471 25.8C72.6045 26.1627 72.8791 26.6053 73.0711 27.128C73.2631 27.6507 73.3591 28.2347 73.3591 28.88C73.3591 29.5307 73.2631 30.1173 73.0711 30.64C72.8791 31.1627 72.6045 31.608 72.2471 31.976C71.8951 32.344 71.4685 32.6267 70.9671 32.824C70.4711 33.0213 69.9191 33.12 69.3111 33.12C68.6978 33.12 68.1405 33.0213 67.6391 32.824C67.1378 32.6267 66.7085 32.344 66.3511 31.976C65.9991 31.608 65.7245 31.1627 65.5271 30.64C65.3351 30.1173 65.2391 29.5307 65.2391 28.88C65.2391 28.2347 65.3351 27.6507 65.5271 27.128C65.7245 26.6053 65.9991 26.1627 66.3511 25.8C66.7085 25.4373 67.1378 25.1573 67.6391 24.96C68.1405 24.7627 68.6978 24.664 69.3111 24.664ZM69.3111 31.6C69.9938 31.6 70.4978 31.3707 70.8231 30.912C71.1538 30.4533 71.3191 29.7813 71.3191 28.896C71.3191 28.0107 71.1538 27.336 70.8231 26.872C70.4978 26.408 69.9938 26.176 69.3111 26.176C68.6178 26.176 68.1031 26.4107 67.7671 26.88C67.4365 27.344 67.2711 28.016 67.2711 28.896C67.2711 29.776 67.4365 30.448 67.7671 30.912C68.1031 31.3707 68.6178 31.6 69.3111 31.6ZM78.3041 28.696C78.5495 28.696 78.7628 28.664 78.9441 28.6C79.1255 28.5307 79.2748 28.4373 79.3921 28.32C79.5148 28.2027 79.6055 28.0613 79.6641 27.896C79.7281 27.7307 79.7601 27.5493 79.7601 27.352C79.7601 26.9467 79.6375 26.6267 79.3921 26.392C79.1521 26.152 78.7895 26.032 78.3041 26.032C77.8188 26.032 77.4535 26.152 77.2081 26.392C76.9681 26.6267 76.8481 26.9467 76.8481 27.352C76.8481 27.544 76.8775 27.7227 76.9361 27.888C77.0001 28.0533 77.0908 28.1973 77.2081 28.32C77.3308 28.4373 77.4828 28.5307 77.6641 28.6C77.8508 28.664 78.0641 28.696 78.3041 28.696ZM80.5361 33.368C80.5361 33.208 80.4881 33.0773 80.3921 32.976C80.2961 32.8747 80.1655 32.7973 80.0001 32.744C79.8348 32.6853 79.6401 32.6427 79.4161 32.616C79.1975 32.5893 78.9628 32.5707 78.7121 32.56C78.4668 32.544 78.2108 32.5307 77.9441 32.52C77.6828 32.5093 77.4268 32.488 77.1761 32.456C76.9575 32.5787 76.7788 32.7227 76.6401 32.888C76.5068 33.0533 76.4401 33.2453 76.4401 33.464C76.4401 33.608 76.4748 33.7413 76.5441 33.864C76.6188 33.992 76.7335 34.1013 76.8881 34.192C77.0481 34.2827 77.2535 34.352 77.5041 34.4C77.7548 34.4533 78.0615 34.48 78.4241 34.48C78.7921 34.48 79.1095 34.4507 79.3761 34.392C79.6428 34.3387 79.8615 34.2613 80.0321 34.16C80.2081 34.064 80.3361 33.9467 80.4161 33.808C80.4961 33.6747 80.5361 33.528 80.5361 33.368ZM82.5041 25.072V25.808C82.5041 26.0427 82.3628 26.1867 82.0801 26.24L81.3441 26.376C81.4561 26.6587 81.5121 26.968 81.5121 27.304C81.5121 27.7093 81.4295 28.0773 81.2641 28.408C81.1041 28.7333 80.8801 29.0107 80.5921 29.24C80.3041 29.4693 79.9628 29.648 79.5681 29.776C79.1788 29.8987 78.7575 29.96 78.3041 29.96C78.1441 29.96 77.9895 29.952 77.8401 29.936C77.6908 29.92 77.5441 29.8987 77.4001 29.872C77.1441 30.0267 77.0161 30.2 77.0161 30.392C77.0161 30.5573 77.0908 30.68 77.2401 30.76C77.3948 30.8347 77.5975 30.888 77.8481 30.92C78.0988 30.952 78.3841 30.9733 78.7041 30.984C79.0241 30.9893 79.3521 31.0053 79.6881 31.032C80.0241 31.0587 80.3521 31.1067 80.6721 31.176C80.9921 31.24 81.2775 31.344 81.5281 31.488C81.7788 31.632 81.9788 31.8293 82.1281 32.08C82.2828 32.3253 82.3601 32.6427 82.3601 33.032C82.3601 33.3947 82.2695 33.7467 82.0881 34.088C81.9121 34.4293 81.6535 34.7333 81.3121 35C80.9761 35.2667 80.5601 35.48 80.0641 35.64C79.5735 35.8053 79.0135 35.888 78.3841 35.888C77.7655 35.888 77.2268 35.8267 76.7681 35.704C76.3095 35.5867 75.9281 35.4267 75.6241 35.224C75.3201 35.0267 75.0935 34.7973 74.9441 34.536C74.7948 34.2747 74.7201 34.0027 74.7201 33.72C74.7201 33.336 74.8348 33.016 75.0641 32.76C75.2988 32.4987 75.6188 32.2907 76.0241 32.136C75.8055 32.024 75.6321 31.8747 75.5041 31.688C75.3761 31.5013 75.3121 31.256 75.3121 30.952C75.3121 30.8293 75.3335 30.704 75.3761 30.576C75.4241 30.4427 75.4908 30.312 75.5761 30.184C75.6668 30.056 75.7788 29.936 75.9121 29.824C76.0455 29.7067 76.2028 29.6027 76.3841 29.512C75.9681 29.288 75.6401 28.9893 75.4001 28.616C75.1655 28.2427 75.0481 27.8053 75.0481 27.304C75.0481 26.8987 75.1281 26.5333 75.2881 26.208C75.4535 25.8773 75.6801 25.5973 75.9681 25.368C76.2615 25.1333 76.6055 24.9547 77.0001 24.832C77.4001 24.7093 77.8348 24.648 78.3041 24.648C78.6561 24.648 78.9868 24.6853 79.2961 24.76C79.6055 24.8293 79.8881 24.9333 80.1441 25.072H82.5041ZM86.2573 21.112V33H84.2812V21.112H86.2573ZM94.014 27.952C94.014 27.696 93.9767 27.456 93.902 27.232C93.8327 27.0027 93.726 26.8027 93.582 26.632C93.438 26.4613 93.254 26.328 93.03 26.232C92.8113 26.1307 92.5553 26.08 92.262 26.08C91.6913 26.08 91.2407 26.2427 90.91 26.568C90.5847 26.8933 90.3767 27.3547 90.286 27.952H94.014ZM90.246 29.144C90.278 29.5653 90.3527 29.9307 90.47 30.24C90.5873 30.544 90.742 30.7973 90.934 31C91.126 31.1973 91.3527 31.3467 91.614 31.448C91.8807 31.544 92.174 31.592 92.494 31.592C92.814 31.592 93.0887 31.5547 93.318 31.48C93.5527 31.4053 93.7553 31.3227 93.926 31.232C94.102 31.1413 94.254 31.0587 94.382 30.984C94.5153 30.9093 94.6433 30.872 94.766 30.872C94.9313 30.872 95.054 30.9333 95.134 31.056L95.702 31.776C95.4833 32.032 95.238 32.248 94.966 32.424C94.694 32.5947 94.4087 32.7333 94.11 32.84C93.8167 32.9413 93.5153 33.0133 93.206 33.056C92.902 33.0987 92.606 33.12 92.318 33.12C91.7473 33.12 91.2167 33.0267 90.726 32.84C90.2353 32.648 89.8087 32.368 89.446 32C89.0833 31.6267 88.798 31.168 88.59 30.624C88.382 30.0747 88.278 29.44 88.278 28.72C88.278 28.16 88.3687 27.6347 88.55 27.144C88.7313 26.648 88.99 26.2187 89.326 25.856C89.6673 25.488 90.0807 25.1973 90.566 24.984C91.0567 24.7707 91.6087 24.664 92.222 24.664C92.7393 24.664 93.2167 24.7467 93.654 24.912C94.0913 25.0773 94.4673 25.32 94.782 25.64C95.0967 25.9547 95.342 26.344 95.518 26.808C95.6993 27.2667 95.79 27.792 95.79 28.384C95.79 28.6827 95.758 28.8853 95.694 28.992C95.63 29.0933 95.5073 29.144 95.326 29.144H90.246ZM106.236 27.248C106.63 27.248 106.974 27.2 107.268 27.104C107.561 27.0027 107.804 26.8613 107.996 26.68C108.193 26.4933 108.34 26.2693 108.436 26.008C108.532 25.7413 108.58 25.4453 108.58 25.12C108.58 24.8107 108.532 24.5307 108.436 24.28C108.34 24.0293 108.196 23.816 108.004 23.64C107.812 23.464 107.569 23.3307 107.276 23.24C106.982 23.144 106.636 23.096 106.236 23.096H104.628V27.248H106.236ZM106.236 21.432C107.009 21.432 107.678 21.5227 108.244 21.704C108.809 21.8853 109.276 22.1387 109.644 22.464C110.012 22.7893 110.284 23.1787 110.46 23.632C110.641 24.0853 110.732 24.5813 110.732 25.12C110.732 25.68 110.638 26.1947 110.452 26.664C110.265 27.128 109.985 27.528 109.612 27.864C109.238 28.2 108.769 28.4613 108.204 28.648C107.644 28.8347 106.988 28.928 106.236 28.928H104.628V33H102.476V21.432H106.236ZM114.539 21.112V33H112.562V21.112H114.539ZM121.343 29.496C120.773 29.5227 120.293 29.5733 119.903 29.648C119.514 29.7173 119.202 29.808 118.967 29.92C118.733 30.032 118.565 30.1627 118.463 30.312C118.362 30.4613 118.311 30.624 118.311 30.8C118.311 31.1467 118.413 31.3947 118.615 31.544C118.823 31.6933 119.093 31.768 119.423 31.768C119.829 31.768 120.178 31.696 120.471 31.552C120.77 31.4027 121.061 31.1787 121.343 30.88V29.496ZM116.815 25.936C117.759 25.072 118.895 24.64 120.223 24.64C120.703 24.64 121.133 24.72 121.511 24.88C121.89 25.0347 122.21 25.2533 122.471 25.536C122.733 25.8133 122.93 26.1467 123.063 26.536C123.202 26.9253 123.271 27.352 123.271 27.816V33H122.375C122.189 33 122.045 32.9733 121.943 32.92C121.842 32.8613 121.762 32.7467 121.703 32.576L121.527 31.984C121.319 32.1707 121.117 32.336 120.919 32.48C120.722 32.6187 120.517 32.736 120.303 32.832C120.09 32.928 119.861 33 119.615 33.048C119.375 33.1013 119.109 33.128 118.815 33.128C118.469 33.128 118.149 33.0827 117.855 32.992C117.562 32.896 117.309 32.7547 117.095 32.568C116.882 32.3813 116.717 32.1493 116.599 31.872C116.482 31.5947 116.423 31.272 116.423 30.904C116.423 30.696 116.458 30.4907 116.527 30.288C116.597 30.08 116.709 29.8827 116.863 29.696C117.023 29.5093 117.229 29.3333 117.479 29.168C117.73 29.0027 118.037 28.8587 118.399 28.736C118.767 28.6133 119.194 28.5147 119.679 28.44C120.165 28.36 120.719 28.312 121.343 28.296V27.816C121.343 27.2667 121.226 26.8613 120.991 26.6C120.757 26.3333 120.418 26.2 119.975 26.2C119.655 26.2 119.389 26.2373 119.175 26.312C118.967 26.3867 118.783 26.472 118.623 26.568C118.463 26.6587 118.317 26.7413 118.183 26.816C118.055 26.8907 117.911 26.928 117.751 26.928C117.613 26.928 117.495 26.8933 117.399 26.824C117.303 26.7493 117.226 26.664 117.167 26.568L116.815 25.936ZM132.854 24.792L128.382 35.256C128.323 35.3947 128.246 35.4987 128.15 35.568C128.059 35.6427 127.918 35.68 127.726 35.68H126.254L127.79 32.384L124.47 24.792H126.206C126.361 24.792 126.481 24.8293 126.566 24.904C126.657 24.9787 126.723 25.064 126.766 25.16L128.51 29.416C128.569 29.56 128.617 29.704 128.654 29.848C128.697 29.992 128.737 30.1387 128.774 30.288C128.822 30.1387 128.87 29.992 128.918 29.848C128.966 29.6987 129.019 29.552 129.078 29.408L130.726 25.16C130.769 25.0533 130.838 24.9653 130.934 24.896C131.035 24.8267 131.147 24.792 131.27 24.792H132.854Z" fill="white"/>
</svg>
