<svg width="140" height="44" viewBox="0 0 140 44" fill="none" xmlns="http://www.w3.org/2000/svg">
<rect x="1" y="1" width="138" height="42" rx="5" fill="#121212" stroke="#D0D0D0" stroke-width="2"/>
<path d="M29.6643 6C29.7328 6 29.8013 6 29.8737 6C30.0417 8.07605 29.2493 9.62728 28.2863 10.7506C27.3413 11.8662 26.0473 12.9482 23.9545 12.784C23.8149 10.7377 24.6086 9.30152 25.5703 8.18076C26.4623 7.13627 28.0975 6.20683 29.6643 6Z" fill="white"/>
<path d="M36 27.6085C36 27.6292 36 27.6473 36 27.6667C35.4118 29.448 34.5729 30.9747 33.5491 32.3914C32.6145 33.6777 31.4691 35.4086 29.4241 35.4086C27.657 35.4086 26.4832 34.2723 24.6722 34.2413C22.7564 34.2103 21.7029 35.1914 19.9513 35.4383C19.7509 35.4383 19.5506 35.4383 19.3541 35.4383C18.0679 35.2522 17.0298 34.2335 16.2736 33.3157C14.0437 30.6037 12.3206 27.1005 12 22.6174C12 22.1779 12 21.7397 12 21.3002C12.1357 18.0918 13.6947 15.4831 15.7669 14.2189C16.8605 13.5467 18.3639 12.974 20.0379 13.23C20.7554 13.3411 21.4883 13.5867 22.1308 13.8298C22.7396 14.0637 23.501 14.4787 24.2223 14.4567C24.711 14.4425 25.197 14.1878 25.6895 14.0082C27.1322 13.4872 28.5464 12.89 30.4104 13.1705C32.6507 13.5092 34.2407 14.5046 35.2231 16.0403C33.328 17.2463 31.8298 19.0639 32.0857 22.1676C32.3133 24.9869 33.9524 26.6364 36 27.6085Z" fill="white"/>
<path d="M53.1135 12.108C53.1135 12.532 53.0428 12.9213 52.9015 13.276C52.7602 13.6307 52.5615 13.936 52.3055 14.192C52.0495 14.448 51.7415 14.6467 51.3815 14.788C51.0215 14.9293 50.6215 15 50.1815 15H47.9775V9.216H50.1815C50.6215 9.216 51.0215 9.288 51.3815 9.432C51.7415 9.57333 52.0495 9.772 52.3055 10.028C52.5615 10.2813 52.7602 10.5853 52.9015 10.94C53.0428 11.2947 53.1135 11.684 53.1135 12.108ZM52.0095 12.108C52.0095 11.7907 51.9668 11.5067 51.8815 11.256C51.7988 11.0027 51.6775 10.7893 51.5175 10.616C51.3602 10.44 51.1682 10.3053 50.9415 10.212C50.7175 10.1187 50.4642 10.072 50.1815 10.072H49.0575V14.144H50.1815C50.4642 14.144 50.7175 14.0973 50.9415 14.004C51.1682 13.9107 51.3602 13.7773 51.5175 13.604C51.6775 13.428 51.7988 13.2147 51.8815 12.964C51.9668 12.7107 52.0095 12.4253 52.0095 12.108ZM55.6687 10.832C55.9727 10.832 56.2487 10.8813 56.4967 10.98C56.7474 11.0787 56.9607 11.2187 57.1367 11.4C57.3154 11.5813 57.4527 11.8027 57.5487 12.064C57.6447 12.3253 57.6927 12.6173 57.6927 12.94C57.6927 13.2653 57.6447 13.5587 57.5487 13.82C57.4527 14.0813 57.3154 14.304 57.1367 14.488C56.9607 14.672 56.7474 14.8133 56.4967 14.912C56.2487 15.0107 55.9727 15.06 55.6687 15.06C55.3621 15.06 55.0834 15.0107 54.8327 14.912C54.5821 14.8133 54.3674 14.672 54.1887 14.488C54.0127 14.304 53.8754 14.0813 53.7767 13.82C53.6807 13.5587 53.6327 13.2653 53.6327 12.94C53.6327 12.6173 53.6807 12.3253 53.7767 12.064C53.8754 11.8027 54.0127 11.5813 54.1887 11.4C54.3674 11.2187 54.5821 11.0787 54.8327 10.98C55.0834 10.8813 55.3621 10.832 55.6687 10.832ZM55.6687 14.3C56.0101 14.3 56.2621 14.1853 56.4247 13.956C56.5901 13.7267 56.6727 13.3907 56.6727 12.948C56.6727 12.5053 56.5901 12.168 56.4247 11.936C56.2621 11.704 56.0101 11.588 55.6687 11.588C55.3221 11.588 55.0647 11.7053 54.8967 11.94C54.7314 12.172 54.6487 12.508 54.6487 12.948C54.6487 13.388 54.7314 13.724 54.8967 13.956C55.0647 14.1853 55.3221 14.3 55.6687 14.3ZM64.2362 10.896L62.9322 15H62.1402C62.0495 15 61.9869 14.9413 61.9522 14.824L61.2162 12.452C61.1922 12.372 61.1695 12.2933 61.1482 12.216C61.1295 12.136 61.1135 12.056 61.1002 11.976C61.0842 12.056 61.0655 12.1373 61.0442 12.22C61.0255 12.3 61.0042 12.38 60.9802 12.46L60.2322 14.824C60.2002 14.9413 60.1295 15 60.0202 15H59.2602L57.9602 10.896H58.7482C58.8202 10.896 58.8815 10.9133 58.9322 10.948C58.9829 10.9827 59.0162 11.0267 59.0322 11.08L59.6202 13.272C59.6495 13.392 59.6749 13.5093 59.6962 13.624C59.7202 13.7387 59.7402 13.8533 59.7562 13.968C59.7855 13.8533 59.8162 13.7387 59.8482 13.624C59.8829 13.5093 59.9189 13.392 59.9562 13.272L60.6362 11.072C60.6522 11.0187 60.6829 10.9747 60.7282 10.94C60.7762 10.9053 60.8335 10.888 60.9002 10.888H61.3362C61.4055 10.888 61.4642 10.9053 61.5122 10.94C61.5629 10.9747 61.5962 11.0187 61.6122 11.072L62.2722 13.272C62.3069 13.392 62.3389 13.5107 62.3682 13.628C62.4002 13.7427 62.4309 13.8573 62.4602 13.972C62.4949 13.7453 62.5442 13.512 62.6082 13.272L63.2122 11.08C63.2309 11.0267 63.2642 10.9827 63.3122 10.948C63.3602 10.9133 63.4175 10.896 63.4842 10.896H64.2362ZM65.7221 11.4C65.8047 11.3173 65.8914 11.2413 65.9821 11.172C66.0754 11.1 66.1727 11.04 66.2741 10.992C66.3781 10.9413 66.4887 10.9027 66.6061 10.876C66.7234 10.8467 66.8514 10.832 66.9901 10.832C67.2141 10.832 67.4127 10.8707 67.5861 10.948C67.7594 11.0227 67.9034 11.1293 68.0181 11.268C68.1354 11.404 68.2234 11.568 68.2821 11.76C68.3434 11.9493 68.3741 12.1587 68.3741 12.388V15H67.3861V12.388C67.3861 12.1373 67.3287 11.944 67.2141 11.808C67.0994 11.6693 66.9247 11.6 66.6901 11.6C66.5194 11.6 66.3594 11.6387 66.2101 11.716C66.0607 11.7933 65.9194 11.8987 65.7861 12.032V15H64.7981V10.896H65.4021C65.5301 10.896 65.6141 10.956 65.6541 11.076L65.7221 11.4ZM70.3137 9.056V15H69.3257V9.056H70.3137ZM73.1141 10.832C73.4181 10.832 73.6941 10.8813 73.9421 10.98C74.1927 11.0787 74.4061 11.2187 74.5821 11.4C74.7607 11.5813 74.8981 11.8027 74.9941 12.064C75.0901 12.3253 75.1381 12.6173 75.1381 12.94C75.1381 13.2653 75.0901 13.5587 74.9941 13.82C74.8981 14.0813 74.7607 14.304 74.5821 14.488C74.4061 14.672 74.1927 14.8133 73.9421 14.912C73.6941 15.0107 73.4181 15.06 73.1141 15.06C72.8074 15.06 72.5287 15.0107 72.2781 14.912C72.0274 14.8133 71.8127 14.672 71.6341 14.488C71.4581 14.304 71.3207 14.0813 71.2221 13.82C71.1261 13.5587 71.0781 13.2653 71.0781 12.94C71.0781 12.6173 71.1261 12.3253 71.2221 12.064C71.3207 11.8027 71.4581 11.5813 71.6341 11.4C71.8127 11.2187 72.0274 11.0787 72.2781 10.98C72.5287 10.8813 72.8074 10.832 73.1141 10.832ZM73.1141 14.3C73.4554 14.3 73.7074 14.1853 73.8701 13.956C74.0354 13.7267 74.1181 13.3907 74.1181 12.948C74.1181 12.5053 74.0354 12.168 73.8701 11.936C73.7074 11.704 73.4554 11.588 73.1141 11.588C72.7674 11.588 72.5101 11.7053 72.3421 11.94C72.1767 12.172 72.0941 12.508 72.0941 12.948C72.0941 13.388 72.1767 13.724 72.3421 13.956C72.5101 14.1853 72.7674 14.3 73.1141 14.3ZM78.4678 11.944C78.3558 11.808 78.2331 11.712 78.0998 11.656C77.9691 11.6 77.8278 11.572 77.6758 11.572C77.5265 11.572 77.3918 11.6 77.2718 11.656C77.1518 11.712 77.0491 11.7973 76.9638 11.912C76.8785 12.024 76.8131 12.168 76.7678 12.344C76.7225 12.5173 76.6998 12.7227 76.6998 12.96C76.6998 13.2 76.7185 13.404 76.7558 13.572C76.7958 13.7373 76.8518 13.8733 76.9238 13.98C76.9958 14.084 77.0838 14.16 77.1878 14.208C77.2918 14.2533 77.4078 14.276 77.5358 14.276C77.7411 14.276 77.9158 14.2333 78.0598 14.148C78.2038 14.0627 78.3398 13.9413 78.4678 13.784V11.944ZM79.4558 9.056V15H78.8518C78.7211 15 78.6385 14.94 78.6038 14.82L78.5198 14.424C78.3545 14.6133 78.1638 14.7667 77.9478 14.884C77.7345 15.0013 77.4851 15.06 77.1998 15.06C76.9758 15.06 76.7705 15.0133 76.5838 14.92C76.3971 14.8267 76.2358 14.692 76.0998 14.516C75.9665 14.3373 75.8625 14.1173 75.7878 13.856C75.7158 13.5947 75.6798 13.296 75.6798 12.96C75.6798 12.656 75.7211 12.3733 75.8038 12.112C75.8865 11.8507 76.0051 11.624 76.1598 11.432C76.3145 11.24 76.4998 11.0907 76.7158 10.984C76.9318 10.8747 77.1745 10.82 77.4438 10.82C77.6731 10.82 77.8691 10.856 78.0318 10.928C78.1945 11 78.3398 11.0973 78.4678 11.22V9.056H79.4558ZM84.1922 10.832C84.4962 10.832 84.7722 10.8813 85.0202 10.98C85.2709 11.0787 85.4842 11.2187 85.6602 11.4C85.8389 11.5813 85.9762 11.8027 86.0722 12.064C86.1682 12.3253 86.2162 12.6173 86.2162 12.94C86.2162 13.2653 86.1682 13.5587 86.0722 13.82C85.9762 14.0813 85.8389 14.304 85.6602 14.488C85.4842 14.672 85.2709 14.8133 85.0202 14.912C84.7722 15.0107 84.4962 15.06 84.1922 15.06C83.8855 15.06 83.6069 15.0107 83.3562 14.912C83.1055 14.8133 82.8909 14.672 82.7122 14.488C82.5362 14.304 82.3989 14.0813 82.3002 13.82C82.2042 13.5587 82.1562 13.2653 82.1562 12.94C82.1562 12.6173 82.2042 12.3253 82.3002 12.064C82.3989 11.8027 82.5362 11.5813 82.7122 11.4C82.8909 11.2187 83.1055 11.0787 83.3562 10.98C83.6069 10.8813 83.8855 10.832 84.1922 10.832ZM84.1922 14.3C84.5335 14.3 84.7855 14.1853 84.9482 13.956C85.1135 13.7267 85.1962 13.3907 85.1962 12.948C85.1962 12.5053 85.1135 12.168 84.9482 11.936C84.7855 11.704 84.5335 11.588 84.1922 11.588C83.8455 11.588 83.5882 11.7053 83.4202 11.94C83.2549 12.172 83.1722 12.508 83.1722 12.948C83.1722 13.388 83.2549 13.724 83.4202 13.956C83.5882 14.1853 83.8455 14.3 84.1922 14.3ZM87.8939 11.4C87.9766 11.3173 88.0633 11.2413 88.1539 11.172C88.2473 11.1 88.3446 11.04 88.4459 10.992C88.5499 10.9413 88.6606 10.9027 88.7779 10.876C88.8953 10.8467 89.0233 10.832 89.1619 10.832C89.3859 10.832 89.5846 10.8707 89.7579 10.948C89.9313 11.0227 90.0753 11.1293 90.1899 11.268C90.3073 11.404 90.3953 11.568 90.4539 11.76C90.5153 11.9493 90.5459 12.1587 90.5459 12.388V15H89.5579V12.388C89.5579 12.1373 89.5006 11.944 89.3859 11.808C89.2713 11.6693 89.0966 11.6 88.8619 11.6C88.6913 11.6 88.5313 11.6387 88.3819 11.716C88.2326 11.7933 88.0913 11.8987 87.9579 12.032V15H86.9699V10.896H87.5739C87.7019 10.896 87.7859 10.956 87.8259 11.076L87.8939 11.4ZM94.7989 15.064C94.4415 15.064 94.1669 14.964 93.9749 14.764C93.7855 14.5613 93.6909 14.2827 93.6909 13.928V11.636H93.2709C93.2175 11.636 93.1722 11.6187 93.1349 11.584C93.0975 11.5493 93.0789 11.4973 93.0789 11.428V11.036L93.7389 10.928L93.9469 9.808C93.9602 9.75467 93.9855 9.71333 94.0229 9.684C94.0602 9.65467 94.1082 9.64 94.1669 9.64H94.6789V10.932H95.7749V11.636H94.6789V13.86C94.6789 13.988 94.7095 14.088 94.7709 14.16C94.8349 14.232 94.9215 14.268 95.0309 14.268C95.0922 14.268 95.1429 14.2613 95.1829 14.248C95.2255 14.232 95.2615 14.216 95.2909 14.2C95.3229 14.184 95.3509 14.1693 95.3749 14.156C95.3989 14.14 95.4229 14.132 95.4469 14.132C95.4762 14.132 95.5002 14.14 95.5189 14.156C95.5375 14.1693 95.5575 14.1907 95.5789 14.22L95.8749 14.7C95.7309 14.82 95.5655 14.9107 95.3789 14.972C95.1922 15.0333 94.9989 15.064 94.7989 15.064ZM97.3954 11.336C97.5554 11.1867 97.7314 11.0653 97.9234 10.972C98.1154 10.8787 98.3408 10.832 98.5994 10.832C98.8234 10.832 99.0221 10.8707 99.1954 10.948C99.3688 11.0227 99.5128 11.1293 99.6274 11.268C99.7448 11.404 99.8328 11.568 99.8914 11.76C99.9528 11.9493 99.9834 12.1587 99.9834 12.388V15H98.9954V12.388C98.9954 12.1373 98.9381 11.944 98.8234 11.808C98.7088 11.6693 98.5341 11.6 98.2994 11.6C98.1288 11.6 97.9688 11.6387 97.8194 11.716C97.6701 11.7933 97.5288 11.8987 97.3954 12.032V15H96.4074V9.056H97.3954V11.336ZM103.567 12.476C103.567 12.348 103.548 12.228 103.511 12.116C103.476 12.0013 103.423 11.9013 103.351 11.816C103.279 11.7307 103.187 11.664 103.075 11.616C102.966 11.5653 102.838 11.54 102.691 11.54C102.406 11.54 102.18 11.6213 102.015 11.784C101.852 11.9467 101.748 12.1773 101.703 12.476H103.567ZM101.683 13.072C101.699 13.2827 101.736 13.4653 101.795 13.62C101.854 13.772 101.931 13.8987 102.027 14C102.123 14.0987 102.236 14.1733 102.367 14.224C102.5 14.272 102.647 14.296 102.807 14.296C102.967 14.296 103.104 14.2773 103.219 14.24C103.336 14.2027 103.438 14.1613 103.523 14.116C103.611 14.0707 103.687 14.0293 103.751 13.992C103.818 13.9547 103.882 13.936 103.943 13.936C104.026 13.936 104.087 13.9667 104.127 14.028L104.411 14.388C104.302 14.516 104.179 14.624 104.043 14.712C103.907 14.7973 103.764 14.8667 103.615 14.92C103.468 14.9707 103.318 15.0067 103.163 15.028C103.011 15.0493 102.863 15.06 102.719 15.06C102.434 15.06 102.168 15.0133 101.923 14.92C101.678 14.824 101.464 14.684 101.283 14.5C101.102 14.3133 100.959 14.084 100.855 13.812C100.751 13.5373 100.699 13.22 100.699 12.86C100.699 12.58 100.744 12.3173 100.835 12.072C100.926 11.824 101.055 11.6093 101.223 11.428C101.394 11.244 101.6 11.0987 101.843 10.992C102.088 10.8853 102.364 10.832 102.671 10.832C102.93 10.832 103.168 10.8733 103.387 10.956C103.606 11.0387 103.794 11.16 103.951 11.32C104.108 11.4773 104.231 11.672 104.319 11.904C104.41 12.1333 104.455 12.396 104.455 12.692C104.455 12.8413 104.439 12.9427 104.407 12.996C104.375 13.0467 104.314 13.072 104.223 13.072H101.683Z" fill="white"/>
<path d="M54.7335 28.632L53.3255 24.784C53.2562 24.6133 53.1842 24.4107 53.1095 24.176C53.0348 23.9413 52.9602 23.688 52.8855 23.416C52.8162 23.688 52.7442 23.944 52.6695 24.184C52.5948 24.4187 52.5228 24.624 52.4535 24.8L51.0535 28.632H54.7335ZM58.5335 33H56.8695C56.6828 33 56.5308 32.9547 56.4135 32.864C56.2962 32.768 56.2082 32.6507 56.1495 32.512L55.2855 30.152H50.4935L49.6295 32.512C49.5868 32.6347 49.5042 32.7467 49.3815 32.848C49.2588 32.9493 49.1068 33 48.9255 33H47.2455L51.7975 21.432H53.9895L58.5335 33ZM61.8792 30.872C62.1032 31.144 62.3459 31.336 62.6072 31.448C62.8739 31.56 63.1619 31.616 63.4712 31.616C63.7699 31.616 64.0392 31.56 64.2792 31.448C64.5192 31.336 64.7219 31.1653 64.8872 30.936C65.0579 30.7067 65.1886 30.4187 65.2792 30.072C65.3699 29.72 65.4152 29.3067 65.4152 28.832C65.4152 28.352 65.3752 27.9467 65.2952 27.616C65.2206 27.28 65.1112 27.008 64.9672 26.8C64.8232 26.592 64.6472 26.44 64.4392 26.344C64.2366 26.248 64.0046 26.2 63.7432 26.2C63.3326 26.2 62.9832 26.288 62.6952 26.464C62.4072 26.6347 62.1352 26.8773 61.8792 27.192V30.872ZM61.7752 25.912C62.1112 25.5333 62.4926 25.2267 62.9192 24.992C63.3459 24.7573 63.8472 24.64 64.4232 24.64C64.8712 24.64 65.2792 24.7333 65.6472 24.92C66.0206 25.1067 66.3406 25.3787 66.6072 25.736C66.8792 26.088 67.0872 26.5253 67.2312 27.048C67.3806 27.5653 67.4552 28.16 67.4552 28.832C67.4552 29.4453 67.3726 30.0133 67.2072 30.536C67.0419 31.0587 66.8046 31.512 66.4952 31.896C66.1912 32.28 65.8206 32.5813 65.3832 32.8C64.9512 33.0133 64.4659 33.12 63.9272 33.12C63.4686 33.12 63.0766 33.0507 62.7512 32.912C62.4259 32.768 62.1352 32.5707 61.8792 32.32V35.68H59.9032V24.792H61.1112C61.3672 24.792 61.5352 24.912 61.6152 25.152L61.7752 25.912ZM71.473 30.872C71.697 31.144 71.9397 31.336 72.201 31.448C72.4677 31.56 72.7557 31.616 73.065 31.616C73.3637 31.616 73.633 31.56 73.873 31.448C74.113 31.336 74.3157 31.1653 74.481 30.936C74.6517 30.7067 74.7823 30.4187 74.873 30.072C74.9637 29.72 75.009 29.3067 75.009 28.832C75.009 28.352 74.969 27.9467 74.889 27.616C74.8143 27.28 74.705 27.008 74.561 26.8C74.417 26.592 74.241 26.44 74.033 26.344C73.8303 26.248 73.5983 26.2 73.337 26.2C72.9263 26.2 72.577 26.288 72.289 26.464C72.001 26.6347 71.729 26.8773 71.473 27.192V30.872ZM71.369 25.912C71.705 25.5333 72.0863 25.2267 72.513 24.992C72.9397 24.7573 73.441 24.64 74.017 24.64C74.465 24.64 74.873 24.7333 75.241 24.92C75.6143 25.1067 75.9343 25.3787 76.201 25.736C76.473 26.088 76.681 26.5253 76.825 27.048C76.9743 27.5653 77.049 28.16 77.049 28.832C77.049 29.4453 76.9663 30.0133 76.801 30.536C76.6357 31.0587 76.3983 31.512 76.089 31.896C75.785 32.28 75.4143 32.5813 74.977 32.8C74.545 33.0133 74.0597 33.12 73.521 33.12C73.0623 33.12 72.6703 33.0507 72.345 32.912C72.0197 32.768 71.729 32.5707 71.473 32.32V35.68H69.497V24.792H70.705C70.961 24.792 71.129 24.912 71.209 25.152L71.369 25.912ZM89.9534 23.536C89.8894 23.648 89.82 23.7307 89.7454 23.784C89.676 23.832 89.588 23.856 89.4814 23.856C89.3694 23.856 89.2467 23.816 89.1134 23.736C88.9854 23.6507 88.8307 23.5573 88.6494 23.456C88.468 23.3547 88.2547 23.264 88.0094 23.184C87.7694 23.0987 87.484 23.056 87.1534 23.056C86.8547 23.056 86.5934 23.0933 86.3694 23.168C86.1454 23.2373 85.956 23.336 85.8014 23.464C85.652 23.592 85.54 23.7467 85.4654 23.928C85.3907 24.104 85.3534 24.2987 85.3534 24.512C85.3534 24.784 85.428 25.0107 85.5774 25.192C85.732 25.3733 85.9347 25.528 86.1854 25.656C86.436 25.784 86.7214 25.8987 87.0414 26C87.3614 26.1013 87.6894 26.2107 88.0254 26.328C88.3614 26.44 88.6894 26.5733 89.0094 26.728C89.3294 26.8773 89.6147 27.0693 89.8654 27.304C90.116 27.5333 90.316 27.816 90.4654 28.152C90.62 28.488 90.6974 28.896 90.6974 29.376C90.6974 29.8987 90.6067 30.3893 90.4254 30.848C90.2494 31.3013 89.988 31.6987 89.6414 32.04C89.3 32.376 88.8814 32.6427 88.3854 32.84C87.8894 33.032 87.3214 33.128 86.6814 33.128C86.3134 33.128 85.9507 33.0907 85.5934 33.016C85.236 32.9467 84.892 32.8453 84.5614 32.712C84.236 32.5787 83.9294 32.4187 83.6414 32.232C83.3534 32.0453 83.0974 31.8373 82.8734 31.608L83.5054 30.576C83.5587 30.5013 83.628 30.44 83.7134 30.392C83.7987 30.3387 83.8894 30.312 83.9854 30.312C84.1187 30.312 84.2627 30.368 84.4174 30.48C84.572 30.5867 84.756 30.7067 84.9694 30.84C85.1827 30.9733 85.4307 31.096 85.7134 31.208C86.0014 31.3147 86.3454 31.368 86.7454 31.368C87.3587 31.368 87.8334 31.224 88.1694 30.936C88.5054 30.6427 88.6734 30.224 88.6734 29.68C88.6734 29.376 88.596 29.128 88.4414 28.936C88.292 28.744 88.092 28.584 87.8414 28.456C87.5907 28.3227 87.3054 28.2107 86.9854 28.12C86.6654 28.0293 86.34 27.9307 86.0094 27.824C85.6787 27.7173 85.3534 27.5893 85.0334 27.44C84.7134 27.2907 84.428 27.096 84.1774 26.856C83.9267 26.616 83.724 26.3173 83.5694 25.96C83.42 25.5973 83.3454 25.152 83.3454 24.624C83.3454 24.2027 83.428 23.792 83.5934 23.392C83.764 22.992 84.0094 22.6373 84.3294 22.328C84.6494 22.0187 85.044 21.7707 85.5134 21.584C85.9827 21.3973 86.5214 21.304 87.1294 21.304C87.812 21.304 88.4414 21.4107 89.0174 21.624C89.5934 21.8373 90.084 22.136 90.4894 22.52L89.9534 23.536ZM95.1392 33.128C94.4246 33.128 93.8752 32.928 93.4912 32.528C93.1126 32.1227 92.9232 31.5653 92.9232 30.856V26.272H92.0832C91.9766 26.272 91.8859 26.2373 91.8112 26.168C91.7366 26.0987 91.6992 25.9947 91.6992 25.856V25.072L93.0192 24.856L93.4352 22.616C93.4619 22.5093 93.5126 22.4267 93.5872 22.368C93.6619 22.3093 93.7579 22.28 93.8752 22.28H94.8992V24.864H97.0912V26.272H94.8992V30.72C94.8992 30.976 94.9606 31.176 95.0832 31.32C95.2112 31.464 95.3846 31.536 95.6032 31.536C95.7259 31.536 95.8272 31.5227 95.9072 31.496C95.9926 31.464 96.0646 31.432 96.1232 31.4C96.1872 31.368 96.2432 31.3387 96.2912 31.312C96.3392 31.28 96.3872 31.264 96.4352 31.264C96.4939 31.264 96.5419 31.28 96.5792 31.312C96.6166 31.3387 96.6566 31.3813 96.6992 31.44L97.2912 32.4C97.0032 32.64 96.6726 32.8213 96.2992 32.944C95.9259 33.0667 95.5392 33.128 95.1392 33.128ZM102.426 24.664C103.034 24.664 103.586 24.7627 104.082 24.96C104.583 25.1573 105.01 25.4373 105.362 25.8C105.719 26.1627 105.994 26.6053 106.186 27.128C106.378 27.6507 106.474 28.2347 106.474 28.88C106.474 29.5307 106.378 30.1173 106.186 30.64C105.994 31.1627 105.719 31.608 105.362 31.976C105.01 32.344 104.583 32.6267 104.082 32.824C103.586 33.0213 103.034 33.12 102.426 33.12C101.813 33.12 101.255 33.0213 100.754 32.824C100.253 32.6267 99.8232 32.344 99.4659 31.976C99.1139 31.608 98.8392 31.1627 98.6419 30.64C98.4499 30.1173 98.3539 29.5307 98.3539 28.88C98.3539 28.2347 98.4499 27.6507 98.6419 27.128C98.8392 26.6053 99.1139 26.1627 99.4659 25.8C99.8232 25.4373 100.253 25.1573 100.754 24.96C101.255 24.7627 101.813 24.664 102.426 24.664ZM102.426 31.6C103.109 31.6 103.613 31.3707 103.938 30.912C104.269 30.4533 104.434 29.7813 104.434 28.896C104.434 28.0107 104.269 27.336 103.938 26.872C103.613 26.408 103.109 26.176 102.426 26.176C101.733 26.176 101.218 26.4107 100.882 26.88C100.551 27.344 100.386 28.016 100.386 28.896C100.386 29.776 100.551 30.448 100.882 30.912C101.218 31.3707 101.733 31.6 102.426 31.6ZM110.345 26.216C110.601 25.7253 110.905 25.3413 111.257 25.064C111.609 24.7813 112.025 24.64 112.505 24.64C112.884 24.64 113.188 24.7227 113.417 24.888L113.289 26.368C113.263 26.464 113.223 26.5333 113.169 26.576C113.121 26.6133 113.055 26.632 112.969 26.632C112.889 26.632 112.769 26.6187 112.609 26.592C112.455 26.5653 112.303 26.552 112.153 26.552C111.935 26.552 111.74 26.584 111.569 26.648C111.399 26.712 111.244 26.8053 111.105 26.928C110.972 27.0453 110.852 27.1893 110.745 27.36C110.644 27.5307 110.548 27.7253 110.457 27.944V33H108.481V24.792H109.641C109.844 24.792 109.985 24.8293 110.065 24.904C110.145 24.9733 110.199 25.1013 110.225 25.288L110.345 26.216ZM120.004 27.952C120.004 27.696 119.966 27.456 119.892 27.232C119.822 27.0027 119.716 26.8027 119.572 26.632C119.428 26.4613 119.244 26.328 119.02 26.232C118.801 26.1307 118.545 26.08 118.252 26.08C117.681 26.08 117.23 26.2427 116.9 26.568C116.574 26.8933 116.366 27.3547 116.276 27.952H120.004ZM116.236 29.144C116.268 29.5653 116.342 29.9307 116.46 30.24C116.577 30.544 116.732 30.7973 116.924 31C117.116 31.1973 117.342 31.3467 117.604 31.448C117.87 31.544 118.164 31.592 118.484 31.592C118.804 31.592 119.078 31.5547 119.308 31.48C119.542 31.4053 119.745 31.3227 119.916 31.232C120.092 31.1413 120.244 31.0587 120.372 30.984C120.505 30.9093 120.633 30.872 120.756 30.872C120.921 30.872 121.044 30.9333 121.124 31.056L121.692 31.776C121.473 32.032 121.228 32.248 120.956 32.424C120.684 32.5947 120.398 32.7333 120.1 32.84C119.806 32.9413 119.505 33.0133 119.196 33.056C118.892 33.0987 118.596 33.12 118.308 33.12C117.737 33.12 117.206 33.0267 116.716 32.84C116.225 32.648 115.798 32.368 115.436 32C115.073 31.6267 114.788 31.168 114.58 30.624C114.372 30.0747 114.268 29.44 114.268 28.72C114.268 28.16 114.358 27.6347 114.54 27.144C114.721 26.648 114.98 26.2187 115.316 25.856C115.657 25.488 116.07 25.1973 116.556 24.984C117.046 24.7707 117.598 24.664 118.212 24.664C118.729 24.664 119.206 24.7467 119.644 24.912C120.081 25.0773 120.457 25.32 120.772 25.64C121.086 25.9547 121.332 26.344 121.508 26.808C121.689 27.2667 121.78 27.792 121.78 28.384C121.78 28.6827 121.748 28.8853 121.684 28.992C121.62 29.0933 121.497 29.144 121.316 29.144H116.236Z" fill="white"/>
</svg>
