<svg width="299" height="94" viewBox="0 0 299 94" fill="none" xmlns="http://www.w3.org/2000/svg">
<g clip-path="url(#clip0_114_249)">
<path d="M287.926 0H11.0741C4.95803 0 0 5.26063 0 11.7499V82.2496C0 88.7389 4.95803 93.9995 11.0741 93.9995H287.926C294.042 93.9995 299 88.7389 299 82.2496V11.7499C299 5.26063 294.042 0 287.926 0Z" fill="white"/>
<path d="M287.926 1.88001C290.392 1.88303 292.757 2.92394 294.501 4.77437C296.244 6.6248 297.225 9.13362 297.228 11.7504V82.2501C297.225 84.8669 296.244 87.3757 294.5 89.2261C292.757 91.0765 290.392 92.1174 287.926 92.1205H11.0741C8.60777 92.1175 6.2433 91.0766 4.49939 89.2262C2.75549 87.3758 1.77458 84.8669 1.77185 82.2501V11.7504C1.77454 9.13359 2.75544 6.62473 4.49935 4.7743C6.24326 2.92387 8.60776 1.88298 11.0741 1.88001H287.926ZM287.926 0.000488281H11.0741C8.13969 0.00960177 5.32794 1.25046 3.25301 3.45203C1.17808 5.6536 0.00858927 8.63695 0 11.7504L0 82.2501C0.00858927 85.3636 1.17808 88.3469 3.25301 90.5485C5.32794 92.7501 8.13969 93.9909 11.0741 94H287.926C290.86 93.9909 293.672 92.7501 295.747 90.5485C297.822 88.3469 298.991 85.3636 299 82.2501V11.7504C298.991 8.63695 297.822 5.6536 295.747 3.45203C293.672 1.25046 290.86 0.00960177 287.926 0.000488281V0.000488281Z" fill="#A6A6A6"/>
<path d="M105.023 24.0716C105.063 24.934 104.938 25.7959 104.654 26.6051C104.37 27.4143 103.934 28.1537 103.373 28.7784C102.743 29.4711 101.983 30.015 101.142 30.3745C100.3 30.734 99.3972 30.9009 98.4909 30.8645C97.5789 30.8732 96.6744 30.6883 95.8307 30.3208C94.987 29.9533 94.221 29.4105 93.5778 28.7244C92.9346 28.0383 92.4272 27.2227 92.0853 26.3255C91.7435 25.4284 91.5741 24.4677 91.5871 23.5001C91.5742 22.5325 91.7436 21.5718 92.0855 20.6747C92.4274 19.7775 92.9348 18.9618 93.578 18.2757C94.2212 17.5895 94.9871 17.0466 95.8308 16.6789C96.6745 16.3112 97.5789 16.1261 98.4909 16.1346C99.4286 16.1315 100.357 16.3327 101.218 16.7256C102.019 17.0697 102.731 17.6095 103.297 18.301L102.129 19.5413C101.684 18.9854 101.124 18.5455 100.494 18.2554C99.8627 17.9654 99.1776 17.8329 98.4909 17.8684C97.7997 17.8646 97.1149 18.0088 96.4775 18.2925C95.8401 18.5762 95.2632 18.9934 94.7813 19.5193C94.2995 20.0451 93.9227 20.6687 93.6733 21.3527C93.424 22.0368 93.3074 22.7671 93.3304 23.5001C93.3139 24.598 93.6051 25.6764 94.167 26.5985C94.7289 27.5206 95.5362 28.2449 96.4866 28.6795C97.4369 29.1141 98.4875 29.2395 99.5051 29.0398C100.523 28.8401 101.462 28.3242 102.203 27.5576C102.884 26.778 103.28 25.7644 103.316 24.7014H98.4909V23.0078H104.93C104.991 23.3588 105.022 23.7148 105.023 24.0716Z" fill="black"/>
<path d="M115.232 18.1828H109.18V22.6532H114.637V24.3471H109.18V28.8174H115.232V30.5501H107.474V16.4502H115.232V18.1828Z" fill="black"/>
<path d="M122.432 30.5501H120.723V18.1828H117.012V16.4502H126.144V18.1828H122.432V30.5501Z" fill="black"/>
<path d="M132.751 30.5501V16.4502H134.458V30.5501H132.751Z" fill="black"/>
<path d="M142.032 30.5501H140.324V18.1828H136.612V16.4502H145.744V18.1828H142.032V30.5501Z" fill="black"/>
<path d="M163.031 28.7279C161.738 30.0962 159.986 30.8645 158.159 30.8645C156.333 30.8645 154.581 30.0962 153.287 28.7279C152.647 28.0402 152.144 27.2231 151.808 26.325C151.472 25.4269 151.309 24.4662 151.33 23.5001C151.309 22.534 151.472 21.5733 151.808 20.6753C152.144 19.7772 152.647 18.96 153.287 18.2723C153.927 17.5938 154.686 17.0557 155.521 16.6889C156.357 16.3221 157.252 16.1337 158.157 16.1346C159.061 16.1354 159.956 16.3255 160.791 16.6939C161.626 17.0623 162.384 17.6018 163.022 18.2815C163.663 18.9674 164.167 19.7827 164.505 20.6792C164.842 21.5756 165.007 22.5349 164.989 23.5001C165.009 24.4662 164.846 25.4266 164.509 26.3246C164.173 27.2226 163.671 28.0399 163.031 28.7279ZM154.548 27.5473C155.506 28.562 156.804 29.1319 158.158 29.1319C159.512 29.1319 160.81 28.562 161.768 27.5473C162.259 27.0136 162.643 26.3799 162.897 25.6843C163.151 24.9886 163.27 24.2456 163.245 23.5001C163.27 22.7546 163.151 22.0116 162.897 21.316C162.643 20.6204 162.259 19.9866 161.768 19.453C160.81 18.4383 159.512 17.8683 158.158 17.8683C156.804 17.8683 155.506 18.4383 154.548 19.453C154.058 19.987 153.674 20.6209 153.42 21.3165C153.167 22.012 153.049 22.7548 153.073 23.5001C153.049 24.2454 153.167 24.9882 153.42 25.6838C153.674 26.3793 154.058 27.0132 154.548 27.5473Z" fill="black"/>
<path d="M167.385 30.5501V16.4502H169.464L175.922 27.4187H175.995L175.922 24.7014V16.4502H177.631V30.5501H175.848L169.091 19.0502H169.018L169.091 21.7675V30.5501H167.385Z" fill="black"/>
<path d="M105.023 24.0716C105.063 24.934 104.938 25.7959 104.654 26.6051C104.37 27.4143 103.934 28.1537 103.373 28.7784C102.743 29.4711 101.983 30.015 101.142 30.3745C100.3 30.734 99.3972 30.9009 98.4909 30.8645C97.5789 30.8732 96.6744 30.6883 95.8307 30.3208C94.987 29.9533 94.221 29.4105 93.5778 28.7244C92.9346 28.0383 92.4272 27.2227 92.0853 26.3255C91.7435 25.4284 91.5741 24.4677 91.5871 23.5001C91.5742 22.5325 91.7436 21.5718 92.0855 20.6747C92.4274 19.7775 92.9348 18.9618 93.578 18.2757C94.2212 17.5895 94.9871 17.0466 95.8308 16.6789C96.6745 16.3112 97.5789 16.1261 98.4909 16.1346C99.4286 16.1315 100.357 16.3327 101.218 16.7256C102.019 17.0697 102.731 17.6095 103.297 18.301L102.129 19.5413C101.684 18.9854 101.124 18.5455 100.494 18.2554C99.8627 17.9654 99.1776 17.8329 98.4909 17.8684C97.7997 17.8646 97.1149 18.0088 96.4775 18.2925C95.8401 18.5762 95.2632 18.9934 94.7813 19.5193C94.2995 20.0451 93.9227 20.6687 93.6733 21.3527C93.424 22.0368 93.3074 22.7671 93.3304 23.5001C93.3139 24.598 93.6051 25.6764 94.167 26.5985C94.7289 27.5206 95.5362 28.2449 96.4866 28.6795C97.4369 29.1141 98.4875 29.2395 99.5051 29.0398C100.523 28.8401 101.462 28.3242 102.203 27.5576C102.884 26.778 103.28 25.7644 103.316 24.7014H98.4909V23.0078H104.93C104.991 23.3588 105.022 23.7148 105.023 24.0716Z" stroke="white" stroke-width="0.2" stroke-miterlimit="10"/>
<path d="M115.232 18.1828H109.18V22.6532H114.637V24.3471H109.18V28.8174H115.232V30.5501H107.474V16.4502H115.232V18.1828Z" stroke="white" stroke-width="0.2" stroke-miterlimit="10"/>
<path d="M122.432 30.5501H120.723V18.1828H117.012V16.4502H126.144V18.1828H122.432V30.5501Z" stroke="white" stroke-width="0.2" stroke-miterlimit="10"/>
<path d="M132.751 30.5501V16.4502H134.458V30.5501H132.751Z" stroke="white" stroke-width="0.2" stroke-miterlimit="10"/>
<path d="M142.032 30.5501H140.324V18.1828H136.612V16.4502H145.744V18.1828H142.032V30.5501Z" stroke="white" stroke-width="0.2" stroke-miterlimit="10"/>
<path d="M163.031 28.7279C161.738 30.0962 159.986 30.8645 158.159 30.8645C156.333 30.8645 154.581 30.0962 153.287 28.7279C152.647 28.0402 152.144 27.2231 151.808 26.325C151.472 25.4269 151.309 24.4662 151.33 23.5001C151.309 22.534 151.472 21.5733 151.808 20.6753C152.144 19.7772 152.647 18.96 153.287 18.2723C153.927 17.5938 154.686 17.0557 155.521 16.6889C156.357 16.3221 157.252 16.1337 158.157 16.1346C159.061 16.1354 159.956 16.3255 160.791 16.6939C161.626 17.0623 162.384 17.6018 163.022 18.2815C163.663 18.9674 164.167 19.7827 164.505 20.6792C164.842 21.5756 165.007 22.5349 164.989 23.5001C165.009 24.4662 164.846 25.4266 164.509 26.3246C164.173 27.2226 163.671 28.0399 163.031 28.7279ZM154.548 27.5473C155.506 28.562 156.804 29.1319 158.158 29.1319C159.512 29.1319 160.81 28.562 161.768 27.5473C162.259 27.0136 162.643 26.3799 162.897 25.6843C163.151 24.9886 163.27 24.2456 163.245 23.5001C163.27 22.7546 163.151 22.0116 162.897 21.316C162.643 20.6204 162.259 19.9866 161.768 19.453C160.81 18.4383 159.512 17.8683 158.158 17.8683C156.804 17.8683 155.506 18.4383 154.548 19.453C154.058 19.987 153.674 20.6209 153.42 21.3165C153.167 22.012 153.049 22.7548 153.073 23.5001C153.049 24.2454 153.167 24.9882 153.42 25.6838C153.674 26.3793 154.058 27.0132 154.548 27.5473Z" stroke="white" stroke-width="0.2" stroke-miterlimit="10"/>
<path d="M167.385 30.5501V16.4502H169.464L175.922 27.4187H175.995L175.922 24.7014V16.4502H177.631V30.5501H175.848L169.091 19.0502H169.018L169.091 21.7675V30.5501H167.385Z" stroke="white" stroke-width="0.2" stroke-miterlimit="10"/>
<path d="M150.908 51.1163C149.047 51.1237 147.229 51.7163 145.684 52.8191C144.14 53.9219 142.938 55.4855 142.231 57.3125C141.523 59.1395 141.342 61.148 141.709 63.0843C142.077 65.0206 142.977 66.798 144.296 68.192C145.614 69.586 147.293 70.5342 149.119 70.9168C150.946 71.2993 152.838 71.0992 154.557 70.3415C156.276 69.5839 157.745 68.3028 158.779 66.66C159.812 65.0171 160.364 63.0862 160.364 61.111C160.382 59.7899 160.15 58.4784 159.681 57.2545C159.211 56.0306 158.515 54.9193 157.633 53.9868C156.751 53.0543 155.701 52.3197 154.545 51.8265C153.39 51.3334 152.153 51.0918 150.908 51.1163V51.1163ZM150.908 67.1686C149.762 67.2553 148.617 66.9738 147.624 66.3607C146.63 65.7476 145.834 64.8313 145.338 63.7312C144.842 62.631 144.67 61.3979 144.843 60.1925C145.017 58.987 145.529 57.865 146.312 56.9726C147.096 56.0801 148.114 55.4585 149.235 55.1887C150.356 54.919 151.527 55.0135 152.597 55.4601C153.666 55.9066 154.584 56.6845 155.231 57.6924C155.879 58.7003 156.225 59.8915 156.225 61.111C156.259 61.8814 156.149 62.6514 155.899 63.3757C155.649 64.1 155.265 64.7639 154.769 65.3284C154.274 65.8928 153.677 66.3464 153.014 66.6625C152.351 66.9785 151.635 67.1506 150.908 67.1686V67.1686ZM130.281 51.1163C128.419 51.1237 126.601 51.7162 125.057 52.819C123.512 53.9218 122.311 55.4854 121.603 57.3123C120.896 59.1393 120.714 61.1478 121.082 63.0841C121.449 65.0205 122.349 66.7979 123.668 68.1919C124.987 69.586 126.665 70.5341 128.492 70.9167C130.318 71.2993 132.21 71.0992 133.929 70.3416C135.649 69.584 137.118 68.3028 138.151 66.66C139.185 65.0171 139.736 63.0862 139.736 61.111C139.754 59.7899 139.522 58.4784 139.053 57.2545C138.584 56.0306 137.887 54.9194 137.005 53.9869C136.123 53.0544 135.073 52.3197 133.918 51.8266C132.763 51.3334 131.526 51.0919 130.281 51.1163V51.1163ZM130.281 67.1686C129.134 67.2553 127.99 66.9738 126.996 66.3607C126.003 65.7476 125.206 64.8313 124.71 63.7312C124.214 62.631 124.042 61.3979 124.216 60.1925C124.39 58.987 124.902 57.865 125.685 56.9726C126.468 56.0801 127.487 55.4585 128.608 55.1887C129.728 54.919 130.9 55.0135 131.969 55.4601C133.039 55.9066 133.957 56.6845 134.604 57.6924C135.251 58.7003 135.597 59.8915 135.597 61.111C135.632 61.8814 135.521 62.6514 135.271 63.3757C135.021 64.1 134.637 64.764 134.142 65.3284C133.647 65.8929 133.05 66.3465 132.387 66.6625C131.723 66.9785 131.007 67.1506 130.281 67.1686ZM105.743 54.183V58.4231H115.306C115.168 60.4119 114.401 62.2929 113.129 63.7613C112.171 64.7977 111.019 65.6095 109.746 66.1442C108.474 66.6789 107.11 66.9246 105.743 66.8656C102.948 66.8255 100.28 65.6192 98.317 63.5077C96.3538 61.3963 95.2531 58.5496 95.2531 55.5836C95.2531 52.6176 96.3538 49.7709 98.317 47.6594C100.28 45.548 102.948 44.3417 105.743 44.3015C108.428 44.2643 111.018 45.3527 112.951 47.3302L115.77 44.3394C114.451 42.9541 112.885 41.8621 111.163 41.1275C109.441 40.3928 107.599 40.0303 105.743 40.0612C103.804 40.0313 101.879 40.4106 100.079 41.1773C98.2794 41.9439 96.6413 43.0825 95.2601 44.5268C93.8788 45.9712 92.782 47.6925 92.0334 49.5906C91.2847 51.4888 90.8992 53.5259 90.8992 55.5836C90.8992 57.6412 91.2847 59.6784 92.0334 61.5765C92.782 63.4747 93.8788 65.196 95.2601 66.6403C96.6413 68.0847 98.2794 69.2233 100.079 69.9899C101.879 70.7565 103.804 71.1359 105.743 71.106C107.638 71.1893 109.528 70.8443 111.287 70.0936C113.046 69.343 114.635 68.204 115.948 66.7521C118.279 64.0526 119.521 60.4923 119.41 56.8331C119.419 55.9445 119.347 55.057 119.195 54.183H105.743ZM206.093 57.4765C205.527 55.6661 204.449 54.0846 203.006 52.9467C201.563 51.8088 199.826 51.1697 198.029 51.1163C196.818 51.1242 195.622 51.3925 194.512 51.9049C193.402 52.4173 192.402 53.1632 191.572 54.0974C190.741 55.0316 190.098 56.1348 189.681 57.3403C189.263 58.5458 189.081 59.8285 189.144 61.111C189.117 62.4251 189.339 63.7315 189.799 64.9522C190.258 66.1729 190.944 67.2829 191.817 68.2159C192.69 69.1488 193.73 69.8856 194.877 70.3821C196.024 70.8787 197.254 71.1249 198.493 71.106C200.044 71.1151 201.574 70.7151 202.944 69.942C204.314 69.1688 205.482 68.0468 206.342 66.6765L203.131 64.405C202.65 65.2527 201.969 65.9531 201.156 66.4376C200.343 66.9221 199.425 67.174 198.493 67.1686C197.533 67.2075 196.584 66.9396 195.77 66.3995C194.955 65.8595 194.313 65.0722 193.925 64.1399L206.521 58.6125L206.093 57.4765ZM193.247 60.8083C193.203 60.0809 193.296 59.3513 193.521 58.6624C193.745 57.9735 194.097 57.339 194.555 56.7961C195.014 56.2532 195.57 55.8127 196.191 55.5006C196.812 55.1884 197.485 55.0107 198.171 54.978C198.886 54.9281 199.599 55.1025 200.22 55.4796C200.842 55.8566 201.346 56.4195 201.668 57.0982L193.247 60.8083ZM183.007 70.5001H187.146V41.1215H183.007V70.5001ZM176.227 53.3499H176.084C175.455 52.6245 174.687 52.05 173.832 51.6648C172.976 51.2796 172.053 51.0926 171.125 51.1163C168.696 51.2259 166.4 52.3269 164.718 54.1893C163.036 56.0517 162.097 58.5316 162.097 61.1111C162.097 63.6907 163.036 66.1705 164.718 68.0329C166.4 69.8953 168.696 70.9963 171.125 71.106C172.057 71.1323 172.984 70.9427 173.841 70.5504C174.697 70.1582 175.463 69.5726 176.084 68.8345H176.227V70.2731C176.227 74.097 174.3 76.1413 171.196 76.1413C170.161 76.115 169.157 75.7625 168.312 75.1287C167.467 74.4949 166.819 73.6085 166.45 72.5825L162.846 74.1727C163.526 75.9274 164.683 77.4269 166.171 78.4791C167.658 79.5313 169.408 80.0883 171.196 80.0787C176.049 80.0787 180.152 77.05 180.152 69.6673V51.7218H176.227V53.3499ZM171.482 67.1686C170.051 67.0398 168.718 66.3459 167.747 65.2241C166.775 64.1024 166.236 62.6345 166.236 61.1111C166.236 59.5877 166.775 58.1199 167.747 56.9981C168.718 55.8763 170.051 55.1824 171.482 55.0537C172.193 55.0905 172.891 55.2791 173.532 55.6081C174.174 55.937 174.747 56.3997 175.216 56.9685C175.686 57.5373 176.042 58.2006 176.265 58.9187C176.488 59.6369 176.572 60.3954 176.513 61.1488C176.568 61.8976 176.481 62.6506 176.256 63.3628C176.031 64.075 175.673 64.7317 175.203 65.2936C174.734 65.8556 174.162 66.3113 173.523 66.6335C172.883 66.9556 172.189 67.1376 171.482 67.1686V67.1686ZM225.481 41.122H215.578V70.5001H219.71V59.3697H225.481C226.65 59.4376 227.82 59.2521 228.919 58.8243C230.018 58.3965 231.023 57.7354 231.873 56.8815C232.723 56.0276 233.4 54.9988 233.863 53.8579C234.326 52.7169 234.564 51.4879 234.564 50.2458C234.564 49.0037 234.326 47.7747 233.863 46.6338C233.4 45.4929 232.723 44.464 231.873 43.6101C231.023 42.7562 230.018 42.0952 228.919 41.6674C227.82 41.2396 226.65 41.054 225.481 41.122V41.122ZM225.588 55.2811H219.71V45.2107H225.588C226.219 45.1969 226.847 45.3168 227.434 45.5636C228.021 45.8104 228.556 46.1791 229.007 46.648C229.459 47.117 229.817 47.6768 230.062 48.2946C230.307 48.9124 230.433 49.5758 230.433 50.2459C230.433 50.9161 230.307 51.5795 230.062 52.1973C229.817 52.8151 229.459 53.3749 229.007 53.8438C228.556 54.3128 228.021 54.6814 227.434 54.9282C226.847 55.1751 226.219 55.295 225.588 55.2811V55.2811ZM251.128 51.0622C249.62 50.9688 248.119 51.3446 246.809 52.1436C245.499 52.9425 244.437 54.1299 243.755 55.5598L247.424 57.1851C247.787 56.4753 248.338 55.8935 249.009 55.5109C249.68 55.1282 250.441 54.9613 251.199 55.0306C252.248 54.922 253.294 55.2589 254.109 55.9674C254.923 56.6758 255.44 57.6981 255.545 58.8101V59.1126C254.218 58.3645 252.738 57.975 251.235 57.9787C247.281 57.9787 243.256 60.2843 243.256 64.593C243.294 65.501 243.504 66.3916 243.873 67.212C244.242 68.0323 244.763 68.7656 245.404 69.3684C246.045 69.9712 246.794 70.4312 247.606 70.7211C248.418 71.0109 249.277 71.1248 250.131 71.0559C251.171 71.1209 252.209 70.8887 253.136 70.3835C254.064 69.8783 254.846 69.1186 255.403 68.1835H255.545V70.4513H259.535V59.1882C259.535 53.9724 255.866 51.0622 251.128 51.0622V51.0622ZM250.63 67.1629C249.276 67.1629 247.388 66.445 247.388 64.6684C247.388 62.4009 249.739 61.5314 251.77 61.5314C253.088 61.4941 254.392 61.8336 255.545 62.5142C255.394 63.7884 254.812 64.9613 253.908 65.8159C253.005 66.6704 251.84 67.149 250.63 67.1629V67.1629ZM274.068 51.7047L269.331 64.4416H269.188L264.273 51.7047H259.82L267.193 69.5063L262.99 79.4087H267.3L278.664 51.7047H274.068ZM236.844 70.5001H240.976V41.122H236.844V70.5001Z" fill="black"/>
<path d="M23.1122 17.7144C22.3859 18.6358 22.0192 19.817 22.0872 21.0159V72.9885C22.019 74.1875 22.3857 75.3687 23.1122 76.29L23.2761 76.4594L50.7154 47.3457V46.6588L23.2761 17.5438L23.1122 17.7144Z" fill="url(#paint0_linear_114_249)"/>
<path d="M59.8612 57.0544L50.7153 47.3457V46.6588L59.8634 36.9524L60.0696 37.0772L70.9062 43.6104C74.0017 45.4763 74.0017 48.5294 70.9062 50.3964L60.0696 56.9296L59.8612 57.0544Z" fill="url(#paint1_linear_114_249)"/>
<path d="M60.0696 56.9284L50.7153 47.0023L23.1121 76.29C23.7428 76.8802 24.5482 77.2177 25.3888 77.2441C26.2294 77.2704 27.0522 76.9839 27.7147 76.4343L60.0696 56.9284Z" fill="url(#paint2_linear_114_249)"/>
<path d="M60.0696 37.076L27.7147 17.5701C27.0522 17.0205 26.2294 16.734 25.3888 16.7603C24.5482 16.7867 23.7428 17.1242 23.1121 17.7144L50.7153 47.0023L60.0696 37.076Z" fill="url(#paint3_linear_114_249)"/>
<path opacity="0.2" d="M59.8634 56.7099L27.7147 76.091C27.0777 76.6054 26.3003 76.8861 25.4998 76.8907C24.6993 76.8952 23.9192 76.6233 23.2771 76.1161L23.1121 76.2912L23.276 76.4606L23.2771 76.4594C23.919 76.9669 24.6993 77.239 25.4998 77.2344C26.3004 77.2299 27.0778 76.949 27.7147 76.4343L60.0696 56.9284L59.8634 56.7099Z" fill="black"/>
<path opacity="0.12" d="M23.1121 75.9479C22.3859 75.0265 22.0192 73.8453 22.0871 72.6464V72.9897C22.0192 74.1887 22.3859 75.3698 23.1121 76.2912L23.2771 76.1161L23.1121 75.9479Z" fill="black"/>
<path opacity="0.12" d="M70.9064 50.0519L59.8635 56.7099L60.0697 56.9285L70.9064 50.3953C71.5438 50.1017 72.0954 49.6322 72.5038 49.0357C72.9121 48.4391 73.1623 47.7373 73.2282 47.0033C73.0911 47.668 72.81 48.2896 72.4069 48.8188C72.0039 49.348 71.4901 49.7703 70.9064 50.0519V50.0519Z" fill="black"/>
<path opacity="0.25" d="M27.7148 17.9147L70.9063 43.9525C71.4903 44.2342 72.0042 44.6565 72.4073 45.186C72.8104 45.7154 73.0914 46.3374 73.2281 47.0023C73.1627 46.2681 72.9127 45.5659 72.5044 44.969C72.096 44.3722 71.5441 43.9026 70.9063 43.6092L27.7148 17.5713C24.6194 15.7052 22.0872 17.2552 22.0872 21.0171V21.3604C22.0872 17.5988 24.6194 16.0488 27.7148 17.9147Z" fill="white"/>
</g>
<defs>
<linearGradient id="paint0_linear_114_249" x1="48.2821" y1="20.4679" x2="8.91271" y2="57.5727" gradientUnits="userSpaceOnUse">
<stop stop-color="#00A0FF"/>
<stop offset="0.00657" stop-color="#00A1FF"/>
<stop offset="0.2601" stop-color="#00BEFF"/>
<stop offset="0.5122" stop-color="#00D2FF"/>
<stop offset="0.7604" stop-color="#00DFFF"/>
<stop offset="1" stop-color="#00E3FF"/>
</linearGradient>
<linearGradient id="paint1_linear_114_249" x1="74.9365" y1="47.0034" x2="21.3449" y2="47.0034" gradientUnits="userSpaceOnUse">
<stop stop-color="#FFE000"/>
<stop offset="0.4087" stop-color="#FFBD00"/>
<stop offset="0.7754" stop-color="#FFA500"/>
<stop offset="1" stop-color="#FF9C00"/>
</linearGradient>
<linearGradient id="paint2_linear_114_249" x1="54.9867" y1="52.3958" x2="1.59871" y2="102.713" gradientUnits="userSpaceOnUse">
<stop stop-color="#FF3A44"/>
<stop offset="1" stop-color="#C31162"/>
</linearGradient>
<linearGradient id="paint3_linear_114_249" x1="16.1618" y1="0.414238" x2="40.0018" y2="22.8829" gradientUnits="userSpaceOnUse">
<stop stop-color="#32A071"/>
<stop offset="0.0685" stop-color="#2DA771"/>
<stop offset="0.4762" stop-color="#15CF74"/>
<stop offset="0.8009" stop-color="#06E775"/>
<stop offset="1" stop-color="#00F076"/>
</linearGradient>
<clipPath id="clip0_114_249">
<rect width="299" height="94" fill="white"/>
</clipPath>
</defs>
</svg>
