<svg width="82" height="75" viewBox="0 0 82 75" fill="none" xmlns="http://www.w3.org/2000/svg">
<rect width="82" height="75" rx="10" fill="#FFF9EE"/>
<rect x="0.5" y="0.5" width="81" height="74" rx="9.5" stroke="black" stroke-opacity="0.4"/>
<g clip-path="url(#clip0_607_1234)">
<path d="M30.5577 54.4569C30.5422 54.3794 30.5196 54.3031 30.4898 54.2292C30.46 54.1566 30.4231 54.0863 30.3802 54.0209C30.3373 53.9543 30.2873 53.8926 30.2325 53.8369C30.1777 53.7812 30.1169 53.7303 30.0514 53.6867C29.987 53.6431 29.9179 53.6056 29.8453 53.5753C29.7738 53.545 29.6987 53.5208 29.6225 53.5063C29.4688 53.4748 29.3103 53.4748 29.1578 53.5063C29.0816 53.5208 29.0065 53.545 28.9338 53.5753C28.8623 53.6056 28.7932 53.6431 28.7289 53.6867C28.6634 53.7303 28.6026 53.7812 28.5478 53.8369C28.493 53.8926 28.443 53.9543 28.4001 54.0209C28.356 54.0863 28.3203 54.1566 28.2905 54.2292C28.2607 54.3031 28.2369 54.3794 28.2226 54.4569C28.2071 54.5344 28.1987 54.6143 28.1987 54.693C28.1987 54.7717 28.2071 54.8516 28.2226 54.9291C28.2369 55.0066 28.2607 55.0829 28.2905 55.1556C28.3203 55.2294 28.356 55.2997 28.4001 55.3651C28.443 55.4317 28.493 55.4934 28.5478 55.5491C28.6026 55.6048 28.6634 55.6557 28.7289 55.6993C28.7932 55.743 28.8623 55.7805 28.9338 55.8108C29.0065 55.8411 29.0816 55.8653 29.1578 55.8798C29.2341 55.8956 29.3127 55.9041 29.3901 55.9041C29.4676 55.9041 29.5462 55.8956 29.6225 55.8798C29.6987 55.8653 29.7738 55.8411 29.8453 55.8108C29.9179 55.7805 29.987 55.7429 30.0514 55.6993C30.1169 55.6557 30.1777 55.6048 30.2325 55.5491C30.2873 55.4934 30.3373 55.4317 30.3802 55.3651C30.4231 55.2997 30.46 55.2294 30.4898 55.1556C30.5196 55.0829 30.5422 55.0066 30.5577 54.9291C30.5732 54.8516 30.5815 54.7717 30.5815 54.693C30.5815 54.6143 30.5732 54.5344 30.5577 54.4569Z" fill="black"/>
<path d="M64.8039 54.8299C64.7992 54.8178 64.7944 54.8058 64.7894 54.7939C63.6929 52.1859 61.1211 51.222 58.0775 52.2786L49.7772 54.6116C49.2973 53.1345 48.1003 51.8775 46.4078 51.2391C46.3973 51.2352 46.3869 51.2314 46.3763 51.2277L37.2523 48.0803C36.4929 47.0826 34.1142 44.5297 29.6603 44.5297C26.5478 44.5297 23.7943 46.6999 22.2191 49.0655H11.1914C10.5334 49.0655 10 49.6076 10 50.2764V65.5435C10 66.2123 10.5334 66.7545 11.1914 66.7545H18.2752C18.9332 66.7545 19.4666 66.2123 19.4666 65.5435V64.498H22.7886C23.4466 64.498 23.98 63.9559 23.98 63.2871V62.9386C25.9165 63.1103 26.5534 63.4836 28.3319 64.526C29.6997 65.3276 31.7669 66.5392 35.4895 68.2404C35.5068 68.2483 35.5243 68.2558 35.5418 68.2628C36.2563 68.5485 37.653 68.9973 39.375 68.9973C40.5735 68.9973 41.9299 68.7797 43.3222 68.1382L61.6688 61.4616C61.7014 61.4497 61.7336 61.4364 61.765 61.4216C63.5184 60.6017 66.1313 58.2909 64.8039 54.8299ZM17.0837 64.3325H12.3828V51.4872H17.0837V64.3325ZM21.5971 62.076H19.4666V51.4872H21.5971V62.076ZM60.813 59.2004L42.4746 65.874C42.4585 65.8798 42.4367 65.8885 42.4209 65.8951C42.4048 65.9017 42.3887 65.9088 42.3729 65.9162C39.8189 67.1092 37.3911 66.395 36.4397 66.019C32.8438 64.3744 30.9245 63.2495 29.5223 62.4277C27.5726 61.285 26.6332 60.7343 23.98 60.5116V50.7585C25.1093 48.8772 27.2993 46.9514 29.6605 46.9514C33.7096 46.9514 35.4253 49.6282 35.4928 49.7362C35.6382 49.9767 35.8619 50.158 36.1248 50.2487L45.5935 53.5151C47.1058 54.092 47.9049 55.4082 47.5376 56.7209C47.3681 57.3271 46.9764 57.8299 46.4347 58.1366C45.8978 58.4407 45.2771 58.5159 44.6854 58.3495L34.0112 54.9114C33.3836 54.7093 32.7143 55.0624 32.5156 55.7C32.3167 56.3375 32.6641 57.0181 33.2914 57.2202L43.9841 60.6642C43.9955 60.6678 44.0068 60.6713 44.0182 60.6746C44.4451 60.798 44.8797 60.859 45.3117 60.859C46.1026 60.859 46.8847 60.6543 47.5946 60.2522C48.6922 59.6307 49.4859 58.6118 49.8295 57.3833C49.8569 57.2852 49.8812 57.1871 49.9023 57.089L58.8478 54.5703C60.1397 54.1217 61.8357 53.9601 62.5908 55.7277C63.3724 57.8029 61.341 58.9444 60.813 59.2004Z" fill="black"/>
<path d="M52.7786 22.929C52.7631 22.8515 52.7405 22.7752 52.7095 22.7014C52.6797 22.6287 52.644 22.5585 52.5999 22.4931C52.557 22.4265 52.507 22.3647 52.4522 22.309C52.3974 22.2533 52.3366 22.2025 52.2711 22.1589C52.2068 22.1153 52.1377 22.0777 52.0662 22.0475C51.9935 22.0172 51.9184 21.993 51.8434 21.9784C51.6897 21.947 51.5312 21.947 51.3775 21.9784C51.3013 21.993 51.2262 22.0172 51.1547 22.0475C51.0821 22.0777 51.013 22.1153 50.9486 22.1589C50.8831 22.2025 50.8223 22.2533 50.7675 22.309C50.7127 22.3647 50.6627 22.4265 50.6198 22.4931C50.5769 22.5585 50.54 22.6287 50.5102 22.7014C50.4804 22.7752 50.4566 22.8515 50.4423 22.929C50.4268 23.0065 50.4185 23.0865 50.4185 23.1652C50.4185 23.2439 50.4268 23.3238 50.4423 23.4013C50.4566 23.4788 50.4804 23.5551 50.5102 23.6277C50.54 23.7016 50.5769 23.7718 50.6198 23.8372C50.6627 23.9038 50.7127 23.9656 50.7675 24.0213C50.8223 24.077 50.8831 24.1279 50.9486 24.1715C51.013 24.215 51.0821 24.2526 51.1547 24.2829C51.2262 24.3131 51.3013 24.3361 51.3775 24.3519C51.4538 24.3676 51.5324 24.3761 51.6099 24.3761C51.6873 24.3761 51.7659 24.3676 51.8434 24.3519C51.9184 24.3361 51.9935 24.3131 52.0662 24.2829C52.1377 24.2526 52.2068 24.215 52.2711 24.1715C52.3366 24.1279 52.3974 24.077 52.4522 24.0213C52.507 23.9656 52.557 23.9038 52.5999 23.8372C52.644 23.7718 52.6797 23.7016 52.7095 23.6277C52.7405 23.5551 52.7631 23.4788 52.7786 23.4013C52.7941 23.3238 52.8013 23.2439 52.8013 23.1652C52.8013 23.0865 52.7941 23.0065 52.7786 22.929Z" fill="black"/>
<path d="M69.8086 11.104H62.7248C62.0668 11.104 61.5334 11.6461 61.5334 12.3149V13.3604H58.2114C57.5534 13.3604 57.02 13.9026 57.02 14.5714V14.9199C55.0835 14.7481 54.4466 14.3748 52.6682 13.3325C51.3004 12.5308 49.2332 11.3193 45.5104 9.61804C45.4932 9.61005 45.4758 9.60266 45.458 9.59564C44.2462 9.11102 41.0703 8.15753 37.6783 9.72L32.884 11.4647L28.8429 7.35746C28.3777 6.88459 27.6233 6.88459 27.158 7.35746L13.8908 20.8421C13.4616 21.2784 13.3793 22.0349 13.8908 22.5547L36.5617 45.5973C36.9245 45.9661 37.7739 46.0777 38.2467 45.5973L50.3591 33.2864C50.674 33.314 51.0008 33.3289 51.3395 33.3289C54.4522 33.3289 57.2055 31.1587 58.7807 28.7932H69.8086C70.4666 28.7932 71 28.2511 71 27.5823V12.3149C71 11.6461 70.4666 11.104 69.8086 11.104ZM28.0003 9.92622L30.7158 12.6862C29.9086 13.1936 28.9754 13.4651 28.0003 13.4651C27.0252 13.4651 26.0921 13.1937 25.2849 12.6862L28.0003 9.92622ZM19.1337 24.4584L16.4182 21.6984L19.1337 18.9384C19.6329 19.7588 19.9 20.7073 19.9 21.6984C19.9 22.6894 19.633 23.6379 19.1337 24.4584ZM37.4042 43.0284L34.6893 40.2689C36.3469 39.2292 38.4614 39.2292 40.1191 40.2689L37.4042 43.0284ZM41.8357 38.5245C39.2029 36.5833 35.6056 36.5833 32.9728 38.5245L20.8501 26.2029C21.7805 24.9024 22.2828 23.3401 22.2828 21.6984C22.2828 20.0564 21.7806 18.4943 20.8501 17.1938L23.5686 14.4309C24.8481 15.3765 26.385 15.8871 28.0005 15.8871C29.6159 15.8871 31.1528 15.3765 32.4324 14.4309L35.0093 17.05C34.4532 17.1335 33.911 17.3197 33.4054 17.6061C32.5514 18.0898 31.8813 18.814 31.4641 19.6903C30.1202 19.9432 28.876 20.6045 27.9 21.5964C25.2521 24.2878 25.2521 28.6669 27.9001 31.3584C29.224 32.704 30.9631 33.3769 32.7023 33.3769C34.4414 33.3769 36.1807 32.7041 37.5047 31.3584C38.3661 30.4829 38.9695 29.4068 39.2718 28.2341L43.2944 29.6218C42.8416 31.754 43.3054 33.9971 44.5565 35.759L41.8357 38.5245ZM34.5922 26.6194C34.6026 26.6232 34.6131 26.6271 34.6237 26.6307L37.0061 27.4526C36.8262 28.2779 36.4191 29.0366 35.8198 29.6459C34.1008 31.3928 31.3039 31.393 29.5852 29.6459C27.8662 27.8988 27.8662 25.0562 29.5852 23.309C29.9998 22.8874 30.4891 22.5579 31.0222 22.3345C31.2422 24.1947 32.56 25.8528 34.5922 26.6194ZM46.2732 34.0141C45.8133 33.2524 45.5531 32.3831 45.512 31.4958C46.0827 31.9152 46.7801 32.326 47.6132 32.6521L46.2732 34.0141ZM57.0199 27.0995C55.8907 28.9811 53.7006 30.9068 51.3395 30.9068C50.8977 30.9068 50.4837 30.8748 50.0966 30.8179C50.0951 30.8177 50.0935 30.8174 50.092 30.8172C47.519 30.4373 46.135 28.951 45.6788 28.3625C45.6545 28.3262 45.5509 28.1885 45.5356 28.1656C45.3968 27.9135 45.1692 27.7108 44.879 27.6106L35.4064 24.3429C33.8947 23.7663 33.0956 22.4506 33.4619 21.1384C33.4621 21.1376 33.4623 21.1367 33.4626 21.1359C33.4629 21.1349 33.4632 21.1338 33.4634 21.1328C33.6337 20.5286 34.0247 20.0274 34.5651 19.7214C35.102 19.4173 35.7226 19.3419 36.3145 19.5086L46.9886 22.9466C47.616 23.1489 48.2856 22.7956 48.4843 22.158C48.683 21.5205 48.3357 20.8399 47.7085 20.6378L39.2191 17.9035L39.145 17.8282C39.1443 17.8275 39.1436 17.8266 39.1427 17.8259L34.7476 13.3587L38.5253 11.9838C38.5381 11.9791 38.5538 11.9732 38.5664 11.968C38.5697 11.9667 38.5759 11.9642 38.579 11.9629C38.5952 11.9562 38.6111 11.9492 38.627 11.9418C41.1809 10.7488 43.6085 11.4629 44.5601 11.839C48.1561 13.4836 50.0754 14.6084 51.4777 15.4303C53.4273 16.5731 54.3668 17.1237 57.0199 17.3464V27.0995ZM61.5334 26.3711H59.4028V15.7823H61.5334V26.3711ZM68.6172 26.3711H63.9162V13.5259H68.6172V26.3711Z" fill="black"/>
</g>
<defs>
<clipPath id="clip0_607_1234">
<rect width="61" height="62" fill="white" transform="translate(10 7)"/>
</clipPath>
</defs>
</svg>
