<svg width="82" height="75" viewBox="0 0 82 75" fill="none" xmlns="http://www.w3.org/2000/svg">
<rect width="82" height="75" rx="10" fill="#FFF9EE"/>
<rect x="0.5" y="0.5" width="81" height="74" rx="9.5" stroke="black" stroke-opacity="0.4"/>
<g clip-path="url(#clip0_607_1232)">
<path d="M30.5541 27.5875H51.1416C51.5229 27.5875 51.777 27.3333 51.777 26.9521C51.777 26.5708 51.5229 26.3167 51.1416 26.3167H30.5541C30.1729 26.3167 29.9187 26.5708 29.9187 26.9521C29.9187 27.3333 30.1729 27.5875 30.5541 27.5875Z" fill="black"/>
<path d="M37.9885 53.7667H30.5541C30.1729 53.7667 29.9187 54.0209 29.9187 54.4021C29.9187 54.7834 30.1729 55.0376 30.5541 55.0376H37.9885C38.3697 55.0376 38.6239 54.7834 38.6239 54.4021C38.6239 54.0209 38.3697 53.7667 37.9885 53.7667Z" fill="black"/>
<path d="M27.0594 24.7281H24.8355C24.0094 24.7281 23.374 25.4271 23.374 26.1896V27.5875C23.374 28.4136 24.0094 29.049 24.8355 29.049H27.0594C27.8855 29.049 28.5209 28.35 28.5209 27.5875V26.1896C28.5844 25.4271 27.8855 24.7281 27.0594 24.7281ZM27.2501 27.5875C27.2501 27.7146 27.1865 27.7782 27.0594 27.7782H24.8355C24.7084 27.7782 24.6449 27.6511 24.6449 27.5875V26.1896C24.6449 26.0625 24.7084 25.999 24.8355 25.999H27.0594C27.1865 25.999 27.2501 26.1261 27.2501 26.1896V27.5875Z" fill="black"/>
<path d="M27.0594 33.9417H24.8355C24.0094 33.9417 23.374 34.6406 23.374 35.4031V36.801C23.374 37.6271 24.0094 38.2625 24.8355 38.2625H27.0594C27.8855 38.2625 28.5209 37.5635 28.5209 36.801V35.4031C28.5844 34.5771 27.8855 33.9417 27.0594 33.9417ZM27.2501 36.801C27.2501 36.9281 27.1865 36.9916 27.0594 36.9916H24.8355C24.7084 36.9916 24.6449 36.8646 24.6449 36.801V35.4031C24.6449 35.276 24.7084 35.2125 24.8355 35.2125H27.0594C27.1865 35.2125 27.2501 35.3396 27.2501 35.4031V36.801Z" fill="black"/>
<path d="M27.0594 43.0917H24.8355C24.0094 43.0917 23.374 43.7906 23.374 44.5531V45.951C23.374 46.7771 24.0094 47.4125 24.8355 47.4125H27.0594C27.8855 47.4125 28.5209 46.7135 28.5209 45.951V44.5531C28.5844 43.7906 27.8855 43.0917 27.0594 43.0917ZM27.2501 45.951C27.2501 46.0781 27.1865 46.1417 27.0594 46.1417H24.8355C24.7084 46.1417 24.6449 46.0146 24.6449 45.951V44.5531C24.6449 44.426 24.7084 44.3625 24.8355 44.3625H27.0594C27.1865 44.3625 27.2501 44.4896 27.2501 44.5531V45.951Z" fill="black"/>
<path d="M27.0594 52.2417H24.8355C24.0094 52.2417 23.374 52.9407 23.374 53.7032V55.1011C23.374 55.9271 24.0094 56.5625 24.8355 56.5625H27.0594C27.8855 56.5625 28.5209 55.8636 28.5209 55.1011V53.7032C28.5844 52.9407 27.8855 52.2417 27.0594 52.2417ZM27.2501 55.1011C27.2501 55.2282 27.1865 55.2917 27.0594 55.2917H24.8355C24.7084 55.2917 24.6449 55.1646 24.6449 55.1011V53.7032C24.6449 53.5761 24.7084 53.5125 24.8355 53.5125H27.0594C27.1865 53.5125 27.2501 53.6396 27.2501 53.7032V55.1011Z" fill="black"/>
<path d="M70.8396 60.7563L69.4417 59.3583L67.2177 57.1344L63.5959 53.5125C63.1511 53.0677 62.4521 52.8771 61.8167 53.0677L59.1479 50.399V50.2719C61.8802 46.0781 61.8802 40.6135 59.1479 36.4198V19.1365C59.1479 18.3104 58.8938 17.4844 58.2584 16.849C58.1313 16.6583 58.0677 16.5948 57.8136 16.3406C49.1719 7.63542 49.3625 7.69896 48.5365 7.31771C48.0917 7.12708 47.5834 7 47.075 7H21.5313C19.5615 7 17.9729 8.58854 17.9729 10.5583V11.2573H17.1469C15.2406 11.2573 13.6521 12.8458 13.6521 14.7521V64.5052C13.6521 66.4115 15.2406 68 17.1469 68H51.3323C53.2386 68 54.8271 66.4115 54.8271 64.5052V63.9969H55.5896C57.5594 63.9969 59.1479 62.4083 59.1479 60.4385V59.3583L59.8469 60.0573L65.6927 65.9031C66.3917 66.6021 67.4719 66.6021 68.1709 65.9031L70.8396 63.2344C71.475 62.5354 71.475 61.4552 70.8396 60.7563ZM63.4052 61.8365L66.7094 58.4688L68.0438 59.8031L64.7396 63.1073L63.4052 61.8365ZM61.1813 59.6125L64.4854 56.3083L65.8198 57.6427L62.5156 60.9469L61.1813 59.6125ZM59.1479 47.5396C58.7031 48.7469 58.1948 49.4458 57.75 50.1448C57.5594 50.399 57.6229 50.7167 57.8136 50.9708L60.7365 53.8938L58.7667 55.8635C57.6229 54.6563 58.3219 55.2917 55.8438 52.8771C55.6531 52.6865 55.2719 52.6229 55.0177 52.8135C50.4427 56.1177 44.1521 55.5458 40.149 51.6063C35.7646 47.2854 35.574 40.0417 39.8948 35.4667C45.8677 29.176 56.1615 31.4 59.1479 39.2792C60.8636 43.7271 59.1479 47.476 59.1479 47.5396ZM48.9177 9.16042C49.299 9.54167 56.5427 16.7854 56.9875 17.2302H48.9177V9.16042ZM53.6198 64.5052C53.6198 65.7125 52.6031 66.7292 51.3959 66.7292H17.1469C15.9396 66.7292 14.9229 65.7125 14.9229 64.5052V14.7521C14.9229 13.5448 15.9396 12.5281 17.1469 12.5281H17.9094V60.4385C17.9094 62.4083 19.4979 63.9969 21.4677 63.9969H53.5563V64.5052H53.6198ZM57.8771 60.4385C57.8771 61.7094 56.8604 62.726 55.5896 62.726H21.5313C20.2604 62.726 19.2438 61.7094 19.2438 60.4385V10.5583C19.2438 9.2875 20.2604 8.27083 21.5313 8.27083C48.9177 8.27083 47.2021 8.20729 47.6469 8.33438V17.8656C47.6469 18.2469 47.9011 18.501 48.2823 18.501H57.8136C57.9406 18.9458 57.8771 17.6115 57.8771 34.7677C54.7 31.1458 49.8073 29.875 45.4865 30.8917H30.5542C30.1729 30.8917 29.9188 31.1458 29.9188 31.5271C29.9188 31.9083 30.1729 32.1625 30.5542 32.1625H42.1188C40.6573 32.925 39.3229 34.0052 38.2427 35.4667H30.5542C30.1729 35.4667 29.9188 35.7208 29.9188 36.1021C29.9188 36.4833 30.1729 36.7375 30.5542 36.7375H37.3531C36.7177 37.7542 36.2729 38.8979 35.9552 40.0417H30.5542C30.1729 40.0417 29.9188 40.2958 29.9188 40.6771C29.9188 41.0583 30.1729 41.3125 30.5542 41.3125H35.6375C35.4469 42.3927 35.4469 43.5365 35.5104 44.6167H30.5542C30.1729 44.6167 29.9188 44.8708 29.9188 45.2521C29.9188 45.6333 30.1729 45.8875 30.5542 45.8875H35.7011C35.9552 47.0312 36.3365 48.175 36.8448 49.1917H30.5542C30.1729 49.1917 29.9188 49.4458 29.9188 49.8271C29.9188 50.2083 30.1729 50.4625 30.5542 50.4625H37.6073C41.4834 56.3719 49.4261 58.024 55.3354 54.1479L57.8771 56.6896V60.4385ZM59.3386 57.7698C59.1479 57.5792 59.1479 57.2615 59.3386 57.0708L62.0073 54.4021C62.1979 54.2115 62.5156 54.2115 62.7063 54.4021C62.7063 54.4021 62.6427 54.3385 63.6594 55.3552L60.2917 58.7229L59.3386 57.7698ZM69.8865 62.3448L67.2813 64.95C67.0906 65.1406 66.7729 65.1406 66.5823 64.95L65.6292 63.9969L68.9333 60.6927L69.8865 61.6458C70.0771 61.8365 70.0771 62.1542 69.8865 62.3448Z" fill="black"/>
<path d="M42.1823 37.2458C38.7511 40.6771 38.7511 46.1416 42.1823 49.5729C45.6136 53.0041 51.0782 53.0041 54.5094 49.5729C57.9407 46.1416 57.8771 40.6135 54.5094 37.2458C51.0782 33.8146 45.55 33.8146 42.1823 37.2458ZM53.6198 48.6833C50.6969 51.6062 45.9948 51.6062 43.0719 48.6833C40.149 45.7604 40.149 41.0583 43.0719 38.1354C45.9948 35.2125 50.6969 35.2125 53.5563 38.1354C56.5427 41.0583 56.5427 45.7604 53.6198 48.6833Z" fill="black"/>
<path d="M47.3292 44.8708L45.7407 43.0281C45.1688 42.5833 44.3428 43.2187 44.724 43.8541L46.7574 46.2687C47.0115 46.5229 47.3928 46.5864 47.7105 46.2687L52.2855 41.376C52.5397 41.1218 52.5397 40.7406 52.2855 40.4864C52.0313 40.2322 51.6501 40.2322 51.3959 40.4864C51.4594 40.5499 51.6501 40.2958 47.3292 44.8708Z" fill="black"/>
</g>
<defs>
<clipPath id="clip0_607_1232">
<rect width="61" height="61" fill="white" transform="translate(12 7)"/>
</clipPath>
</defs>
</svg>
