<svg width="82" height="75" viewBox="0 0 82 75" fill="none" xmlns="http://www.w3.org/2000/svg">
<rect width="82" height="75" rx="10" fill="#FFF9EE"/>
<rect x="0.5" y="0.5" width="81" height="74" rx="9.5" stroke="black" stroke-opacity="0.4"/>
<path d="M63.5543 55.8137H59.0042V51.2636C59.0042 50.7701 58.6043 50.3701 58.1108 50.3701C57.6173 50.3701 57.2173 50.7702 57.2173 51.2636V55.8137H52.6672C52.1738 55.8137 51.7738 56.2137 51.7738 56.7071C51.7738 57.2004 52.1738 57.6005 52.6672 57.6005H57.2173V62.1507C57.2173 62.6442 57.6173 63.0442 58.1108 63.0442C58.6043 63.0442 59.0042 62.6441 59.0042 62.1507V57.6005H63.5543C64.0478 57.6005 64.4477 57.2004 64.4477 56.7071C64.4477 56.2137 64.0478 55.8137 63.5543 55.8137Z" fill="black"/>
<path d="M58.1106 45.0367C56.8319 45.0367 55.6014 45.2471 54.4515 45.6346L49.2853 44.0238C49.2851 44.0238 49.285 44.0237 49.285 44.0237L45.767 42.9269C45.4071 42.8145 45.0272 42.8309 44.6836 42.9593C44.4014 42.6862 44.2321 42.3047 44.2321 41.903V40.1518C47.4616 38.4694 49.9167 35.4986 50.9116 31.9251H51.4011C52.985 31.9251 54.2737 30.6363 54.2737 29.0523V26.8591C54.2737 26.4396 54.1825 26.0412 54.0201 25.6815V20.7951C54.0201 18.7717 53.592 16.8218 52.7472 14.9997C52.5398 14.5521 52.0086 14.3573 51.5608 14.5647C51.1131 14.7723 50.9184 15.3034 51.126 15.7511C51.8607 17.3362 52.2332 19.0332 52.2332 20.7951V24.1098C52.1689 24.0904 52.1036 24.0734 52.0376 24.0584C52.0337 24.0575 52.0298 24.0565 52.0258 24.0557C51.8993 24.0275 51.7698 24.0078 51.6376 23.997C51.6226 23.9956 51.6074 23.9945 51.5923 23.9935C51.5305 23.9895 51.4683 23.9866 51.4054 23.9865C51.4038 23.9865 51.4023 23.9864 51.4007 23.9864H51.3657C51.3577 23.8673 51.3476 23.7487 51.3365 23.63L51.3317 23.5777C51.3299 23.5591 51.3273 23.5404 51.3254 23.5218C51.3158 23.4272 51.305 23.3329 51.2934 23.2385C51.2897 23.2091 51.2861 23.1799 51.2823 23.1505C51.2678 23.0392 51.2519 22.9281 51.2346 22.8175C51.2336 22.8107 51.2327 22.8038 51.2317 22.797L51.2303 22.789C51.2083 22.6503 51.1838 22.5121 51.1574 22.3744L51.1454 22.3114C51.1433 22.3005 51.1408 22.2899 51.1386 22.2791C51.1216 22.1936 51.1037 22.1083 51.085 22.0233C51.0833 22.0154 51.0818 22.0074 51.08 21.9996L51.0657 21.9337C51.0636 21.9243 51.061 21.9151 51.0589 21.9057C51.0315 21.7863 51.003 21.6673 50.9724 21.5487C50.9494 21.4602 50.9121 21.3788 50.8659 21.3041C50.8607 21.2957 50.8568 21.286 50.8514 21.2777C50.8423 21.264 50.8309 21.2524 50.821 21.2393C50.656 21.0188 50.3954 20.8792 50.1074 20.8792C50.1038 20.8792 50.0999 20.8792 50.096 20.8792L50.0637 20.8795C49.9073 20.8816 49.7541 20.9246 49.6194 21.0044C48.0759 21.9195 46.0481 22.3834 43.5925 22.3834C43.2824 22.3834 42.9724 22.3713 42.6627 22.3486C42.0645 22.3049 41.4672 22.221 40.872 22.1099C40.8511 22.106 40.83 22.1026 40.8089 22.0987C39.6779 21.8836 38.5546 21.5683 37.4458 21.2305C37.0446 21.1083 36.6452 20.9834 36.2482 20.859C32.9886 19.8374 29.6184 18.7809 26.2535 19.7343C25.9788 19.8121 25.758 20.0165 25.659 20.2843C25.6584 20.2861 25.6578 20.2878 25.6572 20.2895C25.6099 20.4177 25.5636 20.5501 25.5165 20.6924C25.5068 20.7212 25.4974 20.7501 25.488 20.779C25.4854 20.7872 25.4827 20.7948 25.48 20.8032L25.4659 20.8465C25.4362 20.9398 25.4072 21.0349 25.379 21.131C25.3649 21.1787 25.3516 21.2263 25.3381 21.2741C25.3301 21.3024 25.3218 21.3301 25.314 21.3586L25.3001 21.4103C25.2945 21.431 25.2902 21.4514 25.2846 21.4721C25.2515 21.5969 25.2203 21.722 25.1909 21.8477C25.1837 21.8782 25.1749 21.9089 25.168 21.9394L25.1635 21.9608C25.1584 21.9832 25.154 22.0053 25.1492 22.0277C25.1384 22.0767 25.1277 22.1257 25.1176 22.1748C25.0947 22.2846 25.073 22.3933 25.0537 22.4995C25.0526 22.5046 25.0517 22.5097 25.0509 22.5149C25.0494 22.5227 25.0482 22.5312 25.0468 22.5392C25.0404 22.575 25.0348 22.611 25.0287 22.6469C25.0139 22.7345 24.9996 22.8257 24.9857 22.9196C24.9769 22.9789 24.9677 23.0382 24.9597 23.0978L24.9565 23.1204C24.9433 23.2194 24.9314 23.3217 24.92 23.4253C24.9136 23.4842 24.9077 23.543 24.9019 23.6021C24.9005 23.6167 24.8988 23.6307 24.8975 23.6453L24.8903 23.7262C24.8857 23.7785 24.8824 23.8277 24.8785 23.8779C24.8757 23.9142 24.8717 23.9501 24.8693 23.9864H24.8344C24.8327 23.9864 24.8312 23.9866 24.8295 23.9866C24.7668 23.9867 24.7048 23.9895 24.643 23.9935C24.6278 23.9946 24.6125 23.9958 24.5973 23.997C24.4654 24.0078 24.3361 24.0275 24.2098 24.0556C24.2054 24.0565 24.201 24.0576 24.1966 24.0587C24.1309 24.0737 24.0659 24.0905 24.0019 24.1099V20.7951C24.0019 14.1738 29.3887 8.78711 36.0099 8.78711H40.2247C43.5505 8.78711 46.6438 10.1159 48.9346 12.5288C49.2744 12.8869 49.84 12.9013 50.1979 12.5616C50.5558 12.2218 50.5704 11.6563 50.2306 11.2985C47.5992 8.52643 44.0457 7 40.2251 7H36.0103C28.4037 7 22.2153 13.1884 22.2153 20.7949V25.6817C22.053 26.0413 21.9619 26.4396 21.9619 26.8591V29.0523C21.9619 30.6363 23.2506 31.9251 24.8345 31.9251H25.3239C26.3189 35.4986 28.774 38.4694 32.0033 40.1518V41.903C32.0033 42.3047 31.8339 42.6862 31.5518 42.9593C31.2082 42.8309 30.8281 42.8146 30.4683 42.9267L19.8722 46.2305C18.1674 46.7335 16.6344 47.5904 15.3162 48.7773C14.9495 49.1074 14.9199 49.6724 15.25 50.0391C15.5803 50.4058 16.1451 50.4353 16.5119 50.1053C17.6319 49.097 18.9344 48.3694 20.3836 47.9428C20.3882 47.9414 20.3927 47.9401 20.3972 47.9386L26.9666 45.8904L33.2429 52.1614C33.6351 52.5533 34.1537 52.7513 34.6735 52.7513C35.1479 52.7513 35.6234 52.5863 36.0044 52.2532L38.1176 50.4051L40.2308 52.2532C40.6118 52.5864 41.0872 52.7514 41.5617 52.7514C42.0814 52.7514 42.6002 52.5534 42.9922 52.1616L49.2685 45.8905L52.0589 46.7606C51.3987 47.1717 50.7873 47.6476 50.2298 48.1764C50.2012 48.2035 50.1729 48.2306 50.1446 48.2579C50.1047 48.2965 50.0647 48.3351 50.0254 48.3743C48.1 50.2858 46.847 52.8731 46.6553 55.7463C46.654 55.7653 46.6528 55.7844 46.6517 55.8035C46.6458 55.8984 46.6412 55.9937 46.6376 56.0893C46.6365 56.1168 46.6353 56.1442 46.6345 56.1717C46.631 56.2869 46.6288 56.4025 46.6288 56.5185C46.6288 56.6172 46.6301 56.7156 46.6325 56.8138C46.6326 56.8185 46.6328 56.8233 46.6329 56.8279C46.7113 59.816 47.9231 62.5868 49.9902 64.6427H19.8921V56.5185C19.8921 56.0251 19.4921 55.6251 18.9986 55.6251C18.5052 55.6251 18.1052 56.0252 18.1052 56.5185V64.6427H13.3065C13.2446 64.6427 13.1945 64.5925 13.1945 64.5306V57.5543C13.1945 56.0436 13.5245 54.5886 14.1753 53.2297C14.3886 52.7845 14.2006 52.251 13.7556 52.0379C13.3105 51.8249 12.777 52.0126 12.5637 52.4577C11.7966 54.0596 11.4076 55.7744 11.4076 57.5543V64.5306C11.4076 65.5778 12.2594 66.4297 13.3066 66.4297H52.3206C54.0215 67.4271 56.0003 68 58.1106 68C64.4416 68 69.5923 62.8493 69.5923 56.5183C69.5923 50.1873 64.4415 45.0367 58.1106 45.0367ZM51.2799 30.1228C51.3162 29.8489 51.344 29.5724 51.3633 29.2935C51.3656 29.2618 51.3674 29.2301 51.3694 29.1985C51.3759 29.0928 51.3812 28.9868 51.3853 28.8805C51.3867 28.8448 51.3883 28.8089 51.3894 28.7732C51.3934 28.6384 51.3962 28.5033 51.3962 28.3676V25.7733H51.401C51.4019 25.7733 51.4029 25.7735 51.4039 25.7735C51.4475 25.7736 51.4907 25.7769 51.5333 25.7822C51.5446 25.7836 51.5557 25.7856 51.5668 25.7873C51.6019 25.7928 51.6366 25.7997 51.6707 25.8086C51.6791 25.8108 51.6877 25.8128 51.6961 25.8152C51.7827 25.8398 51.8658 25.8751 51.9434 25.92C51.9478 25.9226 51.9521 25.9254 51.9565 25.928C51.992 25.9492 52.0262 25.9724 52.0591 25.9976C52.0628 26.0003 52.0665 26.0029 52.07 26.0058C52.1414 26.0618 52.2059 26.1271 52.2619 26.2002C52.2656 26.205 52.2691 26.2099 52.2727 26.2148C52.2996 26.2512 52.3249 26.2891 52.3474 26.3291C52.3478 26.3297 52.3482 26.3303 52.3486 26.331C52.436 26.4875 52.4864 26.6674 52.4864 26.859V29.0522C52.4864 29.6509 51.9994 30.1379 51.4007 30.1379H51.278C51.2787 30.1329 51.2792 30.1279 51.2799 30.1228ZM24.8345 30.1382C24.2358 30.1381 23.7488 29.651 23.7488 29.0523V26.8591C23.7488 26.6664 23.7998 26.4857 23.8882 26.3287C23.9103 26.2892 23.9352 26.2519 23.9618 26.2161C23.966 26.2105 23.97 26.205 23.9742 26.1995C24.0298 26.127 24.0938 26.0621 24.1646 26.0065C24.1687 26.0032 24.1732 26.0002 24.1773 25.997C24.2095 25.9724 24.2431 25.9497 24.2778 25.9288C24.2826 25.9258 24.2875 25.9227 24.2925 25.9198C24.3697 25.875 24.4525 25.8401 24.5388 25.8154C24.5475 25.8129 24.5563 25.8109 24.565 25.8086C24.5988 25.7999 24.6333 25.793 24.6681 25.7875C24.6794 25.7857 24.6907 25.7837 24.7021 25.7823C24.7447 25.777 24.7876 25.7737 24.831 25.7736C24.8322 25.7736 24.8333 25.7735 24.8345 25.7735L24.8393 28.3678C24.8393 28.5036 24.842 28.6388 24.8461 28.7737C24.8471 28.8092 24.8488 28.8447 24.8501 28.8802C24.8542 28.9867 24.8594 29.0928 24.8661 29.1988C24.8681 29.2304 24.8699 29.262 24.8722 29.2937C24.8915 29.5726 24.9192 29.8491 24.9555 30.1231C24.9563 30.1281 24.9566 30.1332 24.9573 30.1382H24.8345ZM26.8744 30.7462C26.8651 30.7023 26.8561 30.6583 26.8474 30.6144C26.8377 30.5657 26.8283 30.5169 26.8193 30.468C26.8091 30.413 26.7994 30.358 26.7901 30.303C26.7833 30.2628 26.7765 30.2225 26.7701 30.1821C26.7598 30.1176 26.7503 30.0528 26.7411 29.9879C26.7365 29.9551 26.7317 29.9222 26.7273 29.8892C26.7178 29.8173 26.7092 29.7454 26.701 29.6734C26.6979 29.6457 26.6944 29.6179 26.6914 29.59C26.6833 29.5135 26.6763 29.4368 26.6697 29.3602C26.6676 29.3358 26.6652 29.3113 26.6632 29.2868C26.6569 29.2078 26.6519 29.1287 26.6471 29.0496C26.6458 29.0266 26.644 29.0037 26.6427 28.9806C26.6384 28.9 26.6356 28.8192 26.6329 28.7384C26.6322 28.7167 26.631 28.6952 26.6304 28.6733C26.6277 28.5714 26.6263 28.4694 26.6263 28.3674V24.8938C26.6264 24.889 26.6264 24.8841 26.6264 24.8801C26.6264 24.8801 26.6264 24.8801 26.6264 24.88C26.6265 24.7531 26.6297 24.6267 26.6339 24.5004C26.6351 24.4664 26.6357 24.434 26.6372 24.3989L26.6377 24.3886C26.6425 24.2757 26.6495 24.1633 26.6575 24.0511C26.6609 24.0041 26.6644 23.9568 26.6686 23.9077C26.678 23.7963 26.6886 23.685 26.7012 23.5741C26.706 23.5318 26.7113 23.4912 26.7164 23.4499C26.728 23.3567 26.7409 23.2639 26.7548 23.1711C26.761 23.1293 26.7671 23.0864 26.7734 23.0465C26.7921 22.9299 26.813 22.8139 26.8352 22.6982C26.8408 22.6694 26.846 22.6411 26.8518 22.6119C26.8757 22.4927 26.9019 22.3739 26.9297 22.2554C26.9376 22.2221 26.9454 22.1889 26.9537 22.1553C26.9811 22.0432 27.01 21.9313 27.0409 21.82C27.0736 21.701 27.1095 21.5832 27.1457 21.4665C27.1557 21.4342 27.1647 21.4017 27.175 21.3696L27.1816 21.3494C27.1824 21.3469 27.1832 21.3444 27.1841 21.342C27.3537 21.3045 27.524 21.2728 27.6945 21.2466C29.6112 20.9518 31.585 21.3457 33.6307 21.9305C34.3168 22.1266 35.0109 22.3439 35.7138 22.5642C38.2332 23.3538 40.8382 24.1703 43.5926 24.1703C43.7387 24.1703 43.8834 24.1686 44.027 24.1657C46.1119 24.1218 47.9353 23.7598 49.4683 23.086C49.4708 23.1019 49.4727 23.1181 49.475 23.134C49.4926 23.2488 49.5084 23.3637 49.5225 23.4791C49.5279 23.5242 49.5328 23.5692 49.5377 23.6144C49.5482 23.7098 49.5576 23.8054 49.5658 23.9012C49.5699 23.9492 49.5738 23.9974 49.5774 24.0466C49.5844 24.1436 49.5899 24.2408 49.5945 24.3381C49.5962 24.3733 49.5984 24.4092 49.5997 24.444L49.6007 24.4713C49.6056 24.607 49.6088 24.7428 49.6088 24.8788C49.6088 24.8794 49.6088 24.88 49.6088 24.8805C49.6088 24.8834 49.6088 24.8868 49.609 24.8902C49.609 24.8915 49.609 24.8925 49.609 24.8938V28.3674C49.609 28.4694 49.6075 28.5714 49.6048 28.6733C49.6042 28.695 49.603 28.7166 49.6023 28.7384C49.5997 28.8192 49.5968 28.9 49.5925 28.9806C49.5913 29.0036 49.5894 29.0266 49.5881 29.0496C49.5835 29.1287 49.5783 29.2078 49.5721 29.2868C49.5702 29.3113 49.5677 29.3357 49.5656 29.3602C49.5589 29.4369 49.552 29.5135 49.5438 29.59C49.5408 29.6179 49.5374 29.6455 49.5343 29.6734C49.526 29.7454 49.5175 29.8173 49.5079 29.8892C49.5035 29.9222 49.4988 29.9551 49.4941 29.9879C49.4849 30.0528 49.4754 30.1175 49.4652 30.1821C49.4587 30.2225 49.4519 30.2627 49.4451 30.303C49.4357 30.358 49.4261 30.413 49.416 30.468C49.4069 30.5168 49.3975 30.5657 49.3878 30.6144C49.3791 30.6583 49.3701 30.7023 49.3608 30.7462C48.3218 35.6633 44.1294 39.431 39.0068 39.8249C38.9913 39.8261 38.9758 39.8269 38.9604 39.828C38.8796 39.8338 38.7986 39.8392 38.7174 39.8435C38.6772 39.8455 38.6368 39.8467 38.5966 39.8484C38.5381 39.8508 38.4797 39.8535 38.4209 39.8551C38.32 39.8577 38.2189 39.8591 38.1175 39.8591C38.0161 39.8591 37.915 39.8577 37.814 39.8551C37.7553 39.8535 37.6969 39.8508 37.6384 39.8484C37.5982 39.8467 37.5579 39.8456 37.5176 39.8435C37.4364 39.8393 37.3553 39.834 37.2746 39.828C37.2591 39.8269 37.2436 39.8261 37.2282 39.8249C32.1058 39.431 27.9135 35.6633 26.8744 30.7462ZM34.8281 50.908C34.7348 50.9896 34.5934 50.9848 34.5059 50.8974L28.8936 45.2896L30.9436 44.6505L36.7234 49.2505L34.8281 50.908ZM38.1175 48.0761L33.0155 44.0154C33.5088 43.4388 33.7903 42.697 33.7903 41.903V40.9247C34.0201 41.0042 34.2522 41.0746 34.4855 41.1409C34.4875 41.1415 34.4895 41.142 34.4916 41.1426C34.6862 41.1979 34.8822 41.2484 35.0792 41.2946C35.1067 41.3011 35.1342 41.3075 35.1619 41.3138C35.3331 41.3528 35.5052 41.3883 35.678 41.4203C35.7139 41.427 35.7498 41.4343 35.7859 41.4407C35.8743 41.4563 35.963 41.471 36.0517 41.4849C36.1314 41.4974 36.2115 41.5087 36.2915 41.5198C36.3929 41.5337 36.4946 41.5467 36.5965 41.5583C36.697 41.5698 36.7978 41.5802 36.8989 41.5895C36.9532 41.5944 37.0076 41.5997 37.062 41.604C37.2101 41.6157 37.359 41.6246 37.5084 41.6314C37.5484 41.6332 37.5884 41.6345 37.6284 41.636C37.7908 41.6419 37.9537 41.646 38.1176 41.646C38.2815 41.646 38.4443 41.6419 38.6068 41.636C38.6468 41.6345 38.6869 41.6332 38.7268 41.6314C38.8762 41.6246 39.0251 41.6157 39.1732 41.604C39.2276 41.5997 39.282 41.5944 39.3363 41.5895C39.4375 41.5802 39.5382 41.5698 39.6387 41.5583C39.7407 41.5467 39.8423 41.5337 39.9437 41.5198C40.0239 41.5087 40.1039 41.4974 40.1835 41.4849C40.2723 41.4711 40.3609 41.4564 40.4493 41.4407C40.4854 41.4343 40.5213 41.4271 40.5573 41.4203C40.7301 41.3883 40.9022 41.3528 41.0734 41.3138C41.101 41.3075 41.1285 41.3011 41.1561 41.2946C41.353 41.2484 41.549 41.1979 41.7437 41.1426C41.7457 41.142 41.7477 41.1415 41.7497 41.1409C41.9829 41.0746 42.2151 41.004 42.4449 40.9247V41.903C42.4449 42.697 42.7264 43.4388 43.2196 44.0154L38.1175 48.0761ZM41.7292 50.8974C41.6418 50.9846 41.5004 50.9895 41.4073 50.908L39.5119 49.2502L43.0852 46.4064L45.2076 44.7173C45.2076 44.7173 45.2076 44.7173 45.2077 44.7172L45.2917 44.6503L47.3417 45.2895L41.7292 50.8974ZM58.1106 66.213C52.9447 66.213 48.7104 62.1513 48.4314 57.0538C48.4298 57.0256 48.4286 56.9972 48.4273 56.969C48.4204 56.8196 48.4159 56.6695 48.4159 56.5184C48.4159 56.3699 48.4205 56.2225 48.4271 56.0756C48.4296 56.0214 48.4333 55.9673 48.4367 55.9132C48.4422 55.8238 48.4491 55.7348 48.4571 55.6462C48.4634 55.5773 48.4696 55.5085 48.4774 55.44C48.4844 55.3768 48.4931 55.3143 48.5013 55.2516C48.7511 53.3716 49.5486 51.626 50.7533 50.2158C50.7969 50.1649 50.8404 50.1137 50.8851 50.0637C50.9242 50.0199 50.9642 49.9766 51.004 49.9335C51.0724 49.8598 51.1416 49.7867 51.2122 49.7151C51.2358 49.6912 51.2592 49.667 51.283 49.6432C53.0365 47.9017 55.4498 46.8237 58.1106 46.8237C63.4563 46.8237 67.8053 51.1727 67.8053 56.5184C67.8053 61.8641 63.4563 66.213 58.1106 66.213Z" fill="black"/>
</svg>
