<svg width="76" height="85" viewBox="0 0 76 85" fill="none" xmlns="http://www.w3.org/2000/svg">
<path fill-rule="evenodd" clip-rule="evenodd" d="M9.29078 0C4.33589 0 0.319153 4.01674 0.319153 8.97163V66.3901C0.319153 71.345 4.33589 75.3617 9.29079 75.3617L14.6738 75.3617V10.766L25.4397 23.3263L38 38.578L50.5603 23.3263L61.3263 10.766V75.3617L66.7092 75.3617C71.6641 75.3617 75.6809 71.345 75.6809 66.3901V8.97163C75.6809 4.01674 71.6641 0 66.7092 0H9.29078ZM50.5603 75.3617V42.1667L38 55.9232L25.4397 42.1667L25.4397 75.3617L25.4397 84.3333L32.1684 75.3617L50.5603 75.3617Z" fill="#D58E00"/>
<path d="M27.2341 10.766H48.766L38 21.5319L27.2341 10.766Z" fill="black" fill-opacity="0.3"/>
</svg>
