<svg width="62" height="62" viewBox="0 0 62 62" fill="none" xmlns="http://www.w3.org/2000/svg">
<rect x="0.5" y="0.5" width="61" height="61" rx="9.5" fill="#0139CB" fill-opacity="0.05" stroke="#2A21B8"/>
<path fill-rule="evenodd" clip-rule="evenodd" d="M28.5371 38.4668H34.4629C34.7832 38.4668 34.9434 38.3066 34.9434 37.9863V33.4219C39.2676 32.0605 42.2305 28.0566 42.2305 23.4922V13.6426C42.2305 13.3223 41.9902 13.1621 41.75 13.1621H21.25C21.0098 13.1621 20.7695 13.3223 20.7695 13.6426V23.4922C20.7695 28.0566 23.7324 32.0605 28.0566 33.4219V37.9863C28.0566 38.3066 28.2168 38.4668 28.5371 38.4668ZM33.9824 37.5059H29.0176V33.0215C29.0176 32.8613 28.8574 32.6211 28.6172 32.6211C24.6133 31.4199 21.7305 27.7363 21.7305 23.4922V14.123H41.2695V23.4922C41.2695 27.7363 38.3867 31.4199 34.3828 32.6211C34.1426 32.6211 33.9824 32.8613 33.9824 33.0215V37.5059Z" fill="#2A21B8"/>
<path fill-rule="evenodd" clip-rule="evenodd" d="M24.1329 43.5918H38.8673C39.0275 43.5918 39.1876 43.5117 39.2677 43.2715C39.3478 43.1113 39.3478 42.9512 39.1876 42.791L34.8634 37.666C34.7833 37.5859 34.6232 37.5059 34.463 37.5059H28.5372C28.3771 37.5059 28.2169 37.5859 28.1369 37.666L23.8126 42.791C23.6525 42.9512 23.6525 43.1113 23.7326 43.2715C23.8126 43.5117 23.9728 43.5918 24.1329 43.5918ZM37.8263 42.6309H25.174L28.7775 38.4668H34.2228L37.8263 42.6309Z" fill="#2A21B8"/>
<path fill-rule="evenodd" clip-rule="evenodd" d="M40.3887 29.0176H43.3516C46.1543 29.0176 48.3965 26.6953 48.3965 23.8926V15.9648C48.3965 15.6445 48.1562 15.4844 47.916 15.4844H41.75C41.4297 15.4844 41.2695 15.6445 41.2695 15.9648V23.4922C41.2695 25.1738 40.7891 26.8555 39.9883 28.2969C39.9082 28.377 39.9082 28.6172 39.9883 28.7773C40.0684 28.8574 40.2285 29.0176 40.3887 29.0176ZM47.4355 16.4453V23.8926C47.4355 26.2148 45.5938 28.0566 43.3516 28.0566H41.1895C41.8301 26.6152 42.2305 25.0938 42.2305 23.4922V16.4453H47.4355Z" fill="#2A21B8"/>
<path fill-rule="evenodd" clip-rule="evenodd" d="M19.6484 29.0176H22.6113C22.7715 29.0176 22.9316 28.8574 23.0117 28.7773C23.0918 28.6172 23.0918 28.377 23.0117 28.2969C22.2109 26.8555 21.7305 25.1738 21.7305 23.4922V15.9648C21.7305 15.6445 21.5703 15.4844 21.25 15.4844H15.084C14.8438 15.4844 14.6035 15.6445 14.6035 15.9648V23.8926C14.6035 26.6953 16.8457 29.0176 19.6484 29.0176ZM21.8105 28.0566H19.6484C17.4062 28.0566 15.5645 26.2148 15.5645 23.8926V16.4453H20.7695V23.4922C20.7695 25.0938 21.1699 26.6152 21.8105 28.0566Z" fill="#2A21B8"/>
<path fill-rule="evenodd" clip-rule="evenodd" d="M20.6895 47.7559H42.3105C42.5508 47.7559 42.791 47.5957 42.791 47.2754V43.1113C42.791 42.8711 42.5508 42.6309 42.3105 42.6309H20.6895C20.4492 42.6309 20.209 42.8711 20.209 43.1113V47.2754C20.209 47.5957 20.4492 47.7559 20.6895 47.7559ZM41.8301 46.7949H21.1699V43.5918H41.8301V46.7949Z" fill="#2A21B8"/>
<path fill-rule="evenodd" clip-rule="evenodd" d="M18.7676 52H44.2324C44.4727 52 44.7129 51.7598 44.7129 51.5195V47.2754C44.7129 47.0352 44.4727 46.7949 44.2324 46.7949H18.7676C18.5273 46.7949 18.2871 47.0352 18.2871 47.2754V51.5195C18.2871 51.7598 18.5273 52 18.7676 52ZM43.752 51.0391H19.248V47.7559H43.752V51.0391Z" fill="#2A21B8"/>
<path fill-rule="evenodd" clip-rule="evenodd" d="M20.3691 14.123H42.6309C42.9512 14.123 43.1113 13.8828 43.1113 13.6426V11.4805C43.1113 11.2402 42.9512 11 42.6309 11H20.3691C20.0488 11 19.8887 11.2402 19.8887 11.4805V13.6426C19.8887 13.8828 20.0488 14.123 20.3691 14.123ZM42.1504 13.1621H20.8496V11.9609H42.1504V13.1621Z" fill="#2A21B8"/>
<path fill-rule="evenodd" clip-rule="evenodd" d="M25.0938 52H37.9062C38.2266 52 38.3867 51.7598 38.3867 51.5195V49.4375C38.3867 49.1973 38.2266 48.957 37.9062 48.957H25.0938C24.7734 48.957 24.6133 49.1973 24.6133 49.4375V51.5195C24.6133 51.7598 24.7734 52 25.0938 52ZM37.4258 51.0391H25.5742V49.918H37.4258V51.0391Z" fill="#2A21B8"/>
<path fill-rule="evenodd" clip-rule="evenodd" d="M31.5 29.1777C35.1836 29.1777 38.1465 26.2148 38.1465 22.6113C38.1465 18.9277 35.1836 15.9648 31.5 15.9648C27.8164 15.9648 24.8535 18.9277 24.8535 22.6113C24.8535 26.2148 27.8164 29.1777 31.5 29.1777ZM31.5 16.9258C34.623 16.9258 37.1855 19.4082 37.1855 22.6113C37.1855 25.7344 34.623 28.2168 31.5 28.2168C28.377 28.2168 25.8145 25.7344 25.8145 22.6113C25.8145 19.4082 28.377 16.9258 31.5 16.9258Z" fill="#2A21B8"/>
<path fill-rule="evenodd" clip-rule="evenodd" d="M33.1016 26.0547C33.3418 26.0547 33.582 25.8145 33.582 25.5742V19.5684C33.582 19.3281 33.3418 19.0879 33.1016 19.0879C32.8613 19.0879 32.6211 19.3281 32.6211 19.5684V25.5742C32.6211 25.8145 32.8613 26.0547 33.1016 26.0547Z" fill="#2A21B8"/>
<path fill-rule="evenodd" clip-rule="evenodd" d="M30.5391 22.8516H33.1016C33.3418 22.8516 33.582 22.6113 33.582 22.3711V19.5684C33.582 19.3281 33.3418 19.0879 33.1016 19.0879H30.5391C29.498 19.0879 28.6172 19.9688 28.6172 20.9297C28.6172 21.9707 29.498 22.8516 30.5391 22.8516ZM32.6211 21.8906H30.5391C29.9785 21.8906 29.5781 21.4902 29.5781 20.9297C29.5781 20.4492 29.9785 20.0488 30.5391 20.0488H32.6211V21.8906Z" fill="#2A21B8"/>
<path fill-rule="evenodd" clip-rule="evenodd" d="M30.459 26.0547H33.1016C33.3418 26.0547 33.582 25.8145 33.582 25.5742V22.3711C33.582 22.1309 33.3418 21.8906 33.1016 21.8906H30.459C29.2578 21.8906 28.377 22.8516 28.377 23.9727C28.377 25.0938 29.2578 26.0547 30.459 26.0547ZM32.6211 25.0938H30.459C29.8184 25.0938 29.3379 24.6133 29.3379 23.9727C29.3379 23.332 29.8184 22.8516 30.459 22.8516H32.6211V25.0938Z" fill="#2A21B8"/>
<path fill-rule="evenodd" clip-rule="evenodd" d="M33.1016 20.0488H34.1426C34.4629 20.0488 34.623 19.8086 34.623 19.5684C34.623 19.3281 34.4629 19.0879 34.1426 19.0879H33.1016C32.8613 19.0879 32.6211 19.3281 32.6211 19.5684C32.6211 19.8086 32.8613 20.0488 33.1016 20.0488Z" fill="#2A21B8"/>
<path fill-rule="evenodd" clip-rule="evenodd" d="M33.1016 26.0547H34.1426C34.4629 26.0547 34.623 25.8145 34.623 25.5742C34.623 25.334 34.4629 25.0938 34.1426 25.0938H33.1016C32.8613 25.0938 32.6211 25.334 32.6211 25.5742C32.6211 25.8145 32.8613 26.0547 33.1016 26.0547Z" fill="#2A21B8"/>
<path fill-rule="evenodd" clip-rule="evenodd" d="M32.3008 20.0488C32.541 20.0488 32.7812 19.8086 32.7812 19.5684V18.6074C32.7812 18.2871 32.541 18.127 32.3008 18.127C31.9805 18.127 31.8203 18.2871 31.8203 18.6074V19.5684C31.8203 19.8086 31.9805 20.0488 32.3008 20.0488Z" fill="#2A21B8"/>
<path fill-rule="evenodd" clip-rule="evenodd" d="M30.459 20.0488C30.6992 20.0488 30.9395 19.8086 30.9395 19.5684V18.6074C30.9395 18.2871 30.6992 18.127 30.459 18.127C30.2188 18.127 29.9785 18.2871 29.9785 18.6074V19.5684C29.9785 19.8086 30.1387 20.0488 30.459 20.0488Z" fill="#2A21B8"/>
<path fill-rule="evenodd" clip-rule="evenodd" d="M32.3008 27.0156C32.541 27.0156 32.7812 26.8555 32.7812 26.5352V25.5742C32.7812 25.334 32.541 25.0938 32.3008 25.0938C31.9805 25.0938 31.8203 25.334 31.8203 25.5742V26.5352C31.8203 26.8555 31.9805 27.0156 32.3008 27.0156Z" fill="#2A21B8"/>
<path fill-rule="evenodd" clip-rule="evenodd" d="M30.459 27.0156C30.6992 27.0156 30.9395 26.8555 30.9395 26.5352V25.5742C30.9395 25.334 30.6992 25.0938 30.459 25.0938C30.2188 25.0938 29.9785 25.334 29.9785 25.5742V26.5352C29.9785 26.8555 30.1387 27.0156 30.459 27.0156Z" fill="#2A21B8"/>
</svg>
