<svg width="62" height="62" viewBox="0 0 62 62" fill="none" xmlns="http://www.w3.org/2000/svg">
<rect x="0.5" y="0.5" width="61" height="61" rx="9.5" fill="#0139CB" fill-opacity="0.05" stroke="#2A21B8"/>
<g clip-path="url(#clip0_1758_40909)">
<path d="M38.5265 48.625L36.8166 49.2173C34.8056 49.9142 32.6576 50.1242 30.5496 49.8323L19.9945 48.3676H17.4951V38.4034L17.7291 38.2895C21.9405 35.781 24.2131 35.6512 28.1871 37.3854H33.9043C35.4436 37.3854 36.6921 38.6338 36.6921 40.1732C36.6921 40.9429 36.3797 41.6396 35.8752 42.1442C35.3707 42.6487 34.674 42.9611 33.9043 42.9611H28.1871V42.9646H37.2046L46.8744 40.1901C48.2295 39.8013 49.6506 40.554 50.0884 41.8951C50.1765 42.1655 50.2183 42.4396 50.2183 42.7101C50.2183 43.7966 49.5376 44.811 48.4546 45.1856L45.9188 46.0641L38.5265 48.625Z" stroke="#2A21B8" stroke-miterlimit="10" stroke-linecap="round" stroke-linejoin="round"/>
<path d="M12.3054 46.1217V51.1992H17.4951V38.403H12.3054V46.1217Z" stroke="#2A21B8" stroke-miterlimit="10" stroke-linecap="round" stroke-linejoin="round"/>
<path d="M50.4261 28.5016C50.6019 29.3874 50.6948 30.3031 50.6948 31.2404C50.6948 34.598 49.5126 37.6781 47.5421 40.0887C47.3208 40.0936 47.0963 40.1266 46.8742 40.1902L37.2046 42.9648H29.0705C29.068 42.964 29.0664 42.9624 29.0639 42.9607H33.904C34.6743 42.9607 35.3711 42.6487 35.8754 42.1443C36.3799 41.6399 36.692 40.9431 36.692 40.1728C36.692 38.6341 35.4437 37.385 33.904 37.385H28.1872C26.442 36.6239 25.0253 36.2218 23.6285 36.2226C23.0382 34.6748 22.7155 32.9956 22.7155 31.2404C22.7155 23.5134 28.9788 17.25 36.7051 17.25C40.9202 17.25 44.6995 19.1142 47.2644 22.0631" stroke="#2A21B8" stroke-miterlimit="10" stroke-linecap="round" stroke-linejoin="round"/>
<path d="M36.7051 13.9995V11.8007" stroke="#2A21B8" stroke-miterlimit="10" stroke-linecap="round" stroke-linejoin="round"/>
<path d="M26.6074 16.3945L25.0527 14.5095" stroke="#2A21B8" stroke-miterlimit="10" stroke-linecap="round" stroke-linejoin="round"/>
<path d="M46.1322 16.3945L47.687 14.5095" stroke="#2A21B8" stroke-miterlimit="10" stroke-linecap="round" stroke-linejoin="round"/>
<path d="M27.8169 25.2251L36.2144 33.6226" stroke="#2A21B8" stroke-miterlimit="10" stroke-linecap="round" stroke-linejoin="round"/>
<path d="M35.1044 24.927C34.2778 24.927 33.6078 25.5971 33.6078 26.4237C33.6078 27.2503 34.2778 27.9204 35.1044 27.9204C35.931 27.9204 36.6011 27.2503 36.6011 26.4237C36.6011 25.5971 35.931 24.927 35.1044 24.927Z" stroke="#2A21B8" stroke-miterlimit="10" stroke-linecap="round" stroke-linejoin="round"/>
<path d="M28.9765 31.0549C28.1499 31.0549 27.4798 31.725 27.4798 32.5516C27.4798 33.3782 28.1499 34.0483 28.9765 34.0483C29.8031 34.0483 30.4731 33.3782 30.4731 32.5516C30.4731 31.725 29.8031 31.0549 28.9765 31.0549Z" stroke="#2A21B8" stroke-miterlimit="10" stroke-linecap="round" stroke-linejoin="round"/>
<path d="M42.3475 33.6226H43.4239C44.6194 33.6226 45.5884 32.6535 45.5884 31.4581V26.9383C45.5884 25.743 44.6194 24.7738 43.4239 24.7738H42.3475C41.1521 24.7738 40.183 25.743 40.183 26.9383V31.4581C40.183 32.6535 41.1521 33.6226 42.3475 33.6226Z" stroke="#2A21B8" stroke-miterlimit="10" stroke-linecap="round" stroke-linejoin="round"/>
</g>
<defs>
<clipPath id="clip0_1758_40909">
<rect width="41" height="41" fill="white" transform="matrix(-1 0 0 1 52 11)"/>
</clipPath>
</defs>
</svg>
