<svg width="62" height="62" viewBox="0 0 62 62" fill="none" xmlns="http://www.w3.org/2000/svg">
<rect x="0.5" y="0.5" width="61" height="61" rx="9.5" fill="#FFA300" fill-opacity="0.05" stroke="#FFA300"/>
<g clip-path="url(#clip0_1758_40912)">
<path d="M22.8397 33.9209C23.0351 34.896 23.3865 35.8068 23.8572 36.6354H17.0644V37.5086C17.0644 38.1053 16.6835 38.313 16.2168 37.9718L13.3496 35.8595C12.8828 35.5188 12.8828 34.9571 13.3496 34.6165L16.2167 32.5043C16.6855 32.163 17.0644 32.3712 17.0644 32.967V33.9209H22.8397ZM25.2088 25.7499L19.7147 23.3696L20.0604 22.4879C20.2752 21.9364 20.0018 21.5916 19.4452 21.7206L16.0273 22.5246C15.4726 22.6531 15.2694 23.172 15.5781 23.6748L17.4628 26.7757C17.7695 27.2775 18.1972 27.2383 18.4121 26.6863L18.7304 25.8793L23.619 27.9962C24.035 27.1606 24.5702 26.4023 25.2088 25.7499ZM32.6756 23.3908L32.5427 17.2406L33.449 17.2191C34.0173 17.2046 34.2048 16.8015 33.8708 16.3188L31.7947 13.3528C31.4607 12.8716 30.9256 12.8841 30.6111 13.3815L28.6697 16.4452C28.3553 16.9415 28.5603 17.3359 29.1306 17.3224L29.9606 17.3024L30.0915 23.2974C30.4216 23.2562 30.7536 23.2297 31.0935 23.2297C31.6345 23.2297 32.1638 23.2879 32.6756 23.3908ZM43.3433 24.8446L43.8531 25.6309C44.1754 26.1237 44.5993 26.0711 44.8024 25.5115L46.0349 22.0678C46.236 21.5093 45.9371 21.045 45.3668 21.04L41.865 20.9983C41.2985 20.9933 41.0935 21.3898 41.4158 21.8822L41.8845 22.6033L37.1892 25.9771C37.7849 26.6321 38.283 27.3823 38.6677 28.2054L43.3433 24.8446ZM48.648 34.6165L45.7808 32.5043C45.3141 32.163 44.9332 32.3712 44.9332 32.967V33.9209H39.3493C39.154 34.896 38.8024 35.8068 38.3298 36.6354H44.9332V37.5086C44.9332 38.1053 45.3141 38.313 45.7808 37.9718L48.648 35.8595C49.1167 35.5188 49.1167 34.9571 48.648 34.6165ZM27.5046 31.3726C27.5046 29.2026 29.2175 27.4442 31.3299 27.4442C33.4421 27.4442 35.1559 29.2026 35.1559 31.3726C35.1559 33.5445 33.4421 35.302 31.3299 35.302C29.2176 35.302 27.5046 33.5445 27.5046 31.3726ZM24.9519 48.0549C24.9754 48.0568 24.9989 48.0568 25.0213 48.0568C25.7351 48.0568 26.3328 47.4816 26.368 46.74C26.5164 43.7189 27.1003 41.4666 28.0583 40.1247C27.989 41.5308 27.8679 44.0801 27.7585 46.6857C27.7517 46.7329 27.7389 46.7781 27.7351 46.8262L27.5164 50H35.2517L35.114 47.81C35.1092 47.7276 35.0905 47.6503 35.0759 47.572C34.9978 45.3047 34.7448 41.9503 34.6003 40.1267C35.5779 41.4706 36.1287 43.6998 36.1881 46.6997C36.2039 47.4545 36.8053 48.0568 37.5661 48.0568C38.3112 48.0406 38.9029 47.4083 38.8873 46.6416C38.7955 42.0407 37.6686 38.8479 35.5377 37.1536C34.9839 36.713 34.3961 36.3286 33.732 36.0933C33.111 35.8725 32.4577 35.749 31.8034 35.7032L32.7897 46.3503L31.365 48.0667L29.736 46.3503L30.9733 35.6881C29.3738 35.7439 28.0163 36.3135 26.8288 37.3929C24.9226 39.1278 23.8904 42.1399 23.6726 46.6013C23.6346 47.3663 24.2079 48.0167 24.9519 48.0549Z" fill="#FFA300"/>
</g>
<defs>
<clipPath id="clip0_1758_40912">
<rect width="36" height="37" fill="white" transform="translate(13 13)"/>
</clipPath>
</defs>
</svg>
