<svg width="62" height="62" viewBox="0 0 62 62" fill="none" xmlns="http://www.w3.org/2000/svg">
<rect x="0.5" y="0.5" width="61" height="61" rx="9.5" fill="#0139CB" fill-opacity="0.05" stroke="#2A21B8"/>
<path d="M30.9769 29.0522C31.7502 29.0522 32.377 29.679 32.377 30.4523C32.377 31.0113 32.0485 31.4924 31.5748 31.7169V33.4188C31.5748 33.7489 31.3072 34.0165 30.977 34.0165C30.6468 34.0165 30.3792 33.7489 30.3792 33.4188V31.7169C29.9054 31.4924 29.5769 31.0113 29.5769 30.4523C29.5769 29.679 30.2037 29.0522 30.9769 29.0522Z" fill="#2A21B8"/>
<path d="M16.0588 19.1178C18.6321 18.0995 20.6745 16.2241 21.8099 13.8372C22.1186 13.1881 22.7861 12.7686 23.5103 12.7686H38.4894C39.2135 12.7686 39.881 13.188 40.1897 13.8372C41.325 16.2241 43.3675 18.0995 45.9408 19.1178C46.6626 19.4033 47.1289 20.0914 47.1289 20.8706V24.5138C47.1289 29.2896 45.7363 34.0073 43.1015 38.1571C40.4411 42.3475 36.5862 45.8495 31.9536 48.2843L31.8781 48.324C31.6031 48.4686 31.3015 48.5408 30.9998 48.5408C30.6982 48.5408 30.3965 48.4686 30.1216 48.3241L30.0459 48.2843C25.4133 45.8494 21.5584 42.3475 18.8979 38.1571C16.2633 34.0072 14.8706 29.2895 14.8706 24.5138V20.8706C14.8706 20.0913 15.3371 19.4033 16.0588 19.1178ZM16.0661 24.5139C16.0661 29.0623 17.3943 33.5584 19.9072 37.5164C22.4558 41.5307 26.1541 44.8883 30.6019 47.2262L30.6776 47.2659C30.8793 47.372 31.1202 47.372 31.322 47.2659L31.3974 47.2263C35.8454 44.8884 39.5437 41.5308 42.0924 37.5164C44.6053 33.5585 45.9335 29.0623 45.9335 24.5138V20.8706C45.9335 20.5851 45.7637 20.3333 45.501 20.2294C42.6455 19.0995 40.3759 17.0117 39.1103 14.3507C38.9986 14.1158 38.7549 13.9641 38.4895 13.9641H23.5102C23.2448 13.9641 23.0011 14.1158 22.8894 14.3507C21.6237 17.0117 19.354 19.0995 16.4986 20.2295C16.2359 20.3334 16.0661 20.5851 16.0661 20.8707V24.5139Z" fill="#2A21B8"/>
<path d="M13.0619 30.1863C13.3839 30.1135 13.7039 30.3155 13.7766 30.6376C15.5971 38.6912 21.1414 45.6756 28.9882 49.7999L30.8116 50.7583C30.9294 50.8202 31.07 50.8202 31.1877 50.7583L33.0111 49.7999C40.8702 45.6691 46.4173 38.6726 48.2302 30.6045C48.3024 30.2825 48.6223 30.0799 48.9443 30.1524C49.2664 30.2247 49.4688 30.5445 49.3965 30.8665C47.5068 39.2773 41.7373 46.5639 33.5673 50.858L31.7438 51.8164C31.5108 51.9388 31.2553 52.0001 30.9997 52.0001C30.7441 52.0001 30.4884 51.9388 30.2555 51.8163L28.432 50.8579C20.2749 46.5705 14.5083 39.2966 12.6105 30.9011C12.5379 30.5791 12.7399 30.2591 13.0619 30.1863Z" fill="#2A21B8"/>
<path d="M13.3531 16.8395C16.5448 16.5028 19.0545 14.2624 19.4562 11.3915C19.5672 10.5982 20.249 10 21.042 10H40.9579C41.7509 10 42.4327 10.5982 42.5437 11.3915C42.9454 14.2625 45.4551 16.5028 48.6468 16.8395C49.4555 16.9248 50.0654 17.6081 50.0654 18.4287V24.8472C50.0654 25.7799 50.0171 26.7228 49.9218 27.6499C49.8901 27.9575 49.6306 28.1866 49.3279 28.1866C49.3075 28.1866 49.2868 28.1855 49.266 28.1834C48.9377 28.1497 48.6988 27.8561 48.7326 27.5277C48.8237 26.641 48.87 25.7392 48.87 24.8472V18.4287C48.87 18.2249 48.7168 18.0489 48.5214 18.0283C44.7827 17.6339 41.8378 14.9728 41.3597 11.5571C41.3303 11.3475 41.1614 11.1954 40.9579 11.1954H21.0421C20.8386 11.1954 20.6695 11.3475 20.6402 11.5571C20.1623 14.9728 17.2173 17.6338 13.4787 18.0283C13.2832 18.0489 13.13 18.2249 13.13 18.4287V24.8472C13.13 25.7297 13.1753 26.6222 13.2646 27.5001C13.298 27.8284 13.0588 28.1218 12.7304 28.1552C12.4022 28.1888 12.1087 27.9493 12.0752 27.621C11.9818 26.7032 11.9346 25.77 11.9346 24.8472V18.4287C11.9345 17.6081 12.5443 16.9248 13.3531 16.8395Z" fill="#2A21B8"/>
<path d="M24.1535 24.9188H25.1364V22.0656C25.1364 18.8451 27.7564 16.2251 30.9769 16.2251C34.1974 16.2251 36.8174 18.8451 36.8174 22.0656V24.9188H37.8002C38.8484 24.9188 39.7012 25.7716 39.7012 26.8198V35.378C39.7012 36.4262 38.8484 37.279 37.8002 37.279H24.1535C23.1054 37.279 22.2526 36.4262 22.2526 35.378V26.8198C22.2526 25.7716 23.1054 24.9188 24.1535 24.9188ZM35.6219 22.0656C35.6219 19.5044 33.5382 17.4206 30.9768 17.4206C28.4155 17.4206 26.3317 19.5044 26.3317 22.0656V24.9189H35.6219V22.0656ZM23.448 35.378C23.448 35.767 23.7646 36.0835 24.1535 36.0835H37.8002C38.1893 36.0835 38.5057 35.767 38.5057 35.378V26.8198C38.5057 26.4308 38.1892 26.1142 37.8002 26.1142H24.1535C23.7646 26.1142 23.448 26.4307 23.448 26.8198V35.378Z" fill="#2A21B8"/>
</svg>
