<svg width="62" height="62" viewBox="0 0 62 62" fill="none" xmlns="http://www.w3.org/2000/svg">
<rect x="0.5" y="0.5" width="61" height="61" rx="9.5" fill="#FFA300" fill-opacity="0.05" stroke="#FFA300"/>
<g clip-path="url(#clip0_1758_40913)">
<path d="M14.1562 49.4219H24.5625C24.7158 49.4219 24.8629 49.361 24.9713 49.2526C25.0797 49.1441 25.1406 48.9971 25.1406 48.8438V45.9531C25.1403 45.4237 24.9583 44.9104 24.6251 44.499C24.2919 44.0875 23.8275 43.8029 23.3097 43.6927C23.6152 43.4195 23.8305 43.06 23.9272 42.6618C24.0239 42.2635 23.9974 41.8453 23.8512 41.4624C23.705 41.0796 23.446 40.7502 23.1085 40.5177C22.7709 40.2853 22.3708 40.1609 21.9609 40.1609C21.5511 40.1609 21.151 40.2853 20.8134 40.5177C20.4759 40.7502 20.2169 41.0796 20.0707 41.4624C19.9244 41.8453 19.8979 42.2635 19.9946 42.6618C20.0913 43.06 20.3067 43.4195 20.6122 43.6927C20.1247 43.7993 19.685 44.0615 19.3594 44.4396C19.0337 44.0615 18.5941 43.7993 18.1066 43.6927C18.4121 43.4195 18.6274 43.06 18.7241 42.6618C18.8208 42.2635 18.7943 41.8453 18.6481 41.4624C18.5019 41.0796 18.2429 40.7502 17.9053 40.5177C17.5678 40.2853 17.1676 40.1609 16.7578 40.1609C16.348 40.1609 15.9478 40.2853 15.6103 40.5177C15.2727 40.7502 15.0137 41.0796 14.8675 41.4624C14.7213 41.8453 14.6948 42.2635 14.7915 42.6618C14.8882 43.06 15.1036 43.4195 15.409 43.6927C14.8912 43.8029 14.4269 44.0875 14.0936 44.499C13.7604 44.9104 13.5784 45.4237 13.5781 45.9531V48.8438C13.5781 48.9971 13.639 49.1441 13.7475 49.2526C13.8559 49.361 14.0029 49.4219 14.1562 49.4219V49.4219ZM21.9609 41.3281C22.1325 41.3281 22.3001 41.379 22.4427 41.4743C22.5853 41.5696 22.6965 41.705 22.7621 41.8635C22.8277 42.0219 22.8449 42.1963 22.8115 42.3645C22.778 42.5327 22.6954 42.6873 22.5741 42.8085C22.4529 42.9298 22.2983 43.0124 22.1301 43.0459C21.9619 43.0793 21.7875 43.0621 21.6291 42.9965C21.4706 42.9309 21.3352 42.8197 21.2399 42.6771C21.1446 42.5345 21.0938 42.3668 21.0938 42.1953C21.0938 41.9653 21.1851 41.7448 21.3477 41.5821C21.5104 41.4195 21.7309 41.3281 21.9609 41.3281V41.3281ZM19.9375 45.9531C19.9375 45.6465 20.0593 45.3524 20.2762 45.1356C20.493 44.9187 20.7871 44.7969 21.0938 44.7969H22.8281C23.1348 44.7969 23.4289 44.9187 23.6457 45.1356C23.8626 45.3524 23.9844 45.6465 23.9844 45.9531V48.2656H19.9375V45.9531ZM16.7578 41.3281C16.9293 41.3281 17.097 41.379 17.2396 41.4743C17.3822 41.5696 17.4934 41.705 17.559 41.8635C17.6246 42.0219 17.6418 42.1963 17.6083 42.3645C17.5749 42.5327 17.4923 42.6873 17.371 42.8085C17.2497 42.9298 17.0952 43.0124 16.927 43.0459C16.7588 43.0793 16.5844 43.0621 16.426 42.9965C16.2675 42.9309 16.1321 42.8197 16.0368 42.6771C15.9415 42.5345 15.8906 42.3668 15.8906 42.1953C15.8906 41.9653 15.982 41.7448 16.1446 41.5821C16.3072 41.4195 16.5278 41.3281 16.7578 41.3281V41.3281ZM14.7344 45.9531C14.7344 45.6465 14.8562 45.3524 15.073 45.1356C15.2899 44.9187 15.584 44.7969 15.8906 44.7969H17.625C17.9317 44.7969 18.2258 44.9187 18.4426 45.1356C18.6594 45.3524 18.7812 45.6465 18.7812 45.9531V48.2656H14.7344V45.9531Z" fill="#FFA300"/>
<path d="M17.3359 38.1484C17.3359 38.5486 17.4546 38.9398 17.6769 39.2726C17.8993 39.6054 18.2153 39.8647 18.585 40.0178C18.9548 40.171 19.3616 40.2111 19.7541 40.133C20.1466 40.0549 20.5072 39.8622 20.7902 39.5792C21.0731 39.2962 21.2659 38.9357 21.3439 38.5432C21.422 38.1507 21.3819 37.7438 21.2288 37.3741C21.0756 37.0044 20.8163 36.6883 20.4835 36.466C20.1508 36.2437 19.7596 36.125 19.3594 36.125C18.8227 36.125 18.3081 36.3382 17.9286 36.7177C17.5491 37.0971 17.3359 37.6118 17.3359 38.1484ZM20.2266 38.1484C20.2266 38.32 20.1757 38.4876 20.0804 38.6302C19.9851 38.7728 19.8497 38.884 19.6912 38.9496C19.5328 39.0152 19.3584 39.0324 19.1902 38.999C19.022 38.9655 18.8675 38.8829 18.7462 38.7616C18.6249 38.6404 18.5423 38.4858 18.5089 38.3176C18.4754 38.1494 18.4926 37.975 18.5582 37.8166C18.6238 37.6581 18.735 37.5227 18.8776 37.4274C19.0202 37.3321 19.1879 37.2812 19.3594 37.2812C19.5894 37.2812 19.8099 37.3726 19.9726 37.5352C20.1352 37.6979 20.2266 37.9184 20.2266 38.1484V38.1484Z" fill="#FFA300"/>
<path d="M27.4531 41.9063H35.5469C35.6612 41.9063 35.773 41.8723 35.868 41.8088C35.963 41.7453 36.0371 41.655 36.0809 41.5494C36.1246 41.4438 36.1361 41.3275 36.1138 41.2154C36.0915 41.1033 36.0364 41.0003 35.9556 40.9194L33.6431 38.6069L32.8256 39.4244L34.1513 40.75H27.4531V41.9063Z" fill="#FFA300"/>
<path d="M36.1249 43.6406H28.0311C27.9168 43.6406 27.8051 43.6746 27.71 43.7381C27.615 43.8016 27.5409 43.8919 27.4971 43.9975C27.4534 44.1032 27.4419 44.2194 27.4642 44.3315C27.4865 44.4436 27.5416 44.5466 27.6224 44.6275L29.9349 46.94L30.7524 46.1225L29.4267 44.7969H36.1249V43.6406Z" fill="#FFA300"/>
<path d="M44.2188 36.7031C41.2524 36.7031 39.0156 37.9455 39.0156 39.5938V46.5312C39.0156 48.1795 41.2524 49.4219 44.2188 49.4219C47.1851 49.4219 49.4219 48.1795 49.4219 46.5312V39.5938C49.4219 37.9455 47.1851 36.7031 44.2188 36.7031ZM48.2656 46.5312C48.2656 47.3499 46.5347 48.2656 44.2188 48.2656C41.9028 48.2656 40.1719 47.3499 40.1719 46.5312V44.9212C41.3928 45.6488 42.7984 46.0072 44.2188 45.9531C45.6391 46.0072 47.0447 45.6488 48.2656 44.9212V46.5312ZM48.2656 43.0625C48.2656 43.8811 46.5347 44.7969 44.2188 44.7969C41.9028 44.7969 40.1719 43.8811 40.1719 43.0625V41.4524C41.3928 42.1801 42.7984 42.5385 44.2188 42.4844C45.6391 42.5385 47.0447 42.1801 48.2656 41.4524V43.0625ZM44.2188 41.3281C41.9028 41.3281 40.1719 40.4124 40.1719 39.5938C40.1719 38.7751 41.9028 37.8594 44.2188 37.8594C46.5347 37.8594 48.2656 38.7751 48.2656 39.5938C48.2656 40.4124 46.5347 41.3281 44.2188 41.3281Z" fill="#FFA300"/>
<path d="M30.9219 36.125H32.0781V37.2812H30.9219V36.125Z" fill="#FFA300"/>
<path d="M30.9219 33.8125H32.0781V34.9688H30.9219V33.8125Z" fill="#FFA300"/>
<path d="M30.9219 31.5H32.0781V32.6562H30.9219V31.5Z" fill="#FFA300"/>
<path d="M30.9219 29.1875H32.0781V30.3438H30.9219V29.1875Z" fill="#FFA300"/>
<path d="M30.9219 20.8544L29.3569 22.4194L30.1744 23.2369L31.9088 21.5025C32.0172 21.3941 32.0781 21.2471 32.0782 21.0938V16.4688H30.9219V20.8544Z" fill="#FFA300"/>
<path d="M31.4999 13.5781C30.387 13.5779 29.2903 13.8454 28.3025 14.3582C27.3147 14.8709 26.4647 15.6138 25.8244 16.524C25.184 17.4343 24.7721 18.4853 24.6233 19.5883C24.4745 20.6912 24.5933 21.8138 24.9696 22.8612C25.3459 23.9086 25.9686 24.8501 26.7853 25.6062C27.602 26.3624 28.5885 26.9109 29.6618 27.2056C30.735 27.5002 31.8634 27.5324 32.9517 27.2992C34.0399 27.0661 35.0561 26.5746 35.9145 25.8662L35.1791 24.9741C34.1656 25.8103 32.8976 26.2763 31.5839 26.2953C30.2702 26.3144 28.9891 25.8855 27.9518 25.0791C26.9145 24.2728 26.1828 23.1371 25.8772 21.8593C25.5716 20.5815 25.7104 19.2377 26.2707 18.0493C26.831 16.8609 27.7794 15.8988 28.9596 15.3215C30.1398 14.7442 31.4815 14.5861 32.7636 14.8733C34.0457 15.1604 35.1917 15.8758 36.0129 16.9014C36.8341 17.927 37.2814 19.2018 37.2812 20.5156C37.2809 20.862 37.2499 21.2078 37.1887 21.5487L36.5874 20.7469L35.6624 21.4406L37.3968 23.7531C37.4506 23.8249 37.5205 23.8832 37.6007 23.9233C37.681 23.9635 37.7695 23.9844 37.8593 23.9844C37.949 23.9844 38.0376 23.9635 38.1178 23.9233C38.1981 23.8832 38.2679 23.8249 38.3218 23.7531L40.0562 21.4406L39.1312 20.7469L38.3108 21.8401C38.5053 20.8356 38.4754 19.8006 38.2232 18.809C37.971 17.8174 37.5028 16.8939 36.8519 16.1044C36.2011 15.315 35.3839 14.6791 34.4586 14.2424C33.5334 13.8056 32.5231 13.5788 31.4999 13.5781V13.5781Z" fill="#FFA300"/>
</g>
<defs>
<clipPath id="clip0_1758_40913">
<rect width="37" height="37" fill="white" transform="translate(13 13)"/>
</clipPath>
</defs>
</svg>
