<svg width="43" height="43" viewBox="0 0 43 43" fill="none" xmlns="http://www.w3.org/2000/svg">
<g clip-path="url(#clip0_2231_4151)">
<path d="M3.19238 1.58357C2.68223 2.25643 2.39822 3.08413 2.39822 3.9699V39.0295C2.39822 39.8522 2.6441 40.6252 3.08818 41.2708L22.2018 21.373L3.19238 1.58357Z" fill="white" fill-opacity="0.6"/>
<path d="M23.9518 19.551L30.1525 13.096L8.35637 0.536713C7.41036 -0.00852975 6.32497 -0.137787 5.31223 0.146317L23.9518 19.551Z" fill="white" fill-opacity="0.6"/>
<path d="M23.9518 23.1948L5.12387 42.7953C5.52982 42.9315 5.94991 43 6.37032 43C7.05239 43 7.73478 42.8209 8.35637 42.4626L30.3093 29.8128L23.9518 23.1948Z" fill="white" fill-opacity="0.6"/>
<path d="M38.7781 18.0665L32.4058 14.3945L25.7022 21.3727L32.5623 28.5147L38.7781 24.9329C40.0219 24.2164 40.7645 22.9327 40.7645 21.4997C40.7645 20.0664 40.0219 18.783 38.7781 18.0665Z" fill="white" fill-opacity="0.6"/>
</g>
<defs>
<clipPath id="clip0_2231_4151">
<rect width="43" height="43" fill="white"/>
</clipPath>
</defs>
</svg>
