<svg width="24" height="24" viewBox="0 0 24 24" fill="none" xmlns="http://www.w3.org/2000/svg">
<g clip-path="url(#clip0_601_2039)">
<path d="M1.72242 0.883789C1.44717 1.25934 1.29395 1.72131 1.29395 2.2157V21.7838C1.29395 22.2431 1.4266 22.6744 1.6662 23.0348L11.9786 11.9291L1.72242 0.883789Z" fill="#0033B6"/>
<path d="M12.9229 10.9122L16.2684 7.3094L4.50863 0.299575C3.99823 -0.00474642 3.41262 -0.07689 2.86621 0.0816794L12.9229 10.9122Z" fill="#0033B6"/>
<path d="M12.9227 12.9458L2.7644 23.8856C2.98343 23.9616 3.21008 23.9999 3.43691 23.9999C3.80491 23.9999 4.17308 23.8999 4.50845 23.7L16.3528 16.6396L12.9227 12.9458Z" fill="#0033B6"/>
<path d="M20.9221 10.0837L17.484 8.03418L13.8672 11.929L17.5684 15.9152L20.9221 13.9161C21.5932 13.5162 21.9938 12.7997 21.9938 11.9999C21.9938 11.1999 21.5932 10.4836 20.9221 10.0837Z" fill="#0033B6"/>
</g>
<defs>
<clipPath id="clip0_601_2039">
<rect width="23.2" height="24" fill="white"/>
</clipPath>
</defs>
</svg>
