<svg width="74" height="74" viewBox="0 0 74 74" fill="none" xmlns="http://www.w3.org/2000/svg">
<path d="M37 74C57.4345 74 74 57.4345 74 37C74 16.5655 57.4345 0 37 0C16.5655 0 0 16.5655 0 37C0 57.4345 16.5655 74 37 74Z" fill="white"/>
<path d="M73.9986 37.2986L64.2022 27.5023L59.7044 30.4432L36.9999 7.73853L31.9343 35.7997L9.79736 27.5023L29.7035 47.4085L20.1879 59.4809L34.6325 73.9255C35.4152 73.9747 36.2047 73.9999 36.9999 73.9999C57.3347 73.9999 73.8381 57.5956 73.9986 37.2986V37.2986Z" fill="black" fill-opacity="0.3"/>
<path d="M36.9999 7.73853L45.406 24.771L64.2024 27.5023L50.6011 40.7602L53.8119 59.4807L36.9999 50.6421L20.1879 59.4807L23.3986 40.7602L9.79736 27.5023L28.5938 24.771L36.9999 7.73853Z" fill="#6993FF"/>
<path d="M37 50.6474V50.6421L53.812 59.4807L50.6013 40.7602L64.2025 27.5023L45.4061 24.771L37 7.73853V50.6474Z" fill="#5383FF"/>
<path d="M37 7.73853V34.5697L64.2025 27.5023L45.4061 24.771L37 7.73853Z" fill="#2562FF"/>
<path d="M53.812 59.4808L37 34.5698L20.188 59.4808L37 50.6421L53.812 59.4808Z" fill="#4277FF"/>
<path d="M53.812 59.4808L37 34.5698V34.5849V50.6475V50.6421L53.812 59.4808Z" fill="#2562FF"/>
<path d="M28.5938 24.771L9.79736 27.5023L36.9999 34.5697V7.73853" fill="#A9C1FF"/>
</svg>
