<svg width="122" height="122" viewBox="0 0 122 122" fill="none" xmlns="http://www.w3.org/2000/svg">
<rect x="0.5" y="0.5" width="121" height="121" rx="19.5" fill="#D9D9D9" fill-opacity="0.01" stroke="white"/>
<path d="M97.0386 56.6797C97.7901 56.6797 98.3989 56.0707 98.3989 55.3193V25.7393C98.3989 20.9208 94.4788 17.0005 89.6601 17.0005C86.5506 17.0005 36.0168 17 33.2846 17C27.9452 17 23.6011 21.3439 23.6011 26.6835V105.248C23.6011 107.317 25.2842 109 27.3533 109H79.7992C81.868 109 83.5513 107.317 83.5513 105.248V80.7646H95.0121C96.8798 80.7646 98.3992 79.2452 98.3992 77.3777V60.7606C98.3992 60.0091 97.7903 59.4001 97.039 59.4001C96.2875 59.4001 95.6786 60.0091 95.6786 60.7606V77.3777C95.6786 77.745 95.3796 78.044 95.0121 78.044H83.5513C83.5509 75.8529 83.5445 29.7289 83.5439 25.7395C83.5439 22.8391 85.6067 20.4114 88.3421 19.8457C92.2185 19.0466 95.6786 21.9711 95.6786 25.7395V55.3194C95.6782 56.0705 96.2874 56.6797 97.0386 56.6797ZM81.5041 22.3576C80.5112 24.7151 80.826 23.5703 80.8229 79.4042C80.8229 79.4346 80.8303 105.217 80.8303 105.248C80.8303 105.817 80.3676 106.279 79.7989 106.279H27.3531C26.7842 106.279 26.3217 105.817 26.3217 105.248V26.6835C26.3217 22.8442 29.4452 19.7206 33.2846 19.7206H83.2284C82.5283 20.4572 81.9215 21.3673 81.5041 22.3576Z" fill="white"/>
<path d="M37.157 28.2634C34.604 28.2634 32.5269 30.3404 32.5269 32.8934C32.5269 35.4464 34.604 37.5234 37.157 37.5234C39.71 37.5234 41.7871 35.4464 41.7871 32.8934C41.7871 30.3404 39.71 28.2634 37.157 28.2634ZM37.157 34.8027C36.1043 34.8027 35.2477 33.9462 35.2477 32.8934C35.2477 31.8406 36.1041 30.984 37.157 30.984C38.21 30.984 39.0664 31.8406 39.0664 32.8934C39.0664 33.9462 38.2097 34.8027 37.157 34.8027Z" fill="white"/>
<path d="M50.3948 31.5331H47.7818C47.0303 31.5331 46.4214 32.1421 46.4214 32.8936C46.4214 33.645 47.0303 34.254 47.7818 34.254H50.3948C51.1463 34.254 51.7552 33.645 51.7552 32.8936C51.7552 32.1419 51.1463 31.5331 50.3948 31.5331Z" fill="white"/>
<path d="M74.3371 31.5331H55.8365C55.085 31.5331 54.4761 32.1421 54.4761 32.8936C54.4761 33.645 55.085 34.254 55.8363 34.254H74.3368C75.0882 34.254 75.6972 33.645 75.6972 32.8936C75.6973 32.1419 75.0886 31.5331 74.3371 31.5331Z" fill="white"/>
<path d="M37.1569 43.4142C34.6039 43.4142 32.5269 45.4913 32.5269 48.0443C32.5269 50.5973 34.6039 52.6743 37.1569 52.6743C39.7099 52.6743 41.7869 50.5973 41.7869 48.0443C41.7869 45.4913 39.7099 43.4142 37.1569 43.4142ZM37.1569 49.9538C36.1039 49.9538 35.2475 49.0972 35.2475 48.0444C35.2475 46.9916 36.1041 46.1351 37.1569 46.1351C38.2097 46.1351 39.0662 46.9916 39.0662 48.0444C39.0662 49.0972 38.2095 49.9538 37.1569 49.9538Z" fill="white"/>
<path d="M74.3367 46.6838H47.7818C47.0303 46.6838 46.4214 47.2928 46.4214 48.0441C46.4214 48.7955 47.0303 49.4045 47.7818 49.4045H74.3367C75.0882 49.4045 75.6972 48.7955 75.6972 48.0441C75.697 47.2928 75.0882 46.6838 74.3367 46.6838Z" fill="white"/>
<path d="M37.1569 58.5649C34.6039 58.5649 32.5269 60.6419 32.5269 63.1949C32.5269 65.7479 34.6039 67.825 37.1569 67.825C39.7099 67.825 41.7869 65.7479 41.7869 63.1949C41.7869 60.6419 39.7099 58.5649 37.1569 58.5649ZM37.1569 65.1047C36.1039 65.1047 35.2475 64.2481 35.2475 63.1953C35.2475 62.1425 36.1041 61.286 37.1569 61.286C38.2097 61.286 39.0662 62.1425 39.0662 63.1953C39.0662 64.2481 38.2095 65.1047 37.1569 65.1047Z" fill="white"/>
<path d="M74.3369 61.8347H71.7237C70.9722 61.8347 70.3633 62.4437 70.3633 63.1951C70.3633 63.9466 70.9722 64.5554 71.7237 64.5554H74.3369C75.0883 64.5554 75.6973 63.9464 75.6973 63.1951C75.6971 62.4437 75.0883 61.8347 74.3369 61.8347Z" fill="white"/>
<path d="M66.2822 61.8347H47.7818C47.0303 61.8347 46.4214 62.4437 46.4214 63.1951C46.4214 63.9466 47.0303 64.5554 47.7818 64.5554H66.2822C67.0337 64.5554 67.6425 63.9464 67.6425 63.1951C67.6425 62.4437 67.0337 61.8347 66.2822 61.8347Z" fill="white"/>
<path d="M37.1569 73.4973C34.6039 73.4973 32.5269 75.5744 32.5269 78.1274C32.5269 80.6804 34.6039 82.7574 37.1569 82.7574C39.7099 82.7574 41.7869 80.6804 41.7869 78.1274C41.7869 75.5744 39.7099 73.4973 37.1569 73.4973ZM37.1569 80.0369C36.1039 80.0369 35.2475 79.1803 35.2475 78.1275C35.2475 77.0747 36.1041 76.2182 37.1569 76.2182C38.2097 76.2182 39.0662 77.0747 39.0662 78.1275C39.0662 79.1803 38.2095 80.0369 37.1569 80.0369Z" fill="white"/>
<path d="M74.3367 76.7671H47.7818C47.0303 76.7671 46.4214 77.3761 46.4214 78.1275C46.4214 78.879 47.0303 79.4879 47.7818 79.4879H74.3367C75.0882 79.4879 75.6972 78.879 75.6972 78.1275C75.6972 77.3761 75.0882 76.7671 74.3367 76.7671Z" fill="white"/>
<path d="M37.1569 88.6482C34.6039 88.6482 32.5269 90.7252 32.5269 93.2782C32.5269 95.8312 34.6039 97.9082 37.1569 97.9082C39.7099 97.9082 41.7869 95.8312 41.7869 93.2782C41.7869 90.7251 39.7099 88.6482 37.1569 88.6482ZM37.1569 95.1878C36.1039 95.1878 35.2475 94.3312 35.2475 93.2784C35.2475 92.2256 36.1041 91.3691 37.1569 91.3691C38.2097 91.3691 39.0662 92.2256 39.0662 93.2784C39.0662 94.331 38.2095 95.1878 37.1569 95.1878Z" fill="white"/>
<path d="M74.3367 91.918H47.7818C47.0303 91.918 46.4214 92.527 46.4214 93.2784C46.4214 94.0299 47.0303 94.6389 47.7818 94.6389H74.3367C75.0882 94.6389 75.6972 94.0299 75.6972 93.2784C75.697 92.527 75.0882 91.918 74.3367 91.918Z" fill="white"/>
</svg>
