<svg width="122" height="122" viewBox="0 0 122 122" fill="none" xmlns="http://www.w3.org/2000/svg">
<rect x="0.5" y="0.5" width="121" height="121" rx="19.5" fill="#D9D9D9" fill-opacity="0.01" stroke="white"/>
<g clip-path="url(#clip0_970_8357)">
<path d="M105.629 54.2364L90.3984 34.2335C89.8346 33.4937 88.8064 33.3112 88.0267 33.8124L78.193 40.1352H65.3677C65.2017 40.1352 65.0365 40.171 64.8768 40.218L54.9327 43.1119L44.6144 40.2587L34.5884 33.8124C33.8219 33.3197 32.8124 33.4867 32.2424 34.2013L15.3958 55.2977C14.7904 56.0558 14.8904 57.1627 15.6208 57.7979L24.4506 65.4802L32.3723 76.2727C30.0555 78.768 30.1006 82.7036 32.5111 85.1413C33.5796 86.2208 34.9383 86.8308 36.3359 86.9725C36.2873 87.2926 36.2623 87.6176 36.2623 87.9475C36.2623 89.6503 36.9184 91.2514 38.109 92.4551C39.3004 93.6596 40.8841 94.3229 42.5684 94.3229C42.5913 94.3229 42.6135 94.3215 42.6357 94.3208C42.635 94.3643 42.6329 94.4071 42.6329 94.4506C42.6329 96.1535 43.289 97.7545 44.4797 98.959C45.6711 100.163 47.2547 100.826 48.939 100.826C49.2716 100.826 49.6007 100.799 49.9235 100.748C50.0603 102.166 50.665 103.546 51.737 104.63C52.9658 105.873 54.5807 106.494 56.1956 106.494C57.8105 106.494 59.4254 105.873 60.6549 104.63L61.6193 103.655L62.024 103.985C63.2432 105.179 64.8261 105.775 66.4091 105.775C68.024 105.775 69.6389 105.154 70.8677 103.911C72.1223 102.643 72.7367 100.969 72.711 99.3029C74.3578 99.3282 76.0144 98.7077 77.2689 97.44C78.5221 96.1724 79.1365 94.4998 79.1122 92.8349C80.8278 92.8622 82.4552 92.1961 83.6695 90.9685C84.924 89.7001 85.5385 88.0261 85.5128 86.3605C87.161 86.3858 88.8161 85.7653 90.0707 84.4969C92.2118 82.3323 92.4875 78.9863 90.8996 76.5163L96.6836 64.2694L105.379 56.7043C106.098 56.0789 106.208 54.9952 105.629 54.2364V54.2364ZM34.0177 37.7213L41.227 42.356L25.5441 61.6724L19.2595 56.2039L34.0177 37.7213ZM35.0348 78.676L37.2107 76.4763C37.2766 76.4096 37.346 76.3464 37.4169 76.2875C37.8424 75.9365 38.3576 75.7273 38.9033 75.6775C38.9186 75.6761 38.9345 75.6761 38.9498 75.6754C39.0276 75.6691 39.1053 75.6649 39.1838 75.6656C39.9294 75.6761 40.6223 75.9842 41.1361 76.5324C42.1442 77.6098 42.09 79.3702 41.0153 80.4568L38.9054 82.5899C37.8383 83.6687 36.1019 83.6687 35.0348 82.5899C33.9677 81.5103 33.9677 79.7549 35.0348 78.676ZM40.6327 89.9037C40.1155 89.3815 39.8309 88.6866 39.8309 87.9475C39.8309 87.2084 40.1155 86.5135 40.6327 85.9906L44.8518 81.7251C45.66 80.9081 46.9305 80.6842 47.9636 81.1818C49.0286 81.6949 49.6278 82.8636 49.4716 84.0393C49.3882 84.6668 49.0994 85.2578 48.6565 85.7063L44.504 89.9037C43.9868 90.4266 43.2994 90.7144 42.5684 90.7144C41.8373 90.7144 41.15 90.4266 40.6327 89.9037ZM47.0034 96.4068C46.4862 95.8846 46.2015 95.1897 46.2015 94.4506C46.2015 93.7115 46.4862 93.0166 47.0034 92.4937L51.2218 88.2283C52.0862 87.3551 53.4727 87.167 54.5307 87.7896C55.4972 88.3581 56.0033 89.4741 55.8374 90.5859C55.7464 91.1973 55.459 91.7722 55.0264 92.2095L50.8747 96.4068C50.3574 96.9298 49.6701 97.2175 48.939 97.2175C48.208 97.2175 47.5206 96.9298 47.0034 96.4068ZM54.26 102.078C53.1929 100.999 53.1929 99.2439 54.26 98.1651L56.4358 95.9653C56.5018 95.8987 56.5705 95.8362 56.6413 95.7772C56.6434 95.7758 56.6448 95.7744 56.6462 95.773C57.0003 95.4824 57.4161 95.288 57.8598 95.2031C57.8702 95.2017 57.8806 95.2003 57.891 95.1989C57.9674 95.1848 58.0452 95.1736 58.1229 95.1666C58.1542 95.1638 58.1854 95.1638 58.2173 95.1617C58.2812 95.1582 58.3444 95.1539 58.409 95.1546C59.1539 95.1652 59.8475 95.4726 60.3613 96.0215C60.4244 96.0889 60.4835 96.1591 60.5376 96.2314C61.3582 97.3158 61.2478 98.9267 60.2293 99.9571L58.1306 102.079C57.0635 103.158 55.3271 103.157 54.26 102.078V102.078ZM87.547 81.9455C86.4799 83.025 84.7435 83.0243 83.6764 81.9455C83.6375 81.9062 83.5966 81.8697 83.5549 81.8353L72.0813 70.1135C71.3877 69.4053 70.2582 69.3997 69.5576 70.1009C68.8571 70.8014 68.8515 71.9434 69.5444 72.6516L81.1423 84.499C81.1437 84.5004 81.1451 84.5018 81.1465 84.5032C82.2136 85.5821 82.2136 87.3382 81.1465 88.4171C80.6292 88.94 79.9419 89.2278 79.2108 89.2278C78.4791 89.2278 77.7917 88.94 77.2752 88.4171L69.5167 80.4919C68.8238 79.7836 67.6942 79.778 66.9937 80.4785C66.2931 81.1797 66.2876 82.3217 66.9805 83.0299L74.6203 90.8337C74.6592 90.8829 74.7008 90.9299 74.7453 90.9748C75.8124 92.0536 75.8124 93.8098 74.7453 94.8886C73.6775 95.9675 71.9404 95.9667 70.8733 94.8879L66.6389 90.5621C65.9453 89.8539 64.8157 89.8475 64.1152 90.5487C63.4147 91.2492 63.4091 92.3912 64.102 93.0995L68.2184 97.3039C68.2572 97.353 68.2989 97.4007 68.344 97.4457C69.4111 98.5245 69.4111 100.281 68.344 101.359C67.2769 102.439 65.5406 102.438 64.4735 101.359C64.3506 101.235 64.2062 101.14 64.0687 101.033C63.9521 100.943 63.9215 100.881 63.9798 100.738C64.0388 100.592 64.127 100.461 64.186 100.315C64.2513 100.152 64.304 99.9845 64.3554 99.816C64.629 98.9246 64.7095 97.9658 64.5866 97.0407C64.3506 95.2655 63.3848 93.6638 61.9213 92.6503C61.1305 92.1035 60.2155 91.7448 59.2671 91.61C59.7267 89.5605 59.1747 87.3382 57.739 85.8046C56.5573 84.5426 54.9612 83.8343 53.2442 83.8105C53.1818 83.8098 53.1193 83.8098 53.0561 83.8105C53.0943 82.154 52.4986 80.508 51.369 79.3014C50.1867 78.0394 48.5905 77.3312 46.8743 77.3073C46.364 77.3003 45.8488 77.355 45.3517 77.4709C45.1393 75.9765 44.3943 74.5938 43.2661 73.6048C42.1449 72.6235 40.7348 72.0788 39.2331 72.0578C37.6522 72.0346 36.0991 72.6242 34.9251 73.696L28.0275 64.2996L44.529 43.9753L49.7881 45.4296L42.9197 57.6828C42.0893 59.1645 41.8797 60.8842 42.3289 62.5252C42.778 64.167 43.832 65.5329 45.2976 66.3723C45.3892 66.425 45.4816 66.4748 45.5753 66.5226C45.5822 66.5261 45.5892 66.5296 45.5968 66.5331C45.8433 66.6573 46.0967 66.764 46.3536 66.8539C47.5498 67.2729 48.8418 67.3185 50.0881 66.9704C51.7113 66.5162 53.0623 65.45 53.8927 63.969L58.3562 56.0059L66.3258 56.5773L87.5477 78.0317C88.6141 79.1112 88.6141 80.8667 87.547 81.9455V81.9455ZM88.2864 73.6764L68.3781 53.55C68.3406 53.5114 68.301 53.4749 68.26 53.4405C67.9733 53.199 67.6178 53.053 67.2429 53.0263L57.4849 52.3265C56.81 52.2795 56.1394 52.6424 55.8061 53.2369L50.7879 62.1904C50.4276 62.8333 49.8409 63.2959 49.1362 63.4931C48.4322 63.6904 47.6935 63.5977 47.0569 63.2334C46.4209 62.8691 45.9634 62.276 45.7683 61.5636C45.5732 60.8512 45.6642 60.1043 46.0252 59.4614L52.7242 47.5087L55.4388 46.719C55.4569 46.7134 55.4743 46.7064 55.4923 46.7008L65.6239 43.7429H77.8653L93.1477 63.3836L88.2864 73.6764ZM95.4853 60.5522L81.3527 42.3791L88.5655 37.7417L101.771 55.0836L95.4853 60.5522Z" fill="white"/>
<path d="M70.1305 36.7478C70.5873 36.7478 71.0441 36.5716 71.3927 36.2192L83.5814 23.8966C84.2784 23.1919 84.2784 22.0499 83.5814 21.3452C82.8843 20.6405 81.7547 20.6405 81.0577 21.3452L68.869 33.6678C68.1719 34.3725 68.1719 35.5145 68.869 36.2192C69.2175 36.5716 69.6743 36.7478 70.1305 36.7478Z" fill="white"/>
<path d="M49.6075 36.2192C49.956 36.5716 50.4128 36.7478 50.8697 36.7478C51.3258 36.7478 51.7826 36.5716 52.1312 36.2192C52.8282 35.5145 52.8282 34.3725 52.1312 33.6678L39.9425 21.3452C39.2454 20.6405 38.1158 20.6405 37.4188 21.3452C36.7217 22.0499 36.7217 23.1919 37.4188 23.8966L49.6075 36.2192Z" fill="white"/>
<path d="M60.5001 36.7478C61.4853 36.7478 62.2844 35.9399 62.2844 34.9439V24.7459C62.2844 23.7499 61.4853 22.942 60.5001 22.942C59.5149 22.942 58.7158 23.7499 58.7158 24.7459V34.9439C58.7158 35.9399 59.5149 36.7478 60.5001 36.7478Z" fill="white"/>
<path d="M58.8532 18.2077C59.1364 18.9019 59.8425 19.3574 60.5875 19.3181C61.3234 19.2795 61.9698 18.7769 62.1975 18.0687C62.4259 17.3549 62.1774 16.5414 61.5858 16.0865C60.9825 15.6219 60.141 15.5959 59.5099 16.0177C58.806 16.488 58.5331 17.4244 58.8532 18.2077Z" fill="white"/>
</g>
<defs>
<clipPath id="clip0_970_8357">
<rect width="91" height="92" fill="white" transform="translate(15 15)"/>
</clipPath>
</defs>
</svg>
