<svg width="61" height="61" viewBox="0 0 61 61" fill="none" xmlns="http://www.w3.org/2000/svg">
<rect x="0.5" y="0.5" width="60" height="60" rx="14.5" fill="#FFA300" fill-opacity="0.05" stroke="#FFA300"/>
<path d="M35.9062 23.8125C35.9062 27.3449 38.7801 30.2188 42.3125 30.2188C45.8449 30.2188 48.7188 27.3449 48.7188 23.8125C48.7188 20.2801 45.8449 17.4062 42.3125 17.4062C38.7801 17.4062 35.9062 20.2801 35.9062 23.8125ZM47.4375 23.8125C47.4375 26.6383 45.1383 28.9375 42.3125 28.9375C39.4867 28.9375 37.1875 26.6383 37.1875 23.8125C37.1875 20.9867 39.4867 18.6875 42.3125 18.6875C45.1383 18.6875 47.4375 20.9867 47.4375 23.8125Z" fill="#FFA300"/>
<path d="M16.6875 30.2188C20.2199 30.2188 23.0938 27.3449 23.0938 23.8125C23.0938 20.2801 20.2199 17.4062 16.6875 17.4062C13.1551 17.4062 10.2812 20.2801 10.2812 23.8125C10.2812 27.3449 13.1551 30.2188 16.6875 30.2188ZM16.6875 18.6875C19.5133 18.6875 21.8125 20.9867 21.8125 23.8125C21.8125 26.6383 19.5133 28.9375 16.6875 28.9375C13.8617 28.9375 11.5625 26.6383 11.5625 23.8125C11.5625 20.9867 13.8617 18.6875 16.6875 18.6875Z" fill="#FFA300"/>
<path d="M14.125 23.8125V26.375C14.125 26.7286 14.4114 27.0156 14.7657 27.0156H18.6094C18.9637 27.0156 19.25 26.7286 19.25 26.375V23.8125H19.8907C20.1629 23.8125 20.4051 23.6408 20.4948 23.3839C20.5845 23.127 20.5031 22.8413 20.2911 22.6715L17.0879 20.109C16.8541 19.922 16.521 19.922 16.2871 20.109L13.084 22.6715C12.872 22.8413 12.79 23.127 12.8803 23.3839C12.9706 23.6408 13.2121 23.8125 13.4844 23.8125H14.125ZM17.9688 25.7344H15.4063V23.8125H17.9688V25.7344ZM16.6875 21.43L18.0642 22.5312H15.3108L16.6875 21.43Z" fill="#FFA300"/>
<path d="M29.5 19.9688C29.1464 19.9688 28.8594 19.6811 28.8594 19.3281H27.5781C27.5781 20.1622 28.1156 20.8669 28.8594 21.1321V21.8906H30.1406V21.1321C30.8844 20.8669 31.4219 20.1622 31.4219 19.3281C31.4219 18.2685 30.5596 17.4062 29.5 17.4062C29.1464 17.4062 28.8594 17.1186 28.8594 16.7656C28.8594 16.4126 29.1464 16.125 29.5 16.125C29.8536 16.125 30.1406 16.4126 30.1406 16.7656H31.4219C31.4219 15.9315 30.8844 15.2268 30.1406 14.9616V14.2031H28.8594V14.9616C28.1156 15.2268 27.5781 15.9315 27.5781 16.7656C27.5781 17.8252 28.4404 18.6875 29.5 18.6875C29.8536 18.6875 30.1406 18.9751 30.1406 19.3281C30.1406 19.6811 29.8536 19.9688 29.5 19.9688Z" fill="#FFA300"/>
<path d="M29.5 23.8125C32.6794 23.8125 35.2656 21.2257 35.2656 18.0469C35.2656 14.8681 32.6794 12.2812 29.5 12.2812C26.3206 12.2812 23.7344 14.8681 23.7344 18.0469C23.7344 21.2257 26.3206 23.8125 29.5 23.8125ZM29.5 13.5625C31.9722 13.5625 33.9844 15.5741 33.9844 18.0469C33.9844 20.5197 31.9722 22.5312 29.5 22.5312C27.0278 22.5312 25.0156 20.5197 25.0156 18.0469C25.0156 15.5741 27.0278 13.5625 29.5 13.5625Z" fill="#FFA300"/>
<path d="M40.3906 20.6094V21.8906H39.1094C38.7551 21.8906 38.4688 22.1776 38.4688 22.5312V25.0938C38.4688 25.4474 38.7551 25.7344 39.1094 25.7344H40.3906V27.0156C40.3906 27.3692 40.677 27.6562 41.0312 27.6562H43.5938C43.948 27.6562 44.2344 27.3692 44.2344 27.0156V25.7344H45.5156C45.8699 25.7344 46.1562 25.4474 46.1562 25.0938V22.5312C46.1562 22.1776 45.8699 21.8906 45.5156 21.8906H44.2344V20.6094C44.2344 20.2558 43.948 19.9688 43.5938 19.9688H41.0312C40.677 19.9688 40.3906 20.2558 40.3906 20.6094ZM41.6719 22.5312V21.25H42.9531V22.5312C42.9531 22.8849 43.2395 23.1719 43.5938 23.1719H44.875V24.4531H43.5938C43.2395 24.4531 42.9531 24.7401 42.9531 25.0938V26.375H41.6719V25.0938C41.6719 24.7401 41.3855 24.4531 41.0312 24.4531H39.75V23.1719H41.0312C41.3855 23.1719 41.6719 22.8849 41.6719 22.5312Z" fill="#FFA300"/>
<path d="M48.6867 38.7743C48.5938 38.2804 48.3126 37.855 47.8949 37.5763C47.1165 37.0574 46.0704 37.2028 45.4631 37.9114L45.2728 38.133L45.3164 37.8704C45.3945 37.3995 45.2626 36.921 44.9544 36.5565C44.6463 36.1932 44.1953 35.9844 43.718 35.9844C42.9736 35.9844 42.3272 36.4892 42.1459 37.2125L41.7077 38.9639L40.0645 42.2503L39.0165 42.6001L39.3054 42.1004C39.5924 41.5258 39.5623 40.8563 39.224 40.3099C38.8864 39.7634 38.3015 39.4373 37.659 39.4373C37.0626 39.4373 36.5014 39.7282 36.1561 40.2144C33.9357 43.3522 33.8351 43.4944 33.8357 43.4944C33.8357 43.4944 33.8357 43.4944 33.8357 43.4938C32.475 45.4086 32.575 47.6072 32.6717 49.7328C32.6864 50.0685 32.7025 50.4036 32.7114 50.7367L33.9927 50.7015C33.9831 50.3613 33.9677 50.0185 33.9523 49.6745C33.8614 47.6771 33.7762 45.7911 34.8825 44.2337L37.2022 40.9543C37.3073 40.8064 37.4783 40.718 37.6596 40.718C37.9409 40.718 38.0863 40.9037 38.1356 40.9832C38.1843 41.0633 38.2855 41.2759 38.1779 41.4931L36.805 43.8673C36.6365 44.1594 36.5469 44.4919 36.5469 44.8295V45.5937H37.8281V44.8295C37.8281 44.7174 37.8582 44.6059 37.9146 44.5092L38.0504 44.2734L40.9435 43.308L40.964 43.3183L40.9742 43.2977L42.7199 42.7148C43.0242 42.6007 43.2952 42.4105 43.504 42.1664L46.4355 38.7467C46.6232 38.5283 46.9448 38.4841 47.1844 38.643C47.3132 38.7288 47.3997 38.8595 47.4279 39.0113C47.4567 39.1632 47.4234 39.3163 47.3343 39.4431L43.6482 44.7097C43.6194 44.7507 43.5848 44.7891 43.5463 44.8231L41.0088 47.0435C40.839 47.1915 40.643 47.3446 40.4367 47.5054C39.4553 48.2728 38.233 49.228 38.3361 50.6579L39.6135 50.5656C39.5597 49.8174 40.4451 49.1249 41.2266 48.5144C41.4521 48.3382 41.6667 48.1697 41.8525 48.007L44.3913 45.7859C44.5092 45.6828 44.613 45.5668 44.6988 45.4426L48.3843 40.1779C48.672 39.766 48.7796 39.2676 48.6867 38.7743ZM42.5303 41.3336C42.4617 41.4143 42.3714 41.4771 42.2926 41.5072L41.7846 41.677L42.8858 39.4745C42.9063 39.4329 42.923 39.3887 42.9339 39.3432L43.3887 37.5238C43.4265 37.372 43.5623 37.2656 43.718 37.2656C43.8551 37.2656 43.939 37.3406 43.9768 37.3854C44.0146 37.4303 44.0748 37.5257 44.0524 37.6609L43.6604 40.0145L42.5303 41.3336Z" fill="#FFA300"/>
<path d="M14.3005 45.4413C14.3876 45.5668 14.4914 45.6828 14.6099 45.7872L17.1475 48.0076C17.3332 48.1703 17.5478 48.3388 17.7733 48.515C18.5549 49.1255 19.4403 49.8174 19.3864 50.5663L20.6638 50.6585C20.767 49.2293 19.5447 48.2735 18.5632 47.506C18.3576 47.3459 18.1609 47.1921 17.9912 47.0441L15.4549 44.825C15.4152 44.7898 15.3806 44.7513 15.3511 44.709L11.6656 39.4438C11.5766 39.3169 11.5439 39.1638 11.5721 39.0126C11.6003 38.8608 11.6868 38.7301 11.8155 38.6443C12.0558 38.4847 12.3774 38.5296 12.5644 38.7474L15.4946 42.1664C15.7041 42.4124 15.9758 42.6027 16.3018 42.7244L18.0258 43.2997L18.036 43.3195L18.0559 43.3093L20.9489 44.2747L21.0854 44.5105C21.1418 44.6078 21.1719 44.7187 21.1719 44.8308V45.5938H22.4531V44.8295C22.4531 44.4925 22.3634 44.16 22.1956 43.8679L20.8413 41.5283C20.7157 41.2766 20.817 41.0639 20.8656 40.9838C20.915 40.9037 21.0604 40.7186 21.3416 40.7186C21.5229 40.7186 21.694 40.807 21.7984 40.955L24.12 44.2363C25.2257 45.7917 25.1399 47.6783 25.0489 49.6752C25.0335 50.0192 25.0175 50.3619 25.0086 50.7021L26.2898 50.7373C26.2988 50.4042 26.3142 50.0698 26.3295 49.7335C26.4256 47.6079 26.5262 45.4093 25.1758 43.5098C25.17 43.5015 25.17 43.5015 22.8439 40.2144C22.4992 39.7282 21.938 39.4373 21.3416 39.4373C20.6991 39.4373 20.1142 39.7634 19.7766 40.3099C19.4383 40.8563 19.4082 41.5258 19.7132 42.135L19.9822 42.6001L18.9354 42.251L17.2922 38.9646L16.854 37.2125C16.6728 36.4892 16.0264 35.9844 15.282 35.9844C14.8047 35.9844 14.3543 36.1932 14.0455 36.5571C13.7374 36.9216 13.6048 37.4002 13.6836 37.8717L13.7272 38.1337L13.5369 37.912C12.9296 37.2035 11.8841 37.0581 11.1051 37.577C10.6874 37.8556 10.4055 38.281 10.3133 38.7749C10.221 39.2689 10.328 39.7666 10.6163 40.1779L14.3005 45.4413ZM14.9469 37.6609C14.9245 37.5257 14.9853 37.4303 15.0225 37.3854C15.0609 37.3406 15.1449 37.2656 15.282 37.2656C15.4376 37.2656 15.5734 37.372 15.6119 37.5225L16.0667 39.3425C16.0783 39.388 16.0943 39.4322 16.1148 39.4739L17.216 41.677L16.7298 41.5149C16.6292 41.4771 16.5389 41.4143 16.469 41.3323L15.3396 40.0145L14.9469 37.6609Z" fill="#FFA300"/>
<path d="M25.0156 41.1094H33.9844C34.3386 41.1094 34.625 40.8224 34.625 40.4688V35.9844C34.625 34.1592 33.527 32.5878 31.9587 31.8889C32.8043 31.1829 33.3438 30.1227 33.3438 28.9375C33.3438 26.8177 31.6198 25.0938 29.5 25.0938C27.3802 25.0938 25.6562 26.8177 25.6562 28.9375C25.6562 30.1227 26.1957 31.1829 27.0413 31.8889C25.473 32.5878 24.375 34.1592 24.375 35.9844V40.4688C24.375 40.8224 24.6614 41.1094 25.0156 41.1094ZM29.5 33.8652L30.0791 35.3143L29.5 36.4738L28.9209 35.3143L29.5 33.8652ZM29.5 31.5C28.1457 31.5 27.0451 30.441 26.9548 29.1092C27.7095 28.5858 28.5794 28.2969 29.5 28.2969C30.4206 28.2969 31.2905 28.5858 32.0452 29.1092C31.9549 30.441 30.8543 31.5 29.5 31.5ZM29.5 26.375C30.327 26.375 31.0561 26.7754 31.525 27.3853C30.8837 27.1437 30.2028 27.0156 29.5 27.0156C28.7972 27.0156 28.1163 27.1437 27.475 27.3853C27.9439 26.7754 28.673 26.375 29.5 26.375ZM25.6562 35.9844C25.6562 34.3277 26.926 32.976 28.541 32.8133L27.6243 35.1054C27.557 35.2758 27.564 35.4661 27.646 35.6301L28.9273 38.1926C29.0355 38.4098 29.2572 38.5469 29.5 38.5469C29.7428 38.5469 29.9645 38.4098 30.0734 38.1926L31.3546 35.6301C31.4366 35.4667 31.4443 35.2758 31.3764 35.1054L30.4597 32.8133C32.074 32.976 33.3438 34.3277 33.3438 35.9844V39.8281H25.6562V35.9844Z" fill="#FFA300"/>
</svg>
