<svg width="61" height="61" viewBox="0 0 61 61" fill="none" xmlns="http://www.w3.org/2000/svg">
<rect x="0.5" y="0.5" width="60" height="60" rx="14.5" fill="#FFA300" fill-opacity="0.05" stroke="#FFA300"/>
<g clip-path="url(#clip0_1645_28825)">
<path d="M46.0885 38.0513C45.4356 37.0918 44.3281 36.8576 43.125 37.4237L42.4874 37.7045C43.4928 35.5614 43.6175 33.1724 43.117 30.9159C42.5422 28.3242 41.1537 25.8135 38.9903 23.4535C38.799 23.2448 38.4748 23.2307 38.266 23.4221C38.0573 23.6133 38.0432 23.9376 38.2346 24.1463C40.2748 26.3719 41.5808 28.7242 42.1162 31.1379C42.6801 33.6804 42.352 36.3024 40.913 38.3976L34.5322 41.2071L34.5374 40.4865C34.5376 40.4683 34.5368 40.4501 34.5349 40.432C34.3876 38.9509 33.2554 37.7708 31.7817 37.5623C31.7773 37.5616 31.7729 37.5611 31.7685 37.5606L26.0973 36.9076C23.9166 36.5972 23.3549 35.2904 20.4015 34.5452C20.1975 32.8136 20.4695 30.97 21.215 29.1218C22.3378 26.3384 24.5344 23.6341 27.5795 21.2802C28.7145 22.085 33.7781 22.1851 34.9112 21.147C35.4917 21.5879 36.0458 22.0422 36.5619 22.502C36.6596 22.5891 36.7814 22.6319 36.9027 22.6319C37.0438 22.6319 37.1844 22.574 37.2856 22.4603C37.4739 22.249 37.4552 21.9249 37.2439 21.7366C36.6781 21.2326 36.0696 20.7353 35.4313 20.2546C35.5809 19.6204 35.3716 18.8781 34.8192 18.4362C36.4242 16.0018 36.891 14.4084 36.2462 13.5736C35.8033 13.0001 35.2523 13.2693 35.017 13.3843C34.6182 13.5789 34.4008 13.5892 34.0338 13.3491C33.3338 12.891 32.5979 12.8763 31.8753 13.3491C31.5037 13.5923 31.2111 13.5923 30.8396 13.3491C30.1395 12.891 29.4039 12.8763 28.6812 13.3491C28.31 13.5921 28.0917 13.577 27.6992 13.3819C27.4642 13.2651 26.9138 12.9915 26.4681 13.5651C25.8377 14.3764 26.2595 15.9195 27.7562 18.2711C27.6645 18.3207 27.5772 18.3789 27.4956 18.4453C26.9003 17.8167 25.925 17.161 24.5147 17.3185C23.3448 17.4494 22.4822 17.0629 21.9644 16.7156C21.7293 16.5581 21.4109 16.6209 21.2532 16.8559C21.0956 17.091 21.1584 17.4095 21.3935 17.5671C22.0535 18.0096 23.1504 18.5022 24.6284 18.3374C25.718 18.2151 26.4574 18.772 26.9177 19.3387C26.9114 19.3606 26.9056 19.3826 26.9002 19.4046C26.5076 19.4107 25.9209 19.4474 25.2747 19.5818C23.7208 19.9051 22.5673 20.6435 21.9389 21.7176C21.7959 21.9619 21.8781 22.276 22.1224 22.419C22.3668 22.5619 22.6808 22.4797 22.8237 22.2354C23.7585 20.6379 26.0401 20.4425 26.9463 20.4303C26.9502 20.4415 26.9548 20.4527 26.9589 20.4639C23.725 22.9585 21.4735 25.7406 20.2643 28.7381C19.5001 30.6328 19.1948 32.531 19.3498 34.335C18.8582 34.2622 18.3609 34.2232 17.8613 34.2198V33.9098C17.8613 33.0895 17.194 32.4223 16.3737 32.4223H14.0205C13.2003 32.4223 12.533 33.0896 12.533 33.9098V45.8483C12.533 46.6686 13.2003 47.3359 14.0205 47.3359H16.3737C17.1939 47.3359 17.8612 46.6686 17.8612 45.8483V45.7023L22.9944 47.6129C23.6842 47.8696 24.4072 47.9998 25.1432 47.9998H32.7917C33.961 47.9998 35.1012 47.6689 36.0889 47.0431C46.2921 40.5749 45.6725 40.9774 45.7314 40.9252C46.5533 40.1956 46.7068 38.9601 46.0885 38.0513ZM33.9493 20.5396C32.0747 21.0129 30.2521 21.0129 28.3772 20.5396C27.5726 20.3362 27.8057 18.9013 28.6704 19.1182C30.3478 19.5393 31.9785 19.5393 33.6561 19.1182C34.5056 18.9049 34.7667 20.333 33.9493 20.5396ZM27.231 14.2942C27.235 14.2962 27.239 14.2982 27.2429 14.3001C27.9367 14.6449 28.5446 14.6637 29.2425 14.2071C30.1158 13.6354 30.2106 14.552 31.3574 14.552C31.9094 14.552 32.2141 14.3527 32.4365 14.2071C32.8082 13.9639 33.1009 13.964 33.4725 14.2071C34.1735 14.6658 34.7667 14.6432 35.4807 14.2988C35.5861 14.679 35.3474 15.8125 33.8274 18.0756C33.0726 18.0628 31.9772 18.8041 28.8763 18.114C27.3595 15.8217 27.125 14.6772 27.231 14.2942ZM45.0786 40.1333L35.5401 46.1775C34.7169 46.6991 33.7665 46.975 32.7917 46.975H25.1433C24.5298 46.975 23.9271 46.8664 23.3521 46.6524L17.8612 44.6086V39.0883C17.8612 38.8051 17.6317 38.5756 17.3487 38.5756C17.0656 38.5756 16.8361 38.8051 16.8361 39.0883V45.8486C16.8361 46.1036 16.6286 46.311 16.3737 46.311H14.0205C13.7655 46.311 13.5581 46.1035 13.5581 45.8486V33.91C13.5581 33.6551 13.7655 33.4477 14.0205 33.4477H16.3737C16.6286 33.4477 16.836 33.6551 16.836 33.91V36.6919C16.836 36.975 17.0655 37.2045 17.3486 37.2045C17.6317 37.2045 17.8612 36.975 17.8612 36.6919V35.2452C22.1016 35.2777 23.055 37.5127 25.9601 37.9236C25.9645 37.9243 25.9689 37.9249 25.9732 37.9253L31.6441 38.5782C32.6371 38.7216 33.4013 39.5123 33.5119 40.5078L33.5048 41.4829H28.2162C27.9331 41.4829 27.7035 41.7124 27.7035 41.9955C27.7035 42.2787 27.933 42.5082 28.2162 42.5082H34.0137C34.0784 42.5082 34.1532 42.4938 34.2183 42.4654C34.2287 42.4608 43.5331 38.3642 43.544 38.3594C44.2147 38.0614 44.8261 38.0188 45.2408 38.6281C45.5632 39.1017 45.4918 39.7419 45.0786 40.1333Z" fill="#FFA300"/>
<path d="M31.2984 36.2575C31.5814 36.2575 31.811 36.028 31.811 35.7449V34.8951C33.25 34.6616 34.0897 33.4969 34.2723 32.4102C34.5005 31.0528 33.7895 29.8723 32.461 29.4027C32.2263 29.3198 32.0103 29.2404 31.8109 29.1638V25.8954C32.4173 25.9959 32.7814 26.3098 32.8079 26.3332C33.0162 26.5226 33.3384 26.5085 33.5295 26.3014C33.7214 26.0933 33.7083 25.769 33.5002 25.5771C33.4641 25.5437 32.8362 24.9785 31.8109 24.8603V24.1313C31.8109 23.8481 31.5814 23.6187 31.2983 23.6187C31.0152 23.6187 30.7857 23.8481 30.7857 24.1313V24.9017C30.6621 24.9253 30.5355 24.9554 30.4055 24.9946C29.5359 25.2565 28.886 26.0021 28.7091 26.9403C28.5487 27.7917 28.8186 28.6105 29.4136 29.0771C29.7552 29.345 30.1851 29.5903 30.7857 29.8525V33.9063C30.1929 33.8812 29.828 33.77 29.1915 33.3535C28.9546 33.1986 28.6369 33.2648 28.4819 33.5018C28.3269 33.7387 28.3933 34.0564 28.6302 34.2114C29.467 34.7588 30.0264 34.9016 30.7857 34.9312V35.7449C30.7857 36.028 31.0152 36.2575 31.2984 36.2575ZM30.0463 28.2705C29.7536 28.041 29.6273 27.604 29.7166 27.1302C29.7994 26.6908 30.1015 26.1569 30.7012 25.9763C30.7297 25.9677 30.7577 25.9603 30.7857 25.9528V28.7217C30.4788 28.5684 30.2381 28.421 30.0463 28.2705ZM32.1194 30.3693C33.3949 30.8202 33.3159 31.9154 33.2613 32.2403C33.1482 32.9131 32.6544 33.6312 31.8109 33.8474V30.2583C31.9107 30.2948 32.0126 30.3316 32.1194 30.3693Z" fill="#FFA300"/>
</g>
<defs>
<clipPath id="clip0_1645_28825">
<rect width="35" height="35" fill="white" transform="translate(12 13)"/>
</clipPath>
</defs>
</svg>
