<svg width="61" height="61" viewBox="0 0 61 61" fill="none" xmlns="http://www.w3.org/2000/svg">
<rect x="0.5" y="0.5" width="60" height="60" rx="14.5" fill="#FFA300" fill-opacity="0.05" stroke="#FFA300"/>
<g clip-path="url(#clip0_1645_28848)">
<path d="M37.2714 30.8109C37.5869 30.8109 37.8426 30.5551 37.8426 30.2396V26.1139C37.8426 25.8758 37.6949 25.6626 37.472 25.579L30.7007 23.0398C30.5713 22.9913 30.4289 22.9913 30.2994 23.0398L23.5281 25.579C23.3052 25.6626 23.1575 25.8758 23.1575 26.1139V27.9481C23.1575 28.2636 23.4132 28.5194 23.7288 28.5194C24.0443 28.5194 24.3 28.2636 24.3 27.9481V26.9383L29.9288 29.049V36.6006L24.3 34.4899V30.6205C24.3 30.305 24.0443 30.0492 23.7288 30.0492C23.4132 30.0492 23.1575 30.305 23.1575 30.6205V34.8858C23.1575 35.1239 23.3052 35.3371 23.5281 35.4207L30.2994 37.9599C30.2995 37.9594 30.2997 37.9588 30.2997 37.9583C30.3641 37.9824 30.4317 37.9962 30.5001 37.9962C30.5677 37.9962 30.6356 37.9843 30.7007 37.9598L37.472 35.4206C37.6949 35.337 37.8426 35.1239 37.8426 34.8858V32.9024C37.8426 32.5869 37.5869 32.3311 37.2714 32.3311C36.9558 32.3311 36.7001 32.5869 36.7001 32.9024V34.4898L31.0713 36.6006V29.049L36.7001 26.9383V30.2396C36.7001 30.5552 36.9558 30.8109 37.2714 30.8109ZM30.5001 28.043L25.3559 26.114L30.5001 24.1848L35.6442 26.114L30.5001 28.043Z" fill="#FFA300"/>
<path d="M29.9287 16.7022V20.8048C29.9287 21.1203 30.1845 21.3761 30.5 21.3761C30.8156 21.3761 31.0713 21.1203 31.0713 20.8048V16.7022C32.3864 16.4365 33.3797 15.2719 33.3797 13.8797C33.3797 12.2918 32.0879 11 30.5 11C28.9122 11 27.6204 12.2918 27.6204 13.8797C27.6204 15.2719 28.6136 16.4365 29.9287 16.7022ZM30.5 12.1426C31.4578 12.1426 32.2371 12.9218 32.2371 13.8797C32.2371 14.8375 31.4578 15.6168 30.5 15.6168C29.5423 15.6168 28.7629 14.8375 28.7629 13.8797C28.7629 12.9218 29.5423 12.1426 30.5 12.1426Z" fill="#FFA300"/>
<path d="M41.4905 37.5336C40.6052 37.5336 39.7869 37.8259 39.127 38.319L37.7595 36.9515C37.5363 36.7284 37.1746 36.7284 36.9515 36.9515C36.7284 37.1746 36.7284 37.5364 36.9515 37.7594L38.3191 39.1269C37.826 39.7869 37.5337 40.6052 37.5337 41.4904C37.5337 43.6723 39.3088 45.4473 41.4906 45.4473C43.6724 45.4473 45.4475 43.6723 45.4475 41.4904C45.4475 39.3086 43.6724 37.5336 41.4905 37.5336ZM41.4905 44.3048C39.9387 44.3048 38.6762 43.0423 38.6762 41.4905C38.6762 39.9387 39.9387 38.6762 41.4905 38.6762C43.0424 38.6762 44.3048 39.9387 44.3048 41.4905C44.3048 43.0423 43.0424 44.3048 41.4905 44.3048Z" fill="#FFA300"/>
<path d="M19.5093 23.4665C20.3947 23.4665 21.2129 23.1742 21.8729 22.6811L23.2404 24.0486C23.352 24.1601 23.4982 24.2159 23.6444 24.2159C23.7906 24.2159 23.9368 24.1602 24.0484 24.0486C24.2715 23.8255 24.2715 23.4637 24.0484 23.2407L22.6809 21.8732C23.174 21.2132 23.4663 20.3949 23.4663 19.5096C23.4663 17.3278 21.6912 15.5527 19.5094 15.5527C17.3276 15.5527 15.5525 17.3278 15.5525 19.5096C15.5525 21.6915 17.3274 23.4665 19.5093 23.4665ZM19.5093 16.6952C21.0612 16.6952 22.3236 17.9578 22.3236 19.5096C22.3236 21.0613 21.0612 22.3239 19.5093 22.3239C17.9575 22.3239 16.695 21.0613 16.695 19.5096C16.695 17.9578 17.9575 16.6952 19.5093 16.6952Z" fill="#FFA300"/>
<path d="M31.0713 44.2979V40.1953C31.0713 39.8798 30.8156 39.624 30.5 39.624C30.1845 39.624 29.9287 39.8798 29.9287 40.1953V44.2979C28.6136 44.5637 27.6204 45.7282 27.6204 47.1205C27.6204 48.7084 28.9122 50.0002 30.5 50.0002C32.0879 50.0002 33.3797 48.7084 33.3797 47.1205C33.3797 45.7282 32.3864 44.5637 31.0713 44.2979ZM30.5 48.8576C29.5423 48.8576 28.7629 48.0783 28.7629 47.1205C28.7629 46.1626 29.5423 45.3834 30.5 45.3834C31.4578 45.3834 32.2371 46.1626 32.2371 47.1205C32.2371 48.0783 31.4578 48.8576 30.5 48.8576Z" fill="#FFA300"/>
<path d="M47.1202 27.6201C45.728 27.6201 44.5634 28.6134 44.2977 29.9285H40.1951C39.8795 29.9285 39.6238 30.1843 39.6238 30.4998C39.6238 30.8153 39.8795 31.0711 40.1951 31.0711H44.2977C44.5634 32.3862 45.728 33.3795 47.1202 33.3795C48.7081 33.3795 49.9999 32.0877 49.9999 30.4998C49.9999 28.9119 48.7081 27.6201 47.1202 27.6201ZM47.1202 32.2369C46.1624 32.2369 45.3831 31.4577 45.3831 30.4998C45.3831 29.5419 46.1624 28.7627 47.1202 28.7627C48.0781 28.7627 48.8573 29.5419 48.8573 30.4998C48.8573 31.4577 48.0781 32.2369 47.1202 32.2369Z" fill="#FFA300"/>
<path d="M16.7022 31.0711H20.8048C21.1204 31.0711 21.3761 30.8153 21.3761 30.4998C21.3761 30.1843 21.1204 29.9285 20.8048 29.9285H16.7022C16.4365 28.6134 15.2719 27.6201 13.8797 27.6201C12.2918 27.6201 11 28.9119 11 30.4998C11 32.0877 12.2918 33.3795 13.8797 33.3795C15.2719 33.3795 16.4365 32.3862 16.7022 31.0711ZM13.8797 32.2369C12.9218 32.2369 12.1426 31.4577 12.1426 30.4998C12.1426 29.5419 12.9218 28.7627 13.8797 28.7627C14.8375 28.7627 15.6167 29.5419 15.6167 30.4998C15.6167 31.4577 14.8375 32.2369 13.8797 32.2369Z" fill="#FFA300"/>
<path d="M37.3555 24.2155C37.5017 24.2155 37.6479 24.1597 37.7595 24.0482L39.1271 22.6806C39.787 23.1738 40.6053 23.466 41.4906 23.466C43.6725 23.466 45.4475 21.691 45.4475 19.5091C45.4475 17.3273 43.6724 15.5522 41.4906 15.5522C39.3088 15.5522 37.5337 17.3273 37.5337 19.5091C37.5337 20.3945 37.826 21.2127 38.3191 21.8727L36.9515 23.2402C36.7284 23.4633 36.7284 23.825 36.9515 24.0481C37.0631 24.1597 37.2094 24.2155 37.3555 24.2155ZM41.4906 16.6948C43.0424 16.6948 44.3049 17.9574 44.3049 19.5091C44.3049 21.0609 43.0424 22.3235 41.4906 22.3235C39.9387 22.3235 38.6763 21.0609 38.6763 19.5091C38.6763 17.9574 39.9387 16.6948 41.4906 16.6948Z" fill="#FFA300"/>
<path d="M23.2404 36.9515L21.8729 38.319C21.213 37.8259 20.3947 37.5336 19.5094 37.5336C17.3275 37.5336 15.5525 39.3086 15.5525 41.4905C15.5525 43.6724 17.3276 45.4474 19.5094 45.4474C21.6912 45.4474 23.4663 43.6724 23.4663 41.4905C23.4663 40.6052 23.174 39.7869 22.6809 39.127L24.0484 37.7595C24.2715 37.5363 24.2715 37.1746 24.0484 36.9516C23.8253 36.7284 23.4636 36.7284 23.2404 36.9515ZM19.5094 44.3048C17.9575 44.3048 16.6951 43.0423 16.6951 41.4905C16.6951 39.9387 17.9575 38.6762 19.5094 38.6762C21.0612 38.6762 22.3237 39.9387 22.3237 41.4905C22.3237 43.0423 21.0612 44.3048 19.5094 44.3048Z" fill="#FFA300"/>
</g>
<defs>
<clipPath id="clip0_1645_28848">
<rect width="39" height="39" fill="white" transform="translate(11 11)"/>
</clipPath>
</defs>
</svg>
