<svg width="43" height="43" viewBox="0 0 43 43" fill="none" xmlns="http://www.w3.org/2000/svg">
<g clip-path="url(#clip0_429_2123)">
<path d="M33.9729 13.179H35.3885V16.0101H33.9729V13.179Z" fill="black"/>
<path d="M31.1416 13.179H32.5572V16.0101H31.1416V13.179Z" fill="black"/>
<path d="M28.3105 13.179H29.7261V16.0101H28.3105V13.179Z" fill="black"/>
<path d="M25.4792 13.179H26.8948V16.0101H25.4792V13.179Z" fill="black"/>
<path d="M33.9729 26.6271H35.3885V28.0427H33.9729V26.6271Z" fill="black"/>
<path d="M31.1416 26.6271H32.5572V28.0427H31.1416V26.6271Z" fill="black"/>
<path d="M28.3105 26.6271H29.7261V28.0427H28.3105V26.6271Z" fill="black"/>
<path d="M25.4792 26.6271H26.8948V28.0427H25.4792V26.6271Z" fill="black"/>
<path d="M2.12196 24.4505V28.7505C2.12438 30.7042 3.70759 32.287 5.66094 32.2894H18.4566L31.0552 38.3354C31.8445 38.7135 32.7518 38.7619 33.5767 38.4695C34.4017 38.1775 35.0763 37.5689 35.4513 36.7781L37.64 32.1775C39.2221 31.7932 40.3377 30.3786 40.3429 28.7505V26.4968L42.1442 22.7131C42.9263 21.0674 42.2334 19.0991 40.5928 18.3063L40.3429 18.1868V13.179C40.3405 11.2253 38.7576 9.6424 36.804 9.63998H22.534L11.4111 4.30179C10.6221 3.9237 9.71452 3.87532 8.88991 4.1677C8.06496 4.45974 7.39034 5.06834 7.01501 5.85908L5.19299 9.68733C3.43975 9.91854 2.12749 11.4105 2.12196 13.179V16.1397L0.320676 19.9241C-0.461079 21.5699 0.231856 23.5381 1.87209 24.3309L2.12196 24.4505ZM40.3429 19.8159C41.0255 20.3661 41.2415 21.3124 40.8655 22.1042L40.3429 23.2022V19.8159ZM34.1711 36.1661C33.9579 36.6174 33.5739 36.9651 33.1039 37.132C32.6336 37.2993 32.1162 37.272 31.6662 37.0564L21.728 32.2894H36.0184L34.1711 36.1661ZM38.9273 28.7505C38.9273 29.9231 37.9766 30.8739 36.804 30.8739H13.4467V22.6889C15.0209 24.2034 17.1215 25.048 19.3061 25.0453V23.6297C17.4889 23.6317 15.7412 22.9305 14.4299 21.6725H38.9273V28.7505ZM14.1064 19.8173L15.4992 16.3174C15.775 15.6393 16.4735 15.2325 17.1993 15.3279C17.925 15.423 18.4949 15.996 18.5862 16.7224C18.6774 17.4485 18.2668 18.1449 17.5874 18.4166L14.1064 19.8173ZM36.804 11.0556C37.9766 11.0556 38.9273 12.0063 38.9273 13.179V20.2569H16.8101L18.1154 19.733C19.3997 19.2239 20.1766 17.9103 20.0045 16.5396C19.8324 15.1689 18.7545 14.0882 17.3845 13.9123C16.0142 13.7364 14.6985 14.5099 14.1856 15.7928L13.4467 17.648V11.0556H36.804ZM8.29409 6.46838C8.50698 6.01702 8.89095 5.66935 9.36132 5.50207C9.83134 5.33515 10.3487 5.36245 10.799 5.57811L19.2635 9.63998H6.78415L8.29409 6.46838ZM3.53755 13.179C3.53755 12.0063 4.48831 11.0556 5.66094 11.0556H12.0311V17.1541L11.4888 15.7928C10.9736 14.5164 9.66095 13.7492 8.29582 13.9265C6.93069 14.1035 5.85724 15.1797 5.68444 16.5455C5.51129 17.911 6.28233 19.2211 7.56003 19.733L8.86434 20.2569H3.53755V13.179ZM11.569 19.8173L8.08811 18.4166C7.40209 18.148 6.98495 17.4489 7.07446 16.7176C7.16397 15.9863 7.73767 15.4088 8.46828 15.3138C9.19888 15.2187 9.9008 15.6303 10.1745 16.3146L11.569 19.8173ZM3.53755 21.6725H11.2449C9.93329 22.9305 8.18592 23.6317 6.36874 23.6297V25.0453C8.46102 25.0473 10.479 24.2714 12.0311 22.8686V30.8739H5.66094C4.48831 30.8739 3.53755 29.9231 3.53755 28.7505V21.6725ZM1.59975 20.5331L2.12196 19.4344V22.8213C1.43939 22.2711 1.22339 21.3248 1.59975 20.5331Z" fill="black"/>
</g>
<defs>
<clipPath id="clip0_429_2123">
<rect width="42.4651" height="42.4651" fill="white"/>
</clipPath>
</defs>
</svg>
