<svg width="46" height="48" viewBox="0 0 46 48" fill="none" xmlns="http://www.w3.org/2000/svg">
<path d="M33.8685 23.0998C30.7394 22.9464 27.7607 24.1149 25.4968 26.3849C23.2329 28.6556 21.9861 31.7166 21.9861 35.0031V42.4506H23.4046V35.0031C23.4046 32.1269 24.4954 29.4488 26.477 27.4618C28.4564 25.4756 31.0486 24.453 33.8033 24.5878C38.8686 24.8329 43.0183 29.1911 43.2516 34.5094C43.3786 37.3915 42.4069 40.1233 40.5154 42.2026C40.4871 42.2339 40.4552 42.2607 40.4261 42.2912V39.1864C40.4261 37.291 38.9573 35.7479 37.1509 35.7479H37.0473C36.4842 35.7479 35.9742 35.479 35.6267 35.0374C36.8055 34.242 37.5892 32.8568 37.5892 31.2794V29.7899C37.5892 27.3255 35.6806 25.3214 33.3338 25.3214C30.9869 25.3214 29.0784 27.3255 29.0784 29.7899V31.2794C29.0784 32.8568 29.8621 34.242 31.0408 35.0374C30.6926 35.479 30.1827 35.7479 29.6203 35.7479H29.5167C27.7103 35.7479 26.2415 37.291 26.2415 39.1871V42.4506C26.2415 42.8617 26.5585 43.1954 26.9507 43.1954H39.4601C37.7204 44.6379 35.5948 45.4296 33.3338 45.4296H27.6599C20.8584 45.4296 15.2825 39.8157 14.913 32.7689H17.0215C17.308 32.7689 17.5676 32.5872 17.6768 32.3094C17.7868 32.0308 17.7258 31.7106 17.5229 31.4976L12.5583 26.2844C12.281 25.9932 11.8328 25.9932 11.5555 26.2844L6.59087 31.4976C6.38803 31.7106 6.32704 32.0308 6.43697 32.3094C6.54619 32.5872 6.80577 32.7689 7.0923 32.7689H9.23701C9.60793 40.6371 15.8215 46.9191 23.4046 46.9191H33.3338C36.4643 46.9191 39.3785 45.6098 41.541 43.2319C43.7027 40.8554 44.8127 37.7334 44.6687 34.4416C44.402 28.3615 39.6587 23.3798 33.8685 23.0998V23.0998ZM30.4969 29.7899C30.4969 28.147 31.7692 26.8109 33.3338 26.8109C34.8983 26.8109 36.1707 28.147 36.1707 29.7899V31.2794C36.1707 32.9223 34.8983 34.2584 33.3338 34.2584C31.7692 34.2584 30.4969 32.9223 30.4969 31.2794V29.7899ZM33.3338 35.7479C33.6607 35.7479 33.9778 35.7054 34.2841 35.6317C34.4998 35.9914 34.7714 36.299 35.0856 36.547C34.5976 36.9812 33.9756 37.2374 33.3338 37.2374C32.6919 37.2374 32.0699 36.9812 31.582 36.547C31.8962 36.299 32.1678 35.9914 32.3834 35.6317C32.6898 35.7054 33.0068 35.7479 33.3338 35.7479V35.7479ZM39.0076 41.7059H37.5892V40.2164H36.1707V41.7059H30.4969V40.2164H29.0784V41.7059H27.6599V39.1871C27.6599 38.1117 28.4933 37.2374 29.5167 37.2374H29.6203C29.8025 37.2374 29.9805 37.2173 30.1557 37.1875L30.411 37.4556C31.1806 38.2636 32.2458 38.7269 33.3338 38.7269C34.4217 38.7269 35.487 38.2636 36.2565 37.4556L36.5118 37.1875C36.6877 37.2173 36.8657 37.2374 37.0473 37.2374H37.1509C38.1743 37.2374 39.0076 38.1117 39.0076 39.1871V41.7059ZM10.6384 32.0241C10.6384 31.613 10.3214 31.2794 9.92921 31.2794H8.80438L12.0569 27.864L15.3094 31.2794H14.1846C13.7924 31.2794 13.4754 31.613 13.4754 32.0241C13.4754 37.7326 16.5492 42.7016 21.0513 45.201C15.1321 44.0384 10.6384 38.572 10.6384 32.0241V32.0241Z" fill="black"/>
<path d="M12.0633 24.5767C14.9988 24.5767 17.7613 23.4171 19.8939 21.2789C22.1578 19.0082 23.4046 15.9473 23.4046 12.6607V5.21324H21.9861V12.6607C21.9861 15.4163 20.9755 17.9827 19.1492 19.9414V16.8455C19.1492 14.9486 17.6804 13.4055 15.874 13.4055H15.7705C15.2073 13.4055 14.6974 13.1366 14.3499 12.695C15.5286 11.8996 16.3123 10.5144 16.3123 8.93698V7.44748C16.3123 4.98311 14.4038 2.97899 12.0569 2.97899C9.71009 2.97899 7.80156 4.98311 7.80156 7.44748V8.93698C7.80156 10.5144 8.58526 11.8996 9.764 12.695C9.41576 13.1366 8.90583 13.4055 8.34341 13.4055H8.23986C6.43345 13.4055 4.96464 14.9486 4.96464 16.8447V19.9183C3.31639 18.1428 2.25326 15.7663 2.13907 13.1537C2.01212 10.2716 2.98376 7.53983 4.87528 5.4605C6.7675 3.38041 9.31789 2.23425 12.0569 2.23425H17.7308C24.5323 2.23425 30.1082 7.84816 30.4777 14.895H28.3692C28.0827 14.895 27.8231 15.0767 27.7139 15.3545C27.6039 15.633 27.6649 15.9533 27.8678 16.1662L32.8324 21.3795C33.1097 21.6707 33.5579 21.6707 33.8352 21.3795L38.7998 16.1662C39.0027 15.9533 39.0637 15.633 38.9537 15.3545C38.8445 15.0767 38.5849 14.895 38.2984 14.895H36.1537C35.7828 7.0267 29.5692 0.744751 21.9861 0.744751H12.0569C8.9264 0.744751 6.01217 2.05402 3.84973 4.432C1.688 6.80849 0.578058 9.93047 0.722031 13.2223C0.988702 19.3024 5.73203 24.284 11.5229 24.564C11.703 24.573 11.8832 24.5767 12.0633 24.5767V24.5767ZM34.7523 15.6397C34.7523 16.0508 35.0693 16.3845 35.4615 16.3845H36.5863L33.3338 19.7999L30.0813 16.3845H31.2061C31.5983 16.3845 31.9154 16.0508 31.9154 15.6397C31.9154 9.93122 28.8416 4.96226 24.3394 2.46288C30.2586 3.62544 34.7523 9.09189 34.7523 15.6397ZM18.196 20.8529C16.3244 22.4057 14.013 23.19 11.5874 23.076C9.47959 22.974 7.5356 22.1525 5.96111 20.8529H18.196ZM9.22002 7.44748C9.22002 5.80457 10.4924 4.46849 12.0569 4.46849C13.6215 4.46849 14.8938 5.80457 14.8938 7.44748V8.93698C14.8938 10.5799 13.6215 11.916 12.0569 11.916C10.4924 11.916 9.22002 10.5799 9.22002 8.93698V7.44748ZM12.0569 13.4055C12.3839 13.4055 12.7009 13.363 13.0073 13.2893C13.2229 13.649 13.4945 13.9566 13.8087 14.2046C13.3208 14.6388 12.6988 14.895 12.0569 14.895C11.4151 14.895 10.7931 14.6388 10.3051 14.2046C10.6193 13.9566 10.891 13.649 11.1066 13.2893C11.413 13.363 11.73 13.4055 12.0569 13.4055ZM6.3831 16.8447C6.3831 15.7693 7.21644 14.895 8.23986 14.895H8.34341C8.52568 14.895 8.7037 14.8749 8.87888 14.8451L9.1342 15.1132C9.90371 15.9212 10.969 16.3845 12.0569 16.3845C13.1449 16.3845 14.2102 15.9212 14.9797 15.1132L15.235 14.8451C15.4109 14.8749 15.5889 14.895 15.7705 14.895H15.874C16.8974 14.895 17.7308 15.7693 17.7308 16.8447V19.3635H16.3123V17.874H14.8938V19.3635H9.22002V17.874H7.80156V19.3635H6.3831V16.8447Z" fill="black"/>
</svg>
