<svg width="44" height="44" viewBox="0 0 44 44" fill="none" xmlns="http://www.w3.org/2000/svg">
<g clip-path="url(#clip0_429_2093)">
<path d="M4.25537 14.1846H7.09229V15.603H4.25537V14.1846Z" fill="white"/>
<path d="M41.8445 11.3477C43.0175 11.3477 43.9722 10.3929 43.9722 9.21998V2.12769C43.9722 0.954758 43.0175 0 41.8445 0H31.9153C30.7424 0 29.7876 0.954758 29.7876 2.12769V9.21998C29.7876 10.3929 30.7424 11.3477 31.9153 11.3477H34.043V12.7661H32.6245V14.1846H36.1707V21.2769H33.2437C32.6779 20.7245 31.9811 20.3017 31.2012 20.069C31.2047 19.9973 31.2061 19.928 31.2061 19.8584C31.2061 16.7299 28.6608 14.1846 25.5323 14.1846C23.5912 14.1846 21.787 15.1944 20.7536 16.8096C20.0257 16.4827 19.2385 16.3123 18.44 16.3123C16.0861 16.3123 13.9668 17.7958 13.1377 19.972C12.5989 20.0877 12.0967 20.2948 11.6406 20.5676H6.38306V18.44H9.21998C10.3929 18.44 11.3477 17.4852 11.3477 16.3123V2.12769C11.3477 0.954758 10.3929 0 9.21998 0H2.12769C0.954758 0 0 0.954758 0 2.12769V16.3123C0 17.4852 0.954758 18.44 2.12769 18.44H4.9646V21.9861H10.1321C9.83051 22.4166 9.59641 22.8917 9.44265 23.4046H6.38306V31.2061H3.54615C2.37322 31.2061 1.41846 32.1608 1.41846 33.3338V39.7168H0V41.8445C0 43.0175 0.954758 43.9722 2.12769 43.9722H13.4754C14.6483 43.9722 15.603 43.0175 15.603 41.8445V39.7168H14.1846V33.3338C14.1846 32.1608 13.2298 31.2061 12.0569 31.2061H7.80152V24.823H9.21998C9.21998 27.5599 11.4477 29.7876 14.1846 29.7876H29.7876C32.2834 29.7876 34.3495 27.9339 34.6954 25.5323H37.5891V31.2061H32.6245V43.9722H43.9722V31.2061H39.0076V24.1138H34.6927C34.6189 23.6144 34.4658 23.1393 34.2515 22.6953H37.5891V14.1846H41.1353V12.7661H39.7168V11.3477H41.8445ZM9.92921 11.3477H1.41846V4.25538H9.92921V11.3477ZM2.12769 1.41846H9.21998C9.6113 1.41846 9.92921 1.73636 9.92921 2.12769V2.83692H1.41846V2.12769C1.41846 1.73636 1.73636 1.41846 2.12769 1.41846ZM1.41846 16.3123V12.7661H9.92921V16.3123C9.92921 16.7036 9.6113 17.0215 9.21998 17.0215H2.12769C1.73636 17.0215 1.41846 16.7036 1.41846 16.3123ZM14.1846 41.8445C14.1846 42.2358 13.8667 42.5538 13.4754 42.5538H2.12769C1.73636 42.5538 1.41846 42.2358 1.41846 41.8445V41.1353H14.1846V41.8445ZM12.7661 33.3338V39.7168H2.83692V33.3338C2.83692 32.9425 3.15482 32.6245 3.54615 32.6245H12.0569C12.4482 32.6245 12.7661 32.9425 12.7661 33.3338ZM34.043 42.5538V38.2984H42.5538V42.5538H34.043ZM42.5538 36.8799H34.043V32.6245H42.5538V36.8799ZM29.7876 28.3692H14.1846C12.2294 28.3692 10.6384 26.7783 10.6384 24.823C10.6384 23.0302 11.9804 21.5179 13.759 21.3053L14.2244 21.2492L14.3557 20.799C14.8803 18.9923 16.5606 17.7307 18.44 17.7307C19.223 17.7307 19.9917 17.9506 20.6657 18.3655L21.3427 18.7831L21.6803 18.0618C22.3785 16.5675 23.8904 15.603 25.5323 15.603C27.8792 15.603 29.7876 17.5115 29.7876 19.8584C29.7876 20.0541 29.77 20.2626 29.7315 20.5143L29.6245 21.2159L30.3258 21.3222C32.0407 21.584 33.3338 23.0891 33.3338 24.823C33.3338 26.7783 31.7429 28.3692 29.7876 28.3692ZM31.9153 1.41846H41.8445C42.2358 1.41846 42.5538 1.73636 42.5538 2.12769V7.09229H31.2061V2.12769C31.2061 1.73636 31.524 1.41846 31.9153 1.41846ZM31.2061 9.21998V8.51075H42.5538V9.21998C42.5538 9.6113 42.2358 9.92921 41.8445 9.92921H31.9153C31.524 9.92921 31.2061 9.6113 31.2061 9.21998ZM38.2984 12.7661H35.4615V11.3477H38.2984V12.7661Z" fill="white"/>
<path d="M35.4614 34.043H36.8799V35.4615H35.4614V34.043Z" fill="white"/>
<path d="M39.7168 39.7168H41.1353V41.1353H39.7168V39.7168Z" fill="white"/>
<path d="M38.2983 34.043H41.1353V35.4615H38.2983V34.043Z" fill="white"/>
<path d="M35.4614 39.7168H38.2983V41.1353H35.4614V39.7168Z" fill="white"/>
</g>
<defs>
<clipPath id="clip0_429_2093">
<rect width="43.9722" height="43.9722" fill="white"/>
</clipPath>
</defs>
</svg>
