<svg width="46" height="46" viewBox="0 0 46 46" fill="none" xmlns="http://www.w3.org/2000/svg">
<path d="M12.7661 17.7307V17.4598L13.2087 17.6811C12.7885 18.8957 12.6651 20.1932 12.8487 21.4653C13.0323 22.7374 13.5177 23.947 14.2643 24.9932C15.0108 26.0394 15.9969 26.8917 17.1401 27.479C18.2833 28.0664 19.5505 28.3716 20.8357 28.3692H21.718C23.295 28.3714 24.8379 27.9109 26.1557 27.0447C27.4734 26.1786 28.5081 24.9448 29.1314 23.4962C29.7548 22.0477 29.9394 20.4482 29.6625 18.8957C29.3855 17.3433 28.6592 15.9062 27.5734 14.7626C27.6758 14.4187 27.6876 14.0541 27.6076 13.7043C27.5275 13.3545 27.3584 13.0313 27.1167 12.7661C27.4665 12.3765 27.6599 11.8713 27.6599 11.3477C27.6599 10.824 27.4665 10.3189 27.1167 9.92921C27.3904 9.62316 27.5697 9.24444 27.633 8.83874C27.6963 8.43304 27.6409 8.01769 27.4734 7.64279C27.3059 7.2679 27.0335 6.94949 26.6891 6.72596C26.3446 6.50243 25.9429 6.38335 25.5323 6.38306C25.4961 6.38305 25.4601 6.38589 25.4244 6.39157L24.45 6.54122L25.5138 2.30003C25.5486 2.16112 25.5406 2.01492 25.4907 1.88067C25.4409 1.74642 25.3515 1.6304 25.2345 1.54789C25.1174 1.46538 24.9782 1.42024 24.835 1.4184C24.6918 1.41657 24.5514 1.45813 24.4322 1.53761L22.8918 2.56244L21.8662 1.02484C21.7996 0.924035 21.7083 0.84193 21.6011 0.786307C21.4938 0.730685 21.3741 0.703391 21.2533 0.707015C21.1325 0.710638 21.0147 0.745058 20.911 0.807011C20.8072 0.868963 20.721 0.956393 20.6606 1.06101L19.5747 2.92486L18.0343 2.19861C17.9128 2.14076 17.7774 2.11865 17.6439 2.13485C17.5103 2.15105 17.3842 2.2049 17.2801 2.29011C17.176 2.37532 17.0982 2.48838 17.056 2.61609C17.0137 2.7438 17.0086 2.8809 17.0414 3.01139L17.447 4.62914L12.7661 6.71002V6.38306C12.7661 6.19496 12.6914 6.01457 12.5584 5.88156C12.4254 5.74856 12.245 5.67383 12.0569 5.67383H6.38306C6.19496 5.67383 6.01457 5.74856 5.88156 5.88156C5.74856 6.01457 5.67383 6.19496 5.67383 6.38306H0.709229V7.80152H5.67383V16.3123H0.709229V17.7307H5.67383C5.67383 17.9188 5.74856 18.0992 5.88156 18.2322C6.01457 18.3652 6.19496 18.44 6.38306 18.44H12.0569C12.245 18.44 12.4254 18.3652 12.5584 18.2322C12.6914 18.0992 12.7661 17.9188 12.7661 17.7307ZM28.3692 20.2996C28.3671 22.0629 27.6657 23.7535 26.4188 25.0004C25.1719 26.2472 23.4814 26.9486 21.718 26.9507H20.8357C19.7926 26.9522 18.7637 26.7079 17.8326 26.2377C16.9014 25.7674 16.0941 25.0845 15.476 24.2442C14.8579 23.4038 14.4465 22.4297 14.275 21.4008C14.1035 20.3718 14.1767 19.3169 14.4888 18.3215L15.9952 19.0783C16.094 19.1261 16.2025 19.1504 16.3123 19.1492H19.1492C19.1492 19.7135 19.3734 20.2547 19.7724 20.6537C20.1714 21.0527 20.7126 21.2769 21.2769 21.2769C21.4171 21.2769 21.5543 21.3185 21.6709 21.3964C21.7875 21.4743 21.8784 21.5851 21.9321 21.7147C21.9858 21.8443 21.9998 21.9869 21.9725 22.1245C21.9451 22.262 21.8776 22.3884 21.7784 22.4876C21.6792 22.5868 21.5528 22.6543 21.4152 22.6817C21.2777 22.7091 21.1351 22.695 21.0055 22.6413C20.8759 22.5877 20.7651 22.4968 20.6872 22.3801C20.6092 22.2635 20.5676 22.1264 20.5676 21.9861H19.1492C19.151 22.4246 19.2883 22.8518 19.5422 23.2093C19.7961 23.5668 20.1542 23.8371 20.5676 23.9833V25.5323H21.9861V23.9833C22.4589 23.8168 22.8576 23.4882 23.1114 23.056C23.3652 22.6237 23.4579 22.1155 23.3729 21.6214C23.288 21.1274 23.0309 20.6793 22.6473 20.3567C22.2636 20.034 21.7782 19.8575 21.2769 19.8584C21.0888 19.8584 20.9084 19.7837 20.7754 19.6507C20.6424 19.5177 20.5676 19.3373 20.5676 19.1492H24.1138C24.4605 19.149 24.8018 19.064 25.1082 18.9018C25.4145 18.7395 25.6766 18.5049 25.8716 18.2182C26.0666 17.9316 26.1885 17.6016 26.2269 17.2571C26.2653 16.9126 26.2189 16.5639 26.0918 16.2413C26.3222 16.1776 26.5402 16.0755 26.7365 15.9392C27.7864 17.1496 28.3658 18.6973 28.3692 20.2996V20.2996ZM19.5549 4.48516C19.7153 4.561 19.8983 4.57394 20.0679 4.52142C20.2374 4.4689 20.381 4.35474 20.4705 4.20147L21.3159 2.75535L22.1053 3.93906C22.1569 4.01656 22.2234 4.08312 22.3008 4.13493C22.3782 4.18675 22.4651 4.22281 22.5564 4.24105C22.6478 4.2593 22.7418 4.25937 22.8332 4.24126C22.9246 4.22315 23.0115 4.18722 23.089 4.13551L23.6897 3.7348L22.9301 6.77527L19.574 7.29159L18.7818 4.1192L19.5549 4.48516ZM12.7661 8.26252L17.7967 6.02845L18.1669 7.51003L16.2045 7.81216L16.4172 9.2136L25.5769 7.80152C25.6701 7.80445 25.7617 7.8257 25.8466 7.86406C25.9316 7.90241 26.0081 7.95711 26.0719 8.02505C26.1357 8.09298 26.1855 8.17281 26.2184 8.25998C26.2513 8.34715 26.2668 8.43995 26.2638 8.53309C26.2609 8.62623 26.2396 8.71788 26.2013 8.8028C26.1629 8.88773 26.1082 8.96426 26.0403 9.02805C25.9724 9.09183 25.8925 9.14161 25.8054 9.17454C25.7182 9.20747 25.6254 9.22291 25.5323 9.21998H23.4046V10.6384H25.5323C25.7204 10.6384 25.9007 10.7132 26.0338 10.8462C26.1668 10.9792 26.2415 11.1596 26.2415 11.3477C26.2415 11.5358 26.1668 11.7162 26.0338 11.8492C25.9007 11.9822 25.7204 12.0569 25.5323 12.0569H23.4046V13.4754H25.5323C25.7204 13.4754 25.9007 13.5501 26.0338 13.6831C26.1668 13.8161 26.2415 13.9965 26.2415 14.1846C26.2415 14.3727 26.1668 14.5531 26.0338 14.6861C25.9007 14.8191 25.7204 14.8938 25.5323 14.8938H23.4046V16.3123H24.1138C24.3019 16.3123 24.4823 16.387 24.6153 16.52C24.7483 16.653 24.823 16.8334 24.823 17.0215C24.823 17.2096 24.7483 17.39 24.6153 17.523C24.4823 17.656 24.3019 17.7307 24.1138 17.7307H16.4796L12.7661 15.874V8.26252ZM11.3477 17.0215H7.09229V7.09229H11.3477V17.0215Z" fill="black"/>
<path d="M44.6814 34.043V32.6245H41.1353C41.1353 32.4364 41.0606 32.2561 40.9276 32.123C40.7945 31.99 40.6142 31.9153 40.4261 31.9153H34.7522C34.5641 31.9153 34.3837 31.99 34.2507 32.123C34.1177 32.2561 34.043 32.4364 34.043 32.6245V33.7593C32.8097 32.5734 31.1645 31.9124 29.4536 31.9153H28.5365C28.0057 31.9139 27.4825 32.0424 27.0128 32.2897C26.543 32.5369 26.1409 32.8954 25.8415 33.3338H21.2769C20.9185 33.3344 20.5661 33.4258 20.2526 33.5994C19.9391 33.7731 19.6746 34.0233 19.4839 34.3267L15.9725 31.3621C15.6106 30.9663 15.1375 30.689 14.6152 30.5668C14.0929 30.4445 13.5459 30.483 13.0458 30.677C12.5458 30.8711 12.1161 31.2118 11.813 31.6544C11.51 32.097 11.3478 32.6208 11.3477 33.1572V33.2941C11.3474 33.9515 11.5907 34.5857 12.0306 35.0742L16.4896 40.0282C16.999 40.5958 17.6215 41.0506 18.3171 41.3634C19.0127 41.6762 19.766 41.8401 20.5286 41.8445V41.8445L34.043 42.519V43.9722C34.043 44.1603 34.1177 44.3407 34.2507 44.4737C34.3837 44.6067 34.5641 44.6814 34.7522 44.6814H40.4261C40.6142 44.6814 40.7945 44.6067 40.9276 44.4737C41.0606 44.3407 41.1353 44.1603 41.1353 43.9722H44.6814V42.5538H41.1353V34.043H44.6814ZM34.043 41.0991L20.5676 40.4261C19.9973 40.4256 19.4335 40.3054 18.9125 40.0733C18.3916 39.8412 17.9252 39.5023 17.5435 39.0785L13.0853 34.1253C12.8799 33.8971 12.7662 33.601 12.7661 33.2941V33.1572C12.7664 32.9046 12.8436 32.6581 12.9876 32.4506C13.1316 32.243 13.3354 32.0844 13.5719 31.9957C13.8084 31.907 14.0663 31.8925 14.3112 31.9542C14.5562 32.0158 14.7765 32.1507 14.9427 32.3409C14.9667 32.3677 14.9926 32.3928 15.02 32.416L19.2123 35.9537C19.3228 36.4185 19.5866 36.8326 19.9611 37.1293C20.3356 37.4259 20.7991 37.5879 21.2769 37.5892H26.2415V36.1707H21.2769C21.0888 36.1707 20.9084 36.096 20.7754 35.963C20.6424 35.83 20.5676 35.6496 20.5676 35.4615C20.5676 35.2734 20.6424 35.093 20.7754 34.96C20.9084 34.827 21.0888 34.7522 21.2769 34.7522H26.2415C26.3739 34.753 26.5038 34.7166 26.6166 34.6473C26.7294 34.578 26.8206 34.4785 26.8798 34.36C27.0325 34.0513 27.2687 33.7915 27.5615 33.6102C27.8543 33.4288 28.1921 33.333 28.5365 33.3338H29.4536C30.1393 33.3315 30.8186 33.465 31.4525 33.7266C32.0863 33.9881 32.6621 34.3727 33.1465 34.8579C33.4729 35.339 33.7722 35.8379 34.043 36.3523V41.0991ZM39.7168 43.263H35.4615V33.3338H39.7168V43.263Z" fill="black"/>
</svg>
