<svg width="46" height="46" viewBox="0 0 46 46" fill="none" xmlns="http://www.w3.org/2000/svg">
<path d="M29.4234 40.1336L21.5097 35.8724L22.6533 33.5854C22.8847 33.1225 22.9618 32.5978 22.8734 32.0879C22.785 31.5781 22.5357 31.11 22.1619 30.7521C21.7882 30.3942 21.3096 30.1655 20.7964 30.0993C20.2832 30.0331 19.7623 30.1329 19.31 30.3842L14.0008 33.3338H4.9646V34.7522H13.4754V42.5537H4.9646V43.9722H28.4556C28.9101 43.9722 29.3516 43.8205 29.7102 43.5411C30.0687 43.2617 30.3238 42.8707 30.4349 42.4299C30.546 41.9892 30.5069 41.524 30.3236 41.108C30.1404 40.692 29.8236 40.3491 29.4234 40.1336ZM28.4556 42.5537H14.8938V34.4603L19.9989 31.6241C20.1864 31.52 20.4023 31.4786 20.615 31.506C20.8277 31.5335 21.026 31.6283 21.1809 31.7766C21.3358 31.925 21.4392 32.119 21.4758 32.3303C21.5125 32.5416 21.4805 32.7591 21.3846 32.9509L19.9333 35.8535C19.8508 36.0184 19.8358 36.2089 19.8915 36.3847C19.9471 36.5605 20.069 36.7077 20.2314 36.7952L28.7508 41.3825C28.8729 41.4482 28.9696 41.5528 29.0255 41.6798C29.0814 41.8067 29.0934 41.9486 29.0595 42.0831C29.0256 42.2176 28.9478 42.3369 28.8384 42.4222C28.729 42.5074 28.5943 42.5537 28.4556 42.5537Z" fill="black"/>
<path d="M31.4999 10.6385L31.8293 10.309C32.5334 9.60884 33.0915 8.77595 33.4715 7.85858C33.8515 6.94121 34.0458 5.95757 34.043 4.96462C34.043 4.77652 33.9683 4.59613 33.8353 4.46312C33.7023 4.33011 33.5219 4.25539 33.3338 4.25539H31.6445L30.948 2.86247C30.7324 2.42751 30.3992 2.06168 29.9862 1.80645C29.5732 1.55122 29.097 1.41682 28.6115 1.41847C28.2061 1.41945 27.8065 1.5143 27.4439 1.6956C27.0813 1.8769 26.7657 2.13972 26.5217 2.46344L25.8425 3.36894C25.7141 3.54004 25.5251 3.6555 25.3142 3.69161C25.1033 3.72772 24.8867 3.68175 24.7086 3.56313L23.798 2.95606C23.7081 2.8962 23.6058 2.85762 23.4988 2.84328C23.3917 2.82894 23.2828 2.8392 23.1804 2.87329L22.235 3.18834C21.7492 3.34981 21.3267 3.66023 21.0274 4.07552C20.7281 4.4908 20.5672 4.98983 20.5677 5.50173C20.5623 7.37245 21.2198 9.18459 22.4234 10.6166L16.9859 16.0541C15.6439 17.3888 14.5799 18.9765 13.8556 20.7251C13.1313 22.4738 12.761 24.3488 12.7662 26.2415C12.7633 28.0308 13.1006 29.8043 13.7601 31.4676L15.0787 30.9446C14.4853 29.4478 14.1819 27.8517 14.1846 26.2415C14.18 24.5351 14.5138 22.8448 15.1668 21.2683C15.8198 19.6918 16.779 18.2605 17.9889 17.0572L23.6984 11.3477H25.2385L25.1524 11.4337C24.8221 11.7623 24.5603 12.1531 24.382 12.5835C24.2037 13.0139 24.1126 13.4754 24.1138 13.9412V15.6031H25.5323V13.9412C25.5315 13.6617 25.5862 13.3848 25.6932 13.1266C25.8002 12.8683 25.9573 12.6338 26.1555 12.4367L26.9508 11.6415L27.746 12.4366C27.9442 12.6338 28.1013 12.8683 28.2083 13.1265C28.3153 13.3848 28.37 13.6617 28.3692 13.9412V15.6031H29.7877V13.9412C29.7889 13.4754 29.6978 13.0138 29.5195 12.5834C29.3412 12.153 29.0793 11.7622 28.749 11.4337L28.663 11.3477H30.2031L35.9126 17.0572C37.1225 18.2605 38.0817 19.6918 38.7347 21.2683C39.3877 22.8448 39.7215 24.5351 39.7169 26.2415C39.7203 28.9232 38.8781 31.5376 37.3099 33.713C35.7418 35.8883 33.5276 37.5138 30.9823 38.3582L31.4299 39.7041C34.258 38.766 36.7183 36.96 38.4607 34.543C40.2032 32.126 41.1391 29.2211 41.1353 26.2415C41.1405 24.3488 40.7702 22.4738 40.0459 20.7251C39.3216 18.9765 38.2576 17.3888 36.9156 16.0541L31.4999 10.6385ZM30.2031 9.92922H23.7083C22.5968 8.72315 21.9817 7.14185 21.9861 5.50173C21.9859 5.28761 22.0532 5.07887 22.1784 4.90517C22.3036 4.73146 22.4804 4.60161 22.6836 4.53408L23.2998 4.32864L23.9218 4.74333C24.4015 5.063 24.9855 5.18689 25.5537 5.08956C26.1219 4.99224 26.6313 4.68109 26.9773 4.21998L27.6564 3.31448C27.7679 3.16654 27.9122 3.04644 28.0779 2.96358C28.2436 2.88073 28.4262 2.83738 28.6115 2.83693C28.8334 2.83618 29.051 2.89761 29.2398 3.01426C29.4285 3.13091 29.5808 3.29811 29.6793 3.4969L30.5718 5.28183C30.6307 5.39963 30.7212 5.4987 30.8333 5.56794C30.9453 5.63718 31.0744 5.67385 31.2061 5.67385H32.5843C32.4279 7.04913 31.8079 8.33016 30.8263 9.30605L30.2031 9.92922Z" fill="black"/>
<path d="M36.1707 26.2415C36.1697 24.8993 35.8756 23.5736 35.3091 22.3569C34.7427 21.1401 33.9174 20.0617 32.8909 19.197C31.8644 18.3323 30.6616 17.7021 29.3663 17.3505C28.071 16.9989 26.7146 16.9343 25.3918 17.1612C24.069 17.3881 22.8117 17.9011 21.7077 18.6643C20.6037 19.4275 19.6796 20.4226 19 21.58C18.3204 22.7373 17.9017 24.0291 17.7731 25.3651C17.6445 26.7011 17.8092 28.049 18.2555 29.3147L19.5929 28.842C19.005 27.1754 19.001 25.3585 19.5816 23.6894C20.1621 22.0202 21.2927 20.5979 22.7878 19.6558C24.283 18.7137 26.054 18.3077 27.8102 18.5045C29.5665 18.7012 31.2037 19.489 32.4533 20.7387C33.7029 21.9883 34.4908 23.6255 34.6875 25.3817C34.8843 27.1379 34.4784 28.9089 33.5363 30.4041C32.5942 31.8993 31.1719 33.0299 29.5028 33.6104C27.8337 34.191 26.0168 34.187 24.3502 33.5992L23.8774 34.9366C25.2682 35.4269 26.7564 35.5767 28.217 35.3733C29.6777 35.1699 31.0683 34.6193 32.2723 33.7677C33.4764 32.9161 34.4587 31.7883 35.137 30.4788C35.8152 29.1692 36.1697 27.7162 36.1707 26.2415Z" fill="black"/>
<path d="M25.1879 23.8709L24.4581 22.6545L23.0397 23.5056C22.9346 23.5686 22.8477 23.6577 22.7874 23.7643C22.727 23.8709 22.6953 23.9913 22.6953 24.1138V28.3691C22.6953 28.4916 22.727 28.612 22.7874 28.7186C22.8477 28.8252 22.9346 28.9143 23.0396 28.9773L26.5858 31.105C26.696 31.1711 26.8221 31.2061 26.9507 31.2061C27.0792 31.2061 27.2054 31.1711 27.3156 31.105L30.8618 28.9773C30.9668 28.9143 31.0537 28.8252 31.114 28.7186C31.1743 28.612 31.2061 28.4916 31.2061 28.3691L31.206 24.1137C31.206 23.9912 31.1743 23.8708 31.1139 23.7642C31.0536 23.6576 30.9667 23.5685 30.8617 23.5055L27.3156 21.3779C27.2053 21.3118 27.0792 21.2769 26.9507 21.2769C26.8222 21.2769 26.696 21.3118 26.5858 21.3779L25.4038 22.0871L26.1335 23.3035L26.9507 22.8131L29.7876 24.5152L29.7876 27.9676L26.9507 29.6698L24.1138 27.9676V24.5153L25.1879 23.8709Z" fill="black"/>
</svg>
