<svg width="46" height="46" viewBox="0 0 46 46" fill="none" xmlns="http://www.w3.org/2000/svg">
<g clip-path="url(#clip0_429_2110)">
<path d="M36.3125 0H9.07813C7.87466 0.00120167 6.72083 0.479809 5.86985 1.33079C5.01887 2.18177 4.54026 3.3356 4.53906 4.53907V6.8086C4.53906 7.20988 4.69847 7.59472 4.98222 7.87847C5.26596 8.16222 5.65081 8.32162 6.05208 8.32162H12.1042V43.3685C12.1039 43.6429 12.1783 43.9122 12.3194 44.1476C12.4605 44.3829 12.6629 44.5755 12.905 44.7047C13.1471 44.8338 13.4197 44.8947 13.6938 44.8808C13.9678 44.867 14.2329 44.7788 14.4607 44.6258L17.3998 42.6672L21.1014 45.1297C21.3516 45.2995 21.647 45.3904 21.9494 45.3907C22.247 45.3913 22.5376 45.3002 22.7816 45.1297L26.4809 42.6635L30.1757 45.1267C30.424 45.2959 30.7176 45.3864 31.0181 45.3864C31.3186 45.3864 31.6122 45.2959 31.8605 45.1267L35.556 42.6672L38.5064 44.6342C38.7347 44.7845 38.9994 44.8702 39.2724 44.8821C39.5455 44.8941 39.8166 44.8318 40.0572 44.702C40.2977 44.5722 40.4985 44.3797 40.6384 44.1449C40.7783 43.9101 40.852 43.6418 40.8516 43.3685V4.53907C40.8504 3.3356 40.3718 2.18177 39.5208 1.33079C38.6698 0.479809 37.516 0.00120167 36.3125 0V0ZM6.05208 6.8086V4.53907C6.05208 3.73651 6.3709 2.96682 6.93839 2.39933C7.50589 1.83184 8.27557 1.51302 9.07813 1.51302C9.88069 1.51302 10.6504 1.83184 11.2179 2.39933C11.7854 2.96682 12.1042 3.73651 12.1042 4.53907V6.8086H6.05208ZM36.3829 41.4023C36.1345 41.2391 35.8436 41.1526 35.5464 41.1537C35.2492 41.1548 34.9589 41.2434 34.7118 41.4084L31.0207 43.8777L27.3138 41.4061C27.0655 41.2429 26.7751 41.1554 26.4779 41.1542C26.1817 41.1548 25.8923 41.2427 25.6457 41.4069L21.9388 43.8731L18.2236 41.4023C17.9745 41.2415 17.6841 41.1564 17.3876 41.1573C17.0911 41.1582 16.8013 41.2452 16.5532 41.4076L13.6172 43.3685V4.53907C13.6181 3.42183 13.2052 2.34385 12.4582 1.51302H36.3125C37.1151 1.51302 37.8848 1.83184 38.4523 2.39933C39.0198 2.96682 39.3386 3.73651 39.3386 4.53907L39.3424 43.3753L36.3829 41.4023Z" fill="black"/>
<path d="M18.9128 28.7474C19.314 28.7474 19.6989 28.9068 19.9826 29.1906C20.2664 29.4743 20.4258 29.8592 20.4258 30.2605C20.4258 30.4611 20.5055 30.6535 20.6474 30.7954C20.7892 30.9373 20.9817 31.017 21.1823 31.017C21.3829 31.017 21.5754 30.9373 21.7172 30.7954C21.8591 30.6535 21.9388 30.4611 21.9388 30.2605C21.9363 29.5915 21.7122 28.9423 21.3016 28.4142C20.891 27.8862 20.317 27.5091 19.6693 27.3418V27.2344C19.6693 27.0338 19.5896 26.8414 19.4477 26.6995C19.3058 26.5576 19.1134 26.4779 18.9128 26.4779C18.7121 26.4779 18.5197 26.5576 18.3778 26.6995C18.236 26.8414 18.1563 27.0338 18.1563 27.2344V27.3418C17.4439 27.5252 16.8229 27.9622 16.41 28.5709C15.997 29.1796 15.8203 29.9181 15.9132 30.6478C16.006 31.3774 16.362 32.0482 16.9143 32.534C17.4666 33.0198 18.1772 33.2874 18.9128 33.2865C19.212 33.2865 19.5045 33.3752 19.7534 33.5415C20.0022 33.7077 20.1961 33.9441 20.3106 34.2205C20.4251 34.497 20.4551 34.8012 20.3967 35.0947C20.3383 35.3882 20.1942 35.6578 19.9826 35.8694C19.771 36.081 19.5014 36.2251 19.2079 36.2835C18.9144 36.3419 18.6102 36.3119 18.3338 36.1974C18.0573 36.0829 17.821 35.8889 17.6547 35.6401C17.4885 35.3913 17.3997 35.0988 17.3997 34.7995C17.3997 34.5989 17.32 34.4065 17.1782 34.2646C17.0363 34.1227 16.8439 34.043 16.6432 34.043C16.4426 34.043 16.2502 34.1227 16.1083 34.2646C15.9664 34.4065 15.8867 34.5989 15.8867 34.7995C15.8892 35.4684 16.1133 36.1177 16.5239 36.6457C16.9345 37.1738 17.5086 37.5509 18.1563 37.7182V37.8256C18.1563 38.0262 18.236 38.2186 18.3778 38.3605C18.5197 38.5024 18.7121 38.5821 18.9128 38.5821C19.1134 38.5821 19.3058 38.5024 19.4477 38.3605C19.5896 38.2186 19.6693 38.0262 19.6693 37.8256V37.7182C20.3816 37.5348 21.0026 37.0978 21.4156 36.4891C21.8286 35.8804 22.0052 35.1419 21.9124 34.4122C21.8195 33.6825 21.4635 33.0118 20.9112 32.526C20.3589 32.0401 19.6483 31.7726 18.9128 31.7735C18.5115 31.7735 18.1266 31.6141 17.8429 31.3303C17.5591 31.0466 17.3997 30.6617 17.3997 30.2605C17.3997 29.8592 17.5591 29.4743 17.8429 29.1906C18.1266 28.9068 18.5115 28.7474 18.9128 28.7474V28.7474Z" fill="black"/>
<path d="M36.3126 27.9909H24.2084C24.0078 27.9909 23.8154 28.0706 23.6735 28.2125C23.5316 28.3544 23.4519 28.5468 23.4519 28.7474C23.4519 28.9481 23.5316 29.1405 23.6735 29.2824C23.8154 29.4242 24.0078 29.5039 24.2084 29.5039H36.3126C36.5132 29.5039 36.7057 29.4242 36.8475 29.2824C36.9894 29.1405 37.0691 28.9481 37.0691 28.7474C37.0691 28.5468 36.9894 28.3544 36.8475 28.2125C36.7057 28.0706 36.5132 27.9909 36.3126 27.9909Z" fill="black"/>
<path d="M36.3125 23.4518H16.6432C16.4426 23.4518 16.2502 23.5315 16.1083 23.6734C15.9664 23.8153 15.8867 24.0077 15.8867 24.2084C15.8867 24.409 15.9664 24.6014 16.1083 24.7433C16.2502 24.8852 16.4426 24.9649 16.6432 24.9649H36.3125C36.5132 24.9649 36.7056 24.8852 36.8475 24.7433C36.9893 24.6014 37.069 24.409 37.069 24.2084C37.069 24.0077 36.9893 23.8153 36.8475 23.6734C36.7056 23.5315 36.5132 23.4518 36.3125 23.4518Z" fill="black"/>
<path d="M36.3125 18.9128H16.6432C16.4426 18.9128 16.2502 18.9925 16.1083 19.1344C15.9664 19.2762 15.8867 19.4687 15.8867 19.6693C15.8867 19.8699 15.9664 20.0624 16.1083 20.2042C16.2502 20.3461 16.4426 20.4258 16.6432 20.4258H36.3125C36.5132 20.4258 36.7056 20.3461 36.8475 20.2042C36.9893 20.0624 37.069 19.8699 37.069 19.6693C37.069 19.4687 36.9893 19.2762 36.8475 19.1344C36.7056 18.9925 36.5132 18.9128 36.3125 18.9128Z" fill="black"/>
<path d="M36.3126 37.069H24.2084C24.0078 37.069 23.8154 37.1487 23.6735 37.2906C23.5316 37.4325 23.4519 37.6249 23.4519 37.8255C23.4519 38.0262 23.5316 38.2186 23.6735 38.3605C23.8154 38.5024 24.0078 38.5821 24.2084 38.5821H36.3126C36.5132 38.5821 36.7057 38.5024 36.8475 38.3605C36.9894 38.2186 37.0691 38.0262 37.0691 37.8255C37.0691 37.6249 36.9894 37.4325 36.8475 37.2906C36.7057 37.1487 36.5132 37.069 36.3126 37.069Z" fill="black"/>
<path d="M36.3126 32.53H24.2084C24.0078 32.53 23.8154 32.6097 23.6735 32.7515C23.5316 32.8934 23.4519 33.0858 23.4519 33.2865C23.4519 33.4871 23.5316 33.6795 23.6735 33.8214C23.8154 33.9633 24.0078 34.043 24.2084 34.043H36.3126C36.5132 34.043 36.7057 33.9633 36.8475 33.8214C36.9894 33.6795 37.0691 33.4871 37.0691 33.2865C37.0691 33.0858 36.9894 32.8934 36.8475 32.7515C36.7057 32.6097 36.5132 32.53 36.3126 32.53Z" fill="black"/>
<path d="M29.8299 12.1042H30.8315L29.5704 15.7301C29.4665 16.0092 29.4675 16.3165 29.5733 16.5948C29.679 16.8731 29.8824 17.1036 30.1454 17.2432C30.3324 17.347 30.5427 17.4019 30.7566 17.4028C30.9436 17.4022 31.128 17.3586 31.2955 17.2754C31.463 17.1923 31.6091 17.0718 31.7227 16.9232L36.7686 10.6184C36.9319 10.408 37.033 10.156 37.0602 9.89099C37.0875 9.62602 37.0398 9.35872 36.9227 9.11947C36.8056 8.88022 36.6237 8.67862 36.3978 8.53759C36.1718 8.39655 35.9108 8.32173 35.6444 8.32163H35.0559L36.5106 5.95981C36.6453 5.74441 36.7198 5.4969 36.7265 5.24297C36.7332 4.98904 36.6717 4.73796 36.5486 4.51578C36.4255 4.2936 36.2451 4.10844 36.0263 3.9795C35.8074 3.85057 35.558 3.78257 35.304 3.78257H32.0003C31.7083 3.78051 31.4229 3.86925 31.1836 4.03649C30.9442 4.20373 30.7628 4.44122 30.6643 4.7161L28.481 10.2311C28.4097 10.4449 28.3902 10.6726 28.4242 10.8954C28.4581 11.1183 28.5445 11.3298 28.6762 11.5127C28.8079 11.6957 28.9812 11.8447 29.1818 11.9475C29.3824 12.0503 29.6045 12.104 29.8299 12.1042V12.1042ZM32.0593 5.29559H35.1421L33.0594 8.68173C32.989 8.79622 32.9503 8.9274 32.9474 9.06178C32.9445 9.19616 32.9775 9.32889 33.0429 9.44632C33.1083 9.56374 33.2038 9.66161 33.3196 9.72987C33.4354 9.79812 33.5673 9.83429 33.7017 9.83466H35.4576L31.5056 14.7732L32.6093 11.5958C32.6489 11.4819 32.6606 11.3601 32.6436 11.2407C32.6265 11.1213 32.5811 11.0077 32.5113 10.9094C32.4414 10.8111 32.349 10.7309 32.2418 10.6755C32.1346 10.6202 32.0158 10.5912 31.8952 10.5912H29.963L32.0593 5.29559Z" fill="black"/>
<path d="M20.9638 17.3998C21.0311 17.3998 21.0992 17.3998 21.1665 17.3998C22.6141 17.414 24.0111 16.8681 25.0656 15.8762C25.5073 15.4615 25.8603 14.9614 26.103 14.4063C26.3458 13.8511 26.4734 13.2525 26.478 12.6466C26.478 8.74301 22.3633 5.30845 20.5938 4.02238C20.4179 3.8944 20.2111 3.8153 19.9947 3.79311C19.7782 3.77092 19.5598 3.80643 19.3615 3.89604C19.1734 3.97695 19.0104 4.10691 18.8897 4.27233C18.769 4.43775 18.695 4.63256 18.6753 4.83639C18.4916 6.20697 17.998 7.51765 17.2319 8.66887C16.7081 9.49345 16.3022 10.3872 16.026 11.3242C15.8571 12.0117 15.8447 12.7284 15.9897 13.4213C16.1348 14.1142 16.4337 14.7657 16.8642 15.3277C17.3487 15.9581 17.9686 16.4716 18.6782 16.8303C19.3878 17.1889 20.1689 17.3835 20.9638 17.3998ZM17.4944 11.6904C17.7393 10.8895 18.0926 10.1259 18.5444 9.42085C19.3055 8.23944 19.836 6.92469 20.1082 5.546C21.6446 6.73296 24.965 9.65007 24.965 12.6466C24.9596 13.0495 24.8726 13.4471 24.7092 13.8153C24.5457 14.1836 24.3092 14.5149 24.014 14.789C23.6116 15.1612 23.1393 15.4499 22.6246 15.6383C22.1098 15.8267 21.5628 15.9112 21.0152 15.8867C20.4458 15.8771 19.8857 15.74 19.3763 15.4853C18.8669 15.2307 18.4211 14.8651 18.0716 14.4153C17.7771 14.0328 17.5723 13.589 17.4724 13.1167C17.3725 12.6444 17.38 12.1556 17.4944 11.6866V11.6904Z" fill="black"/>
</g>
<defs>
<clipPath id="clip0_429_2110">
<rect width="45.3907" height="45.3907" fill="white"/>
</clipPath>
</defs>
</svg>
