<svg width="63" height="65" viewBox="0 0 63 65" fill="none" xmlns="http://www.w3.org/2000/svg">
<rect y="0.282715" width="62.5157" height="63.8458" rx="17.2916" fill="#660476"/>
<path fill-rule="evenodd" clip-rule="evenodd" d="M41.2225 20.5556C41.2225 21.4986 40.8479 22.403 40.181 23.0698C39.5142 23.7366 38.6099 24.1112 37.6669 24.1112C36.7239 24.1112 35.8195 23.7366 35.1527 23.0698C34.4859 22.403 34.1113 21.4986 34.1113 20.5556C34.1113 19.6126 34.4859 18.7082 35.1527 18.0414C35.8195 17.3746 36.7239 17 37.6669 17C38.6099 17 39.5142 17.3746 40.181 18.0414C40.8479 18.7082 41.2225 19.6126 41.2225 20.5556ZM39.4447 20.5556C39.4447 21.0271 39.2574 21.4793 38.924 21.8127C38.5906 22.1461 38.1384 22.3334 37.6669 22.3334C37.1954 22.3334 36.7432 22.1461 36.4098 21.8127C36.0764 21.4793 35.8891 21.0271 35.8891 20.5556C35.8891 20.0841 36.0764 19.6319 36.4098 19.2985C36.7432 18.9651 37.1954 18.7778 37.6669 18.7778C38.1384 18.7778 38.5906 18.9651 38.924 19.2985C39.2574 19.6319 39.4447 20.0841 39.4447 20.5556ZM19.4445 36.5557C19.4445 36.0842 19.6318 35.632 19.9652 35.2986C20.2986 34.9652 20.7508 34.7779 21.2223 34.7779H23.889C24.3605 34.7779 24.8127 34.9652 25.1461 35.2986C25.4795 35.632 25.6668 36.0842 25.6668 36.5557V38.3335H28.3335C28.805 38.3335 29.2571 38.5208 29.5905 38.8542C29.9239 39.1876 30.1112 39.6398 30.1112 40.1113V47.2225C30.1112 47.694 29.9239 48.1462 29.5905 48.4796C29.2571 48.813 28.805 49.0003 28.3335 49.0003H16.7778C16.3063 49.0003 15.8541 48.813 15.5207 48.4796C15.1873 48.1462 15 47.694 15 47.2225V40.1113C15 39.6398 15.1873 39.1876 15.5207 38.8542C15.8541 38.5208 16.3063 38.3335 16.7778 38.3335H19.4445V36.5557ZM16.7778 47.2225V40.1113H18.5556V47.2225H16.7778ZM23.889 36.5557V38.3335H21.2223V36.5557H23.889ZM24.7779 40.1113H20.3334V47.2225H24.7779V40.1113ZM26.5557 40.1113V47.2225H28.3335V40.1113H26.5557Z" fill="white"/>
<path d="M43.4438 31.2224C43.4438 30.7509 43.2565 30.2987 42.9231 29.9653C42.5897 29.6319 42.1375 29.4446 41.666 29.4446V33.0002C42.1375 33.0002 42.5897 32.8129 42.9231 32.4795C43.2565 32.1461 43.4438 31.6939 43.4438 31.2224Z" fill="white"/>
<path fill-rule="evenodd" clip-rule="evenodd" d="M34.5552 49.0005C33.848 49.0005 33.1697 48.7195 32.6696 48.2194C32.1695 47.7193 31.8885 47.041 31.8885 46.3338V31.2225H27.444C26.7368 31.2225 26.0585 30.9416 25.5584 30.4415C25.0583 29.9414 24.7773 29.2631 24.7773 28.5559C24.7773 27.8486 25.0583 27.1703 25.5584 26.6702C26.0585 26.1701 26.7368 25.8892 27.444 25.8892H42.5695C43.5588 25.8892 46.9998 27.1016 46.9998 30.8412C46.9998 33.8092 44.8335 35.6652 43.4442 36.3053V46.3338C43.4442 47.041 43.1632 47.7193 42.6631 48.2194C42.163 48.7195 41.4847 49.0005 40.7775 49.0005C40.0702 49.0005 39.392 48.7195 38.8919 48.2194C38.3918 47.7193 38.1108 47.041 38.1108 46.3338V39.2226H37.2219V46.3338C37.2219 46.9569 37.0086 47.5302 36.6495 47.9845C36.4002 48.3014 36.0821 48.5576 35.7193 48.7336C35.3565 48.9096 34.9584 49.0008 34.5552 49.0005ZM41.6664 35.1666L42.7002 34.6901C43.7171 34.2217 45.222 32.8706 45.222 30.8412C45.222 29.6021 44.6842 28.8519 44.0593 28.3621C43.7559 28.1259 43.4184 27.9371 43.0584 27.8021C42.9025 27.7412 42.7408 27.6965 42.5757 27.6687C42.5633 27.667 42.5615 27.667 42.5686 27.667H27.444C27.2083 27.667 26.9822 27.7606 26.8155 27.9273C26.6488 28.094 26.5551 28.3201 26.5551 28.5559C26.5551 28.7916 26.6488 29.0177 26.8155 29.1844C26.9822 29.3511 27.2083 29.4447 27.444 29.4447H33.6663V46.3338C33.6663 46.5695 33.76 46.7956 33.9267 46.9623C34.0934 47.129 34.3195 47.2227 34.5552 47.2227C34.791 47.2227 35.0171 47.129 35.1838 46.9623C35.3505 46.7956 35.4441 46.5695 35.4441 46.3338V37.4448H39.8886V46.3338C39.8886 46.5695 39.9822 46.7956 40.1489 46.9623C40.3156 47.129 40.5417 47.2227 40.7775 47.2227C41.0132 47.2227 41.2393 47.129 41.406 46.9623C41.5727 46.7956 41.6664 46.5695 41.6664 46.3338V35.1666Z" fill="white"/>
</svg>
