<svg width="63" height="65" viewBox="0 0 63 65" fill="none" xmlns="http://www.w3.org/2000/svg">
<rect y="0.282715" width="62.5157" height="63.8458" rx="17.2916" fill="#040876"/>
<path d="M44.2963 19.9343L40.6607 19.8896L40.6931 17.2482C40.6991 16.7567 40.2734 16.2824 39.7666 16.2987C39.5191 16.3 39.2818 16.3973 39.1047 16.5702C38.9276 16.743 38.8245 16.9778 38.8171 17.2252L38.7847 19.8666L25.6528 19.7054L25.6852 17.064C25.6912 16.5725 25.2655 16.0982 24.7587 16.1145C24.5113 16.1158 24.274 16.2131 24.0968 16.3859C23.9197 16.5588 23.8166 16.7936 23.8092 17.041L23.7768 19.6824L20.1411 19.6377C18.8977 19.624 17.6996 20.1039 16.8096 20.9723C15.9196 21.8408 15.4103 23.0267 15.3936 24.2701L15.1403 44.906C15.1085 47.4929 17.1876 49.6218 19.7727 49.6535L43.926 49.95C46.513 49.9817 48.6418 47.9046 48.6735 45.3176L48.9268 24.6818C48.9411 23.4385 48.4615 22.2404 47.5934 21.3504C46.7253 20.4603 45.5395 19.951 44.2963 19.9343ZM20.1181 21.5137L23.7538 21.5583L23.7401 22.6689C23.7341 23.1604 24.1598 23.6347 24.6666 23.6184C25.1753 23.6022 25.6097 23.2172 25.6161 22.692L25.6297 21.5814L38.7616 21.7426L38.748 22.8532C38.742 23.3447 39.1677 23.819 39.6745 23.8027C40.1832 23.7864 40.6175 23.4015 40.624 22.8762L40.6376 21.7656L44.2714 21.8102C45.8228 21.8293 47.0699 23.1073 47.0508 24.6587L47.0144 27.6303L17.2331 27.2647L17.2696 24.2932C17.2886 22.7417 18.5667 21.4947 20.1181 21.5137ZM43.9509 48.074L19.7957 47.7775C18.2443 47.7585 16.9972 46.4804 17.0163 44.929L17.2101 29.1407L46.9913 29.5063L46.7975 45.2946C46.7884 46.0406 46.4834 46.7524 45.9496 47.2736C45.4158 47.7948 44.6969 48.0827 43.9509 48.074Z" fill="white"/>
</svg>
