<svg width="63" height="65" viewBox="0 0 63 65" fill="none" xmlns="http://www.w3.org/2000/svg">
<rect y="0.337646" width="62.5157" height="63.8458" rx="17.2916" fill="#F0BB1F"/>
<path d="M47.834 19.9634L47.8384 19.9643C48.2548 20.0512 48.6342 20.2613 48.9264 20.5662C49.2184 20.8708 49.4096 21.2556 49.4755 21.6694C49.5404 22.0852 49.4758 22.5108 49.2901 22.8896C49.1043 23.2687 48.8058 23.5832 48.4338 23.7906L48.4318 23.7917C46.6294 24.8073 44.319 26.0876 41.7847 27.492C40.703 28.0914 39.5805 28.7135 38.4394 29.3471L38.2335 29.4614L38.1905 29.693L35.8525 42.2854C35.8524 42.2859 35.8523 42.2864 35.8522 42.2869C35.8076 42.5173 35.6899 42.7283 35.5154 42.8891C35.5149 42.8894 35.5145 42.8898 35.5141 42.8902L32.9648 45.1951L32.9648 45.1951L32.9618 45.1978C32.7605 45.3828 32.498 45.4904 32.2222 45.5C32.0911 45.5007 31.9611 45.4766 31.8393 45.4291C31.6722 45.3621 31.5282 45.2499 31.4237 45.106C31.3188 44.9617 31.2577 44.7914 31.247 44.6148L31.2464 44.6051L31.2455 44.5955L30.2523 34.6248L30.1779 33.8776L29.5172 34.2344C24.204 37.1037 21.471 38.5583 19.9838 39.2037C19.2242 39.5333 18.8702 39.6134 18.6949 39.6103C18.6298 39.6091 18.6093 39.5963 18.5991 39.5899C18.5764 39.5757 18.5416 39.5457 18.468 39.457L18.4333 39.4151L18.3904 39.3817L13.0549 35.2249C13.0543 35.2245 13.0537 35.224 13.0531 35.2235C12.8104 35.0301 12.6359 34.7665 12.5534 34.4705C12.4707 34.1737 12.4843 33.8588 12.5926 33.5701C12.7008 33.2814 12.8984 33.0329 13.1581 32.8607C13.4176 32.6887 13.7255 32.6017 14.0383 32.6125C14.0387 32.6125 14.0391 32.6125 14.0395 32.6126L19.2267 32.8241L19.3995 32.8312L19.5398 32.7299L38.0672 19.3509L38.0672 19.351L38.0718 19.3476C38.5658 18.9822 39.1335 18.726 39.7365 18.5967C40.3394 18.4673 40.9634 18.4678 41.5661 18.598C41.5662 18.5981 41.5664 18.5981 41.5665 18.5981L47.834 19.9634ZM47.8654 22.8213L47.8672 22.8203C48.044 22.7198 48.1842 22.5649 48.2662 22.3781C48.3446 22.1993 48.3654 22.0009 48.3261 21.81C48.2964 21.6171 48.208 21.4381 48.0733 21.2969C47.9347 21.1517 47.7543 21.054 47.5578 21.0167L41.3173 19.6844L41.3173 19.6844L41.3111 19.6831C40.873 19.5954 40.4211 19.6003 39.985 19.6976C39.55 19.7946 39.1404 19.9813 38.7826 20.2457L19.7043 33.9663L14.4525 33.7408L12.9017 33.6743L14.122 34.6335L18.7138 38.2428L18.9486 38.4274L19.2223 38.3082C20.122 37.9167 22.6916 36.6789 30.3413 32.4489L31.1013 32.0638L32.2045 43.2968L32.3014 44.2838L33.0373 43.6189L34.6071 42.2006L34.7326 42.0871L34.7635 41.9208L37.2087 28.7414L37.4364 28.6148C37.4371 28.6144 37.4379 28.614 37.4386 28.6136C41.3565 26.4859 45.0097 24.4291 47.6636 22.9349L47.8654 22.8213Z" stroke="white"/>
<path d="M19.1782 25.5668L19.1782 25.5668L19.17 25.5649C18.9812 25.523 18.8211 25.4362 18.7057 25.3256C18.5912 25.2158 18.5274 25.0899 18.5072 24.9678C18.4872 24.8467 18.5084 24.72 18.5758 24.6001C18.6439 24.479 18.7597 24.3655 18.92 24.284L21.8336 22.836L21.8336 22.836L21.8351 22.8353C21.9903 22.7575 22.1747 22.718 22.3639 22.7267L22.382 22.7276L22.4002 22.7271L29.1671 22.5485L28.3023 23.085L22.3745 23.2331L22.2585 23.236L22.1556 23.2897L20.1603 24.3314L18.9898 24.9424L20.2715 25.2599L23.5539 26.0732L22.9216 26.4651L19.1782 25.5668Z" stroke="white"/>
</svg>
