<svg width="102" height="102" viewBox="0 0 102 102" fill="none" xmlns="http://www.w3.org/2000/svg">
<g filter="url(#filter0_d_1349_4159)">
<rect width="90" height="90" rx="45" fill="#B4D2FF" fill-opacity="0.5" shape-rendering="crispEdges"/>
<rect x="0.5" y="0.5" width="89" height="89" rx="44.5" stroke="white" stroke-opacity="0.7" stroke-dasharray="7 7" shape-rendering="crispEdges"/>
</g>
<g clip-path="url(#clip0_1349_4159)" filter="url(#filter1_d_1349_4159)">
<g filter="url(#filter2_d_1349_4159)">
<path d="M58.557 28.6229C58.6569 28.7637 58.7217 28.9263 58.746 29.0973C58.7703 29.2682 58.7534 29.4424 58.6967 29.6055L57.1161 34.1555L62.7755 27.0835H60.2611C60.0683 27.0836 59.879 27.0322 59.7127 26.9347C59.5465 26.8372 59.4092 26.6971 59.3152 26.5288C59.2211 26.3606 59.1736 26.1703 59.1777 25.9775C59.1817 25.7848 59.2371 25.5967 59.3381 25.4325L62.3237 20.5835H57.9091L54.9072 28.1668H57.6741C57.8469 28.1669 58.0173 28.2083 58.1709 28.2877C58.3245 28.367 58.4569 28.482 58.557 28.6229V28.6229Z" fill="white"/>
</g>
<g filter="url(#filter3_d_1349_4159)">
<path d="M24.9998 15.1667C23.8506 15.1667 22.7484 15.6233 21.9357 16.436C21.1231 17.2486 20.6665 18.3508 20.6665 19.5001V22.7501H29.3332V19.5001C29.3332 18.3508 28.8766 17.2486 28.064 16.436C27.2513 15.6233 26.1491 15.1667 24.9998 15.1667Z" fill="white"/>
</g>
<g filter="url(#filter4_d_1349_4159)">
<path d="M68.3333 19.5001C68.3333 18.3508 67.8768 17.2486 67.0641 16.436C66.2515 15.6233 65.1493 15.1667 64 15.1667H29.8403C30.91 16.3565 31.5012 17.9002 31.5 19.5001V75.1043L35.7087 72.2963C36.064 72.0637 36.479 71.9392 36.9036 71.9378C37.3282 71.9365 37.7441 72.0584 38.1007 72.2888L43.4167 75.8269L48.725 72.2963C49.0779 72.0609 49.4924 71.9346 49.9167 71.9334C50.3397 71.9342 50.7535 72.0573 51.1083 72.2877L56.4221 75.8334L61.7077 72.3028C62.0616 72.0665 62.4773 71.9397 62.9029 71.9381C63.3285 71.9366 63.7451 72.0604 64.1008 72.2942L68.3388 75.1195L68.3333 19.5001ZM52.7832 27.6511L55.9097 19.7536C56.0508 19.3596 56.311 19.0193 56.6542 18.7797C56.9973 18.5402 57.4065 18.4134 57.825 18.4167H62.5581C62.9218 18.4168 63.279 18.5141 63.5924 18.6988C63.9058 18.8834 64.1641 19.1486 64.3404 19.4667C64.5167 19.7849 64.6046 20.1444 64.5951 20.5081C64.5855 20.8717 64.4788 21.2261 64.286 21.5346L62.2006 24.9167H63.0434C63.4246 24.9175 63.7979 25.0251 64.121 25.2273C64.4441 25.4295 64.7041 25.7182 64.8714 26.0607C65.0387 26.4032 65.1066 26.7857 65.0675 27.1649C65.0284 27.5441 64.8837 27.9046 64.65 28.2057L57.4242 37.2342C57.2615 37.4458 57.0525 37.6173 56.8133 37.7356C56.574 37.8539 56.3109 37.9159 56.044 37.9167C55.7376 37.9155 55.4365 37.8369 55.1687 37.6882C54.792 37.4883 54.5009 37.1583 54.3494 36.7597C54.198 36.3611 54.1965 35.9211 54.3453 35.5215L56.1513 30.3334H54.7169C54.394 30.3335 54.0756 30.2569 53.7881 30.1097C53.5006 29.9626 53.2522 29.7493 53.0633 29.4873C52.8744 29.2254 52.7505 28.9222 52.7018 28.603C52.6531 28.2837 52.681 27.9575 52.7832 27.6511V27.6511ZM34.9493 29.2111C35.3449 27.8693 35.9261 26.5894 36.6762 25.4086C37.7732 23.76 38.4801 21.8831 38.7432 19.9204C38.7713 19.6285 38.8774 19.3496 39.0502 19.1127C39.2231 18.8758 39.4564 18.6897 39.7258 18.5738C40.0097 18.4455 40.3225 18.3946 40.6325 18.4264C40.9425 18.4582 41.2385 18.5715 41.4905 18.7547C44.0244 20.6062 49.9167 25.5202 49.9167 31.1102C49.9101 31.9778 49.7274 32.8351 49.3798 33.63C49.0321 34.425 48.5267 35.1411 47.8941 35.7349C46.3841 37.1553 44.3835 37.9371 42.3106 37.9167C42.2142 37.9167 42.1167 37.9167 42.0203 37.9167C40.8819 37.8935 39.7634 37.6148 38.7473 37.1012C37.7312 36.5876 36.8434 35.8523 36.1497 34.9495C35.5323 34.1441 35.1039 33.2103 34.8961 32.217C34.6883 31.2237 34.7065 30.1964 34.9493 29.2111V29.2111ZM39.0833 58.5001C40.1367 58.4988 41.1543 58.8819 41.9452 59.5777C42.736 60.2734 43.2458 61.2339 43.3788 62.2788C43.5118 63.3237 43.2588 64.3812 42.6674 65.2529C42.076 66.1245 41.1868 66.7504 40.1667 67.0129V67.1667C40.1667 67.4541 40.0525 67.7296 39.8494 67.9328C39.6462 68.1359 39.3707 68.2501 39.0833 68.2501C38.796 68.2501 38.5205 68.1359 38.3173 67.9328C38.1141 67.7296 38 67.4541 38 67.1667V67.0129C37.0725 66.7734 36.2505 66.2334 35.6625 65.4772C35.0745 64.721 34.7536 63.7913 34.75 62.8334C34.75 62.5461 34.8641 62.2705 35.0673 62.0674C35.2705 61.8642 35.546 61.7501 35.8333 61.7501C36.1207 61.7501 36.3962 61.8642 36.5994 62.0674C36.8025 62.2705 36.9167 62.5461 36.9167 62.8334C36.9167 63.2619 37.0437 63.6808 37.2818 64.0372C37.5199 64.3935 37.8583 64.6712 38.2542 64.8352C38.6501 64.9991 39.0857 65.0421 39.506 64.9585C39.9263 64.8749 40.3124 64.6685 40.6154 64.3655C40.9184 64.0625 41.1248 63.6764 41.2084 63.2561C41.292 62.8358 41.2491 62.4002 41.0851 62.0043C40.9211 61.6084 40.6434 61.27 40.2871 61.0319C39.9308 60.7938 39.5119 60.6667 39.0833 60.6667C38.03 60.6681 37.0124 60.2849 36.2215 59.5892C35.4306 58.8934 34.9209 57.933 34.7879 56.888C34.6549 55.8431 34.9079 54.7856 35.4993 53.9139C36.0907 53.0423 36.9799 52.4165 38 52.1539V52.0001C38 51.7128 38.1141 51.4372 38.3173 51.234C38.5205 51.0309 38.796 50.9167 39.0833 50.9167C39.3707 50.9167 39.6462 51.0309 39.8494 51.234C40.0525 51.4372 40.1667 51.7128 40.1667 52.0001V52.1539C41.0942 52.3934 41.9162 52.9334 42.5042 53.6896C43.0922 54.4458 43.4131 55.3755 43.4167 56.3334C43.4167 56.6207 43.3025 56.8963 43.0994 57.0994C42.8962 57.3026 42.6207 57.4167 42.3333 57.4167C42.046 57.4167 41.7705 57.3026 41.5673 57.0994C41.3641 56.8963 41.25 56.6207 41.25 56.3334C41.25 55.9049 41.1229 55.486 40.8849 55.1297C40.6468 54.7734 40.3084 54.4957 39.9125 54.3317C39.5166 54.1677 39.0809 54.1248 38.6606 54.2084C38.2403 54.292 37.8543 54.4983 37.5513 54.8013C37.2483 55.1044 37.0419 55.4904 36.9583 55.9107C36.8747 56.331 36.9176 56.7667 37.0816 57.1626C37.2456 57.5585 37.5233 57.8969 37.8796 58.1349C38.2359 58.373 38.6548 58.5001 39.0833 58.5001ZM64 68.2501H46.6667C46.3793 68.2501 46.1038 68.1359 45.9006 67.9328C45.6975 67.7296 45.5833 67.4541 45.5833 67.1667C45.5833 66.8794 45.6975 66.6039 45.9006 66.4007C46.1038 66.1976 46.3793 66.0834 46.6667 66.0834H64C64.2873 66.0834 64.5629 66.1976 64.766 66.4007C64.9692 66.6039 65.0833 66.8794 65.0833 67.1667C65.0833 67.4541 64.9692 67.7296 64.766 67.9328C64.5629 68.1359 64.2873 68.2501 64 68.2501ZM64 61.7501H46.6667C46.3793 61.7501 46.1038 61.6359 45.9006 61.4328C45.6975 61.2296 45.5833 60.9541 45.5833 60.6667C45.5833 60.3794 45.6975 60.1039 45.9006 59.9007C46.1038 59.6976 46.3793 59.5834 46.6667 59.5834H64C64.2873 59.5834 64.5629 59.6976 64.766 59.9007C64.9692 60.1039 65.0833 60.3794 65.0833 60.6667C65.0833 60.9541 64.9692 61.2296 64.766 61.4328C64.5629 61.6359 64.2873 61.7501 64 61.7501ZM64 55.2501H46.6667C46.3793 55.2501 46.1038 55.1359 45.9006 54.9328C45.6975 54.7296 45.5833 54.4541 45.5833 54.1667C45.5833 53.8794 45.6975 53.6039 45.9006 53.4007C46.1038 53.1976 46.3793 53.0834 46.6667 53.0834H64C64.2873 53.0834 64.5629 53.1976 64.766 53.4007C64.9692 53.6039 65.0833 53.8794 65.0833 54.1667C65.0833 54.4541 64.9692 54.7296 64.766 54.9328C64.5629 55.1359 64.2873 55.2501 64 55.2501ZM64 48.7501H35.8333C35.546 48.7501 35.2705 48.6359 35.0673 48.4328C34.8641 48.2296 34.75 47.9541 34.75 47.6667C34.75 47.3794 34.8641 47.1039 35.0673 46.9007C35.2705 46.6976 35.546 46.5834 35.8333 46.5834H64C64.2873 46.5834 64.5629 46.6976 64.766 46.9007C64.9692 47.1039 65.0833 47.3794 65.0833 47.6667C65.0833 47.9541 64.9692 48.2296 64.766 48.4328C64.5629 48.6359 64.2873 48.7501 64 48.7501ZM64 42.2501H35.8333C35.546 42.2501 35.2705 42.1359 35.0673 41.9328C34.8641 41.7296 34.75 41.4541 34.75 41.1667C34.75 40.8794 34.8641 40.6039 35.0673 40.4007C35.2705 40.1976 35.546 40.0834 35.8333 40.0834H64C64.2873 40.0834 64.5629 40.1976 64.766 40.4007C64.9692 40.6039 65.0833 40.8794 65.0833 41.1667C65.0833 41.4541 64.9692 41.7296 64.766 41.9328C64.5629 42.1359 64.2873 42.2501 64 42.2501Z" fill="white"/>
</g>
<g filter="url(#filter5_d_1349_4159)">
<path d="M42.0937 35.75C42.8777 35.7854 43.6609 35.665 44.398 35.3957C45.1351 35.1264 45.8115 34.7137 46.3881 34.1813C46.8112 33.7883 47.1501 33.3134 47.3842 32.7855C47.6182 32.2575 47.7426 31.6875 47.7498 31.1101C47.7498 26.819 42.9951 22.6427 40.7948 20.9419C40.4046 22.9147 39.6448 24.7959 38.5556 26.4864C37.9085 27.4961 37.4026 28.5896 37.0519 29.7364C36.8892 30.4069 36.8791 31.1053 37.0221 31.7803C37.1652 32.4553 37.4578 33.0895 37.8785 33.6364C38.3782 34.2816 39.0164 34.8064 39.7459 35.1722C40.4754 35.538 41.2778 35.7355 42.0937 35.75Z" fill="white"/>
</g>
</g>
<defs>
<filter id="filter0_d_1349_4159" x="0" y="0" width="102" height="102" filterUnits="userSpaceOnUse" color-interpolation-filters="sRGB">
<feFlood flood-opacity="0" result="BackgroundImageFix"/>
<feColorMatrix in="SourceAlpha" type="matrix" values="0 0 0 0 0 0 0 0 0 0 0 0 0 0 0 0 0 0 127 0" result="hardAlpha"/>
<feOffset dx="8" dy="8"/>
<feGaussianBlur stdDeviation="2"/>
<feComposite in2="hardAlpha" operator="out"/>
<feColorMatrix type="matrix" values="0 0 0 0 0 0 0 0 0 0 0 0 0 0 0 0 0 0 0.25 0"/>
<feBlend mode="normal" in2="BackgroundImageFix" result="effect1_dropShadow_1349_4159"/>
<feBlend mode="normal" in="SourceGraphic" in2="effect1_dropShadow_1349_4159" result="shape"/>
</filter>
<filter id="filter1_d_1349_4159" x="11" y="13" width="73" height="73" filterUnits="userSpaceOnUse" color-interpolation-filters="sRGB">
<feFlood flood-opacity="0" result="BackgroundImageFix"/>
<feColorMatrix in="SourceAlpha" type="matrix" values="0 0 0 0 0 0 0 0 0 0 0 0 0 0 0 0 0 0 127 0" result="hardAlpha"/>
<feOffset dx="3" dy="4"/>
<feGaussianBlur stdDeviation="2"/>
<feComposite in2="hardAlpha" operator="out"/>
<feColorMatrix type="matrix" values="0 0 0 0 0 0 0 0 0 0 0 0 0 0 0 0 0 0 0.25 0"/>
<feBlend mode="normal" in2="BackgroundImageFix" result="effect1_dropShadow_1349_4159"/>
<feBlend mode="normal" in="SourceGraphic" in2="effect1_dropShadow_1349_4159" result="shape"/>
</filter>
<filter id="filter2_d_1349_4159" x="50.9072" y="20.5835" width="15.8682" height="21.572" filterUnits="userSpaceOnUse" color-interpolation-filters="sRGB">
<feFlood flood-opacity="0" result="BackgroundImageFix"/>
<feColorMatrix in="SourceAlpha" type="matrix" values="0 0 0 0 0 0 0 0 0 0 0 0 0 0 0 0 0 0 127 0" result="hardAlpha"/>
<feOffset dy="4"/>
<feGaussianBlur stdDeviation="2"/>
<feComposite in2="hardAlpha" operator="out"/>
<feColorMatrix type="matrix" values="0 0 0 0 0 0 0 0 0 0 0 0 0 0 0 0 0 0 0.25 0"/>
<feBlend mode="normal" in2="BackgroundImageFix" result="effect1_dropShadow_1349_4159"/>
<feBlend mode="normal" in="SourceGraphic" in2="effect1_dropShadow_1349_4159" result="shape"/>
</filter>
<filter id="filter3_d_1349_4159" x="16.6665" y="15.1667" width="16.6665" height="15.5833" filterUnits="userSpaceOnUse" color-interpolation-filters="sRGB">
<feFlood flood-opacity="0" result="BackgroundImageFix"/>
<feColorMatrix in="SourceAlpha" type="matrix" values="0 0 0 0 0 0 0 0 0 0 0 0 0 0 0 0 0 0 127 0" result="hardAlpha"/>
<feOffset dy="4"/>
<feGaussianBlur stdDeviation="2"/>
<feComposite in2="hardAlpha" operator="out"/>
<feColorMatrix type="matrix" values="0 0 0 0 0 0 0 0 0 0 0 0 0 0 0 0 0 0 0.25 0"/>
<feBlend mode="normal" in2="BackgroundImageFix" result="effect1_dropShadow_1349_4159"/>
<feBlend mode="normal" in="SourceGraphic" in2="effect1_dropShadow_1349_4159" result="shape"/>
</filter>
<filter id="filter4_d_1349_4159" x="25.8403" y="15.1667" width="46.4985" height="68.6667" filterUnits="userSpaceOnUse" color-interpolation-filters="sRGB">
<feFlood flood-opacity="0" result="BackgroundImageFix"/>
<feColorMatrix in="SourceAlpha" type="matrix" values="0 0 0 0 0 0 0 0 0 0 0 0 0 0 0 0 0 0 127 0" result="hardAlpha"/>
<feOffset dy="4"/>
<feGaussianBlur stdDeviation="2"/>
<feComposite in2="hardAlpha" operator="out"/>
<feColorMatrix type="matrix" values="0 0 0 0 0 0 0 0 0 0 0 0 0 0 0 0 0 0 0.25 0"/>
<feBlend mode="normal" in2="BackgroundImageFix" result="effect1_dropShadow_1349_4159"/>
<feBlend mode="normal" in="SourceGraphic" in2="effect1_dropShadow_1349_4159" result="shape"/>
</filter>
<filter id="filter5_d_1349_4159" x="32.9219" y="20.9419" width="18.8281" height="22.8142" filterUnits="userSpaceOnUse" color-interpolation-filters="sRGB">
<feFlood flood-opacity="0" result="BackgroundImageFix"/>
<feColorMatrix in="SourceAlpha" type="matrix" values="0 0 0 0 0 0 0 0 0 0 0 0 0 0 0 0 0 0 127 0" result="hardAlpha"/>
<feOffset dy="4"/>
<feGaussianBlur stdDeviation="2"/>
<feComposite in2="hardAlpha" operator="out"/>
<feColorMatrix type="matrix" values="0 0 0 0 0 0 0 0 0 0 0 0 0 0 0 0 0 0 0.25 0"/>
<feBlend mode="normal" in2="BackgroundImageFix" result="effect1_dropShadow_1349_4159"/>
<feBlend mode="normal" in="SourceGraphic" in2="effect1_dropShadow_1349_4159" result="shape"/>
</filter>
<clipPath id="clip0_1349_4159">
<rect width="65" height="65" fill="white" transform="translate(12 13)"/>
</clipPath>
</defs>
</svg>
