<svg width="102" height="102" viewBox="0 0 102 102" fill="none" xmlns="http://www.w3.org/2000/svg">
<g filter="url(#filter0_d_1349_4162)">
<rect width="90" height="90" rx="45" fill="#B4D2FF" fill-opacity="0.5" shape-rendering="crispEdges"/>
<rect x="0.5" y="0.5" width="89" height="89" rx="44.5" stroke="white" stroke-opacity="0.7" stroke-dasharray="7 7" shape-rendering="crispEdges"/>
</g>
<g clip-path="url(#clip0_1349_4162)" filter="url(#filter1_d_1349_4162)">
<g filter="url(#filter2_d_1349_4162)">
<path d="M53.2683 76C55.652 76 57.5633 74.0124 57.5633 71.6288V65.3887H23.7642V71.6288C23.7642 74.0124 25.6939 76 28.0781 76H53.2683ZM40.6729 67.0339C42.6948 67.0339 44.3339 68.673 44.3339 70.6949C44.3339 72.7167 42.6948 74.3558 40.6729 74.3558C38.6511 74.3558 37.012 72.7167 37.012 70.6949C37.0145 68.674 38.6521 67.0365 40.6729 67.0339Z" fill="white"/>
</g>
<g filter="url(#filter3_d_1349_4162)">
<path d="M42.5 70.6948C42.5 71.704 41.6822 72.5217 40.6731 72.5217C39.6645 72.5217 38.8462 71.704 38.8462 70.6948C38.8462 69.6862 39.6645 68.8679 40.6731 68.8679C41.6822 68.8679 42.5 69.6862 42.5 70.6948Z" fill="white"/>
</g>
<g filter="url(#filter4_d_1349_4162)">
<path d="M57.5633 29.1153V26.3494H23.7642V63.5546H57.5633V62.8847C57.4323 62.8878 57.3059 62.8899 57.1718 62.8899C47.8587 62.8899 40.2922 55.3131 40.2922 46C40.2922 36.6869 47.8618 29.1102 57.1749 29.1102C57.3095 29.1102 57.4323 29.1122 57.5633 29.1153V29.1153Z" fill="white"/>
</g>
<g filter="url(#filter5_d_1349_4162)">
<path d="M42.1621 45.083H47.1746C47.2355 43.0938 47.5589 41.1216 48.1361 39.2169C47.0809 38.5471 46.1035 37.7621 45.2218 36.8757C43.4067 39.2456 42.3412 42.1036 42.1621 45.083Z" fill="white"/>
</g>
<g filter="url(#filter6_d_1349_4162)">
<path d="M58.0874 31.3372V39.984C60.1425 39.8734 62.1516 39.3346 63.9857 38.4017C62.7524 35.3302 60.7075 32.877 58.0874 31.3372Z" fill="white"/>
</g>
<g filter="url(#filter7_d_1349_4162)">
<path d="M58.0874 50.1788C60.3483 50.2781 62.5641 50.8456 64.5941 51.8455C65.048 50.2397 65.308 48.5847 65.3684 46.917H58.0874V50.1788Z" fill="white"/>
</g>
<g filter="url(#filter8_d_1349_4162)">
<path d="M66.2471 39.2328C66.8212 41.1324 67.1431 43.0995 67.2035 45.083H72.216C72.0368 42.1052 70.9724 39.2487 69.1594 36.8799C68.2802 37.7708 67.3033 38.5604 66.2471 39.2328V39.2328Z" fill="white"/>
</g>
<g filter="url(#filter9_d_1349_4162)">
<path d="M67.9574 35.4884C66.1781 33.663 63.9649 32.3187 61.5249 31.5813C63.3001 33.2173 64.6936 35.2243 65.6055 37.4601C66.4555 36.886 67.2436 36.2248 67.9574 35.4884Z" fill="white"/>
</g>
<g filter="url(#filter10_d_1349_4162)">
<path d="M45.2213 55.1242C46.103 54.2379 47.0809 53.4529 48.1361 52.783C47.5584 50.8789 47.2355 48.9061 47.1746 46.917H42.1621C42.3412 49.8963 43.4067 52.7544 45.2213 55.1242V55.1242Z" fill="white"/>
</g>
<g filter="url(#filter11_d_1349_4162)">
<path d="M58.0874 45.0829H65.3684C65.308 43.4146 65.048 41.7597 64.5936 40.1533C62.5636 41.1527 60.3483 41.7203 58.0874 41.82V45.0829Z" fill="white"/>
</g>
<g filter="url(#filter12_d_1349_4162)">
<path d="M52.8538 31.5813C50.4153 32.3182 48.2031 33.6615 46.4243 35.4853C47.1402 36.2171 47.9293 36.8737 48.7788 37.4453C49.6907 35.2156 51.0821 33.2137 52.8538 31.5813Z" fill="white"/>
</g>
<g filter="url(#filter13_d_1349_4162)">
<path d="M56.2535 31.3367C53.6334 32.8744 51.5951 35.3216 50.3613 38.3848C52.1944 39.3172 54.2004 39.8601 56.2535 39.9794V31.3367Z" fill="white"/>
</g>
<g filter="url(#filter14_d_1349_4162)">
<path d="M58.0874 60.6637C60.7075 59.1234 62.7529 56.6696 63.9862 53.5982C62.1516 52.6648 60.1425 52.1254 58.0874 52.0154V60.6637Z" fill="white"/>
</g>
<g filter="url(#filter15_d_1349_4162)">
<path d="M57.5633 20.3712C57.5633 17.9876 55.652 16 53.2683 16H28.0781C25.6939 16 23.7642 17.9876 23.7642 20.3712V24.5153H57.5633V20.3712ZM45.1317 20.8472H36.2142C35.7076 20.8472 35.2971 20.4367 35.2971 19.9301C35.2971 19.4235 35.7076 19.0131 36.2142 19.0131H45.1317C45.6383 19.0131 46.0487 19.4235 46.0487 19.9301C46.0487 20.4367 45.6383 20.8472 45.1317 20.8472Z" fill="white"/>
</g>
<g filter="url(#filter16_d_1349_4162)">
<path d="M48.7783 54.5547C47.9288 55.1263 47.1402 55.7829 46.4243 56.5151C48.2031 58.3385 50.4143 59.6818 52.8527 60.4187C51.0816 58.7862 49.6907 56.7843 48.7783 54.5547V54.5547Z" fill="white"/>
</g>
<g filter="url(#filter17_d_1349_4162)">
<path d="M61.5259 60.4186C63.9653 59.6807 66.1781 58.3364 67.9574 56.5115C67.2435 55.7751 66.4554 55.114 65.6059 54.5398C64.6935 56.7751 63.3006 58.7821 61.5259 60.4186V60.4186Z" fill="white"/>
</g>
<g filter="url(#filter18_d_1349_4162)">
<path d="M66.2471 52.7672C67.3033 53.4396 68.2807 54.2292 69.1599 55.1201C70.973 52.7513 72.0374 49.8948 72.2165 46.917H67.204C67.1431 48.9005 66.8217 50.8676 66.2471 52.7672Z" fill="white"/>
</g>
<g filter="url(#filter19_d_1349_4162)">
<path d="M56.2534 41.8175C54.0022 41.6922 51.7987 41.1211 49.7707 40.1365C49.3199 41.749 49.0645 43.4095 49.0103 45.0829H56.2534V41.8175Z" fill="white"/>
</g>
<g filter="url(#filter20_d_1349_4162)">
<path d="M56.2535 60.6637V52.021C54.2004 52.1402 52.1944 52.6832 50.3613 53.6151C51.5951 56.6783 53.6334 59.1264 56.2535 60.6637Z" fill="white"/>
</g>
<g filter="url(#filter21_d_1349_4162)">
<path d="M56.2534 46.917H49.0103C49.0645 48.5904 49.3199 50.2515 49.7707 51.8639C51.7992 50.8799 54.0027 50.3083 56.2534 50.1829V46.917Z" fill="white"/>
</g>
</g>
<defs>
<filter id="filter0_d_1349_4162" x="0" y="0" width="102" height="102" filterUnits="userSpaceOnUse" color-interpolation-filters="sRGB">
<feFlood flood-opacity="0" result="BackgroundImageFix"/>
<feColorMatrix in="SourceAlpha" type="matrix" values="0 0 0 0 0 0 0 0 0 0 0 0 0 0 0 0 0 0 127 0" result="hardAlpha"/>
<feOffset dx="8" dy="8"/>
<feGaussianBlur stdDeviation="2"/>
<feComposite in2="hardAlpha" operator="out"/>
<feColorMatrix type="matrix" values="0 0 0 0 0 0 0 0 0 0 0 0 0 0 0 0 0 0 0.25 0"/>
<feBlend mode="normal" in2="BackgroundImageFix" result="effect1_dropShadow_1349_4162"/>
<feBlend mode="normal" in="SourceGraphic" in2="effect1_dropShadow_1349_4162" result="shape"/>
</filter>
<filter id="filter1_d_1349_4162" x="17" y="16" width="68" height="68" filterUnits="userSpaceOnUse" color-interpolation-filters="sRGB">
<feFlood flood-opacity="0" result="BackgroundImageFix"/>
<feColorMatrix in="SourceAlpha" type="matrix" values="0 0 0 0 0 0 0 0 0 0 0 0 0 0 0 0 0 0 127 0" result="hardAlpha"/>
<feOffset dx="3" dy="4"/>
<feGaussianBlur stdDeviation="2"/>
<feComposite in2="hardAlpha" operator="out"/>
<feColorMatrix type="matrix" values="0 0 0 0 0 0 0 0 0 0 0 0 0 0 0 0 0 0 0.25 0"/>
<feBlend mode="normal" in2="BackgroundImageFix" result="effect1_dropShadow_1349_4162"/>
<feBlend mode="normal" in="SourceGraphic" in2="effect1_dropShadow_1349_4162" result="shape"/>
</filter>
<filter id="filter2_d_1349_4162" x="19.7642" y="65.3887" width="41.7993" height="18.6113" filterUnits="userSpaceOnUse" color-interpolation-filters="sRGB">
<feFlood flood-opacity="0" result="BackgroundImageFix"/>
<feColorMatrix in="SourceAlpha" type="matrix" values="0 0 0 0 0 0 0 0 0 0 0 0 0 0 0 0 0 0 127 0" result="hardAlpha"/>
<feOffset dy="4"/>
<feGaussianBlur stdDeviation="2"/>
<feComposite in2="hardAlpha" operator="out"/>
<feColorMatrix type="matrix" values="0 0 0 0 0 0 0 0 0 0 0 0 0 0 0 0 0 0 0.25 0"/>
<feBlend mode="normal" in2="BackgroundImageFix" result="effect1_dropShadow_1349_4162"/>
<feBlend mode="normal" in="SourceGraphic" in2="effect1_dropShadow_1349_4162" result="shape"/>
</filter>
<filter id="filter3_d_1349_4162" x="34.8462" y="68.8679" width="11.6538" height="11.6538" filterUnits="userSpaceOnUse" color-interpolation-filters="sRGB">
<feFlood flood-opacity="0" result="BackgroundImageFix"/>
<feColorMatrix in="SourceAlpha" type="matrix" values="0 0 0 0 0 0 0 0 0 0 0 0 0 0 0 0 0 0 127 0" result="hardAlpha"/>
<feOffset dy="4"/>
<feGaussianBlur stdDeviation="2"/>
<feComposite in2="hardAlpha" operator="out"/>
<feColorMatrix type="matrix" values="0 0 0 0 0 0 0 0 0 0 0 0 0 0 0 0 0 0 0.25 0"/>
<feBlend mode="normal" in2="BackgroundImageFix" result="effect1_dropShadow_1349_4162"/>
<feBlend mode="normal" in="SourceGraphic" in2="effect1_dropShadow_1349_4162" result="shape"/>
</filter>
<filter id="filter4_d_1349_4162" x="19.7642" y="26.3494" width="41.7993" height="45.2053" filterUnits="userSpaceOnUse" color-interpolation-filters="sRGB">
<feFlood flood-opacity="0" result="BackgroundImageFix"/>
<feColorMatrix in="SourceAlpha" type="matrix" values="0 0 0 0 0 0 0 0 0 0 0 0 0 0 0 0 0 0 127 0" result="hardAlpha"/>
<feOffset dy="4"/>
<feGaussianBlur stdDeviation="2"/>
<feComposite in2="hardAlpha" operator="out"/>
<feColorMatrix type="matrix" values="0 0 0 0 0 0 0 0 0 0 0 0 0 0 0 0 0 0 0.25 0"/>
<feBlend mode="normal" in2="BackgroundImageFix" result="effect1_dropShadow_1349_4162"/>
<feBlend mode="normal" in="SourceGraphic" in2="effect1_dropShadow_1349_4162" result="shape"/>
</filter>
<filter id="filter5_d_1349_4162" x="38.1621" y="36.8757" width="13.9741" height="16.2073" filterUnits="userSpaceOnUse" color-interpolation-filters="sRGB">
<feFlood flood-opacity="0" result="BackgroundImageFix"/>
<feColorMatrix in="SourceAlpha" type="matrix" values="0 0 0 0 0 0 0 0 0 0 0 0 0 0 0 0 0 0 127 0" result="hardAlpha"/>
<feOffset dy="4"/>
<feGaussianBlur stdDeviation="2"/>
<feComposite in2="hardAlpha" operator="out"/>
<feColorMatrix type="matrix" values="0 0 0 0 0 0 0 0 0 0 0 0 0 0 0 0 0 0 0.25 0"/>
<feBlend mode="normal" in2="BackgroundImageFix" result="effect1_dropShadow_1349_4162"/>
<feBlend mode="normal" in="SourceGraphic" in2="effect1_dropShadow_1349_4162" result="shape"/>
</filter>
<filter id="filter6_d_1349_4162" x="54.0874" y="31.3372" width="13.8984" height="16.6467" filterUnits="userSpaceOnUse" color-interpolation-filters="sRGB">
<feFlood flood-opacity="0" result="BackgroundImageFix"/>
<feColorMatrix in="SourceAlpha" type="matrix" values="0 0 0 0 0 0 0 0 0 0 0 0 0 0 0 0 0 0 127 0" result="hardAlpha"/>
<feOffset dy="4"/>
<feGaussianBlur stdDeviation="2"/>
<feComposite in2="hardAlpha" operator="out"/>
<feColorMatrix type="matrix" values="0 0 0 0 0 0 0 0 0 0 0 0 0 0 0 0 0 0 0.25 0"/>
<feBlend mode="normal" in2="BackgroundImageFix" result="effect1_dropShadow_1349_4162"/>
<feBlend mode="normal" in="SourceGraphic" in2="effect1_dropShadow_1349_4162" result="shape"/>
</filter>
<filter id="filter7_d_1349_4162" x="54.0874" y="46.917" width="15.2808" height="12.9285" filterUnits="userSpaceOnUse" color-interpolation-filters="sRGB">
<feFlood flood-opacity="0" result="BackgroundImageFix"/>
<feColorMatrix in="SourceAlpha" type="matrix" values="0 0 0 0 0 0 0 0 0 0 0 0 0 0 0 0 0 0 127 0" result="hardAlpha"/>
<feOffset dy="4"/>
<feGaussianBlur stdDeviation="2"/>
<feComposite in2="hardAlpha" operator="out"/>
<feColorMatrix type="matrix" values="0 0 0 0 0 0 0 0 0 0 0 0 0 0 0 0 0 0 0.25 0"/>
<feBlend mode="normal" in2="BackgroundImageFix" result="effect1_dropShadow_1349_4162"/>
<feBlend mode="normal" in="SourceGraphic" in2="effect1_dropShadow_1349_4162" result="shape"/>
</filter>
<filter id="filter8_d_1349_4162" x="62.2471" y="36.8799" width="13.9688" height="16.2031" filterUnits="userSpaceOnUse" color-interpolation-filters="sRGB">
<feFlood flood-opacity="0" result="BackgroundImageFix"/>
<feColorMatrix in="SourceAlpha" type="matrix" values="0 0 0 0 0 0 0 0 0 0 0 0 0 0 0 0 0 0 127 0" result="hardAlpha"/>
<feOffset dy="4"/>
<feGaussianBlur stdDeviation="2"/>
<feComposite in2="hardAlpha" operator="out"/>
<feColorMatrix type="matrix" values="0 0 0 0 0 0 0 0 0 0 0 0 0 0 0 0 0 0 0.25 0"/>
<feBlend mode="normal" in2="BackgroundImageFix" result="effect1_dropShadow_1349_4162"/>
<feBlend mode="normal" in="SourceGraphic" in2="effect1_dropShadow_1349_4162" result="shape"/>
</filter>
<filter id="filter9_d_1349_4162" x="57.5249" y="31.5813" width="14.4326" height="13.8789" filterUnits="userSpaceOnUse" color-interpolation-filters="sRGB">
<feFlood flood-opacity="0" result="BackgroundImageFix"/>
<feColorMatrix in="SourceAlpha" type="matrix" values="0 0 0 0 0 0 0 0 0 0 0 0 0 0 0 0 0 0 127 0" result="hardAlpha"/>
<feOffset dy="4"/>
<feGaussianBlur stdDeviation="2"/>
<feComposite in2="hardAlpha" operator="out"/>
<feColorMatrix type="matrix" values="0 0 0 0 0 0 0 0 0 0 0 0 0 0 0 0 0 0 0.25 0"/>
<feBlend mode="normal" in2="BackgroundImageFix" result="effect1_dropShadow_1349_4162"/>
<feBlend mode="normal" in="SourceGraphic" in2="effect1_dropShadow_1349_4162" result="shape"/>
</filter>
<filter id="filter10_d_1349_4162" x="38.1621" y="46.917" width="13.9741" height="16.2073" filterUnits="userSpaceOnUse" color-interpolation-filters="sRGB">
<feFlood flood-opacity="0" result="BackgroundImageFix"/>
<feColorMatrix in="SourceAlpha" type="matrix" values="0 0 0 0 0 0 0 0 0 0 0 0 0 0 0 0 0 0 127 0" result="hardAlpha"/>
<feOffset dy="4"/>
<feGaussianBlur stdDeviation="2"/>
<feComposite in2="hardAlpha" operator="out"/>
<feColorMatrix type="matrix" values="0 0 0 0 0 0 0 0 0 0 0 0 0 0 0 0 0 0 0.25 0"/>
<feBlend mode="normal" in2="BackgroundImageFix" result="effect1_dropShadow_1349_4162"/>
<feBlend mode="normal" in="SourceGraphic" in2="effect1_dropShadow_1349_4162" result="shape"/>
</filter>
<filter id="filter11_d_1349_4162" x="54.0874" y="40.1533" width="15.2808" height="12.9294" filterUnits="userSpaceOnUse" color-interpolation-filters="sRGB">
<feFlood flood-opacity="0" result="BackgroundImageFix"/>
<feColorMatrix in="SourceAlpha" type="matrix" values="0 0 0 0 0 0 0 0 0 0 0 0 0 0 0 0 0 0 127 0" result="hardAlpha"/>
<feOffset dy="4"/>
<feGaussianBlur stdDeviation="2"/>
<feComposite in2="hardAlpha" operator="out"/>
<feColorMatrix type="matrix" values="0 0 0 0 0 0 0 0 0 0 0 0 0 0 0 0 0 0 0.25 0"/>
<feBlend mode="normal" in2="BackgroundImageFix" result="effect1_dropShadow_1349_4162"/>
<feBlend mode="normal" in="SourceGraphic" in2="effect1_dropShadow_1349_4162" result="shape"/>
</filter>
<filter id="filter12_d_1349_4162" x="42.4243" y="31.5813" width="14.4297" height="13.864" filterUnits="userSpaceOnUse" color-interpolation-filters="sRGB">
<feFlood flood-opacity="0" result="BackgroundImageFix"/>
<feColorMatrix in="SourceAlpha" type="matrix" values="0 0 0 0 0 0 0 0 0 0 0 0 0 0 0 0 0 0 127 0" result="hardAlpha"/>
<feOffset dy="4"/>
<feGaussianBlur stdDeviation="2"/>
<feComposite in2="hardAlpha" operator="out"/>
<feColorMatrix type="matrix" values="0 0 0 0 0 0 0 0 0 0 0 0 0 0 0 0 0 0 0.25 0"/>
<feBlend mode="normal" in2="BackgroundImageFix" result="effect1_dropShadow_1349_4162"/>
<feBlend mode="normal" in="SourceGraphic" in2="effect1_dropShadow_1349_4162" result="shape"/>
</filter>
<filter id="filter13_d_1349_4162" x="46.3613" y="31.3367" width="13.8921" height="16.6428" filterUnits="userSpaceOnUse" color-interpolation-filters="sRGB">
<feFlood flood-opacity="0" result="BackgroundImageFix"/>
<feColorMatrix in="SourceAlpha" type="matrix" values="0 0 0 0 0 0 0 0 0 0 0 0 0 0 0 0 0 0 127 0" result="hardAlpha"/>
<feOffset dy="4"/>
<feGaussianBlur stdDeviation="2"/>
<feComposite in2="hardAlpha" operator="out"/>
<feColorMatrix type="matrix" values="0 0 0 0 0 0 0 0 0 0 0 0 0 0 0 0 0 0 0.25 0"/>
<feBlend mode="normal" in2="BackgroundImageFix" result="effect1_dropShadow_1349_4162"/>
<feBlend mode="normal" in="SourceGraphic" in2="effect1_dropShadow_1349_4162" result="shape"/>
</filter>
<filter id="filter14_d_1349_4162" x="54.0874" y="52.0154" width="13.8989" height="16.6484" filterUnits="userSpaceOnUse" color-interpolation-filters="sRGB">
<feFlood flood-opacity="0" result="BackgroundImageFix"/>
<feColorMatrix in="SourceAlpha" type="matrix" values="0 0 0 0 0 0 0 0 0 0 0 0 0 0 0 0 0 0 127 0" result="hardAlpha"/>
<feOffset dy="4"/>
<feGaussianBlur stdDeviation="2"/>
<feComposite in2="hardAlpha" operator="out"/>
<feColorMatrix type="matrix" values="0 0 0 0 0 0 0 0 0 0 0 0 0 0 0 0 0 0 0.25 0"/>
<feBlend mode="normal" in2="BackgroundImageFix" result="effect1_dropShadow_1349_4162"/>
<feBlend mode="normal" in="SourceGraphic" in2="effect1_dropShadow_1349_4162" result="shape"/>
</filter>
<filter id="filter15_d_1349_4162" x="19.7642" y="16" width="41.7993" height="16.5154" filterUnits="userSpaceOnUse" color-interpolation-filters="sRGB">
<feFlood flood-opacity="0" result="BackgroundImageFix"/>
<feColorMatrix in="SourceAlpha" type="matrix" values="0 0 0 0 0 0 0 0 0 0 0 0 0 0 0 0 0 0 127 0" result="hardAlpha"/>
<feOffset dy="4"/>
<feGaussianBlur stdDeviation="2"/>
<feComposite in2="hardAlpha" operator="out"/>
<feColorMatrix type="matrix" values="0 0 0 0 0 0 0 0 0 0 0 0 0 0 0 0 0 0 0.25 0"/>
<feBlend mode="normal" in2="BackgroundImageFix" result="effect1_dropShadow_1349_4162"/>
<feBlend mode="normal" in="SourceGraphic" in2="effect1_dropShadow_1349_4162" result="shape"/>
</filter>
<filter id="filter16_d_1349_4162" x="42.4243" y="54.5547" width="14.4282" height="13.864" filterUnits="userSpaceOnUse" color-interpolation-filters="sRGB">
<feFlood flood-opacity="0" result="BackgroundImageFix"/>
<feColorMatrix in="SourceAlpha" type="matrix" values="0 0 0 0 0 0 0 0 0 0 0 0 0 0 0 0 0 0 127 0" result="hardAlpha"/>
<feOffset dy="4"/>
<feGaussianBlur stdDeviation="2"/>
<feComposite in2="hardAlpha" operator="out"/>
<feColorMatrix type="matrix" values="0 0 0 0 0 0 0 0 0 0 0 0 0 0 0 0 0 0 0.25 0"/>
<feBlend mode="normal" in2="BackgroundImageFix" result="effect1_dropShadow_1349_4162"/>
<feBlend mode="normal" in="SourceGraphic" in2="effect1_dropShadow_1349_4162" result="shape"/>
</filter>
<filter id="filter17_d_1349_4162" x="57.5259" y="54.5398" width="14.4316" height="13.8789" filterUnits="userSpaceOnUse" color-interpolation-filters="sRGB">
<feFlood flood-opacity="0" result="BackgroundImageFix"/>
<feColorMatrix in="SourceAlpha" type="matrix" values="0 0 0 0 0 0 0 0 0 0 0 0 0 0 0 0 0 0 127 0" result="hardAlpha"/>
<feOffset dy="4"/>
<feGaussianBlur stdDeviation="2"/>
<feComposite in2="hardAlpha" operator="out"/>
<feColorMatrix type="matrix" values="0 0 0 0 0 0 0 0 0 0 0 0 0 0 0 0 0 0 0.25 0"/>
<feBlend mode="normal" in2="BackgroundImageFix" result="effect1_dropShadow_1349_4162"/>
<feBlend mode="normal" in="SourceGraphic" in2="effect1_dropShadow_1349_4162" result="shape"/>
</filter>
<filter id="filter18_d_1349_4162" x="62.2471" y="46.917" width="13.9692" height="16.2031" filterUnits="userSpaceOnUse" color-interpolation-filters="sRGB">
<feFlood flood-opacity="0" result="BackgroundImageFix"/>
<feColorMatrix in="SourceAlpha" type="matrix" values="0 0 0 0 0 0 0 0 0 0 0 0 0 0 0 0 0 0 127 0" result="hardAlpha"/>
<feOffset dy="4"/>
<feGaussianBlur stdDeviation="2"/>
<feComposite in2="hardAlpha" operator="out"/>
<feColorMatrix type="matrix" values="0 0 0 0 0 0 0 0 0 0 0 0 0 0 0 0 0 0 0.25 0"/>
<feBlend mode="normal" in2="BackgroundImageFix" result="effect1_dropShadow_1349_4162"/>
<feBlend mode="normal" in="SourceGraphic" in2="effect1_dropShadow_1349_4162" result="shape"/>
</filter>
<filter id="filter19_d_1349_4162" x="45.0103" y="40.1365" width="15.2432" height="12.9465" filterUnits="userSpaceOnUse" color-interpolation-filters="sRGB">
<feFlood flood-opacity="0" result="BackgroundImageFix"/>
<feColorMatrix in="SourceAlpha" type="matrix" values="0 0 0 0 0 0 0 0 0 0 0 0 0 0 0 0 0 0 127 0" result="hardAlpha"/>
<feOffset dy="4"/>
<feGaussianBlur stdDeviation="2"/>
<feComposite in2="hardAlpha" operator="out"/>
<feColorMatrix type="matrix" values="0 0 0 0 0 0 0 0 0 0 0 0 0 0 0 0 0 0 0.25 0"/>
<feBlend mode="normal" in2="BackgroundImageFix" result="effect1_dropShadow_1349_4162"/>
<feBlend mode="normal" in="SourceGraphic" in2="effect1_dropShadow_1349_4162" result="shape"/>
</filter>
<filter id="filter20_d_1349_4162" x="46.3613" y="52.021" width="13.8921" height="16.6428" filterUnits="userSpaceOnUse" color-interpolation-filters="sRGB">
<feFlood flood-opacity="0" result="BackgroundImageFix"/>
<feColorMatrix in="SourceAlpha" type="matrix" values="0 0 0 0 0 0 0 0 0 0 0 0 0 0 0 0 0 0 127 0" result="hardAlpha"/>
<feOffset dy="4"/>
<feGaussianBlur stdDeviation="2"/>
<feComposite in2="hardAlpha" operator="out"/>
<feColorMatrix type="matrix" values="0 0 0 0 0 0 0 0 0 0 0 0 0 0 0 0 0 0 0.25 0"/>
<feBlend mode="normal" in2="BackgroundImageFix" result="effect1_dropShadow_1349_4162"/>
<feBlend mode="normal" in="SourceGraphic" in2="effect1_dropShadow_1349_4162" result="shape"/>
</filter>
<filter id="filter21_d_1349_4162" x="45.0103" y="46.917" width="15.2432" height="12.947" filterUnits="userSpaceOnUse" color-interpolation-filters="sRGB">
<feFlood flood-opacity="0" result="BackgroundImageFix"/>
<feColorMatrix in="SourceAlpha" type="matrix" values="0 0 0 0 0 0 0 0 0 0 0 0 0 0 0 0 0 0 127 0" result="hardAlpha"/>
<feOffset dy="4"/>
<feGaussianBlur stdDeviation="2"/>
<feComposite in2="hardAlpha" operator="out"/>
<feColorMatrix type="matrix" values="0 0 0 0 0 0 0 0 0 0 0 0 0 0 0 0 0 0 0.25 0"/>
<feBlend mode="normal" in2="BackgroundImageFix" result="effect1_dropShadow_1349_4162"/>
<feBlend mode="normal" in="SourceGraphic" in2="effect1_dropShadow_1349_4162" result="shape"/>
</filter>
<clipPath id="clip0_1349_4162">
<rect width="60" height="60" fill="white" transform="translate(18 16)"/>
</clipPath>
</defs>
</svg>
