<svg width="102" height="102" viewBox="0 0 102 102" fill="none" xmlns="http://www.w3.org/2000/svg">
<g filter="url(#filter0_d_1349_4158)">
<rect width="90" height="90" rx="45" fill="#B4D2FF" fill-opacity="0.5" shape-rendering="crispEdges"/>
<rect x="0.5" y="0.5" width="89" height="89" rx="44.5" stroke="white" stroke-opacity="0.7" stroke-dasharray="7 7" shape-rendering="crispEdges"/>
</g>
<g clip-path="url(#clip0_1349_4158)" filter="url(#filter1_d_1349_4158)">
<g filter="url(#filter2_d_1349_4158)">
<path d="M60.2303 53.4944V50.2411C60.2303 49.7235 59.8052 49.2983 59.2876 49.2983H46.9212C46.4037 49.2983 45.9785 49.7235 45.9785 50.2411V53.4944C45.9785 54.012 46.4037 54.4371 46.9212 54.4371H59.2876C59.8052 54.4371 60.2303 54.012 60.2303 53.4944Z" fill="white"/>
</g>
<g filter="url(#filter3_d_1349_4158)">
<path d="M64.0106 43.2538C64.0106 42.7362 63.5855 42.311 63.0679 42.311H50.7015C50.1839 42.311 49.7588 42.7362 49.7588 43.2538V46.5071C49.7588 47.0247 50.1839 47.4498 50.7015 47.4498H63.0586C63.5762 47.4498 64.0014 47.0247 64.0014 46.5071V43.2538H64.0106Z" fill="white"/>
</g>
<g filter="url(#filter4_d_1349_4158)">
<path d="M47.9105 46.5071V43.2538C47.9105 42.7362 47.4854 42.311 46.9678 42.311H34.6107C34.0931 42.311 33.668 42.7362 33.668 43.2538V46.5071C33.668 47.0247 34.0931 47.4498 34.6107 47.4498H46.9678C47.4854 47.4498 47.9105 47.0247 47.9105 46.5071Z" fill="white"/>
</g>
<g filter="url(#filter5_d_1349_4158)">
<path d="M30.8211 54.4371H43.1783C43.6958 54.4371 44.121 54.012 44.121 53.4944V50.2411C44.121 49.7235 43.6958 49.2983 43.1783 49.2983H30.8211C30.3036 49.2983 29.8784 49.7235 29.8784 50.2411V53.4944C29.8784 54.012 30.3036 54.4371 30.8211 54.4371V54.4371Z" fill="white"/>
</g>
<g filter="url(#filter6_d_1349_4158)">
<path d="M49.7587 40.3333C55.6276 40.3333 60.3875 35.5734 60.3875 29.7045C60.3875 23.8355 55.6276 19.0757 49.7587 19.0757C43.8897 19.0757 39.1299 23.8355 39.1299 29.7045C39.1299 35.5734 43.8897 40.3333 49.7587 40.3333ZM49.7587 30.6287C47.8547 30.6287 46.302 29.076 46.302 27.172C46.302 25.5916 47.3741 24.2607 48.8344 23.854V22.8928C48.8344 22.3845 49.2503 21.9686 49.7587 21.9686C50.267 21.9686 50.6829 22.3845 50.6829 22.8928V23.854C52.134 24.2607 53.2153 25.5824 53.2153 27.172C53.2153 27.6804 52.7994 28.0963 52.2911 28.0963C51.7828 28.0963 51.3669 27.6804 51.3669 27.172C51.3669 26.2848 50.6459 25.5639 49.7587 25.5639C48.8714 25.5639 48.1505 26.2848 48.1505 27.172C48.1505 28.0593 48.8714 28.7802 49.7587 28.7802C51.6626 28.7802 53.2153 30.333 53.2153 32.2369C53.2153 33.8174 52.1432 35.1483 50.6829 35.5549V36.5161C50.6829 37.0245 50.267 37.4404 49.7587 37.4404C49.2503 37.4404 48.8344 37.0245 48.8344 36.5161V35.5549C47.3834 35.1483 46.302 33.8266 46.302 32.2369C46.302 31.7286 46.7179 31.3127 47.2262 31.3127C47.7346 31.3127 48.1505 31.7286 48.1505 32.2369C48.1505 33.1242 48.8714 33.8451 49.7587 33.8451C50.6459 33.8451 51.3669 33.1242 51.3669 32.2369C51.3669 31.3496 50.6459 30.6287 49.7587 30.6287Z" fill="white"/>
</g>
<g filter="url(#filter7_d_1349_4158)">
<path d="M68.7705 59.3263C68.0311 58.2634 66.6262 57.9399 65.4986 58.5776L52.6886 65.7498C51.94 66.4152 50.9603 66.8126 49.8789 66.8126H41.3205C40.8121 66.8126 40.3962 66.3967 40.3962 65.8884C40.3962 65.3801 40.8121 64.9641 41.3205 64.9641H49.8789C50.4889 64.9641 51.0342 64.7331 51.4594 64.3634C51.4871 64.3357 51.5149 64.3079 51.5518 64.2802C51.9955 63.8458 52.2635 63.2451 52.2635 62.5796C52.2635 61.2672 51.1914 60.1951 49.8789 60.1951H43.7789C42.3186 60.1951 40.8306 59.7422 39.4812 58.8734C38.1688 58.0323 36.2279 57.5425 34.1761 57.5425C31.6714 57.5425 29.3608 58.2634 28.1592 59.4187C26.8099 60.7219 24.9521 61.4335 22.928 61.4335H19.7764V73.4857C22.8264 72.6723 26.015 72.4043 28.8986 72.4043C34.3517 72.4043 38.7049 73.3655 38.9914 73.4302C39.2502 73.4672 39.5644 73.5134 39.8786 73.5504C45.193 74.1973 50.7662 73.0051 55.5723 70.1861L67.9941 62.9031C68.6041 62.5426 69.02 61.9696 69.1771 61.2764C69.3158 60.611 69.1771 59.9085 68.7705 59.3263V59.3263Z" fill="white"/>
</g>
<g filter="url(#filter8_d_1349_4158)">
<path d="M34.176 25.1849L35.1095 22.1626L38.1317 21.2292L35.1095 20.2864L34.176 17.2642L33.2425 20.2864L30.2202 21.2292L33.2425 22.1626L34.176 25.1849Z" fill="white"/>
</g>
<g filter="url(#filter9_d_1349_4158)">
<path d="M64.676 40.8968L65.6095 37.8746L68.6317 36.9411L65.6095 35.9983L64.676 32.9761L63.7425 35.9983L60.7202 36.9411L63.7425 37.8746L64.676 40.8968Z" fill="white"/>
</g>
<g filter="url(#filter10_d_1349_4158)">
<path d="M38.2056 56.2856C39.0559 56.5537 39.8322 56.8956 40.4884 57.3116C41.5421 57.9863 42.6789 58.3375 43.788 58.3375H47.9101V57.2284C47.9101 56.7108 47.485 56.2856 46.9674 56.2856H38.2056Z" fill="white"/>
</g>
<g filter="url(#filter11_d_1349_4158)">
<path d="M53.9364 61.4245H56.6167L64.0106 57.2839V57.2376C64.0106 56.7201 63.5855 56.2949 63.0679 56.2949H50.7015C50.1839 56.2949 49.7588 56.7201 49.7588 57.2376V58.3467H49.8789C51.8199 58.3467 53.4373 59.6499 53.9364 61.4245V61.4245Z" fill="white"/>
</g>
</g>
<defs>
<filter id="filter0_d_1349_4158" x="0" y="0" width="102" height="102" filterUnits="userSpaceOnUse" color-interpolation-filters="sRGB">
<feFlood flood-opacity="0" result="BackgroundImageFix"/>
<feColorMatrix in="SourceAlpha" type="matrix" values="0 0 0 0 0 0 0 0 0 0 0 0 0 0 0 0 0 0 127 0" result="hardAlpha"/>
<feOffset dx="8" dy="8"/>
<feGaussianBlur stdDeviation="2"/>
<feComposite in2="hardAlpha" operator="out"/>
<feColorMatrix type="matrix" values="0 0 0 0 0 0 0 0 0 0 0 0 0 0 0 0 0 0 0.15 0"/>
<feBlend mode="normal" in2="BackgroundImageFix" result="effect1_dropShadow_1349_4158"/>
<feBlend mode="normal" in="SourceGraphic" in2="effect1_dropShadow_1349_4158" result="shape"/>
</filter>
<filter id="filter1_d_1349_4158" x="13" y="15" width="69" height="69" filterUnits="userSpaceOnUse" color-interpolation-filters="sRGB">
<feFlood flood-opacity="0" result="BackgroundImageFix"/>
<feColorMatrix in="SourceAlpha" type="matrix" values="0 0 0 0 0 0 0 0 0 0 0 0 0 0 0 0 0 0 127 0" result="hardAlpha"/>
<feOffset dx="3" dy="4"/>
<feGaussianBlur stdDeviation="2"/>
<feComposite in2="hardAlpha" operator="out"/>
<feColorMatrix type="matrix" values="0 0 0 0 0 0 0 0 0 0 0 0 0 0 0 0 0 0 0.25 0"/>
<feBlend mode="normal" in2="BackgroundImageFix" result="effect1_dropShadow_1349_4158"/>
<feBlend mode="normal" in="SourceGraphic" in2="effect1_dropShadow_1349_4158" result="shape"/>
</filter>
<filter id="filter2_d_1349_4158" x="41.9785" y="49.2983" width="22.252" height="13.1387" filterUnits="userSpaceOnUse" color-interpolation-filters="sRGB">
<feFlood flood-opacity="0" result="BackgroundImageFix"/>
<feColorMatrix in="SourceAlpha" type="matrix" values="0 0 0 0 0 0 0 0 0 0 0 0 0 0 0 0 0 0 127 0" result="hardAlpha"/>
<feOffset dy="4"/>
<feGaussianBlur stdDeviation="2"/>
<feComposite in2="hardAlpha" operator="out"/>
<feColorMatrix type="matrix" values="0 0 0 0 0 0 0 0 0 0 0 0 0 0 0 0 0 0 0.25 0"/>
<feBlend mode="normal" in2="BackgroundImageFix" result="effect1_dropShadow_1349_4158"/>
<feBlend mode="normal" in="SourceGraphic" in2="effect1_dropShadow_1349_4158" result="shape"/>
</filter>
<filter id="filter3_d_1349_4158" x="45.7588" y="42.311" width="22.252" height="13.1387" filterUnits="userSpaceOnUse" color-interpolation-filters="sRGB">
<feFlood flood-opacity="0" result="BackgroundImageFix"/>
<feColorMatrix in="SourceAlpha" type="matrix" values="0 0 0 0 0 0 0 0 0 0 0 0 0 0 0 0 0 0 127 0" result="hardAlpha"/>
<feOffset dy="4"/>
<feGaussianBlur stdDeviation="2"/>
<feComposite in2="hardAlpha" operator="out"/>
<feColorMatrix type="matrix" values="0 0 0 0 0 0 0 0 0 0 0 0 0 0 0 0 0 0 0.25 0"/>
<feBlend mode="normal" in2="BackgroundImageFix" result="effect1_dropShadow_1349_4158"/>
<feBlend mode="normal" in="SourceGraphic" in2="effect1_dropShadow_1349_4158" result="shape"/>
</filter>
<filter id="filter4_d_1349_4158" x="29.668" y="42.311" width="22.2427" height="13.1387" filterUnits="userSpaceOnUse" color-interpolation-filters="sRGB">
<feFlood flood-opacity="0" result="BackgroundImageFix"/>
<feColorMatrix in="SourceAlpha" type="matrix" values="0 0 0 0 0 0 0 0 0 0 0 0 0 0 0 0 0 0 127 0" result="hardAlpha"/>
<feOffset dy="4"/>
<feGaussianBlur stdDeviation="2"/>
<feComposite in2="hardAlpha" operator="out"/>
<feColorMatrix type="matrix" values="0 0 0 0 0 0 0 0 0 0 0 0 0 0 0 0 0 0 0.25 0"/>
<feBlend mode="normal" in2="BackgroundImageFix" result="effect1_dropShadow_1349_4158"/>
<feBlend mode="normal" in="SourceGraphic" in2="effect1_dropShadow_1349_4158" result="shape"/>
</filter>
<filter id="filter5_d_1349_4158" x="25.8784" y="49.2983" width="22.2427" height="13.1387" filterUnits="userSpaceOnUse" color-interpolation-filters="sRGB">
<feFlood flood-opacity="0" result="BackgroundImageFix"/>
<feColorMatrix in="SourceAlpha" type="matrix" values="0 0 0 0 0 0 0 0 0 0 0 0 0 0 0 0 0 0 127 0" result="hardAlpha"/>
<feOffset dy="4"/>
<feGaussianBlur stdDeviation="2"/>
<feComposite in2="hardAlpha" operator="out"/>
<feColorMatrix type="matrix" values="0 0 0 0 0 0 0 0 0 0 0 0 0 0 0 0 0 0 0.25 0"/>
<feBlend mode="normal" in2="BackgroundImageFix" result="effect1_dropShadow_1349_4158"/>
<feBlend mode="normal" in="SourceGraphic" in2="effect1_dropShadow_1349_4158" result="shape"/>
</filter>
<filter id="filter6_d_1349_4158" x="35.1299" y="19.0757" width="29.2578" height="29.2578" filterUnits="userSpaceOnUse" color-interpolation-filters="sRGB">
<feFlood flood-opacity="0" result="BackgroundImageFix"/>
<feColorMatrix in="SourceAlpha" type="matrix" values="0 0 0 0 0 0 0 0 0 0 0 0 0 0 0 0 0 0 127 0" result="hardAlpha"/>
<feOffset dy="4"/>
<feGaussianBlur stdDeviation="2"/>
<feComposite in2="hardAlpha" operator="out"/>
<feColorMatrix type="matrix" values="0 0 0 0 0 0 0 0 0 0 0 0 0 0 0 0 0 0 0.25 0"/>
<feBlend mode="normal" in2="BackgroundImageFix" result="effect1_dropShadow_1349_4158"/>
<feBlend mode="normal" in="SourceGraphic" in2="effect1_dropShadow_1349_4158" result="shape"/>
</filter>
<filter id="filter7_d_1349_4158" x="15.7764" y="57.5425" width="57.4531" height="24.1797" filterUnits="userSpaceOnUse" color-interpolation-filters="sRGB">
<feFlood flood-opacity="0" result="BackgroundImageFix"/>
<feColorMatrix in="SourceAlpha" type="matrix" values="0 0 0 0 0 0 0 0 0 0 0 0 0 0 0 0 0 0 127 0" result="hardAlpha"/>
<feOffset dy="4"/>
<feGaussianBlur stdDeviation="2"/>
<feComposite in2="hardAlpha" operator="out"/>
<feColorMatrix type="matrix" values="0 0 0 0 0 0 0 0 0 0 0 0 0 0 0 0 0 0 0.25 0"/>
<feBlend mode="normal" in2="BackgroundImageFix" result="effect1_dropShadow_1349_4158"/>
<feBlend mode="normal" in="SourceGraphic" in2="effect1_dropShadow_1349_4158" result="shape"/>
</filter>
<filter id="filter8_d_1349_4158" x="26.2202" y="17.2642" width="15.9116" height="15.9209" filterUnits="userSpaceOnUse" color-interpolation-filters="sRGB">
<feFlood flood-opacity="0" result="BackgroundImageFix"/>
<feColorMatrix in="SourceAlpha" type="matrix" values="0 0 0 0 0 0 0 0 0 0 0 0 0 0 0 0 0 0 127 0" result="hardAlpha"/>
<feOffset dy="4"/>
<feGaussianBlur stdDeviation="2"/>
<feComposite in2="hardAlpha" operator="out"/>
<feColorMatrix type="matrix" values="0 0 0 0 0 0 0 0 0 0 0 0 0 0 0 0 0 0 0.25 0"/>
<feBlend mode="normal" in2="BackgroundImageFix" result="effect1_dropShadow_1349_4158"/>
<feBlend mode="normal" in="SourceGraphic" in2="effect1_dropShadow_1349_4158" result="shape"/>
</filter>
<filter id="filter9_d_1349_4158" x="56.7202" y="32.9761" width="15.9116" height="15.9209" filterUnits="userSpaceOnUse" color-interpolation-filters="sRGB">
<feFlood flood-opacity="0" result="BackgroundImageFix"/>
<feColorMatrix in="SourceAlpha" type="matrix" values="0 0 0 0 0 0 0 0 0 0 0 0 0 0 0 0 0 0 127 0" result="hardAlpha"/>
<feOffset dy="4"/>
<feGaussianBlur stdDeviation="2"/>
<feComposite in2="hardAlpha" operator="out"/>
<feColorMatrix type="matrix" values="0 0 0 0 0 0 0 0 0 0 0 0 0 0 0 0 0 0 0.25 0"/>
<feBlend mode="normal" in2="BackgroundImageFix" result="effect1_dropShadow_1349_4158"/>
<feBlend mode="normal" in="SourceGraphic" in2="effect1_dropShadow_1349_4158" result="shape"/>
</filter>
<filter id="filter10_d_1349_4158" x="34.2056" y="56.2856" width="17.7046" height="10.0518" filterUnits="userSpaceOnUse" color-interpolation-filters="sRGB">
<feFlood flood-opacity="0" result="BackgroundImageFix"/>
<feColorMatrix in="SourceAlpha" type="matrix" values="0 0 0 0 0 0 0 0 0 0 0 0 0 0 0 0 0 0 127 0" result="hardAlpha"/>
<feOffset dy="4"/>
<feGaussianBlur stdDeviation="2"/>
<feComposite in2="hardAlpha" operator="out"/>
<feColorMatrix type="matrix" values="0 0 0 0 0 0 0 0 0 0 0 0 0 0 0 0 0 0 0.25 0"/>
<feBlend mode="normal" in2="BackgroundImageFix" result="effect1_dropShadow_1349_4158"/>
<feBlend mode="normal" in="SourceGraphic" in2="effect1_dropShadow_1349_4158" result="shape"/>
</filter>
<filter id="filter11_d_1349_4158" x="45.7588" y="56.2949" width="22.252" height="13.1294" filterUnits="userSpaceOnUse" color-interpolation-filters="sRGB">
<feFlood flood-opacity="0" result="BackgroundImageFix"/>
<feColorMatrix in="SourceAlpha" type="matrix" values="0 0 0 0 0 0 0 0 0 0 0 0 0 0 0 0 0 0 127 0" result="hardAlpha"/>
<feOffset dy="4"/>
<feGaussianBlur stdDeviation="2"/>
<feComposite in2="hardAlpha" operator="out"/>
<feColorMatrix type="matrix" values="0 0 0 0 0 0 0 0 0 0 0 0 0 0 0 0 0 0 0.25 0"/>
<feBlend mode="normal" in2="BackgroundImageFix" result="effect1_dropShadow_1349_4158"/>
<feBlend mode="normal" in="SourceGraphic" in2="effect1_dropShadow_1349_4158" result="shape"/>
</filter>
<clipPath id="clip0_1349_4158">
<rect width="61" height="61" fill="white" transform="translate(14 15)"/>
</clipPath>
</defs>
</svg>
