<svg width="102" height="102" viewBox="0 0 102 102" fill="none" xmlns="http://www.w3.org/2000/svg">
<g filter="url(#filter0_d_1349_4157)">
<rect width="90" height="90" rx="45" fill="#B4D2FF" fill-opacity="0.5" shape-rendering="crispEdges"/>
<rect x="0.5" y="0.5" width="89" height="89" rx="44.5" stroke="white" stroke-opacity="0.7" stroke-dasharray="7 7" shape-rendering="crispEdges"/>
</g>
<g filter="url(#filter1_d_1349_4157)">
<g clip-path="url(#clip0_1349_4157)">
<g filter="url(#filter2_d_1349_4157)">
<path d="M46.0639 38.4274V41.8966C46.0639 42.9984 46.284 43.9228 46.7183 44.643C47.3173 45.6369 48.3007 46.2065 49.4173 46.2065C50.5112 46.2065 51.5982 45.6737 52.6479 44.624L64.1062 33.1658C66.622 30.65 66.622 26.5565 64.1062 24.0407L52.6479 12.5824C51.5982 11.5322 50.5112 11 49.4173 11C47.7479 11 46.0639 12.3329 46.0639 15.3099V18.4605C29.7962 19.4213 16.3291 31.9055 14.3277 48.2506C14.2155 49.1634 14.7346 50.0373 15.59 50.3758C15.8322 50.4716 16.0843 50.5179 16.3333 50.5179C16.964 50.5179 17.5757 50.2226 17.9653 49.6904C23.3338 42.3551 31.9535 37.9758 41.0228 37.9758C42.7032 37.9758 44.393 38.1274 46.0639 38.4274V38.4274Z" fill="white"/>
</g>
<g filter="url(#filter3_d_1349_4157)">
<path d="M73.3742 40.6242C72.5188 40.2851 71.5428 40.5673 70.999 41.3101C65.631 48.6448 57.0112 53.0242 47.9419 53.0242C46.2616 53.0242 44.5718 52.8726 42.9009 52.5725V49.1033C42.9009 46.1264 41.2163 44.7935 39.5475 44.7935C38.4536 44.7935 37.3665 45.3262 36.3163 46.3764L24.8581 57.8341C22.3428 60.3499 22.3428 64.4434 24.8586 66.9598L36.3163 78.4175C37.3665 79.4677 38.4536 79.9999 39.5475 79.9999C41.2163 79.9999 42.9009 78.667 42.9009 75.6901V72.5394C59.1691 71.5787 72.6356 59.0944 74.6371 42.7499C74.7492 41.8365 74.2302 40.9626 73.3742 40.6242V40.6242Z" fill="white"/>
</g>
</g>
</g>
<defs>
<filter id="filter0_d_1349_4157" x="0" y="0" width="102" height="102" filterUnits="userSpaceOnUse" color-interpolation-filters="sRGB">
<feFlood flood-opacity="0" result="BackgroundImageFix"/>
<feColorMatrix in="SourceAlpha" type="matrix" values="0 0 0 0 0 0 0 0 0 0 0 0 0 0 0 0 0 0 127 0" result="hardAlpha"/>
<feOffset dx="8" dy="8"/>
<feGaussianBlur stdDeviation="2"/>
<feComposite in2="hardAlpha" operator="out"/>
<feColorMatrix type="matrix" values="0 0 0 0 0 0 0 0 0 0 0 0 0 0 0 0 0 0 0.25 0"/>
<feBlend mode="normal" in2="BackgroundImageFix" result="effect1_dropShadow_1349_4157"/>
<feBlend mode="normal" in="SourceGraphic" in2="effect1_dropShadow_1349_4157" result="shape"/>
</filter>
<filter id="filter1_d_1349_4157" x="9" y="11" width="77" height="77" filterUnits="userSpaceOnUse" color-interpolation-filters="sRGB">
<feFlood flood-opacity="0" result="BackgroundImageFix"/>
<feColorMatrix in="SourceAlpha" type="matrix" values="0 0 0 0 0 0 0 0 0 0 0 0 0 0 0 0 0 0 127 0" result="hardAlpha"/>
<feOffset dx="3" dy="4"/>
<feGaussianBlur stdDeviation="2"/>
<feComposite in2="hardAlpha" operator="out"/>
<feColorMatrix type="matrix" values="0 0 0 0 0 0 0 0 0 0 0 0 0 0 0 0 0 0 0.25 0"/>
<feBlend mode="normal" in2="BackgroundImageFix" result="effect1_dropShadow_1349_4157"/>
<feBlend mode="normal" in="SourceGraphic" in2="effect1_dropShadow_1349_4157" result="shape"/>
</filter>
<filter id="filter2_d_1349_4157" x="10.3125" y="11" width="59.6807" height="47.5178" filterUnits="userSpaceOnUse" color-interpolation-filters="sRGB">
<feFlood flood-opacity="0" result="BackgroundImageFix"/>
<feColorMatrix in="SourceAlpha" type="matrix" values="0 0 0 0 0 0 0 0 0 0 0 0 0 0 0 0 0 0 127 0" result="hardAlpha"/>
<feOffset dy="4"/>
<feGaussianBlur stdDeviation="2"/>
<feComposite in2="hardAlpha" operator="out"/>
<feColorMatrix type="matrix" values="0 0 0 0 0 0 0 0 0 0 0 0 0 0 0 0 0 0 0.25 0"/>
<feBlend mode="normal" in2="BackgroundImageFix" result="effect1_dropShadow_1349_4157"/>
<feBlend mode="normal" in="SourceGraphic" in2="effect1_dropShadow_1349_4157" result="shape"/>
</filter>
<filter id="filter3_d_1349_4157" x="18.9717" y="40.4819" width="59.6807" height="47.5181" filterUnits="userSpaceOnUse" color-interpolation-filters="sRGB">
<feFlood flood-opacity="0" result="BackgroundImageFix"/>
<feColorMatrix in="SourceAlpha" type="matrix" values="0 0 0 0 0 0 0 0 0 0 0 0 0 0 0 0 0 0 127 0" result="hardAlpha"/>
<feOffset dy="4"/>
<feGaussianBlur stdDeviation="2"/>
<feComposite in2="hardAlpha" operator="out"/>
<feColorMatrix type="matrix" values="0 0 0 0 0 0 0 0 0 0 0 0 0 0 0 0 0 0 0.25 0"/>
<feBlend mode="normal" in2="BackgroundImageFix" result="effect1_dropShadow_1349_4157"/>
<feBlend mode="normal" in="SourceGraphic" in2="effect1_dropShadow_1349_4157" result="shape"/>
</filter>
<clipPath id="clip0_1349_4157">
<rect width="69" height="69" fill="white" transform="translate(10 11)"/>
</clipPath>
</defs>
</svg>
