<svg width="51" height="52" viewBox="0 0 51 52" fill="none" xmlns="http://www.w3.org/2000/svg">
<g clip-path="url(#clip0_429_1722)">
<path d="M50.7418 21.2002C50.4042 20.387 49.7763 19.7567 48.9736 19.4252L48.0771 19.055V14.2256C48.0771 12.4028 46.6228 10.92 44.8351 10.92H28.3821L18.9458 7.02233C18.5625 6.86389 18.1262 7.0525 17.971 7.44311C17.8157 7.83372 18.0005 8.27876 18.3837 8.437L24.395 10.92H8.74746L10.2981 7.01705C10.6594 6.10776 11.6789 5.66759 12.5706 6.03596L15.6092 7.29107C15.9927 7.44961 16.4289 7.2609 16.584 6.87029C16.7393 6.47968 16.5544 6.03474 16.1713 5.8764L13.1326 4.62129C11.4761 3.93697 9.58179 4.75454 8.91052 6.44383L7.13219 10.9199H6.16488C4.37729 10.9199 2.923 12.4027 2.923 14.2255V21.5143L0.239023 28.2699C-0.086202 29.0882 -0.079329 29.9867 0.258347 30.7998C0.595923 31.613 1.22386 32.2432 2.02651 32.5747L2.9231 32.945V37.7744C2.9231 39.5972 4.37739 41.08 6.16498 41.08H9.35916C9.77254 41.08 10.1076 40.7383 10.1076 40.3169C10.1076 39.8954 9.77254 39.5537 9.35916 39.5537H6.16498C5.20286 39.5537 4.42003 38.7556 4.42003 37.7745V24.1347H14.2565C12.5284 25.5266 10.223 27.9345 9.25088 31.4039C9.1432 31.7883 9.35477 32.203 9.72502 32.3343C10.1259 32.4765 10.574 32.2388 10.6904 31.8232C11.7001 28.2194 14.4296 25.8454 15.968 24.7499V39.5536H12.3532C11.9398 39.5536 11.6048 39.8953 11.6048 40.3168C11.6048 40.7382 11.9398 41.0799 12.3532 41.0799H22.6182L30.0555 44.1519C30.1476 44.1899 30.2427 44.2079 30.3363 44.2079C30.6321 44.2079 30.9123 44.0279 31.0303 43.7311C31.1856 43.3405 31.0008 42.8954 30.6176 42.7372L26.6052 41.0799H42.2527L40.702 44.9828C40.3408 45.8921 39.3209 46.3323 38.4296 45.9639L33.3992 43.8862C33.0158 43.7278 32.5796 43.9163 32.4244 44.3069C32.2691 44.6976 32.4539 45.1426 32.8371 45.3008L37.8676 47.3786C38.265 47.5428 38.676 47.6205 39.0807 47.6205C40.3626 47.6205 41.5794 46.84 42.0896 45.5561L43.8679 41.08H44.8352C46.6229 41.08 48.0772 39.5972 48.0772 37.7744V30.4856L50.7612 23.7301C51.0862 22.9117 51.0793 22.0133 50.7418 21.2002ZM2.58861 31.1601C2.1566 30.9816 1.81863 30.6423 1.63684 30.2048C1.45515 29.7672 1.45147 29.2836 1.62648 28.8431L2.923 25.5798V31.2983L2.58861 31.1601ZM9.30836 19.7708C9.18006 19.4631 9.08792 18.9715 9.76397 18.2564C10.0752 17.9271 10.4696 17.7168 10.9249 17.7868C11.83 17.9259 13.0248 18.9925 14.2896 20.79C14.729 21.4146 15.1116 22.0348 15.4068 22.5425C12.5383 22.2566 9.85561 21.0838 9.30836 19.7708ZM15.9679 20.5678C14.7797 18.7481 12.9967 16.5622 11.1488 16.2776C10.2387 16.1375 9.38725 16.4555 8.6862 17.197C8.14771 17.7664 7.3336 18.9357 7.93056 20.3677C8.3017 21.2582 9.14002 22.0132 10.2303 22.6081H4.42003V14.2255C4.42003 13.2444 5.20286 12.4463 6.16498 12.4463H15.968V20.5678H15.9679ZM46.5801 37.7744C46.5801 38.7555 45.7973 39.5536 44.8351 39.5536H17.465V24.7499C19.0034 25.8454 21.7329 28.2193 22.7426 31.8232C22.8592 32.2396 23.3068 32.4753 23.708 32.3343C24.0785 32.2041 24.2896 31.7876 24.1821 31.4039C23.21 27.9345 20.9046 25.5266 19.1766 24.1347H46.5801V37.7744ZM18.0258 22.5424C18.3181 22.0397 18.6967 21.4259 19.1325 20.8054C20.4012 18.9987 21.5999 17.9267 22.5076 17.7869C22.9631 17.7166 23.3577 17.9272 23.669 18.2565C24.3451 18.9717 24.2528 19.4633 24.1246 19.7709C23.5773 21.0838 20.8943 22.2566 18.0258 22.5424ZM46.5801 22.6082H23.2026C24.2928 22.0132 25.1312 21.2582 25.5024 20.3678C26.0993 18.9358 25.2852 17.7665 24.7467 17.1971C24.0456 16.4554 23.1933 16.1377 22.284 16.2777C20.4362 16.5623 18.6531 18.7482 17.4649 20.5679V12.4465H44.835C45.7972 12.4465 46.58 13.2446 46.58 14.2257V22.6082H46.5801ZM49.3736 23.157L48.0771 26.4203V20.7018L48.4116 20.8399C48.8435 21.0184 49.1816 21.3577 49.3632 21.7953C49.545 22.2328 49.5487 22.7165 49.3736 23.157Z" fill="white"/>
<path d="M38.2664 35.7425V36.4745C38.2664 36.896 38.6015 37.2377 39.0149 37.2377C39.4284 37.2377 39.7633 36.896 39.7633 36.4745V35.7634C40.3275 35.6414 40.7141 35.3799 40.9617 35.1422C41.4502 34.6735 41.7419 33.9661 41.7419 33.2498C41.7419 32.6632 41.5627 32.1322 41.2236 31.7141C40.7691 31.1537 40.0554 30.8151 39.1022 30.7078C38.2137 30.6079 38.081 30.141 38.081 29.8715C38.081 29.7126 38.1261 28.9194 39.0148 28.9194C39.5871 28.9194 39.8348 29.2675 39.8959 29.3712C40.0082 29.6493 40.2762 29.8453 40.5895 29.8453C41.1535 29.8453 41.4788 29.2471 41.263 28.7434C41.0848 28.3486 40.5942 27.7405 39.7632 27.4986V26.7522C39.7632 26.3307 39.4282 25.989 39.0148 25.989C38.6014 25.989 38.2663 26.3307 38.2663 26.7522V27.4966C37.7567 27.6459 37.3317 27.9533 37.0333 28.398C36.6164 29.0192 36.584 29.683 36.584 29.8716C36.584 30.8352 37.2006 32.0296 38.9381 32.2251C40.2449 32.3721 40.2449 33.0098 40.2449 33.2499C40.2449 33.4841 40.1637 33.8122 39.9358 34.0307C39.7189 34.2387 39.3828 34.3304 38.9372 34.3025C37.9927 34.2438 37.7785 33.6439 37.7572 33.5757L37.7569 33.5758C37.6758 33.2428 37.3815 32.9956 37.0298 32.9956C36.5151 32.9956 36.1477 33.5347 36.3275 34.027C36.4039 34.2713 36.8328 35.4106 38.2664 35.7425Z" fill="white"/>
</g>
<defs>
<clipPath id="clip0_429_1722">
<rect width="51" height="52" fill="white"/>
</clipPath>
</defs>
</svg>
