<svg width="51" height="52" viewBox="0 0 51 52" fill="none" xmlns="http://www.w3.org/2000/svg">
<g clip-path="url(#clip0_429_1729)">
<path d="M33.413 31.7807C33.7634 32.003 34.2243 31.8937 34.4421 31.5365C35.4566 29.875 35.9927 27.9605 35.9927 26.0002C35.9927 20.1679 31.2856 15.423 25.4997 15.423C19.7138 15.423 15.0066 20.1678 15.0066 26.0002C15.0066 31.8325 19.7138 36.5773 25.4997 36.5773C27.8496 36.5773 30.071 35.8119 31.9237 34.3639C32.2512 34.108 32.3132 33.6298 32.0622 33.296C31.8111 32.9621 31.3421 32.8987 31.0147 33.1548C29.4251 34.3972 27.5179 35.0538 25.4997 35.0538C20.5377 35.0538 16.5008 30.9924 16.5008 26.0002C16.5008 21.0079 20.5377 16.9465 25.4997 16.9465C30.4617 16.9465 34.4985 21.0079 34.4985 26.0002C34.4985 27.6757 34.0403 29.3117 33.1736 30.7315C32.9556 31.0885 33.0627 31.5583 33.413 31.7807ZM26.6325 21.6281C27.1574 21.6281 27.5845 22.15 27.5845 22.7915C27.5845 23.2122 27.9189 23.5533 28.3316 23.5533C28.7443 23.5533 29.0787 23.2122 29.0787 22.7915C29.0787 21.31 27.9814 20.1046 26.6325 20.1046H26.2468V19.4088C26.2468 18.9881 25.9124 18.6471 25.4997 18.6471C25.087 18.6471 24.7526 18.9881 24.7526 19.4088V20.1046H24.3668C23.018 20.1046 21.9206 21.31 21.9206 22.7915V24.0749C21.9206 25.5565 23.0181 26.7619 24.3669 26.7619H24.7526V30.3721H24.3668C23.8419 30.3721 23.4148 29.8502 23.4148 29.2087C23.4148 28.788 23.0804 28.4469 22.6677 28.4469C22.255 28.4469 21.9206 28.788 21.9206 29.2087C21.9206 30.6902 23.018 31.8956 24.3668 31.8956H24.7526V32.5914C24.7526 33.0121 25.087 33.3531 25.4997 33.3531C25.9124 33.3531 26.2468 33.0121 26.2468 32.5914V31.8956H26.6325C27.9814 31.8956 29.0787 30.6902 29.0787 29.2087V27.9252C29.0787 27.2224 28.8339 26.5581 28.3893 26.0543C27.9248 25.5281 27.3008 25.2382 26.6324 25.2383H26.2468V21.6281H26.6325ZM24.7526 25.2384H24.3669C23.8419 25.2384 23.4148 24.7164 23.4148 24.0749V22.7915C23.4148 22.15 23.8419 21.6281 24.3668 21.6281H24.7526V25.2384ZM26.6324 26.7618C26.8717 26.7618 27.1012 26.8724 27.2785 27.0734C27.4757 27.2969 27.5844 27.5994 27.5844 27.9252V29.2087C27.5844 29.8502 27.1573 30.3721 26.6324 30.3721H26.2467V26.7618H26.6324ZM50.1797 34.194C49.2697 33.266 47.8845 33.1115 46.8153 33.7288L46.3911 33.2964C46.049 32.9477 45.5616 32.7975 45.0866 32.8942L40.5622 33.817L38.2399 31.4492C38.9439 29.7738 39.3336 27.9321 39.3336 26.0002C39.3336 24.0749 38.9448 22.2318 38.2399 20.5511L40.5622 18.1833L45.0867 19.1061C45.5619 19.2031 46.049 19.0525 46.3912 18.7038L46.8153 18.2715C47.2424 18.5181 47.7197 18.6422 48.1973 18.6422C48.9153 18.6422 49.6332 18.3636 50.1798 17.8063C51.273 16.6917 51.273 14.8781 50.1798 13.7636C49.0866 12.649 47.308 12.6491 46.2148 13.7636C45.3046 14.6916 45.153 16.1039 45.7585 17.1942L45.3537 17.607L40.8289 16.6842C40.3545 16.5869 39.8669 16.7378 39.5239 17.0874L37.5376 19.1126C37.0349 18.2164 36.4368 17.3806 35.7563 16.6198L40.6755 11.6041C41.3485 12.0707 42.1312 12.3048 42.9144 12.3048C43.9346 12.3048 44.955 11.9088 45.7318 11.1167C46.4844 10.3494 46.8989 9.32914 46.8989 8.244C46.8989 7.15885 46.4844 6.1386 45.7318 5.37126C44.1781 3.78721 41.6502 3.78731 40.0969 5.37126C39.3442 6.1386 38.9297 7.15885 38.9297 8.244C38.9297 9.07065 39.1708 9.85923 39.6181 10.5274L34.6912 15.551C33.9356 14.8707 33.1049 14.2721 32.2116 13.7702L34.2411 11.7009C34.5839 11.3513 34.7318 10.8539 34.6367 10.3708L33.7314 5.75671L34.1361 5.34404C35.2189 5.96858 36.5988 5.79865 37.5009 4.87886C38.5941 3.76425 38.5941 1.95066 37.5009 0.836159C36.4076 -0.278445 34.6291 -0.278343 33.5359 0.836159C32.6257 1.76418 32.4741 3.17648 33.0796 4.26681L32.6555 4.69918C32.3133 5.04807 32.166 5.54534 32.261 6.02911L33.1661 10.6424L30.782 13.0732C29.648 12.5997 28.4355 12.2726 27.1655 12.1178C26.7568 12.0674 26.3839 12.3659 26.3349 12.7838C26.286 13.2015 26.5784 13.5806 26.9881 13.6305C33.1732 14.3846 37.8394 19.5561 37.8394 26.0004C37.8394 32.8708 32.3038 38.4603 25.4997 38.4603C18.6955 38.4603 13.1599 32.8708 13.1599 26.0004C13.1599 19.795 17.7065 14.5628 23.6947 13.6733C24.1031 13.6127 24.3858 13.226 24.3263 12.8097C24.2668 12.3932 23.8879 12.1049 23.4792 12.1657C22.3537 12.3329 21.2599 12.641 20.2203 13.0765L17.8331 10.6425L18.7381 6.02952C18.8333 5.54544 18.6859 5.04817 18.3437 4.69918L17.9196 4.26691C18.5251 3.17668 18.3735 1.76428 17.4634 0.83626C16.3703 -0.278242 14.5918 -0.278343 13.4983 0.83626C12.4051 1.95086 12.4051 3.76446 13.4983 4.87896C14.4012 5.79957 15.7794 5.96888 16.8631 5.34414L17.2678 5.75681L16.3626 10.3703C16.2674 10.8539 16.4152 11.3514 16.7581 11.701L18.7921 13.7749C17.907 14.2726 17.0748 14.8691 16.312 15.5551L11.381 10.5275C11.8283 9.85933 12.0694 9.07076 12.0694 8.2441C12.0694 7.15885 11.6549 6.1387 10.9023 5.37136C9.34877 3.78741 6.82096 3.78731 5.26737 5.37136C4.51469 6.1387 4.10019 7.15895 4.10019 8.2441C4.10019 9.32925 4.51469 10.3495 5.26737 11.1168C6.63179 12.5079 8.75786 12.6881 10.3236 11.6041L15.2459 16.6229C14.5601 17.3875 13.9616 18.2268 13.4634 19.1146L11.4751 17.0873C11.1323 16.7378 10.6446 16.5872 10.1707 16.6841L5.64541 17.6071L5.24067 17.1944C5.84623 16.1042 5.69462 14.6918 4.78444 13.7638C3.69127 12.6493 1.91276 12.6492 0.819388 13.7638C-0.27378 14.8784 -0.27378 16.692 0.819388 17.8065H0.819488C1.72229 18.7269 3.10046 18.8963 4.18406 18.2717L4.60822 18.7041C4.9503 19.0528 5.43751 19.2031 5.91267 19.1064L10.4372 18.1835L12.7615 20.5534C12.0441 22.2637 11.6657 24.1142 11.6657 26.0004C11.6657 27.9323 12.0554 29.774 12.7594 31.4494L10.4372 33.8172L5.91257 32.8944C5.43761 32.7976 4.9503 32.948 4.60812 33.2967L4.18406 33.729C3.1148 33.1117 1.72967 33.2663 0.819488 34.1942C-0.273681 35.3088 -0.273681 37.1224 0.819488 38.2369C1.91266 39.3515 3.69137 39.3515 4.78454 38.2369C5.69472 37.3089 5.84633 35.8966 5.24077 34.8063L5.64561 34.3935L10.1704 35.3163C10.6446 35.4135 11.1324 35.2627 11.4754 34.9131L13.4632 32.8863C13.9672 33.7829 14.566 34.6181 15.2463 35.3774L10.3238 40.3964C8.774 39.322 6.64056 39.4837 5.26757 40.8836C4.51488 41.6509 4.10039 42.6712 4.10039 43.7563C4.10039 44.8415 4.51488 45.8617 5.26757 46.6291C6.82126 48.213 9.34887 48.213 10.9025 46.6291C11.6551 45.8617 12.0696 44.8415 12.0696 43.7563C12.0696 42.9297 11.8285 42.1411 11.3812 41.4729L16.3126 36.4449C17.0696 37.1259 17.9006 37.7242 18.792 38.226L16.7583 40.2996C16.4155 40.6492 16.2676 41.1465 16.3627 41.6296L17.268 46.2437L16.8633 46.6564C15.7941 46.039 14.409 46.1934 13.4985 47.1216C12.4053 48.2362 12.4053 50.0497 13.4985 51.1642C14.5917 52.2789 16.3704 52.2789 17.4636 51.1642C18.3737 50.2362 18.5254 48.8239 17.9198 47.7336L18.344 47.3012C18.6861 46.9523 18.8335 46.4551 18.7384 45.9713L17.8333 41.358L20.2202 38.9243C21.848 39.6063 23.631 39.9836 25.4999 39.9836C27.3687 39.9836 29.1517 39.6063 30.7795 38.9243L33.1664 41.358L32.2614 45.971C32.1663 46.4551 32.3136 46.9523 32.6559 47.3013L33.0799 47.7336C32.4745 48.8238 32.626 50.2362 33.5362 51.1642C34.6293 52.2789 36.4079 52.279 37.5012 51.1642C38.5944 50.0496 38.5944 48.2361 37.5012 47.1216C36.5909 46.1934 35.2058 46.039 34.1365 46.6564L33.7318 46.2437L34.637 41.6302C34.7322 41.1466 34.5844 40.6492 34.2415 40.2996L32.2078 38.226C33.0992 37.7242 33.9302 37.1259 34.6872 36.4449L39.6186 41.4729C39.1713 42.1411 38.9302 42.9297 38.9302 43.7563C38.9302 44.8416 39.3447 45.8617 40.0974 46.6291C41.651 48.213 44.1786 48.213 45.7323 46.6291C46.4849 45.8617 46.8994 44.8415 46.8994 43.7563C46.8994 42.6712 46.4849 41.6509 45.7323 40.8836C44.3592 39.4837 42.2258 39.322 40.676 40.3964L35.7535 35.3774C36.4338 34.618 37.0325 33.7828 37.5366 32.8863L39.5245 34.9132C39.8674 35.2627 40.355 35.4133 40.8289 35.3164L45.3542 34.3934L45.7589 34.8061C45.1534 35.8963 45.305 37.3087 46.2152 38.2367C47.3083 39.3513 49.087 39.3514 50.1802 38.2367C51.273 37.1221 51.273 35.3085 50.1797 34.194ZM47.2715 14.8408C47.5267 14.5806 47.8621 14.4504 48.1974 14.4504C48.5326 14.4504 48.8679 14.5805 49.1232 14.8408C49.6338 15.3613 49.6338 16.2084 49.1233 16.729C48.6137 17.2483 47.7852 17.2493 47.2746 16.7318C47.2736 16.7308 47.2728 16.7297 47.2718 16.7288C47.2708 16.7278 47.2697 16.7269 47.2688 16.726C46.761 16.2051 46.7618 15.3604 47.2715 14.8408ZM41.1535 6.44838C41.639 5.95334 42.2767 5.70592 42.9146 5.70592C43.5522 5.70592 44.19 5.95344 44.6755 6.44838C45.1459 6.92798 45.4049 7.56563 45.4049 8.24389C45.4049 8.92216 45.1458 9.5598 44.6755 10.0394C43.7045 11.0295 42.1246 11.0294 41.1536 10.0394C40.6832 9.5598 40.4242 8.92216 40.4242 8.24389C40.4242 7.56563 40.6831 6.92798 41.1535 6.44838ZM34.5926 1.91339C35.1031 1.39285 35.9337 1.39285 36.4443 1.91339C36.9549 2.43392 36.9549 3.28099 36.4443 3.80153C35.9348 4.32105 35.1066 4.32186 34.5959 3.80458C34.5948 3.80346 34.594 3.80234 34.5929 3.80122C34.5919 3.80011 34.5907 3.79929 34.5896 3.79818C34.0821 3.27734 34.083 2.4329 34.5926 1.91339ZM16.4097 3.79818C16.4087 3.79919 16.4076 3.80011 16.4065 3.80122C16.4054 3.80234 16.4046 3.80346 16.4035 3.80458C15.8927 4.32186 15.0646 4.32105 14.555 3.80153C14.0444 3.28099 14.0444 2.43392 14.555 1.91339C15.0656 1.39285 15.8962 1.39285 16.4068 1.91339C16.9163 2.4329 16.9172 3.27734 16.4097 3.79818ZM9.84595 10.0394C8.87501 11.0294 7.29512 11.0295 6.32398 10.0394C5.8536 9.5598 5.59461 8.92216 5.59461 8.24389C5.59461 7.56563 5.8537 6.92798 6.32398 6.44838C7.29492 5.4583 8.87511 5.4583 9.84595 6.44838C10.3163 6.92798 10.5753 7.56563 10.5753 8.24389C10.5753 8.92216 10.3162 9.5598 9.84595 10.0394ZM3.73112 16.7254C3.73002 16.7265 3.72873 16.7275 3.72753 16.7287C3.72644 16.7298 3.72544 16.7311 3.72434 16.7322C3.21332 17.2491 2.38553 17.2483 1.876 16.729H1.8761C1.36547 16.2084 1.36547 15.3613 1.8761 14.8408C2.38662 14.3202 3.21731 14.3204 3.72783 14.8408C4.23736 15.3602 4.23835 16.2046 3.73112 16.7254ZM3.72793 37.1594C3.21741 37.6798 2.38672 37.68 1.8762 37.1594C1.36557 36.6389 1.36557 35.7918 1.8761 35.2712C2.38563 34.7517 3.21701 34.7475 3.72484 35.2684C3.72584 35.2694 3.72664 35.2705 3.72763 35.2715C3.72863 35.2724 3.72972 35.2733 3.73062 35.2742C4.23835 35.7951 4.23756 36.6399 3.72793 37.1594ZM9.84595 45.5518C8.87501 46.5417 7.29512 46.5419 6.32398 45.5518C5.8536 45.0722 5.59461 44.4346 5.59461 43.7563C5.59461 43.078 5.8537 42.4404 6.32398 41.9608C7.29492 40.9707 8.87511 40.9707 9.84595 41.9608C10.3163 42.4404 10.5753 43.078 10.5753 43.7563C10.5753 44.4346 10.3162 45.0722 9.84595 45.5518ZM16.4068 50.0869C15.8963 50.6075 15.0656 50.6075 14.555 50.0869C14.0444 49.5664 14.0444 48.7193 14.555 48.1988C15.0646 47.6794 15.8957 47.6751 16.4035 48.1957C16.4046 48.1968 16.4054 48.198 16.4065 48.1991C16.4075 48.2002 16.4086 48.201 16.4097 48.2021C16.9172 48.7229 16.9163 49.5674 16.4068 50.0869ZM34.5897 48.202C34.5907 48.201 34.5919 48.2001 34.593 48.199C34.5941 48.1979 34.5949 48.1967 34.596 48.1956C35.1037 47.675 35.9349 47.6792 36.4444 48.1987C36.955 48.7192 36.955 49.5663 36.4444 50.0868C35.9338 50.6074 35.1031 50.6074 34.5927 50.0868C34.083 49.5674 34.0821 48.723 34.5897 48.202ZM41.1535 41.9609C42.1244 40.9708 43.7045 40.9708 44.6754 41.9609C45.1458 42.4405 45.4048 43.0781 45.4048 43.7564C45.4048 44.4347 45.1457 45.0723 44.6754 45.5519C43.7044 46.542 42.1245 46.5418 41.1535 45.5519C40.6831 45.0723 40.4241 44.4347 40.4241 43.7564C40.4241 43.0781 40.6831 42.4405 41.1535 41.9609ZM49.1231 37.1594C48.6125 37.68 47.7818 37.6798 47.2714 37.1594C46.7619 36.64 46.761 35.7956 47.2681 35.2748C47.2692 35.2737 47.2705 35.2727 47.2717 35.2716C47.2728 35.2704 47.2738 35.2691 47.2749 35.268C47.7812 34.7461 48.6137 34.7518 49.1231 35.2712C49.6337 35.7918 49.6337 36.6389 49.1231 37.1594Z" fill="white"/>
</g>
<defs>
<clipPath id="clip0_429_1729">
<rect width="51" height="52" fill="white"/>
</clipPath>
</defs>
</svg>
