<svg width="52" height="52" viewBox="0 0 52 52" fill="none" xmlns="http://www.w3.org/2000/svg">
<path d="M12.1875 46.3125H17.0625V47.9375H12.1875V46.3125Z" fill="white"/>
<path d="M49.5373 24.375H49.5625V21.125C49.5625 18.8849 47.7401 17.0625 45.5 17.0625H45.4496C45.4707 16.7919 45.5 16.5238 45.5 16.25C45.5 10.426 40.7615 5.6875 34.9375 5.6875C32.4854 5.6875 30.2323 6.53494 28.4375 7.94138V4.875C28.4375 2.63494 26.6151 0.8125 24.375 0.8125H4.875C2.63494 0.8125 0.8125 2.63494 0.8125 4.875V47.125C0.8125 49.3651 2.63494 51.1875 4.875 51.1875H24.375C26.6151 51.1875 28.4375 49.3651 28.4375 47.125V46.3125H47.125C49.3651 46.3125 51.1875 44.4901 51.1875 42.25V27.625C51.1875 26.2917 50.5326 25.116 49.5373 24.375ZM45.5 18.6875C46.8439 18.6875 47.9375 19.7811 47.9375 21.125V23.6446C47.6751 23.5909 47.4029 23.5625 47.125 23.5625H42.5368C43.849 22.2008 44.772 20.5229 45.2067 18.6875H45.5ZM34.9375 7.3125C39.8653 7.3125 43.875 11.3222 43.875 16.25C43.875 19.1742 42.445 21.8855 40.0522 23.5625H35.75V21.8221C37.1475 21.4589 38.1875 20.1971 38.1875 18.6875C38.1875 16.8951 36.7299 15.4375 34.9375 15.4375C34.0413 15.4375 33.3125 14.7087 33.3125 13.8125C33.3125 12.9163 34.0413 12.1875 34.9375 12.1875C35.8337 12.1875 36.5625 12.9163 36.5625 13.8125H38.1875C38.1875 12.3029 37.1475 11.0411 35.75 10.6779V8.9375H34.125V10.6779C32.7275 11.0411 31.6875 12.3029 31.6875 13.8125C31.6875 15.6049 33.1451 17.0625 34.9375 17.0625C35.8337 17.0625 36.5625 17.7913 36.5625 18.6875C36.5625 19.5837 35.8337 20.3125 34.9375 20.3125C34.0413 20.3125 33.3125 19.5837 33.3125 18.6875H31.6875C31.6875 20.1971 32.7275 21.4589 34.125 21.8221V23.5625H29.8228C27.43 21.8855 26 19.1742 26 16.25C26 11.3222 30.0097 7.3125 34.9375 7.3125ZM18.7696 43.0625H2.4375V7.3125H26.8125V9.51031C25.2915 11.3409 24.375 13.6898 24.375 16.25C24.375 16.5238 24.4043 16.7919 24.4254 17.0625H22.75C20.5099 17.0625 18.6875 18.8849 18.6875 21.125V42.25C18.6875 42.5279 18.7159 42.8001 18.7696 43.0625ZM22.75 18.6875H24.6683C24.8008 19.2457 24.9811 19.7868 25.2005 20.3125H22.75V21.9375H26V21.8433C26.3851 22.4583 26.8296 23.0352 27.3382 23.5625H22.75C21.4061 23.5625 20.3125 22.4689 20.3125 21.125C20.3125 19.7811 21.4061 18.6875 22.75 18.6875ZM4.875 2.4375H24.375C25.7189 2.4375 26.8125 3.53113 26.8125 4.875V5.6875H2.4375V4.875C2.4375 3.53113 3.53113 2.4375 4.875 2.4375ZM26.8125 47.125C26.8125 48.4689 25.7189 49.5625 24.375 49.5625H4.875C3.53113 49.5625 2.4375 48.4689 2.4375 47.125V44.6875H19.5V44.6623C20.241 45.6576 21.4167 46.3125 22.75 46.3125H26.8125V47.125ZM47.125 44.6875H22.75C21.4061 44.6875 20.3125 43.5939 20.3125 42.25V24.3734C20.9918 24.8836 21.8359 25.1875 22.75 25.1875H47.125C48.4689 25.1875 49.5625 26.2811 49.5625 27.625V30.0625H39.8125C37.1239 30.0625 34.9375 32.2489 34.9375 34.9375C34.9375 37.6261 37.1239 39.8125 39.8125 39.8125H49.5625V42.25C49.5625 43.5939 48.4689 44.6875 47.125 44.6875ZM49.5625 31.6875V38.1875H39.8125C38.0201 38.1875 36.5625 36.7299 36.5625 34.9375C36.5625 33.1451 38.0201 31.6875 39.8125 31.6875H49.5625Z" fill="white"/>
<path d="M38.1875 34.125H39.8125V35.75H38.1875V34.125Z" fill="white"/>
<path d="M40.625 15.4375H42.25V17.0625H40.625V15.4375Z" fill="white"/>
<path d="M27.625 15.4375H29.25V17.0625H27.625V15.4375Z" fill="white"/>
<path d="M47.9375 8.9375H49.5625V10.5625H47.9375V8.9375Z" fill="white"/>
<path d="M47.9375 12.1875H49.5625V13.8125H47.9375V12.1875Z" fill="white"/>
<path d="M49.5625 10.5625H51.1875V12.1875H49.5625V10.5625Z" fill="white"/>
<path d="M46.3125 10.5625H47.9375V12.1875H46.3125V10.5625Z" fill="white"/>
<path d="M20.3125 10.5625H21.9375V12.1875H20.3125V10.5625Z" fill="white"/>
<path d="M20.3125 13.8125H21.9375V15.4375H20.3125V13.8125Z" fill="white"/>
<path d="M21.9375 12.1875H23.5625V13.8125H21.9375V12.1875Z" fill="white"/>
<path d="M18.6875 12.1875H20.3125V13.8125H18.6875V12.1875Z" fill="white"/>
<path d="M41.4375 0.8125H43.0625V2.4375H41.4375V0.8125Z" fill="white"/>
<path d="M41.4375 4.0625H43.0625V5.6875H41.4375V4.0625Z" fill="white"/>
<path d="M43.0625 2.4375H44.6875V4.0625H43.0625V2.4375Z" fill="white"/>
<path d="M39.8125 2.4375H41.4375V4.0625H39.8125V2.4375Z" fill="white"/>
</svg>
