<svg width="51" height="52" viewBox="0 0 51 52" fill="none" xmlns="http://www.w3.org/2000/svg">
<path d="M27.1915 34.231H40.7872C41.2971 34.231 41.6369 33.8844 41.6369 33.3646V25.567C41.6369 25.0472 41.2971 24.7007 40.7872 24.7007H27.1915C26.6817 24.7007 26.3418 25.0472 26.3418 25.567V33.3646C26.3417 33.8843 26.6817 34.231 27.1915 34.231ZM28.0412 26.4334H39.9375V32.4981H28.0412V26.4334Z" fill="white"/>
<path d="M4.24863 22.9676H11.0465C11.5564 22.9676 11.8962 22.6211 11.8962 22.1012C11.8962 21.5814 11.5564 21.2349 11.0465 21.2349H4.24863C3.73879 21.2349 3.39893 21.5814 3.39893 22.1012C3.39893 22.6211 3.73879 22.9676 4.24863 22.9676Z" fill="white"/>
<path d="M14.4454 22.9676H21.2433C21.7532 22.9676 22.093 22.6211 22.093 22.1012C22.093 21.5814 21.7532 21.2349 21.2433 21.2349H14.4454C13.9356 21.2349 13.5957 21.5814 13.5957 22.1012C13.5957 22.6211 13.9356 22.9676 14.4454 22.9676Z" fill="white"/>
<path d="M4.24863 26.4334H15.2951C15.805 26.4334 16.1448 26.0869 16.1448 25.567C16.1448 25.0472 15.805 24.7007 15.2951 24.7007H4.24863C3.73879 24.7007 3.39893 25.0472 3.39893 25.567C3.39893 26.0869 3.73879 26.4334 4.24863 26.4334Z" fill="white"/>
<path d="M21.2434 24.7004H18.6942C18.1843 24.7004 17.8445 25.047 17.8445 25.5668C17.8445 26.0866 18.1843 26.4332 18.6942 26.4332H21.2434C21.7532 26.4332 22.0931 26.0866 22.0931 25.5668C22.0931 25.047 21.7532 24.7004 21.2434 24.7004Z" fill="white"/>
<path d="M50.2193 13.9572C49.6245 13.1774 48.8598 12.7442 47.925 12.6576L45.8857 12.4056V9.97171V8.23899C45.8857 6.33295 44.3561 4.77344 42.4868 4.77344H3.3989C1.52952 4.77334 0 6.33285 0 8.23899V9.97181V16.903V35.9637C0 37.5286 1.03133 38.8591 2.43499 39.2856C2.39217 41.0382 3.69276 42.5597 5.43837 42.7216L44.6961 47.2268C44.781 47.2268 44.951 47.2268 45.036 47.2268C46.7355 47.2268 48.265 45.9272 48.4349 44.2811L50.9841 16.4698C51.069 15.6033 50.8141 14.6502 50.2193 13.9572ZM1.6995 10.8382H44.1863V13.0908V16.0366H1.6995V10.8382ZM3.3989 6.50616H42.4867C43.4214 6.50616 44.1862 7.28592 44.1862 8.23899V9.10535H1.6995V8.23899C1.6995 7.28592 2.46426 6.50616 3.3989 6.50616ZM1.6995 35.9636V17.7693H44.1863V35.9636C44.1863 36.9167 43.4215 37.6964 42.4868 37.6964H3.48394H3.399C2.46426 37.6964 1.6995 36.9167 1.6995 35.9636ZM49.2846 16.1232L46.7354 43.9345C46.6504 44.8875 45.8006 45.5806 44.866 45.494L5.69319 40.9888C4.84349 40.9021 4.24861 40.209 4.16367 39.4292H42.4867C44.356 39.4292 45.8856 37.8697 45.8856 35.9637V16.9029V14.0438L47.84 14.2171C48.2649 14.2171 48.6897 14.477 48.9446 14.8236C49.1996 15.1701 49.3696 15.6899 49.2846 16.1232Z" fill="white"/>
</svg>
