<svg width="52" height="52" viewBox="0 0 52 52" fill="none" xmlns="http://www.w3.org/2000/svg">
<g clip-path="url(#clip0_429_1734)">
<path d="M50.2667 13H14.7333C14.2547 13 13.8667 13.388 13.8667 13.8667C13.8667 14.3453 14.2547 14.7333 14.7333 14.7333H19.9723C16.1261 17.1807 13.8172 21.4414 13.8667 26C13.8172 30.5586 16.1261 34.8193 19.9723 37.2667H1.73333V14.7333H10.4C10.8786 14.7333 11.2667 14.3453 11.2667 13.8667C11.2667 13.388 10.8786 13 10.4 13H1.73333C0.77604 13 0 13.776 0 14.7333V37.2667C0 38.224 0.77604 39 1.73333 39H50.2667C51.224 39 52 38.224 52 37.2667V14.7333C52 13.776 51.224 13 50.2667 13ZM15.6 26C15.6 19.7877 20.2653 14.7333 26 14.7333C31.7347 14.7333 36.4 19.7877 36.4 26C36.4 32.2123 31.7347 37.2667 26 37.2667C20.2653 37.2667 15.6 32.2123 15.6 26ZM50.2667 37.2667H32.0277C35.8739 34.8193 38.1828 30.5586 38.1333 26C38.1828 21.4414 35.8739 17.1807 32.0277 14.7333H50.2667V37.2667Z" fill="white"/>
<path d="M45.7045 3.6486C45.2942 3.44327 44.8192 3.40899 44.3837 3.55327L25.7157 9.80974C25.261 9.96195 25.0157 10.454 25.1679 10.9087C25.3202 11.3634 25.8122 11.6086 26.2669 11.4564L44.9297 5.19994L46.845 10.9104C46.9433 11.2046 47.1911 11.4239 47.495 11.4858C47.7989 11.5478 48.1127 11.4429 48.3183 11.2107C48.5239 10.9785 48.59 10.6542 48.4917 10.3601L46.5755 4.65307C46.4327 4.21436 46.1185 3.85207 45.7045 3.6486Z" fill="white"/>
<path d="M25.7332 40.5444L7.07038 46.8L5.15505 41.0895C5.00308 40.6348 4.51126 40.3894 4.05655 40.5413C3.60183 40.6933 3.35641 41.1851 3.50838 41.6398L5.42111 47.3451C5.56287 47.783 5.87536 48.1452 6.28778 48.3496C6.52772 48.4689 6.792 48.5312 7.05998 48.5316C7.24628 48.5318 7.43144 48.5026 7.60858 48.4449L26.2766 42.1884C26.7313 42.0362 26.9765 41.5442 26.8243 41.0895C26.6721 40.6348 26.1801 40.3896 25.7254 40.5418L25.7332 40.5444Z" fill="white"/>
<path d="M28.6001 22.9666C28.6001 23.4453 28.9881 23.8333 29.4667 23.8333C29.9454 23.8333 30.3334 23.4453 30.3334 22.9666C30.2497 21.0239 28.7922 19.4173 26.8667 19.1455V19.0666C26.8667 18.588 26.4787 18.2 26.0001 18.2C25.5214 18.2 25.1334 18.588 25.1334 19.0666V19.1455C23.208 19.4173 21.7504 21.0239 21.6667 22.9666C21.7504 24.9093 23.208 26.5159 25.1334 26.7878V31.0665C24.169 30.8477 23.4635 30.0202 23.4001 29.0333C23.4001 28.5546 23.0121 28.1666 22.5334 28.1666C22.0548 28.1666 21.6667 28.5546 21.6667 29.0333C21.7504 30.976 23.208 32.5826 25.1334 32.8544V32.9333C25.1334 33.4119 25.5214 33.8 26.0001 33.8C26.4787 33.8 26.8667 33.4119 26.8667 32.9333V32.8544C28.7922 32.5826 30.2497 30.976 30.3334 29.0333C30.2497 27.0906 28.7922 25.484 26.8667 25.2122V20.9334C27.8312 21.1522 28.5366 21.9797 28.6001 22.9666ZM23.4001 22.9666C23.4635 21.9797 24.169 21.1522 25.1334 20.9334V24.9998C24.169 24.781 23.4635 23.9536 23.4001 22.9666ZM28.6001 29.0333C28.5366 30.0202 27.8312 30.8477 26.8667 31.0665V27.0001C27.8312 27.2189 28.5366 28.0464 28.6001 29.0333Z" fill="white"/>
<path d="M44.1999 35.5333H47.6666C48.1452 35.5333 48.5333 35.1452 48.5333 34.6666V31.1999C48.5333 30.7213 48.1452 30.3333 47.6666 30.3333C47.1879 30.3333 46.7999 30.7213 46.7999 31.1999V33.7999H44.1999C43.7213 33.7999 43.3333 34.1879 43.3333 34.6666C43.3333 35.1452 43.7213 35.5333 44.1999 35.5333Z" fill="white"/>
<path d="M4.33322 30.3333C3.85457 30.3333 3.46655 30.7213 3.46655 31.1999V34.6666C3.46655 35.1452 3.85457 35.5333 4.33322 35.5333H7.79989C8.27853 35.5333 8.66655 35.1452 8.66655 34.6666C8.66655 34.1879 8.27853 33.7999 7.79989 33.7999H5.19989V31.1999C5.19989 30.7213 4.81187 30.3333 4.33322 30.3333Z" fill="white"/>
<path d="M7.79989 16.4666H4.33322C3.85457 16.4666 3.46655 16.8546 3.46655 17.3332V20.7999C3.46655 21.2785 3.85457 21.6666 4.33322 21.6666C4.81187 21.6666 5.19989 21.2785 5.19989 20.7999V18.1999H7.79989C8.27853 18.1999 8.66655 17.8119 8.66655 17.3332C8.66655 16.8546 8.27853 16.4666 7.79989 16.4666Z" fill="white"/>
<path d="M44.1999 18.1999H46.7999V20.7999C46.7999 21.2785 47.1879 21.6666 47.6666 21.6666C48.1452 21.6666 48.5333 21.2785 48.5333 20.7999V17.3332C48.5333 16.8546 48.1452 16.4666 47.6666 16.4666H44.1999C43.7213 16.4666 43.3333 16.8546 43.3333 17.3332C43.3333 17.8119 43.7213 18.1999 44.1999 18.1999Z" fill="white"/>
</g>
<defs>
<clipPath id="clip0_429_1734">
<rect width="52" height="52" fill="white"/>
</clipPath>
</defs>
</svg>
