<svg width="51" height="52" viewBox="0 0 51 52" fill="none" xmlns="http://www.w3.org/2000/svg">
<path d="M49.2093 46.0547H49.1186V44.8568C49.1186 43.8501 48.3153 43.0311 47.3279 43.0311H45.1951V41.3793C45.1951 40.5946 44.59 39.953 43.8309 39.9097V24.3827C44.59 24.3393 45.1951 23.6978 45.1951 22.9131V21.2613H47.2644C48.0528 21.2613 48.6942 20.6073 48.6942 19.8034V18.2466H49.7819C50.4219 18.2466 50.9426 17.7156 50.9426 17.0632V15.7177C50.9426 15.2826 50.7095 14.8838 50.334 14.6767L33.2013 5.22994C32.8375 5.02905 32.3837 5.16738 32.1873 5.53808C31.9907 5.90868 32.126 6.37161 32.4895 6.57189L49.4462 15.9216V16.7208H1.55381V15.9282L25.8678 2.92071L29.4063 4.87193C29.77 5.07262 30.2238 4.93439 30.4203 4.56379C30.6168 4.19319 30.4816 3.73027 30.1181 3.52999L26.5795 1.57867C26.1424 1.33766 25.6186 1.33431 25.1785 1.56973L0.679037 14.6732C0.295541 14.8783 0.057375 15.2799 0.057375 15.7212V17.0631C0.057375 17.7156 0.578133 18.2465 1.21812 18.2465H2.30576V19.8034C2.30576 20.6072 2.94714 21.2613 3.73565 21.2613H5.80494V22.9131C5.80494 23.6978 6.40996 24.3393 7.16909 24.3827V34.4907C7.16909 34.9121 7.50407 35.2535 7.91725 35.2535C8.33043 35.2535 8.66542 34.912 8.66542 34.4907V24.387H11.0596V39.9055H8.66552V38.0762C8.66552 37.6548 8.33053 37.3133 7.91735 37.3133C7.50417 37.3133 7.16919 37.6548 7.16919 38.0762V39.9097C6.41006 39.953 5.80504 40.5946 5.80504 41.3793V43.0311H3.6721C2.68477 43.0311 1.88142 43.8501 1.88142 44.8568V46.0547H1.79068C0.80325 46.0547 0 46.8737 0 47.8805V49.4762C0 50.0981 0.496354 50.6043 1.10636 50.6043H49.8936C50.5036 50.6043 51 50.0982 51 49.4762V47.8805C51 46.8737 50.1968 46.0547 49.2093 46.0547ZM3.80219 19.7356V18.2466H47.1978V19.7356H3.80219ZM43.6986 41.4312V43.031H38.5761V41.4312H43.6986ZM39.9403 39.9054V24.3869H42.3345V39.9054H39.9403ZM38.5761 22.8612V21.2614H43.6986V22.8612H38.5761ZM33.406 39.9097V24.3827C34.1651 24.3393 34.7701 23.6978 34.7701 22.9131V21.2613H37.0797V22.9131C37.0797 23.6978 37.6847 24.3393 38.4438 24.3827V39.9097C37.6847 39.953 37.0797 40.5946 37.0797 41.3793V43.0311H34.7701V41.3793C34.7701 40.5946 34.1651 39.953 33.406 39.9097ZM33.2737 41.4312V43.031H28.1512V41.4312H33.2737ZM29.5154 39.9054V24.3869H31.9096V39.9054H29.5154ZM28.1512 22.8612V21.2614H33.2737V22.8612H28.1512ZM22.9811 39.9097V24.3827C23.7402 24.3393 24.3452 23.6978 24.3452 22.9131V21.2613H26.6548V22.9131C26.6548 23.6978 27.2598 24.3393 28.0189 24.3827V39.9097C27.2598 39.953 26.6548 40.5946 26.6548 41.3793V43.0311H24.3452V41.3793C24.3452 40.5946 23.7402 39.953 22.9811 39.9097ZM22.2328 41.4312H22.8488V43.031H17.7263V41.4312H18.3423H22.2328ZM19.0904 39.9054V24.3869H21.4846V39.9054H19.0904ZM17.7263 22.8612V21.2614H22.8488V22.8612H17.7263ZM12.5562 39.9097V24.3827C13.3153 24.3393 13.9203 23.6978 13.9203 22.9131V21.2613H16.2299V22.9131C16.2299 23.6978 16.8349 24.3393 17.594 24.3827V39.9097C16.8349 39.953 16.2299 40.5946 16.2299 41.3793V43.0311H13.9203V41.3793C13.9203 40.5946 13.3153 39.953 12.5562 39.9097ZM7.30137 22.8612V21.2614H12.4239V22.8612H7.30137ZM7.30137 41.4312H7.91735H11.808H12.424V43.031H7.30137V41.4312ZM3.37785 44.8568C3.37785 44.6914 3.50984 44.5568 3.6721 44.5568H47.3279C47.4902 44.5568 47.6221 44.6913 47.6221 44.8568V46.0547H3.37785V44.8568ZM49.5036 49.0785H1.49643V47.8805C1.49643 47.7152 1.62841 47.5805 1.79068 47.5805H49.2093C49.3716 47.5805 49.5036 47.7151 49.5036 47.8805V49.0785Z" fill="white"/>
</svg>
