<svg width="82" height="82" viewBox="0 0 82 82" fill="none" xmlns="http://www.w3.org/2000/svg">
<path d="M39.9771 47.7374C39.9771 48.3386 39.5115 48.8042 38.9103 48.8042H32.0441C31.7353 48.8084 31.4123 48.6977 31.21 48.4551C30.8027 48.009 30.8415 47.3495 31.2681 46.9422L37.0094 41.744C37.9816 40.8725 38.0842 39.3396 37.2863 38.3177C36.4646 37.2654 34.8968 37.0905 33.8271 37.866C33.399 38.1764 33.0428 38.7354 32.4948 38.8305C31.9831 38.9192 31.4768 38.6034 31.3075 38.1178C31.0378 37.3434 31.7002 36.8801 32.1991 36.4294C33.072 35.6149 34.2163 35.2268 35.322 35.2268C36.5828 35.2268 37.8629 35.7505 38.7745 36.7592C39.5892 37.632 39.9771 38.7763 39.9771 39.8821C39.9771 41.1428 39.4534 42.4229 38.4449 43.3346L34.7789 46.6514H38.9103C39.5117 46.6512 39.9771 47.1362 39.9771 47.7374Z" fill="white"/>
<path d="M50.8969 45.1965C50.8969 45.7977 50.412 46.2633 49.8107 46.2633H49.6168V47.7374C49.6168 48.3386 49.1512 48.8042 48.55 48.8042C47.9487 48.8042 47.4832 48.3386 47.4832 47.7374V46.2633H41.4121C40.5113 46.2942 39.9831 45.2397 40.5394 44.537C40.7866 44.2298 47.6348 35.6943 47.7156 35.6153C47.7827 35.5495 47.869 35.4627 47.9489 35.4109C48.649 34.9582 49.6171 35.4314 49.6171 36.2936V44.1297H49.811C50.412 44.1297 50.8969 44.6145 50.8969 45.1965ZM47.483 39.3388L43.6231 44.1297H47.483V39.3388Z" fill="white"/>
<path d="M75.5987 28.146C72.6738 11.7004 57.4724 0 40.9998 0C24.5271 0 9.32638 11.7007 6.40112 28.1459C2.77919 28.7112 0 31.8299 0 35.5816V39.5586C0 41.1078 2.40234 41.1078 2.40234 39.5586V35.5814C2.40234 32.7553 4.72637 30.4561 7.58308 30.4561H10.0898V55.3811H7.58308C4.72637 55.3812 2.40234 53.082 2.40234 50.2561V45.6445C2.40234 44.0953 0 44.0953 0 45.6445V50.2561C0 54.4068 3.40172 57.7836 7.58308 57.7836H10.218C11.3319 61.9427 17.7086 61.1241 17.7086 56.8103V29.0272C17.7086 24.7209 11.3339 23.8876 10.218 28.0539H8.86337C11.8136 12.9861 25.8635 2.40234 40.9998 2.40234C56.1362 2.40234 70.1862 12.9859 73.1365 28.0539H71.782C70.6681 23.895 64.2912 24.7136 64.2912 29.0272V56.8103C64.2912 61.1167 70.6662 61.9502 71.782 57.7836H73.1206C70.9651 69.1982 60.5311 76.6393 49.1926 76.9983C48.6821 75.5047 47.2584 74.4267 45.5853 74.4267H36.4147C34.3508 74.4267 32.6053 76.1428 32.6053 78.2134C32.6053 80.2841 34.3508 82 36.4147 82H45.5853C47.2685 82 48.6994 80.9089 49.2019 79.4011C61.9057 79.0267 73.4185 70.4921 75.576 57.6956C79.209 57.1401 82 54.0156 82 50.2561V35.5816C82 31.8299 79.2206 28.7112 75.5987 28.146ZM12.4922 29.0272C12.4922 27.2402 15.3063 27.2391 15.3063 29.0272V56.8103C15.3063 58.5976 12.4922 58.5986 12.4922 56.8103V29.0272ZM45.5853 79.5977H36.4147C34.6054 79.5977 34.6042 76.829 36.4147 76.829H45.5853C47.3947 76.829 47.396 79.5977 45.5853 79.5977ZM69.5078 56.8103C69.5078 58.5976 66.6936 58.5986 66.6936 56.8103V29.0272C66.6936 27.24 69.5078 27.2391 69.5078 29.0272V56.8103ZM79.5977 50.2561C79.5977 53.0822 77.2735 55.3812 74.4166 55.3812H71.9102V30.4563H74.4166C77.2735 30.4563 79.5977 32.7555 79.5977 35.5816V50.2561Z" fill="white"/>
<path d="M47.21 60.6681L54.4332 63.8504C55.213 64.1942 56.1185 63.6005 56.1185 62.7512V54.7135C59.1639 51.1604 60.8353 46.6576 60.8353 41.9804C60.8353 37.8618 59.5651 33.9178 57.1622 30.5746C56.2586 29.3162 54.3073 30.7187 55.2115 31.9766C57.3189 34.9089 58.4328 38.3681 58.4328 41.9804C58.4328 46.2189 56.8671 50.2952 54.0238 53.4583C53.8257 53.6789 53.716 53.9649 53.716 54.2613V60.9096L47.7502 58.2813C47.4704 58.1578 47.1538 58.1461 46.8655 58.248C44.9846 58.9134 43.0112 59.2507 40.9999 59.2507C31.3875 59.2507 23.5672 51.5033 23.5672 41.9804C23.5672 32.4575 31.3877 24.71 41.0001 24.71C44.5847 24.71 48.0272 25.7788 50.9555 27.8011C52.2302 28.6814 53.5954 26.7047 52.3206 25.8243C48.9891 23.5237 45.0744 22.3076 41.0001 22.3076C30.063 22.3076 21.165 31.1327 21.165 41.9802C21.165 52.8278 30.063 61.6529 41.0001 61.6529C43.1228 61.6529 45.2093 61.3218 47.21 60.6681Z" fill="white"/>
</svg>
