<svg width="120" height="117" viewBox="0 0 120 117" fill="none" xmlns="http://www.w3.org/2000/svg">
<rect x="0.5" y="0.5" width="119" height="115.757" rx="19.5" stroke="white" stroke-opacity="0.4" stroke-dasharray="5 5"/>
<path d="M74.371 79.123L72.5042 77.1897C65.6094 83.8479 54.3908 83.8479 47.496 77.1897L45.6292 79.123C49.5066 82.8076 54.6512 84.8621 60.0001 84.8621C65.349 84.8621 70.4936 82.8076 74.371 79.123V79.123Z" fill="#FFA300"/>
<path d="M42.1537 81.2537L40.2212 83.1213C45.5017 88.5848 52.5259 91.5937 59.9999 91.5937C67.474 91.5937 74.4981 88.5848 79.7787 83.1213L77.8462 81.2537C73.0766 86.1885 66.7388 88.9062 59.9999 88.9062C53.2611 88.9062 46.9232 86.1885 42.1537 81.2537V81.2537Z" fill="#FFA300"/>
<path d="M59.9998 95.6251C51.2399 95.6251 42.9991 91.9592 36.7954 85.3027L34.8293 87.135C41.547 94.3429 50.486 98.3126 59.9998 98.3126H59.9999C69.513 98.3126 78.4531 94.3425 85.1704 87.135L83.2044 85.3027C77.0006 91.9592 68.7597 95.6251 59.9998 95.6251V95.6251Z" fill="#FFA300"/>
<path d="M70.6666 53.9688H68.0625V56.6563H70.6631C70.3365 59.2539 69.0728 61.643 67.1095 63.3749C65.1462 65.1069 62.6181 66.0626 60 66.0626C57.382 66.0626 54.8539 65.1069 52.8906 63.3749C50.9272 61.643 49.6636 59.2539 49.337 56.6563H51.9375V53.9688H49.337C49.5769 52.0571 50.3288 50.2457 51.5132 48.7261L53.6749 50.8877L55.5752 48.9874L53.4136 46.8258C54.9332 45.6413 56.7446 44.8894 58.6563 44.6495V47.2501H61.3438V44.647C62.5385 44.7937 63.6995 45.1428 64.7771 45.6793L65.973 43.2726C64.1181 42.3478 62.0727 41.8693 60 41.8751C57.0712 41.8766 54.2231 42.8356 51.8898 44.6059C49.5565 46.3762 47.8659 48.8606 47.0755 51.6808C46.285 54.501 46.4382 57.5023 47.5116 60.2273C48.585 62.9524 50.5198 65.2519 53.0212 66.7754C55.5226 68.2989 58.4535 68.963 61.3673 68.6664C64.2811 68.3698 67.0181 67.1289 69.1612 65.1326C71.3044 63.1363 72.7362 60.4942 73.2385 57.6087C73.7409 54.7233 73.2862 51.7527 71.9438 49.1496L69.5565 50.3838C70.137 51.5032 70.513 52.7172 70.6666 53.9688V53.9688Z" fill="#FFA300"/>
<path d="M84.451 59.3698C82.8627 59.0485 81.434 58.1885 80.4066 56.9353C79.3792 55.6821 78.8161 54.1125 78.8125 52.492V45.9062H78.8087C78.7285 39.9788 76.9726 34.1949 73.744 29.2233C70.5153 24.2517 65.9456 20.2952 60.5631 17.8112L60 17.5513L59.4369 17.8112C54.0544 20.2952 49.4847 24.2517 46.256 29.2233C43.0274 34.195 41.2715 39.9788 41.1913 45.9062H41.1875V52.492C41.1839 54.1125 40.6208 55.6821 39.5934 56.9353C38.566 58.1885 37.1373 59.0485 35.549 59.3698C33.352 59.8142 31.3759 61.0037 29.9549 62.7371C28.5338 64.4706 27.7549 66.6416 27.75 68.883V74.125H92.25V68.883C92.2451 66.6416 91.4662 64.4706 90.0451 62.7371C88.6241 61.0037 86.648 59.8142 84.451 59.3698V59.3698ZM41.1875 71.4375H30.4375V68.883C30.4411 67.2625 31.0042 65.6929 32.0316 64.4397C33.059 63.1864 34.4877 62.3265 36.076 62.0052C38.0301 61.6132 39.8154 60.6271 41.1875 59.1816V71.4375ZM60 20.5187C63.7528 22.3548 67.0586 24.9896 69.6856 28.2381L68.3393 28.9861C65.7914 30.4127 62.9201 31.1618 60 31.1618C57.0799 31.1618 54.2086 30.4127 51.6607 28.9861L50.3144 28.2381C52.9414 24.9896 56.2472 22.3549 60 20.5187V20.5187ZM76.125 52.492V71.4375H43.875V46.3333C43.8811 40.6683 45.5623 35.1316 48.7073 30.4197L50.3555 31.3354C52.9091 32.7515 55.743 33.5886 58.6562 33.7875V39.1875H61.3438V33.7875C64.257 33.5886 67.0909 32.7515 69.6445 31.3354L71.2927 30.4197C74.4377 35.1316 76.1189 40.6683 76.125 46.3333V52.492ZM89.5625 71.4375H78.8125V59.1816C80.1846 60.6271 81.9699 61.6132 83.924 62.0052C85.5123 62.3265 86.941 63.1864 87.9684 64.4397C88.9958 65.6929 89.5589 67.2625 89.5625 68.883V71.4375Z" fill="#FFA300"/>
<path d="M61.7371 51.6752C60.8787 51.2651 59.9029 51.1716 58.9822 51.4114C58.0616 51.6512 57.2553 52.2087 56.706 52.9854C56.1567 53.7622 55.8997 54.7081 55.9804 55.656C56.0611 56.604 56.4743 57.4929 57.147 58.1656C57.8197 58.8383 58.7086 59.2515 59.6565 59.3322C60.6044 59.4129 61.5504 59.1559 62.3271 58.6065C63.1039 58.0572 63.6614 57.251 63.9012 56.3303C64.1409 55.4097 64.0475 54.4339 63.6374 53.5755L71.7003 45.5126L69.7999 43.6123L61.7371 51.6752ZM60.0001 56.6562C59.7343 56.6562 59.4745 56.5774 59.2535 56.4297C59.0326 56.2821 58.8603 56.0722 58.7586 55.8267C58.6569 55.5812 58.6303 55.311 58.6822 55.0503C58.734 54.7896 58.862 54.5502 59.0499 54.3623C59.2378 54.1744 59.4773 54.0464 59.7379 53.9945C59.9986 53.9427 60.2688 53.9693 60.5143 54.071C60.7599 54.1727 60.9697 54.3449 61.1174 54.5659C61.265 54.7869 61.3438 55.0467 61.3438 55.3125C61.3434 55.6687 61.2017 56.0103 60.9498 56.2622C60.6979 56.5141 60.3564 56.6558 60.0001 56.6562Z" fill="#FFA300"/>
<path d="M88.2188 21.7188H90.9062V28.4375H88.2188V21.7188Z" fill="#FFA300"/>
<path d="M82.8438 35.1562H85.5312V45.9062H82.8438V35.1562Z" fill="#FFA300"/>
<path d="M82.8438 49.9375H85.5312V52.625H82.8438V49.9375Z" fill="#FFA300"/>
<path d="M94.9375 32.4688H97.625V41.875H94.9375V32.4688Z" fill="#FFA300"/>
<path d="M92.25 49.9375H94.9375V59.3438H92.25V49.9375Z" fill="#FFA300"/>
<path d="M34.4688 17.6875H37.1562V25.75H34.4688V17.6875Z" fill="#FFA300"/>
<path d="M22.375 23.0625H25.0625V31.125H22.375V23.0625Z" fill="#FFA300"/>
<path d="M22.375 33.8125H25.0625V36.5H22.375V33.8125Z" fill="#FFA300"/>
<path d="M31.7812 33.8125H34.4688V44.5625H31.7812V33.8125Z" fill="#FFA300"/>
<path d="M22.375 47.25H25.0625V58H22.375V47.25Z" fill="#FFA300"/>
</svg>
