<svg width="85" height="84" viewBox="0 0 85 84" fill="none" xmlns="http://www.w3.org/2000/svg">
<g clip-path="url(#clip0_1097_4548)">
<path d="M84.2542 69.1054L75.8317 63.4685L77.1409 60.9677C77.3738 60.5227 77.313 59.9808 76.9868 59.5987C76.8864 59.4808 74.6069 56.8519 69.4124 54.1914C71.2704 50.1467 72.7658 45.7234 73.8828 40.9579C77.2441 26.617 76.032 14.3034 75.9786 13.7863C75.9189 13.2067 75.4609 12.7484 74.8812 12.6887C65.0907 11.6788 57.111 8.41361 52.141 5.85261C46.7385 3.06849 43.6195 0.488796 43.5894 0.463695C43.1326 0.0820886 42.468 0.0820886 42.0116 0.463695C41.8887 0.566397 29.5155 10.7498 10.7195 12.6889C10.1399 12.7488 9.68185 13.2068 9.62213 13.7865C9.59818 14.0186 9.04414 19.5619 9.66823 27.5512C9.72122 28.2284 10.3115 28.7354 10.9902 28.6817C11.6676 28.6289 12.1738 28.0368 12.1209 27.3597C11.6645 21.5157 11.8639 16.9423 11.9918 15.0223C21.732 13.8555 29.6594 10.5863 34.658 8.0028C38.732 5.89724 41.5224 3.93326 42.8004 2.96957C44.0781 3.93326 46.8688 5.89724 50.9426 8.0028C55.9414 10.5863 63.8685 13.8554 73.6085 15.0223C73.8199 18.2115 74.2229 28.7268 71.4875 40.3969C70.3025 45.4524 68.6797 50.1004 66.6413 54.2958C66.5842 54.4133 66.5258 54.5291 66.468 54.6456C66.3422 54.8999 66.215 55.1527 66.0861 55.4037C66.0134 55.5451 65.9407 55.6864 65.8671 55.8268C65.7302 56.0875 65.5913 56.3459 65.4512 56.6028C65.3342 56.8171 65.2157 57.0295 65.0966 57.2412C64.9897 57.4312 64.8822 57.6207 64.7736 57.8083C64.6642 57.997 64.5536 58.1845 64.4424 58.3711C64.3621 58.5058 64.2808 58.639 64.1995 58.7724C63.9371 59.2034 63.6701 59.6293 63.3973 60.0486C63.3773 60.0793 63.3579 60.1105 63.3379 60.1411C63.1958 60.3583 63.0519 60.5728 62.9072 60.7867C62.8452 60.8784 62.7829 60.97 62.7202 61.061C61.8651 62.3076 60.9641 63.4995 60.0181 64.6321C60.0127 64.6387 60.0073 64.6453 60.0019 64.6518C59.8186 64.871 59.6334 65.0874 59.4469 65.3023C59.2999 65.4711 59.1514 65.6378 59.0023 65.8042C58.9722 65.8377 58.9425 65.8718 58.9125 65.9051C58.744 66.0918 58.5742 66.2767 58.4029 66.4601C58.3942 66.4695 58.3855 66.479 58.3767 66.4883C54.0346 71.1309 48.8175 74.7148 42.8006 77.1805C36.9094 74.7644 30.3143 70.6302 24.7205 63.5648C24.7026 63.5421 24.6848 63.5193 24.6669 63.4967C24.5542 63.3538 24.4424 63.2087 24.3307 63.0636C22.2903 60.3939 20.4794 57.4362 18.9242 54.2239C18.888 54.149 18.8448 54.0794 18.7963 54.0154C15.9787 48.1524 13.7909 40.998 12.6353 32.2634C12.5462 31.5899 11.9262 31.1159 11.2545 31.2053C10.5811 31.2944 10.1073 31.9128 10.1963 32.5861C11.2567 40.5998 13.2689 47.8426 16.1887 54.1914C10.9937 56.8522 8.71438 59.4811 8.61381 59.5989C8.28782 59.981 8.22695 60.5229 8.45959 60.9678L9.7688 63.4686L1.34639 69.1056C0.989557 69.3446 0.783004 69.7523 0.801707 70.1813C0.82041 70.6104 1.06142 70.9985 1.43794 71.2057L8.31948 74.9906V82.5924C8.31948 83.0339 8.55622 83.4416 8.93964 83.6606C9.1288 83.7686 9.33912 83.8225 9.54961 83.8225C9.76585 83.8225 9.98224 83.7655 10.175 83.6516L23.843 75.5826C23.8515 75.5775 23.859 75.5717 23.8674 75.5665C23.8813 75.5578 23.895 75.5488 23.9086 75.5396C23.933 75.523 23.9567 75.5056 23.9796 75.4876C23.9908 75.4787 24.0021 75.47 24.0129 75.4608C24.0418 75.4364 24.0692 75.4108 24.0954 75.3842C24.0997 75.38 24.1041 75.3762 24.1082 75.3718C24.1401 75.3384 24.1696 75.3035 24.1972 75.2672C24.198 75.2661 24.1991 75.2651 24.2001 75.2638C24.2022 75.2608 24.2039 75.2576 24.206 75.2546C24.2342 75.2164 24.2598 75.1768 24.2833 75.1358C24.2882 75.1271 24.2935 75.1186 24.2982 75.1099C24.322 75.0659 24.3435 75.021 24.3617 74.9747C24.3648 74.9669 24.3673 74.9588 24.3702 74.9508C24.385 74.9107 24.3976 74.8701 24.4083 74.8289C24.4111 74.8179 24.4142 74.8071 24.4167 74.7961C24.4277 74.748 24.436 74.6996 24.4413 74.6504C24.4419 74.6438 24.4421 74.6372 24.4426 74.6305C24.4465 74.5862 24.4478 74.5418 24.4469 74.4971C24.4467 74.487 24.4465 74.4768 24.4462 74.4666C24.4439 74.4163 24.4392 74.3657 24.4306 74.3155C24.43 74.3121 24.429 74.3086 24.4283 74.305C24.4201 74.2593 24.4086 74.214 24.395 74.1689C24.3914 74.157 24.3878 74.1454 24.384 74.1337C24.368 74.0857 24.3499 74.0379 24.3274 73.9912L22.6424 70.4749C23.6538 69.9707 24.8342 69.4537 26.1926 68.9668C30.733 73.6012 36.1329 77.1782 42.3463 79.6498C42.4924 79.7079 42.6465 79.7369 42.8009 79.7369C42.9553 79.7369 43.1095 79.7079 43.2555 79.6498C49.4578 77.1825 54.8661 73.6022 59.4096 68.9671C60.7679 69.4541 61.9481 69.9709 62.9594 70.475L61.2743 73.9913C61.2519 74.0381 61.2338 74.086 61.2177 74.1341C61.2138 74.1457 61.2102 74.1574 61.2067 74.1692C61.1931 74.2143 61.1816 74.2597 61.1734 74.3055C61.1728 74.309 61.1718 74.3124 61.1713 74.3159C61.1628 74.3661 61.158 74.4166 61.1557 74.467C61.1552 74.4773 61.1552 74.4875 61.1551 74.4976C61.1542 74.5423 61.1554 74.5867 61.1593 74.631C61.16 74.6376 61.16 74.6443 61.1606 74.6509C61.1657 74.6999 61.1743 74.7485 61.1853 74.7964C61.1877 74.8075 61.1908 74.8184 61.1938 74.8294C61.2043 74.8705 61.2169 74.9111 61.2317 74.9509C61.2346 74.959 61.2371 74.9672 61.2402 74.9752C61.2584 75.0215 61.2797 75.0663 61.3035 75.1101C61.3083 75.1189 61.3135 75.1276 61.3186 75.1363C61.3421 75.177 61.3675 75.2167 61.3956 75.2546C61.3979 75.2576 61.3994 75.261 61.4017 75.264C61.4026 75.2651 61.4036 75.2663 61.4046 75.2674C61.4322 75.3037 61.4617 75.3386 61.4935 75.3719C61.4976 75.3763 61.5021 75.3801 61.5063 75.3844C61.5324 75.411 61.56 75.4366 61.5888 75.461C61.5997 75.4702 61.611 75.4789 61.6221 75.4877C61.6451 75.5058 61.6687 75.5232 61.6932 75.5398C61.7068 75.5489 61.7204 75.5581 61.7342 75.5667C61.7426 75.5719 61.7501 75.5777 61.7586 75.5827L75.4264 83.6518C75.6192 83.7656 75.8353 83.8227 76.0518 83.8227C76.2621 83.8227 76.4726 83.7687 76.6618 83.6608C77.0452 83.4418 77.282 83.0341 77.282 82.5926V74.9906L84.1635 71.2057C84.5399 70.9987 84.781 70.6105 84.7997 70.1813C84.8176 69.7522 84.6112 69.3445 84.2542 69.1054ZM10.7801 80.4373V74.2629C10.7799 73.8145 10.5356 73.4015 10.1425 73.1851L4.39612 70.0247L10.9169 65.6608L15.2434 73.9251C15.2671 73.9705 15.2937 74.014 15.3226 74.0555C15.3339 74.0717 15.3472 74.0863 15.3592 74.1019C15.3782 74.1267 15.3969 74.152 15.4178 74.1749C15.4384 74.1979 15.4611 74.2187 15.4832 74.2401C15.4972 74.2533 15.5103 74.2675 15.5249 74.2799C15.5521 74.3037 15.5812 74.3254 15.6105 74.3467C15.6212 74.3544 15.6315 74.3626 15.6424 74.37C15.6752 74.3923 15.7095 74.4123 15.7444 74.4315C15.7526 74.4359 15.7606 74.4407 15.769 74.445C15.8064 74.4643 15.8448 74.4814 15.8843 74.4968C15.8909 74.4994 15.8975 74.5021 15.9042 74.5045C15.945 74.5198 15.9867 74.5327 16.0294 74.5437C16.0353 74.5452 16.0414 74.5467 16.0474 74.548C16.0742 74.5544 16.1002 74.5626 16.1276 74.5672L19.6973 75.1731L10.7801 80.4373ZM19.1262 72.5807C19.1549 72.5597 19.1851 72.5382 19.2148 72.5169C19.2784 72.4711 19.3419 72.4255 19.4089 72.3786C19.4499 72.3497 19.4937 72.3202 19.536 72.291C19.6046 72.2438 19.6725 72.1967 19.7442 72.1483C19.7875 72.1192 19.8336 72.0892 19.8783 72.0597C19.9536 72.0096 20.028 71.9601 20.1068 71.9091C20.135 71.8909 20.1655 71.8722 20.1942 71.8538C20.2828 71.797 20.3722 71.7403 20.4649 71.6825C20.472 71.6781 20.4797 71.6736 20.4868 71.6692L21.0826 72.9126L19.1262 72.5807ZM20.4197 68.8605C20.4162 68.8625 20.4124 68.8634 20.409 68.8654C20.3985 68.8712 20.3885 68.8769 20.378 68.8828C20.3778 68.8828 20.3778 68.8828 20.3777 68.883C20.3736 68.8853 20.3696 68.8876 20.3653 68.8899C20.3132 68.9187 20.2622 68.9474 20.211 68.9763C20.1156 69.0298 20.0223 69.0831 19.9303 69.1363C19.8755 69.1679 19.8205 69.1994 19.7669 69.2309C19.7608 69.2346 19.7549 69.238 19.7488 69.2416C19.7404 69.2465 19.7324 69.2514 19.724 69.2562C19.5762 69.3432 19.4332 69.4291 19.2934 69.5148C19.2719 69.5279 19.2496 69.5413 19.2282 69.5545C19.1434 69.6068 19.0609 69.6585 18.979 69.7102C18.9615 69.7212 18.9444 69.7321 18.927 69.7431C18.9249 69.7445 18.9229 69.7458 18.9208 69.7471C17.9748 70.3484 17.2303 70.9055 16.6777 71.3614L12.6533 63.6744L11.0544 60.6192C11.95 59.7741 13.9378 58.1137 17.262 56.4056C17.3894 56.6552 17.5184 56.9031 17.649 57.1496C17.7153 57.2748 17.783 57.3985 17.8501 57.523C18.0199 57.838 18.1917 58.1511 18.3666 58.461C18.4055 58.53 18.4424 58.6009 18.4814 58.6697C19.7956 60.9788 21.2447 63.1326 22.822 65.1324C22.8584 65.1786 22.8948 65.2249 22.9314 65.271C23.0596 65.4323 23.1884 65.5927 23.3183 65.7519C23.3851 65.8337 23.4523 65.9149 23.5194 65.9963C23.6338 66.1346 23.7478 66.2731 23.8631 66.4097C24.0352 66.6138 24.2086 66.816 24.3835 67.0163C22.8489 67.6143 21.5349 68.2459 20.4197 68.8605ZM61.2181 67.0161C61.2202 67.0128 61.223 67.0096 61.2258 67.0064C61.3319 66.8852 61.4363 66.762 61.5409 66.6396C61.6048 66.5649 61.6691 66.4913 61.7326 66.4163C61.8928 66.2268 62.0513 66.0355 62.2092 65.8432C62.2146 65.8367 62.22 65.8303 62.2252 65.8237C62.9955 64.8833 63.7367 63.9081 64.4465 62.8969C64.5406 62.7627 64.6312 62.6247 64.7241 62.4893C64.8371 62.3249 64.95 62.1606 65.0612 61.9944C65.1861 61.808 65.3098 61.6205 65.4325 61.4318C65.5316 61.2799 65.6293 61.1266 65.727 60.9732C65.8897 60.7178 66.0506 60.461 66.2098 60.2017C66.3176 60.026 66.4244 59.8494 66.5304 59.6721C66.6547 59.464 66.7781 59.2554 66.9 59.0449C67.0371 58.8085 67.1727 58.5707 67.3069 58.3314C67.3805 58.1996 67.4547 58.0684 67.5275 57.9357C67.7032 57.6162 67.8758 57.2937 68.0463 56.969C68.1042 56.8586 68.1616 56.7478 68.219 56.6369C68.2589 56.5598 68.2996 56.4834 68.3391 56.4059C71.6399 58.1045 73.6423 59.7745 74.5452 60.6222L68.923 71.3614C68.3703 70.9055 67.6258 70.3482 66.6795 69.7469C66.6775 69.7456 66.6757 69.7445 66.6738 69.7431C66.6565 69.7321 66.6393 69.7212 66.6219 69.7102C66.5402 69.6585 66.4577 69.6068 66.373 69.5546C66.3463 69.5382 66.3182 69.5213 66.2912 69.5049C66.1566 69.4226 66.019 69.3399 65.8769 69.2562C65.8685 69.2513 65.8605 69.2464 65.8521 69.2416C65.8461 69.238 65.8402 69.2346 65.8341 69.2309C65.7804 69.1994 65.7253 69.1679 65.6707 69.1363C65.5785 69.0831 65.4851 69.03 65.39 68.9763C65.3388 68.9476 65.2876 68.9187 65.2356 68.8899C65.2315 68.8876 65.2276 68.8853 65.2233 68.883C65.2231 68.883 65.2231 68.8828 65.2231 68.8828C65.2126 68.8771 65.2026 68.8713 65.1921 68.8654C65.1887 68.8634 65.1849 68.8623 65.1815 68.8603C64.0665 68.2461 62.7527 67.6143 61.2181 67.0161ZM64.8717 72.1767L65.1148 71.6695C65.1221 71.674 65.1296 71.6786 65.1368 71.683C65.2294 71.7404 65.3181 71.797 65.4062 71.8535C65.4353 71.872 65.4663 71.891 65.495 71.9096C65.5741 71.9606 65.6487 72.0105 65.7242 72.0607C65.7683 72.0899 65.8142 72.1197 65.8572 72.1486C65.9291 72.197 65.9972 72.2443 66.0659 72.2917C66.1082 72.3209 66.1519 72.3504 66.1929 72.3793C66.2585 72.4254 66.3209 72.47 66.3834 72.515C66.4142 72.5371 66.4457 72.5596 66.4757 72.5814L64.5196 72.9135L64.8717 72.1767ZM75.4584 73.1851C75.0655 73.4014 74.821 73.8145 74.821 74.263V80.4375L65.904 75.1729L69.4736 74.567C69.4866 74.5649 69.4989 74.5605 69.5117 74.5578C69.542 74.5516 69.5721 74.5446 69.6018 74.5362C69.6232 74.5301 69.6446 74.5236 69.6656 74.5163C69.6941 74.5065 69.7222 74.4957 69.7497 74.4837C69.7702 74.475 69.7906 74.4661 69.8106 74.4563C69.8377 74.443 69.8638 74.4282 69.8897 74.413C69.9086 74.402 69.9274 74.3913 69.9455 74.3793C69.9714 74.3621 69.996 74.3433 70.0206 74.3242C70.0368 74.3116 70.0536 74.2998 70.069 74.2863C70.0946 74.2643 70.1184 74.2404 70.1422 74.2163C70.1548 74.2035 70.1683 74.1917 70.1802 74.1782C70.208 74.1475 70.2336 74.1146 70.2582 74.0809C70.2644 74.0724 70.2716 74.0648 70.2775 74.0561C70.3067 74.0143 70.3335 73.9703 70.3574 73.9246L74.684 65.6603L81.2047 70.0242L75.4584 73.1851Z" fill="#484848"/>
<path d="M68.3665 19.9904C68.3068 19.4108 67.8487 18.9527 67.2691 18.8928C53.0783 17.4289 43.6819 9.72346 43.5895 9.64651C43.1334 9.2654 42.4693 9.2654 42.0126 9.64586C41.9194 9.72362 32.5229 17.4291 18.332 18.8928C17.7523 18.9527 17.2943 19.4108 17.2345 19.9904C17.2111 20.2185 16.6694 25.6605 17.5144 33.0912C18.2975 39.9747 20.4797 49.9012 26.428 58.1002C26.6686 58.4318 27.0441 58.608 27.4246 58.608C27.6749 58.608 27.9277 58.5317 28.1459 58.3733C28.6957 57.9744 28.8183 57.2051 28.4191 56.6553C22.7972 48.9062 20.719 39.445 19.9655 32.8725C19.3477 27.4832 19.4945 23.0974 19.6084 21.2233C31.7874 19.709 40.2525 14.0483 42.8004 12.1488C45.3484 14.0484 53.8127 19.7095 65.9932 21.2233C66.0774 22.5929 66.1793 25.305 65.984 28.7762C65.946 29.4546 66.4649 30.0352 67.1431 30.0733C67.8233 30.11 68.4025 29.5929 68.4403 28.9145C68.7353 23.6662 68.3818 20.1382 68.3665 19.9904Z" fill="#484848"/>
<path d="M66.9131 32.61C66.2398 32.5247 65.6238 33.0017 65.5384 33.6757C62.8004 55.3103 51.766 64.2828 42.8001 67.9963C38.4674 66.2036 34.6679 63.6305 31.5013 60.3435C31.0303 59.8545 30.2513 59.8395 29.7621 60.3111C29.2729 60.7824 29.2583 61.5612 29.7296 62.0504C33.2514 65.7059 37.496 68.5376 42.3458 70.4668C42.4919 70.5248 42.646 70.5539 42.8004 70.5539C42.9548 70.5539 43.109 70.5248 43.255 70.4668C51.1854 67.312 57.3921 61.8194 61.7027 54.1415C64.8942 48.457 67.0056 41.6753 67.979 33.9846C68.0643 33.3108 67.5869 32.6953 66.9131 32.61Z" fill="#484848"/>
<path d="M56.5548 29.6237C54.8748 27.9439 52.1418 27.9442 50.4619 29.6239L39.5057 40.5801L35.5508 36.6251C33.8708 34.9452 31.1379 34.9454 29.4579 36.6252C27.7783 38.3052 27.7783 41.0383 29.4579 42.7181L36.4596 49.7196C37.273 50.5333 38.355 50.9812 39.5057 50.9812C40.6567 50.9812 41.7386 50.533 42.5521 49.7194L56.5549 35.7168C58.2346 34.037 58.2346 31.3037 56.5548 29.6237ZM54.8156 33.9773L40.8128 47.9799C40.4638 48.3288 39.9997 48.5211 39.506 48.5211C39.0124 48.5211 38.5482 48.3288 38.1993 47.9799L31.198 40.9786C30.4772 40.2579 30.4772 39.0855 31.1976 38.3648C31.5579 38.0045 32.0312 37.8243 32.5047 37.8243C32.9779 37.8243 33.4512 38.0046 33.8115 38.3648L38.636 43.1896C38.8668 43.4205 39.1795 43.5499 39.5059 43.5499C39.832 43.5499 40.1449 43.4203 40.3757 43.1896L52.2016 31.3636C52.9224 30.6427 54.0947 30.6426 54.8156 31.3633C55.5361 32.0842 55.5361 33.2567 54.8156 33.9773Z" fill="#484848"/>
</g>
<defs>
<clipPath id="clip0_1097_4548">
<rect width="84" height="84" fill="white" transform="translate(0.800537)"/>
</clipPath>
</defs>
</svg>
