<svg width="36" height="37" viewBox="0 0 36 37" fill="none" xmlns="http://www.w3.org/2000/svg">
<path d="M15.1875 0.5H6.1875C5.60531 0.5 5.13281 0.9725 5.13281 1.55469V7.20289C5.13281 7.78578 5.60531 8.25758 6.1875 8.25758H15.1875C15.7697 8.25758 16.2422 7.78578 16.2422 7.20289V1.55469C16.2422 0.9725 15.7697 0.5 15.1875 0.5ZM14.1328 6.1482L10.6588 7.76539L7.24219 6.1482V2.60938H14.1328V6.1482Z" fill="#525C74"/>
<path d="M16.2422 1.55469V7.20289C16.2422 7.78578 15.7697 8.25758 15.1875 8.25758H10.6587V7.8357L14.1328 6.1482V2.60938H10.6587V0.5H15.1875C15.7697 0.5 16.2422 0.9725 16.2422 1.55469Z" fill="#444E66"/>
<path d="M20.3203 10.0626L19.8984 32.9141C19.8984 34.9377 18.6173 35.1641 16.5938 35.1641L10.1672 36.5001H7.19578L6.25781 36.1485L5.08641 36.5001H3.67031C1.64672 36.5001 0 34.8533 0 32.8297V12.7766L0.421875 11.7501L0 10.6672V9.81787C0 7.79427 1.64672 6.14685 3.67031 6.14685H5.13L6.11719 6.82818L7.24219 6.14685H10.1672L13.9922 7.67193L17.5078 6.89849C19.0388 11.5539 20.314 8.09894 20.3203 10.0626Z" fill="#68B9CF"/>
<path d="M21.3175 9.81769V32.8294C21.3175 34.8532 19.6707 36.5 17.6469 36.5H10.6587V6.77991L11.7881 6.14709H17.647C19.6707 6.14709 21.3175 7.79388 21.3175 9.81769Z" fill="#68B9CF"/>
<path d="M21.3173 10.6672H12.2766V6.14685H10.1672V10.6672H7.23291L7.23938 6.14685H5.13L5.12353 10.6672H0V12.7766H5.12051L5.08641 36.5001H7.19578L7.22988 12.7766H10.1672V36.5001H12.2766V12.7766H21.3173V10.6672Z" fill="#4AB7D3"/>
<path d="M21.3175 10.6647H11.7881V6.14709H10.6587V36.5H11.7881V12.7823H21.3175V10.6647Z" fill="#42A8C3"/>
<path d="M26.1657 15.1824H19.999C18.0014 15.1824 16.3765 16.8073 16.3765 18.8049V20.7588C16.3765 21.3433 16.8508 21.8177 17.4353 21.8177H28.7294C29.3139 21.8177 29.7882 21.3434 29.7882 20.7588V18.8049C29.7882 16.8073 28.1633 15.1824 26.1657 15.1824ZM27.6706 19.7L23.0823 20.7547L18.4941 19.7V18.8049C18.4941 17.9748 19.1689 17.3 19.999 17.3H26.1657C26.9958 17.3 27.6706 17.9748 27.6706 18.8049V19.7H27.6706Z" fill="#525C74"/>
<path d="M29.7882 18.8049V20.7588C29.7882 21.3432 29.3139 21.8176 28.7294 21.8176H23.0823V21.0359L27.6705 19.7V18.8049C27.6705 17.9748 26.9957 17.2999 26.1655 17.2999H23.0823V15.1823H26.1655C28.1633 15.1823 29.7882 16.8072 29.7882 18.8049Z" fill="#444E66"/>
<path d="M36.0001 22.741V33.4591C36.0001 35.1356 34.6356 36.5001 32.9591 36.5001H13.2057C11.5293 36.5001 10.1648 35.1356 10.1648 33.4591V22.741C10.1648 21.0646 11.5293 19.7001 13.2057 19.7001H32.9591C34.6356 19.7001 36.0001 21.0645 36.0001 22.741Z" fill="#FFCAAF"/>
<path d="M35.9999 22.741V33.4591C35.9999 35.1356 34.6355 36.5001 32.959 36.5001H23.0823V19.7001H32.959C34.6355 19.7001 35.9999 21.0645 35.9999 22.741Z" fill="#FFBFAB"/>
</svg>
