<svg width="86" height="88" viewBox="0 0 86 88" fill="none" xmlns="http://www.w3.org/2000/svg">
<path d="M42.8006 11.2944C43.5143 11.2944 44.0926 10.7161 44.0926 10.0024V1.29201C44.0926 0.578303 43.5143 0 42.8006 0C42.0869 0 41.5086 0.578303 41.5086 1.29201V10.0024C41.5086 10.7161 42.0869 11.2944 42.8006 11.2944V11.2944Z" fill="#484848"/>
<path d="M18.6952 20.5227C19.1999 21.0271 20.0177 21.0271 20.5224 20.5227C21.027 20.0179 21.027 19.2 20.5224 18.6954L14.3632 12.536C13.8586 12.0318 13.0407 12.0314 12.5359 12.536C12.0313 13.0408 12.0313 13.8587 12.5359 14.3633L18.6952 20.5227Z" fill="#484848"/>
<path d="M10.0025 41.5083H1.29201C0.578303 41.5083 0 42.0866 0 42.8003C0 43.514 0.578303 44.0923 1.29201 44.0923H10.0024C10.7161 44.0923 11.2944 43.514 11.2944 42.8003C11.2944 42.0866 10.7161 41.5083 10.0025 41.5083V41.5083Z" fill="#484848"/>
<path d="M18.6952 65.0784L12.5359 71.2376C12.0313 71.7424 12.0313 72.5603 12.5359 73.0649C13.0407 73.5693 13.8584 73.5693 14.3632 73.0649L20.5224 66.9056C21.027 66.4009 21.027 65.5829 20.5224 65.0784C20.0178 64.5741 19.1999 64.5741 18.6952 65.0784Z" fill="#484848"/>
<path d="M66.9058 65.0785C66.4011 64.5741 65.5832 64.5741 65.0786 65.0785C64.574 65.5832 64.574 66.4012 65.0786 66.9057L71.2379 73.065C71.7426 73.5694 72.5603 73.5694 73.0651 73.065C73.5697 72.5602 73.5697 71.7423 73.0651 71.2378L66.9058 65.0785Z" fill="#484848"/>
<path d="M84.309 41.5083H75.5986C74.8849 41.5083 74.3066 42.0866 74.3066 42.8003C74.3066 43.514 74.8849 44.0923 75.5986 44.0923H84.309C85.0227 44.0923 85.601 43.514 85.601 42.8003C85.601 42.0866 85.0225 41.5083 84.309 41.5083Z" fill="#484848"/>
<path d="M71.2379 12.536L65.0786 18.6954C64.574 19.2002 64.574 20.0181 65.0786 20.5227C65.5833 21.0271 66.4011 21.0271 66.9058 20.5227L73.0651 14.3633C73.5697 13.8585 73.5697 13.0406 73.0651 12.536C72.5603 12.0316 71.7424 12.0316 71.2379 12.536V12.536Z" fill="#484848"/>
<path d="M68.3241 40.1887C68.3241 25.9126 56.8743 14.2981 42.8006 14.2981C37.8706 14.2981 33.0857 15.7267 28.9634 18.4294C24.9526 21.0591 21.7553 24.7585 19.7172 29.1278C19.4156 29.7744 19.6954 30.5433 20.3419 30.8449C20.9891 31.1469 21.7574 30.8668 22.059 30.2203C25.8384 22.1177 33.98 16.8821 42.8006 16.8821C55.4495 16.8821 65.7401 27.3374 65.7401 40.1887C65.7401 46.2928 63.4334 52.0638 59.2453 56.4382C56.8313 58.9593 54.7765 61.3683 54.2478 64.7437H31.6912C31.0251 61.2397 28.6348 58.7812 26.487 56.574C22.2143 52.1829 19.8611 46.3637 19.8611 40.1887C19.8611 38.664 20.007 37.1391 20.2945 35.656C20.4304 34.9556 19.9727 34.2775 19.2721 34.1416C18.5717 34.0067 17.8936 34.4636 17.7577 35.1642C17.4387 36.8088 17.2771 38.4993 17.2771 40.1887C17.2771 47.0407 19.8902 53.4998 24.6351 58.376C27.3602 61.1764 29.2893 63.4118 29.2893 66.6881C29.2893 66.6995 29.2895 66.7112 29.2898 66.7226L29.3639 74.3046C29.3639 76.7644 30.676 78.9234 32.637 80.119V81.5398C32.637 85.102 35.5349 87.9999 39.097 87.9999H47.0213C50.5835 87.9999 53.4814 85.102 53.4814 81.5398V80.119C55.4423 78.9234 56.7544 76.7644 56.7544 74.3046C56.7544 74.3046 56.7453 65.859 56.7281 65.7748C56.9732 62.7804 58.7882 60.652 61.1118 58.2251C65.7625 53.3674 68.3241 46.9618 68.3241 40.1887V40.1887ZM50.8972 81.5398C50.8972 83.677 49.1583 85.4159 47.0211 85.4159H39.0968C36.9597 85.4159 35.2208 83.677 35.2208 81.5398V81.0418C35.5307 81.0852 35.8467 81.1092 36.1683 81.1092H49.9497C50.2713 81.1092 50.5873 81.0851 50.8972 81.0418V81.5398ZM49.9497 78.5252H36.1683C33.8409 78.5252 31.9477 76.6319 31.9477 74.3046V74.2185H45.0401C45.7538 74.2185 46.3321 73.6402 46.3321 72.9265C46.3321 72.2128 45.7538 71.6345 45.0401 71.6345H31.9477V67.3278H54.1303L54.1703 71.6345H51.0694C50.3557 71.6345 49.7774 72.2128 49.7774 72.9265C49.7774 73.6402 50.3557 74.2185 51.0694 74.2185H54.1703V74.3046C54.1703 76.6319 52.2769 78.5252 49.9497 78.5252V78.5252Z" fill="#484848"/>
<path d="M51.2004 40.3598C50.7628 40.9233 50.865 41.735 51.4285 42.1725C51.9918 42.6103 52.8035 42.5083 53.2412 41.9445L55.7991 38.6505C56.4764 37.7783 56.7734 36.6946 56.6356 35.5988C56.4976 34.503 55.9413 33.5266 55.069 32.8492C54.1968 32.1719 53.1124 31.8732 52.0173 32.0129C50.9215 32.1507 49.9451 32.707 49.2679 33.5793L40.9234 44.3261L36.1344 39.0273C34.6055 37.3363 31.9858 37.2043 30.295 38.7325C29.4757 39.4731 28.9939 40.4883 28.938 41.5913C28.8824 42.6942 29.2595 43.7528 29.9999 44.5722L38.0967 53.5301C39.7265 55.4206 42.947 55.3047 44.4294 53.2935L49.5432 46.7077C49.9807 46.1442 49.8786 45.3324 49.3151 44.8949C48.7516 44.4573 47.94 44.5591 47.5023 45.123L42.3885 51.7088C41.8335 52.4629 40.6223 52.5069 40.0138 51.7975L31.9172 42.8396C31.3439 42.2053 31.3936 41.223 32.028 40.6497C32.662 40.0771 33.6444 40.126 34.2177 40.7605L40.0404 47.2026C40.5479 47.791 41.5567 47.7573 42.0194 47.1285L51.3092 35.1643C51.8066 34.4956 52.8378 34.3659 53.4846 34.8906C54.1536 35.3881 54.2831 36.4185 53.7584 37.0662L51.2004 40.3598Z" fill="#484848"/>
</svg>
