<svg width="120" height="117" viewBox="0 0 120 117" fill="none" xmlns="http://www.w3.org/2000/svg">
<rect x="0.5" y="0.5" width="119" height="115.757" rx="19.5" stroke="white" stroke-opacity="0.4" stroke-dasharray="5 5"/>
<g clip-path="url(#clip0_1758_40915)">
<path d="M58.9771 64.7374C58.9771 65.3386 58.5115 65.8042 57.9103 65.8042H51.0441C50.7353 65.8084 50.4123 65.6977 50.21 65.4551C49.8027 65.009 49.8415 64.3495 50.2681 63.9422L56.0094 58.744C56.9816 57.8725 57.0842 56.3396 56.2863 55.3177C55.4646 54.2654 53.8968 54.0905 52.8271 54.866C52.399 55.1764 52.0428 55.7354 51.4948 55.8305C50.9831 55.9192 50.4768 55.6034 50.3075 55.1178C50.0378 54.3434 50.7002 53.8801 51.1991 53.4294C52.072 52.6149 53.2163 52.2268 54.322 52.2268C55.5828 52.2268 56.8629 52.7505 57.7745 53.7592C58.5892 54.632 58.9771 55.7763 58.9771 56.8821C58.9771 58.1428 58.4534 59.4229 57.4449 60.3346L53.7789 63.6514H57.9103C58.5117 63.6512 58.9771 64.1362 58.9771 64.7374Z" fill="#FFA300"/>
<path d="M69.8969 62.1965C69.8969 62.7977 69.412 63.2633 68.8107 63.2633H68.6168V64.7374C68.6168 65.3386 68.1512 65.8042 67.55 65.8042C66.9487 65.8042 66.4832 65.3386 66.4832 64.7374V63.2633H60.4121C59.5113 63.2942 58.9831 62.2397 59.5394 61.537C59.7866 61.2298 66.6348 52.6943 66.7156 52.6153C66.7827 52.5495 66.869 52.4627 66.9489 52.4109C67.649 51.9582 68.6171 52.4314 68.6171 53.2936V61.1297H68.811C69.412 61.1297 69.8969 61.6145 69.8969 62.1965ZM66.483 56.3388L62.6231 61.1297H66.483V56.3388Z" fill="#FFA300"/>
<path d="M94.5987 45.146C91.6738 28.7004 76.4724 17 59.9998 17C43.5271 17 28.3264 28.7007 25.4011 45.1459C21.7792 45.7112 19 48.8299 19 52.5816V56.5586C19 58.1078 21.4023 58.1078 21.4023 56.5586V52.5814C21.4023 49.7553 23.7264 47.4561 26.5831 47.4561H29.0898V72.3811H26.5831C23.7264 72.3812 21.4023 70.082 21.4023 67.2561V62.6445C21.4023 61.0953 19 61.0953 19 62.6445V67.2561C19 71.4068 22.4017 74.7836 26.5831 74.7836H29.218C30.3319 78.9427 36.7086 78.1241 36.7086 73.8103V46.0272C36.7086 41.7209 30.3339 40.8876 29.218 45.0539H27.8634C30.8136 29.9861 44.8635 19.4023 59.9998 19.4023C75.1362 19.4023 89.1862 29.9859 92.1365 45.0539H90.782C89.6681 40.895 83.2912 41.7136 83.2912 46.0272V73.8103C83.2912 78.1167 89.6662 78.9502 90.782 74.7836H92.1206C89.9651 86.1982 79.5311 93.6392 68.1926 93.9983C67.6821 92.5047 66.2584 91.4267 64.5853 91.4267H55.4147C53.3508 91.4267 51.6052 93.1428 51.6052 95.2134C51.6052 97.2841 53.3508 99 55.4147 99H64.5853C66.2685 99 67.6994 97.9089 68.2019 96.4011C80.9057 96.0267 92.4185 87.4921 94.576 74.6956C98.209 74.1401 101 71.0156 101 67.2561V52.5816C101 48.8299 98.2206 45.7112 94.5987 45.146ZM31.4922 46.0272C31.4922 44.2402 34.3063 44.2391 34.3063 46.0272V73.8103C34.3063 75.5976 31.4922 75.5986 31.4922 73.8103V46.0272ZM64.5853 96.5977H55.4147C53.6054 96.5977 53.6042 93.829 55.4147 93.829H64.5853C66.3947 93.829 66.396 96.5977 64.5853 96.5977ZM88.5078 73.8103C88.5078 75.5976 85.6935 75.5986 85.6935 73.8103V46.0272C85.6935 44.24 88.5078 44.2391 88.5078 46.0272V73.8103ZM98.5977 67.2561C98.5977 70.0822 96.2735 72.3812 93.4166 72.3812H90.9102V47.4563H93.4166C96.2735 47.4563 98.5977 49.7555 98.5977 52.5816V67.2561Z" fill="#FFA300"/>
<path d="M66.21 77.6681L73.4332 80.8504C74.213 81.1942 75.1185 80.6005 75.1185 79.7512V71.7135C78.1639 68.1604 79.8353 63.6576 79.8353 58.9804C79.8353 54.8618 78.5651 50.9178 76.1622 47.5746C75.2586 46.3162 73.3073 47.7187 74.2115 48.9766C76.3189 51.9089 77.4328 55.3681 77.4328 58.9804C77.4328 63.2189 75.8671 67.2952 73.0238 70.4583C72.8257 70.6789 72.716 70.9649 72.716 71.2613V77.9096L66.7502 75.2813C66.4704 75.1578 66.1538 75.1461 65.8655 75.248C63.9846 75.9134 62.0112 76.2507 59.9999 76.2507C50.3875 76.2507 42.5672 68.5033 42.5672 58.9804C42.5672 49.4575 50.3877 41.71 60.0001 41.71C63.5847 41.71 67.0272 42.7788 69.9555 44.8011C71.2302 45.6814 72.5954 43.7047 71.3206 42.8243C67.9891 40.5237 64.0744 39.3076 60.0001 39.3076C49.063 39.3076 40.165 48.1327 40.165 58.9802C40.165 69.8278 49.063 78.6529 60.0001 78.6529C62.1228 78.6529 64.2093 78.3218 66.21 77.6681Z" fill="#FFA300"/>
</g>
<defs>
<clipPath id="clip0_1758_40915">
<rect width="82" height="82" fill="white" transform="translate(19 17)"/>
</clipPath>
</defs>
</svg>
