<svg width="34" height="35" viewBox="0 0 34 35" fill="none" xmlns="http://www.w3.org/2000/svg">
<path d="M6.94124 25.886L1.98689 21.9891C1.71625 21.7855 1.62764 21.4262 1.79008 21.1909C2.58415 20.0409 4.11384 19.6482 5.61683 20.2084L10.0976 22.7501L6.94124 25.886Z" fill="#42A8C3"/>
<path d="M8.604 27.5486L12.5111 32.5132C12.7147 32.7838 13.0741 32.8724 13.3093 32.71L13.6047 32.506C14.5774 31.8344 14.9095 30.5405 14.4357 29.2692L11.7501 24.4025L8.604 27.5486Z" fill="#42A8C3"/>
<path d="M7.23037 21.1234L4.42725 23.9084L6.94131 25.8858L10.0977 22.7499L7.23037 21.1234Z" fill="#219FC0"/>
<path d="M8.28345 10.6235C7.66125 10.0013 7.61203 9.00988 8.16789 8.32779C8.96294 7.35214 9.95904 6.26575 10.5566 5.66822C11.374 4.85077 11.4454 4.94843 12.3188 4.41308C12.4474 4.33424 12.6133 4.35325 12.72 4.45989L14.4471 6.18704C14.5538 6.29368 14.5727 6.45963 14.4939 6.58821C13.9586 7.46158 14.0562 7.53293 13.2388 8.35038C12.6413 8.9479 11.5549 9.944 10.5792 10.739C9.89706 11.2948 8.90559 11.2457 8.28345 10.6235Z" fill="#FFBFAB"/>
<path d="M23.8762 26.2163C23.254 25.5941 23.2048 24.6027 23.7607 23.9206C24.5557 22.9449 25.5518 21.8585 26.1493 21.261C26.9668 20.4435 27.0381 20.5412 27.9116 20.0059C28.0402 19.927 28.2061 19.946 28.3127 20.0527L30.0399 21.7798C30.1465 21.8864 30.1655 22.0524 30.0867 22.181C29.5513 23.0544 29.649 23.1257 28.8316 23.9432C28.234 24.5407 27.1476 25.5368 26.172 26.3319C25.4898 26.8877 24.4984 26.8385 23.8762 26.2163Z" fill="#FFBFAB"/>
<path d="M16.0834 16.513L22.1958 10.4006L3.2608 4.45138C2.8709 4.35184 2.48326 4.44663 2.22532 4.70457L0.625583 6.30431C0.0898411 6.84005 0.319789 7.82215 1.0761 8.22827L16.0834 16.513Z" fill="#42A8C3"/>
<path d="M17.9175 9.05652L12.4607 14.5133L16.0834 16.5132L22.1958 10.4007L17.9175 9.05652Z" fill="#219FC0"/>
<path d="M17.9868 18.4166L24.0992 12.3042L30.0485 31.2392C30.148 31.6291 30.0532 32.0168 29.7953 32.2747L28.1955 33.8744C27.6598 34.4102 26.6777 34.1802 26.2716 33.4239L17.9868 18.4166Z" fill="#42A8C3"/>
<path d="M29.524 9.73461L19.2552 20.0033C17.5322 21.7263 15.7003 23.3335 13.7825 24.8047L8.8968 28.5526C7.76574 29.4204 6.42056 29.5253 5.69758 28.8023C4.9746 28.0793 5.07954 26.7342 5.94725 25.6031L9.69517 20.7174C11.1664 18.7996 12.7735 16.9678 14.4966 15.2447L24.7654 4.97602C26.1691 3.57224 27.7814 2.40264 29.4846 1.59965C30.9513 0.908177 32.5104 0.474974 33.2677 1.23227C34.025 1.98956 33.5917 3.54861 32.9003 5.01534C32.0973 6.71866 30.9277 8.33083 29.524 9.73461Z" fill="#E0F3FC"/>
<path d="M33.2676 1.23229C33.0011 0.965755 32.6349 0.847135 32.2087 0.834961C32.2394 1.62363 31.8974 2.62389 31.4444 3.58457C30.6415 5.28776 29.4719 6.9 28.0681 8.30377L17.7994 18.5725C16.0764 20.2955 14.2445 21.9027 12.3267 23.3738L7.44101 27.1217C6.72161 27.6736 5.91575 27.9164 5.23828 27.8344C5.28919 28.2103 5.44095 28.5456 5.69759 28.8022C6.42057 29.5252 7.76575 29.4202 8.89681 28.5525L13.7825 24.8046C15.7003 23.3334 17.5321 21.7263 19.2552 20.0032L29.5239 9.73457C30.9277 8.33079 32.0973 6.71855 32.9003 5.01536C33.5917 3.54863 34.0249 1.98958 33.2676 1.23229Z" fill="#C3D3DB"/>
<path d="M30.3749 7.76822L30.0243 8.11887C29.6986 8.44452 26.0558 4.80168 26.3814 4.47603L26.7321 4.12538C26.9531 3.90435 27.2775 3.83469 27.5417 3.95155C28.858 4.53384 29.9664 5.64231 30.5488 6.95865C30.6655 7.22277 30.5959 7.54719 30.3749 7.76822Z" fill="#51C4F5"/>
<path d="M6.80711 28.181C6.68218 28.181 6.55718 28.1334 6.46187 28.038C6.27118 27.8473 6.27118 27.5381 6.46187 27.3475L10.7259 23.0834C10.9166 22.8928 11.2258 22.8928 11.4164 23.0834C11.6071 23.2741 11.6071 23.5833 11.4164 23.7739L7.15236 28.038C7.05705 28.1333 6.93211 28.181 6.80711 28.181Z" fill="#42A8C3" fill-opacity="0.92"/>
</svg>
