<svg width="88" height="88" viewBox="0 0 88 88" fill="none" xmlns="http://www.w3.org/2000/svg">
<g clip-path="url(#clip0_606_1221)">
<path d="M44 11.2944C44.7137 11.2944 45.292 10.7161 45.292 10.0024V1.29201C45.292 0.578303 44.7137 0 44 0C43.2863 0 42.708 0.578303 42.708 1.29201V10.0024C42.708 10.7161 43.2863 11.2944 44 11.2944V11.2944Z" fill="white"/>
<path d="M19.8946 20.5227C20.3994 21.0271 21.2171 21.0271 21.7219 20.5227C22.2264 20.0179 22.2264 19.2 21.7219 18.6954L15.5626 12.536C15.058 12.0318 14.2401 12.0314 13.7354 12.536C13.2308 13.0408 13.2308 13.8587 13.7354 14.3633L19.8946 20.5227Z" fill="white"/>
<path d="M11.202 41.5083H2.49147C1.77777 41.5083 1.19946 42.0866 1.19946 42.8003C1.19946 43.514 1.77777 44.0923 2.49147 44.0923H11.2018C11.9155 44.0923 12.4938 43.514 12.4938 42.8003C12.4938 42.0866 11.9155 41.5083 11.202 41.5083V41.5083Z" fill="white"/>
<path d="M19.8946 65.0784L13.7354 71.2376C13.2308 71.7424 13.2308 72.5603 13.7354 73.0649C14.2401 73.5693 15.0579 73.5693 15.5626 73.0649L21.7219 66.9056C22.2264 66.4009 22.2264 65.5829 21.7219 65.0784C21.2173 64.5741 20.3994 64.5741 19.8946 65.0784Z" fill="white"/>
<path d="M68.1053 65.0785C67.6006 64.5741 66.7827 64.5741 66.2781 65.0785C65.7735 65.5832 65.7735 66.4012 66.2781 66.9057L72.4373 73.065C72.9421 73.5694 73.7598 73.5694 74.2646 73.065C74.7692 72.5602 74.7692 71.7423 74.2646 71.2378L68.1053 65.0785Z" fill="white"/>
<path d="M85.5085 41.5083H76.7981C76.0844 41.5083 75.5061 42.0866 75.5061 42.8003C75.5061 43.514 76.0844 44.0923 76.7981 44.0923H85.5085C86.2222 44.0923 86.8005 43.514 86.8005 42.8003C86.8005 42.0866 86.222 41.5083 85.5085 41.5083Z" fill="white"/>
<path d="M72.4373 12.536L66.2781 18.6954C65.7735 19.2002 65.7735 20.0181 66.2781 20.5227C66.7828 21.0271 67.6006 21.0271 68.1053 20.5227L74.2646 14.3633C74.7692 13.8585 74.7692 13.0406 74.2646 12.536C73.7598 12.0316 72.9419 12.0316 72.4373 12.536V12.536Z" fill="white"/>
<path d="M69.5236 40.1887C69.5236 25.9126 58.0738 14.2981 44.0001 14.2981C39.0701 14.2981 34.2852 15.7267 30.1629 18.4294C26.1521 21.0591 22.9548 24.7585 20.9167 29.1278C20.6151 29.7744 20.8949 30.5433 21.5414 30.8449C22.1886 31.1469 22.9569 30.8668 23.2585 30.2203C27.0379 22.1177 35.1795 16.8821 44.0001 16.8821C56.649 16.8821 66.9396 27.3374 66.9396 40.1887C66.9396 46.2928 64.6329 52.0638 60.4448 56.4382C58.0308 58.9593 55.976 61.3683 55.4473 64.7437H32.8907C32.2246 61.2397 29.8343 58.7812 27.6865 56.574C23.4138 52.1829 21.0606 46.3637 21.0606 40.1887C21.0606 38.664 21.2065 37.1391 21.494 35.656C21.6299 34.9556 21.1722 34.2775 20.4716 34.1416C19.7712 34.0067 19.0931 34.4636 18.9572 35.1642C18.6381 36.8088 18.4766 38.4993 18.4766 40.1887C18.4766 47.0407 21.0897 53.4998 25.8346 58.376C28.5597 61.1764 30.4888 63.4118 30.4888 66.6881C30.4888 66.6995 30.489 66.7112 30.4893 66.7226L30.5634 74.3046C30.5634 76.7644 31.8755 78.9234 33.8365 80.119V81.5398C33.8365 85.102 36.7343 87.9999 40.2965 87.9999H48.2208C51.783 87.9999 54.6808 85.102 54.6808 81.5398V80.119C56.6418 78.9234 57.9539 76.7644 57.9539 74.3046C57.9539 74.3046 57.9448 65.859 57.9276 65.7748C58.1727 62.7804 59.9877 60.652 62.3113 58.2251C66.962 53.3674 69.5236 46.9618 69.5236 40.1887V40.1887ZM52.0967 81.5398C52.0967 83.677 50.3578 85.4159 48.2206 85.4159H40.2963C38.1592 85.4159 36.4203 83.677 36.4203 81.5398V81.0418C36.7302 81.0852 37.0462 81.1092 37.3678 81.1092H51.1492C51.4708 81.1092 51.7867 81.0851 52.0967 81.0418V81.5398ZM51.1492 78.5252H37.3678C35.0404 78.5252 33.1472 76.6319 33.1472 74.3046V74.2185H46.2396C46.9533 74.2185 47.5316 73.6402 47.5316 72.9265C47.5316 72.2128 46.9533 71.6345 46.2396 71.6345H33.1472V67.3278H55.3298L55.3697 71.6345H52.2689C51.5552 71.6345 50.9769 72.2128 50.9769 72.9265C50.9769 73.6402 51.5552 74.2185 52.2689 74.2185H55.3697V74.3046C55.3697 76.6319 53.4764 78.5252 51.1492 78.5252V78.5252Z" fill="white"/>
<path d="M52.3998 40.3598C51.9622 40.9233 52.0644 41.735 52.6279 42.1725C53.1912 42.6103 54.0029 42.5083 54.4406 41.9445L56.9985 38.6505C57.6758 37.7783 57.9728 36.6946 57.835 35.5988C57.697 34.503 57.1408 33.5266 56.2684 32.8492C55.3962 32.1719 54.3118 31.8732 53.2167 32.0129C52.1209 32.1507 51.1445 32.707 50.4673 33.5793L42.1228 44.3261L37.3338 39.0273C35.8049 37.3363 33.1852 37.2043 31.4944 38.7325C30.6751 39.4731 30.1933 40.4883 30.1375 41.5913C30.0818 42.6942 30.4589 43.7528 31.1993 44.5722L39.2961 53.5301C40.9259 55.4206 44.1464 55.3047 45.6288 53.2935L50.7426 46.7077C51.1801 46.1442 51.078 45.3324 50.5145 44.8949C49.951 44.4573 49.1394 44.5591 48.7017 45.123L43.5879 51.7088C43.0329 52.4629 41.8217 52.5069 41.2132 51.7975L33.1167 42.8396C32.5434 42.2053 32.593 41.223 33.2274 40.6497C33.8614 40.0771 34.8438 40.126 35.4171 40.7605L41.2398 47.2026C41.7473 47.791 42.7561 47.7573 43.2188 47.1285L52.5087 35.1643C53.006 34.4956 54.0372 34.3659 54.6841 34.8906C55.353 35.3881 55.4825 36.4185 54.9578 37.0662L52.3998 40.3598Z" fill="white"/>
</g>
<defs>
<clipPath id="clip0_606_1221">
<rect width="88" height="88" fill="white"/>
</clipPath>
</defs>
</svg>
