<svg width="40" height="41" viewBox="0 0 40 41" fill="none" xmlns="http://www.w3.org/2000/svg">
<g clip-path="url(#clip0_81_3128)">
<path d="M8.83336 13.5H0V40.5H8.83336V13.5Z" fill="#E8EAEA"/>
<path d="M40.0001 13.5H31.1667V40.5H40.0001V13.5Z" fill="#E8EAEA"/>
<path d="M0 14H40C40 13 39.1666 12.1666 38.1666 12.1666H1.83336C0.833359 12.1666 0 13 0 14Z" fill="#FFA679"/>
<path d="M31.1666 8.99988H8.83325V40.4999H31.1666V8.99988Z" fill="#F2F2F2"/>
<path d="M32.4167 7.16663H7.58339C7.08339 7.16663 6.66675 7.58327 6.66675 8.08327C6.66675 8.58327 7.08339 8.99998 7.58339 8.99998H32.4167C32.9167 8.99998 33.3334 8.58334 33.3334 8.08334C33.3334 7.58334 32.9167 7.16663 32.4167 7.16663Z" fill="#FFA679"/>
<path d="M6.33336 16H2.5V20.25H6.33336V16Z" fill="#42A8C3"/>
<path d="M6.33336 21.9167H2.5V26.1667H6.33336V21.9167Z" fill="#42A8C3"/>
<path d="M6.33336 27.8333H2.5V32.0833H6.33336V27.8333Z" fill="#42A8C3"/>
<path d="M6.33336 33.7499H2.5V37.9999H6.33336V33.7499Z" fill="#42A8C3"/>
<path d="M37.5001 16H33.6667V20.25H37.5001V16Z" fill="#42A8C3"/>
<path d="M37.5001 21.9167H33.6667V26.1667H37.5001V21.9167Z" fill="#42A8C3"/>
<path d="M37.5001 27.8333H33.6667V32.0833H37.5001V27.8333Z" fill="#42A8C3"/>
<path d="M37.5001 33.7499H33.6667V37.9999H37.5001V33.7499Z" fill="#42A8C3"/>
<path d="M15.4999 23.4166H11.3333V27.6666H15.4999V23.4166Z" fill="#8ECBDB"/>
<path d="M24.4166 30.0834H15.5V40.5H24.4166V30.0834Z" fill="#056D8A"/>
<path d="M40 38.75H0V40.5H40V38.75Z" fill="#ACB3BA"/>
<path d="M15.4999 11.5834H11.3333V15.8334H15.4999V11.5834Z" fill="#8ECBDB"/>
<path d="M15.4999 17.5001H11.3333V21.7501H15.4999V17.5001Z" fill="#8ECBDB"/>
<path d="M22.0831 11.5834H17.9165V15.8334H22.0831V11.5834Z" fill="#8ECBDB"/>
<path d="M22.0831 17.5001H17.9165V21.7501H22.0831V17.5001Z" fill="#8ECBDB"/>
<path d="M22.0831 23.4167H17.9165V27.6667H22.0831V23.4167Z" fill="#8ECBDB"/>
<path d="M28.6666 11.5834H24.5V15.8334H28.6666V11.5834Z" fill="#8ECBDB"/>
<path d="M28.6666 17.5001H24.5V21.7501H28.6666V17.5001Z" fill="#8ECBDB"/>
<path d="M28.6666 23.4167H24.5V27.6667H28.6666V23.4167Z" fill="#8ECBDB"/>
</g>
<defs>
<clipPath id="clip0_81_3128">
<rect width="40" height="40" fill="white" transform="translate(0 0.5)"/>
</clipPath>
</defs>
</svg>
