<svg width="83" height="82" viewBox="0 0 83 82" fill="none" xmlns="http://www.w3.org/2000/svg">
<g clip-path="url(#clip0_1097_4523)">
<path d="M40.7777 47.7374C40.7777 48.3386 40.3121 48.8042 39.7109 48.8042H32.8446C32.5359 48.8084 32.2128 48.6977 32.0105 48.4551C31.6033 48.009 31.642 47.3495 32.0687 46.9422L37.81 41.744C38.7821 40.8725 38.8848 39.3396 38.0869 38.3177C37.2651 37.2654 35.6973 37.0905 34.6277 37.866C34.1996 38.1764 33.8434 38.7354 33.2953 38.8305C32.7836 38.9192 32.2774 38.6034 32.1081 38.1178C31.8384 37.3434 32.5008 36.8801 32.9997 36.4294C33.8725 35.6149 35.0168 35.2268 36.1226 35.2268C37.3833 35.2268 38.6634 35.7505 39.575 36.7592C40.3898 37.632 40.7777 38.7763 40.7777 39.8821C40.7777 41.1428 40.2539 42.4229 39.2454 43.3346L35.5795 46.6514H39.7109C40.3122 46.6512 40.7777 47.1362 40.7777 47.7374Z" fill="#484848"/>
<path d="M51.6974 45.1965C51.6974 45.7977 51.2125 46.2633 50.6113 46.2633H50.4173V47.7374C50.4173 48.3386 49.9517 48.8042 49.3505 48.8042C48.7493 48.8042 48.2837 48.3386 48.2837 47.7374V46.2633H42.2127C41.3118 46.2942 40.7836 45.2397 41.34 44.537C41.5871 44.2298 48.4354 35.6943 48.5161 35.6153C48.5832 35.5495 48.6695 35.4627 48.7494 35.4109C49.4495 34.9582 50.4176 35.4314 50.4176 36.2936V44.1297H50.6116C51.2125 44.1297 51.6974 44.6145 51.6974 45.1965ZM48.2836 39.3388L44.4236 44.1297H48.2836V39.3388Z" fill="#484848"/>
<path d="M76.3993 28.146C73.4743 11.7004 58.2729 0 41.8004 0C25.3277 0 10.1269 11.7007 7.20166 28.1459C3.57973 28.7112 0.800537 31.8299 0.800537 35.5816V39.5586C0.800537 41.1078 3.20288 41.1078 3.20288 39.5586V35.5814C3.20288 32.7553 5.52691 30.4561 8.38362 30.4561H10.8904V55.3811H8.38362C5.52691 55.3812 3.20288 53.082 3.20288 50.2561V45.6445C3.20288 44.0953 0.800537 44.0953 0.800537 45.6445V50.2561C0.800537 54.4068 4.20226 57.7836 8.38362 57.7836H11.0185C12.1324 61.9427 18.5092 61.1241 18.5092 56.8103V29.0272C18.5092 24.7209 12.1345 23.8876 11.0185 28.0539H9.6639C12.6141 12.9861 26.664 2.40234 41.8004 2.40234C56.9367 2.40234 70.9868 12.9859 73.937 28.0539H72.5826C71.4687 23.895 65.0917 24.7136 65.0917 29.0272V56.8103C65.0917 61.1167 71.4668 61.9502 72.5826 57.7836H73.9212C71.7656 69.1982 61.3316 76.6392 49.9932 76.9983C49.4826 75.5047 48.059 74.4267 46.3858 74.4267H37.2153C35.1513 74.4267 33.4058 76.1428 33.4058 78.2134C33.4058 80.2841 35.1513 82 37.2153 82H46.3858C48.0691 82 49.4999 80.9089 50.0025 79.4011C62.7062 79.0267 74.219 70.4921 76.3765 57.6956C80.0095 57.1401 82.8005 54.0156 82.8005 50.2561V35.5816C82.8005 31.8299 80.0212 28.7112 76.3993 28.146ZM13.2927 29.0272C13.2927 27.2402 16.1068 27.2391 16.1068 29.0272V56.8103C16.1068 58.5976 13.2927 58.5986 13.2927 56.8103V29.0272ZM46.3858 79.5977H37.2153C35.406 79.5977 35.4047 76.829 37.2153 76.829H46.3858C48.1953 76.829 48.1965 79.5977 46.3858 79.5977ZM70.3083 56.8103C70.3083 58.5976 67.4941 58.5986 67.4941 56.8103V29.0272C67.4941 27.24 70.3083 27.2391 70.3083 29.0272V56.8103ZM80.3982 50.2561C80.3982 53.0822 78.074 55.3812 75.2171 55.3812H72.7107V30.4563H75.2171C78.074 30.4563 80.3982 32.7555 80.3982 35.5816V50.2561Z" fill="#484848"/>
<path d="M48.0104 60.6681L55.2336 63.8504C56.0134 64.1942 56.9189 63.6005 56.9189 62.7512V54.7135C59.9643 51.1604 61.6357 46.6576 61.6357 41.9804C61.6357 37.8618 60.3655 33.9178 57.9627 30.5746C57.0591 29.3162 55.1077 30.7187 56.0119 31.9766C58.1193 34.9089 59.2332 38.3681 59.2332 41.9804C59.2332 46.2189 57.6675 50.2952 54.8242 53.4583C54.6261 53.6789 54.5164 53.9649 54.5164 54.2613V60.9096L48.5506 58.2813C48.2708 58.1578 47.9542 58.1461 47.6659 58.248C45.785 58.9134 43.8116 59.2507 41.8003 59.2507C32.1879 59.2507 24.3676 51.5033 24.3676 41.9804C24.3676 32.4575 32.1881 24.71 41.8005 24.71C45.3851 24.71 48.8277 25.7788 51.756 27.8011C53.0306 28.6814 54.3958 26.7047 53.121 25.8243C49.7896 23.5237 45.8749 22.3076 41.8005 22.3076C30.8634 22.3076 21.9655 31.1327 21.9655 41.9802C21.9655 52.8278 30.8634 61.6529 41.8005 61.6529C43.9232 61.6529 46.0097 61.3218 48.0104 60.6681Z" fill="#484848"/>
</g>
<defs>
<clipPath id="clip0_1097_4523">
<rect width="82" height="82" fill="white" transform="translate(0.800537)"/>
</clipPath>
</defs>
</svg>
