<svg width="87" height="86" viewBox="0 0 87 86" fill="none" xmlns="http://www.w3.org/2000/svg">
<path d="M58.1715 64.123L56.3046 62.1897C49.4099 68.8479 38.1912 68.8479 31.2965 62.1897L29.4296 64.123C33.307 67.8076 38.4516 69.8621 43.8005 69.8621C49.1495 69.8621 54.294 67.8076 58.1715 64.123V64.123Z" fill="#484848"/>
<path d="M25.9543 66.2537L24.0218 68.1213C29.3023 73.5848 36.3265 76.5937 43.8005 76.5937C51.2746 76.5937 58.2987 73.5848 63.5793 68.1213L61.6468 66.2537C56.8772 71.1885 50.5394 73.9062 43.8005 73.9062C37.0617 73.9062 30.7238 71.1885 25.9543 66.2537V66.2537Z" fill="#484848"/>
<path d="M43.8005 80.6251C35.0406 80.6251 26.7998 76.9592 20.5961 70.3027L18.63 72.135C25.3477 79.3429 34.2867 83.3126 43.8005 83.3126H43.8005C53.3137 83.3126 62.2537 79.3425 68.9711 72.135L67.005 70.3027C60.8012 76.9592 52.5603 80.6251 43.8005 80.6251V80.6251Z" fill="#484848"/>
<path d="M54.4672 38.9688H51.863V41.6563H54.4636C54.137 44.2539 52.8734 46.643 50.91 48.3749C48.9467 50.1069 46.4186 51.0626 43.8005 51.0626C41.1825 51.0626 38.6544 50.1069 36.6911 48.3749C34.7277 46.643 33.4641 44.2539 33.1375 41.6563H35.738V38.9688H33.1375C33.3774 37.0571 34.1293 35.2457 35.3138 33.7261L37.4754 35.8877L39.3757 33.9874L37.2141 31.8258C38.7337 30.6413 40.5451 29.8894 42.4568 29.6495V32.2501H45.1443V29.647C46.339 29.7937 47.5001 30.1428 48.5776 30.6793L49.7735 28.2726C47.9186 27.3478 45.8732 26.8693 43.8005 26.8751C40.8717 26.8766 38.0236 27.8356 35.6903 29.6059C33.357 31.3762 31.6664 33.8606 30.876 36.6808C30.0856 39.501 30.2387 42.5023 31.3121 45.2273C32.3855 47.9524 34.3203 50.2519 36.8217 51.7754C39.3231 53.2989 42.254 53.963 45.1678 53.6664C48.0816 53.3698 50.8186 52.1289 52.9617 50.1326C55.1049 48.1363 56.5367 45.4942 57.039 42.6087C57.5414 39.7233 57.0867 36.7527 55.7443 34.1496L53.357 35.3838C53.9375 36.5032 54.3135 37.7172 54.4672 38.9688V38.9688Z" fill="#484848"/>
<path d="M68.2516 44.3698C66.6632 44.0485 65.2345 43.1885 64.2071 41.9353C63.1797 40.6821 62.6166 39.1125 62.613 37.492V30.9062H62.6092C62.5291 24.9788 60.7732 19.1949 57.5445 14.2233C54.3158 9.25169 49.7461 5.29521 44.3637 2.81117L43.8005 2.55127L43.2374 2.81118C37.8549 5.29522 33.2853 9.25169 30.0566 14.2233C26.8279 19.195 25.072 24.9788 24.9918 30.9062H24.988V37.492C24.9845 39.1125 24.4214 40.6821 23.394 41.9353C22.3666 43.1885 20.9379 44.0485 19.3495 44.3698C17.1525 44.8142 15.1765 46.0037 13.7554 47.7371C12.3343 49.4706 11.5555 51.6416 11.5505 53.883V59.125H76.0505V53.883C76.0456 51.6416 75.2668 49.4706 73.8457 47.7371C72.4246 46.0037 70.4485 44.8142 68.2516 44.3698V44.3698ZM24.988 56.4375H14.238V53.883C14.2416 52.2625 14.8047 50.6929 15.8321 49.4397C16.8595 48.1864 18.2882 47.3265 19.8766 47.0052C21.8306 46.6132 23.6159 45.6271 24.988 44.1816V56.4375ZM43.8005 5.51868C47.5533 7.35485 50.8591 9.98956 53.4862 13.2381L52.1398 13.9861C49.5919 15.4127 46.7206 16.1618 43.8005 16.1618C40.8804 16.1618 38.0092 15.4127 35.4612 13.9861L34.1149 13.2381C36.742 9.98956 40.0478 7.35485 43.8005 5.51868V5.51868ZM59.9255 37.492V56.4375H27.6755V31.3333C27.6816 25.6683 29.3629 20.1316 32.5079 15.4197L34.156 16.3354C36.7097 17.7515 39.5435 18.5886 42.4568 18.7875V24.1875H45.1443V18.7875C48.0575 18.5886 50.8914 17.7515 53.445 16.3354L55.0932 15.4197C58.2382 20.1316 59.9195 25.6683 59.9255 31.3333V37.492ZM73.363 56.4375H62.613V44.1816C63.9852 45.6271 65.7704 46.6132 67.7245 47.0052C69.3129 47.3265 70.7416 48.1864 71.769 49.4397C72.7964 50.6929 73.3595 52.2625 73.363 53.883V56.4375Z" fill="#484848"/>
<path d="M45.5375 36.6752C44.6791 36.2651 43.7033 36.1716 42.7827 36.4114C41.862 36.6512 41.0558 37.2087 40.5065 37.9854C39.9571 38.7622 39.7001 39.7081 39.7808 40.656C39.8615 41.604 40.2747 42.4929 40.9474 43.1656C41.6202 43.8383 42.509 44.2515 43.457 44.3322C44.4049 44.4129 45.3508 44.1559 46.1276 43.6065C46.9043 43.0572 47.4619 42.251 47.7016 41.3303C47.9414 40.4097 47.848 39.4339 47.4378 38.5755L55.5007 30.5126L53.6004 28.6123L45.5375 36.6752ZM43.8005 41.6562C43.5348 41.6562 43.275 41.5774 43.054 41.4297C42.833 41.2821 42.6608 41.0722 42.5591 40.8267C42.4574 40.5812 42.4308 40.311 42.4826 40.0503C42.5345 39.7896 42.6624 39.5502 42.8504 39.3623C43.0383 39.1744 43.2777 39.0464 43.5384 38.9945C43.7991 38.9427 44.0692 38.9693 44.3148 39.071C44.5603 39.1727 44.7702 39.3449 44.9178 39.5659C45.0655 39.7869 45.1443 40.0467 45.1443 40.3125C45.1439 40.6687 45.0022 41.0103 44.7503 41.2622C44.4984 41.5141 44.1568 41.6558 43.8005 41.6562Z" fill="#484848"/>
<path d="M72.0193 6.71875H74.7068V13.4375H72.0193V6.71875Z" fill="#484848"/>
<path d="M66.6443 20.1562H69.3318V30.9062H66.6443V20.1562Z" fill="#484848"/>
<path d="M66.6443 34.9375H69.3318V37.625H66.6443V34.9375Z" fill="#484848"/>
<path d="M78.738 17.4688H81.4255V26.875H78.738V17.4688Z" fill="#484848"/>
<path d="M76.0505 34.9375H78.738V44.3438H76.0505V34.9375Z" fill="#484848"/>
<path d="M18.2693 2.6875H20.9568V10.75H18.2693V2.6875Z" fill="#484848"/>
<path d="M6.17554 8.0625H8.86304V16.125H6.17554V8.0625Z" fill="#484848"/>
<path d="M6.17554 18.8125H8.86304V21.5H6.17554V18.8125Z" fill="#484848"/>
<path d="M15.5818 18.8125H18.2693V29.5625H15.5818V18.8125Z" fill="#484848"/>
<path d="M6.17554 32.25H8.86304V43H6.17554V32.25Z" fill="#484848"/>
</svg>
