<svg width="120" height="117" viewBox="0 0 120 117" fill="none" xmlns="http://www.w3.org/2000/svg">
<rect x="0.5" y="0.5" width="119" height="115.757" rx="19.5" stroke="white" stroke-opacity="0.4" stroke-dasharray="5 5"/>
<path d="M60 25.2944C60.7137 25.2944 61.292 24.7161 61.292 24.0024V15.292C61.292 14.5783 60.7137 14 60 14C59.2863 14 58.708 14.5783 58.708 15.292V24.0024C58.708 24.7161 59.2863 25.2944 60 25.2944V25.2944Z" fill="#FFA300"/>
<path d="M35.8946 34.5227C36.3994 35.0271 37.2171 35.0271 37.7219 34.5227C38.2264 34.0179 38.2264 33.2 37.7219 32.6954L31.5626 26.536C31.058 26.0318 30.2401 26.0314 29.7354 26.536C29.2308 27.0408 29.2308 27.8587 29.7354 28.3633L35.8946 34.5227Z" fill="#FFA300"/>
<path d="M27.202 55.5083H18.4915C17.7778 55.5083 17.1995 56.0866 17.1995 56.8003C17.1995 57.514 17.7778 58.0923 18.4915 58.0923H27.2018C27.9155 58.0923 28.4938 57.514 28.4938 56.8003C28.4938 56.0866 27.9155 55.5083 27.202 55.5083V55.5083Z" fill="#FFA300"/>
<path d="M35.8946 79.0784L29.7354 85.2376C29.2308 85.7424 29.2308 86.5603 29.7354 87.0649C30.2401 87.5693 31.0579 87.5693 31.5626 87.0649L37.7219 80.9056C38.2264 80.4009 38.2264 79.5829 37.7219 79.0784C37.2173 78.5741 36.3994 78.5741 35.8946 79.0784Z" fill="#FFA300"/>
<path d="M84.1053 79.0785C83.6006 78.5741 82.7827 78.5741 82.2781 79.0785C81.7735 79.5832 81.7735 80.4012 82.2781 80.9057L88.4373 87.065C88.9421 87.5694 89.7598 87.5694 90.2646 87.065C90.7692 86.5602 90.7692 85.7423 90.2646 85.2378L84.1053 79.0785Z" fill="#FFA300"/>
<path d="M101.508 55.5083H92.7981C92.0844 55.5083 91.5061 56.0866 91.5061 56.8003C91.5061 57.514 92.0844 58.0923 92.7981 58.0923H101.508C102.222 58.0923 102.8 57.514 102.8 56.8003C102.8 56.0866 102.222 55.5083 101.508 55.5083Z" fill="#FFA300"/>
<path d="M88.4373 26.536L82.2781 32.6954C81.7735 33.2002 81.7735 34.0181 82.2781 34.5227C82.7828 35.0271 83.6006 35.0271 84.1053 34.5227L90.2646 28.3633C90.7692 27.8585 90.7692 27.0406 90.2646 26.536C89.7598 26.0316 88.9419 26.0316 88.4373 26.536V26.536Z" fill="#FFA300"/>
<path d="M85.5236 54.1887C85.5236 39.9126 74.0738 28.2981 60.0001 28.2981C55.0701 28.2981 50.2852 29.7267 46.1629 32.4294C42.1521 35.0591 38.9548 38.7585 36.9167 43.1278C36.6151 43.7744 36.8949 44.5433 37.5414 44.8449C38.1886 45.1469 38.9569 44.8668 39.2585 44.2203C43.0379 36.1177 51.1795 30.8821 60.0001 30.8821C72.649 30.8821 82.9396 41.3374 82.9396 54.1887C82.9396 60.2928 80.6329 66.0638 76.4448 70.4382C74.0308 72.9593 71.976 75.3683 71.4473 78.7437H48.8907C48.2246 75.2397 45.8343 72.7812 43.6865 70.574C39.4138 66.1829 37.0606 60.3637 37.0606 54.1887C37.0606 52.664 37.2065 51.1391 37.494 49.656C37.6299 48.9556 37.1722 48.2775 36.4716 48.1416C35.7712 48.0067 35.0931 48.4636 34.9572 49.1642C34.6381 50.8088 34.4766 52.4993 34.4766 54.1887C34.4766 61.0407 37.0897 67.4998 41.8346 72.376C44.5597 75.1764 46.4888 77.4118 46.4888 80.6881C46.4888 80.6995 46.489 80.7112 46.4893 80.7226L46.5634 88.3046C46.5634 90.7644 47.8755 92.9234 49.8365 94.119V95.5398C49.8365 99.102 52.7343 102 56.2965 102H64.2208C67.783 102 70.6808 99.102 70.6808 95.5398V94.119C72.6418 92.9234 73.9539 90.7644 73.9539 88.3046C73.9539 88.3046 73.9448 79.859 73.9276 79.7748C74.1727 76.7804 75.9877 74.652 78.3113 72.2251C82.962 67.3674 85.5236 60.9618 85.5236 54.1887V54.1887ZM68.0967 95.5398C68.0967 97.677 66.3578 99.4159 64.2206 99.4159H56.2963C54.1592 99.4159 52.4203 97.677 52.4203 95.5398V95.0418C52.7302 95.0852 53.0462 95.1092 53.3678 95.1092H67.1492C67.4708 95.1092 67.7867 95.0851 68.0967 95.0418V95.5398ZM67.1492 92.5252H53.3678C51.0404 92.5252 49.1472 90.6319 49.1472 88.3046V88.2185H62.2396C62.9533 88.2185 63.5316 87.6402 63.5316 86.9265C63.5316 86.2128 62.9533 85.6345 62.2396 85.6345H49.1472V81.3278H71.3298L71.3697 85.6345H68.2689C67.5552 85.6345 66.9769 86.2128 66.9769 86.9265C66.9769 87.6402 67.5552 88.2185 68.2689 88.2185H71.3697V88.3046C71.3697 90.6319 69.4764 92.5252 67.1492 92.5252V92.5252Z" fill="#FFA300"/>
<path d="M68.3998 54.3598C67.9622 54.9233 68.0644 55.735 68.6279 56.1725C69.1912 56.6103 70.0029 56.5083 70.4406 55.9445L72.9985 52.6505C73.6758 51.7783 73.9728 50.6946 73.835 49.5988C73.697 48.503 73.1408 47.5266 72.2684 46.8492C71.3962 46.1719 70.3118 45.8732 69.2167 46.0129C68.1209 46.1507 67.1445 46.707 66.4673 47.5793L58.1228 58.3261L53.3338 53.0273C51.8049 51.3363 49.1852 51.2043 47.4944 52.7325C46.6751 53.4731 46.1933 54.4883 46.1375 55.5913C46.0818 56.6942 46.4589 57.7528 47.1993 58.5722L55.2961 67.5301C56.9259 69.4206 60.1464 69.3047 61.6288 67.2935L66.7426 60.7077C67.1801 60.1442 67.078 59.3324 66.5145 58.8949C65.951 58.4573 65.1394 58.5591 64.7017 59.123L59.5879 65.7088C59.0329 66.4629 57.8217 66.5069 57.2132 65.7975L49.1167 56.8396C48.5434 56.2053 48.593 55.223 49.2274 54.6497C49.8614 54.0771 50.8438 54.126 51.4171 54.7605L57.2398 61.2026C57.7473 61.791 58.7561 61.7573 59.2188 61.1285L68.5087 49.1643C69.006 48.4956 70.0372 48.3659 70.6841 48.8906C71.353 49.3881 71.4825 50.4185 70.9578 51.0662L68.3998 54.3598Z" fill="#FFA300"/>
</svg>
