<svg width="120" height="117" viewBox="0 0 120 117" fill="none" xmlns="http://www.w3.org/2000/svg">
<rect x="0.5" y="0.5" width="119" height="115.757" rx="19.5" stroke="white" stroke-opacity="0.4" stroke-dasharray="5 5"/>
<g clip-path="url(#clip0_1758_40916)">
<path d="M101.454 86.1054L93.0311 80.4685L94.3403 77.9677C94.5733 77.5227 94.5124 76.9808 94.1863 76.5987C94.0859 76.4808 91.8064 73.8519 86.6119 71.1914C88.4699 67.1467 89.9653 62.7234 91.0822 57.9579C94.4435 43.617 93.2314 31.3034 93.1781 30.7863C93.1184 30.2067 92.6603 29.7484 92.0807 29.6887C82.2902 28.6788 74.3104 25.4136 69.3405 22.8526C63.938 20.0685 60.819 17.4888 60.7888 17.4637C60.3321 17.0821 59.6675 17.0821 59.211 17.4637C59.0882 17.5664 46.715 27.7498 27.919 29.6889C27.3394 29.7488 26.8813 30.2068 26.8216 30.7865C26.7976 31.0186 26.2436 36.5619 26.8677 44.5512C26.9207 45.2284 27.511 45.7354 28.1897 45.6817C28.8671 45.6289 29.3732 45.0368 29.3204 44.3597C28.864 38.5157 29.0633 33.9423 29.1913 32.0223C38.9314 30.8555 46.8589 27.5863 51.8575 25.0028C55.9315 22.8972 58.7218 20.9333 59.9999 19.9696C61.2776 20.9333 64.0682 22.8972 68.142 25.0028C73.1408 27.5863 81.0679 30.8554 90.8079 32.0223C91.0194 35.2115 91.4223 45.7268 88.6869 57.3969C87.5019 62.4524 85.8792 67.1004 83.8407 71.2958C83.7836 71.4133 83.7252 71.5291 83.6675 71.6456C83.5416 71.8999 83.4145 72.1527 83.2855 72.4037C83.2129 72.5451 83.1402 72.6864 83.0665 72.8268C82.9297 73.0875 82.7907 73.3459 82.6506 73.6028C82.5337 73.8171 82.4152 74.0295 82.2961 74.2412C82.1891 74.4312 82.0817 74.6207 81.9731 74.8083C81.8636 74.997 81.7531 75.1845 81.6418 75.3711C81.5616 75.5058 81.4802 75.639 81.399 75.7724C81.1365 76.2034 80.8696 76.6293 80.5968 77.0486C80.5767 77.0793 80.5574 77.1105 80.5374 77.1411C80.3953 77.3583 80.2514 77.5728 80.1067 77.7867C80.0447 77.8784 79.9823 77.97 79.9197 78.061C79.0646 79.3076 78.1636 80.4995 77.2176 81.6321C77.2122 81.6387 77.2068 81.6453 77.2013 81.6518C77.0181 81.871 76.8329 82.0874 76.6463 82.3023C76.4993 82.4711 76.3508 82.6378 76.2017 82.8042C76.1717 82.8377 76.142 82.8718 76.112 82.9051C75.9435 83.0918 75.7737 83.2767 75.6024 83.4601C75.5937 83.4695 75.585 83.479 75.5761 83.4883C71.2341 88.1309 66.017 91.7148 60 94.1805C54.1089 91.7644 47.5138 87.6302 41.92 80.5648C41.9021 80.5421 41.8842 80.5193 41.8663 80.4967C41.7536 80.3538 41.6419 80.2087 41.5302 80.0636C39.4897 77.3939 37.6788 74.4362 36.1237 71.2239C36.0874 71.149 36.0443 71.0794 35.9957 71.0154C33.1781 65.1524 30.9904 57.998 29.8347 49.2634C29.7457 48.5899 29.1257 48.1159 28.454 48.2053C27.7805 48.2944 27.3067 48.9128 27.3958 49.5861C28.4561 57.5998 30.4683 64.8426 33.3881 71.1914C28.1931 73.8522 25.9138 76.4811 25.8133 76.5989C25.4873 76.981 25.4264 77.5229 25.6591 77.9678L26.9683 80.4686L18.5459 86.1056C18.189 86.3446 17.9825 86.7523 18.0012 87.1813C18.0199 87.6104 18.2609 87.9985 18.6374 88.2057L25.5189 91.9906V99.5924C25.5189 100.034 25.7557 100.442 26.1391 100.661C26.3283 100.769 26.5386 100.823 26.7491 100.823C26.9653 100.823 27.1817 100.765 27.3745 100.652L41.0424 92.5826C41.0509 92.5775 41.0585 92.5717 41.0669 92.5665C41.0808 92.5578 41.0944 92.5488 41.108 92.5396C41.1325 92.523 41.1561 92.5056 41.1791 92.4876C41.1902 92.4787 41.2016 92.47 41.2124 92.4608C41.2413 92.4364 41.2687 92.4108 41.2949 92.3842C41.2992 92.38 41.3036 92.3762 41.3077 92.3718C41.3395 92.3384 41.3691 92.3035 41.3966 92.2672C41.3974 92.2661 41.3986 92.2651 41.3996 92.2638C41.4017 92.2608 41.4034 92.2576 41.4055 92.2546C41.4337 92.2164 41.4593 92.1768 41.4828 92.1358C41.4877 92.1271 41.4929 92.1186 41.4977 92.1099C41.5215 92.0659 41.543 92.021 41.5612 91.9747C41.5643 91.9669 41.5668 91.9588 41.5697 91.9508C41.5845 91.9107 41.5971 91.8701 41.6078 91.8289C41.6106 91.8179 41.6137 91.8071 41.6161 91.7961C41.6271 91.748 41.6355 91.6996 41.6407 91.6504C41.6414 91.6438 41.6416 91.6372 41.6421 91.6305C41.646 91.5862 41.6473 91.5418 41.6463 91.4971C41.6462 91.487 41.646 91.4768 41.6457 91.4666C41.6434 91.4163 41.6386 91.3657 41.6301 91.3155C41.6294 91.3121 41.6284 91.3086 41.6278 91.305C41.6196 91.2593 41.6081 91.214 41.5945 91.1689C41.5909 91.157 41.5873 91.1454 41.5835 91.1337C41.5674 91.0857 41.5494 91.0379 41.5269 90.9912L39.8418 87.4749C40.8533 86.9707 42.0337 86.4537 43.3921 85.9668C47.9325 90.6012 53.3324 94.1782 59.5457 96.6498C59.6919 96.7079 59.846 96.7369 60.0003 96.7369C60.1547 96.7369 60.3089 96.7079 60.455 96.6498C66.6573 94.1825 72.0656 90.6022 76.6091 85.9671C77.9673 86.4541 79.1476 86.9709 80.1589 87.475L78.4738 90.9913C78.4513 91.0381 78.4333 91.086 78.4172 91.1341C78.4133 91.1457 78.4097 91.1574 78.4062 91.1692C78.3926 91.2143 78.3811 91.2597 78.3729 91.3055C78.3722 91.309 78.3713 91.3124 78.3708 91.3159C78.3622 91.3661 78.3575 91.4166 78.3552 91.467C78.3547 91.4773 78.3547 91.4875 78.3545 91.4976C78.3537 91.5423 78.3549 91.5867 78.3588 91.631C78.3594 91.6376 78.3594 91.6443 78.3601 91.6509C78.3652 91.6999 78.3737 91.7485 78.3847 91.7964C78.3872 91.8075 78.3903 91.8184 78.3932 91.8294C78.4037 91.8705 78.4164 91.9111 78.4311 91.9509C78.4341 91.959 78.4366 91.9672 78.4397 91.9752C78.4579 92.0215 78.4792 92.0663 78.503 92.1101C78.5078 92.1189 78.513 92.1276 78.5181 92.1363C78.5416 92.177 78.567 92.2167 78.595 92.2546C78.5973 92.2576 78.5988 92.261 78.6011 92.264C78.6021 92.2651 78.6031 92.2663 78.6041 92.2674C78.6316 92.3037 78.6612 92.3386 78.693 92.3719C78.6971 92.3763 78.7015 92.3801 78.7058 92.3844C78.7319 92.411 78.7594 92.4366 78.7883 92.461C78.7991 92.4702 78.8105 92.4789 78.8216 92.4877C78.8446 92.5058 78.8682 92.5232 78.8926 92.5398C78.9063 92.5489 78.9199 92.5581 78.9337 92.5667C78.942 92.5719 78.9496 92.5777 78.9581 92.5827L92.6259 100.652C92.8187 100.766 93.0347 100.823 93.2513 100.823C93.4616 100.823 93.6721 100.769 93.8613 100.661C94.2447 100.442 94.4814 100.034 94.4814 99.5926V91.9906L101.363 88.2057C101.739 87.9987 101.98 87.6105 101.999 87.1813C102.017 86.7522 101.811 86.3445 101.454 86.1054ZM27.9795 97.4373V91.2629C27.9794 90.8145 27.7351 90.4015 27.342 90.1851L21.5956 87.0247L28.1164 82.6608L32.4428 90.9251C32.4666 90.9705 32.4932 91.014 32.5221 91.0555C32.5334 91.0717 32.5467 91.0863 32.5586 91.1019C32.5777 91.1267 32.5964 91.152 32.6172 91.1749C32.6379 91.1979 32.6605 91.2187 32.6827 91.2401C32.6966 91.2533 32.7097 91.2675 32.7244 91.2799C32.7516 91.3037 32.7806 91.3254 32.81 91.3467C32.8207 91.3544 32.831 91.3626 32.8418 91.37C32.8746 91.3923 32.9089 91.4123 32.9439 91.4315C32.9521 91.4359 32.9601 91.4407 32.9685 91.445C33.0059 91.4643 33.0443 91.4814 33.0838 91.4968C33.0904 91.4994 33.0969 91.5021 33.1037 91.5045C33.1445 91.5198 33.1862 91.5327 33.2288 91.5437C33.2347 91.5452 33.2408 91.5467 33.2469 91.548C33.2736 91.5544 33.2997 91.5626 33.3271 91.5672L36.8968 92.1731L27.9795 97.4373ZM36.3257 89.5807C36.3544 89.5597 36.3846 89.5382 36.4143 89.5169C36.4779 89.4711 36.5414 89.4255 36.6083 89.3786C36.6493 89.3497 36.6932 89.3202 36.7355 89.291C36.8041 89.2438 36.872 89.1967 36.9437 89.1483C36.987 89.1192 37.0331 89.0892 37.0777 89.0597C37.153 89.0096 37.2275 88.9601 37.3063 88.9091C37.3345 88.8909 37.365 88.8722 37.3937 88.8538C37.4823 88.797 37.5717 88.7403 37.6644 88.6825C37.6715 88.6781 37.6792 88.6736 37.6862 88.6692L38.2821 89.9126L36.3257 89.5807ZM37.6191 85.8605C37.6157 85.8625 37.6119 85.8634 37.6085 85.8654C37.598 85.8712 37.5879 85.8769 37.5774 85.8828C37.5773 85.8828 37.5773 85.8828 37.5771 85.883C37.573 85.8853 37.5691 85.8876 37.5648 85.8899C37.5126 85.9187 37.4616 85.9474 37.4104 85.9763C37.3151 86.0298 37.2218 86.0831 37.1297 86.1363C37.0749 86.1679 37.02 86.1994 36.9663 86.2309C36.9602 86.2346 36.9543 86.238 36.9483 86.2416C36.9399 86.2465 36.9319 86.2514 36.9235 86.2562C36.7757 86.3432 36.6326 86.4291 36.4928 86.5148C36.4713 86.5279 36.449 86.5413 36.4277 86.5545C36.3429 86.6068 36.2604 86.6585 36.1785 86.7102C36.1609 86.7212 36.1439 86.7321 36.1265 86.7431C36.1244 86.7445 36.1224 86.7458 36.1203 86.7471C35.1743 87.3484 34.4298 87.9055 33.8772 88.3614L29.8528 80.6744L28.2538 77.6192C29.1495 76.7741 31.1372 75.1137 34.4614 73.4056C34.5889 73.6552 34.7179 73.9031 34.8485 74.1496C34.9147 74.2748 34.9825 74.3985 35.0496 74.523C35.2194 74.838 35.3912 75.1511 35.5661 75.461C35.6049 75.53 35.6419 75.6009 35.6809 75.6697C36.995 77.9788 38.4442 80.1326 40.0215 82.1324C40.0579 82.1786 40.0943 82.2249 40.1309 82.271C40.259 82.4323 40.3878 82.5927 40.5178 82.7519C40.5845 82.8337 40.6518 82.9149 40.7189 82.9963C40.8332 83.1346 40.9473 83.2731 41.0626 83.4097C41.2347 83.6138 41.4081 83.816 41.583 84.0163C40.0484 84.6143 38.7344 85.2459 37.6191 85.8605ZM78.4175 84.0161C78.4197 84.0128 78.4224 84.0096 78.4252 84.0064C78.5314 83.8852 78.6357 83.762 78.7404 83.6396C78.8042 83.5649 78.8685 83.4913 78.932 83.4163C79.0923 83.2268 79.2508 83.0355 79.4086 82.8432C79.414 82.8367 79.4194 82.8303 79.4247 82.8237C80.195 81.8833 80.9362 80.9081 81.6459 79.8969C81.7401 79.7627 81.8307 79.6247 81.9235 79.4893C82.0366 79.3249 82.1494 79.1606 82.2607 78.9944C82.3855 78.808 82.5092 78.6205 82.6319 78.4318C82.731 78.2799 82.8288 78.1266 82.9264 77.9732C83.0892 77.7178 83.2501 77.461 83.4093 77.2017C83.517 77.026 83.6238 76.8494 83.7298 76.6721C83.8542 76.464 83.9776 76.2554 84.0995 76.0449C84.2366 75.8085 84.3721 75.5707 84.5063 75.3314C84.58 75.1996 84.6541 75.0684 84.727 74.9357C84.9027 74.6162 85.0753 74.2937 85.2458 73.969C85.3037 73.8586 85.3611 73.7478 85.4185 73.6369C85.4584 73.5598 85.4991 73.4834 85.5386 73.4059C88.8393 75.1045 90.8417 76.7745 91.7447 77.6222L86.1225 88.3614C85.5698 87.9055 84.8253 87.3482 83.879 86.7469C83.877 86.7456 83.8752 86.7445 83.8732 86.7431C83.856 86.7321 83.8388 86.7212 83.8214 86.7102C83.7397 86.6585 83.6572 86.6068 83.5725 86.5546C83.5458 86.5382 83.5177 86.5213 83.4906 86.5049C83.3561 86.4226 83.2184 86.3399 83.0764 86.2562C83.068 86.2513 83.06 86.2464 83.0516 86.2416C83.0455 86.238 83.0396 86.2346 83.0336 86.2309C82.9799 86.1994 82.9248 86.1679 82.8701 86.1363C82.7779 86.0831 82.6846 86.03 82.5894 85.9763C82.5383 85.9476 82.4871 85.9187 82.4351 85.8899C82.431 85.8876 82.427 85.8853 82.4228 85.883C82.4226 85.883 82.4226 85.8828 82.4226 85.8828C82.4121 85.8771 82.4021 85.8713 82.3916 85.8654C82.3881 85.8634 82.3844 85.8623 82.3809 85.8603C81.266 85.2461 79.9522 84.6143 78.4175 84.0161ZM82.0712 89.1767L82.3143 88.6695C82.3215 88.674 82.3291 88.6786 82.3363 88.683C82.4288 88.7404 82.5176 88.797 82.6057 88.8535C82.6347 88.872 82.6657 88.891 82.6944 88.9096C82.7735 88.9606 82.8482 89.0105 82.9236 89.0607C82.9678 89.0899 83.0137 89.1197 83.0567 89.1486C83.1285 89.197 83.1966 89.2443 83.2654 89.2917C83.3077 89.3209 83.3513 89.3504 83.3924 89.3793C83.458 89.4254 83.5203 89.47 83.5828 89.515C83.6137 89.5371 83.6452 89.5596 83.6752 89.5814L81.7191 89.9135L82.0712 89.1767ZM92.6579 90.1851C92.2649 90.4014 92.0205 90.8145 92.0205 91.263V97.4375L83.1034 92.1729L86.6731 91.567C86.686 91.5649 86.6984 91.5605 86.7111 91.5578C86.7415 91.5516 86.7715 91.5446 86.8012 91.5362C86.8227 91.5301 86.844 91.5236 86.865 91.5163C86.8936 91.5065 86.9216 91.4957 86.9492 91.4837C86.9697 91.475 86.9901 91.4661 87.0101 91.4563C87.0371 91.443 87.0632 91.4282 87.0891 91.413C87.108 91.402 87.1269 91.3913 87.1449 91.3793C87.1708 91.3621 87.1955 91.3433 87.2201 91.3242C87.2363 91.3116 87.253 91.2998 87.2685 91.2863C87.2941 91.2643 87.3178 91.2404 87.3416 91.2163C87.3543 91.2035 87.3677 91.1917 87.3797 91.1782C87.4074 91.1475 87.433 91.1146 87.4576 91.0809C87.4639 91.0724 87.4711 91.0648 87.477 91.0561C87.5062 91.0143 87.5329 90.9703 87.5569 90.9246L91.8835 82.6603L98.4041 87.0242L92.6579 90.1851Z" fill="#FFA300"/>
<path d="M85.5659 36.9904C85.5062 36.4108 85.0481 35.9527 84.4685 35.8928C70.2777 34.4289 60.8813 26.7235 60.7889 26.6465C60.3328 26.2654 59.6687 26.2654 59.212 26.6459C59.1188 26.7236 49.7223 34.4291 35.5314 35.8928C34.9517 35.9527 34.4937 36.4108 34.434 36.9904C34.4105 37.2185 33.8688 42.6605 34.7138 50.0912C35.4969 56.9747 37.6791 66.9012 43.6274 75.1002C43.868 75.4318 44.2435 75.608 44.624 75.608C44.8743 75.608 45.1271 75.5317 45.3453 75.3733C45.8951 74.9744 46.0177 74.2051 45.6185 73.6553C39.9966 65.9062 37.9184 56.445 37.1649 49.8725C36.5471 44.4832 36.6939 40.0974 36.8078 38.2233C48.9868 36.709 57.4519 31.0483 59.9998 29.1488C62.5478 31.0484 71.0121 36.7095 83.1926 38.2233C83.2768 39.5929 83.3787 42.305 83.1834 45.7762C83.1454 46.4546 83.6643 47.0352 84.3425 47.0733C85.0227 47.11 85.6019 46.5929 85.6398 45.9145C85.9347 40.6662 85.5812 37.1382 85.5659 36.9904Z" fill="#FFA300"/>
<path d="M84.1126 49.61C83.4393 49.5247 82.8233 50.0017 82.738 50.6757C80 72.3103 68.9655 81.2828 59.9996 84.9963C55.6669 83.2036 51.8674 80.6305 48.7008 77.3435C48.2298 76.8545 47.4509 76.8395 46.9616 77.3111C46.4724 77.7824 46.4578 78.5612 46.9292 79.0504C50.4509 82.7059 54.6955 85.5376 59.5453 87.4668C59.6915 87.5248 59.8455 87.5539 59.9999 87.5539C60.1543 87.5539 60.3085 87.5248 60.4545 87.4668C68.3849 84.312 74.5917 78.8194 78.9022 71.1415C82.0937 65.457 84.2052 58.6753 85.1785 50.9846C85.2638 50.3108 84.7864 49.6953 84.1126 49.61Z" fill="#FFA300"/>
<path d="M73.7543 46.6237C72.0743 44.9439 69.3414 44.9442 67.6614 46.6239L56.7052 57.5801L52.7504 53.6251C51.0704 51.9452 48.3374 51.9454 46.6574 53.6252C44.9778 55.3052 44.9778 58.0383 46.6574 59.7181L53.6591 66.7196C54.4725 67.5333 55.5545 67.9812 56.7052 67.9812C57.8563 67.9812 58.9381 67.533 59.7517 66.7194L73.7545 52.7168C75.4341 51.037 75.4341 48.3037 73.7543 46.6237ZM72.0151 50.9773L58.0123 64.9799C57.6633 65.3288 57.1992 65.5211 56.7055 65.5211C56.2119 65.5211 55.7478 65.3288 55.3988 64.9799L48.3975 57.9786C47.6768 57.2579 47.6768 56.0855 48.3972 55.3648C48.7574 55.0045 49.2307 54.8243 49.7042 54.8243C50.1774 54.8243 50.6507 55.0046 51.011 55.3648L55.8355 60.1896C56.0664 60.4205 56.3791 60.5499 56.7054 60.5499C57.0315 60.5499 57.3444 60.4203 57.5752 60.1896L69.4011 48.3636C70.122 47.6427 71.2942 47.6426 72.0151 48.3633C72.7356 49.0842 72.7356 50.2567 72.0151 50.9773Z" fill="#FFA300"/>
</g>
<defs>
<clipPath id="clip0_1758_40916">
<rect width="84" height="84" fill="white" transform="translate(18 17)"/>
</clipPath>
</defs>
</svg>
