<svg width="86" height="86" viewBox="0 0 86 86" fill="none" xmlns="http://www.w3.org/2000/svg">
<path d="M57.3709 64.123L55.504 62.1897C48.6093 68.8479 37.3906 68.8479 30.4959 62.1897L28.629 64.123C32.5065 67.8076 37.651 69.8621 43 69.8621C48.3489 69.8621 53.4934 67.8076 57.3709 64.123Z" fill="white"/>
<path d="M25.1538 66.2537L23.2213 68.1213C28.5018 73.5848 35.526 76.5937 43 76.5937C50.4741 76.5937 57.4983 73.5848 62.7788 68.1213L60.8463 66.2537C56.0768 71.1885 49.7389 73.9062 43 73.9062C36.2612 73.9062 29.9233 71.1885 25.1538 66.2537Z" fill="white"/>
<path d="M42.9999 80.6251C34.2401 80.6251 25.9992 76.9592 19.7956 70.3027L17.8295 72.135C24.5472 79.3429 33.4862 83.3126 42.9999 83.3126H43C52.5131 83.3126 61.4532 79.3425 68.1706 72.135L66.2045 70.3027C60.0007 76.9592 51.7598 80.6251 42.9999 80.6251Z" fill="white"/>
<path d="M53.6666 38.9688H51.0625V41.6563H53.6631C53.3365 44.2539 52.0728 46.643 50.1095 48.3749C48.1462 50.1069 45.6181 51.0626 43 51.0626C40.382 51.0626 37.8539 50.1069 35.8906 48.3749C33.9272 46.643 32.6636 44.2539 32.337 41.6563H34.9375V38.9688H32.337C32.5769 37.0571 33.3288 35.2457 34.5132 33.7261L36.6749 35.8877L38.5752 33.9874L36.4136 31.8258C37.9332 30.6413 39.7446 29.8894 41.6563 29.6495V32.2501H44.3438V29.647C45.5385 29.7937 46.6995 30.1428 47.7771 30.6793L48.973 28.2726C47.1181 27.3478 45.0727 26.8693 43 26.8751C40.0712 26.8766 37.2231 27.8356 34.8898 29.6059C32.5565 31.3762 30.8659 33.8606 30.0755 36.6808C29.285 39.501 29.4382 42.5023 30.5116 45.2273C31.585 47.9524 33.5198 50.2519 36.0212 51.7754C38.5226 53.2989 41.4535 53.963 44.3673 53.6664C47.2811 53.3698 50.0181 52.1289 52.1612 50.1326C54.3044 48.1363 55.7362 45.4942 56.2385 42.6087C56.7409 39.7233 56.2862 36.7527 54.9438 34.1496L52.5565 35.3838C53.137 36.5032 53.513 37.7172 53.6666 38.9688Z" fill="white"/>
<path d="M67.451 44.3698C65.8627 44.0485 64.434 43.1885 63.4066 41.9353C62.3792 40.6821 61.8161 39.1125 61.8125 37.492V30.9062H61.8087C61.7285 24.9788 59.9726 19.1949 56.744 14.2233C53.5153 9.25169 48.9456 5.29521 43.5631 2.81117L43 2.55127L42.4369 2.81118C37.0544 5.29522 32.4847 9.25169 29.256 14.2233C26.0274 19.195 24.2715 24.9788 24.1913 30.9062H24.1875V37.492C24.1839 39.1125 23.6208 40.6821 22.5934 41.9353C21.566 43.1885 20.1373 44.0485 18.549 44.3698C16.352 44.8142 14.3759 46.0037 12.9549 47.7371C11.5338 49.4706 10.7549 51.6416 10.75 53.883V59.125H75.25V53.883C75.2451 51.6416 74.4662 49.4706 73.0451 47.7371C71.6241 46.0037 69.648 44.8142 67.451 44.3698ZM24.1875 56.4375H13.4375V53.883C13.4411 52.2625 14.0042 50.6929 15.0316 49.4397C16.059 48.1865 17.4877 47.3265 19.076 47.0052C21.0301 46.6132 22.8154 45.6271 24.1875 44.1816V56.4375ZM43 5.51868C46.7528 7.35485 50.0586 9.98955 52.6856 13.2381L51.3393 13.9861C48.7914 15.4127 45.9201 16.1618 43 16.1618C40.0799 16.1618 37.2086 15.4127 34.6607 13.9861L33.3144 13.2381C35.9414 9.98956 39.2472 7.35485 43 5.51868ZM59.125 37.492V56.4375H26.875V31.3333C26.8811 25.6683 28.5623 20.1316 31.7073 15.4197L33.3555 16.3354C35.9091 17.7515 38.743 18.5886 41.6562 18.7875V24.1875H44.3438V18.7875C47.257 18.5886 50.0909 17.7515 52.6445 16.3354L54.2927 15.4197C57.4376 20.1316 59.1189 25.6683 59.125 31.3333V37.492ZM72.5625 56.4375H61.8125V44.1816C63.1846 45.6271 64.9699 46.6132 66.924 47.0052C68.5123 47.3265 69.941 48.1865 70.9684 49.4397C71.9958 50.6929 72.5589 52.2625 72.5625 53.883V56.4375Z" fill="white"/>
<path d="M44.737 36.6752C43.8785 36.2651 42.9028 36.1716 41.9821 36.4114C41.0615 36.6512 40.2552 37.2087 39.7059 37.9854C39.1566 38.7622 38.8995 39.7081 38.9802 40.656C39.0609 41.604 39.4742 42.4929 40.1469 43.1656C40.8196 43.8383 41.7085 44.2515 42.6564 44.3322C43.6043 44.4129 44.5503 44.1559 45.327 43.6065C46.1038 43.0572 46.6613 42.251 46.901 41.3303C47.1408 40.4097 47.0474 39.4339 46.6373 38.5755L54.7001 30.5126L52.7998 28.6123L44.737 36.6752ZM43 41.6562C42.7342 41.6562 42.4744 41.5774 42.2534 41.4297C42.0324 41.2821 41.8602 41.0722 41.7585 40.8267C41.6568 40.5812 41.6302 40.311 41.682 40.0503C41.7339 39.7896 41.8619 39.5502 42.0498 39.3623C42.2377 39.1744 42.4772 39.0464 42.7378 38.9945C42.9985 38.9427 43.2687 38.9693 43.5142 39.071C43.7597 39.1727 43.9696 39.3449 44.1173 39.5659C44.2649 39.7869 44.3437 40.0467 44.3437 40.3125C44.3433 40.6687 44.2016 41.0103 43.9497 41.2622C43.6978 41.5141 43.3562 41.6558 43 41.6562Z" fill="white"/>
<path d="M71.2188 6.71875H73.9062V13.4375H71.2188V6.71875Z" fill="white"/>
<path d="M65.8438 20.1562H68.5312V30.9062H65.8438V20.1562Z" fill="white"/>
<path d="M65.8438 34.9375H68.5312V37.625H65.8438V34.9375Z" fill="white"/>
<path d="M77.9375 17.4688H80.625V26.875H77.9375V17.4688Z" fill="white"/>
<path d="M75.25 34.9375H77.9375V44.3438H75.25V34.9375Z" fill="white"/>
<path d="M17.4688 2.6875H20.1562V10.75H17.4688V2.6875Z" fill="white"/>
<path d="M5.375 8.0625H8.0625V16.125H5.375V8.0625Z" fill="white"/>
<path d="M5.375 18.8125H8.0625V21.5H5.375V18.8125Z" fill="white"/>
<path d="M14.7812 18.8125H17.4688V29.5625H14.7812V18.8125Z" fill="white"/>
<path d="M5.375 32.25H8.0625V43H5.375V32.25Z" fill="white"/>
</svg>
