<svg width="84" height="84" viewBox="0 0 84 84" fill="none" xmlns="http://www.w3.org/2000/svg">
<g clip-path="url(#clip0_429_1783)">
<path d="M83.4537 69.1054L75.0311 63.4685L76.3403 60.9677C76.5733 60.5227 76.5124 59.9808 76.1863 59.5987C76.0859 59.4808 73.8064 56.8519 68.6119 54.1914C70.4699 50.1467 71.9653 45.7234 73.0822 40.9579C76.4435 26.617 75.2314 14.3034 75.1781 13.7863C75.1184 13.2067 74.6603 12.7484 74.0807 12.6887C64.2902 11.6788 56.3104 8.41361 51.3405 5.85261C45.938 3.0685 42.819 0.488796 42.7888 0.463695C42.3321 0.0820886 41.6675 0.0820886 41.211 0.463695C41.0882 0.566397 28.715 10.7498 9.919 12.6889C9.33937 12.7488 8.88131 13.2068 8.82159 13.7865C8.79764 14.0186 8.2436 19.5619 8.86769 27.5512C8.92069 28.2284 9.51098 28.7354 10.1897 28.6817C10.8671 28.6289 11.3732 28.0368 11.3204 27.3597C10.864 21.5157 11.0633 16.9423 11.1913 15.0223C20.9314 13.8555 28.8589 10.5863 33.8575 8.0028C37.9315 5.89724 40.7218 3.93326 41.9999 2.96957C43.2776 3.93326 46.0682 5.89724 50.142 8.0028C55.1408 10.5863 63.0679 13.8554 72.8079 15.0223C73.0194 18.2115 73.4223 28.7268 70.6869 40.3969C69.5019 45.4524 67.8792 50.1004 65.8407 54.2958C65.7836 54.4133 65.7252 54.5291 65.6675 54.6456C65.5416 54.8999 65.4145 55.1527 65.2856 55.4037C65.2129 55.5451 65.1402 55.6864 65.0665 55.8268C64.9297 56.0875 64.7907 56.3459 64.6506 56.6028C64.5337 56.8171 64.4152 57.0295 64.2961 57.2412C64.1891 57.4312 64.0817 57.6207 63.9731 57.8083C63.8636 57.997 63.7531 58.1845 63.6418 58.3711C63.5616 58.5058 63.4802 58.639 63.399 58.7724C63.1365 59.2034 62.8696 59.6293 62.5968 60.0486C62.5767 60.0793 62.5574 60.1105 62.5374 60.1411C62.3953 60.3583 62.2514 60.5728 62.1067 60.7867C62.0447 60.8784 61.9823 60.97 61.9197 61.061C61.0646 62.3076 60.1636 63.4995 59.2176 64.6321C59.2122 64.6387 59.2068 64.6453 59.2013 64.6518C59.0181 64.871 58.8329 65.0874 58.6463 65.3023C58.4993 65.4711 58.3508 65.6378 58.2017 65.8042C58.1717 65.8377 58.142 65.8718 58.112 65.9051C57.9435 66.0918 57.7737 66.2767 57.6024 66.4601C57.5937 66.4695 57.585 66.479 57.5761 66.4883C53.2341 71.1309 48.017 74.7149 42 77.1805C36.1089 74.7644 29.5138 70.6302 23.92 63.5648C23.9021 63.5421 23.8842 63.5193 23.8663 63.4967C23.7536 63.3538 23.6419 63.2087 23.5302 63.0635C21.4897 60.3939 19.6788 57.4362 18.1237 54.2239C18.0874 54.149 18.0443 54.0794 17.9957 54.0154C15.1781 48.1524 12.9904 40.998 11.8347 32.2634C11.7457 31.5899 11.1257 31.1159 10.454 31.2053C9.78053 31.2944 9.30672 31.9128 9.39581 32.5861C10.4561 40.5998 12.4683 47.8426 15.3881 54.1914C10.1931 56.8522 7.91384 59.4811 7.81327 59.5989C7.48728 59.981 7.42642 60.5229 7.65905 60.9678L8.96826 63.4686L0.545853 69.1056C0.18902 69.3446 -0.0175329 69.7523 0.0011701 70.1814C0.0198731 70.6104 0.260879 70.9985 0.637399 71.2057L7.51895 74.9906V82.5924C7.51895 83.0339 7.75569 83.4416 8.1391 83.6606C8.32826 83.7686 8.53859 83.8225 8.74908 83.8225C8.96531 83.8225 9.18171 83.7655 9.37448 83.6516L23.0424 75.5826C23.0509 75.5775 23.0585 75.5717 23.0669 75.5665C23.0808 75.5578 23.0944 75.5488 23.108 75.5396C23.1325 75.523 23.1561 75.5056 23.1791 75.4876C23.1902 75.4787 23.2016 75.47 23.2124 75.4608C23.2413 75.4364 23.2687 75.4108 23.2949 75.3842C23.2992 75.38 23.3036 75.3762 23.3077 75.3717C23.3395 75.3384 23.3691 75.3035 23.3966 75.2672C23.3974 75.2661 23.3986 75.2651 23.3996 75.2638C23.4017 75.2608 23.4034 75.2576 23.4055 75.2546C23.4337 75.2164 23.4593 75.1768 23.4828 75.1358C23.4877 75.1271 23.4929 75.1186 23.4977 75.1099C23.5215 75.0659 23.543 75.021 23.5612 74.9747C23.5643 74.9669 23.5668 74.9588 23.5697 74.9508C23.5845 74.9107 23.5971 74.8701 23.6078 74.8289C23.6106 74.8179 23.6137 74.8071 23.6161 74.7961C23.6271 74.748 23.6355 74.6996 23.6407 74.6504C23.6414 74.6438 23.6416 74.6372 23.6421 74.6305C23.646 74.5862 23.6473 74.5418 23.6463 74.4971C23.6462 74.487 23.646 74.4768 23.6457 74.4666C23.6434 74.4163 23.6386 74.3657 23.6301 74.3155C23.6294 74.3121 23.6284 74.3086 23.6278 74.305C23.6196 74.2593 23.6081 74.214 23.5945 74.1689C23.5909 74.157 23.5873 74.1454 23.5835 74.1338C23.5674 74.0857 23.5494 74.0379 23.5269 73.9912L21.8418 70.4749C22.8533 69.9707 24.0337 69.4537 25.3921 68.9668C29.9325 73.6012 35.3324 77.1782 41.5457 79.6498C41.6919 79.7079 41.846 79.7369 42.0003 79.7369C42.1547 79.7369 42.3089 79.7079 42.455 79.6498C48.6573 77.1825 54.0656 73.6022 58.6091 68.9671C59.9673 69.4541 61.1476 69.9709 62.1589 70.475L60.4738 73.9913C60.4513 74.0381 60.4333 74.086 60.4172 74.1341C60.4133 74.1457 60.4097 74.1574 60.4062 74.1692C60.3926 74.2143 60.3811 74.2597 60.3729 74.3055C60.3722 74.309 60.3713 74.3124 60.3708 74.3158C60.3622 74.3661 60.3575 74.4166 60.3552 74.467C60.3547 74.4773 60.3547 74.4875 60.3545 74.4976C60.3537 74.5423 60.3549 74.5867 60.3588 74.631C60.3594 74.6376 60.3594 74.6443 60.3601 74.6509C60.3652 74.6999 60.3737 74.7485 60.3847 74.7964C60.3872 74.8075 60.3903 74.8184 60.3932 74.8294C60.4037 74.8705 60.4164 74.9111 60.4311 74.9509C60.4341 74.959 60.4366 74.9672 60.4397 74.9752C60.4579 75.0215 60.4792 75.0663 60.503 75.1101C60.5078 75.1189 60.513 75.1276 60.5181 75.1363C60.5416 75.177 60.567 75.2167 60.595 75.2546C60.5973 75.2576 60.5988 75.261 60.6011 75.264C60.6021 75.2651 60.6031 75.2663 60.6041 75.2674C60.6316 75.3037 60.6612 75.3386 60.693 75.3719C60.6971 75.3763 60.7015 75.3801 60.7058 75.3844C60.7319 75.411 60.7594 75.4366 60.7883 75.461C60.7991 75.4702 60.8105 75.4789 60.8216 75.4877C60.8446 75.5058 60.8682 75.5232 60.8926 75.5397C60.9063 75.5489 60.9199 75.5581 60.9337 75.5667C60.942 75.5719 60.9496 75.5777 60.9581 75.5827L74.6259 83.6518C74.8187 83.7656 75.0347 83.8227 75.2513 83.8227C75.4616 83.8227 75.6721 83.7687 75.8613 83.6608C76.2447 83.4418 76.4814 83.0341 76.4814 82.5926V74.9906L83.363 71.2057C83.7393 70.9987 83.9805 70.6105 83.9992 70.1814C84.0171 69.7522 83.8107 69.3445 83.4537 69.1054ZM9.97954 80.4373V74.2629C9.97937 73.8145 9.73509 73.4015 9.342 73.1851L3.59559 70.0247L10.1164 65.6608L14.4428 73.9251C14.4666 73.9705 14.4932 74.014 14.5221 74.0555C14.5334 74.0717 14.5467 74.0863 14.5586 74.1019C14.5777 74.1267 14.5964 74.152 14.6172 74.1749C14.6379 74.1979 14.6605 74.2187 14.6827 74.2401C14.6966 74.2533 14.7097 74.2675 14.7243 74.2799C14.7516 74.3037 14.7806 74.3254 14.81 74.3467C14.8207 74.3544 14.831 74.3626 14.8418 74.37C14.8746 74.3923 14.9089 74.4123 14.9439 74.4315C14.9521 74.436 14.9601 74.4407 14.9685 74.445C15.0059 74.4643 15.0443 74.4814 15.0838 74.4968C15.0904 74.4994 15.0969 74.5021 15.1037 74.5045C15.1445 74.5198 15.1862 74.5327 15.2288 74.5437C15.2347 74.5452 15.2408 74.5467 15.2469 74.548C15.2736 74.5544 15.2997 74.5626 15.3271 74.5672L18.8968 75.1731L9.97954 80.4373ZM18.3257 72.5807C18.3544 72.5597 18.3846 72.5382 18.4143 72.5169C18.4779 72.4711 18.5414 72.4255 18.6083 72.3786C18.6493 72.3497 18.6932 72.3202 18.7355 72.291C18.8041 72.2438 18.872 72.1967 18.9437 72.1483C18.987 72.1192 19.0331 72.0892 19.0777 72.0597C19.153 72.0096 19.2275 71.9601 19.3063 71.9091C19.3345 71.8909 19.365 71.8722 19.3937 71.8538C19.4823 71.797 19.5717 71.7403 19.6644 71.6825C19.6715 71.6781 19.6792 71.6736 19.6862 71.6692L20.2821 72.9126L18.3257 72.5807ZM19.6191 68.8605C19.6157 68.8625 19.6119 68.8634 19.6085 68.8654C19.598 68.8712 19.5879 68.8769 19.5774 68.8828C19.5773 68.8828 19.5773 68.8828 19.5771 68.883C19.573 68.8853 19.5691 68.8876 19.5648 68.8899C19.5126 68.9187 19.4616 68.9474 19.4104 68.9763C19.3151 69.0298 19.2218 69.0831 19.1297 69.1363C19.0749 69.1679 19.02 69.1994 18.9663 69.2309C18.9602 69.2346 18.9543 69.238 18.9483 69.2416C18.9399 69.2465 18.9319 69.2514 18.9235 69.2562C18.7757 69.3432 18.6326 69.4291 18.4928 69.5148C18.4713 69.5279 18.449 69.5413 18.4277 69.5545C18.3429 69.6068 18.2604 69.6585 18.1785 69.7102C18.1609 69.7212 18.1439 69.7321 18.1265 69.7431C18.1244 69.7445 18.1224 69.7458 18.1203 69.7471C17.1743 70.3484 16.4298 70.9055 15.8772 71.3614L11.8528 63.6744L10.2538 60.6192C11.1495 59.7741 13.1372 58.1137 16.4614 56.4056C16.5889 56.6552 16.7179 56.9031 16.8484 57.1496C16.9147 57.2748 16.9825 57.3985 17.0496 57.523C17.2194 57.838 17.3912 58.1511 17.5661 58.461C17.6049 58.53 17.6418 58.6009 17.6809 58.6697C18.995 60.9788 20.4442 63.1326 22.0215 65.1324C22.0579 65.1786 22.0943 65.2249 22.1309 65.271C22.259 65.4323 22.3878 65.5927 22.5177 65.7519C22.5845 65.8337 22.6518 65.9149 22.7189 65.9963C22.8332 66.1346 22.9473 66.2731 23.0626 66.4097C23.2347 66.6138 23.4081 66.816 23.583 67.0163C22.0484 67.6143 20.7344 68.2459 19.6191 68.8605ZM60.4175 67.0161C60.4197 67.0128 60.4224 67.0096 60.4252 67.0064C60.5314 66.8852 60.6357 66.762 60.7404 66.6396C60.8042 66.5649 60.8685 66.4913 60.932 66.4163C61.0923 66.2268 61.2508 66.0355 61.4086 65.8432C61.414 65.8367 61.4194 65.8303 61.4247 65.8237C62.195 64.8833 62.9362 63.9081 63.6459 62.8969C63.7401 62.7627 63.8307 62.6247 63.9235 62.4893C64.0366 62.3249 64.1494 62.1606 64.2607 61.9944C64.3855 61.808 64.5092 61.6205 64.6319 61.4318C64.731 61.2799 64.8288 61.1266 64.9264 60.9732C65.0892 60.7178 65.2501 60.461 65.4092 60.2017C65.517 60.026 65.6238 59.8494 65.7298 59.6721C65.8542 59.464 65.9776 59.2554 66.0995 59.0449C66.2366 58.8085 66.3721 58.5707 66.5063 58.3314C66.58 58.1996 66.6542 58.0684 66.727 57.9357C66.9027 57.6162 67.0753 57.2937 67.2458 56.969C67.3037 56.8586 67.3611 56.7478 67.4185 56.6369C67.4584 56.5598 67.4991 56.4834 67.5386 56.4059C70.8393 58.1045 72.8417 59.7745 73.7447 60.6222L68.1225 71.3614C67.5698 70.9055 66.8253 70.3482 65.879 69.7469C65.877 69.7456 65.8752 69.7445 65.8732 69.7431C65.856 69.7321 65.8388 69.7212 65.8214 69.7102C65.7397 69.6585 65.6572 69.6068 65.5725 69.5546C65.5458 69.5382 65.5177 69.5213 65.4906 69.5049C65.3561 69.4226 65.2185 69.3399 65.0764 69.2562C65.068 69.2513 65.06 69.2464 65.0516 69.2416C65.0455 69.238 65.0396 69.2346 65.0336 69.2309C64.9799 69.1994 64.9248 69.1679 64.8701 69.1363C64.7779 69.0831 64.6846 69.03 64.5894 68.9763C64.5383 68.9476 64.4871 68.9187 64.4351 68.8899C64.431 68.8876 64.427 68.8853 64.4228 68.883C64.4226 68.883 64.4226 68.8828 64.4226 68.8828C64.4121 68.8771 64.4021 68.8713 64.3916 68.8654C64.3881 68.8634 64.3844 68.8623 64.3809 68.8603C63.266 68.2461 61.9522 67.6143 60.4175 67.0161ZM64.0712 72.1767L64.3143 71.6695C64.3215 71.674 64.3291 71.6786 64.3363 71.683C64.4288 71.7404 64.5176 71.797 64.6057 71.8535C64.6347 71.872 64.6657 71.891 64.6944 71.9096C64.7735 71.9606 64.8482 72.0105 64.9236 72.0607C64.9678 72.0899 65.0137 72.1197 65.0567 72.1486C65.1285 72.197 65.1966 72.2443 65.2654 72.2917C65.3077 72.3209 65.3513 72.3504 65.3924 72.3793C65.458 72.4254 65.5203 72.47 65.5828 72.515C65.6137 72.5371 65.6452 72.5596 65.6752 72.5814L63.7191 72.9135L64.0712 72.1767ZM74.6579 73.1851C74.2649 73.4014 74.0205 73.8145 74.0205 74.263V80.4375L65.1034 75.1729L68.6731 74.567C68.6861 74.5649 68.6983 74.5605 68.7112 74.5578C68.7415 74.5516 68.7715 74.5446 68.8012 74.5362C68.8227 74.5301 68.844 74.5236 68.865 74.5163C68.8936 74.5065 68.9216 74.4957 68.9492 74.4837C68.9697 74.475 68.9901 74.4661 69.0101 74.4563C69.0371 74.443 69.0632 74.4282 69.0891 74.413C69.108 74.402 69.1269 74.3913 69.1449 74.3793C69.1709 74.3621 69.1955 74.3433 69.2201 74.3242C69.2363 74.3116 69.253 74.2998 69.2685 74.2863C69.2941 74.2643 69.3178 74.2404 69.3416 74.2163C69.3543 74.2035 69.3677 74.1917 69.3797 74.1782C69.4074 74.1475 69.433 74.1146 69.4576 74.0809C69.4639 74.0724 69.4711 74.0648 69.477 74.0561C69.5062 74.0143 69.5329 73.9703 69.5569 73.9246L73.8835 65.6603L80.4041 70.0242L74.6579 73.1851Z" fill="white"/>
<path d="M67.5659 19.9904C67.5062 19.4108 67.0481 18.9527 66.4685 18.8928C52.2777 17.4289 42.8813 9.72346 42.7889 9.64651C42.3328 9.2654 41.6687 9.2654 41.212 9.64586C41.1188 9.72362 31.7223 17.4291 17.5314 18.8928C16.9517 18.9527 16.4937 19.4108 16.434 19.9904C16.4105 20.2185 15.8688 25.6605 16.7138 33.0912C17.4969 39.9747 19.6791 49.9012 25.6274 58.1002C25.868 58.4318 26.2435 58.608 26.624 58.608C26.8743 58.608 27.1271 58.5317 27.3453 58.3733C27.8951 57.9744 28.0177 57.2051 27.6185 56.6553C21.9966 48.9062 19.9184 39.445 19.1649 32.8725C18.5471 27.4832 18.6939 23.0974 18.8078 21.2233C30.9868 19.709 39.4519 14.0483 41.9998 12.1488C44.5478 14.0484 53.0121 19.7095 65.1926 21.2233C65.2768 22.5929 65.3787 25.305 65.1834 28.7762C65.1454 29.4546 65.6643 30.0352 66.3425 30.0733C67.0227 30.11 67.6019 29.5929 67.6398 28.9145C67.9347 23.6662 67.5812 20.1382 67.5659 19.9904Z" fill="white"/>
<path d="M66.1126 32.61C65.4393 32.5247 64.8233 33.0017 64.738 33.6757C62 55.3103 50.9655 64.2828 41.9996 67.9963C37.6669 66.2036 33.8674 63.6305 30.7008 60.3435C30.2298 59.8545 29.4509 59.8395 28.9616 60.3111C28.4724 60.7824 28.4578 61.5612 28.9292 62.0504C32.4509 65.7059 36.6955 68.5376 41.5453 70.4668C41.6915 70.5248 41.8455 70.5539 41.9999 70.5539C42.1543 70.5539 42.3085 70.5248 42.4545 70.4668C50.3849 67.312 56.5917 61.8194 60.9022 54.1415C64.0937 48.457 66.2052 41.6753 67.1785 33.9846C67.2639 33.3108 66.7864 32.6953 66.1126 32.61Z" fill="white"/>
<path d="M55.7543 29.6237C54.0743 27.9439 51.3414 27.9442 49.6614 29.6239L38.7052 40.5801L34.7504 36.6251C33.0704 34.9452 30.3374 34.9454 28.6574 36.6252C26.9778 38.3052 26.9778 41.0383 28.6574 42.7181L35.6591 49.7196C36.4725 50.5333 37.5545 50.9812 38.7052 50.9812C39.8563 50.9812 40.9381 50.533 41.7517 49.7194L55.7545 35.7168C57.4341 34.037 57.4341 31.3037 55.7543 29.6237ZM54.0151 33.9773L40.0123 47.9799C39.6633 48.3288 39.1992 48.5211 38.7055 48.5211C38.2119 48.5211 37.7478 48.3288 37.3988 47.9799L30.3975 40.9786C29.6768 40.2579 29.6768 39.0855 30.3972 38.3648C30.7574 38.0045 31.2307 37.8243 31.7042 37.8243C32.1774 37.8243 32.6507 38.0046 33.011 38.3648L37.8355 43.1896C38.0664 43.4205 38.3791 43.5499 38.7054 43.5499C39.0315 43.5499 39.3444 43.4203 39.5752 43.1896L51.4011 31.3636C52.122 30.6427 53.2942 30.6426 54.0151 31.3633C54.7356 32.0842 54.7356 33.2567 54.0151 33.9773Z" fill="white"/>
</g>
<defs>
<clipPath id="clip0_429_1783">
<rect width="84" height="84" fill="white"/>
</clipPath>
</defs>
</svg>
